<?xml version="1.0" encoding="UTF-8"?>
<svg version="1.1" xmlns="http://www.w3.org/2000/svg" width="6000" height="3375">
<path d="M0 0 C1980 0 3960 0 6000 0 C6000 1113.75 6000 2227.5 6000 3375 C4020 3375 2040 3375 0 3375 C0 2261.25 0 1147.5 0 0 Z " fill="#164670" transform="translate(0,0)"/>
<path d="M0 0 C1316.7 0 2633.4 0 3990 0 C3990 477.51 3990 955.02 3990 1447 C2673.3 1447 1356.6 1447 0 1447 C0 969.49 0 491.98 0 0 Z " fill="#145C9E" transform="translate(1005,964)"/>
<path d="M0 0 C0.83824059 0.00002625 1.67648118 0.00005251 2.54012301 0.00007956 C3.50632121 -0.00231672 4.47251941 -0.00471301 5.46799635 -0.00718191 C7.08400619 -0.00349147 7.08400619 -0.00349147 8.73266269 0.00027352 C10.44138268 -0.00172036 10.44138268 -0.00172036 12.18462226 -0.00375452 C15.38225535 -0.0064546 18.57985062 -0.00461026 21.77748164 -0.00095154 C25.26025143 0.00193829 28.74301704 -0.00095442 32.22578669 -0.0031268 C38.37418196 -0.00614985 44.52256817 -0.0054054 50.67096326 -0.00229056 C59.90221576 0.00236501 69.1334614 0.00126014 78.36471449 -0.0009896 C94.16498883 -0.00467025 109.9652597 -0.00356221 125.76553391 0.0000615 C141.87850091 0.00373647 157.99146593 0.00522067 174.10443333 0.00404579 C175.63347745 0.00393631 175.63347745 0.00393631 177.19341136 0.00382462 C182.39760841 0.00344215 187.60180546 0.00302453 192.80600251 0.00259493 C230.88180861 -0.00047274 268.95761326 0.00140417 307.03341917 0.00573921 C345.64568398 0.01011912 384.25794801 0.01232168 422.87021307 0.011837 C424.69437121 0.01181557 424.69437121 0.01181557 426.55538102 0.0117937 C437.69960643 0.01166195 448.84383183 0.01150584 459.98805724 0.0113207 C487.93775801 0.0108575 515.88745878 0.01072509 543.83715955 0.01081192 C545.75864963 0.01081754 545.75864963 0.01081754 547.7189577 0.01082328 C610.92317282 0.01103764 674.12738765 0.01500733 737.33160261 0.01921463 C759.59085047 0.02069377 781.85009833 0.0221551 804.10934619 0.02355075 C805.49299427 0.02363751 806.87664234 0.02372428 808.30221915 0.02381368 C872.36051467 0.02780887 936.41881016 0.02924226 1000.47710579 0.03001672 C1004.66502761 0.03006748 1008.85294943 0.03011944 1013.04087125 0.03017172 C1038.29360843 0.03048581 1063.54634561 0.03077318 1088.79908279 0.03102969 C1151.58132223 0.03166859 1214.36356167 0.03262809 1277.14580111 0.03380489 C1278.57517388 0.03383152 1280.00454666 0.03385816 1281.47723377 0.0338856 C1374.07696453 0.03561359 1466.67669519 0.0386616 1559.27642588 0.0428133 C1561.49456978 0.04291273 1561.49456978 0.04291273 1563.75752467 0.04301417 C1608.77350903 0.04503492 1653.78949338 0.04715328 1698.80547774 0.04929074 C1748.62151775 0.05165569 1798.43755776 0.05400398 1848.25359777 0.05628013 C1849.75155736 0.05634863 1851.24951694 0.05641713 1852.79286924 0.05648771 C1995.03061876 0.06298654 2137.26836832 0.06679827 2279.50611796 0.06991392 C2285.52984465 0.07004606 2291.55357134 0.07017898 2297.57729804 0.07031194 C2353.00838838 0.07153533 2408.43947872 0.07272716 2463.87056906 0.07387936 C2465.34451506 0.07391 2466.81846105 0.07394064 2468.33707208 0.0739722 C2472.79978387 0.07406497 2477.26249566 0.07415772 2481.72520745 0.07425047 C2602.29172994 0.0767564 2722.85825243 0.07953761 2843.42477491 0.0824971 C2847.67885095 0.08260146 2851.93292698 0.0827056 2856.18700302 0.08280968 C2994.4345787 0.08619286 3132.68215436 0.09006355 3376.81911156 0.09914748 C3380.58435691 0.09929238 3384.34960226 0.09943702 3388.11484762 0.09958155 C3389.96359156 0.09965254 3389.96359156 0.09965254 3391.84968386 0.09972496 C3394.09283741 0.09981109 3396.33599095 0.09989718 3398.57914449 0.09998322 C3595.42241118 0.10754441 3792.26567781 0.11641794 3989.10894445 0.12494468 C3989.10894445 317.91494468 3989.10894445 635.70494468 3989.10894445 963.12494468 C2671.74894445 963.12494468 1354.38894445 963.12494468 -2.89105555 963.12494468 C-2.89105555 0.19101608 -2.89105555 0.19101608 0 0 Z " fill="#1E5485" transform="translate(1006.8910555454349,2411.875055315424)"/>
<path d="M0 0 C635 0 635 0 831 1 C835.62 0.67 840.24 0.34 845 0 C848.35595275 -0.00377162 851.66390849 0.02891757 855.01171875 0.15625 C855.87263626 0.18223267 856.73355377 0.20821533 857.62055969 0.23498535 C860.3098041 0.31662086 862.99861471 0.40733837 865.6875 0.5 C868.41566506 0.59200663 871.14381921 0.68184551 873.87226868 0.76501465 C875.55520881 0.81643469 877.23800361 0.87293197 878.920578 0.93518066 C882.24198571 1.03773138 884.82027178 1.05990941 888 0 C890.8878457 0.09079434 893.74443625 0.23964655 896.625 0.4375 C903.25352793 0.83934494 909.85866204 1.11412682 916.5 1.125 C917.56661865 1.13164673 917.56661865 1.13164673 918.65478516 1.13842773 C921.71555224 1.12984056 924.0725044 0.97583187 927 0 C929.00664306 -0.0940365 931.01630177 -0.12793376 933.02514648 -0.12939453 C934.26751572 -0.13254669 935.50988495 -0.13569885 936.78990173 -0.13894653 C938.15029943 -0.13715487 939.5106968 -0.13510345 940.87109375 -0.1328125 C942.27295448 -0.13348675 943.67481509 -0.13445779 945.07667542 -0.13571167 C948.02142444 -0.13718729 950.96614317 -0.13504136 953.91088867 -0.13037109 C957.65267369 -0.12472114 961.39438622 -0.12792329 965.13616848 -0.13394356 C968.03699773 -0.13759347 970.93781041 -0.13638966 973.83864021 -0.13381577 C975.21589225 -0.1331562 976.59314586 -0.1339403 977.97039604 -0.13629532 C979.91703124 -0.13888982 981.8636718 -0.13422329 983.81030273 -0.12939453 C984.91155991 -0.12859894 986.01281708 -0.12780334 987.14744568 -0.12698364 C992.44209148 0.04753263 997.72077779 0.56006482 1003 1 C1003 478.51 1003 956.02 1003 1448 C766.06 1448.33 529.12 1448.66 285 1449 C190.95 1449.33 96.9 1449.66 0 1450 C0 971.5 0 493 0 0 Z " fill="#184A77" transform="translate(0,963)"/>
<path d="M0 0 C1.2501847 0.00015598 2.50036941 0.00031196 3.7884385 0.00047267 C4.8340217 -0.00144447 4.8340217 -0.00144447 5.90072779 -0.00340034 C8.2708541 -0.00649871 10.64091561 -0.0023784 13.01103985 0.00162334 C14.72167141 0.0008847 16.43230282 -0.0002928 18.14293381 -0.00187286 C22.88646601 -0.00496203 27.62997703 -0.00175062 32.37350767 0.00240542 C37.50603214 0.00581683 42.63855429 0.00346981 47.77107918 0.00182265 C56.79024289 -0.00026269 65.80940002 0.00140482 74.82856297 0.00545603 C88.41415588 0.01153846 101.99974478 0.01182758 115.58533881 0.01099074 C138.34839514 0.00974634 161.11144799 0.01304284 183.87450325 0.0190956 C214.6533176 0.02726243 245.43212802 0.02919759 276.21094429 0.03006667 C350.24125901 0.03532407 424.27157289 0.04928508 498.30188667 0.06217116 C746.26594917 0.09310866 746.26594917 0.09310866 999.23938667 0.12467116 C999.23938667 478.29467116 999.23938667 956.46467116 999.23938667 1449.12467116 C945.48596268 1449.12467116 891.73282887 1449.12442586 837.97948372 1449.06120986 C835.99081694 1449.05893005 834.00215014 1449.05665876 832.01348334 1449.05439496 C828.89969588 1449.05084922 825.78590842 1449.04729854 822.67212099 1449.04372163 C811.66807771 1449.03108595 800.66403375 1449.01909153 789.65998976 1449.00709199 C769.37290463 1448.98495354 749.08582004 1448.96235739 728.79873573 1448.93947524 C708.79011478 1448.91690876 688.78149359 1448.89456117 668.77287209 1448.87248916 C666.88791528 1448.87040964 666.88791528 1448.87040964 664.96487854 1448.86828811 C658.57982183 1448.86124508 652.19476511 1448.85420581 645.80970838 1448.84716797 C600.89906033 1448.79765918 555.9884128 1448.74768497 511.07776558 1448.69742507 C500.2575955 1448.68531634 489.43742542 1448.67320928 478.61725533 1448.66110915 C477.94592424 1448.66035841 477.27459316 1448.65960766 476.58291871 1448.65883416 C445.20583948 1448.62374761 413.82875996 1448.58893124 382.45168036 1448.55418185 C380.40746532 1448.55191792 378.36325028 1448.54965388 376.31903524 1448.54738982 C362.76866293 1448.53238233 349.21829062 1448.51737944 335.6679183 1448.50237962 C308.07848016 1448.47183897 280.48904205 1448.44126919 252.89960396 1448.41068191 C251.63183423 1448.40927642 250.36406449 1448.40787093 249.0578775 1448.40642285 C164.78504668 1448.31299206 80.51221662 1448.21888656 -3.76061333 1448.12467116 C-3.76611123 1403.85326819 -3.77138321 1359.5818652 -3.77648247 1315.31046218 C-3.77658226 1314.44419681 -3.77668206 1313.57793145 -3.77678488 1312.68541562 C-3.78746879 1219.893434 -3.79669279 1127.10145238 -3.80295647 1034.30947036 C-3.80309592 1032.24911464 -3.80323537 1030.18875891 -3.80337482 1028.12840319 C-3.80629729 984.88426485 -3.80901403 941.6401265 -3.811493 898.39598814 C-3.81273843 876.67413605 -3.81402341 854.95228397 -3.81534577 833.23043188 C-3.81554502 829.95370214 -3.81574313 826.67697241 -3.81594121 823.40024267 C-3.81900243 772.92268382 -3.82291358 722.44512522 -3.82927788 671.96756667 C-3.82941478 670.88164322 -3.82955167 669.79571977 -3.82969272 668.67688955 C-3.83190519 651.16776347 -3.83418876 633.6586374 -3.83648177 616.14951133 C-3.84308248 565.73892542 -3.8491604 515.3283397 -3.85175312 464.9177534 C-3.85180665 463.88185094 -3.85186019 462.84594848 -3.85191535 461.77865504 C-3.85308091 439.04212861 -3.85397586 416.30560217 -3.85461431 393.56907571 C-3.85487594 384.42168791 -3.85517656 375.2743001 -3.85549057 366.1269123 C-3.855524 365.12574917 -3.85555742 364.12458604 -3.85559186 363.09308463 C-3.85668962 330.79601159 -3.86096515 298.49893993 -3.86689553 266.20186745 C-3.87285136 233.68746355 -3.87571504 201.17306099 -3.87423731 168.65865654 C-3.87403421 164.17266021 -3.87386684 159.68666389 -3.87372101 155.20066756 C-3.87369113 154.32123034 -3.87366125 153.44179311 -3.87363046 152.53570627 C-3.87324877 138.5709238 -3.87624336 124.60614413 -3.88062319 110.64136242 C-3.88485395 96.93311168 -3.88556396 83.22486461 -3.88244514 69.51661354 C-3.88072157 61.46458891 -3.88178249 53.41257586 -3.88683033 45.36055257 C-3.89026295 39.40587281 -3.88856481 33.45120214 -3.8847533 27.49652234 C-3.88403192 25.0853362 -3.88503071 22.67414885 -3.88784857 20.26296424 C-3.89140437 17.01764682 -3.88893441 13.77239134 -3.88481182 10.52707601 C-3.8873207 9.57564539 -3.88982958 8.62421477 -3.89241448 7.64395292 C-3.87183709 0.17485478 -3.87183709 0.17485478 0 0 Z " fill="#1A4D7A" transform="translate(5000.760613325983,962.8753288350999)"/>
<path d="M0 0 C1.21095255 -0.00256411 2.42190509 -0.00512821 3.66955317 -0.00777002 C5.01360366 -0.00556184 6.357654 -0.0032629 7.70170419 -0.00088333 C9.1372699 -0.00200031 10.57283533 -0.00355552 12.00840014 -0.00550923 C15.97779885 -0.00962783 19.94717378 -0.00747971 23.9165725 -0.00436337 C28.2418075 -0.00206716 32.56703839 -0.00556489 36.89227258 -0.00833018 C44.51022874 -0.01239217 52.12817809 -0.01270616 59.74613495 -0.01062424 C71.15057923 -0.00752457 82.55501723 -0.01015635 93.95946105 -0.01392295 C113.39307722 -0.0201689 132.82669117 -0.02162726 152.26030819 -0.02050548 C171.96366661 -0.01938243 191.66702315 -0.0204102 211.37038128 -0.02407794 C212.61328979 -0.02430759 213.8561983 -0.02453725 215.1367707 -0.02477386 C220.19866692 -0.02571546 225.26056313 -0.02667114 230.32245934 -0.02764505 C282.46637677 -0.03766286 334.61029262 -0.04083733 386.7542108 -0.04141348 C392.44368763 -0.04147673 398.13316445 -0.04154325 403.82264128 -0.04161404 C405.24862858 -0.04163173 406.67461588 -0.0416491 408.10060319 -0.04166616 C440.08950655 -0.04205377 472.07840969 -0.04423172 504.06731294 -0.04679641 C511.20435287 -0.04736797 518.34139281 -0.04792194 525.47843274 -0.04847705 C526.54108854 -0.04855973 526.54108854 -0.04855973 527.62521214 -0.04864408 C531.92551965 -0.04897858 536.22582715 -0.04931235 540.52613466 -0.04964564 C542.68033038 -0.04981272 544.8345261 -0.04998023 546.98872182 -0.05014778 C580.48398679 -0.05274978 613.97925178 -0.05498004 647.47451679 -0.05682998 C648.20436159 -0.05687035 648.93420638 -0.05691072 649.68616768 -0.05695231 C696.20146377 -0.05951582 742.71675972 -0.06041477 789.23205587 -0.06015198 C791.51971315 -0.06013922 793.80737043 -0.06012726 796.09502771 -0.06011557 C812.16712937 -0.06003323 828.23923103 -0.05993052 844.3113327 -0.05982269 C848.91964994 -0.05979192 853.52796718 -0.05976185 858.13628443 -0.05973187 C861.98022508 -0.05970678 865.82416573 -0.05968099 869.66810638 -0.05965376 C942.27455815 -0.05914231 1014.88100882 -0.0605607 1087.48746006 -0.07000117 C1088.25189942 -0.07010053 1089.01633878 -0.07019989 1089.80394296 -0.07030226 C1113.68858134 -0.0734136 1137.57321968 -0.0767801 1161.45785801 -0.08019404 C1185.96492409 -0.08369541 1210.47199017 -0.08716584 1234.97905628 -0.09045844 C1235.73362323 -0.09055997 1236.48819017 -0.09066149 1237.26562278 -0.0907661 C1284.51447873 -0.09711423 1331.76333438 -0.10103692 1379.01219074 -0.10231643 C1379.74182209 -0.10233646 1380.47145343 -0.10235648 1381.22319481 -0.10237712 C1413.26525155 -0.1032524 1445.30730827 -0.10357223 1477.34936502 -0.10328623 C1490.23955009 -0.10317195 1503.12973516 -0.10311588 1516.01992022 -0.10308291 C1518.15720823 -0.10307651 1520.29449624 -0.10306743 1522.43178424 -0.10305776 C1555.13306766 -0.10292123 1587.83435006 -0.10426949 1620.53563301 -0.11010294 C1621.24111737 -0.11022861 1621.94660173 -0.11035428 1622.6734644 -0.11048376 C1634.02246283 -0.11251285 1645.37146123 -0.11465686 1656.72045964 -0.11681057 C1703.2061913 -0.12562501 1749.69191713 -0.12816294 1796.17764967 -0.12145026 C1802.49773129 -0.1205379 1808.81781292 -0.11969464 1815.13789456 -0.11889224 C1816.99633428 -0.11865211 1816.99633428 -0.11865211 1818.89231823 -0.11840713 C1838.54466397 -0.11605011 1858.19700227 -0.12042094 1877.8493466 -0.12756343 C1897.15328077 -0.13443949 1916.45720392 -0.13422737 1935.76113784 -0.12637129 C1947.09149597 -0.12197468 1958.4218217 -0.12309758 1969.75217718 -0.13223808 C1977.2665917 -0.13775771 1984.7809819 -0.13609126 1992.29539453 -0.12845529 C1996.56184457 -0.12432447 2000.8282306 -0.12335523 2005.09467686 -0.13120598 C2008.9650394 -0.13826993 2012.83528362 -0.13614558 2016.70564002 -0.12667229 C2018.09422212 -0.12488122 2019.48281365 -0.1264322 2020.87138669 -0.13175842 C2040.47725249 -0.20188834 2055.32821086 5.89694372 2069.70444004 19.3131165 C2085.52607832 35.70285669 2088.48171463 55.0484879 2088.40512364 76.77039189 C2088.40919636 78.72326047 2088.41454215 80.67612673 2088.42105381 82.62898869 C2088.43464898 87.89750985 2088.4294614 93.1658534 2088.41991656 98.43437738 C2088.41228041 103.96740223 2088.4193764 109.50041266 2088.42407505 115.03343816 C2088.42952067 124.32110915 2088.42237189 133.60870838 2088.40805332 142.89636846 C2088.39172434 153.61134571 2088.397022 164.32615171 2088.41353254 175.04112483 C2088.42717572 184.26699069 2088.42905338 193.4928052 2088.42121653 202.71867789 C2088.41655619 208.21748701 2088.41586997 213.7162158 2088.425826 219.21501965 C2088.43453486 224.38537729 2088.42840249 229.55551548 2088.41114323 234.72584958 C2088.40719946 236.61557125 2088.40827595 238.50531161 2088.41493122 240.39502568 C2088.44687427 250.391766 2088.19842589 259.52464923 2085.01694004 269.1256165 C2084.64053379 270.26256963 2084.26412754 271.39952275 2083.87631504 272.570929 C2081.03312357 279.43863799 2077.54496124 285.24024937 2073.01694004 291.1256165 C2072.29506504 292.1362415 2071.57319004 293.1468665 2070.82944004 294.1881165 C2061.24829148 305.282078 2046.34078511 312.66065134 2032.01694004 315.1256165 C2030.02872655 315.21429278 2028.03790144 315.25159694 2026.04771149 315.25217834 C2024.23592307 315.25634131 2024.23592307 315.25634131 2022.38753286 315.26058839 C2021.04698134 315.25861888 2019.70642995 315.25655859 2018.36587869 315.25441767 C2016.93399707 315.25578611 2015.50211581 315.25759227 2014.07023523 315.25979649 C2010.11107715 315.26460827 2006.15194179 315.26315784 2002.19278242 315.26073879 C1997.87866948 315.25920069 1993.56456164 315.26344983 1989.25045039 315.26696555 C1981.65207075 315.27234846 1974.0536973 315.27398145 1966.4553159 315.27321481 C1955.08007313 315.27208136 1943.70483759 315.27665416 1932.32959645 315.28234565 C1912.94549162 315.29186732 1893.56138824 315.29656647 1874.17728131 315.29865498 C1854.52390585 315.30078182 1834.87053263 315.30503766 1815.21715824 315.31189771 C1813.35751017 315.31254363 1813.35751017 315.31254363 1811.46029345 315.3132026 C1806.41118197 315.3149609 1801.36207049 315.31673054 1796.31295902 315.31851562 C1735.77705225 315.33987599 1675.24114568 315.35079212 1614.70523611 315.35967785 C1594.13456352 315.36270097 1573.56389104 315.36616157 1552.99321859 315.36995907 C1552.29305702 315.37008818 1551.59289545 315.3702173 1550.87151687 315.37035033 C1544.4982446 315.3715258 1538.12497233 315.37270498 1531.75170006 315.37388759 C1459.73792222 315.3872426 1387.72414404 315.39963675 1241.0050882 315.41464662 C1234.15328085 315.41517108 1227.3014735 315.4157084 1220.44966615 315.41624509 C1218.16144947 315.41642429 1215.8732328 315.41660326 1213.58501612 315.41678218 C1199.04848602 315.41791926 1184.51195592 315.41906533 1169.97542582 315.42023037 C1166.14019212 315.42053768 1162.30495842 315.42084362 1158.46972472 315.42114628 C1086.03742225 315.42686591 1013.60512328 315.43610796 941.17282383 315.45856328 C940.41036473 315.45879951 939.64790563 315.45903574 938.8623417 315.45927912 C914.27328912 315.46690698 889.68423668 315.47495581 865.09518425 315.48306439 C841.41850215 315.49087196 817.74182003 315.49859538 794.06513779 315.50595422 C792.93620594 315.50630535 792.93620594 315.50630535 791.7844674 315.50666358 C744.64892465 315.52130054 697.51338285 315.53110208 650.37783806 315.53582902 C649.64982636 315.53590261 648.92181465 315.53597621 648.17174199 315.53605203 C616.19896091 315.53927803 584.22617984 315.54144643 552.25339861 315.54243504 C539.39053612 315.54283585 526.52767364 315.54336924 513.66481116 315.54396646 C511.53207557 315.54406393 509.39933998 315.54415631 507.26660439 315.54424784 C474.64449662 315.54567653 442.02239335 315.55024602 409.40028827 315.56412382 C408.69679679 315.56442289 407.99330531 315.56472196 407.26849591 315.5650301 C395.95194367 315.56985864 384.63539155 315.57494055 373.31883945 315.58005609 C326.94215153 315.60101292 280.56548541 315.60963706 234.18879153 315.59993124 C227.87990555 315.59861274 221.57101955 315.59743471 215.26213352 315.59634061 C214.02539553 315.59612076 212.78865753 315.59590091 211.51444263 315.5956744 C191.91701331 315.59255783 172.31961502 315.60289534 152.7221929 315.61881616 C133.46039581 315.63418612 114.19864171 315.63533349 94.93684314 315.62126792 C83.63894329 315.61344696 72.34117461 315.61660137 61.04328781 315.63590508 C53.54145348 315.64763191 46.03971509 315.6448685 38.53788599 315.63029044 C34.2842648 315.6224312 30.03090043 315.62073916 25.77729691 315.63690948 C21.9102937 315.65149277 18.04375999 315.6473354 14.17677754 315.62885782 C12.15280094 315.62382465 10.12880347 315.63818386 8.10487943 315.6536138 C-11.52714312 315.50231302 -27.74963984 308.78113836 -41.98305996 295.1256165 C-47.53331292 289.03365885 -51.57772843 282.48661355 -54.92055996 275.0006165 C-55.20318691 274.36825078 -55.48581386 273.73588506 -55.77700527 273.08435674 C-60.55971186 261.64253811 -60.28108383 250.06422531 -60.2735873 237.88489385 C-60.27957907 235.93895822 -60.2863861 233.99302496 -60.29394253 232.04709477 C-60.31154595 226.78230491 -60.31629558 221.51758015 -60.3175741 216.2527637 C-60.31899972 212.95632202 -60.32327714 209.65989667 -60.32856853 206.36345906 C-60.34705168 194.84259859 -60.35524149 183.32178428 -60.35366543 171.80090947 C-60.35246523 161.09570514 -60.37354826 150.39070282 -60.40515275 139.68554957 C-60.43138852 130.46733019 -60.44202963 121.24917648 -60.44075461 112.0309201 C-60.44024702 106.53748416 -60.44581671 101.0442278 -60.46711071 95.55082936 C-60.48661591 90.37800581 -60.48653431 85.20553085 -60.47207744 80.03269429 C-60.47000324 78.14625895 -60.4746062 76.25980106 -60.48679836 74.37340398 C-60.61603883 52.97159708 -56.3800155 35.13606931 -41.12368496 19.23108525 C-40.06407558 18.18887822 -40.06407558 18.18887822 -38.98305996 17.1256165 C-38.42102871 16.56487431 -37.85899746 16.00413213 -37.27993496 15.42639775 C-27.13297824 6.04292564 -13.85497031 0.00159339 0 0 Z " fill="#FEFEFE" transform="translate(1985.9830599576235,1847.8743834979832)"/>
<path d="M0 0 C1316.7 0 2633.4 0 3990 0 C3990 477.51 3990 955.02 3990 1447 C2673.3 1447 1356.6 1447 0 1447 C0 969.49 0 491.98 0 0 Z M12 12 C12 481.59 12 951.18 12 1435 C1320.78 1435 2629.56 1435 3978 1435 C3978 965.41 3978 495.82 3978 12 C2669.22 12 1360.44 12 12 12 Z " fill="#FEFEFE" transform="translate(1005,964)"/>
<path d="M0 0 C30.03 0 60.06 0 91 0 C94.96 11.88 98.92 23.76 103 36 C105.28550781 42.83912109 105.28550781 42.83912109 107.6171875 49.81640625 C109.76953125 56.25976563 109.76953125 56.25976563 110.82666016 59.42504883 C111.52142676 61.50433287 112.21673279 63.58343676 112.91259766 65.66235352 C118.18847622 81.42709303 123.360709 97.22390037 128.49879265 113.03394127 C135.42622165 134.34655904 142.43754604 155.63124282 149.46014404 176.91265869 C150.7793177 180.91104084 152.09761892 184.90971041 153.41590786 188.90838432 C154.7154958 192.8501421 156.0154558 196.79177709 157.31553841 200.73337173 C157.92107401 202.56927237 158.52654008 204.40519595 159.13192558 206.24114609 C159.70104413 207.966906 160.2703727 209.69259667 160.839921 211.4182148 C161.39028003 213.08620575 161.93996809 214.75441825 162.48894405 216.42286491 C163.96146362 220.89024522 165.45619338 225.34902221 166.97659302 229.800354 C167.30157556 230.7576346 167.62655809 231.7149152 167.96138859 232.7012043 C168.58750921 234.54335442 169.21844379 236.38387753 169.85488796 238.2224865 C170.1358183 239.05141977 170.41674864 239.88035305 170.70619202 240.73440552 C170.95646684 241.46311419 171.20674166 242.19182285 171.46460056 242.9426136 C172 245 172 245 172 249 C147.91 249 123.82 249 99 249 C94.45044053 234.21393172 94.45044053 234.21393172 93 227.625 C91.41802952 220.65713911 89.63346413 213.76675646 87.734375 206.87890625 C87 204 87 204 87 202 C60.27 202 33.54 202 6 202 C5.01 206.29 4.02 210.58 3 215 C2.01122662 219.06581554 1.01418671 223.12811206 0 227.1875 C-0.2475 228.18974609 -0.495 229.19199219 -0.75 230.22460938 C-0.9975 231.21654297 -1.245 232.20847656 -1.5 233.23046875 C-1.82484375 234.53600708 -1.82484375 234.53600708 -2.15625 235.86791992 C-3.34264608 240.27193476 -4.68940121 244.63133737 -6 249 C-54.51 249 -103.02 249 -153 249 C-157.29 241.41 -161.58 233.82 -166 226 C-168.58724891 221.59182754 -171.18221027 217.19428612 -173.8125 212.8125 C-180.20308914 202.10108143 -186.44159079 191.3103897 -192.59692383 180.4621582 C-195.95203111 174.55422348 -199.35762339 168.697399 -202.94677734 162.92797852 C-204 161 -204 161 -204 159 C-209.94 159 -215.88 159 -222 159 C-222 188.7 -222 218.4 -222 249 C-244.11 249 -266.22 249 -289 249 C-289 167.16 -289 85.32 -289 1 C-149.53241132 1 -149.53241132 1 -123.28515625 25.625 C-110.29815557 39.12260071 -106.6165483 55.3574646 -106.75 73.5625 C-106.74226563 74.62146484 -106.73453125 75.68042969 -106.7265625 76.77148438 C-106.7505091 86.48781918 -108.15013051 95.11414234 -112.125 104 C-112.58350342 105.03072632 -112.58350342 105.03072632 -113.05126953 106.08227539 C-115.86815885 112.15178045 -119.41972802 117.11209781 -124 122 C-124.7115625 122.77859375 -125.423125 123.5571875 -126.15625 124.359375 C-132.4485746 130.96188462 -139.35637936 136.82760732 -148 140 C-145.02096412 145.37855653 -141.74857331 150.4652851 -138.28515625 155.54296875 C-137.12568168 157.25338357 -135.96626029 158.96383445 -134.80688477 160.67431641 C-134.19692657 161.57224915 -133.58696838 162.47018188 -132.95852661 163.39532471 C-118.56446461 184.59267712 -104.41402547 205.94578996 -90.3605957 227.37010193 C-89.39375272 228.84338125 -88.42531909 230.31561823 -87.45510864 231.78668213 C-86.41997574 233.36118872 -85.39233204 234.94063001 -84.36984253 236.52337646 C-83.83714752 237.3405011 -83.30445251 238.15762573 -82.75561523 238.99951172 C-82.27527328 239.74208221 -81.79493134 240.48465271 -81.30003357 241.24972534 C-80.10279643 243.13667167 -80.10279643 243.13667167 -78 244 C-77.87565079 242.97755692 -77.75130157 241.95511383 -77.6231842 240.90168762 C-77.04282201 237.26810391 -76.18768887 234.05812746 -75.02905273 230.57299805 C-74.61965958 229.33147476 -74.21026642 228.08995148 -73.78846741 226.81080627 C-73.3369059 225.46108934 -72.88527942 224.11139414 -72.43359375 222.76171875 C-71.9628827 221.34031295 -71.49275747 219.91871304 -71.0231781 218.49693298 C-70.02242774 215.47005786 -69.01829639 212.44433528 -68.01141357 209.41949463 C-65.61689188 202.22474337 -63.24054589 195.02398203 -60.86329651 187.82350922 C-60.33096535 186.2113638 -59.79842259 184.59928825 -59.26567078 182.9872818 C-54.71797411 169.22631693 -50.26207678 155.43806767 -45.875 141.625 C-39.64468855 122.02805322 -33.25560579 102.48566974 -26.82633209 82.95338058 C-18.76203401 58.45231151 -10.83075543 33.91163784 -3.0166626 9.32939148 C-2.76334167 8.53257462 -2.51002075 7.73575775 -2.24902344 6.91479492 C-2.03034607 6.22624924 -1.8116687 5.53770355 -1.58636475 4.82829285 C-1.06900307 3.21515247 -0.53571308 1.60713923 0 0 Z " fill="#FEFEFE" transform="translate(1979,1256)"/>
<path d="M0 0 C21.45 0 42.9 0 65 0 C70.65083828 23.73352076 70.65083828 23.73352076 73.02514648 35.62524414 C75.19075569 46.45585452 77.46056611 57.24995681 80 68 C82.49782983 78.58413761 84.7189565 89.21038867 86.87936401 99.86709595 C88.97144241 110.17489098 91.20231348 120.43762169 93.5625 130.6875 C96.02222576 141.40502453 98.28721609 152.14216486 100.375 162.9375 C100.62580322 164.22938232 100.87660645 165.52126465 101.13500977 166.85229492 C102.28760698 172.89550144 103.27421029 178.89216853 104 185 C106.01233134 174.52924663 108.00392676 164.05599143 109.89453125 153.5625 C113.4418084 133.94228531 117.29849173 114.54144174 122.19726562 95.20898438 C123.48779758 90.04999652 124.68547116 84.8705637 125.875 79.6875 C126.11105957 78.66132568 126.34711914 77.63515137 126.59033203 76.57788086 C129.29172894 64.78956502 131.93625091 52.98816765 134.57763672 41.1862793 C137.65871442 27.44277583 140.83270076 13.72496338 144 0 C164.79 0 185.58 0 207 0 C211.49657986 15.73802952 211.49657986 15.73802952 212.89453125 22.37109375 C213.12375275 23.44652687 213.12375275 23.44652687 213.35760498 24.54368591 C213.68047924 26.06032701 214.00129575 27.57740758 214.32009888 29.09490967 C215.17686828 33.17097615 216.05051093 37.24343953 216.921875 41.31640625 C217.09711197 42.13741821 217.27234894 42.95843018 217.45289612 43.80432129 C219.1002157 51.50746635 220.81875393 59.19311839 222.5625 66.875 C222.84714111 68.13062744 223.13178223 69.38625488 223.42504883 70.67993164 C224.57059061 75.72610335 225.71974009 80.77144618 226.87060547 85.81640625 C228.78648195 94.2193358 230.68799547 102.62534016 232.5625 111.03759766 C232.85361361 112.34338514 233.14527822 113.64904991 233.4375 114.95458984 C238.78035952 138.83645635 243.03886131 162.85288397 247 187 C247.09651855 186.24678467 247.19303711 185.49356934 247.29248047 184.7175293 C248.82891595 173.33773053 250.9586337 162.08638718 253.125 150.8125 C253.32286102 149.77844025 253.52072205 148.74438049 253.72457886 147.6789856 C256.54963772 132.95530698 259.62419607 118.3172601 263.05151367 103.72290039 C265.50618589 93.26271232 267.75875908 82.77094029 269.9375 72.25 C273.06445587 57.17160396 276.4341724 42.15899882 279.94311523 27.16503906 C280.21540451 25.99995819 280.21540451 25.99995819 280.49319458 24.81134033 C280.82477331 23.39462805 281.15758693 21.97820366 281.49215698 20.56219482 C283.09529512 13.72630591 284.52769408 6.87076095 286 0 C307.45 0 328.9 0 351 0 C346.36410068 20.86154692 346.36410068 20.86154692 344.7734375 27.57421875 C344.48972794 28.77550163 344.48972794 28.77550163 344.20028687 30.00105286 C343.59383664 32.56367615 342.98477228 35.12566529 342.375 37.6875 C342.16234497 38.58275391 341.94968994 39.47800781 341.73059082 40.40039062 C338.34446334 54.63453955 334.77979565 68.81646018 331.1071167 82.97909546 C328.34904568 93.6198048 325.73302233 104.27308474 323.32714844 115 C320.88781374 125.74800044 318.09773199 136.40281604 315.33398438 147.07080078 C312.5033034 158.00733294 309.80308668 168.95403897 307.33251953 179.97851562 C304.67884068 191.67470236 301.63386366 203.27233449 298.6015625 214.875 C296.30245968 223.70759919 294.14353916 232.54678524 292.26193237 241.47900391 C291.10314708 246.89685292 291.10314708 246.89685292 290 248 C287.50507612 248.09502416 285.03793986 248.12557566 282.54272461 248.11352539 C281.76229294 248.11367142 280.98186127 248.11381744 280.17778015 248.1139679 C277.5859402 248.11326858 274.99417122 248.10547536 272.40234375 248.09765625 C270.6101536 248.09579213 268.81796294 248.0943682 267.02577209 248.09336853 C262.29929203 248.08954284 257.57284248 248.07971212 252.84637451 248.06866455 C248.0271445 248.05845153 243.20790958 248.05387115 238.38867188 248.04882812 C228.92576781 248.03808989 219.46288644 248.02101286 210 248 C209.74029922 246.77765656 209.48059845 245.55531311 209.21302795 244.29592896 C203.53922093 217.54611299 203.53922093 217.54611299 197.5385437 190.86831665 C189.10149525 154.4325343 181.5907639 117.98874217 176 81 C175.88519287 81.79132324 175.77038574 82.58264648 175.65209961 83.39794922 C171.32594896 112.88847493 165.27107728 141.84750965 158.48852539 170.86230469 C154.99049222 185.85797528 151.75625955 200.90591056 148.56390381 215.96920776 C146.99816208 223.35277614 145.41946776 230.7333042 143.80078125 238.10546875 C143.55137032 239.25442375 143.55137032 239.25442375 143.29692078 240.42658997 C142.11618275 245.76763451 142.11618275 245.76763451 141 248 C114.6 248 88.2 248 61 248 C54.26879345 222.19704157 54.26879345 222.19704157 52.1875 212.78125 C49.84358983 202.42719537 47.30858568 192.13024859 44.6875 181.84375 C44.40298981 180.72664642 44.40298981 180.72664642 44.11273193 179.5869751 C42.74580814 174.22362854 41.37349717 168.86166635 40 163.5 C38.43386502 157.38634109 36.86999177 151.27211722 35.3125 145.15625 C35.12214676 144.40897203 34.93179352 143.66169407 34.735672 142.89177132 C32.38771951 133.65892654 30.13204463 124.41392753 28.03125 115.12109375 C25.67544652 104.70484522 23.1068196 94.35142312 20.46875 84.00390625 C20.26781738 83.21533108 20.06688477 82.42675591 19.85986328 81.61428452 C17.99301165 74.29196917 16.11789403 66.97177514 14.24072266 59.65209961 C13.19926741 55.58995301 12.16209491 51.52672917 11.12709045 47.46293449 C10.56219577 45.25012711 9.99260935 43.03856919 9.42272949 40.82704163 C5.96920164 27.26868459 3.04070236 13.6831606 0 0 Z " fill="#FEFEFE" transform="translate(4470,1257)"/>
<path d="M0 0 C1.07858276 0.00273422 1.07858276 0.00273422 2.17895508 0.00552368 C37.55124214 0.15576292 67.74156767 8.41769766 93.4140625 33.62109375 C105.60293927 46.37543388 113.25361822 63.80751518 117.875 80.6875 C118.06989014 81.38061279 118.26478027 82.07372559 118.46557617 82.7878418 C122.29197142 97.79830637 122.47211671 113.5425052 122.4375 128.9375 C122.43695618 129.85426514 122.43641235 130.77103027 122.43585205 131.71557617 C122.39645046 146.20653611 121.7071476 160.21480059 118.0625 174.3125 C117.85882813 175.10865723 117.65515625 175.90481445 117.4453125 176.72509766 C112.95260306 193.45836037 104.95674065 209.63763561 93.0625 222.3125 C92.30582031 223.15941406 91.54914063 224.00632812 90.76953125 224.87890625 C76.2264834 240.41837826 56.70052367 248.15529206 36.33520508 252.79272461 C34.86762926 253.1283642 33.4055442 253.4894867 31.9519043 253.88110352 C23.83215744 255.86534182 15.56849716 255.64898835 7.26196289 255.62817383 C4.66183279 255.62504433 2.06287823 255.64842269 -0.53710938 255.67382812 C-32.77105088 255.79625702 -63.41632602 247.14881796 -87.1875 224.5625 C-105.52112191 205.26553507 -114.60203969 180.70917227 -117.67138672 154.57641602 C-117.83930836 153.14784958 -118.0213418 151.7208062 -118.22314453 150.29663086 C-119.2497096 142.56984635 -119.18030801 134.78078243 -119.1875 127 C-119.18850708 126.24405548 -119.18951416 125.48811096 -119.19055176 124.70925903 C-119.17970936 112.65745484 -118.41491795 101.13347683 -115.9375 89.3125 C-115.66731824 87.86340239 -115.39778536 86.41418364 -115.12890625 84.96484375 C-109.88929349 58.48120151 -94.5890708 34.39541942 -72.32617188 19.05224609 C-59.06780991 10.20232619 -44.55895723 5.16838715 -28.9375 2.3125 C-27.99769287 2.13517334 -27.05788574 1.95784668 -26.08959961 1.77514648 C-17.38666035 0.26983477 -8.80759892 -0.04649389 0 0 Z " fill="#FEFEFE" transform="translate(4323.9375,1252.6875)"/>
<path d="M0 0 C123.8469446 0 123.8469446 0 152 13 C152.62648438 13.28858887 153.25296875 13.57717773 153.8984375 13.87451172 C163.87441346 18.58001671 171.91116474 24.54469589 180 32 C180.66386719 32.57105469 181.32773438 33.14210938 182.01171875 33.73046875 C201.20490707 51.1340824 208.75097592 79.18986722 211 104 C211.25707632 109.29373394 211.29358998 114.57644035 211.25 119.875 C211.24623352 120.57543427 211.24246704 121.27586853 211.23858643 121.99752808 C211.00584115 159.00560719 201.51376192 191.44007281 174.92578125 218.078125 C161.95646173 230.25634 145.79583942 238.21623586 128.875 243.25 C128.10792725 243.48420654 127.34085449 243.71841309 126.55053711 243.9597168 C87.01719752 255.02207098 36.18291564 249 0 249 C0 166.83 0 84.66 0 0 Z " fill="#FDFDFE" transform="translate(2921,1256)"/>
<path d="M0 0 C124.04937231 0 124.04937231 0 153.75 13.8125 C154.6255957 14.21476807 155.50119141 14.61703613 156.40332031 15.03149414 C162.58164998 17.9950119 167.75682371 21.60429167 173 26 C173.9075 26.74765625 174.815 27.4953125 175.75 28.265625 C197.72002426 47.64196584 207.72506407 73.29637313 211 102 C211.29422419 107.48264178 211.33983464 112.94815112 211.3125 118.4375 C211.31100952 119.17923462 211.30951904 119.92096924 211.3079834 120.68518066 C211.18785584 154.06809204 203.78876224 186.58657227 181 212 C180.44957031 212.62132812 179.89914063 213.24265625 179.33203125 213.8828125 C157.50410701 237.05813947 127.53526027 245.18309247 97 249 C64.99 249 32.98 249 0 249 C0 166.83 0 84.66 0 0 Z " fill="#FDFEFE" transform="translate(2575,1256)"/>
<path d="M0 0 C29.7 0 59.4 0 90 0 C92.45009123 6.12522808 94.80422259 12.12885744 96.84301758 18.37792969 C97.09976541 19.15605105 97.35651323 19.93417242 97.6210413 20.73587322 C98.4652303 23.29688899 99.30489993 25.85936175 100.14453125 28.421875 C100.74794508 30.25554799 101.35164049 32.08912834 101.95559692 33.92262268 C103.57495958 38.84134856 105.19040409 43.761353 106.80509567 48.68161392 C108.50066392 53.84603287 110.19987503 59.00925301 111.89868164 64.17260742 C114.97974785 73.5389906 118.05773467 82.90638204 121.13415241 92.27429295 C123.93982041 100.81758016 126.74797768 109.36004728 129.5568924 117.90226746 C132.59975085 127.15605512 135.64185665 136.41008784 138.6796875 145.66552734 C139.59113941 148.44238492 140.5025943 151.21924152 141.4140625 153.99609375 C141.63802956 154.67844589 141.86199661 155.36079803 142.09275055 156.06382751 C145.60040527 166.7494008 149.11884431 177.43139224 152.64136314 188.1120739 C154.25284051 192.99931773 155.8627978 197.88706253 157.47270679 202.77482319 C159.00791781 207.43520951 160.54555231 212.09478676 162.08503342 216.75376415 C163.03105282 219.61875103 163.97468569 222.48451977 164.91766739 225.35050774 C165.35367832 226.67402107 165.79067537 227.99721003 166.22875595 229.32003975 C166.83069967 231.13810024 167.42873379 232.95745374 168.02661133 234.77685547 C168.36138992 235.79149872 168.69616852 236.80614197 169.04109192 237.85153198 C170.1612803 241.52954591 171.0674952 245.2699808 172 249 C147.58 249 123.16 249 98 249 C94.535 235.14 94.535 235.14 91 221 C89.35 215.06 87.7 209.12 86 203 C59.6 203 33.2 203 6 203 C0.08289668 224.1643795 0.08289668 224.1643795 -5.30859375 245.421875 C-6 248 -6 248 -7 249 C-9.26991887 249.09439978 -11.54281967 249.11742226 -13.81469727 249.11352539 C-14.88293228 249.11374443 -14.88293228 249.11374443 -15.9727478 249.1139679 C-18.33733112 249.1132687 -20.70183661 249.10547606 -23.06640625 249.09765625 C-24.70165463 249.09579209 -26.33690357 249.09436818 -27.97215271 249.09336853 C-32.28434785 249.08954318 -36.59650952 249.07971275 -40.90869141 249.06866455 C-45.30565946 249.0584508 -49.70263289 249.05387099 -54.09960938 249.04882812 C-62.73308831 249.03809049 -71.36654 249.02101387 -80 249 C-79.48758674 245.04449663 -78.92920569 241.28878957 -77.67163086 237.50073242 C-77.40234268 236.67952408 -77.1330545 235.85831573 -76.85560608 235.01222229 C-76.56165451 234.13549362 -76.26770294 233.25876495 -75.96484375 232.35546875 C-75.65514145 231.41529404 -75.34543915 230.47511932 -75.02635193 229.50645447 C-74.35483676 227.46956487 -73.68073506 225.43352656 -73.0043335 223.39825439 C-71.15873454 217.84371849 -69.33260976 212.28277256 -67.50390625 206.72265625 C-67.12564697 205.57424255 -66.7473877 204.42582886 -66.35766602 203.24261475 C-62.95154142 192.88829445 -59.63080002 182.50781353 -56.32766724 172.12026978 C-49.21649515 149.76211785 -41.91961608 127.46770085 -34.57821655 105.18441772 C-27.72401452 84.3779236 -20.95771102 63.54629244 -14.36132812 42.65625 C-9.81820402 28.33454397 -4.92040819 14.21451255 0 0 Z " fill="#FEFEFE" transform="translate(3422,1256)"/>
<path d="M0 0 C22.11 0 44.22 0 67 0 C67.0679269 20.9416905 67.12310341 41.88329071 67.15543652 62.82506371 C67.17085362 72.55040834 67.19184356 82.27567926 67.22631836 92.00097656 C67.25637965 100.48533006 67.27561239 108.96963012 67.28226548 117.4540354 C67.28614963 121.93939881 67.29516808 126.42460948 67.31719017 130.90992355 C67.33782084 135.14688039 67.34378123 139.38362415 67.33932304 143.62062645 C67.34013654 145.16113259 67.34594181 146.70164719 67.35761642 148.2421093 C67.45987732 162.45381721 66.05310611 176.83867997 61.25 190.3125 C60.99395996 191.05048828 60.73791992 191.78847656 60.47412109 192.54882812 C56.49574624 203.60866226 50.83509261 213.20761224 43 222 C42.33484375 222.75925781 41.6696875 223.51851562 40.984375 224.30078125 C23.18963125 243.38070094 -3.04433689 251.20568999 -28.44165039 252.12451172 C-59.30222831 252.78456526 -90.42800859 251.05462974 -115 230 C-115.5775 229.56558594 -116.155 229.13117188 -116.75 228.68359375 C-129.91576947 218.47402715 -137.08140231 202.9726593 -141.8125 187.4375 C-142.00755127 186.80231445 -142.20260254 186.16712891 -142.40356445 185.51269531 C-145.86194848 173.30232664 -146.28961918 160.94434919 -146.22705078 148.35595703 C-146.22648512 146.73814908 -146.22680625 145.12034062 -146.22793579 143.50253296 C-146.22850424 139.15634696 -146.21683313 134.81027375 -146.20278788 130.46411371 C-146.19019494 125.90510808 -146.18910332 121.3460992 -146.18673706 116.78707886 C-146.18054726 108.1743572 -146.16417065 99.56168696 -146.14403808 90.94898784 C-146.12160079 81.13507238 -146.11066605 71.32115432 -146.10064721 61.50721955 C-146.07980191 41.33811139 -146.04315732 21.16907361 -146 1 C-123.89 1 -101.78 1 -79 1 C-78.96261719 11.93125 -78.92523437 22.8625 -78.88671875 34.125 C-78.85642547 41.07032494 -78.82538869 48.01563353 -78.79101562 54.9609375 C-78.7366531 65.97296629 -78.68523502 76.98494974 -78.65356445 87.99707031 C-78.63047875 96.01928852 -78.5969643 104.04138641 -78.55129844 112.06350899 C-78.52750771 116.30507268 -78.50868683 120.54651826 -78.50238609 124.78814697 C-78.49627041 128.79372094 -78.47604196 132.79899327 -78.44572449 136.8044548 C-78.43704672 138.26191474 -78.43319991 139.71941428 -78.43499184 141.17689896 C-78.44821478 156.9173933 -77.3418112 175.23342084 -65.984375 187.24609375 C-57.65786327 194.60554999 -48.19780483 196.441952 -37.37890625 196.25390625 C-27.90226537 195.54178873 -17.63707285 193.05984685 -10.8125 186.0625 C-0.46282873 172.77995186 -0.70409921 154.16921901 -0.68115234 138.16040039 C-0.67182425 136.64096053 -0.66165146 135.12152566 -0.65071106 133.60209656 C-0.62372106 129.52874504 -0.6083552 125.45542745 -0.59528303 121.3820107 C-0.57951473 117.10590736 -0.55276923 112.82987202 -0.5272522 108.55381775 C-0.48070446 100.47950262 -0.44384521 92.40517434 -0.41057932 84.33079475 C-0.36498999 73.40363084 -0.30420587 62.47655172 -0.24433136 51.5494585 C-0.15057295 34.36634845 -0.07691861 17.18321281 0 0 Z " fill="#FEFEFE" transform="translate(1571,1256)"/>
<path d="M0 0 C48.84 0 97.68 0 148 0 C148 17.82 148 35.64 148 54 C121.27 54 94.54 54 67 54 C67 67.2 67 80.4 67 94 C91.75 94 116.5 94 142 94 C142 111.49 142 128.98 142 147 C117.25 147 92.5 147 67 147 C67 162.84 67 178.68 67 195 C93.73 195 120.46 195 148 195 C148 212.82 148 230.64 148 249 C99.16 249 50.32 249 0 249 C0 166.83 0 84.66 0 0 Z " fill="#FDFEFE" transform="translate(2384,1256)"/>
<path d="M0 0 C48.51 0 97.02 0 147 0 C147 17.49 147 34.98 147 53 C120.6 53 94.2 53 67 53 C67 66.2 67 79.4 67 93 C91.42 93 115.84 93 141 93 C141 110.49 141 127.98 141 146 C116.58 146 92.16 146 67 146 C67 161.84 67 177.68 67 194 C93.73 194 120.46 194 148 194 C148 211.82 148 229.64 148 248 C99.16 248 50.32 248 0 248 C0 166.16 0 84.32 0 0 Z " fill="#FEFEFE" transform="translate(3177,1257)"/>
<path d="M0 0 C-0.6403838 5.99752552 -2.86300469 11.29323611 -5.03515625 16.8671875 C-5.43327011 17.90191193 -5.83138397 18.93663635 -6.24156189 20.00271606 C-7.50989388 23.29555636 -8.78607837 26.58528821 -10.0625 29.875 C-10.92565048 32.11177847 -11.78828661 34.34875549 -12.65039062 36.5859375 C-14.76097202 42.05960662 -16.87800264 47.53074716 -19 53 C-22.35833572 52.35795948 -25.3796751 51.56803484 -28.5546875 50.29296875 C-29.40981934 49.95531494 -30.26495117 49.61766113 -31.14599609 49.26977539 C-32.49685303 48.73404907 -32.49685303 48.73404907 -33.875 48.1875 C-52.63945494 40.89201774 -76.15504794 33.5891962 -95.69921875 42.1875 C-109.36559864 49.04865662 -117.15098873 60.61962693 -122.3125 74.75 C-130.3799552 101.96421555 -130.20841126 134.60942668 -117.33203125 160.33203125 C-110.61292341 171.57154574 -100.65610314 178.62503916 -88 182 C-62.74119662 186.20980056 -40.49487546 178.54748197 -17.10595703 170.07568359 C-14 169 -14 169 -10 168 C-10 186.81 -10 205.62 -10 225 C-32.45388059 233.27248232 -32.45388059 233.27248232 -42 235 C-42.64842865 235.12193726 -43.2968573 235.24387451 -43.9649353 235.36950684 C-56.45907708 237.68400575 -68.61654294 238.56616341 -81.3125 238.5 C-82.20531677 238.49856995 -83.09813354 238.49713989 -84.01800537 238.4956665 C-97.85013536 238.44095985 -110.82362047 237.54728315 -124 233 C-124.70640625 232.76474609 -125.4128125 232.52949219 -126.140625 232.28710938 C-150.00411978 224.14571031 -169.96475181 207.80972962 -181.4609375 185.29296875 C-182.2739194 183.63685849 -183.07869725 181.9766943 -183.875 180.3125 C-184.24431641 179.54115723 -184.61363281 178.76981445 -184.99414062 177.97509766 C-201.27961321 142.66741331 -201.94909546 96.05773423 -189.41015625 59.66796875 C-178.01399146 30.02531296 -159.53953875 6.6476253 -130.32177734 -6.94189453 C-89.88161472 -24.84614402 -38.87129272 -19.75426351 0 0 Z " fill="#FEFEFE" transform="translate(1388,1270)"/>
<path d="M0 0 C48.51 0 97.02 0 147 0 C147 17.49 147 34.98 147 53 C120.27 53 93.54 53 66 53 C66 68.84 66 84.68 66 101 C90.42 101 114.84 101 140 101 C140 118.82 140 136.64 140 155 C115.58 155 91.16 155 66 155 C66 185.69 66 216.38 66 248 C44.22 248 22.44 248 0 248 C0 166.16 0 84.32 0 0 Z " fill="#FEFEFE" transform="translate(3824,1257)"/>
<path d="M0 0 C62.37 0 124.74 0 189 0 C189 18.48 189 36.96 189 56 C168.87 56 148.74 56 128 56 C128 119.69 128 183.38 128 249 C105.89 249 83.78 249 61 249 C61 185.31 61 121.62 61 56 C40.87 56 20.74 56 0 56 C0 37.52 0 19.04 0 0 Z " fill="#FDFDFE" transform="translate(2160,1256)"/>
<path d="M0 0 C22.11 0 44.22 0 67 0 C67 64.35 67 128.7 67 195 C98.68 195 130.36 195 163 195 C163 212.82 163 230.64 163 249 C109.21 249 55.42 249 0 249 C0 166.83 0 84.66 0 0 Z " fill="#FDFEFE" transform="translate(4011,1256)"/>
<path d="M0 0 C22.11 0 44.22 0 67 0 C67 64.02 67 128.04 67 194 C98.68 194 130.36 194 163 194 C163 211.82 163 229.64 163 248 C109.21 248 55.42 248 0 248 C0 166.16 0 84.32 0 0 Z " fill="#FEFEFE" transform="translate(3621,1257)"/>
<path d="M0 0 C0.87011719 0.6496875 0.87011719 0.6496875 1.7578125 1.3125 C14.31185092 12.12135819 18.38020949 31.48624155 19.81030273 47.23681641 C21.48765003 71.66952766 21.56193511 102.03170944 5 122 C-3.25084846 130.80328108 -13.52370403 135.46666003 -25.4765625 136.21875 C-40.45019615 136.58470439 -53.03630062 133.29321547 -64.16015625 122.984375 C-69.47962483 117.24702884 -72.4482721 110.33005591 -75.25 103.125 C-75.49637207 102.50181885 -75.74274414 101.8786377 -75.99658203 101.23657227 C-80.17694456 89.89874728 -80.3464803 78.23884292 -80.31567383 66.31103516 C-80.31252245 63.76811441 -80.33602319 61.22637095 -80.36132812 58.68359375 C-80.44273851 37.81303481 -76.89341107 17.57195522 -62.25 1.75 C-46.34388366 -13.45927696 -16.99658091 -13.29510329 0 0 Z " fill="#12538E" transform="translate(4356,1317)"/>
<path d="M0 0 C43.88888889 0 43.88888889 0 57.5 12.25 C73.37285968 29.71014565 75.77074134 51.37967205 75.13623047 74.23388672 C74.21869116 92.86420995 69.63656377 113.82540273 55.58203125 127.046875 C38.25997204 140.14979422 21.8578599 139 0 139 C0 93.13 0 47.26 0 0 Z " fill="#13528B" transform="translate(2642,1311)"/>
<path d="M0 0 C44.67787611 0 44.67787611 0 59 14 C61.31830018 16.85061374 63.19650392 19.80393101 65 23 C65.36609375 23.5775 65.7321875 24.155 66.109375 24.75 C78.42206536 45.96571262 76.02985591 78.68535331 70.12109375 101.375 C69.22401865 104.01743043 68.201443 106.48269085 67 109 C66.57976563 109.9178125 66.15953125 110.835625 65.7265625 111.78125 C59.25395318 124.79798918 49.3255703 131.9521814 36 137 C24.523438 140.47032803 11.61582113 139 0 139 C0 93.13 0 47.26 0 0 Z " fill="#12508A" transform="translate(2989,1311)"/>
<path d="M0 0 C7.59477841 -0.05109258 15.1895118 -0.08589701 22.78442383 -0.10986328 C25.36321672 -0.11986423 27.94199844 -0.13346932 30.52075195 -0.15087891 C34.24693577 -0.17538853 37.97296847 -0.18654254 41.69921875 -0.1953125 C42.8351799 -0.20563507 43.97114105 -0.21595764 45.14152527 -0.22659302 C56.02225967 -0.22808704 66.68486288 0.46186472 76.375 5.75 C77.0548999 6.10924561 77.7347998 6.46849121 78.43530273 6.83862305 C88.39708965 12.23393935 94.9234878 19.06412047 99.10546875 29.8515625 C102.88473008 43.01687663 101.99589358 55.68863475 96 68 C89.66969129 78.81293848 78.80945929 85.42502763 67 89 C58.55799443 90.80005541 50.40782607 91.27320699 41.796875 91.1953125 C40.5930719 91.1924826 39.3892688 91.18965271 38.14898682 91.18673706 C34.34921825 91.17564902 30.54969589 91.15056606 26.75 91.125 C24.15495135 91.11495549 21.55989896 91.10583223 18.96484375 91.09765625 C12.64314686 91.07574708 6.32159103 91.04238486 0 91 C0 89.35 0 87.7 0 86 C0.69867187 85.86722656 1.39734375 85.73445313 2.1171875 85.59765625 C3.48230469 85.33275391 3.48230469 85.33275391 4.875 85.0625 C6.23238281 84.80146484 6.23238281 84.80146484 7.6171875 84.53515625 C9.99956317 84.10036299 9.99956317 84.10036299 12 83 C13.13652833 79.59041502 13.13393633 76.96894777 13.14526367 73.37304688 C13.14862228 72.7044313 13.1519809 72.03581573 13.15544128 71.34693909 C13.16493781 69.13752382 13.16689358 66.92818441 13.16796875 64.71875 C13.17118165 63.18322722 13.17454575 61.64770475 13.17805481 60.11218262 C13.18404241 56.89427989 13.18589503 53.676404 13.18530273 50.45849609 C13.185201 46.33239534 13.19886656 42.20646622 13.21607494 38.08040619 C13.22718389 34.90972093 13.2292223 31.73907736 13.22869301 28.56837463 C13.22987428 27.04691474 13.2343043 25.52545382 13.24202538 24.00401306 C13.25180542 21.87820328 13.24895558 19.75276874 13.24291992 17.62695312 C13.24434494 16.41688599 13.24576996 15.20681885 13.24723816 13.96008301 C13.22459512 10.813079 13.22459512 10.813079 11 8 C8.35952748 6.98247445 8.35952748 6.98247445 5.375 6.3125 C4.37210938 6.06113281 3.36921875 5.80976562 2.3359375 5.55078125 C1.56507813 5.36902344 0.79421875 5.18726563 0 5 C0 3.35 0 1.7 0 0 Z " fill="#175FA1" transform="translate(3098,1958)"/>
<path d="M0 0 C7.75979326 4.00072386 13.6668891 10.85772076 16.59765625 19.06640625 C19.08257028 30.72638745 18.3669828 43.23651836 11.8203125 53.39453125 C6.88826898 59.71371201 -0.76705402 64.74104849 -8.7421875 66.1640625 C-17.21050663 66.85753115 -24.59010062 65.93212042 -31.7421875 61.1640625 C-31.60295212 64.41438034 -31.45464565 67.66422311 -31.3046875 70.9140625 C-31.26537109 71.83445312 -31.22605469 72.75484375 -31.18554688 73.703125 C-31.14365234 74.59257812 -31.10175781 75.48203125 -31.05859375 76.3984375 C-31.00360718 77.62385254 -31.00360718 77.62385254 -30.94750977 78.87402344 C-30.77376217 81.47673861 -30.77376217 81.47673861 -29.7421875 85.1640625 C-25.7821875 86.1540625 -21.8221875 87.1440625 -17.7421875 88.1640625 C-17.7421875 89.4840625 -17.7421875 90.8040625 -17.7421875 92.1640625 C-32.9221875 92.1640625 -48.1021875 92.1640625 -63.7421875 92.1640625 C-63.7421875 90.8440625 -63.7421875 89.5240625 -63.7421875 88.1640625 C-58.7921875 87.1740625 -58.7921875 87.1740625 -53.7421875 86.1640625 C-53.64957894 76.43717104 -53.57846913 66.71038414 -53.53493881 56.9831419 C-53.5140482 52.46654903 -53.48570401 47.95025738 -53.44042969 43.43383789 C-53.39702397 39.07664332 -53.3730615 34.71973879 -53.36267853 30.36234474 C-53.35527761 28.69849899 -53.34082549 27.03466943 -53.31926727 25.37094688 C-53.29030225 23.04341488 -53.28622843 20.71708701 -53.28808594 18.3894043 C-53.27370483 17.69888474 -53.25932373 17.00836517 -53.24450684 16.29692078 C-53.27164654 13.16183756 -53.33636646 11.58146922 -55.56744385 9.28669739 C-58.21609071 7.91942664 -60.88695998 7.00765245 -63.7421875 6.1640625 C-63.7421875 4.5140625 -63.7421875 2.8640625 -63.7421875 1.1640625 C-53.11938644 -0.22909174 -42.43092123 0.06731167 -31.7421875 0.1640625 C-31.7421875 2.4740625 -31.7421875 4.7840625 -31.7421875 7.1640625 C-30.98292969 6.67035156 -30.22367188 6.17664062 -29.44140625 5.66796875 C-28.44753906 5.02730469 -27.45367188 4.38664062 -26.4296875 3.7265625 C-25.44355469 3.08847656 -24.45742187 2.45039062 -23.44140625 1.79296875 C-16.83090894 -2.19628939 -7.32353684 -2.23253117 0 0 Z " fill="#1860A1" transform="translate(2766.7421875,1984.8359375)"/>
<path d="M0 0 C9.3813639 5.51175453 15.2841107 11.72152762 18.25390625 22.32421875 C19.28331094 33.72788369 17.7104986 42.78446442 11.12890625 52.1796875 C4.76575335 59.45754363 -3.26424759 63.30542464 -12.74609375 64.32421875 C-25.22481184 65.10734818 -35.87324783 64.27575702 -45.9609375 56.09375 C-53.23622438 48.88214178 -56.16927912 40.77580493 -56.24609375 30.69921875 C-56.25367247 21.38023609 -54.1494247 14.29835186 -47.84765625 7.1796875 C-35.73015537 -4.19543684 -15.14719643 -6.92929532 0 0 Z " fill="#1860A1" transform="translate(2894.74609375,1986.67578125)"/>
<path d="M0 0 C26.73 0 53.46 0 81 0 C81 7.59 81 15.18 81 23 C79.02 23 77.04 23 75 23 C74.72027344 22.41992188 74.44054688 21.83984375 74.15234375 21.2421875 C71.32293815 15.72894057 68.32672642 11.3366519 63 8 C59.85152742 7.02432521 56.86308614 6.81134224 53.578125 6.68359375 C52.65418945 6.64548584 51.73025391 6.60737793 50.77832031 6.56811523 C49.61397461 6.52501221 48.44962891 6.48190918 47.25 6.4375 C41.68125 6.2209375 41.68125 6.2209375 36 6 C36 17.55 36 29.1 36 41 C48.1235742 41.00718242 48.1235742 41.00718242 57.6875 35.3125 C59.56450336 32.00539883 60.74380207 28.58913694 62 25 C63.65 25 65.3 25 67 25 C67 37.54 67 50.08 67 63 C65.35 63 63.7 63 62 63 C61.69707031 62.16855469 61.39414063 61.33710937 61.08203125 60.48046875 C60.66308594 59.39378906 60.24414062 58.30710937 59.8125 57.1875 C59.40644531 56.10855469 59.00039062 55.02960938 58.58203125 53.91796875 C56.7111197 50.46717634 55.62075817 49.4721764 52 48 C49.23004311 47.53804417 46.49163439 47.40020751 43.6875 47.3125 C42.94693359 47.27833984 42.20636719 47.24417969 41.44335938 47.20898438 C39.62941836 47.12706446 37.81473647 47.06184178 36 47 C36.09386894 51.32369494 36.20003516 55.64686413 36.31738281 59.9699707 C36.35555952 61.43928862 36.39043182 62.90869639 36.421875 64.37817383 C36.46777289 66.49593114 36.52572372 68.6130759 36.5859375 70.73046875 C36.6173584 72.00301514 36.6487793 73.27556152 36.68115234 74.58666992 C36.98465487 77.83572722 37.49771061 80.11855423 39 83 C42.80670183 84.90335092 47.43721578 84.22832971 51.625 84.25 C52.59824219 84.270625 53.57148438 84.29125 54.57421875 84.3125 C60.41881227 84.34396484 65.94468485 84.23086296 71 81 C73.52921522 78.09453059 73.52921522 78.09453059 75.3125 74.625 C75.94800781 73.50351563 76.58351563 72.38203125 77.23828125 71.2265625 C78.34289868 69.2034716 79.40942323 67.15859579 80.41796875 65.0859375 C80.94003906 64.39757813 81.46210938 63.70921875 82 63 C83.65 63 85.3 63 87 63 C86.67 72.24 86.34 81.48 86 91 C57.62 91 29.24 91 0 91 C0 89.35 0 87.7 0 86 C0.78246094 85.79503906 1.56492187 85.59007812 2.37109375 85.37890625 C3.38300781 85.10949219 4.39492187 84.84007812 5.4375 84.5625 C6.44683594 84.29566406 7.45617188 84.02882813 8.49609375 83.75390625 C10.91752001 83.24021923 10.91752001 83.24021923 12 82 C12.10491235 79.77155529 12.13857212 77.53974077 12.14526367 75.30883789 C12.14862228 74.60964737 12.1519809 73.91045685 12.15544128 73.19007874 C12.16497793 70.86758674 12.16689575 68.54516663 12.16796875 66.22265625 C12.17117947 64.61461863 12.1745434 63.00658131 12.17805481 61.39854431 C12.18405289 58.02325768 12.18589402 54.64799667 12.18530273 51.27270508 C12.18520108 46.940187 12.19885383 42.60783267 12.21607494 38.27535343 C12.22717452 34.95286804 12.22922257 31.63042249 12.22869301 28.30792046 C12.2298762 26.71027499 12.23431682 25.1126286 12.24202538 23.5150013 C12.25178422 21.28340194 12.24896372 19.05216134 12.24291992 16.82055664 C12.24434494 15.5489418 12.24576996 14.27732697 12.24723816 12.96717834 C12.31175333 9.88112062 12.31175333 9.88112062 10 8 C7.83552102 7.35987856 7.83552102 7.35987856 5.4375 6.9375 C1.09722222 6.09722222 1.09722222 6.09722222 0 5 C0 3.35 0 1.7 0 0 Z " fill="#1860A1" transform="translate(2535,1958)"/>
<path d="M0 0 C1.49273438 -0.04350586 1.49273438 -0.04350586 3.015625 -0.08789062 C10.36528146 -0.15025716 17.73320419 0.77270228 23.52783203 5.72509766 C28.7442515 11.62972905 29.17298328 17.19954632 29.21875 24.69921875 C29.2333728 25.59743851 29.24799561 26.49565826 29.26306152 27.4210968 C29.32521997 31.25365277 29.36506669 35.08636464 29.40673828 38.91918945 C29.4403785 41.72104057 29.48549319 44.52254365 29.53125 47.32421875 C29.5365271 48.19503586 29.5418042 49.06585297 29.54724121 49.96305847 C29.40693635 54.61880031 29.40693635 54.61880031 31.875 58.3125 C34.19775177 58.71297444 36.53239357 59.0522104 38.875 59.3125 C38.875 60.9625 38.875 62.6125 38.875 64.3125 C31.06760615 67.98656769 22.65560645 68.93449148 14.375 66.125 C11.5676749 64.0896893 9.21938538 61.86374291 6.875 59.3125 C6.30652344 59.72242188 5.73804687 60.13234375 5.15234375 60.5546875 C-3.02769727 66.2629632 -10.13508137 68.27975385 -20.125 67.3125 C-24.86633065 65.64425403 -27.82764104 63.08091024 -31.125 59.3125 C-32.97476101 53.76321696 -33.27691702 47.51344913 -31.27734375 41.95703125 C-24.19221774 30.75516536 -5.08449246 27.90799773 6.875 24.3125 C7.38781219 15.37268897 7.38781219 15.37268897 3.875 7.3125 C1.62987738 6.18993869 0.36043351 6.17836238 -2.125 6.1875 C-2.82625 6.18492188 -3.5275 6.18234375 -4.25 6.1796875 C-6.21653775 6.19872764 -6.21653775 6.19872764 -8.125 7.3125 C-8.06699219 8.20453125 -8.00898438 9.0965625 -7.94921875 10.015625 C-7.90410156 11.18609375 -7.85898438 12.3565625 -7.8125 13.5625 C-7.75449219 14.72265625 -7.69648438 15.8828125 -7.63671875 17.078125 C-8.125 20.3125 -8.125 20.3125 -10.30078125 22.69921875 C-14.86448984 25.30615049 -19.02042657 25.1772928 -24.125 24.3125 C-27.31755488 22.30932831 -28.70169832 21.07684984 -29.58984375 17.375 C-29.88517098 13.57176155 -29.44939108 11.76246182 -27.1875 8.625 C-18.12091554 1.77880357 -11.17436029 0.1060857 0 0 Z " fill="#1A61A2" transform="translate(3316.125,1983.6875)"/>
<path d="M0 0 C1.32402832 -0.02235718 1.32402832 -0.02235718 2.67480469 -0.04516602 C11.2971009 0.09091617 18.54207639 2.95876578 24.8671875 8.88671875 C31.28404039 16.0184024 30.375 21.32827169 30.375 31.5625 C16.185 31.5625 1.995 31.5625 -12.625 31.5625 C-10.86282635 45.49221741 -10.86282635 45.49221741 -2.5 55 C2.71986645 57.83688394 7.74700107 58.46949973 13.5 57.03125 C19.68221316 54.87684238 23.86067778 51.24401934 28.375 46.5625 C29.695 47.5525 31.015 48.5425 32.375 49.5625 C28.96862397 57.61393425 22.96887698 61.77144824 15.375 65.5625 C5.47748052 69.31673153 -7.46921844 69.0506444 -17.16015625 64.8828125 C-26.24710946 60.01531617 -31.02280821 54.25253209 -34.7265625 44.73046875 C-37.33348551 35.53823151 -36.40826125 25.85003673 -32.29296875 17.28515625 C-27.93232478 10.16719641 -21.89141353 4.54635566 -14.1171875 1.375 C-9.39309219 0.27588163 -4.83931182 0.06118767 0 0 Z " fill="#175FA1" transform="translate(3243.625,1983.4375)"/>
<path d="M0 0 C1.38759521 0.01921509 1.38759521 0.01921509 2.80322266 0.03881836 C11.47115001 0.29691091 17.83314743 1.8049143 24.4375 7.625 C31.12627683 15.04116155 31.5625 21.56965747 31.5625 31.5 C17.0425 31.5 2.5225 31.5 -12.4375 31.5 C-10.7247119 44.0959961 -10.7247119 44.0959961 -4 53.875 C1.44219949 57.3261509 6.16103481 58.48095122 12.5625 57.5 C19.12286294 55.22873022 23.60197065 52.17675874 27.5625 46.5 C29.2125 47.49 30.8625 48.48 32.5625 49.5 C30.33290833 56.2121215 25.2083064 60.43855858 19.14453125 63.8671875 C9.03333355 68.5078377 -3.62306303 69.42203733 -14.3125 66.0625 C-22.27205865 62.664981 -29.39463853 56.53077183 -32.765625 48.453125 C-32.98734375 47.80859375 -33.2090625 47.1640625 -33.4375 46.5 C-33.65921875 45.87609375 -33.8809375 45.2521875 -34.109375 44.609375 C-36.70774999 35.97153383 -36.41584132 26.63615668 -32.4375 18.5 C-24.96347432 6.17918191 -14.4344808 -0.30306899 0 0 Z " fill="#175FA1" transform="translate(3025.4375,1983.5)"/>
<path d="M0 0 C0.33 0 0.66 0 1 0 C1.13986328 0.58450928 1.27972656 1.16901855 1.42382812 1.77124023 C3.11787516 8.84769957 4.81676258 15.92298961 6.51843262 22.99761963 C6.84479475 24.35464911 7.17104452 25.71170562 7.49719238 27.06878662 C8.53273096 31.37738899 9.57042019 35.68546509 10.6105957 39.99295044 C10.94797784 41.39129692 11.28475033 42.78979067 11.62084961 44.18844604 C13.66479764 52.69152114 15.81051914 61.15809254 18.08496094 69.60253906 C18.86223152 72.48847754 19.62638593 75.37706696 20.37890625 78.26953125 C23.23812526 89.28831325 23.23812526 89.28831325 26.51953125 100.1875 C27 102 27 102 27 105 C9.51 105 -7.98 105 -26 105 C-23.74829932 93.7414966 -23.74829932 93.7414966 -22.484375 88.890625 C-22.20585693 87.81804443 -21.92733887 86.74546387 -21.64038086 85.64038086 C-21.34655518 84.52155518 -21.05272949 83.40272949 -20.75 82.25 C-20.4413501 81.0647876 -20.1327002 79.8795752 -19.81469727 78.65844727 C-18.14787032 72.28327263 -16.43643412 65.92280571 -14.67041016 59.57446289 C-9.80340306 42.06328912 -5.76564923 24.34225191 -2.20458984 6.52075195 C-1.10478396 1.10478396 -1.10478396 1.10478396 0 0 Z " fill="#154C7F" transform="translate(2025,1299)"/>
<path d="M0 0 C2.29179997 3.43769995 2.93299662 6.59401082 3.75 10.5625 C4.09781709 12.18514088 4.44685096 13.80752125 4.796875 15.4296875 C5.08208008 16.7595166 5.08208008 16.7595166 5.37304688 18.11621094 C8.57247086 32.83256456 12.0121961 47.47748581 16 62 C17.03212819 65.87971183 18.04802228 69.76368763 19.06567383 73.6472168 C20.16303028 77.83070326 21.26974648 82.01129565 22.39453125 86.1875 C22.62148682 87.03538086 22.84844238 87.88326172 23.08227539 88.75683594 C23.5144077 90.37034056 23.94959177 91.98303226 24.38842773 93.59472656 C24.58509033 94.33174805 24.78175293 95.06876953 24.984375 95.828125 C25.15678711 96.4665332 25.32919922 97.10494141 25.50683594 97.76269531 C26.17824745 100.80864337 26.558897 103.91227898 27 107 C9.84 107 -7.32 107 -25 107 C-23.87682539 96.89142847 -23.87682539 96.89142847 -22.84033203 93.53149414 C-22.60966034 92.76091171 -22.37898865 91.99032928 -22.1413269 91.19639587 C-21.89101715 90.3800618 -21.6407074 89.56372772 -21.3828125 88.72265625 C-17.80702066 76.62722346 -14.77835085 64.41211303 -11.78564453 52.16137695 C-10.87498038 48.43741976 -9.9554614 44.71572549 -9.03515625 40.99414062 C-5.68816015 27.38652019 -2.58437749 13.7737158 0 0 Z " fill="#144C7F" transform="translate(3467,1297)"/>
<path d="M0 0 C2.22907085 -0.03223707 4.45827741 -0.05517413 6.6875 -0.07421875 C7.92886719 -0.08799561 9.17023437 -0.10177246 10.44921875 -0.1159668 C16.95991658 0.09666944 22.72835378 1.84357227 27.59375 6.37109375 C36.29096192 16.44536422 38.23724397 27.15716559 38.3125 40.0625 C38.31813965 40.98450195 38.3237793 41.90650391 38.32958984 42.85644531 C38.21701167 53.56854434 36.67807606 64.5789981 29.328125 72.890625 C23.06096922 78.60316523 17.16553761 79.22502962 8.90234375 79.36328125 C5.56648784 78.94573805 3.69627489 77.97534577 1 76 C-0.49282393 73.01435214 -0.11916977 70.31016282 -0.11352539 66.97998047 C-0.11367142 66.25792419 -0.11381744 65.53586792 -0.1139679 64.79193115 C-0.11327007 62.40031959 -0.10548375 60.00878549 -0.09765625 57.6171875 C-0.09579161 55.96094811 -0.09436792 54.30470816 -0.09336853 52.64846802 C-0.08954699 48.28532392 -0.07971978 43.922213 -0.06866455 39.55908203 C-0.05844264 35.10840301 -0.05386924 30.65771863 -0.04882812 26.20703125 C-0.0380972 17.47133892 -0.02102512 8.73567359 0 0 Z " fill="#FDFEFE" transform="translate(3135,1964)"/>
<path d="M0 0 C32.4195122 0 32.4195122 0 41.734375 8.6015625 C47.55270237 14.89089733 48.46007585 21.21907047 48.31640625 29.609375 C47.6885303 36.33772469 45.45293215 43.60059794 40.75 48.65625 C27.96937772 58.46994211 16.3691197 57 0 57 C0 38.19 0 19.38 0 0 Z " fill="#124A7E" transform="translate(1757,1307)"/>
<path d="M0 0 C13.2 0 26.4 0 40 0 C40 1.65 40 3.3 40 5 C38.02 5.33 36.04 5.66 34 6 C35.99904635 10.22020897 37.97210033 14.11573406 40.75 17.875 C43 21 43 21 43 23 C50.84449846 15.62587649 50.84449846 15.62587649 55 6 C53.02 5.67 51.04 5.34 49 5 C49 3.68 49 2.36 49 1 C57.25 1 65.5 1 74 1 C74 2.32 74 3.64 74 5 C73.17556396 5.4021875 73.17556396 5.4021875 72.33447266 5.8125 C66.06807112 9.05433972 61.32295931 13.0059703 56.375 18 C55.64410156 18.69867187 54.91320313 19.39734375 54.16015625 20.1171875 C53.13341797 21.14199219 53.13341797 21.14199219 52.0859375 22.1875 C51.4676709 22.79980469 50.8494043 23.41210938 50.21240234 24.04296875 C48.75772424 25.97084312 48.75772424 25.97084312 49.15014648 28.49291992 C50.00446754 31.01317931 50.95734916 32.77649245 52.51171875 34.92578125 C53.02283203 35.64056641 53.53394531 36.35535156 54.06054688 37.09179688 C54.59744141 37.82462891 55.13433594 38.55746094 55.6875 39.3125 C56.20505859 40.03373047 56.72261719 40.75496094 57.25585938 41.49804688 C58.30077074 42.9489512 59.35319856 44.39447201 60.41308594 45.83447266 C61.48446117 47.29648778 62.53952207 48.77057899 63.57910156 50.25537109 C64.08795898 50.96902832 64.59681641 51.68268555 65.12109375 52.41796875 C65.57025146 53.05887451 66.01940918 53.69978027 66.48217773 54.36010742 C69.16271929 57.25623057 72.25826697 57.96779778 76 59 C76 60.65 76 62.3 76 64 C62.8 64 49.6 64 36 64 C36 62.35 36 60.7 36 59 C38.31 58.67 40.62 58.34 43 58 C39.66380014 51.75569672 36.01229308 45.83230231 32 40 C28.80669302 42.99977322 25.95050328 46.15928865 23.1875 49.5625 C22.58292969 50.30628906 21.97835937 51.05007813 21.35546875 51.81640625 C19.64839954 54.13806232 19.64839954 54.13806232 20 58 C21.98 58.33 23.96 58.66 26 59 C26 60.65 26 62.3 26 64 C17.09 64 8.18 64 -1 64 C-1 62.35 -1 60.7 -1 59 C-0.20166748 58.73219727 -0.20166748 58.73219727 0.61279297 58.45898438 C7.93512513 55.64868059 12.703196 51.04730872 18.125 45.5 C18.99898437 44.64535156 19.87296875 43.79070312 20.7734375 42.91015625 C21.59328125 42.08386719 22.413125 41.25757813 23.2578125 40.40625 C24.0017627 39.65666016 24.74571289 38.90707031 25.51220703 38.13476562 C27.21733945 36.15454419 27.21733945 36.15454419 26.89086914 33.96606445 C25.92670217 31.83823858 24.84162624 30.0422266 23.48828125 28.13671875 C22.97716797 27.41419922 22.46605469 26.69167969 21.93945312 25.94726562 C21.40255859 25.20154297 20.86566406 24.45582031 20.3125 23.6875 C19.79494141 22.95337891 19.27738281 22.21925781 18.74414062 21.46289062 C12.66652956 11.97876509 12.66652956 11.97876509 3.625 6.0625 C2.42875 5.711875 1.2325 5.36125 0 5 C0 3.35 0 1.7 0 0 Z " fill="#1A61A2" transform="translate(2626,1985)"/>
<path d="M0 0 C0.76441406 -0.00773437 1.52882813 -0.01546875 2.31640625 -0.0234375 C8.66351011 -0.00188536 14.09388037 1.23962679 20.125 3.25 C20.455 2.26 20.785 1.27 21.125 0.25 C22.775 0.25 24.425 0.25 26.125 0.25 C27.09799156 5.10729645 27.24538805 9.7000625 27.1875 14.625 C27.18298828 15.36105469 27.17847656 16.09710937 27.17382812 16.85546875 C27.16215142 18.65368158 27.14422011 20.45185197 27.125 22.25 C25.475 22.25 23.825 22.25 22.125 22.25 C21.609375 21.05375 21.09375 19.8575 20.5625 18.625 C17.83440037 13.16880074 13.95031715 9.84376865 8.6875 6.875 C5.08006751 5.99513842 1.80010296 5.52387079 -1.875 6.25 C-4.98114087 8.27208359 -4.98114087 8.27208359 -6.875 11.25 C-7.33364339 14.46050376 -6.90571195 16.15786415 -5.875 19.25 C-3.28137692 20.34876066 -3.28137692 20.34876066 0.125 21.25 C24.03832865 28.69747272 24.03832865 28.69747272 29.27734375 37.09765625 C31.28750647 42.20180215 31.16437324 48.58714294 29.1796875 53.671875 C25.15393429 60.40678288 19.91685621 63.97046373 12.5546875 66.484375 C1.68820139 68.91015094 -8.90531801 68.234841 -18.875 63.25 C-19.535 63.25 -20.195 63.25 -20.875 63.25 C-21.535 64.24 -22.195 65.23 -22.875 66.25 C-24.525 66.25 -26.175 66.25 -27.875 66.25 C-27.875 58.33 -27.875 50.41 -27.875 42.25 C-22.875 43.25 -22.875 43.25 -21.57421875 45.0703125 C-21.24035156 45.83085938 -20.90648438 46.59140625 -20.5625 47.375 C-17.51824923 53.39627833 -13.19673568 57.34000198 -7.375 60.6875 C-2.19569527 61.85284357 1.69192044 61.82323182 6.5625 59.875 C9.21356572 58.50274335 9.21356572 58.50274335 10.125 56.25 C10.48717235 52.91801439 10.59569225 50.97743347 8.75 48.125 C3.43482566 44.3284469 -2.73848848 42.52734332 -9 40.875 C-16.46917039 38.68232361 -22.19341591 34.27942199 -26.0234375 27.453125 C-27.90635543 22.58172264 -27.91270633 17.86940849 -25.98828125 13.01171875 C-22.71104574 7.23028334 -18.28297583 3.67705869 -12.20703125 1.1328125 C-8.05494678 0.03272916 -4.27360905 -0.04280744 0 0 Z " fill="#1960A2" transform="translate(3434.875,1983.75)"/>
<path d="M0 0 C0.00546844 1.6591745 0.00546844 1.6591745 0.01104736 3.35186768 C0.04796921 13.76982857 0.10571103 24.18749311 0.18390274 34.60522842 C0.22343236 39.96127814 0.25559393 45.31716209 0.27099609 50.67333984 C0.28612653 55.84121006 0.32050775 61.00862472 0.36830902 66.17629242 C0.38316015 68.14903558 0.39104314 70.12184376 0.39188385 72.09464264 C0.39424405 74.85558287 0.42124668 77.61525442 0.45410156 80.37597656 C0.4490712 81.19381119 0.44404083 82.01164581 0.43885803 82.85426331 C0.5051665 86.44953596 0.67921405 88.57071184 2.86224365 91.49212646 C5.2686832 93.18951659 7.09279676 93.67697742 10 94 C10 95.65 10 97.3 10 99 C-3.53 99 -17.06 99 -31 99 C-31 97.35 -31 95.7 -31 94 C-30.43410156 93.87882812 -29.86820313 93.75765625 -29.28515625 93.6328125 C-28.55167969 93.46523437 -27.81820312 93.29765625 -27.0625 93.125 C-26.33160156 92.96257812 -25.60070313 92.80015625 -24.84765625 92.6328125 C-22.79299706 92.17038477 -22.79299706 92.17038477 -22 90 C-21.89165753 87.58013969 -21.84269692 85.18861483 -21.83886719 82.76806641 C-21.83390228 82.02317459 -21.82893738 81.27828278 -21.82382202 80.51081848 C-21.80919011 78.04105717 -21.80239674 75.57136008 -21.796875 73.1015625 C-21.79112443 71.38764443 -21.78536669 69.67372638 -21.77960205 67.95980835 C-21.76908916 64.36350199 -21.76324837 60.76721801 -21.75976562 57.17089844 C-21.75428 52.56165671 -21.73025187 47.95271026 -21.70179367 43.34356117 C-21.68317413 39.80224747 -21.67796206 36.26100498 -21.67642975 32.71964645 C-21.67340118 31.02037313 -21.66536576 29.32110112 -21.65224457 27.62187576 C-21.63519789 25.24459592 -21.63706064 22.86803874 -21.64355469 20.49072266 C-21.62973251 19.43699715 -21.62973251 19.43699715 -21.6156311 18.36198425 C-21.65046103 14.29371693 -22.07612195 11.909038 -25 9 C-27.01416636 7.90078684 -27.01416636 7.90078684 -29.1875 7.25 C-29.90292969 7.00765625 -30.61835938 6.7653125 -31.35546875 6.515625 C-31.89816406 6.34546875 -32.44085937 6.1753125 -33 6 C-33 4.35 -33 2.7 -33 1 C-29.56270271 0.82897661 -26.12513833 0.66401369 -22.6875 0.5 C-21.25180664 0.42845703 -21.25180664 0.42845703 -19.78710938 0.35546875 C-18.82998047 0.31035156 -17.87285156 0.26523438 -16.88671875 0.21875 C-16.02264404 0.17685547 -15.15856934 0.13496094 -14.26831055 0.09179688 C-9.51224524 -0.04178649 -4.75760883 -0.01663627 0 0 Z " fill="#155EA0" transform="translate(3390,1950)"/>
<path d="M0 0 C0.00546844 1.6591745 0.00546844 1.6591745 0.01104736 3.35186768 C0.04796921 13.76982857 0.10571103 24.18749311 0.18390274 34.60522842 C0.22343236 39.96127814 0.25559393 45.31716209 0.27099609 50.67333984 C0.28612653 55.84121006 0.32050775 61.00862472 0.36830902 66.17629242 C0.38316015 68.14903558 0.39104314 70.12184376 0.39188385 72.09464264 C0.39424405 74.85558287 0.42124668 77.61525442 0.45410156 80.37597656 C0.4490712 81.19381119 0.44404083 82.01164581 0.43885803 82.85426331 C0.5051665 86.44953596 0.67921405 88.57071184 2.86224365 91.49212646 C5.2686832 93.18951659 7.09279676 93.67697742 10 94 C10 95.65 10 97.3 10 99 C-3.53 99 -17.06 99 -31 99 C-31 97.35 -31 95.7 -31 94 C-30.43410156 93.87882812 -29.86820313 93.75765625 -29.28515625 93.6328125 C-28.55167969 93.46523437 -27.81820312 93.29765625 -27.0625 93.125 C-26.33160156 92.96257812 -25.60070313 92.80015625 -24.84765625 92.6328125 C-22.79299706 92.17038477 -22.79299706 92.17038477 -22 90 C-21.89165753 87.58013969 -21.84269692 85.18861483 -21.83886719 82.76806641 C-21.83390228 82.02317459 -21.82893738 81.27828278 -21.82382202 80.51081848 C-21.80919011 78.04105717 -21.80239674 75.57136008 -21.796875 73.1015625 C-21.79112443 71.38764443 -21.78536669 69.67372638 -21.77960205 67.95980835 C-21.76908916 64.36350199 -21.76324837 60.76721801 -21.75976562 57.17089844 C-21.75428 52.56165671 -21.73025187 47.95271026 -21.70179367 43.34356117 C-21.68317413 39.80224747 -21.67796206 36.26100498 -21.67642975 32.71964645 C-21.67340118 31.02037313 -21.66536576 29.32110112 -21.65224457 27.62187576 C-21.63519789 25.24459592 -21.63706064 22.86803874 -21.64355469 20.49072266 C-21.62973251 19.43699715 -21.62973251 19.43699715 -21.6156311 18.36198425 C-21.65046103 14.29371693 -22.07612195 11.909038 -25 9 C-27.01416636 7.90078684 -27.01416636 7.90078684 -29.1875 7.25 C-29.90292969 7.00765625 -30.61835938 6.7653125 -31.35546875 6.515625 C-31.89816406 6.34546875 -32.44085937 6.1753125 -33 6 C-33 4.35 -33 2.7 -33 1 C-29.56270271 0.82897661 -26.12513833 0.66401369 -22.6875 0.5 C-21.25180664 0.42845703 -21.25180664 0.42845703 -19.78710938 0.35546875 C-18.82998047 0.31035156 -17.87285156 0.26523438 -16.88671875 0.21875 C-16.02264404 0.17685547 -15.15856934 0.13496094 -14.26831055 0.09179688 C-9.51224524 -0.04178649 -4.75760883 -0.01663627 0 0 Z " fill="#155EA0" transform="translate(2822,1950)"/>
<path d="M0 0 C3.48715894 1.98396827 6.19673639 4.39347279 8 8 C8.51512617 12.09157355 8.94367269 16.23589546 6.953125 19.95703125 C4.63722512 22.75654552 2.68394887 24.7981908 -0.98828125 25.23828125 C-5.15410332 25.3713075 -7.37869331 25.38831668 -11 23.125 C-14.71932063 19.17322183 -14.08437656 16.2313468 -14 11 C-15.093125 11.433125 -16.18625 11.86625 -17.3125 12.3125 C-17.92738281 12.55613281 -18.54226562 12.79976562 -19.17578125 13.05078125 C-21.27446625 14.14281649 -22.48843109 15.17702761 -24 17 C-24.43116962 18.95036468 -24.43116962 18.95036468 -24.34057617 21.10424805 C-24.34034958 21.92487228 -24.34012299 22.74549652 -24.33988953 23.59098816 C-24.32440567 24.47232925 -24.30892181 25.35367035 -24.29296875 26.26171875 C-24.28660149 27.62040825 -24.28660149 27.62040825 -24.28010559 29.00654602 C-24.26330848 31.90049933 -24.2256545 34.79375706 -24.1875 37.6875 C-24.17245449 39.64907849 -24.15876585 41.61066789 -24.14648438 43.57226562 C-24.11340157 48.38177856 -24.06161222 53.19077133 -24 58 C-20.37 58.66 -16.74 59.32 -13 60 C-13 61.65 -13 63.3 -13 65 C-27.19 65 -41.38 65 -56 65 C-56 63.35 -56 61.7 -56 60 C-55.43410156 59.87882812 -54.86820313 59.75765625 -54.28515625 59.6328125 C-53.18494141 59.38144531 -53.18494141 59.38144531 -52.0625 59.125 C-51.33160156 58.96257812 -50.60070313 58.80015625 -49.84765625 58.6328125 C-47.79299706 58.17038477 -47.79299706 58.17038477 -47 56 C-46.89100233 54.63278834 -46.84106191 53.26059076 -46.82299805 51.88916016 C-46.81016281 51.04132965 -46.79732758 50.19349915 -46.78410339 49.31997681 C-46.77671646 48.40227509 -46.76932953 47.48457336 -46.76171875 46.5390625 C-46.753647 45.59694916 -46.74557526 44.65483582 -46.73725891 43.68417358 C-46.7234158 41.68855634 -46.71269466 39.6929154 -46.70483398 37.69726562 C-46.68760763 34.64407604 -46.6437222 31.59196542 -46.59960938 28.5390625 C-46.58948374 26.60157047 -46.58096723 24.66406923 -46.57421875 22.7265625 C-46.54795662 21.35608261 -46.54795662 21.35608261 -46.52116394 19.95791626 C-46.49557454 14.86991871 -46.49557454 14.86991871 -48.82348633 10.47021484 C-51.43829907 8.70393303 -53.96605347 7.82743996 -57 7 C-57 5.35 -57 3.7 -57 2 C-46.312837 1.20414744 -35.71600323 0.87174996 -25 1 C-24.505 4.96 -24.505 4.96 -24 9 C-23.39671875 8.51789063 -22.7934375 8.03578125 -22.171875 7.5390625 C-20.97304687 6.59160156 -20.97304687 6.59160156 -19.75 5.625 C-18.96109375 4.99851562 -18.1721875 4.37203125 -17.359375 3.7265625 C-11.80086433 -0.34108935 -6.82897911 -1.13655788 0 0 Z " fill="#165FA1" transform="translate(2977,1984)"/>
<path d="M0 0 C3.91613768 0.07692413 6.20161948 0.62500567 9.25 3.25 C14.82276569 10.874899 14.45917322 18.8076116 14.5 27.9375 C14.520625 29.07123047 14.54125 30.20496094 14.5625 31.37304688 C14.59710653 38.87833721 14.56455435 47.14101519 9.63549805 53.25146484 C6.75120296 56.11466268 4.71462957 57.16033464 0.6875 57.9375 C-3.6275684 57.07448632 -6.10227271 55.68365211 -8.75 52.25 C-15.7170679 41.163087 -14.01558097 24.05159201 -11.5625 11.6875 C-10.24607193 6.86899534 -8.76640146 4.2094537 -4.75 1.25 C-3.75 0.25 -3.75 0.25 0 0 Z " fill="#FCFDFD" transform="translate(2874.75,1988.75)"/>
<path d="M0 0 C5.98689326 5.81583917 7.46222605 11.76945733 7.62573242 19.94189453 C7.62285092 30.98956665 7.39898029 40.46984254 -0.5625 49 C-3.94328412 50.69039206 -7.15984805 50.77985792 -10.8125 50.125 C-14.71737376 47.78207575 -16.85092208 45.19888798 -18.8125 41.125 C-19.27300436 38.23849682 -19.30411453 35.38398778 -19.31640625 32.46484375 C-19.32639145 31.63795547 -19.33637665 30.8110672 -19.34666443 29.9591217 C-19.36180686 28.21685777 -19.36889142 26.4745074 -19.3684082 24.73217773 C-19.37498951 22.0667487 -19.42955761 19.40500797 -19.48632812 16.74023438 C-19.49512747 15.04428354 -19.50108351 13.34831506 -19.50390625 11.65234375 C-19.5254628 10.85747055 -19.54701935 10.06259735 -19.56922913 9.24363708 C-19.54125977 6.98803711 -19.54125977 6.98803711 -18.8125 3.125 C-13.02444443 -1.90177911 -7.15384584 -2.22564093 0 0 Z " fill="#F9FAFC" transform="translate(2753.8125,1994.875)"/>
<path d="M0 0 C4.54140895 3.33036656 5.99751774 6.53191494 7 12 C7 14.97 7 17.94 7 21 C0.07 21 -6.86 21 -14 21 C-14 12.89459535 -13.74550954 7.92215649 -9.25 1.5 C-5.95101015 -0.69932657 -3.87894656 -0.61246525 0 0 Z " fill="#F1F5F9" transform="translate(3245,1989)"/>
<path d="M0 0 C4.06283817 0.84642462 5.46249851 2.38263699 8 5.625 C10.74428328 11.24424672 10 14.79028347 10 21.625 C3.07 21.625 -3.86 21.625 -11 21.625 C-11 13.32610796 -10.64491487 9.05624092 -5.6875 2.625 C-3 0.625 -3 0.625 0 0 Z " fill="#F1F5F9" transform="translate(3024,1988.375)"/>
<path d="M0 0 C0.11601004 3.60389664 0.18718408 7.20731467 0.25 10.8125 C0.28351562 11.83666016 0.31703125 12.86082031 0.3515625 13.91601562 C0.36445313 14.89892578 0.37734375 15.88183594 0.390625 16.89453125 C0.41157227 17.80050049 0.43251953 18.70646973 0.45410156 19.63989258 C0 22 0 22 -1.88574219 23.77612305 C-5.44030373 25.83374626 -8.92467209 26.33649496 -13 26 C-15.5625 24.1875 -15.5625 24.1875 -17 21 C-17.63909768 16.45943394 -17.73415552 12.61611132 -15.81640625 8.39453125 C-13.6576649 5.54870664 -11.65809168 4.33021704 -8.5 2.6875 C-7.5409375 2.17574219 -6.581875 1.66398437 -5.59375 1.13671875 C-3 0 -3 0 0 0 Z " fill="#FBFCFD" transform="translate(3323,2015)"/>
<path d="M0 0 C0 0.99 0 1.98 0 3 C-1.38782485 3.8466034 -2.78569397 4.67675339 -4.1875 5.5 C-4.96480469 5.9640625 -5.74210937 6.428125 -6.54296875 6.90625 C-9.24103386 8.10729647 -11.0806982 8.20741043 -14 8 C-14.33 7.01 -14.66 6.02 -15 5 C-14.34 5 -13.68 5 -13 5 C-13 4.34 -13 3.68 -13 3 C-8.70614007 -0.4887612 -5.28129105 -0.26854022 0 0 Z " fill="#215789" transform="translate(475,1686)"/>
<path d="M0 0 C0 1.65 0 3.3 0 5 C-2.64 5.33 -5.28 5.66 -8 6 C-8.66 5.01 -9.32 4.02 -10 3 C-6.68152292 -0.06320961 -4.44849969 -0.3033068 0 0 Z " fill="#215889" transform="translate(480,1678)"/>
</svg>
