<?xml version="1.0" encoding="UTF-8"?>
<svg version="1.1" xmlns="http://www.w3.org/2000/svg" width="6000" height="3375">
<path d="M0 0 C1980 0 3960 0 6000 0 C6000 1113.75 6000 2227.5 6000 3375 C4020 3375 2040 3375 0 3375 C0 2261.25 0 1147.5 0 0 Z " fill="#164670" transform="translate(0,0)"/>
<path d="M0 0 C1316.7 0 2633.4 0 3990 0 C3990 477.51 3990 955.02 3990 1447 C2673.3 1447 1356.6 1447 0 1447 C0 969.49 0 491.98 0 0 Z " fill="#145C9E" transform="translate(1005,964)"/>
<path d="M0 0 C0.83824059 0.00002625 1.67648118 0.00005251 2.54012301 0.00007956 C3.50632121 -0.00231672 4.47251941 -0.00471301 5.46799635 -0.00718191 C7.08400619 -0.00349147 7.08400619 -0.00349147 8.73266269 0.00027352 C10.44138268 -0.00172036 10.44138268 -0.00172036 12.18462226 -0.00375452 C15.38225535 -0.0064546 18.57985062 -0.00461026 21.77748164 -0.00095154 C25.26025143 0.00193829 28.74301704 -0.00095442 32.22578669 -0.0031268 C38.37418196 -0.00614985 44.52256817 -0.0054054 50.67096326 -0.00229056 C59.90221576 0.00236501 69.1334614 0.00126014 78.36471449 -0.0009896 C94.16498883 -0.00467025 109.9652597 -0.00356221 125.76553391 0.0000615 C141.87850091 0.00373647 157.99146593 0.00522067 174.10443333 0.00404579 C175.63347745 0.00393631 175.63347745 0.00393631 177.19341136 0.00382462 C182.39760841 0.00344215 187.60180546 0.00302453 192.80600251 0.00259493 C230.88180861 -0.00047274 268.95761326 0.00140417 307.03341917 0.00573921 C345.64568398 0.01011912 384.25794801 0.01232168 422.87021307 0.011837 C424.69437121 0.01181557 424.69437121 0.01181557 426.55538102 0.0117937 C437.69960643 0.01166195 448.84383183 0.01150584 459.98805724 0.0113207 C487.93775801 0.0108575 515.88745878 0.01072509 543.83715955 0.01081192 C545.75864963 0.01081754 545.75864963 0.01081754 547.7189577 0.01082328 C610.92317282 0.01103764 674.12738765 0.01500733 737.33160261 0.01921463 C759.59085047 0.02069377 781.85009833 0.0221551 804.10934619 0.02355075 C805.49299427 0.02363751 806.87664234 0.02372428 808.30221915 0.02381368 C872.36051467 0.02780887 936.41881016 0.02924226 1000.47710579 0.03001672 C1004.66502761 0.03006748 1008.85294943 0.03011944 1013.04087125 0.03017172 C1038.29360843 0.03048581 1063.54634561 0.03077318 1088.79908279 0.03102969 C1151.58132223 0.03166859 1214.36356167 0.03262809 1277.14580111 0.03380489 C1278.57517388 0.03383152 1280.00454666 0.03385816 1281.47723377 0.0338856 C1374.07696453 0.03561359 1466.67669519 0.0386616 1559.27642588 0.0428133 C1561.49456978 0.04291273 1561.49456978 0.04291273 1563.75752467 0.04301417 C1608.77350903 0.04503492 1653.78949338 0.04715328 1698.80547774 0.04929074 C1748.62151775 0.05165569 1798.43755776 0.05400398 1848.25359777 0.05628013 C1849.75155736 0.05634863 1851.24951694 0.05641713 1852.79286924 0.05648771 C1995.03061876 0.06298654 2137.26836832 0.06679827 2279.50611796 0.06991392 C2285.52984465 0.07004606 2291.55357134 0.07017898 2297.57729804 0.07031194 C2353.00838838 0.07153533 2408.43947872 0.07272716 2463.87056906 0.07387936 C2465.34451506 0.07391 2466.81846105 0.07394064 2468.33707208 0.0739722 C2472.79978387 0.07406497 2477.26249566 0.07415772 2481.72520745 0.07425047 C2602.29172994 0.0767564 2722.85825243 0.07953761 2843.42477491 0.0824971 C2847.67885095 0.08260146 2851.93292698 0.0827056 2856.18700302 0.08280968 C2994.4345787 0.08619286 3132.68215436 0.09006355 3376.81911156 0.09914748 C3380.58435691 0.09929238 3384.34960226 0.09943702 3388.11484762 0.09958155 C3389.96359156 0.09965254 3389.96359156 0.09965254 3391.84968386 0.09972496 C3394.09283741 0.09981109 3396.33599095 0.09989718 3398.57914449 0.09998322 C3595.42241118 0.10754441 3792.26567781 0.11641794 3989.10894445 0.12494468 C3989.10894445 317.91494468 3989.10894445 635.70494468 3989.10894445 963.12494468 C2671.74894445 963.12494468 1354.38894445 963.12494468 -2.89105555 963.12494468 C-2.89105555 0.19101608 -2.89105555 0.19101608 0 0 Z " fill="#1E5485" transform="translate(1006.8910555454349,2411.875055315424)"/>
<path d="M0 0 C635 0 635 0 831 1 C835.62 0.67 840.24 0.34 845 0 C848.35595275 -0.00377162 851.66390849 0.02891757 855.01171875 0.15625 C855.87263626 0.18223267 856.73355377 0.20821533 857.62055969 0.23498535 C860.3098041 0.31662086 862.99861471 0.40733837 865.6875 0.5 C868.41566506 0.59200663 871.14381921 0.68184551 873.87226868 0.76501465 C875.55520881 0.81643469 877.23800361 0.87293197 878.920578 0.93518066 C882.24198571 1.03773138 884.82027178 1.05990941 888 0 C890.8878457 0.09079434 893.74443625 0.23964655 896.625 0.4375 C903.25352793 0.83934494 909.85866204 1.11412682 916.5 1.125 C917.56661865 1.13164673 917.56661865 1.13164673 918.65478516 1.13842773 C921.71555224 1.12984056 924.0725044 0.97583187 927 0 C929.00664306 -0.0940365 931.01630177 -0.12793376 933.02514648 -0.12939453 C934.26751572 -0.13254669 935.50988495 -0.13569885 936.78990173 -0.13894653 C938.15029943 -0.13715487 939.5106968 -0.13510345 940.87109375 -0.1328125 C942.27295448 -0.13348675 943.67481509 -0.13445779 945.07667542 -0.13571167 C948.02142444 -0.13718729 950.96614317 -0.13504136 953.91088867 -0.13037109 C957.65267369 -0.12472114 961.39438622 -0.12792329 965.13616848 -0.13394356 C968.03699773 -0.13759347 970.93781041 -0.13638966 973.83864021 -0.13381577 C975.21589225 -0.1331562 976.59314586 -0.1339403 977.97039604 -0.13629532 C979.91703124 -0.13888982 981.8636718 -0.13422329 983.81030273 -0.12939453 C984.91155991 -0.12859894 986.01281708 -0.12780334 987.14744568 -0.12698364 C992.44209148 0.04753263 997.72077779 0.56006482 1003 1 C1003 478.51 1003 956.02 1003 1448 C766.06 1448.33 529.12 1448.66 285 1449 C190.95 1449.33 96.9 1449.66 0 1450 C0 971.5 0 493 0 0 Z " fill="#184A77" transform="translate(0,963)"/>
<path d="M0 0 C1.2501847 0.00015598 2.50036941 0.00031196 3.7884385 0.00047267 C4.8340217 -0.00144447 4.8340217 -0.00144447 5.90072779 -0.00340034 C8.2708541 -0.00649871 10.64091561 -0.0023784 13.01103985 0.00162334 C14.72167141 0.0008847 16.43230282 -0.0002928 18.14293381 -0.00187286 C22.88646601 -0.00496203 27.62997703 -0.00175062 32.37350767 0.00240542 C37.50603214 0.00581683 42.63855429 0.00346981 47.77107918 0.00182265 C56.79024289 -0.00026269 65.80940002 0.00140482 74.82856297 0.00545603 C88.41415588 0.01153846 101.99974478 0.01182758 115.58533881 0.01099074 C138.34839514 0.00974634 161.11144799 0.01304284 183.87450325 0.0190956 C214.6533176 0.02726243 245.43212802 0.02919759 276.21094429 0.03006667 C350.24125901 0.03532407 424.27157289 0.04928508 498.30188667 0.06217116 C746.26594917 0.09310866 746.26594917 0.09310866 999.23938667 0.12467116 C999.23938667 478.29467116 999.23938667 956.46467116 999.23938667 1449.12467116 C945.48596268 1449.12467116 891.73282887 1449.12442586 837.97948372 1449.06120986 C835.99081694 1449.05893005 834.00215014 1449.05665876 832.01348334 1449.05439496 C828.89969588 1449.05084922 825.78590842 1449.04729854 822.67212099 1449.04372163 C811.66807771 1449.03108595 800.66403375 1449.01909153 789.65998976 1449.00709199 C769.37290463 1448.98495354 749.08582004 1448.96235739 728.79873573 1448.93947524 C708.79011478 1448.91690876 688.78149359 1448.89456117 668.77287209 1448.87248916 C666.88791528 1448.87040964 666.88791528 1448.87040964 664.96487854 1448.86828811 C658.57982183 1448.86124508 652.19476511 1448.85420581 645.80970838 1448.84716797 C600.89906033 1448.79765918 555.9884128 1448.74768497 511.07776558 1448.69742507 C500.2575955 1448.68531634 489.43742542 1448.67320928 478.61725533 1448.66110915 C477.94592424 1448.66035841 477.27459316 1448.65960766 476.58291871 1448.65883416 C445.20583948 1448.62374761 413.82875996 1448.58893124 382.45168036 1448.55418185 C380.40746532 1448.55191792 378.36325028 1448.54965388 376.31903524 1448.54738982 C362.76866293 1448.53238233 349.21829062 1448.51737944 335.6679183 1448.50237962 C308.07848016 1448.47183897 280.48904205 1448.44126919 252.89960396 1448.41068191 C251.63183423 1448.40927642 250.36406449 1448.40787093 249.0578775 1448.40642285 C164.78504668 1448.31299206 80.51221662 1448.21888656 -3.76061333 1448.12467116 C-3.76611123 1403.85326819 -3.77138321 1359.5818652 -3.77648247 1315.31046218 C-3.77658226 1314.44419681 -3.77668206 1313.57793145 -3.77678488 1312.68541562 C-3.78746879 1219.893434 -3.79669279 1127.10145238 -3.80295647 1034.30947036 C-3.80309592 1032.24911464 -3.80323537 1030.18875891 -3.80337482 1028.12840319 C-3.80629729 984.88426485 -3.80901403 941.6401265 -3.811493 898.39598814 C-3.81273843 876.67413605 -3.81402341 854.95228397 -3.81534577 833.23043188 C-3.81554502 829.95370214 -3.81574313 826.67697241 -3.81594121 823.40024267 C-3.81900243 772.92268382 -3.82291358 722.44512522 -3.82927788 671.96756667 C-3.82941478 670.88164322 -3.82955167 669.79571977 -3.82969272 668.67688955 C-3.83190519 651.16776347 -3.83418876 633.6586374 -3.83648177 616.14951133 C-3.84308248 565.73892542 -3.8491604 515.3283397 -3.85175312 464.9177534 C-3.85180665 463.88185094 -3.85186019 462.84594848 -3.85191535 461.77865504 C-3.85308091 439.04212861 -3.85397586 416.30560217 -3.85461431 393.56907571 C-3.85487594 384.42168791 -3.85517656 375.2743001 -3.85549057 366.1269123 C-3.855524 365.12574917 -3.85555742 364.12458604 -3.85559186 363.09308463 C-3.85668962 330.79601159 -3.86096515 298.49893993 -3.86689553 266.20186745 C-3.87285136 233.68746355 -3.87571504 201.17306099 -3.87423731 168.65865654 C-3.87403421 164.17266021 -3.87386684 159.68666389 -3.87372101 155.20066756 C-3.87369113 154.32123034 -3.87366125 153.44179311 -3.87363046 152.53570627 C-3.87324877 138.5709238 -3.87624336 124.60614413 -3.88062319 110.64136242 C-3.88485395 96.93311168 -3.88556396 83.22486461 -3.88244514 69.51661354 C-3.88072157 61.46458891 -3.88178249 53.41257586 -3.88683033 45.36055257 C-3.89026295 39.40587281 -3.88856481 33.45120214 -3.8847533 27.49652234 C-3.88403192 25.0853362 -3.88503071 22.67414885 -3.88784857 20.26296424 C-3.89140437 17.01764682 -3.88893441 13.77239134 -3.88481182 10.52707601 C-3.8873207 9.57564539 -3.88982958 8.62421477 -3.89241448 7.64395292 C-3.87183709 0.17485478 -3.87183709 0.17485478 0 0 Z " fill="#1A4D7A" transform="translate(5000.760613325983,962.8753288350999)"/>
<path d="M0 0 C1.21095255 -0.00256411 2.42190509 -0.00512821 3.66955317 -0.00777002 C5.01360366 -0.00556184 6.357654 -0.0032629 7.70170419 -0.00088333 C9.1372699 -0.00200031 10.57283533 -0.00355552 12.00840014 -0.00550923 C15.97779885 -0.00962783 19.94717378 -0.00747971 23.9165725 -0.00436337 C28.2418075 -0.00206716 32.56703839 -0.00556489 36.89227258 -0.00833018 C44.51022874 -0.01239217 52.12817809 -0.01270616 59.74613495 -0.01062424 C71.15057923 -0.00752457 82.55501723 -0.01015635 93.95946105 -0.01392295 C113.39307722 -0.0201689 132.82669117 -0.02162726 152.26030819 -0.02050548 C171.96366661 -0.01938243 191.66702315 -0.0204102 211.37038128 -0.02407794 C212.61328979 -0.02430759 213.8561983 -0.02453725 215.1367707 -0.02477386 C220.19866692 -0.02571546 225.26056313 -0.02667114 230.32245934 -0.02764505 C282.46637677 -0.03766286 334.61029262 -0.04083733 386.7542108 -0.04141348 C392.44368763 -0.04147673 398.13316445 -0.04154325 403.82264128 -0.04161404 C405.24862858 -0.04163173 406.67461588 -0.0416491 408.10060319 -0.04166616 C440.08950655 -0.04205377 472.07840969 -0.04423172 504.06731294 -0.04679641 C511.20435287 -0.04736797 518.34139281 -0.04792194 525.47843274 -0.04847705 C526.54108854 -0.04855973 526.54108854 -0.04855973 527.62521214 -0.04864408 C531.92551965 -0.04897858 536.22582715 -0.04931235 540.52613466 -0.04964564 C542.68033038 -0.04981272 544.8345261 -0.04998023 546.98872182 -0.05014778 C580.48398679 -0.05274978 613.97925178 -0.05498004 647.47451679 -0.05682998 C648.20436159 -0.05687035 648.93420638 -0.05691072 649.68616768 -0.05695231 C696.20146377 -0.05951582 742.71675972 -0.06041477 789.23205587 -0.06015198 C791.51971315 -0.06013922 793.80737043 -0.06012726 796.09502771 -0.06011557 C812.16712937 -0.06003323 828.23923103 -0.05993052 844.3113327 -0.05982269 C848.91964994 -0.05979192 853.52796718 -0.05976185 858.13628443 -0.05973187 C861.98022508 -0.05970678 865.82416573 -0.05968099 869.66810638 -0.05965376 C942.27455815 -0.05914231 1014.88100882 -0.0605607 1087.48746006 -0.07000117 C1088.25189942 -0.07010053 1089.01633878 -0.07019989 1089.80394296 -0.07030226 C1113.68858134 -0.0734136 1137.57321968 -0.0767801 1161.45785801 -0.08019404 C1185.96492409 -0.08369541 1210.47199017 -0.08716584 1234.97905628 -0.09045844 C1235.73362323 -0.09055997 1236.48819017 -0.09066149 1237.26562278 -0.0907661 C1284.51447873 -0.09711423 1331.76333438 -0.10103692 1379.01219074 -0.10231643 C1379.74182209 -0.10233646 1380.47145343 -0.10235648 1381.22319481 -0.10237712 C1413.26525155 -0.1032524 1445.30730827 -0.10357223 1477.34936502 -0.10328623 C1490.23955009 -0.10317195 1503.12973516 -0.10311588 1516.01992022 -0.10308291 C1518.15720823 -0.10307651 1520.29449624 -0.10306743 1522.43178424 -0.10305776 C1555.13306766 -0.10292123 1587.83435006 -0.10426949 1620.53563301 -0.11010294 C1621.24111737 -0.11022861 1621.94660173 -0.11035428 1622.6734644 -0.11048376 C1634.02246283 -0.11251285 1645.37146123 -0.11465686 1656.72045964 -0.11681057 C1703.2061913 -0.12562501 1749.69191713 -0.12816294 1796.17764967 -0.12145026 C1802.49773129 -0.1205379 1808.81781292 -0.11969464 1815.13789456 -0.11889224 C1816.99633428 -0.11865211 1816.99633428 -0.11865211 1818.89231823 -0.11840713 C1838.54466397 -0.11605011 1858.19700227 -0.12042094 1877.8493466 -0.12756343 C1897.15328077 -0.13443949 1916.45720392 -0.13422737 1935.76113784 -0.12637129 C1947.09149597 -0.12197468 1958.4218217 -0.12309758 1969.75217718 -0.13223808 C1977.2665917 -0.13775771 1984.7809819 -0.13609126 1992.29539453 -0.12845529 C1996.56184457 -0.12432447 2000.8282306 -0.12335523 2005.09467686 -0.13120598 C2008.9650394 -0.13826993 2012.83528362 -0.13614558 2016.70564002 -0.12667229 C2018.09422212 -0.12488122 2019.48281365 -0.1264322 2020.87138669 -0.13175842 C2040.47725249 -0.20188834 2055.32821086 5.89694372 2069.70444004 19.3131165 C2085.52607832 35.70285669 2088.48171463 55.0484879 2088.40512364 76.77039189 C2088.40919636 78.72326047 2088.41454215 80.67612673 2088.42105381 82.62898869 C2088.43464898 87.89750985 2088.4294614 93.1658534 2088.41991656 98.43437738 C2088.41228041 103.96740223 2088.4193764 109.50041266 2088.42407505 115.03343816 C2088.42952067 124.32110915 2088.42237189 133.60870838 2088.40805332 142.89636846 C2088.39172434 153.61134571 2088.397022 164.32615171 2088.41353254 175.04112483 C2088.42717572 184.26699069 2088.42905338 193.4928052 2088.42121653 202.71867789 C2088.41655619 208.21748701 2088.41586997 213.7162158 2088.425826 219.21501965 C2088.43453486 224.38537729 2088.42840249 229.55551548 2088.41114323 234.72584958 C2088.40719946 236.61557125 2088.40827595 238.50531161 2088.41493122 240.39502568 C2088.44687427 250.391766 2088.19842589 259.52464923 2085.01694004 269.1256165 C2084.64053379 270.26256963 2084.26412754 271.39952275 2083.87631504 272.570929 C2081.03312357 279.43863799 2077.54496124 285.24024937 2073.01694004 291.1256165 C2072.29506504 292.1362415 2071.57319004 293.1468665 2070.82944004 294.1881165 C2061.24829148 305.282078 2046.34078511 312.66065134 2032.01694004 315.1256165 C2030.02872655 315.21429278 2028.03790144 315.25159694 2026.04771149 315.25217834 C2024.23592307 315.25634131 2024.23592307 315.25634131 2022.38753286 315.26058839 C2021.04698134 315.25861888 2019.70642995 315.25655859 2018.36587869 315.25441767 C2016.93399707 315.25578611 2015.50211581 315.25759227 2014.07023523 315.25979649 C2010.11107715 315.26460827 2006.15194179 315.26315784 2002.19278242 315.26073879 C1997.87866948 315.25920069 1993.56456164 315.26344983 1989.25045039 315.26696555 C1981.65207075 315.27234846 1974.0536973 315.27398145 1966.4553159 315.27321481 C1955.08007313 315.27208136 1943.70483759 315.27665416 1932.32959645 315.28234565 C1912.94549162 315.29186732 1893.56138824 315.29656647 1874.17728131 315.29865498 C1854.52390585 315.30078182 1834.87053263 315.30503766 1815.21715824 315.31189771 C1813.35751017 315.31254363 1813.35751017 315.31254363 1811.46029345 315.3132026 C1806.41118197 315.3149609 1801.36207049 315.31673054 1796.31295902 315.31851562 C1735.77705225 315.33987599 1675.24114568 315.35079212 1614.70523611 315.35967785 C1594.13456352 315.36270097 1573.56389104 315.36616157 1552.99321859 315.36995907 C1552.29305702 315.37008818 1551.59289545 315.3702173 1550.87151687 315.37035033 C1544.4982446 315.3715258 1538.12497233 315.37270498 1531.75170006 315.37388759 C1459.73792222 315.3872426 1387.72414404 315.39963675 1241.0050882 315.41464662 C1234.15328085 315.41517108 1227.3014735 315.4157084 1220.44966615 315.41624509 C1218.16144947 315.41642429 1215.8732328 315.41660326 1213.58501612 315.41678218 C1199.04848602 315.41791926 1184.51195592 315.41906533 1169.97542582 315.42023037 C1166.14019212 315.42053768 1162.30495842 315.42084362 1158.46972472 315.42114628 C1086.03742225 315.42686591 1013.60512328 315.43610796 941.17282383 315.45856328 C940.41036473 315.45879951 939.64790563 315.45903574 938.8623417 315.45927912 C914.27328912 315.46690698 889.68423668 315.47495581 865.09518425 315.48306439 C841.41850215 315.49087196 817.74182003 315.49859538 794.06513779 315.50595422 C792.93620594 315.50630535 792.93620594 315.50630535 791.7844674 315.50666358 C744.64892465 315.52130054 697.51338285 315.53110208 650.37783806 315.53582902 C649.64982636 315.53590261 648.92181465 315.53597621 648.17174199 315.53605203 C616.19896091 315.53927803 584.22617984 315.54144643 552.25339861 315.54243504 C539.39053612 315.54283585 526.52767364 315.54336924 513.66481116 315.54396646 C511.53207557 315.54406393 509.39933998 315.54415631 507.26660439 315.54424784 C474.64449662 315.54567653 442.02239335 315.55024602 409.40028827 315.56412382 C408.69679679 315.56442289 407.99330531 315.56472196 407.26849591 315.5650301 C395.95194367 315.56985864 384.63539155 315.57494055 373.31883945 315.58005609 C326.94215153 315.60101292 280.56548541 315.60963706 234.18879153 315.59993124 C227.87990555 315.59861274 221.57101955 315.59743471 215.26213352 315.59634061 C214.02539553 315.59612076 212.78865753 315.59590091 211.51444263 315.5956744 C191.91701331 315.59255783 172.31961502 315.60289534 152.7221929 315.61881616 C133.46039581 315.63418612 114.19864171 315.63533349 94.93684314 315.62126792 C83.63894329 315.61344696 72.34117461 315.61660137 61.04328781 315.63590508 C53.54145348 315.64763191 46.03971509 315.6448685 38.53788599 315.63029044 C34.2842648 315.6224312 30.03090043 315.62073916 25.77729691 315.63690948 C21.9102937 315.65149277 18.04375999 315.6473354 14.17677754 315.62885782 C12.15280094 315.62382465 10.12880347 315.63818386 8.10487943 315.6536138 C-11.52714312 315.50231302 -27.74963984 308.78113836 -41.98305996 295.1256165 C-47.53331292 289.03365885 -51.57772843 282.48661355 -54.92055996 275.0006165 C-55.20318691 274.36825078 -55.48581386 273.73588506 -55.77700527 273.08435674 C-60.55971186 261.64253811 -60.28108383 250.06422531 -60.2735873 237.88489385 C-60.27957907 235.93895822 -60.2863861 233.99302496 -60.29394253 232.04709477 C-60.31154595 226.78230491 -60.31629558 221.51758015 -60.3175741 216.2527637 C-60.31899972 212.95632202 -60.32327714 209.65989667 -60.32856853 206.36345906 C-60.34705168 194.84259859 -60.35524149 183.32178428 -60.35366543 171.80090947 C-60.35246523 161.09570514 -60.37354826 150.39070282 -60.40515275 139.68554957 C-60.43138852 130.46733019 -60.44202963 121.24917648 -60.44075461 112.0309201 C-60.44024702 106.53748416 -60.44581671 101.0442278 -60.46711071 95.55082936 C-60.48661591 90.37800581 -60.48653431 85.20553085 -60.47207744 80.03269429 C-60.47000324 78.14625895 -60.4746062 76.25980106 -60.48679836 74.37340398 C-60.61603883 52.97159708 -56.3800155 35.13606931 -41.12368496 19.23108525 C-40.06407558 18.18887822 -40.06407558 18.18887822 -38.98305996 17.1256165 C-38.42102871 16.56487431 -37.85899746 16.00413213 -37.27993496 15.42639775 C-27.13297824 6.04292564 -13.85497031 0.00159339 0 0 Z " fill="#FEFEFE" transform="translate(1985.9830599576235,1847.8743834979832)"/>
<path d="M0 0 C1316.7 0 2633.4 0 3990 0 C3990 477.51 3990 955.02 3990 1447 C2673.3 1447 1356.6 1447 0 1447 C0 969.49 0 491.98 0 0 Z M12 12 C12 481.59 12 951.18 12 1435 C1320.78 1435 2629.56 1435 3978 1435 C3978 965.41 3978 495.82 3978 12 C2669.22 12 1360.44 12 12 12 Z " fill="#FEFEFE" transform="translate(1005,964)"/>
<path d="M0 0 C23.43 0 46.86 0 71 0 C75.32350913 14.59184333 79.57199654 29.05872179 83.52026367 43.72900391 C84.94935517 48.91785728 86.57349564 54.03120519 88.23828125 59.1484375 C92.09393036 71.1385 95.62719927 83.21410037 99.125 95.3125 C100.02186432 98.4043729 100.91951941 101.49601534 101.81732178 104.58761597 C102.39622108 106.58257499 102.97424426 108.57778848 103.55133057 110.57327271 C104.86335362 115.10704338 106.18543194 119.63705056 107.54199219 124.15771484 C107.89546219 125.33988838 107.89546219 125.33988838 108.256073 126.54594421 C108.69128178 127.99770157 109.1297932 129.4484748 109.57229614 130.89802551 C110.41662532 133.71858092 111 136.0355875 111 139 C111.66 139 112.32 139 113 139 C113.14381104 137.39705078 113.14381104 137.39705078 113.29052734 135.76171875 C114.02331966 129.94777667 115.71630546 124.4262075 117.3515625 118.8125 C117.68868256 117.63776123 118.02580261 116.46302246 118.37313843 115.25268555 C119.45150943 111.50015679 120.53815292 107.75008152 121.625 104 C122.33256907 101.54182141 123.039605 99.0834893 123.74609375 96.625 C127.29860097 84.27742315 130.89026484 71.94141518 134.4949646 59.60899353 C136.42169658 53.00780334 138.32186347 46.39944278 140.203125 39.78515625 C140.45714081 38.89218842 140.71115662 37.99922058 140.97286987 37.07919312 C141.99369577 33.48815892 143.01361334 29.89687102 144.03125 26.30493164 C144.79506855 23.61032302 145.56142277 20.91644557 146.328125 18.22265625 C146.55316711 17.42569839 146.77820923 16.62874054 147.0100708 15.80763245 C148.53081127 10.47296082 150.24192198 5.27423407 152 0 C175.1 0 198.2 0 222 0 C222 64.35 222 128.7 222 195 C206.16 195 190.32 195 174 195 C173.95989119 168.3811202 173.95989119 168.3811202 173.95117188 156.86132812 C173.94523961 149.06127221 173.93829302 141.26122824 173.92456055 133.46118164 C173.91353666 127.15874922 173.90768278 120.85632965 173.90512276 114.55388832 C173.90330305 112.17307648 173.8997518 109.79226519 173.89426994 107.41145897 C173.85713822 90.58517342 174.26045033 73.81023256 175 57 C174.4805282 58.68763449 173.96110878 60.3752851 173.44171143 62.0629425 C173.00782545 63.47265556 173.00782545 63.47265556 172.5651741 64.91084766 C169.91386119 73.53521398 167.35638406 82.15813822 165.0859375 90.890625 C161.39434863 105.00933332 157.28896179 119.02646941 153.26782227 133.05419922 C150.44046352 142.92991256 147.68049619 152.82439448 144.91748047 162.71826172 C143.9587918 166.14739773 142.99732226 169.57574439 142.03515625 173.00390625 C141.71538818 174.14375977 141.39562012 175.28361328 141.06616211 176.45800781 C140.45147659 178.64887138 139.83642132 180.83963126 139.22094727 183.03027344 C138.80607056 184.50995605 138.80607056 184.50995605 138.3828125 186.01953125 C138.13934082 186.88682861 137.89586914 187.75412598 137.64501953 188.64770508 C137.06660023 190.75711837 136.5304933 192.87802681 136 195 C119.17 195 102.34 195 85 195 C76.37207031 164.80224609 76.37207031 164.80224609 75.72879028 162.55033875 C75.18650029 160.65264169 74.64386301 158.75504388 74.1010437 156.85749817 C71.80428115 148.82575933 69.51916051 140.79076694 67.24174881 132.75352287 C66.64344428 130.6420812 66.04493572 128.53069744 65.44638062 126.41932678 C63.74751084 120.42651942 62.04899776 114.43361099 60.35058594 108.44067383 C59.51202494 105.48177524 58.67328125 102.52292853 57.83441162 99.56411743 C57.01889799 96.68764269 56.2040688 93.81097532 55.38970947 90.93417358 C53.62962013 84.71983094 51.86246807 78.50784167 50.06152344 72.30517578 C49.7765097 71.32069962 49.49149597 70.33622345 49.19784546 69.32191467 C48.68311129 67.54765872 48.16515503 65.77433274 47.64321899 64.00218201 C46.74664334 60.90874044 46 58.23881741 46 55 C45.34 55 44.68 55 44 55 C44.19916016 56.56234375 44.19916016 56.56234375 44.40234375 58.15625 C44.58097902 59.60413586 44.75934962 61.0520544 44.9375 62.5 C45.06801758 63.51513672 45.06801758 63.51513672 45.20117188 64.55078125 C47.16068934 80.66236932 47.13545251 96.76612688 47.09765625 112.96875 C47.09578712 115.34484833 47.09436556 117.72094704 47.09336853 120.0970459 C47.08958231 126.29796445 47.07978609 132.49885892 47.06866455 138.69976807 C47.0565496 146.16821292 47.05202962 153.6366659 47.04621124 161.1051178 C47.03657161 172.40342852 47.01738797 183.7016866 47 195 C31.49 195 15.98 195 0 195 C0 130.65 0 66.3 0 0 Z " fill="#FDFDFE" transform="translate(4078,1233)"/>
<path d="M0 0 C23.43 0 46.86 0 71 0 C73.31 7.92 75.62 15.84 78 24 C79.47097303 29.00831295 80.94225057 34.01649199 82.41769791 39.02348137 C83.39658689 42.34614214 84.37379378 45.66929747 85.35107422 48.99243164 C85.56683546 49.7260621 85.7825967 50.45969255 86.00489616 51.21555424 C87.84995382 57.48932198 89.69446509 63.76325031 91.53884888 70.03721619 C93.05178562 75.18367159 94.56500517 80.33004384 96.07824898 85.47640896 C97.22011439 89.35980045 98.3618761 93.24322237 99.50341797 97.12670898 C100.62417796 100.93947885 101.74520883 104.75216899 102.86642075 108.56480598 C103.28828329 109.99950421 103.71005161 111.43423015 104.13171768 112.86898613 C105.08393514 116.10889814 106.03748361 119.34839624 106.99371338 122.58712769 C107.63668681 124.76780482 108.27586236 126.94960774 108.91009521 129.13284302 C109.17679016 130.04299164 109.44348511 130.95314026 109.71826172 131.89086914 C109.94456268 132.66974991 110.17086365 133.44863068 110.40402222 134.25111389 C110.85828125 136.00535663 110.85828125 136.00535663 112 137 C112.235979 136.18660156 112.47195801 135.37320312 112.71508789 134.53515625 C113.6249486 131.39925639 114.53493782 128.26339389 115.44503784 125.12756348 C115.85809376 123.70431401 116.27111845 122.28105549 116.68411255 120.85778809 C118.99121586 112.90746627 121.30269145 104.95849846 123.62866211 97.01367188 C127.01937308 85.4281457 130.341875 73.82379651 133.65145874 62.21490479 C136.5946401 51.89263546 139.56457977 41.57895818 142.58447266 31.27880859 C144.81285489 23.67129612 146.99073171 16.04990318 149.13574219 8.41845703 C149.36680664 7.60231934 149.59787109 6.78618164 149.8359375 5.9453125 C150.03751465 5.22875488 150.2390918 4.51219727 150.44677734 3.77392578 C151 2 151 2 152 0 C175.1 0 198.2 0 222 0 C222 64.35 222 128.7 222 195 C206.16 195 190.32 195 174 195 C173.91978238 168.17166309 173.91978238 168.17166309 173.90234375 156.5546875 C173.89048255 148.69105257 173.87659888 140.82746509 173.84912109 132.96386719 C173.82706138 126.60955544 173.81536319 120.25529472 173.81024551 113.90094757 C173.80660816 111.50141855 173.79950999 109.10189165 173.78853989 106.70238495 C173.71262488 89.37565982 174.54266141 72.26355859 176 55 C175.34 55 174.68 55 174 55 C173.9086377 55.88381348 173.81727539 56.76762695 173.72314453 57.67822266 C172.86617996 63.63158735 171.0623871 69.37157799 169.4296875 75.1484375 C169.06635522 76.44606895 168.70341793 77.74381104 168.34085083 79.04165649 C167.38408058 82.46245146 166.4220208 85.88173648 165.45880127 89.30072021 C164.50585844 92.68658139 163.55778864 96.07380543 162.609375 99.4609375 C161.12124305 104.77337658 159.63029609 110.08501682 158.13696289 115.39599609 C156.16530493 122.40831335 154.20078277 129.42261528 152.23828125 136.4375 C150.32774428 143.26475852 148.41372932 150.09099345 146.48828125 156.9140625 C146.30305908 157.57070892 146.11783691 158.22735535 145.92700195 158.90390015 C145.20608469 161.45937782 144.48507313 164.01482799 143.76245117 166.56982422 C143.21173249 168.51762412 142.66241279 170.46581463 142.11328125 172.4140625 C141.64595581 174.06849365 141.64595581 174.06849365 141.16918945 175.75634766 C139.4049701 182.15970134 137.71138067 188.5823225 136 195 C119.17 195 102.34 195 85 195 C83.30573548 189.35245162 81.61607651 183.71842836 80.01049805 178.04760742 C79.83437988 177.42639008 79.65826172 176.80517273 79.47680664 176.16513062 C78.9043976 174.14544455 78.33305801 172.12545767 77.76171875 170.10546875 C77.35446939 168.66789188 76.94714459 167.23033638 76.53974915 165.7928009 C75.47119065 162.02164109 74.40350719 158.25023415 73.33605957 154.47875977 C71.64357631 148.4994805 69.94981701 142.52056246 68.25604248 136.54164886 C67.84297183 135.08353126 67.42992661 133.62540646 67.01690674 132.16727448 C63.9223087 121.24267467 60.81263048 110.32247439 57.68850708 99.40628052 C55.73494189 92.57871695 53.78600903 85.74986789 51.84765625 78.91796875 C51.35660879 77.19001254 50.86404108 75.46248777 50.37011719 73.73535156 C49.64149169 71.18657989 48.91787256 68.63643431 48.1953125 66.0859375 C47.97352325 65.31422211 47.75173401 64.54250671 47.52322388 63.74740601 C46.67543454 60.73884839 46 58.14227601 46 55 C45.34 55 44.68 55 44 55 C44.19916016 56.670625 44.19916016 56.670625 44.40234375 58.375 C44.58094853 59.91664127 44.75932101 61.45830946 44.9375 63 C45.06801758 64.08667969 45.06801758 64.08667969 45.20117188 65.1953125 C47.05219056 81.37458696 47.13596378 97.48740744 47.09765625 113.75 C47.09578707 116.10367808 47.09436553 118.45735655 47.09336853 120.81103516 C47.08958272 126.95277006 47.07978687 133.09448064 47.06866455 139.23620605 C47.05654847 146.63373309 47.05202942 154.03126834 47.04621124 161.42880249 C47.03657236 172.61921848 47.01738843 183.8095813 47 195 C31.49 195 15.98 195 0 195 C0 130.65 0 66.3 0 0 Z " fill="#FDFEFE" transform="translate(2837,1233)"/>
<path d="M0 0 C23.1 0 46.2 0 70 0 C75.68129596 17.04388787 75.68129596 17.04388787 77.8125 24.75 C80.10419875 32.89406589 82.46513365 41.01510846 84.875 49.125 C85.37906372 50.82245361 85.37906372 50.82245361 85.89331055 52.55419922 C86.92804254 56.03638061 87.96383294 59.51824538 89 63 C93.04701522 76.5988823 97.08314656 90.19864207 100.96109009 103.84684753 C103.04660728 111.18464021 105.19658912 118.50168527 107.375 125.8125 C107.90673828 127.60204102 107.90673828 127.60204102 108.44921875 129.42773438 C109.29849949 132.28544929 110.14874692 135.14287212 111 138 C115.42296932 124.64273659 119.56390596 111.26378438 123.14282227 97.65527344 C125.77949032 87.68424803 128.62109444 77.77815859 131.5 67.875 C131.7388089 67.05325287 131.9776178 66.23150574 132.22366333 65.38485718 C133.6079766 60.62411283 134.99582321 55.86440636 136.38549805 51.10522461 C137.26369011 48.09662305 138.1396514 45.08737312 139.015625 42.078125 C140.13014279 38.25051587 141.24753341 34.42376572 142.3671875 30.59765625 C143.57010792 26.48337321 144.76000246 22.36548406 145.9453125 18.24609375 C146.26790039 17.12895996 146.59048828 16.01182617 146.92285156 14.86083984 C147.54461891 12.70697398 148.16387268 10.55238048 148.78027344 8.39697266 C149.05645508 7.44226074 149.33263672 6.48754883 149.6171875 5.50390625 C149.98239502 4.23268921 149.98239502 4.23268921 150.35498047 2.93579102 C151 1 151 1 152 0 C175.1 0 198.2 0 222 0 C222 64.35 222 128.7 222 195 C206.16 195 190.32 195 174 195 C174 149.46 174 103.92 174 57 C168.06229933 78.25278566 168.06229933 78.25278566 162.12475586 99.50561523 C157.42182472 116.33856852 152.71536774 133.17052528 148 150 C147.80554291 150.69404938 147.61108582 151.38809875 147.41073608 152.10317993 C146.92749124 153.82790719 146.44421583 155.55262588 145.9609375 157.27734375 C145.69297363 158.23374756 145.42500977 159.19015137 145.14892578 160.17553711 C144.60322413 162.12302065 144.05730534 164.07044335 143.51123047 166.01782227 C142.15936242 170.84261887 140.81313481 175.6687836 139.484375 180.5 C139.25314941 181.33926025 139.02192383 182.17852051 138.78369141 183.04321289 C138.35706017 184.59398108 137.93214461 186.1452227 137.50927734 187.69702148 C136.11065051 192.77869898 136.11065051 192.77869898 135 195 C118.17 195 101.34 195 84 195 C82.9275 190.91625 81.855 186.8325 80.75 182.625 C75.9132826 164.37399769 70.68629228 146.23575473 65.46435547 128.09204102 C60.63439998 111.30471594 55.87135607 94.49862337 51.125 77.6875 C50.52607048 75.56704915 49.92711228 73.44660641 49.328125 71.32617188 C47.88508777 66.21754076 46.44239773 61.10881171 45 56 C45.02996567 56.58097946 45.05993134 57.16195892 45.09080505 57.76054382 C46.39035661 84.48469177 46.1163733 111.23567983 46.06866455 137.98309326 C46.0582914 144.42687651 46.05383745 150.87066387 46.04882812 157.31445312 C46.0382191 169.87631438 46.02068449 182.43815129 46 195 C30.82 195 15.64 195 0 195 C0 130.65 0 66.3 0 0 Z " fill="#FEFEFE" transform="translate(1963,1233)"/>
<path d="M0 0 C2.66966231 0.04999921 5.33747621 0.06153895 8.00756836 0.06713867 C20.65283559 0.14810946 32.35545407 1.13893107 44.27124023 5.67456055 C45.08842529 5.98280762 45.90561035 6.29105469 46.74755859 6.60864258 C66.98530476 14.50620169 81.10988525 29.78863755 89.82446289 49.37719727 C96.35939348 64.96937567 98.10796686 80.71055409 98.02124023 97.48706055 C98.01875275 98.25574463 98.01626526 99.02442871 98.01370239 99.81640625 C97.87097504 128.39153497 93.19995678 155.57879387 72.44702148 176.8034668 C60.77319714 188.24414772 46.55181243 194.81162255 30.70874023 198.48706055 C29.86956055 198.71135742 29.03038086 198.9356543 28.16577148 199.16674805 C2.15534052 205.20414538 -30.44519942 200.07885387 -53.29125977 186.48706055 C-56.54202153 184.37574105 -59.42855179 182.09638382 -62.29125977 179.48706055 C-63.10981445 178.7600293 -63.92836914 178.03299805 -64.77172852 177.28393555 C-81.92927861 161.19062079 -90.44324958 136.34902682 -91.43652344 113.0847168 C-91.45696123 109.90257524 -91.47694215 106.72054719 -91.4765625 103.53833008 C-91.47872479 101.51971552 -91.49685449 99.50167079 -91.51586914 97.4831543 C-91.55173512 73.02255878 -86.93692167 47.35214403 -70.29125977 28.48706055 C-69.68282227 27.68397461 -69.07438477 26.88088867 -68.44750977 26.0534668 C-51.91719656 6.37880053 -24.5335652 -0.4663311 0 0 Z " fill="#FEFEFE" transform="translate(1445.291259765625,1230.512939453125)"/>
<path d="M0 0 C87.1226705 0 87.1226705 0 99.5 3.125 C100.82028198 3.45105225 100.82028198 3.45105225 102.16723633 3.78369141 C114.58474118 7.01091579 125.92607121 11.92992685 136 20 C137.02287109 20.77923828 137.02287109 20.77923828 138.06640625 21.57421875 C152.03618174 32.86485922 160.11727242 49.791127 164 67 C164.22558594 67.99257812 164.45117188 68.98515625 164.68359375 70.0078125 C168.19539102 89.33480712 167.19544497 110.10941333 162 129 C161.81808105 129.68336426 161.63616211 130.36672852 161.44873047 131.07080078 C155.71700341 152.00517833 142.83315376 169.94547307 124.11572266 181.12548828 C86.11735364 202.61613393 43.16558318 195 0 195 C0 130.65 0 66.3 0 0 Z " fill="#FDFDFE" transform="translate(1160,1233)"/>
<path d="M0 0 C22.77 0 45.54 0 69 0 C71.43375 4.723125 73.8675 9.44625 76.375 14.3125 C81.35115283 23.96037865 86.34017329 33.60025441 91.41162109 43.19848633 C94.62907115 49.28793817 97.81758435 55.39217136 101 61.5 C104.65208841 68.5077486 108.31463417 75.5096932 112 82.5 C116.19419363 90.45543824 120.35635221 98.42731947 124.51269531 106.40258789 C129.31607101 115.61530018 134.1530733 124.81014119 139 134 C139.10894286 127.93551407 139.02435353 121.90749135 138.64374447 115.85503864 C137.87302773 103.44008777 137.87194623 91.04767474 137.90234375 78.61328125 C137.90421418 76.33115165 137.90563512 74.04902163 137.90663147 71.76689148 C137.91040751 65.82741136 137.92019443 59.88795659 137.93133545 53.94848633 C137.94347864 46.78616612 137.94797525 39.62383731 137.95378876 32.4615097 C137.96340995 21.64098896 137.98260055 10.8205236 138 0 C153.84 0 169.68 0 186 0 C186 64.35 186 128.7 186 195 C162.9 195 139.8 195 116 195 C111.38 186.09 106.76 177.18 102 168 C97.56102217 159.49584561 97.56102217 159.49584561 93.12109375 150.9921875 C89.60690774 144.25280732 86.11506664 137.50189033 82.625 130.75 C82.1521759 129.83528931 82.1521759 129.83528931 81.6697998 128.90209961 C80.39433526 126.43456189 79.11889109 123.96701363 77.84347534 121.49945068 C72.24045033 110.66035392 66.62314385 99.82867098 61 89 C60.43555176 87.91235352 59.87110352 86.82470703 59.28955078 85.70410156 C57.65298828 82.55188854 56.0143433 79.40076756 54.375 76.25 C53.8900708 75.31559082 53.4051416 74.38118164 52.90551758 73.41845703 C52.44943115 72.54302246 51.99334473 71.66758789 51.5234375 70.765625 C51.13075684 70.01055664 50.73807617 69.25548828 50.33349609 68.47753906 C49.22294708 66.41421951 48.08140009 64.37798884 46.91665649 62.34515381 C46.28415985 61.24125305 45.65166321 60.13735229 45 59 C45.1065818 60.69005157 45.1065818 60.69005157 45.21531677 62.41424561 C46.07593344 77.05672099 46.12939026 91.66426974 46.09765625 106.328125 C46.09578627 108.90028862 46.09436511 111.4724526 46.09336853 114.0446167 C46.08997286 120.06467555 46.08213538 126.08471192 46.07201904 132.10476184 C46.06073425 138.97329063 46.05531671 145.84182044 46.05032361 152.71035624 C46.03994817 166.80691636 46.02165317 180.90345292 46 195 C30.82 195 15.64 195 0 195 C0 130.65 0 66.3 0 0 Z " fill="#FDFDFE" transform="translate(3300,1233)"/>
<path d="M0 0 C22.77 0 45.54 0 69 0 C81.36914062 23.70751953 81.36914062 23.70751953 85.8125 32.23242188 C90.26032955 40.76404731 94.72439566 49.28678193 99.21142578 57.79785156 C103.00864922 65.00516614 106.77407368 72.22893326 110.5390625 79.453125 C114.07337111 86.23174767 117.62590519 93.00048807 121.19335938 99.76171875 C123.54884609 104.2299367 125.88963648 108.70547068 128.21875 113.1875 C128.76402344 114.23615234 129.30929688 115.28480469 129.87109375 116.36523438 C130.93768529 118.4178476 132.002845 120.47120562 133.06640625 122.52539062 C133.54980469 123.45544922 134.03320312 124.38550781 134.53125 125.34375 C135.17416992 126.58415039 135.17416992 126.58415039 135.83007812 127.84960938 C137.06086177 130.18837877 137.06086177 130.18837877 139 133 C139 89.11 139 45.22 139 0 C154.51 0 170.02 0 186 0 C186 64.35 186 128.7 186 195 C162.9 195 139.8 195 116 195 C113.2775 189.699375 110.555 184.39875 107.75 178.9375 C102.00244954 167.75543301 96.23821571 156.58298314 90.40917969 145.44311523 C86.41548713 137.80775147 82.45503464 130.15542716 78.5 122.5 C73.97452245 113.74151794 69.43836335 104.98882558 64.875 96.25 C64.40288086 95.34483643 63.93076172 94.43967285 63.44433594 93.50708008 C60.76054486 88.36345125 58.06731361 83.22491771 55.3671875 78.08984375 C54.16140269 75.78909166 52.95567235 73.48831102 51.75 71.1875 C51.17620605 70.10049805 50.60241211 69.01349609 50.01123047 67.89355469 C49.48674316 66.89098633 48.96225586 65.88841797 48.421875 64.85546875 C47.95362305 63.96496826 47.48537109 63.07446777 47.00292969 62.15698242 C46 60 46 60 46 58 C45.34 58 44.68 58 44 58 C44.19916016 59.77890625 44.19916016 59.77890625 44.40234375 61.59375 C44.58092144 63.22914568 44.75929557 64.8645636 44.9375 66.5 C45.06801758 67.65822266 45.06801758 67.65822266 45.20117188 68.83984375 C46.93172055 84.86344255 47.1371241 100.77591966 47.09765625 116.875 C47.09578685 119.13899708 47.09436542 121.40299456 47.09336853 123.66699219 C47.08958444 129.57199253 47.07979016 135.47696754 47.06866455 141.38195801 C47.05654371 148.49581377 47.0520286 155.60967809 47.04621124 162.72354126 C47.03657547 173.48237836 47.01739037 184.24116008 47 195 C31.49 195 15.98 195 0 195 C0 130.65 0 66.3 0 0 Z " fill="#FDFDFE" transform="translate(2377,1233)"/>
<path d="M0 0 C22.77 0 45.54 0 69 0 C72.58061617 5.96769362 76.04231699 11.78489739 79.171875 17.96484375 C79.53584381 18.67614944 79.89981262 19.38745514 80.27481079 20.12031555 C81.04250977 21.62139865 81.80869748 23.12325555 82.57342529 24.62585449 C84.57058673 28.54972709 86.5791671 32.46775442 88.5859375 36.38671875 C88.97580841 37.14888702 89.36567932 37.9110553 89.7673645 38.69631958 C92.60113964 44.23306858 95.46608008 49.75230112 98.375 55.25 C98.75253418 55.96373779 99.13006836 56.67747559 99.51904297 57.4128418 C100.27697721 58.84556206 101.03495245 60.27826065 101.79296875 61.7109375 C104.1685799 66.21614181 106.52056774 70.73370247 108.875 75.25 C109.37676758 76.21228516 109.87853516 77.17457031 110.39550781 78.16601562 C112.44445851 82.09612068 114.4927186 86.02658549 116.54101562 89.95703125 C120.02400441 96.63976703 123.50958249 103.32114094 127 110 C127.47808105 110.91491211 127.95616211 111.82982422 128.44873047 112.77246094 C129.8181453 115.39094381 131.18987668 118.00819787 132.5625 120.625 C133.17085693 121.78854004 133.17085693 121.78854004 133.79150391 122.97558594 C135.75885644 126.71982121 137.77351392 130.40063272 140 134 C140.02781263 132.22926253 140.04674879 130.45838583 140.0625 128.6875 C140.07990234 127.20830078 140.07990234 127.20830078 140.09765625 125.69921875 C140.01971086 122.74664728 139.80483383 119.91571831 139.50099182 116.98368835 C138.96174617 111.16317935 138.86543672 105.40384774 138.88647461 99.56176758 C138.88632858 98.47751495 138.88618256 97.39326233 138.8860321 96.27615356 C138.88672254 92.7322583 138.89447381 89.1884172 138.90234375 85.64453125 C138.90421102 83.17160572 138.90563346 80.69867982 138.90663147 78.22575378 C138.9104323 71.74692751 138.92024158 65.26812399 138.93133545 58.78930664 C138.94160213 52.16618152 138.94614031 45.54305268 138.95117188 38.91992188 C138.96186622 25.94660303 138.97944309 12.97330697 139 0 C154.51 0 170.02 0 186 0 C186 64.35 186 128.7 186 195 C163.23 195 140.46 195 117 195 C109.27660911 180.84045004 101.67237865 166.68608299 94.375 152.3125 C92.63453941 148.89104565 90.89218021 145.47056398 89.1484375 142.05078125 C88.72174271 141.21367615 88.29504791 140.37657104 87.85542297 139.51409912 C84.49754941 132.94086776 81.07182104 126.40504447 77.62409973 119.87858582 C73.90240289 112.83009237 70.24574087 105.74934487 66.60617065 98.65817261 C59.80266136 85.40427045 52.93715136 72.18450618 46 59 C46.02996567 59.71917099 46.05993134 60.43834198 46.09080505 61.17930603 C47.16415467 88.1214104 47.12059793 115.05331043 47.06866455 142.01281738 C47.05640809 149.07035519 47.05200555 156.12790219 47.04621124 163.18544769 C47.03666294 173.79031682 47.01744541 184.39512775 47 195 C31.49 195 15.98 195 0 195 C0 130.65 0 66.3 0 0 Z " fill="#FDFDFE" transform="translate(4492,1233)"/>
<path d="M0 0 C1.88863014 0.00333092 1.88863014 0.00333092 3.81541443 0.00672913 C4.50806396 0.0065831 5.2007135 0.00643707 5.91435242 0.00628662 C8.21400537 0.00698577 10.51357828 0.01477823 12.81321716 0.02259827 C14.40362504 0.02446244 15.99403349 0.02588635 17.58444214 0.02688599 C21.77827021 0.03071123 25.97206386 0.04054156 30.1658783 0.05158997 C34.44220006 0.06180395 38.71852736 0.06638358 42.99485779 0.07142639 C51.39135799 0.08216383 59.78783017 0.09924032 68.18431091 0.12025452 C70.49386023 7.022523 72.80056266 13.92573907 75.10569763 20.82948303 C75.88245603 23.15487395 76.65975986 25.48008279 77.43772888 27.80506897 C82.9277524 44.21397937 88.3185367 60.65296582 93.6626358 77.10988998 C98.16307427 90.96376767 102.71261499 104.80071747 107.29935837 118.62625694 C108.32807389 121.72725719 109.35594632 124.82853565 110.38356018 127.92990112 C114.54104785 140.47635387 114.54104785 140.47635387 118.70872498 153.01942444 C120.44821116 158.24792502 122.1819581 163.4782971 123.91180801 168.70999336 C124.56276122 170.6751207 125.21584509 172.63954365 125.87115097 174.6032238 C126.77315999 177.30691345 127.66783033 180.01292561 128.56077576 182.71961975 C128.82865402 183.51665314 129.09653229 184.31368652 129.37252808 185.13487244 C130.53004559 188.66740474 131.18431091 191.36490496 131.18431091 195.12025452 C112.37431091 195.12025452 93.56431091 195.12025452 74.18431091 195.12025452 C71.99412868 187.81964708 69.92067979 180.55045976 67.99681091 173.18275452 C67.58785583 171.64264709 67.58785583 171.64264709 67.17063904 170.07142639 C66.78488708 168.59706116 66.78488708 168.59706116 66.39134216 167.09291077 C66.15906921 166.20869446 65.92679626 165.32447815 65.68748474 164.41346741 C65.18431091 162.12025452 65.18431091 162.12025452 65.18431091 159.12025452 C44.06431091 159.45025452 22.94431091 159.78025452 1.18431091 160.12025452 C-0.79568909 168.04025452 -2.77568909 175.96025452 -4.81568909 184.12025452 C-5.80568909 187.75025452 -6.79568909 191.38025452 -7.81568909 195.12025452 C-26.95568909 195.12025452 -46.09568909 195.12025452 -65.81568909 195.12025452 C-65.11765309 190.23400253 -64.44930062 186.51959668 -62.9365387 181.96864319 C-62.54715118 180.78713684 -62.15776367 179.60563049 -61.75657654 178.38832092 C-61.32712484 177.104934 -60.89760833 175.82156876 -60.46803284 174.53822327 C-60.01988011 173.18448988 -59.57231274 171.8305626 -59.12528992 170.47645569 C-58.17175745 167.59122694 -57.21484042 164.70715319 -56.25517273 161.82395935 C-53.9637363 154.93842871 -51.69050543 148.04687975 -49.41628075 141.15564919 C-48.90534493 139.60768567 -48.39419614 138.05979244 -47.8828373 136.51196861 C-43.46420869 123.13686066 -39.14158298 109.73318845 -34.87818909 96.30775452 C-28.41728666 75.99392861 -21.8144161 55.72758745 -15.17010117 35.4731636 C-14.38050982 33.06483298 -13.59209344 30.65612064 -12.80400085 28.24729919 C-11.56553218 24.46254574 -10.32391539 20.67883993 -9.07974243 16.89595795 C-8.61683581 15.4870547 -8.15493222 14.07782149 -7.69406128 12.66825104 C-7.06110926 10.73326541 -6.42399002 8.79964438 -5.78663635 6.86610413 C-5.24946739 5.23033669 -5.24946739 5.23033669 -4.70144653 3.56152344 C-3.46289139 0.14789571 -3.46289139 0.14789571 0 0 Z " fill="#FDFDFE" transform="translate(3146.815689086914,1232.8797454833984)"/>
<path d="M0 0 C23.43 0 46.86 0 71 0 C72.85625 5.383125 74.7125 10.76625 76.625 16.3125 C77.45185303 18.70109253 77.45185303 18.70109253 78.29541016 21.13793945 C82.7790079 34.15893816 87.0284734 47.255019 91.28126335 60.3526516 C96.30861874 75.83400336 101.37914757 91.30067675 106.48046875 106.7578125 C106.83722183 107.8388217 107.19397491 108.91983089 107.5615387 110.03359795 C109.73466387 116.61746337 111.90913666 123.20088311 114.08398438 129.78417969 C115.58017941 134.31381085 117.07559283 138.84369989 118.57097912 143.3735981 C121.66396439 152.74297746 124.75741102 162.11220464 127.85229492 171.48095703 C128.12808884 172.31611847 128.40388275 173.15127991 128.68803406 174.01174927 C129.08037231 175.19921753 129.08037231 175.19921753 129.4806366 176.41067505 C129.85456323 177.55108938 129.85456323 177.55108938 130.23604393 178.71454239 C130.76158572 180.28675777 131.30456691 181.85321657 131.86187172 183.41445541 C132.27512734 184.58660788 132.27512734 184.58660788 132.69673157 185.78244019 C132.94676595 186.47385038 133.19680033 187.16526058 133.45441151 187.8776226 C134 190 134 190 134 195 C115.19 195 96.38 195 77 195 C74.525 185.595 74.525 185.595 72 176 C70.35389176 169.90313548 70.35389176 169.90313548 68.69921875 163.80859375 C68 161 68 161 68 159 C46.88 159 25.76 159 4 159 C2.68 164.61 1.36 170.22 0 176 C-1.65 182.27 -3.3 188.54 -5 195 C-24.14 195 -43.28 195 -63 195 C-60.750328 184.87647599 -60.750328 184.87647599 -59.28271484 180.44750977 C-58.95345001 179.44629593 -58.62418518 178.44508209 -58.28494263 177.41352844 C-57.93052094 176.35022812 -57.57609924 175.2869278 -57.2109375 174.19140625 C-56.64848831 172.48533455 -56.64848831 172.48533455 -56.07467651 170.74479675 C-55.05732579 167.65998693 -54.03641765 164.57638062 -53.01429749 161.4931488 C-51.26717081 156.21690715 -49.53158874 150.93684601 -47.7948761 145.65716934 C-47.35225711 144.31163117 -46.90949712 142.96613937 -46.46659851 141.62069321 C-42.63955978 129.99285441 -38.88870511 118.34183288 -35.18008423 106.6756897 C-28.39441888 85.33057857 -21.45873581 64.03610289 -14.46965027 42.75691223 C-13.69263161 40.39062749 -12.91625173 38.024134 -12.14001465 35.65759277 C-10.91316781 31.91793026 -9.68436946 28.1789145 -8.45399666 24.44041061 C-7.99872925 23.05643172 -7.54397584 21.67228362 -7.08978081 20.28795242 C-6.46081121 18.37161007 -5.82944926 16.45605342 -5.19799805 14.54052734 C-4.84432663 13.46556 -4.49065521 12.39059265 -4.12626648 11.28305054 C-2.8267985 7.49512013 -1.40611826 3.74964869 0 0 Z " fill="#FDFDFE" transform="translate(3570,1233)"/>
<path d="M0 0 C-0.61532847 5.26488151 -2.31863276 9.63481874 -4.37890625 14.4609375 C-4.71043198 15.25150543 -5.0419577 16.04207336 -5.38352966 16.8565979 C-6.43718016 19.36531025 -7.49968653 21.87015776 -8.5625 24.375 C-9.28118819 26.08178326 -9.99929351 27.78881207 -10.71679688 29.49609375 C-12.47112961 33.66693547 -14.23341099 37.83433557 -16 42 C-17.21598877 41.58862793 -18.43197754 41.17725586 -19.68481445 40.75341797 C-21.3067607 40.20788089 -22.92875204 39.66247786 -24.55078125 39.1171875 C-25.34907349 38.84672607 -26.14736572 38.57626465 -26.96984863 38.29760742 C-38.32797193 34.48740216 -48.88746064 32.75416622 -60.875 32.6875 C-61.83817139 32.68186035 -62.80134277 32.6762207 -63.79370117 32.67041016 C-76.67142847 32.80180417 -86.57864429 36.18372228 -96.15234375 44.99609375 C-108.06271288 57.91368226 -110.73167915 76.23002962 -110.3125 93.1328125 C-109.55195629 108.70494489 -106.14841744 125.43723764 -94.18359375 136.31640625 C-82.80541547 145.08920561 -68.9271295 145.8070978 -55 145 C-54.01 144.67 -53.02 144.34 -52 144 C-49.69 144 -47.38 144 -45 144 C-45 133.77 -45 123.54 -45 113 C-56.55 113 -68.1 113 -80 113 C-80 99.47 -80 85.94 -80 72 C-51.95 72 -23.9 72 5 72 C5 106.98 5 141.96 5 178 C-17.87886201 184.02075316 -38.79502275 188.21459258 -62.27050781 188.91650391 C-64.02014287 188.97002584 -65.76956397 189.03148081 -67.51855469 189.10302734 C-84.69303741 189.78819808 -101.29055243 187.26695534 -117 180 C-118.37478516 179.37351562 -118.37478516 179.37351562 -119.77734375 178.734375 C-137.85995516 169.70604104 -148.76735482 154.96510824 -157 137 C-157.52722656 135.89011719 -158.05445312 134.78023437 -158.59765625 133.63671875 C-160.32741364 129.15091338 -161.24539636 124.71467551 -162.125 120 C-162.29386719 119.13632813 -162.46273437 118.27265625 -162.63671875 117.3828125 C-164.49251945 107.7677191 -165.1825321 98.6042313 -165.1875 88.8125 C-165.19974609 87.56146484 -165.21199219 86.31042969 -165.22460938 85.02148438 C-165.23693216 77.1307943 -164.57689441 69.72828714 -163 62 C-162.86456787 61.28239502 -162.72913574 60.56479004 -162.58959961 59.82543945 C-158.10944882 36.93363095 -145.25463896 17.46856773 -125.875 4.375 C-89.45558457 -17.70202961 -38.49091162 -16.28461645 0 0 Z " fill="#FDFDFE" transform="translate(3884,1242)"/>
<path d="M0 0 C17.49 0 34.98 0 53 0 C53.01458252 3.7237793 53.02916504 7.44755859 53.04418945 11.28417969 C53.09461827 23.6135987 53.16107992 35.94288809 53.23571491 48.27218246 C53.28055935 55.74442885 53.31999972 63.21662878 53.34643555 70.68896484 C53.36950808 77.20667157 53.40300811 83.72422988 53.44870156 90.24181867 C53.47250996 93.68848399 53.49131934 97.13500347 53.49761391 100.58174896 C53.50486063 104.44235709 53.53540225 108.30260192 53.56762695 112.16308594 C53.56619186 113.28878494 53.56475677 114.41448395 53.5632782 115.57429504 C53.6844849 125.90125183 55.10966397 137.79644699 62 146 C71.40259837 153.1309306 80.56620809 153.96676842 92 153 C98.29553224 151.69693472 102.85627066 149.13750814 106.75390625 143.9921875 C111.24460268 136.81270418 113.09951057 129.92776127 113.15821838 121.45706177 C113.1680072 120.38021622 113.17779602 119.30337067 113.18788147 118.19389343 C113.19363693 117.0279213 113.1993924 115.86194916 113.20532227 114.66064453 C113.21522186 113.42106491 113.22512146 112.18148529 113.23532104 110.90434265 C113.26143294 107.51844753 113.28332605 104.13257503 113.30332303 100.74664164 C113.32525455 97.2032107 113.35260804 93.65982165 113.37937927 90.11642456 C113.42920958 83.41240474 113.47418407 76.70836154 113.51740164 70.00429618 C113.56685681 62.36945 113.62174413 54.73464587 113.67708123 47.0998404 C113.79075287 31.39993104 113.89690691 15.69998294 114 0 C131.49 0 148.98 0 167 0 C167.04526784 16.46461106 167.08205931 32.92916843 167.10362434 49.39382458 C167.11390658 57.03983486 167.12790803 64.68580354 167.15087891 72.33178711 C167.1709068 79.00140215 167.18373858 85.67098703 167.18817699 92.34063131 C167.19076857 95.86726927 167.19679507 99.393821 167.21146011 102.92043114 C167.22775547 106.87169298 167.22797371 110.82287294 167.22705078 114.77416992 C167.23424133 115.92432587 167.24143188 117.07448181 167.24884033 118.25949097 C167.22141752 129.18024842 165.86594825 139.77288056 162.3125 150.125 C162.05267334 150.88925293 161.79284668 151.65350586 161.52514648 152.44091797 C159.21669387 158.92542787 156.18855545 164.51696826 152 170 C151.46761719 170.71285156 150.93523437 171.42570312 150.38671875 172.16015625 C137.68718913 187.89059986 117.4051236 195.42649747 97.8828125 197.69140625 C91.24056097 198.21931155 84.65101472 198.20412732 78 198 C77.33323242 197.98598145 76.66646484 197.97196289 75.97949219 197.95751953 C57.26877168 197.51849198 39.90237202 192.46542856 25 181 C23.989375 180.278125 22.97875 179.55625 21.9375 178.8125 C7.74968962 166.51908475 1.38208555 147.19198314 0 129 C-0.13288528 124.71156406 -0.12666502 120.42667454 -0.11352539 116.13647461 C-0.11367142 114.87694977 -0.11381744 113.61742493 -0.1139679 112.31973267 C-0.11425287 108.89267441 -0.10840489 105.46565169 -0.10139394 102.03860164 C-0.09511021 98.44716879 -0.09455265 94.85573498 -0.09336853 91.26429749 C-0.09026994 84.47534849 -0.08207653 77.68641574 -0.07201904 70.89747387 C-0.06081202 63.16343633 -0.05533592 55.42939799 -0.05032361 47.69535434 C-0.03989258 31.7968919 -0.02156555 15.89845183 0 0 Z " fill="#FDFEFE" transform="translate(1755,1233)"/>
<path d="M0 0 C38.28 0 76.56 0 116 0 C116 13.86 116 27.72 116 42 C95.21 42 74.42 42 53 42 C53 52.23 53 62.46 53 73 C72.47 73 91.94 73 112 73 C112 87.19 112 101.38 112 116 C92.53 116 73.06 116 53 116 C53 128.21 53 140.42 53 153 C73.79 153 94.58 153 116 153 C116 166.86 116 180.72 116 195 C77.72 195 39.44 195 0 195 C0 130.65 0 66.3 0 0 Z " fill="#FCFDFD" transform="translate(4342,1233)"/>
<path d="M0 0 C38.28 0 76.56 0 116 0 C116 14.19 116 28.38 116 43 C95.21 43 74.42 43 53 43 C53 52.9 53 62.8 53 73 C72.14 73 91.28 73 111 73 C111 86.86 111 100.72 111 115 C91.86 115 72.72 115 53 115 C53 127.54 53 140.08 53 153 C73.79 153 94.58 153 116 153 C116 166.86 116 180.72 116 195 C77.72 195 39.44 195 0 195 C0 130.65 0 66.3 0 0 Z " fill="#FDFDFE" transform="translate(2227,1233)"/>
<path d="M0 0 C38.28 0 76.56 0 116 0 C116 13.86 116 27.72 116 42 C95.21 42 74.42 42 53 42 C53 52.23 53 62.46 53 73 C72.47 73 91.94 73 112 73 C112 86.86 112 100.72 112 115 C92.53 115 73.06 115 53 115 C53 127.54 53 140.08 53 153 C73.79 153 94.58 153 116 153 C116 166.86 116 180.72 116 195 C77.72 195 39.44 195 0 195 C0 130.65 0 66.3 0 0 Z " fill="#FDFDFE" transform="translate(3928,1233)"/>
<path d="M0 0 C0.72311371 0.00498505 1.44622742 0.00997009 2.19125366 0.0151062 C22.48416683 0.17890098 41.4969361 3.76917615 59.625 13.375 C58.90163412 18.10344252 57.21281522 22.31627096 55.46484375 26.73828125 C55.15551407 27.53026413 54.84618439 28.32224701 54.52748108 29.13822937 C53.54300963 31.65618262 52.55284292 34.17185106 51.5625 36.6875 C50.89220056 38.39894071 50.22227447 40.1105277 49.55273438 41.82226562 C47.91447649 46.00821729 46.27110873 50.19212976 44.625 54.375 C40.95996438 53.83277465 37.62048575 53.14973186 34.1640625 51.81640625 C33.36226562 51.51283203 32.56046875 51.20925781 31.734375 50.89648438 C30.91453125 50.58001953 30.0946875 50.26355469 29.25 49.9375 C15.53091752 44.65674206 -0.66563947 40.72071691 -15.125 45.875 C-25.11738314 50.97825282 -31.80078424 59.29590666 -35.59375 69.7265625 C-38.63483586 79.34942704 -39.61585229 87.97154526 -39.67016602 98.02734375 C-39.68158315 99.49131006 -39.70186832 100.95523823 -39.73168945 102.41894531 C-40.04435259 117.8110548 -37.92514963 133.65966683 -27.33984375 145.6875 C-20.27612693 152.46468157 -12.17990656 155.95023871 -2.375 156.375 C-1.51648437 156.4265625 -0.65796875 156.478125 0.2265625 156.53125 C16.8779152 157.06983823 31.97611805 151.537057 47.44873047 146.06176758 C49.625 145.375 49.625 145.375 51.625 145.375 C51.625 159.895 51.625 174.415 51.625 189.375 C23.29596052 201.17876645 -11.62370706 205.84458919 -41.1875 195.0625 C-61.3059227 186.73163275 -76.98249056 173.39255923 -85.79150391 153.11987305 C-91.26167759 139.85322953 -94.49411418 125.47930311 -94.578125 111.125 C-94.58382507 110.34922607 -94.58952515 109.57345215 -94.59539795 108.77416992 C-94.60479767 107.1370579 -94.61136179 105.49992739 -94.61523438 103.86279297 C-94.62486467 101.40947567 -94.65590419 98.95702491 -94.6875 96.50390625 C-94.86334814 70.20921246 -86.42950541 46.4090779 -69.375 26.375 C-68.83746094 25.71242188 -68.29992188 25.04984375 -67.74609375 24.3671875 C-51.09688725 5.67486688 -23.84689107 -0.2780868 0 0 Z " fill="#FDFEFE" transform="translate(1666.375,1230.625)"/>
<path d="M0 0 C48.84 0 97.68 0 148 0 C148 14.19 148 28.38 148 43 C132.49 43 116.98 43 101 43 C101 93.16 101 143.32 101 195 C83.51 195 66.02 195 48 195 C48 144.84 48 94.68 48 43 C32.16 43 16.32 43 0 43 C0 28.81 0 14.62 0 0 Z " fill="#FDFDFE" transform="translate(2590,1233)"/>
<path d="M0 0 C48.84 0 97.68 0 148 0 C148 14.19 148 28.38 148 43 C132.16 43 116.32 43 100 43 C100 93.16 100 143.32 100 195 C82.84 195 65.68 195 48 195 C48 144.84 48 94.68 48 43 C32.16 43 16.32 43 0 43 C0 28.81 0 14.62 0 0 Z " fill="#FEFEFE" transform="translate(4706,1233)"/>
<path d="M0 0 C10.8903869 7.22551985 15.37918332 18.59354405 18 31 C21.75459706 50.88325327 21.13757096 76.95643806 10.3984375 94.63671875 C4.95365482 102.15748021 -2.11732065 106.50695856 -11 109 C-14.13781286 109.42085598 -17.21210561 109.47828687 -20.375 109.4375 C-21.21208496 109.42847656 -22.04916992 109.41945313 -22.91162109 109.41015625 C-33.00133596 109.12754218 -39.6946133 106.19611724 -47.03125 99.1953125 C-59.8969191 84.84907037 -60.8041479 63.95250568 -60.15234375 45.69873047 C-59.27621073 30.17825864 -56.52771106 15.67725172 -45.41015625 4.1328125 C-33.74342306 -6.19139548 -13.51902124 -7.89170062 0 0 Z " fill="#13538E" transform="translate(1469,1278)"/>
<path d="M0 0 C13.86 0 27.72 0 42 0 C49.84592626 19.14406007 56.90265643 38.56907709 64 58 C67.8954325 48.81742577 71.57447282 39.55730989 75.19384766 30.26318359 C76.12672971 27.8705637 77.06527007 25.48021113 78.00390625 23.08984375 C78.60972377 21.53659432 79.21520413 19.98321333 79.8203125 18.4296875 C80.09537628 17.73148895 80.37044006 17.03329041 80.65383911 16.31393433 C82.74635898 10.91260294 84.32074784 5.59750718 86 0 C99.2 0 112.4 0 126 0 C126 1.65 126 3.3 126 5 C125.28972656 5.20496094 124.57945312 5.40992188 123.84765625 5.62109375 C122.46900391 6.02521484 122.46900391 6.02521484 121.0625 6.4375 C120.14597656 6.70433594 119.22945312 6.97117187 118.28515625 7.24609375 C116.0597507 7.79026051 116.0597507 7.79026051 115 9 C114.88981525 11.22301682 114.85085421 13.44957943 114.83886719 15.67529297 C114.83390228 16.3728772 114.82893738 17.07046143 114.82382202 17.78918457 C114.80916545 20.10686209 114.80239245 22.42447116 114.796875 24.7421875 C114.79112617 26.34782921 114.78536841 27.9534709 114.77960205 29.55911255 C114.76908194 32.93019939 114.76324598 36.30126232 114.75976562 39.67236328 C114.75428047 43.99588514 114.73025647 48.31909211 114.70179367 52.64251518 C114.68318565 55.96075366 114.67796267 59.27891605 114.67642975 62.5972023 C114.67339823 64.19124192 114.66535291 65.78528004 114.65224457 67.37926865 C114.63522272 69.60839641 114.63705445 71.8367519 114.64355469 74.06591797 C114.63990906 75.33531219 114.63626343 76.60470642 114.63250732 77.91256714 C114.73831505 80.97162454 114.73831505 80.97162454 116.39459229 82.88772583 C118.30753619 84.21307021 119.91600799 84.70341154 122.1875 85.1875 C123.445625 85.455625 124.70375 85.72375 126 86 C126 87.65 126 89.3 126 91 C109.83 91 93.66 91 77 91 C77 89.35 77 87.7 77 86 C78.28197266 85.70996094 78.28197266 85.70996094 79.58984375 85.4140625 C80.69457031 85.15367188 81.79929687 84.89328125 82.9375 84.625 C84.59072266 84.24214844 84.59072266 84.24214844 86.27734375 83.8515625 C87.17582031 83.57054687 88.07429688 83.28953125 89 83 C90.41697193 80.16605613 90.11945929 77.79126262 90.11352539 74.62255859 C90.11367142 73.96877731 90.11381744 73.31499603 90.1139679 72.6414032 C90.11327036 70.47704773 90.1054854 68.31277796 90.09765625 66.1484375 C90.09579151 64.64913988 90.09436787 63.14984166 90.09336853 61.65054321 C90.08954779 57.70168378 90.07972128 53.75286104 90.06866455 49.80401611 C90.05844091 45.77559913 90.05386887 41.74717622 90.04882812 37.71875 C90.03809862 29.81248315 90.0210275 21.90624614 90 14 C87.78992959 19.5826472 85.5819859 25.16613273 83.375 30.75 C83.04207947 31.59202972 82.70915894 32.43405945 82.3661499 33.30160522 C78.5230141 43.02477335 74.69743593 52.75427602 70.921875 62.50390625 C70.43837082 63.751754 70.43837082 63.751754 69.94509888 65.02481079 C68.39497 69.02712595 66.84830953 73.03073946 65.30615234 77.03613281 C64.74844901 78.47854525 64.19067316 79.92092965 63.6328125 81.36328125 C63.25258942 82.35588707 63.25258942 82.35588707 62.86468506 83.36854553 C61.11332014 87.88667986 61.11332014 87.88667986 60 89 C57.32941149 89.14115161 54.67567762 89.04247107 52 89 C46.94990475 77.53779542 42.85104109 65.72044746 38.625 53.9375 C37.15998095 49.86287543 35.69335686 45.78882953 34.2265625 41.71484375 C33.87217102 40.72962738 33.51777954 39.74441101 33.15264893 38.7293396 C29.81751328 29.46804539 26.41966257 20.23036953 23 11 C22.9301981 18.79792241 22.87703656 26.59577033 22.84456348 34.39392757 C22.82897052 38.01574248 22.80785047 41.63734214 22.77368164 45.2590332 C22.74085851 48.7603775 22.7230992 52.261516 22.71536827 55.7630024 C22.70720495 57.73537617 22.68382289 59.70766826 22.66011047 61.67991638 C22.65885054 68.46681059 22.78838637 74.86347389 26 81 C28.04224062 82.83007154 28.04224062 82.83007154 30.5 83.5 C31.2734375 83.7784375 32.046875 84.056875 32.84375 84.34375 C33.5553125 84.5603125 34.266875 84.776875 35 85 C35.99 85.33 36.98 85.66 38 86 C38 87.65 38 89.3 38 91 C25.13 91 12.26 91 -1 91 C-1 89.35 -1 87.7 -1 86 C-0.31292969 85.81824219 0.37414063 85.63648438 1.08203125 85.44921875 C1.98308594 85.19785156 2.88414062 84.94648437 3.8125 84.6875 C4.70582031 84.44386719 5.59914063 84.20023438 6.51953125 83.94921875 C9.21972904 82.91591471 10.33393271 82.34650318 12 80 C14.5182192 73.38273097 14.30604637 66.85144409 14.30078125 59.83984375 C14.30506638 58.57660782 14.3093515 57.31337189 14.31376648 56.01185608 C14.31949598 53.34817473 14.32096118 50.68488272 14.31567383 48.02124023 C14.30986912 44.61957799 14.3268499 41.21845847 14.3500185 37.81688595 C14.3683415 34.55370951 14.36456997 31.29056234 14.36328125 28.02734375 C14.372491 26.81159164 14.38170074 25.59583954 14.39118958 24.34324646 C14.43288572 16.2194181 14.43288572 16.2194181 11 9 C8.33190697 7.4407783 8.33190697 7.4407783 5.3125 6.625 C3.82169922 6.14933594 3.82169922 6.14933594 2.30078125 5.6640625 C1.54152344 5.44492188 0.78226563 5.22578125 0 5 C0 3.35 0 1.7 0 0 Z " fill="#175FA1" transform="translate(2737,1958)"/>
<path d="M0 0 C34.99469697 0 34.99469697 0 45.5625 9.4765625 C59.68845275 24.44700155 58.73224347 45.1498914 58.17919922 64.32861328 C57.54355999 77.35142359 53.38667904 90.1213231 43.875 99.375 C30.63897551 110.31887764 16.97267772 109 0 109 C0 73.03 0 37.06 0 0 Z " fill="#12518B" transform="translate(1213,1276)"/>
<path d="M0 0 C1.25586914 0.0009668 1.25586914 0.0009668 2.53710938 0.00195312 C8.74908906 0.04621901 8.74908906 0.04621901 11.82861328 0.67822266 C14.78366531 1.25507448 17.60454335 1.40015667 20.61328125 1.50390625 C21.77021484 1.54580078 22.92714844 1.58769531 24.11914062 1.63085938 C25.31732422 1.67017578 26.51550781 1.70949219 27.75 1.75 C28.96751953 1.79318359 30.18503906 1.83636719 31.43945312 1.88085938 C34.4386947 1.98671496 37.43801591 2.08879726 40.4375 2.1875 C40.4375 4.1675 40.4375 6.1475 40.4375 8.1875 C36.1475 8.1875 31.8575 8.1875 27.4375 8.1875 C28.2625 9.528125 29.0875 10.86875 29.9375 12.25 C32.2611622 16.48687694 33.23909101 19.28888827 32.4375 24.1875 C30.37699061 30.74017584 26.47213513 34.97597518 20.4375 38.1875 C14.1107702 40.85561087 8.26030505 41.66348398 1.4375 41.8125 C-3.98858208 41.47517917 -3.98858208 41.47517917 -8.5625 43.1875 C-8.60313832 44.85367115 -8.605221 46.52138095 -8.5625 48.1875 C-4.80667396 49.9137189 -1.82442765 50.44558435 2.296875 50.49609375 C3.97136719 50.53379883 3.97136719 50.53379883 5.6796875 50.57226562 C8.00255189 50.60718619 10.32547376 50.63848615 12.6484375 50.66601562 C20.79915672 50.8580728 29.08120677 51.32363069 35.375 57.125 C35.92027344 57.60839844 36.46554688 58.09179688 37.02734375 58.58984375 C40.98073927 63.0688985 40.86835374 67.44624303 40.7421875 73.21484375 C40.20914568 78.4154184 38.44728734 81.31110562 34.671875 84.8359375 C24.32335753 93.18808743 13.09146932 93.40325362 0.25 93.5 C-1.01392578 93.52900391 -2.27785156 93.55800781 -3.58007812 93.58789062 C-12.96080334 93.65097879 -20.62636858 92.31035865 -28.625 87.25 C-31.58641536 84.09752559 -32.37030091 81.47797959 -33 77.25 C-32.4159697 73.16178789 -30.70376936 70.73366078 -27.5625 68.1875 C-23.73843291 66.2338182 -19.7176924 65.19622154 -15.5625 64.1875 C-16.490625 63.589375 -17.41875 62.99125 -18.375 62.375 C-24.16162689 58.40378547 -24.16162689 58.40378547 -25.25 55.1015625 C-26.0903174 48.94623752 -26.0903174 48.94623752 -23.5625 45.3125 C-20.26966856 42.98007773 -17.3322307 41.59190948 -13.5625 40.1875 C-14.15417969 39.82398438 -14.74585937 39.46046875 -15.35546875 39.0859375 C-21.17351292 35.38440858 -26.29456763 31.9912971 -28.5625 25.1875 C-29.14660799 19.94721685 -29.55080257 14.86514889 -26.5625 10.3125 C-19.56985482 2.05206646 -10.37420776 -0.15244389 0 0 Z " fill="#1860A1" transform="translate(3149.5625,1983.8125)"/>
<path d="M0 0 C0.70672852 0.00427002 1.41345703 0.00854004 2.14160156 0.01293945 C9.68672532 0.25927887 13.41880595 2.72259032 18.5 7.9375 C22.20519889 13.78031363 22.41690449 19.28086846 22.43359375 25.984375 C22.45872765 27.82422227 22.48412601 29.66406595 22.50976562 31.50390625 C22.53862953 34.38980367 22.56266554 37.27563918 22.58129883 40.16162109 C22.60285284 42.9570104 22.64225116 45.75171889 22.68359375 48.546875 C22.68376747 49.84839508 22.68376747 49.84839508 22.6839447 51.1762085 C22.69381771 53.85443148 22.69381771 53.85443148 23.125 57.5 C26.04265 59.4451 27.75037285 59.95276317 31.125 60.5 C31.125 62.15 31.125 63.8 31.125 65.5 C18.255 65.5 5.385 65.5 -7.875 65.5 C-7.875 63.85 -7.875 62.2 -7.875 60.5 C-5.565 60.17 -3.255 59.84 -0.875 59.5 C-0.80074361 53.61013537 -0.74634732 47.72054434 -0.71020508 41.83032227 C-0.69513535 39.82734428 -0.6746759 37.8243992 -0.64868164 35.8215332 C-0.61221873 32.93953319 -0.59525539 30.05797016 -0.58203125 27.17578125 C-0.56654739 26.28288895 -0.55106354 25.38999664 -0.53511047 24.470047 C-0.53381513 19.66526933 -0.69308247 16.37719141 -3.875 12.5 C-7.04587015 10.91456493 -9.35490484 11.15934563 -12.875 11.5 C-16.09662627 13.08225262 -19.32071676 14.94571676 -21.875 17.5 C-22.00092074 20.34924301 -22.06367742 23.17291608 -22.078125 26.0234375 C-22.08667511 27.30911118 -22.08667511 27.30911118 -22.09539795 28.62075806 C-22.10486282 30.43824015 -22.11138781 32.25573952 -22.11523438 34.07324219 C-22.12493525 36.85642426 -22.15594214 39.63886661 -22.1875 42.421875 C-22.19403021 44.18489143 -22.19928061 45.94791316 -22.203125 47.7109375 C-22.2154718 48.54539398 -22.2278186 49.37985046 -22.24053955 50.23959351 C-22.36541066 54.52549141 -22.36541066 54.52549141 -20.48944092 58.20108032 C-18.64211321 59.68737213 -17.19153416 60.10059756 -14.875 60.5 C-14.875 62.15 -14.875 63.8 -14.875 65.5 C-27.745 65.5 -40.615 65.5 -53.875 65.5 C-53.875 63.85 -53.875 62.2 -53.875 60.5 C-53.30910156 60.37882812 -52.74320313 60.25765625 -52.16015625 60.1328125 C-51.05994141 59.88144531 -51.05994141 59.88144531 -49.9375 59.625 C-49.20660156 59.46257812 -48.47570313 59.30015625 -47.72265625 59.1328125 C-45.66799706 58.67038477 -45.66799706 58.67038477 -44.875 56.5 C-44.76600233 55.13278834 -44.71606191 53.76059076 -44.69799805 52.38916016 C-44.68516281 51.54132965 -44.67232758 50.69349915 -44.65910339 49.81997681 C-44.65171646 48.90227509 -44.64432953 47.98457336 -44.63671875 47.0390625 C-44.628647 46.09694916 -44.62057526 45.15483582 -44.61225891 44.18417358 C-44.5984158 42.18855634 -44.58769466 40.1929154 -44.57983398 38.19726562 C-44.56260763 35.14407604 -44.5187222 32.09196542 -44.47460938 29.0390625 C-44.46448374 27.10157047 -44.45596723 25.16406923 -44.44921875 23.2265625 C-44.42295662 21.85608261 -44.42295662 21.85608261 -44.39616394 20.45791626 C-44.37057454 15.36991871 -44.37057454 15.36991871 -46.69848633 10.97021484 C-49.31329907 9.20393303 -51.84105347 8.32743996 -54.875 7.5 C-54.875 5.85 -54.875 4.2 -54.875 2.5 C-44.187837 1.70414744 -33.59100323 1.37174996 -22.875 1.5 C-22.38 5.955 -22.38 5.955 -21.875 10.5 C-21.36710937 10.02949219 -20.85921875 9.55898437 -20.3359375 9.07421875 C-19.64757813 8.45160156 -18.95921875 7.82898437 -18.25 7.1875 C-17.24066406 6.26517578 -17.24066406 6.26517578 -16.2109375 5.32421875 C-11.04090133 1.28674903 -6.50363225 -0.05924984 0 0 Z " fill="#175FA1" transform="translate(3003.875,1983.5)"/>
<path d="M0 0 C0.97380615 -0.00636475 1.9476123 -0.01272949 2.95092773 -0.01928711 C10.44318818 0.11249111 17.28143767 0.99607895 23.1875 5.875 C27.97180154 11.78501954 28.7529293 15.61768311 28.75390625 23.0703125 C28.76711411 23.98835663 28.78032196 24.90640076 28.79393005 25.8522644 C28.8347363 28.77654092 28.85647835 31.70050358 28.875 34.625 C28.89878485 37.55654262 28.92687687 40.4877896 28.96678162 43.41915894 C28.99114363 45.24093311 29.00599812 47.06286438 29.01039124 48.88479614 C29.02057785 49.70930267 29.03076447 50.5338092 29.04125977 51.38330078 C29.04767235 52.46987473 29.04767235 52.46987473 29.05421448 53.57839966 C29.21330187 55.82669496 29.21330187 55.82669496 31.3125 58.5 C33.27611864 59.07748803 33.27611864 59.07748803 35.4375 59.1875 C36.71625 59.290625 37.995 59.39375 39.3125 59.5 C39.3125 61.15 39.3125 62.8 39.3125 64.5 C31.52350166 67.66840611 22.8833798 69.63029091 14.73828125 66.515625 C9.65531861 63.5589286 9.65531861 63.5589286 8.609375 60.328125 C8.51140625 59.72484375 8.4134375 59.1215625 8.3125 58.5 C7.66023438 58.98210937 7.00796875 59.46421875 6.3359375 59.9609375 C5.46195313 60.59257813 4.58796875 61.22421875 3.6875 61.875 C2.82898437 62.50148438 1.97046875 63.12796875 1.0859375 63.7734375 C-5.74228151 68.02424427 -12.83139744 68.44848067 -20.6875 67.5 C-25.28695739 65.70735434 -29.27709044 62.89545272 -31.6875 58.5 C-33.60042462 53.63073733 -33.27542127 48.2291802 -31.625 43.375 C-25.90426256 34.8861638 -18.35403913 32.56080329 -8.9375 29.625 C-7.70644531 29.2228125 -6.47539062 28.820625 -5.20703125 28.40625 C3.81816008 25.5 3.81816008 25.5 7.3125 25.5 C7.38070757 16.40610179 7.38070757 16.40610179 4.25 8.125 C0.20404458 5.88681189 -2.10292323 5.97390103 -6.6875 6.5 C-7.3475 7.16 -8.0075 7.82 -8.6875 8.5 C-8.3575 9.49 -8.0275 10.48 -7.6875 11.5 C-7.11196043 18.75179856 -7.11196043 18.75179856 -9.5625 21.9375 C-14.01050292 25.20809039 -18.29896978 25.13543988 -23.6875 24.5 C-26.62173195 22.70353146 -28.15955355 21.5558929 -29.6875 18.5 C-30.16885953 15.5430772 -30.16630465 13.42500984 -28.76953125 10.7265625 C-21.58349353 1.07493413 -11.16385776 0.06303252 0 0 Z " fill="#185FA1" transform="translate(3074.6875,1983.5)"/>
<path d="M0 0 C3.83413968 3.74062408 6.22455043 7.76460478 6.30297852 13.17016602 C6.32794151 14.38646446 6.32794151 14.38646446 6.35340881 15.62733459 C6.36182297 16.49410324 6.37023712 17.36087189 6.37890625 18.25390625 C6.39590073 19.15116928 6.4128952 20.04843231 6.43040466 20.97288513 C6.48347322 23.83601881 6.52380268 26.69913885 6.5625 29.5625 C6.60645769 32.42935801 6.65318196 35.29610512 6.70530701 38.16282654 C6.73720771 39.94567019 6.7641153 41.7286116 6.78553772 43.51161194 C6.79902756 44.31932541 6.8125174 45.12703888 6.82641602 45.95922852 C6.83592789 46.66886246 6.84543976 47.3784964 6.85523987 48.1096344 C6.94031953 50.22573955 6.94031953 50.22573955 8 53 C10.10584438 53.80563638 10.10584438 53.80563638 12.5625 54.1875 C13.38878906 54.34605469 14.21507813 54.50460937 15.06640625 54.66796875 C15.70449219 54.77753906 16.34257812 54.88710937 17 55 C17 56.65 17 58.3 17 60 C9.32107418 63.12363084 0.83716826 64.94905447 -7.28125 62.23828125 C-10.71340966 60.3985855 -12.78516988 58.11910987 -15 55 C-15.58007812 55.40992188 -16.16015625 55.81984375 -16.7578125 56.2421875 C-17.53898437 56.78101563 -18.32015625 57.31984375 -19.125 57.875 C-19.89070313 58.40867187 -20.65640625 58.94234375 -21.4453125 59.4921875 C-28.27004575 63.52024107 -35.25477126 63.89840871 -43 63 C-47.93142649 61.33030442 -50.96061845 58.64140871 -53.5 54.125 C-55.40161396 49.59168815 -55.92678536 45.71787617 -54.3046875 40.9609375 C-51.57772471 34.84245796 -48.11839621 31.30500278 -41.95703125 28.7265625 C-38.32809613 27.39742977 -34.68055967 26.17839125 -31 25 C-29.78054687 24.60296875 -28.56109375 24.2059375 -27.3046875 23.796875 C-18.50044014 21 -18.50044014 21 -15 21 C-15.14139481 18.74971671 -15.28828003 16.49977794 -15.4375 14.25 C-15.51871094 12.99703125 -15.59992187 11.7440625 -15.68359375 10.453125 C-15.96582832 6.63230661 -15.96582832 6.63230661 -17 3 C-19.82716095 2.05761302 -21.63176123 1.86534353 -24.5625 1.875 C-25.74005859 1.87113281 -25.74005859 1.87113281 -26.94140625 1.8671875 C-29.06438977 1.87023634 -29.06438977 1.87023634 -31 3 C-30.7525 3.99 -30.7525 3.99 -30.5 5 C-29.84768778 8.91387335 -29.62069201 12.01726607 -30 16 C-31.8125 18.5 -31.8125 18.5 -35 20 C-40.1210763 20.73706645 -44.43909731 20.70393651 -49.1875 18.5625 C-51.49581011 15.29902708 -51.66635471 13.11018855 -51.40234375 9.17578125 C-50.75737692 5.6879509 -49.7037688 4.31751611 -47 2 C-34.14182344 -5.63250953 -13.30864185 -8.15946494 0 0 Z " fill="#1860A1" transform="translate(2928,1988)"/>
<path d="M0 0 C2.68821523 2.42239491 4.10798739 4.56035231 5.76171875 7.76953125 C6.27347656 8.71957031 6.78523438 9.66960937 7.3125 10.6484375 C8.44921875 14.20703125 8.44921875 14.20703125 8.44921875 25.20703125 C-5.74078125 25.20703125 -19.93078125 25.20703125 -34.55078125 25.20703125 C-33.1238746 38.80460655 -33.1238746 38.80460655 -25.48828125 48.64453125 C-19.82044936 51.65933545 -14.37645822 52.30636371 -8.171875 50.5234375 C-4.12971237 48.87511061 -1.21469633 47.10277766 1.76171875 43.89453125 C2.64859375 43.00765625 3.53546875 42.12078125 4.44921875 41.20703125 C6.5546875 41.3515625 6.5546875 41.3515625 8.44921875 42.20703125 C8.77921875 43.19703125 9.10921875 44.18703125 9.44921875 45.20703125 C4.59529858 52.83918205 -2.78614338 58.38854348 -11.484375 60.69921875 C-23.33408911 62.66159179 -35.10393282 62.27517414 -45.265625 55.359375 C-52.36238685 49.61735477 -56.58129145 43.24523289 -57.84033203 34.10498047 C-58.82923917 23.74510821 -57.96423179 14.79764496 -51.55078125 6.20703125 C-38.75012959 -7.8257687 -15.90690257 -11.18111528 0 0 Z " fill="#175FA1" transform="translate(3253.55078125,1989.79296875)"/>
<path d="M0 0 C2.72675495 2.72675495 2.95055438 5.65484171 3.6875 9.3125 C7.84639112 28.93829081 12.4475424 48.57835299 18.12890625 67.82421875 C18.49886719 69.07847656 18.86882813 70.33273437 19.25 71.625 C19.58515625 72.73101563 19.9203125 73.83703125 20.265625 74.9765625 C21 78 21 78 21 83 C7.8 83 -5.4 83 -19 83 C-18.26784578 77.87492044 -17.38421302 72.95430871 -16.1875 67.9375 C-16.03474609 67.27556641 -15.88199219 66.61363281 -15.72460938 65.93164062 C-14.65804153 61.41664395 -13.42093006 56.96906319 -12.12109375 52.515625 C-9.97446793 45.07015705 -8.14775046 37.56740391 -6.39013672 30.02172852 C-5.87280397 27.80308204 -5.34886314 25.58606819 -4.82421875 23.36914062 C-3.00059552 15.61534325 -1.30471276 7.86105295 0 0 Z " fill="#134B7E" transform="translate(3605,1265)"/>
<path d="M0 0 C1.47536324 2.75168728 2.44528049 5.31397159 3.17333984 8.34692383 C3.38050629 9.19914017 3.58767273 10.05135651 3.80111694 10.92939758 C4.01885773 11.84601669 4.23659851 12.7626358 4.4609375 13.70703125 C4.6927774 14.66461838 4.92461731 15.62220551 5.16348267 16.60881042 C5.90523106 19.67562422 6.6404574 22.74395311 7.375 25.8125 C8.33868184 29.81960716 9.30506122 33.82605606 10.2734375 37.83203125 C10.50788574 38.80215652 10.74233398 39.7722818 10.98388672 40.77180481 C13.78123395 52.29460561 16.85945343 63.71594662 20.265625 75.07421875 C21 78 21 78 21 82 C7.8 82 -5.4 82 -19 82 C-19 77.0989266 -18.72251476 74.2878764 -17.4375 69.75 C-17.06632347 68.40627286 -16.69523671 67.06252093 -16.32421875 65.71875 C-15.88316424 64.14573467 -15.44173104 62.57282548 -15 61 C-9.34870269 40.80150301 -4.55577917 20.46799336 0 0 Z " fill="#134A7E" transform="translate(3179,1266)"/>
<path d="M0 0 C1.76480573 0.01193332 3.52962839 0.05601981 5.29296875 0.12890625 C6.17017578 0.13083984 7.04738281 0.13277344 7.95117188 0.13476562 C14.28284649 0.26263041 19.81542892 1.02636642 24.48046875 5.69140625 C25.11088695 9.8587162 24.88978448 13.64537716 23.35546875 17.56640625 C20.14467877 21.20530156 16.66437908 22.53664673 11.89453125 23.16015625 C4.29752984 23.22281193 -1.84318893 23.23339727 -7.51953125 17.69140625 C-8.65510363 15.42026149 -8.75037443 13.96847006 -8.83203125 11.44140625 C-8.86941406 10.69375 -8.90679688 9.94609375 -8.9453125 9.17578125 C-7.97817251 3.53265252 -5.77806144 0.39616346 0 0 Z " fill="#F9FBFC" transform="translate(3146.51953125,2049.30859375)"/>
<path d="M0 0 C2.88347835 0.81289549 4.40316997 2.38528054 6.20410156 4.73364258 C8.06803989 8.25517415 7.84383221 11.78536448 7.703125 15.68359375 C7.70699219 16.86791992 7.70699219 16.86791992 7.7109375 18.07617188 C7.63325071 22.71018888 7.20112906 25.88065944 4.203125 29.62109375 C0.71188483 31.9485872 -0.68909751 32.12408691 -4.796875 31.62109375 C-8.16613215 29.09415089 -9.51611618 26.57283677 -10.796875 22.62109375 C-11.1328125 19.0625 -11.1328125 19.0625 -11.171875 15.18359375 C-11.20023438 13.90613281 -11.22859375 12.62867188 -11.2578125 11.3125 C-10.3062019 3.69155073 -7.19597376 0.64544039 0 0 Z " fill="#FBFCFD" transform="translate(3152.796875,1988.37890625)"/>
<path d="M0 0 C0.11632513 3.41637953 0.18728897 6.83224897 0.25 10.25 C0.30027344 11.70212891 0.30027344 11.70212891 0.3515625 13.18359375 C0.45002225 20.32192593 0.45002225 20.32192593 -1.734375 23.61328125 C-5.38034967 25.84486919 -8.76985436 26.20995208 -13 26 C-16.32004159 24.3399792 -16.81746738 23.54759787 -18 20 C-18.37373979 15.44037454 -18.45422154 12.96522078 -16.5 8.8125 C-12.22448772 4.00254869 -6.62921903 0 0 0 Z " fill="#F9FBFC" transform="translate(3082,2015)"/>
<path d="M0 0 C3.59495644 3.36050276 5.66387951 6.07023288 6 11 C6 14.3 6 17.6 6 21 C-0.6 21 -7.2 21 -14 21 C-14.36259484 13.74810322 -14.49020788 7.99194965 -10 2 C-6.23500419 -0.5099972 -4.45706394 -0.61476744 0 0 Z " fill="#F4F7FA" transform="translate(3233,1989)"/>
<path d="M0 0 C0 7.26 0 14.52 0 22 C-8.42372881 26.81355932 -8.42372881 26.81355932 -13 26 C-15.375 24.6875 -15.375 24.6875 -17 22 C-17.78706922 16.85192476 -17.59494762 12.46032598 -15.625 7.625 C-11.48152571 3.48152571 -5.98826571 0 0 0 Z " fill="#FAFCFD" transform="translate(2913,2015)"/>
<path d="M0 0 C0 0.99 0 1.98 0 3 C-1.38782485 3.8466034 -2.78569397 4.67675339 -4.1875 5.5 C-4.96480469 5.9640625 -5.74210937 6.428125 -6.54296875 6.90625 C-9.24103386 8.10729647 -11.0806982 8.20741043 -14 8 C-14.33 7.01 -14.66 6.02 -15 5 C-14.34 5 -13.68 5 -13 5 C-13 4.34 -13 3.68 -13 3 C-8.70614007 -0.4887612 -5.28129105 -0.26854022 0 0 Z " fill="#215789" transform="translate(475,1686)"/>
<path d="M0 0 C0 1.65 0 3.3 0 5 C-2.64 5.33 -5.28 5.66 -8 6 C-8.66 5.01 -9.32 4.02 -10 3 C-6.68152292 -0.06320961 -4.44849969 -0.3033068 0 0 Z " fill="#215889" transform="translate(480,1678)"/>
<path d="M0 0 C0.33 0 0.66 0 1 0 C1 2.64 1 5.28 1 8 C0.01 8 -0.98 8 -2 8 C-1.125 2.25 -1.125 2.25 0 0 Z " fill="#2F5C84" transform="translate(4253,1288)"/>
</svg>
