<?xml version="1.0" encoding="UTF-8"?>
<svg version="1.1" xmlns="http://www.w3.org/2000/svg" width="6000" height="3375">
<path d="M0 0 C1980 0 3960 0 6000 0 C6000 1113.75 6000 2227.5 6000 3375 C4020 3375 2040 3375 0 3375 C0 2261.25 0 1147.5 0 0 Z " fill="#164670" transform="translate(0,0)"/>
<path d="M0 0 C1316.7 0 2633.4 0 3990 0 C3990 477.51 3990 955.02 3990 1447 C2673.3 1447 1356.6 1447 0 1447 C0 969.49 0 491.98 0 0 Z " fill="#145C9F" transform="translate(1005,964)"/>
<path d="M0 0 C0.83824059 0.00002625 1.67648118 0.00005251 2.54012301 0.00007956 C3.50632121 -0.00231672 4.47251941 -0.00471301 5.46799635 -0.00718191 C7.08400619 -0.00349147 7.08400619 -0.00349147 8.73266269 0.00027352 C10.44138268 -0.00172036 10.44138268 -0.00172036 12.18462226 -0.00375452 C15.38225535 -0.0064546 18.57985062 -0.00461026 21.77748164 -0.00095154 C25.26025143 0.00193829 28.74301704 -0.00095442 32.22578669 -0.0031268 C38.37418196 -0.00614985 44.52256817 -0.0054054 50.67096326 -0.00229056 C59.90221576 0.00236501 69.1334614 0.00126014 78.36471449 -0.0009896 C94.16498883 -0.00467025 109.9652597 -0.00356221 125.76553391 0.0000615 C141.87850091 0.00373647 157.99146593 0.00522067 174.10443333 0.00404579 C175.63347745 0.00393631 175.63347745 0.00393631 177.19341136 0.00382462 C182.39760841 0.00344215 187.60180546 0.00302453 192.80600251 0.00259493 C230.88180861 -0.00047274 268.95761326 0.00140417 307.03341917 0.00573921 C345.64568398 0.01011912 384.25794801 0.01232168 422.87021307 0.011837 C424.69437121 0.01181557 424.69437121 0.01181557 426.55538102 0.0117937 C437.69960643 0.01166195 448.84383183 0.01150584 459.98805724 0.0113207 C487.93775801 0.0108575 515.88745878 0.01072509 543.83715955 0.01081192 C545.75864963 0.01081754 545.75864963 0.01081754 547.7189577 0.01082328 C610.92317282 0.01103764 674.12738765 0.01500733 737.33160261 0.01921463 C759.59085047 0.02069377 781.85009833 0.0221551 804.10934619 0.02355075 C805.49299427 0.02363751 806.87664234 0.02372428 808.30221915 0.02381368 C872.36051467 0.02780887 936.41881016 0.02924226 1000.47710579 0.03001672 C1004.66502761 0.03006748 1008.85294943 0.03011944 1013.04087125 0.03017172 C1038.29360843 0.03048581 1063.54634561 0.03077318 1088.79908279 0.03102969 C1151.58132223 0.03166859 1214.36356167 0.03262809 1277.14580111 0.03380489 C1278.57517388 0.03383152 1280.00454666 0.03385816 1281.47723377 0.0338856 C1374.07696453 0.03561359 1466.67669519 0.0386616 1559.27642588 0.0428133 C1561.49456978 0.04291273 1561.49456978 0.04291273 1563.75752467 0.04301417 C1608.77350903 0.04503492 1653.78949338 0.04715328 1698.80547774 0.04929074 C1748.62151775 0.05165569 1798.43755776 0.05400398 1848.25359777 0.05628013 C1849.75155736 0.05634863 1851.24951694 0.05641713 1852.79286924 0.05648771 C1995.03061876 0.06298654 2137.26836832 0.06679827 2279.50611796 0.06991392 C2285.52984465 0.07004606 2291.55357134 0.07017898 2297.57729804 0.07031194 C2353.00838838 0.07153533 2408.43947872 0.07272716 2463.87056906 0.07387936 C2465.34451506 0.07391 2466.81846105 0.07394064 2468.33707208 0.0739722 C2472.79978387 0.07406497 2477.26249566 0.07415772 2481.72520745 0.07425047 C2602.29172994 0.0767564 2722.85825243 0.07953761 2843.42477491 0.0824971 C2847.67885095 0.08260146 2851.93292698 0.0827056 2856.18700302 0.08280968 C2994.4345787 0.08619286 3132.68215436 0.09006355 3376.81911156 0.09914748 C3380.58435691 0.09929238 3384.34960226 0.09943702 3388.11484762 0.09958155 C3389.96359156 0.09965254 3389.96359156 0.09965254 3391.84968386 0.09972496 C3394.09283741 0.09981109 3396.33599095 0.09989718 3398.57914449 0.09998322 C3595.42241118 0.10754441 3792.26567781 0.11641794 3989.10894445 0.12494468 C3989.10894445 317.91494468 3989.10894445 635.70494468 3989.10894445 963.12494468 C2671.74894445 963.12494468 1354.38894445 963.12494468 -2.89105555 963.12494468 C-2.89105555 0.19101608 -2.89105555 0.19101608 0 0 Z " fill="#1E5485" transform="translate(1006.8910555454349,2411.875055315424)"/>
<path d="M0 0 C635 0 635 0 831 1 C835.62 0.67 840.24 0.34 845 0 C848.35595275 -0.00377162 851.66390849 0.02891757 855.01171875 0.15625 C855.87263626 0.18223267 856.73355377 0.20821533 857.62055969 0.23498535 C860.3098041 0.31662086 862.99861471 0.40733837 865.6875 0.5 C868.41566506 0.59200663 871.14381921 0.68184551 873.87226868 0.76501465 C875.55520881 0.81643469 877.23800361 0.87293197 878.920578 0.93518066 C882.24198571 1.03773138 884.82027178 1.05990941 888 0 C890.8878457 0.09079434 893.74443625 0.23964655 896.625 0.4375 C903.25352793 0.83934494 909.85866204 1.11412682 916.5 1.125 C917.56661865 1.13164673 917.56661865 1.13164673 918.65478516 1.13842773 C921.71555224 1.12984056 924.0725044 0.97583187 927 0 C929.00664306 -0.0940365 931.01630177 -0.12793376 933.02514648 -0.12939453 C934.26751572 -0.13254669 935.50988495 -0.13569885 936.78990173 -0.13894653 C938.15029943 -0.13715487 939.5106968 -0.13510345 940.87109375 -0.1328125 C942.27295448 -0.13348675 943.67481509 -0.13445779 945.07667542 -0.13571167 C948.02142444 -0.13718729 950.96614317 -0.13504136 953.91088867 -0.13037109 C957.65267369 -0.12472114 961.39438622 -0.12792329 965.13616848 -0.13394356 C968.03699773 -0.13759347 970.93781041 -0.13638966 973.83864021 -0.13381577 C975.21589225 -0.1331562 976.59314586 -0.1339403 977.97039604 -0.13629532 C979.91703124 -0.13888982 981.8636718 -0.13422329 983.81030273 -0.12939453 C984.91155991 -0.12859894 986.01281708 -0.12780334 987.14744568 -0.12698364 C992.44209148 0.04753263 997.72077779 0.56006482 1003 1 C1003 478.51 1003 956.02 1003 1448 C766.06 1448.33 529.12 1448.66 285 1449 C190.95 1449.33 96.9 1449.66 0 1450 C0 971.5 0 493 0 0 Z " fill="#184A77" transform="translate(0,963)"/>
<path d="M0 0 C1.2501847 0.00015598 2.50036941 0.00031196 3.7884385 0.00047267 C4.8340217 -0.00144447 4.8340217 -0.00144447 5.90072779 -0.00340034 C8.2708541 -0.00649871 10.64091561 -0.0023784 13.01103985 0.00162334 C14.72167141 0.0008847 16.43230282 -0.0002928 18.14293381 -0.00187286 C22.88646601 -0.00496203 27.62997703 -0.00175062 32.37350767 0.00240542 C37.50603214 0.00581683 42.63855429 0.00346981 47.77107918 0.00182265 C56.79024289 -0.00026269 65.80940002 0.00140482 74.82856297 0.00545603 C88.41415588 0.01153846 101.99974478 0.01182758 115.58533881 0.01099074 C138.34839514 0.00974634 161.11144799 0.01304284 183.87450325 0.0190956 C214.6533176 0.02726243 245.43212802 0.02919759 276.21094429 0.03006667 C350.24125901 0.03532407 424.27157289 0.04928508 498.30188667 0.06217116 C746.26594917 0.09310866 746.26594917 0.09310866 999.23938667 0.12467116 C999.23938667 478.29467116 999.23938667 956.46467116 999.23938667 1449.12467116 C945.48596268 1449.12467116 891.73282887 1449.12442586 837.97948372 1449.06120986 C835.99081694 1449.05893005 834.00215014 1449.05665876 832.01348334 1449.05439496 C828.89969588 1449.05084922 825.78590842 1449.04729854 822.67212099 1449.04372163 C811.66807771 1449.03108595 800.66403375 1449.01909153 789.65998976 1449.00709199 C769.37290463 1448.98495354 749.08582004 1448.96235739 728.79873573 1448.93947524 C708.79011478 1448.91690876 688.78149359 1448.89456117 668.77287209 1448.87248916 C666.88791528 1448.87040964 666.88791528 1448.87040964 664.96487854 1448.86828811 C658.57982183 1448.86124508 652.19476511 1448.85420581 645.80970838 1448.84716797 C600.89906033 1448.79765918 555.9884128 1448.74768497 511.07776558 1448.69742507 C500.2575955 1448.68531634 489.43742542 1448.67320928 478.61725533 1448.66110915 C477.94592424 1448.66035841 477.27459316 1448.65960766 476.58291871 1448.65883416 C445.20583948 1448.62374761 413.82875996 1448.58893124 382.45168036 1448.55418185 C380.40746532 1448.55191792 378.36325028 1448.54965388 376.31903524 1448.54738982 C362.76866293 1448.53238233 349.21829062 1448.51737944 335.6679183 1448.50237962 C308.07848016 1448.47183897 280.48904205 1448.44126919 252.89960396 1448.41068191 C251.63183423 1448.40927642 250.36406449 1448.40787093 249.0578775 1448.40642285 C164.78504668 1448.31299206 80.51221662 1448.21888656 -3.76061333 1448.12467116 C-3.76611123 1403.85326819 -3.77138321 1359.5818652 -3.77648247 1315.31046218 C-3.77658226 1314.44419681 -3.77668206 1313.57793145 -3.77678488 1312.68541562 C-3.78746879 1219.893434 -3.79669279 1127.10145238 -3.80295647 1034.30947036 C-3.80309592 1032.24911464 -3.80323537 1030.18875891 -3.80337482 1028.12840319 C-3.80629729 984.88426485 -3.80901403 941.6401265 -3.811493 898.39598814 C-3.81273843 876.67413605 -3.81402341 854.95228397 -3.81534577 833.23043188 C-3.81554502 829.95370214 -3.81574313 826.67697241 -3.81594121 823.40024267 C-3.81900243 772.92268382 -3.82291358 722.44512522 -3.82927788 671.96756667 C-3.82941478 670.88164322 -3.82955167 669.79571977 -3.82969272 668.67688955 C-3.83190519 651.16776347 -3.83418876 633.6586374 -3.83648177 616.14951133 C-3.84308248 565.73892542 -3.8491604 515.3283397 -3.85175312 464.9177534 C-3.85180665 463.88185094 -3.85186019 462.84594848 -3.85191535 461.77865504 C-3.85308091 439.04212861 -3.85397586 416.30560217 -3.85461431 393.56907571 C-3.85487594 384.42168791 -3.85517656 375.2743001 -3.85549057 366.1269123 C-3.855524 365.12574917 -3.85555742 364.12458604 -3.85559186 363.09308463 C-3.85668962 330.79601159 -3.86096515 298.49893993 -3.86689553 266.20186745 C-3.87285136 233.68746355 -3.87571504 201.17306099 -3.87423731 168.65865654 C-3.87403421 164.17266021 -3.87386684 159.68666389 -3.87372101 155.20066756 C-3.87369113 154.32123034 -3.87366125 153.44179311 -3.87363046 152.53570627 C-3.87324877 138.5709238 -3.87624336 124.60614413 -3.88062319 110.64136242 C-3.88485395 96.93311168 -3.88556396 83.22486461 -3.88244514 69.51661354 C-3.88072157 61.46458891 -3.88178249 53.41257586 -3.88683033 45.36055257 C-3.89026295 39.40587281 -3.88856481 33.45120214 -3.8847533 27.49652234 C-3.88403192 25.0853362 -3.88503071 22.67414885 -3.88784857 20.26296424 C-3.89140437 17.01764682 -3.88893441 13.77239134 -3.88481182 10.52707601 C-3.8873207 9.57564539 -3.88982958 8.62421477 -3.89241448 7.64395292 C-3.87183709 0.17485478 -3.87183709 0.17485478 0 0 Z " fill="#1A4D7A" transform="translate(5000.760613325983,962.8753288350999)"/>
<path d="M0 0 C1.44660007 -0.00372236 2.89319649 -0.00919763 4.33978419 -0.01624487 C8.30264052 -0.03051031 12.26509649 -0.02003544 16.22793701 -0.0053969 C20.55986131 0.0061395 24.89173457 -0.00569794 29.22365665 -0.01448435 C36.84096109 -0.02672713 44.45814839 -0.02410531 52.07545105 -0.01179497 C63.47876421 0.00655681 74.8819883 0.00178076 86.2853083 -0.0074934 C105.7200953 -0.02262511 125.15483733 -0.01878026 144.58962321 -0.00464308 C164.2864026 0.00961225 183.98315578 0.01516658 203.67993999 0.01007783 C204.92368797 0.0097621 206.16743596 0.00944637 207.44887328 0.00912108 C213.79069984 0.00747308 220.13252636 0.00568734 226.47435287 0.00385633 C272.38768573 -0.00908913 318.30099267 -0.00238701 364.21432185 0.01504457 C375.56698835 0.01934725 386.91965487 0.02361072 398.27232146 0.02765644 C398.97806122 0.02790829 399.68380098 0.02816015 400.4109268 0.02841964 C433.1112507 0.04001854 465.81157297 0.04202335 498.51189866 0.04172746 C500.65091709 0.04170929 502.78993552 0.04169649 504.92895395 0.04168555 C517.82752192 0.04161912 530.72608988 0.04148155 543.62465785 0.04125134 C575.69056808 0.04069036 607.75647822 0.04146939 639.82238841 0.04322946 C640.55237829 0.04326899 641.28236817 0.04330852 642.03447896 0.04334925 C689.31150349 0.04592668 736.58852504 0.05422298 783.8655479 0.06694543 C784.99768974 0.06724965 784.99768974 0.06724965 786.15270313 0.06756002 C810.66501836 0.07415291 835.17733349 0.08112579 859.68964861 0.08813349 C883.57635959 0.09496188 907.4630706 0.10165019 931.34978175 0.10785997 C932.11427011 0.10805878 932.87875848 0.1082576 933.66641315 0.10846244 C1006.26489089 0.12728953 1078.86336666 0.12955066 1151.46184646 0.12852211 C1155.30504484 0.12846836 1159.14824323 0.12841858 1162.99144161 0.12836857 C1167.59853896 0.12830835 1172.20563631 0.12824787 1176.81273366 0.12818605 C1192.87952815 0.12797049 1208.94632264 0.12777205 1225.01311713 0.12760779 C1227.30002696 0.12758387 1229.58693679 0.12755837 1231.87384661 0.12753253 C1278.36765004 0.12701648 1324.86145269 0.1290597 1371.35525584 0.13420236 C1372.0849769 0.13428295 1372.81469797 0.13436354 1373.56653179 0.13444658 C1407.04946226 0.13815625 1440.5323926 0.14269462 1474.01532288 0.14790198 C1476.16914273 0.14823687 1478.32296258 0.1485709 1480.47678243 0.14890469 C1484.7760343 0.14957117 1489.07528618 0.15023933 1493.37453805 0.15090822 C1494.43694521 0.15107346 1494.43694521 0.15107346 1495.52081515 0.15124203 C1502.65549351 0.15235224 1509.79017188 0.15346796 1516.92485024 0.15461179 C1548.91505093 0.15973959 1580.90525113 0.16381575 1612.89545226 0.16458118 C1614.32022746 0.16461655 1615.74500266 0.16465196 1617.16977786 0.16468742 C1622.85474469 0.16482689 1628.53971153 0.16495672 1634.22467837 0.16508239 C1686.9277131 0.16624874 1739.63073745 0.17376577 1792.33376911 0.19403978 C1797.38122472 0.19595502 1802.42868034 0.19784168 1807.47613597 0.19970644 C1808.71490092 0.2001675 1809.95366587 0.20062857 1811.22996915 0.20110361 C1830.87908826 0.20824388 1850.52820161 0.20870489 1870.17732165 0.20643477 C1889.47783556 0.20435124 1908.77833659 0.20939626 1928.07884653 0.22213503 C1939.4070257 0.22940207 1950.73517409 0.23118096 1962.06335407 0.22497902 C1969.57625346 0.22141037 1977.08912669 0.22502723 1984.60202077 0.23461457 C1988.86758519 0.23985477 1993.13308661 0.24193945 1997.39865038 0.23521685 C2001.26820288 0.22917719 2005.13763488 0.2323165 2009.00717691 0.24279771 C2010.39546176 0.24495261 2011.78375688 0.24376959 2013.17203456 0.23881596 C2032.77663463 0.17393482 2047.62707769 6.27095543 2062.00273585 19.68659532 C2077.82437413 36.07633551 2080.78001044 55.42196672 2080.70341945 77.14387071 C2080.70749217 79.09673928 2080.71283796 81.04960555 2080.71934962 83.00246751 C2080.73294479 88.27098867 2080.72775721 93.53933221 2080.71821237 98.8078562 C2080.71057622 104.34088105 2080.71767221 109.87389148 2080.72237086 115.40691698 C2080.72781649 124.69458797 2080.72066771 133.9821872 2080.70634913 143.26984727 C2080.69002015 153.98482453 2080.69531781 164.69963053 2080.71182835 175.41460365 C2080.72547153 184.64046951 2080.72734919 193.86628402 2080.71951234 203.09215671 C2080.714852 208.59096583 2080.71416578 214.08969462 2080.72412181 219.58849847 C2080.73283067 224.75885611 2080.7266983 229.9289943 2080.70943904 235.0993284 C2080.70549527 236.98905007 2080.70657176 238.87879043 2080.71322703 240.7685045 C2080.74517008 250.76524482 2080.4967217 259.89812805 2077.31523585 269.49909532 C2076.9388296 270.63604845 2076.56242335 271.77300157 2076.17461085 272.94440782 C2073.33141938 279.81211681 2069.84325705 285.61372819 2065.31523585 291.49909532 C2064.59336085 292.50972032 2063.87148585 293.52034532 2063.12773585 294.56159532 C2053.54658729 305.65555682 2038.63908092 313.03413016 2024.31523585 315.49909532 C2022.32702236 315.5877716 2020.33619725 315.62507575 2018.3460073 315.62565716 C2016.53421888 315.62982013 2016.53421888 315.62982013 2014.68582867 315.63406721 C2013.34527715 315.6320977 2012.00472576 315.63003741 2010.6641745 315.62789649 C2009.23229288 315.62926493 2007.80041162 315.63107109 2006.36853105 315.6332753 C2002.40937296 315.63808709 1998.4502376 315.63663666 1994.49107823 315.6342176 C1990.17696529 315.63267951 1985.86285745 315.63692865 1981.5487462 315.64044437 C1973.95036656 315.64582728 1966.35199311 315.64746026 1958.75361171 315.64669362 C1947.37836894 315.64556018 1936.0031334 315.65013298 1924.62789226 315.65582446 C1905.24378743 315.66534614 1885.85968405 315.67004529 1866.47557712 315.6721338 C1846.82220166 315.67426064 1827.16882844 315.67851648 1807.51545405 315.68537652 C1805.65580598 315.68602245 1805.65580598 315.68602245 1803.75858926 315.68668142 C1798.70947778 315.68843972 1793.6603663 315.69020936 1788.61125484 315.69199444 C1728.07534806 315.7133548 1667.5394415 315.72427094 1607.00353192 315.73315667 C1586.43285933 315.73617979 1565.86218686 315.73964038 1545.2915144 315.74343789 C1544.59135283 315.743567 1543.89119126 315.74369612 1543.16981268 315.74382914 C1536.79654041 315.74500462 1530.42326814 315.74618379 1524.04999587 315.74736641 C1452.03621803 315.76072142 1380.02243985 315.77311556 1233.30338401 315.78812544 C1226.45157666 315.7886499 1219.59976931 315.78918721 1212.74796196 315.7897239 C1210.45974529 315.78990311 1208.17152861 315.79008208 1205.88331193 315.790261 C1191.34678183 315.79139808 1176.81025173 315.79254414 1162.27372163 315.79370919 C1158.43848793 315.7940165 1154.60325423 315.79432244 1150.76802053 315.7946251 C1078.33571806 315.80034473 1005.90341909 315.80958678 933.47111964 315.8320421 C932.70866054 315.83227833 931.94620144 315.83251455 931.16063751 315.83275794 C906.57158493 315.84038579 881.98253249 315.84843463 857.39348006 315.85654321 C833.71679796 315.86435078 810.04011584 315.8720742 786.3634336 315.87943304 C785.23450175 315.87978417 785.23450175 315.87978417 784.08276321 315.8801424 C736.94722046 315.89477936 689.81167866 315.9045809 642.67613387 315.90930784 C641.94812217 315.90938143 641.22011046 315.90945503 640.4700378 315.90953085 C608.49725672 315.91275685 576.52447565 315.91492525 544.55169442 315.91591385 C531.68883193 315.91631467 518.82596945 315.91684806 505.96310697 315.91744528 C503.83037138 315.91754275 501.69763579 315.91763513 499.5649002 315.91772666 C466.94279243 315.91915534 434.32068916 315.92372484 401.69858408 315.93760264 C400.9950926 315.93790171 400.29160112 315.93820078 399.56679172 315.93850891 C388.25023948 315.94333746 376.93368736 315.94841937 365.61713526 315.95353491 C319.24044734 315.97449174 272.86378122 315.98311588 226.48708734 315.97341005 C220.17820136 315.97209156 213.86931536 315.97091353 207.56042933 315.96981943 C206.32369134 315.96959958 205.08695334 315.96937973 203.81273844 315.96915322 C184.21530912 315.96603664 164.61791083 315.97637416 145.02048871 315.99229498 C125.75869162 316.00766493 106.49693752 316.00881231 87.23513895 315.99474674 C75.9372391 315.98692577 64.63947042 315.99008018 53.34158362 316.0093839 C45.83974929 316.02111073 38.3380109 316.01834732 30.8361818 316.00376926 C26.58256061 315.99591002 22.32919624 315.99421798 18.07559272 316.0103883 C14.20858951 316.02497159 10.3420558 316.02081422 6.47507335 316.00233664 C4.45109675 315.99730347 2.42709928 316.01166267 0.40317524 316.02709262 C-19.22884731 315.87579184 -35.45134403 309.15461718 -49.68476415 295.49909532 C-55.23501711 289.40713767 -59.27943262 282.86009237 -62.62226415 275.37409532 C-62.9048911 274.7417296 -63.18751805 274.10936388 -63.47870946 273.45783556 C-68.26141605 262.01601693 -67.98278802 250.43770413 -67.97529149 238.25837266 C-67.98128325 236.31243704 -67.98809028 234.36650377 -67.99564672 232.42057359 C-68.01325014 227.15578373 -68.01799977 221.89105897 -68.01927829 216.62624252 C-68.02070391 213.32980084 -68.02498133 210.03337549 -68.03027272 206.73693788 C-68.04875587 195.21607741 -68.05694568 183.6952631 -68.05536962 172.17438829 C-68.05416941 161.46918396 -68.07525244 150.76418164 -68.10685694 140.05902839 C-68.13309271 130.84080901 -68.14373382 121.6226553 -68.1424588 112.40439892 C-68.14195121 106.91096298 -68.1475209 101.41770662 -68.1688149 95.92430818 C-68.1883201 90.75148463 -68.1882385 85.57900967 -68.17378163 80.40617311 C-68.17170743 78.51973776 -68.17631039 76.63327988 -68.18850255 74.7468828 C-68.31774302 53.3450759 -64.08171969 35.50954813 -48.82538915 19.60456407 C-47.76577977 18.56235704 -47.76577977 18.56235704 -46.68476415 17.49909532 C-46.1227329 16.93835313 -45.56070165 16.37761095 -44.98163915 15.79987657 C-32.23161124 4.00919542 -17.02264412 -0.12721873 0 0 Z " fill="#FEFEFE" transform="translate(1993.6847641468048,1847.5009046792984)"/>
<path d="M0 0 C1316.7 0 2633.4 0 3990 0 C3990 477.51 3990 955.02 3990 1447 C2673.3 1447 1356.6 1447 0 1447 C0 969.49 0 491.98 0 0 Z M12 12 C12 481.59 12 951.18 12 1435 C1320.78 1435 2629.56 1435 3978 1435 C3978 965.41 3978 495.82 3978 12 C2669.22 12 1360.44 12 12 12 Z " fill="#FEFEFE" transform="translate(1005,964)"/>
<path d="M0 0 C136.53720588 0 136.53720588 0 169.75 31.4375 C177.9461406 40.00353768 183.08238807 50.34564818 188 61 C188.41378906 61.87914062 188.82757812 62.75828125 189.25390625 63.6640625 C201.97189673 94.28698861 198.75902394 135.19212939 186.921875 165.53125 C182.72507357 175.61391462 177.07092499 184.67202168 170 193 C169.12988281 194.08667969 169.12988281 194.08667969 168.2421875 195.1953125 C158.64957999 206.7144688 146.57209148 214.04951663 133 220 C132.23437744 220.33652588 131.46875488 220.67305176 130.67993164 221.01977539 C124.50864712 223.61631604 118.3494748 225.284464 111.8125 226.6875 C110.86697266 226.89955078 109.92144531 227.11160156 108.94726562 227.33007812 C73.47579189 235.16593678 36.32665867 230 0 230 C0 154.1 0 78.2 0 0 Z " fill="#FEFEFE" transform="translate(2779,1246)"/>
<path d="M0 0 C27.06 0 54.12 0 82 0 C92.3307959 18.36585938 92.3307959 18.36585938 95.46484375 24.55078125 C95.82456772 25.25359726 96.18429169 25.95641327 96.55491638 26.68052673 C97.30455912 28.14581635 98.05284462 29.61180115 98.79974365 31.07849121 C100.75699981 34.9216053 102.7250019 38.7592174 104.69140625 42.59765625 C105.07200195 43.34127411 105.45259766 44.08489197 105.84472656 44.8510437 C109.39234279 51.77825473 113.0085185 58.66781239 116.6484375 65.546875 C119.45567338 70.85238184 122.22668737 76.17670536 125 81.5 C128.65204985 88.50776856 132.31463427 95.5096934 136 102.5 C139.68536649 109.49030806 143.34766033 116.49238149 147 123.5 C150.84752025 130.87848412 154.69658235 138.25613461 158.5625 145.625 C158.96791016 146.40037109 159.37332031 147.17574219 159.79101562 147.97460938 C160.17064453 148.69712891 160.55027344 149.41964844 160.94140625 150.1640625 C161.26826416 150.78748535 161.59512207 151.4109082 161.93188477 152.05322266 C163.22413599 154.40851665 164.61347326 156.69919432 166 159 C165.92894547 157.85807693 165.85789093 156.71615387 165.78468323 155.53962708 C164.87668636 139.69725063 164.8675979 123.86657735 164.89860606 108.00451255 C164.90495818 104.19293642 164.90545259 100.38135905 164.90663147 96.56977844 C164.90971047 89.38811215 164.91787641 82.2064615 164.92798096 75.02480203 C164.93925018 66.83342108 164.94467948 58.64203928 164.94967639 50.45065248 C164.96006287 33.63375777 164.97836436 16.81688457 165 0 C183.15 0 201.3 0 220 0 C220 75.9 220 151.8 220 230 C192.94 230 165.88 230 138 230 C126.53860294 208.22334559 126.53860294 208.22334559 121.25 198 C120.04689136 195.67707486 118.84376587 193.35415845 117.640625 191.03125 C117.03798828 189.86722656 116.43535156 188.70320313 115.81445312 187.50390625 C112.87871888 181.83468424 109.93921157 176.16741973 107 170.5 C105.83331432 168.25000986 104.66664767 166.00000985 103.5 163.75 C102.9225 162.63625 102.345 161.5225 101.75 160.375 C82.5 123.25 82.5 123.25 80.74755859 119.87011719 C79.58922025 117.63629454 78.43069381 115.40256942 77.27197266 113.16894531 C74.55074942 107.92278882 71.83137586 102.67569962 69.11883545 97.42504883 C67.84495224 94.9594891 66.56997777 92.49449445 65.29492188 90.02954102 C64.40128211 88.30084137 63.5092109 86.57133114 62.6171875 84.84179688 C59.85021736 79.49384398 57.04339693 74.19604354 54 69 C54.14216343 73.47929071 54.28944885 77.95840033 54.4375 82.4375 C54.47681641 83.67822266 54.51613281 84.91894531 54.55664062 86.19726562 C54.77006305 92.58352124 55.06037089 98.93681635 55.51367188 105.31054688 C56.28688355 117.53944718 56.12398991 129.78772923 56.09765625 142.03515625 C56.09578723 144.61160759 56.09436562 147.18805929 56.09336853 149.76451111 C56.08996657 155.80591878 56.08212033 161.84730503 56.07201904 167.88870472 C56.06075413 174.77892897 56.05532158 181.66915422 56.05032361 188.55938542 C56.03993407 202.70626683 56.02240008 216.85313275 56 231 C48.18547248 231.02526563 40.37095542 231.04283105 32.55639648 231.05493164 C29.89558519 231.05997383 27.23477668 231.06680736 24.57397461 231.07543945 C20.75894484 231.08751009 16.94395156 231.09322929 13.12890625 231.09765625 C11.33206139 231.10539818 11.33206139 231.10539818 9.49891663 231.11329651 C7.84731789 231.11340981 7.84731789 231.11340981 6.16235352 231.11352539 C4.7000808 231.11685631 4.7000808 231.11685631 3.20826721 231.12025452 C1 231 1 231 0 230 C-0.09798302 227.04171032 -0.12991615 224.10675888 -0.12025452 221.14805603 C-0.12110894 220.20798456 -0.12196337 219.26791309 -0.12284368 218.29935461 C-0.12450136 215.12394863 -0.11897243 211.94859454 -0.11352539 208.77319336 C-0.11324355 206.50706483 -0.11340118 204.24093621 -0.1139679 201.97480774 C-0.11425601 195.80150218 -0.10835703 189.62821587 -0.10139394 183.45491481 C-0.09516272 177.01133111 -0.09455679 170.56774702 -0.09336853 164.12416077 C-0.09060882 153.30208969 -0.08435327 142.48002655 -0.07543945 131.65795898 C-0.06626607 120.50919633 -0.05918488 109.36043559 -0.05493164 98.21166992 C-0.05466892 97.52492366 -0.05440619 96.8381774 -0.05413551 96.13062065 C-0.05283051 92.68555491 -0.05156679 89.24048915 -0.05032361 85.79542339 C-0.0399501 57.19694317 -0.02151132 28.59847417 0 0 Z " fill="#FDFDFE" transform="translate(2509,1246)"/>
<path d="M0 0 C0.77251602 0.00359528 1.54503204 0.00719055 2.34095764 0.01089478 C3.55549622 0.01067574 3.55549622 0.01067574 4.79457092 0.01045227 C7.48380671 0.01115163 10.17297412 0.01894507 12.86219788 0.02676392 C14.72164878 0.02862802 16.58110018 0.03005196 18.44055176 0.03105164 C23.34458258 0.03487746 28.24858398 0.04470829 33.15260315 0.05575562 C38.15280255 0.06596836 43.15300669 0.07054896 48.1532135 0.07559204 C57.97158583 0.0863305 67.78993629 0.10340769 77.60829163 0.12442017 C80.40993916 6.92068774 82.91740726 13.76732758 85.22547913 20.74551392 C85.56394867 21.76138077 85.90241821 22.77724762 86.25114441 23.82389832 C86.9702506 25.98422694 87.68790513 28.14503925 88.40419006 30.30630493 C89.44292361 33.44013115 90.48606925 36.57245571 91.53016663 39.70449829 C96.13273456 53.53616857 100.65355697 67.3937225 105.15907288 81.25723267 C110.28742162 97.03688902 115.45581812 112.80289819 120.65907288 128.55801392 C120.99754242 129.58298666 121.33601196 130.6079594 121.68473816 131.66399193 C124.44574334 140.02407162 127.20878727 148.38347715 129.97236633 156.7427063 C144.58155183 200.93314512 144.58155183 200.93314512 150.08876038 217.97207642 C150.45794083 219.10858139 150.82712128 220.24508636 151.20748901 221.41603088 C151.53206589 222.42589554 151.85664276 223.43576019 152.1910553 224.47622681 C152.46825912 225.33607681 152.74546295 226.19592682 153.03106689 227.08183289 C153.60829163 229.12442017 153.60829163 229.12442017 153.60829163 231.12442017 C131.16829163 231.12442017 108.72829163 231.12442017 85.60829163 231.12442017 C83.2390159 223.22683443 81.04513692 215.35096572 78.98329163 207.37442017 C78.6713385 206.18203735 78.35938538 204.98965454 78.03797913 203.76113892 C77.73891663 202.60742798 77.43985413 201.45371704 77.13172913 200.26504517 C76.86279846 199.22896118 76.5938678 198.1928772 76.31678772 197.12539673 C75.61508834 194.15320899 75.11034907 191.13676482 74.60829163 188.12442017 C49.85829163 188.45442017 25.10829163 188.78442017 -0.39170837 189.12442017 C-3.85670837 202.48942017 -3.85670837 202.48942017 -7.39170837 216.12442017 C-9.04170837 221.07442017 -10.69170837 226.02442017 -12.39170837 231.12442017 C-34.83170837 231.12442017 -57.27170837 231.12442017 -80.39170837 231.12442017 C-79.17655517 225.65623075 -78.04511668 220.70877114 -76.30723572 215.47036743 C-75.89791306 214.2289801 -75.48859039 212.98759277 -75.06686401 211.70858765 C-74.62049417 210.36932184 -74.17408702 209.03006846 -73.72764587 207.69082642 C-73.25854576 206.27237128 -72.78989295 204.85376814 -72.32165527 203.43502808 C-71.32603627 200.4205449 -70.32799276 197.40688072 -69.32795715 194.39385986 C-66.68085044 186.41699223 -64.05049754 178.43458974 -61.41905212 170.45254517 C-61.02474723 169.25715842 -61.02474723 169.25715842 -60.62247658 168.03762245 C-56.11240015 154.36225816 -51.68869491 140.66107937 -47.32920837 126.93692017 C-40.10761794 104.22104203 -32.67361883 81.57681459 -25.21885681 58.93667603 C-24.29720202 56.1373129 -23.3756625 53.33791185 -22.45420837 50.53848267 C-22.23105202 49.86060511 -22.00789566 49.18272755 -21.77797699 48.48430824 C-19.02147199 40.10889314 -16.28130427 31.72850498 -13.57920837 23.33535767 C-13.3102626 22.50018616 -13.04131683 21.66501465 -12.76422119 20.80453491 C-11.59471473 17.16866696 -10.42977093 13.53141189 -9.27134705 9.89199829 C-8.89212097 8.70799438 -8.5128949 7.52399048 -8.12217712 6.30410767 C-7.80659851 5.31136841 -7.4910199 4.31862915 -7.1658783 3.29580688 C-5.74038628 -0.70240378 -3.99653062 0.00785122 0 0 Z " fill="#FEFEFE" transform="translate(3394.3917083740234,1244.8755798339844)"/>
<path d="M0 0 C45.21 0 90.42 0 137 0 C137 16.5 137 33 137 50 C112.58 50 88.16 50 63 50 C63 61.88 63 73.76 63 86 C85.77 86 108.54 86 132 86 C132 102.5 132 119 132 136 C108.9 136 85.8 136 62 136 C62 150.52 62 165.04 62 180 C86.75 180 111.5 180 137 180 C137 196.83 137 213.66 137 231 C91.79 231 46.58 231 0 231 C0 154.77 0 78.54 0 0 Z " fill="#FDFDFE" transform="translate(3764,1246)"/>
<path d="M0 0 C1.37973999 0.51759888 1.37973999 0.51759888 2.78735352 1.0456543 C3.63354248 1.37476807 4.47973145 1.70388184 5.3515625 2.04296875 C6.10518066 2.33582764 6.85879883 2.62868652 7.63525391 2.93041992 C9.375 3.8125 9.375 3.8125 10.375 5.8125 C9.90802002 7.56915283 9.90802002 7.56915283 9.06738281 9.70800781 C8.75665833 10.50934143 8.44593384 11.31067505 8.12579346 12.1362915 C7.78006287 13.00397156 7.43433228 13.87165161 7.078125 14.765625 C6.72868835 15.65860291 6.37925171 16.55158081 6.01922607 17.47161865 C5.27619386 19.36612557 4.52943845 21.25917572 3.77929688 23.15087891 C2.63643043 26.03366765 1.50470899 28.92062702 0.375 31.80859375 C-0.34830225 33.64869553 -1.07224051 35.48854745 -1.796875 37.328125 C-2.3033255 38.61749969 -2.3033255 38.61749969 -2.82000732 39.93292236 C-4.56991065 44.33803937 -6.42279823 48.60767633 -8.625 52.8125 C-9.32471924 52.55557373 -10.02443848 52.29864746 -10.74536133 52.03393555 C-13.9743894 50.85129836 -17.20591098 49.67562037 -20.4375 48.5 C-21.53771484 48.09587891 -22.63792969 47.69175781 -23.77148438 47.27539062 C-39.45725276 41.58409413 -61.42721935 33.6309111 -77.9375 40.5625 C-81.69900107 42.61422786 -84.67979979 44.92209957 -86.625 48.8125 C-87.09123944 53.56814225 -86.68706601 57.05888949 -84.046875 61.13671875 C-81.13776278 64.5653153 -77.50329937 66.61200939 -73.625 68.8125 C-73.0671582 69.12912598 -72.50931641 69.44575195 -71.93457031 69.77197266 C-62.98770234 74.79356318 -53.78661767 79.1582888 -44.4375 83.375 C-20.44804818 94.23691149 -1.94282288 106.47615862 8.4765625 131.453125 C13.58231861 146.62724128 11.4358959 167.42047852 4.984375 181.765625 C-5.52040824 201.65332143 -21.97993781 213.9766243 -43.19799805 221.06762695 C-76.57810914 231.2314036 -116.86478104 227.29530272 -148.30143738 212.55778503 C-150.625 210.8125 -150.625 210.8125 -151.22627258 208.36372375 C-151.209618 206.90811287 -151.209618 206.90811287 -151.19262695 205.4230957 C-151.1922493 204.32218094 -151.19187164 203.22126617 -151.19148254 202.08699036 C-151.16567612 200.89941635 -151.13986969 199.71184235 -151.11328125 198.48828125 C-151.10620651 197.27174362 -151.09913177 196.05520599 -151.09184265 194.80180359 C-151.06381132 190.90891523 -151.00105127 187.01745505 -150.9375 183.125 C-150.91242868 180.48895303 -150.88961349 177.85288357 -150.86914062 175.21679688 C-150.81395565 168.74820905 -150.73024026 162.28045653 -150.625 155.8125 C-147.17780505 156.93016921 -143.81973012 158.09338201 -140.515625 159.58203125 C-118.23723996 169.42171153 -87.56670715 180.01899262 -63.1875 172.1875 C-58.69069027 170.20382098 -56.25943119 167.93977554 -53.625 163.8125 C-52.41856434 160.19319302 -52.30231441 157.62018995 -52.625 153.8125 C-54.52856987 150.53939447 -54.52856987 150.53939447 -56.625 147.8125 C-56.625 147.1525 -56.625 146.4925 -56.625 145.8125 C-57.15867187 145.55210937 -57.69234375 145.29171875 -58.2421875 145.0234375 C-59.97244549 144.14412606 -61.68392051 143.22754391 -63.3828125 142.2890625 C-71.61457668 137.76254716 -80.00806935 133.75740489 -88.5625 129.875 C-113.16746794 118.64542749 -136.40978212 106.40267389 -146.625 79.8125 C-152.00784135 62.72468818 -151.5135095 42.98764145 -144 26.6875 C-133.98651763 8.05947765 -117.34383589 -2.4463619 -97.625 -8.5 C-65.11184712 -16.94544551 -30.98808316 -11.62743818 0 0 Z " fill="#FDFEFE" transform="translate(2248.625,1254.1875)"/>
<path d="M0 0 C-0.6392678 5.54857437 -2.51630778 10.33668901 -4.5625 15.484375 C-5.08952515 16.82958221 -5.08952515 16.82958221 -5.62719727 18.20196533 C-6.74601594 21.05348703 -7.87300032 23.90170319 -9 26.75 C-9.75832709 28.68078755 -10.51614516 30.61177511 -11.2734375 32.54296875 C-12.65718888 36.06465136 -14.04160702 39.58605558 -15.43359375 43.10449219 C-15.71259521 43.81031433 -15.99159668 44.51613647 -16.27905273 45.24334717 C-17 47 -17 47 -18 49 C-22.16956941 48.43671015 -25.60419557 47.46819036 -29.4375 45.75 C-34.19436686 43.70710087 -38.96994802 41.89412437 -43.875 40.25 C-45.08929687 39.84265625 -46.30359375 39.4353125 -47.5546875 39.015625 C-54.53824918 36.9569787 -61.14356045 36.81711189 -68.375 36.8125 C-69.37789062 36.80025391 -70.38078125 36.78800781 -71.4140625 36.77539062 C-82.73970448 36.75315442 -91.50746571 39.30294739 -100.16796875 46.90234375 C-115.66317311 62.99697575 -118.47931373 85.93545938 -118.2109375 107.26953125 C-117.68285368 126.42723866 -114.61889428 145.85571015 -100.234375 159.69921875 C-88.25081189 169.69391319 -72.90359872 170.81732667 -58 170 C-44.55256737 168.63271914 -31.71691924 163.41661876 -19.03515625 159.00561523 C-15.7204881 157.90739145 -12.35751172 156.95928906 -9 156 C-9 173.49 -9 190.98 -9 209 C-44.81943073 222.77670413 -87.97322185 228.84290423 -124.5 213.17578125 C-132.64381731 209.38749753 -140.00012585 204.63208265 -147 199 C-147.69222656 198.47148438 -148.38445313 197.94296875 -149.09765625 197.3984375 C-168.92818604 181.39208542 -176.77842109 156.13145785 -181 132 C-181.17273437 131.13560303 -181.34546875 130.27120605 -181.5234375 129.38061523 C-182.12618758 125.10485684 -182.18171893 120.91841088 -182.203125 116.60546875 C-182.20882507 115.69984695 -182.21452515 114.79422516 -182.22039795 113.86116028 C-182.2298214 111.94399166 -182.23637135 110.02680703 -182.24023438 108.10961914 C-182.24984165 105.23488318 -182.28084887 102.3608936 -182.3125 99.48632812 C-182.3973068 84.88244017 -181.20286901 70.81663752 -176.3125 56.9375 C-176.05831299 56.20128418 -175.80412598 55.46506836 -175.54223633 54.70654297 C-170.92675935 41.80089019 -164.71818231 30.5886287 -156 20 C-155.41476563 19.26265625 -154.82953125 18.5253125 -154.2265625 17.765625 C-140.27456499 0.86602238 -118.20015785 -9.81539368 -97 -14 C-95.98292969 -14.20496094 -94.96585938 -14.40992188 -93.91796875 -14.62109375 C-63.03672222 -19.93281468 -27.84540329 -14.3444839 0 0 Z " fill="#FDFEFE" transform="translate(3303,1258)"/>
<path d="M0 0 C22.44 0 44.88 0 68 0 C75.86305278 15.72610556 75.86305278 15.72610556 78.4375 21.4609375 C78.72011185 22.08737152 79.00272369 22.71380554 79.29389954 23.35922241 C79.89150329 24.68393128 80.48800148 26.00913943 81.08340454 27.33483887 C87.33180952 41.24255886 93.74035776 55.07067826 100.25195312 68.85693359 C100.55610641 69.50207916 100.8602597 70.14722473 101.17362976 70.81192017 C101.99241099 72.54810384 102.81314728 74.28336514 103.6340332 76.01855469 C104.8411028 78.65318094 105.95293046 81.29849164 107 84 C111.55556308 75.05964277 115.86408345 66.04699025 119.96942139 56.89257812 C125.96704421 43.53021241 132.12422756 30.24564481 138.375 17 C138.75138611 16.20043884 139.12777222 15.40087769 139.51556396 14.5770874 C140.57817534 12.32102701 141.64391655 10.06647761 142.7109375 7.8125 C143.03002075 7.13494659 143.349104 6.45739319 143.67785645 5.75930786 C145.88452029 1.11547971 145.88452029 1.11547971 147 0 C149.08619022 -0.09417773 151.17560477 -0.11742878 153.26391602 -0.11352539 C154.2443689 -0.11374443 154.2443689 -0.11374443 155.24462891 -0.1139679 C157.41442128 -0.11326883 159.58412879 -0.10547678 161.75390625 -0.09765625 C163.25463311 -0.09579205 164.75536057 -0.09436816 166.25608826 -0.09336853 C170.21318226 -0.08954352 174.17023978 -0.0797134 178.12731934 -0.06866455 C182.16234849 -0.05845006 186.19738353 -0.05387083 190.23242188 -0.04882812 C198.15496469 -0.03809111 206.07747781 -0.0210149 214 0 C212.67869644 3.34910103 211.26694805 6.55308313 209.6015625 9.74609375 C208.89217529 11.107948 208.89217529 11.107948 208.16845703 12.49731445 C207.4044458 13.9527063 207.4044458 13.9527063 206.625 15.4375 C206.09116699 16.45739014 205.55733398 17.47728027 205.00732422 18.52807617 C200.47387483 27.15919431 195.82024395 35.72137184 191.1328125 44.26953125 C187.72171591 50.49505325 184.35989419 56.74673592 181 63 C176.69217119 71.01411395 172.36493374 79.01684276 168 87 C163.55534763 95.13084438 159.14290345 103.27857739 154.75 111.4375 C153.91855469 112.98147461 153.91855469 112.98147461 153.0703125 114.55664062 C151.99126964 116.56258641 150.92315788 118.57446019 149.86737061 120.59274292 C148 124 148 124 145.95098877 127.14517212 C139.04191429 138.02780925 138.86797063 147.97298139 139 160.58984375 C138.99246495 162.63108357 138.98141648 164.67231313 138.96704102 166.71351624 C138.93883919 172.03532352 138.95774286 177.3559141 138.98712158 182.67767334 C139.01245391 189.08987325 138.97810861 195.50200894 138.95399475 201.91417694 C138.92409863 211.61015471 138.96907528 221.30316825 139 231 C118.21 231 97.42 231 76 231 C76.10183594 224.91175781 76.20367188 218.82351563 76.30859375 212.55078125 C76.3397397 208.62662102 76.3663061 204.70343737 76.37695312 200.77929688 C76.39416726 194.58895631 76.42568865 188.4017217 76.55883789 182.21264648 C77.0818343 156.88171354 76.1921193 137.40613763 61.88227844 115.89044189 C58.89159767 111.29792848 56.37769443 106.46319509 53.8125 101.625 C52.84260995 99.85525204 51.87030818 98.08682147 50.89453125 96.3203125 C47.8481944 90.75546435 44.91849883 85.13268856 42 79.5 C38.08753212 71.95002537 34.09431459 64.45293203 30 57 C25.39102474 48.61022471 20.92751482 40.15423587 16.52636719 31.65380859 C12.35338788 23.61772468 8.03496072 15.66591542 3.65625 7.74023438 C3.17671875 6.86947266 2.6971875 5.99871094 2.203125 5.1015625 C1.77676758 4.33150879 1.35041016 3.56145508 0.91113281 2.76806641 C0 1 0 1 0 0 Z " fill="#FDFEFE" transform="translate(2270,1246)"/>
<path d="M0 0 C57.75 0 115.5 0 175 0 C175 16.83 175 33.66 175 51 C156.52 51 138.04 51 119 51 C119 110.07 119 169.14 119 230 C98.54 230 78.08 230 57 230 C57 170.93 57 111.86 57 51 C38.19 51 19.38 51 0 51 C0 34.17 0 17.34 0 0 Z " fill="#FEFEFE" transform="translate(3556,1246)"/>
<path d="M0 0 C20.79 0 41.58 0 63 0 C63 76.23 63 152.46 63 231 C42.21 231 21.42 231 0 231 C0 154.77 0 78.54 0 0 Z " fill="#FDFDFE" transform="translate(3016,1246)"/>
<path d="M0 0 C40.72469636 0 40.72469636 0 54.17578125 11.9296875 C66.74078281 24.84963261 69.55389602 42.54264809 69.39111328 59.90405273 C69.37503197 61.93346589 69.39106912 63.96088083 69.41015625 65.99023438 C69.43768487 82.80616158 66.49059164 101.04435793 55 114 C54.54625 114.59167969 54.0925 115.18335938 53.625 115.79296875 C49.82619929 120.27436646 45.3391535 122.52867635 40.0625 124.875 C39.39428223 125.17349854 38.72606445 125.47199707 38.03759766 125.77954102 C25.96339723 130.83033127 12.92765672 129 0 129 C0 86.43 0 43.86 0 0 Z " fill="#13528B" transform="translate(2841,1296)"/>
<path d="M0 0 C9.3813639 5.51175453 15.2841107 11.72152762 18.25390625 22.32421875 C19.28331094 33.72788369 17.7104986 42.78446442 11.12890625 52.1796875 C4.76575335 59.45754363 -3.26424759 63.30542464 -12.74609375 64.32421875 C-25.22481184 65.10734818 -35.87324783 64.27575702 -45.9609375 56.09375 C-53.23622438 48.88214178 -56.16927912 40.77580493 -56.24609375 30.69921875 C-56.25367247 21.38023609 -54.1494247 14.29835186 -47.84765625 7.1796875 C-35.73015537 -4.19543684 -15.14719643 -6.92929532 0 0 Z " fill="#1860A1" transform="translate(3056.74609375,1986.67578125)"/>
<path d="M0 0 C0.71027344 0.42410156 1.42054688 0.84820313 2.15234375 1.28515625 C9.25756364 6.03520083 13.76334371 12.78871389 16 21 C17.01918744 32.17135324 15.98484937 42.31712855 8.73046875 51.18359375 C0.50862858 59.81374201 -8.93175339 62.9717081 -20.70947266 63.29199219 C-28.27351607 63.36801272 -34.2368839 62.73853634 -41 59 C-42.5778125 58.13375 -42.5778125 58.13375 -44.1875 57.25 C-50.98610807 51.81111354 -56.08007885 45.63396493 -58 37 C-59.12049514 25.63332768 -58.16786834 15.99652875 -50.9375 6.75 C-39.27193619 -5.67143188 -14.62486968 -9.18705121 0 0 Z " fill="#175FA1" transform="translate(3322,1988)"/>
<path d="M0 0 C3.83413968 3.74062408 6.22455043 7.76460478 6.30297852 13.17016602 C6.32794151 14.38646446 6.32794151 14.38646446 6.35340881 15.62733459 C6.36182297 16.49410324 6.37023712 17.36087189 6.37890625 18.25390625 C6.39590073 19.15116928 6.4128952 20.04843231 6.43040466 20.97288513 C6.48347322 23.83601881 6.52380268 26.69913885 6.5625 29.5625 C6.60645769 32.42935801 6.65318196 35.29610512 6.70530701 38.16282654 C6.73720771 39.94567019 6.7641153 41.7286116 6.78553772 43.51161194 C6.79902756 44.31932541 6.8125174 45.12703888 6.82641602 45.95922852 C6.83592789 46.66886246 6.84543976 47.3784964 6.85523987 48.1096344 C6.94031953 50.22573955 6.94031953 50.22573955 8 53 C10.10584438 53.80563638 10.10584438 53.80563638 12.5625 54.1875 C13.38878906 54.34605469 14.21507813 54.50460937 15.06640625 54.66796875 C15.70449219 54.77753906 16.34257812 54.88710937 17 55 C17 56.65 17 58.3 17 60 C9.32107418 63.12363084 0.83716826 64.94905447 -7.28125 62.23828125 C-10.71340966 60.3985855 -12.78516988 58.11910987 -15 55 C-15.58007812 55.40992188 -16.16015625 55.81984375 -16.7578125 56.2421875 C-17.53898437 56.78101563 -18.32015625 57.31984375 -19.125 57.875 C-19.89070313 58.40867187 -20.65640625 58.94234375 -21.4453125 59.4921875 C-28.27004575 63.52024107 -35.25477126 63.89840871 -43 63 C-47.93142649 61.33030442 -50.96061845 58.64140871 -53.5 54.125 C-55.40161396 49.59168815 -55.92678536 45.71787617 -54.3046875 40.9609375 C-51.57772471 34.84245796 -48.11839621 31.30500278 -41.95703125 28.7265625 C-38.32809613 27.39742977 -34.68055967 26.17839125 -31 25 C-29.78054687 24.60296875 -28.56109375 24.2059375 -27.3046875 23.796875 C-18.50044014 21 -18.50044014 21 -15 21 C-15.14139481 18.74971671 -15.28828003 16.49977794 -15.4375 14.25 C-15.51871094 12.99703125 -15.59992187 11.7440625 -15.68359375 10.453125 C-15.96582832 6.63230661 -15.96582832 6.63230661 -17 3 C-19.82716095 2.05761302 -21.63176123 1.86534353 -24.5625 1.875 C-25.74005859 1.87113281 -25.74005859 1.87113281 -26.94140625 1.8671875 C-29.06438977 1.87023634 -29.06438977 1.87023634 -31 3 C-30.7525 3.99 -30.7525 3.99 -30.5 5 C-29.84768778 8.91387335 -29.62069201 12.01726607 -30 16 C-31.8125 18.5 -31.8125 18.5 -35 20 C-40.1210763 20.73706645 -44.43909731 20.70393651 -49.1875 18.5625 C-51.49581011 15.29902708 -51.66635471 13.11018855 -51.40234375 9.17578125 C-50.75737692 5.6879509 -49.7037688 4.31751611 -47 2 C-34.14182344 -5.63250953 -13.30864185 -8.15946494 0 0 Z " fill="#1860A1" transform="translate(2817,1988)"/>
<path d="M0 0 C4.90928934 2.81340043 8.03407291 7.06487983 10.34375 12.1640625 C10.98041638 15.46113312 10.97398593 18.642621 10.91015625 21.9921875 C10.91579086 22.90361511 10.92142548 23.81504272 10.92723083 24.75408936 C10.94358435 27.64128211 10.92820267 30.52692469 10.90625 33.4140625 C10.88964519 36.31533123 10.88055178 39.21559812 10.89598083 42.11688232 C10.90525077 43.91542885 10.89612947 45.71418837 10.86634827 47.51251221 C10.86163253 52.44968168 10.86163253 52.44968168 13.19897461 56.69824219 C15.6074359 58.34427538 17.46173722 58.84383886 20.34375 59.1640625 C20.34375 60.8140625 20.34375 62.4640625 20.34375 64.1640625 C7.47375 64.1640625 -5.39625 64.1640625 -18.65625 64.1640625 C-18.65625 62.5140625 -18.65625 60.8640625 -18.65625 59.1640625 C-16.34625 58.8340625 -14.03625 58.5040625 -11.65625 58.1640625 C-11.60679952 52.25587179 -11.57050636 46.34780166 -11.54638672 40.43945312 C-11.5363313 38.42966615 -11.52268515 36.4198938 -11.50537109 34.41015625 C-11.48110276 31.52079662 -11.46976229 28.63163048 -11.4609375 25.7421875 C-11.45061493 24.84413391 -11.44029236 23.94608032 -11.42965698 23.02081299 C-11.42950592 22.18024353 -11.42935486 21.33967407 -11.42919922 20.47363281 C-11.42253738 19.36776825 -11.42253738 19.36776825 -11.41574097 18.23956299 C-11.69596934 15.82129987 -12.39433288 14.23648037 -13.65625 12.1640625 C-16.51261437 10.22968916 -18.63146067 9.89851265 -22.03125 10.2265625 C-22.76085938 10.27941406 -23.49046875 10.33226562 -24.2421875 10.38671875 C-27.76630687 11.521508 -30.39415659 13.26166567 -32.65625 16.1640625 C-33.47244538 19.25702462 -33.35818524 22.22164802 -33.2421875 25.40234375 C-33.22945297 26.72349434 -33.22945297 26.72349434 -33.21646118 28.07133484 C-33.18297156 30.87434125 -33.10770454 33.67443135 -33.03125 36.4765625 C-33.00114448 38.38081772 -32.97376969 40.2851182 -32.94921875 42.18945312 C-32.8831952 46.8487736 -32.77970728 51.50592429 -32.65625 56.1640625 C-30.34625 57.1540625 -28.03625 58.1440625 -25.65625 59.1640625 C-25.65625 60.8140625 -25.65625 62.4640625 -25.65625 64.1640625 C-38.52625 64.1640625 -51.39625 64.1640625 -64.65625 64.1640625 C-64.65625 62.5140625 -64.65625 60.8640625 -64.65625 59.1640625 C-64.09035156 59.04289062 -63.52445313 58.92171875 -62.94140625 58.796875 C-61.84119141 58.54550781 -61.84119141 58.54550781 -60.71875 58.2890625 C-59.98785156 58.12664062 -59.25695313 57.96421875 -58.50390625 57.796875 C-56.44924706 57.33444727 -56.44924706 57.33444727 -55.65625 55.1640625 C-55.54725233 53.79685084 -55.49731191 52.42465326 -55.47924805 51.05322266 C-55.46641281 50.20539215 -55.45357758 49.35756165 -55.44035339 48.48403931 C-55.43296646 47.56633759 -55.42557953 46.64863586 -55.41796875 45.703125 C-55.409897 44.76101166 -55.40182526 43.81889832 -55.39350891 42.84823608 C-55.3796658 40.85261884 -55.36894466 38.8569779 -55.36108398 36.86132812 C-55.34385763 33.80813854 -55.2999722 30.75602792 -55.25585938 27.703125 C-55.24573374 25.76563297 -55.23721723 23.82813173 -55.23046875 21.890625 C-55.20420662 20.52014511 -55.20420662 20.52014511 -55.17741394 19.12197876 C-55.15182454 14.03398121 -55.15182454 14.03398121 -57.47973633 9.63427734 C-60.09454907 7.86799553 -62.62230347 6.99150246 -65.65625 6.1640625 C-65.65625 4.5140625 -65.65625 2.8640625 -65.65625 1.1640625 C-54.969087 0.36820994 -44.37225323 0.03581246 -33.65625 0.1640625 C-33.16125 4.1240625 -33.16125 4.1240625 -32.65625 8.1640625 C-31.89699219 7.59816406 -31.13773438 7.03226563 -30.35546875 6.44921875 C-29.36160156 5.71574219 -28.36773438 4.98226563 -27.34375 4.2265625 C-26.35761719 3.49566406 -25.37148437 2.76476563 -24.35546875 2.01171875 C-17.98762132 -2.34716958 -7.27086141 -2.28818285 0 0 Z " fill="#165EA1" transform="translate(3457.65625,1984.8359375)"/>
<path d="M0 0 C2.83713909 0.99683265 4.46855553 0.68148303 7.3125 -0.1875 C7.6425 -0.5175 7.9725 -0.8475 8.3125 -1.1875 C10.2925 -1.1875 12.2725 -1.1875 14.3125 -1.1875 C14.3125 9.7025 14.3125 20.5925 14.3125 31.8125 C12.6625 31.8125 11.0125 31.8125 9.3125 31.8125 C8.65894531 30.3275 8.65894531 30.3275 7.9921875 28.8125 C1.60502522 14.25740336 1.60502522 14.25740336 -10.6875 4.8125 C-11.3475 4.4825 -12.0075 4.1525 -12.6875 3.8125 C-21.02926728 3.16314087 -26.73555022 3.51920851 -33.3125 9 C-41.5230301 18.72299617 -42.04994337 29.75100826 -42.0625 42 C-42.08699219 43.23814453 -42.11148438 44.47628906 -42.13671875 45.75195312 C-42.16841097 55.83536047 -40.92102093 67.30402876 -34.1953125 75.37890625 C-28.0097524 81.25999577 -21.87873912 82.48303419 -13.50512695 82.33837891 C-8.03746703 82.06282903 -4.06150665 81.07156378 0.3125 77.8125 C1.859375 76.7296875 1.859375 76.7296875 3.4375 75.625 C7.20472321 72.33385445 9.71522637 68.03997728 12.3125 63.8125 C14.75 64.625 14.75 64.625 17.3125 65.8125 C17.6425 66.8025 17.9725 67.7925 18.3125 68.8125 C13.04531172 79.18112588 4.18239911 87.17415465 -6.765625 90.96484375 C-20.04530502 94.31974711 -35.84313327 92.94084354 -47.671875 86.08203125 C-57.40845372 79.4901043 -63.8877327 70.96057761 -67.6875 59.8125 C-70.44041853 45.03090559 -69.87882902 30.27489629 -61.375 17.5 C-47.12644582 -1.41722937 -22.5397797 -9.95943754 0 0 Z " fill="#185FA1" transform="translate(2593.6875,1959.1875)"/>
<path d="M0 0 C16.17 0 32.34 0 49 0 C49 1.65 49 3.3 49 5 C47.9275 5.28875 46.855 5.5775 45.75 5.875 C42.8799847 6.73600459 40.61255453 7.62436288 38 9 C37.99413376 9.7044223 37.98826752 10.4088446 37.98222351 11.13461304 C37.92402598 17.81283815 37.85179761 24.49075239 37.76428509 31.16866112 C37.71978897 34.60086031 37.68048915 38.03294646 37.65356445 41.46533203 C37.62228573 45.42245073 37.56750658 49.37908569 37.51171875 53.3359375 C37.50532883 54.55300385 37.4989389 55.77007019 37.49235535 57.02401733 C37.29810559 68.41206367 35.55803289 76.4619944 27.55078125 84.796875 C17.6736093 93.32784741 6.81192592 93.78395602 -5.62939453 93.23095703 C-11.85168221 92.62474857 -16.12242832 89.87757168 -20.4375 85.5625 C-20.953125 84.716875 -21.46875 83.87125 -22 83 C-22.5775 82.0925 -23.155 81.185 -23.75 80.25 C-25.60214012 75.43443568 -26.03985975 70.90154414 -24.2734375 65.97265625 C-22.22682367 62.03750039 -20.14213158 59.56480526 -16 58 C-12.12859578 57.36193523 -8.62418173 57.08829716 -5.12109375 59.0546875 C-2.95632691 60.81779881 -1.25540505 62.48918989 0 65 C0.40501586 70.26520618 -0.1785886 73.52465778 -3 78 C-5.6875 80.875 -5.6875 80.875 -8 83 C-7.67 83.99 -7.34 84.98 -7 86 C-1.68050971 86.21277961 3.1006606 86.38992166 8 84 C9.11580883 82.1478759 9.11580883 82.1478759 10 80 C10.27720886 79.38264984 10.55441772 78.76529968 10.84002686 78.12924194 C13.48646765 71.1689442 13.40057003 64.47446924 13.328125 57.1015625 C13.32625183 55.78964935 13.32437866 54.47773621 13.32244873 53.12606812 C13.3178766 50.36760871 13.30356382 47.6094463 13.28125 44.85107422 C13.25280273 41.31706378 13.24201819 37.78328442 13.2375679 34.2491703 C13.23241716 30.86659884 13.21788625 27.48410658 13.203125 24.1015625 C13.19887512 22.83285309 13.19462524 21.56414368 13.19024658 20.25698853 C13.18063904 19.08501923 13.17103149 17.91304993 13.16113281 16.70556641 C13.15430481 15.67348053 13.14747681 14.64139465 13.14044189 13.57803345 C13.1074067 10.88196131 13.1074067 10.88196131 12 8 C9.20827761 6.96683512 9.20827761 6.96683512 5.9375 6.3125 C4.83277344 6.06113281 3.72804688 5.80976562 2.58984375 5.55078125 C1.73519531 5.36902344 0.88054688 5.18726563 0 5 C0 3.35 0 1.7 0 0 Z " fill="#1960A2" transform="translate(3207,1958)"/>
<path d="M0 0 C1.38759521 0.01921509 1.38759521 0.01921509 2.80322266 0.03881836 C11.47115001 0.29691091 17.83314743 1.8049143 24.4375 7.625 C31.12627683 15.04116155 31.5625 21.56965747 31.5625 31.5 C17.0425 31.5 2.5225 31.5 -12.4375 31.5 C-10.7247119 44.0959961 -10.7247119 44.0959961 -4 53.875 C1.44219949 57.3261509 6.16103481 58.48095122 12.5625 57.5 C19.12286294 55.22873022 23.60197065 52.17675874 27.5625 46.5 C29.2125 47.49 30.8625 48.48 32.5625 49.5 C30.33290833 56.2121215 25.2083064 60.43855858 19.14453125 63.8671875 C9.03333355 68.5078377 -3.62306303 69.42203733 -14.3125 66.0625 C-22.27205865 62.664981 -29.39463853 56.53077183 -32.765625 48.453125 C-32.98734375 47.80859375 -33.2090625 47.1640625 -33.4375 46.5 C-33.65921875 45.87609375 -33.8809375 45.2521875 -34.109375 44.609375 C-36.70774999 35.97153383 -36.41584132 26.63615668 -32.4375 18.5 C-24.96347432 6.17918191 -14.4344808 -0.30306899 0 0 Z " fill="#175FA1" transform="translate(2927.4375,1983.5)"/>
<path d="M0 0 C6.11712537 3.92419364 8.40279122 8.35420106 11 15 C11 18.96 11 22.92 11 27 C-3.19 27 -17.38 27 -32 27 C-30.38323555 40.35004443 -30.38323555 40.35004443 -22.9375 50.5 C-17.22949306 53.41472695 -11.82688387 54.09967927 -5.62109375 52.31640625 C-1.57893112 50.66807936 1.33608492 48.89574641 4.3125 45.6875 C5.199375 44.800625 6.08625 43.91375 7 43 C9.16796875 43.33203125 9.16796875 43.33203125 11 44 C11.75 45.71875 11.75 45.71875 12 48 C6.74802548 55.17096522 -0.74908221 60.79211698 -9.5078125 62.68359375 C-22.15224074 64.28892085 -33.47846386 63.26040673 -43.9609375 55.72265625 C-51.40157814 49.43659778 -54.4877896 41.91887578 -55.31640625 32.34375 C-55.55505978 24.64524894 -55.15209208 18.57091207 -51 12 C-50.57589844 11.30390625 -50.15179687 10.6078125 -49.71484375 9.890625 C-39.48812948 -5.26428306 -15.57649166 -9.51547777 0 0 Z " fill="#175FA1" transform="translate(2742,1988)"/>
<path d="M0 0 C0.66 0 1.32 0 2 0 C2.1451001 0.60545654 2.2902002 1.21091309 2.43969727 1.8347168 C3.41701584 5.91189039 4.39449355 9.98902128 5.375 14.06542969 C6.84260056 20.16746934 8.30227581 26.27119236 9.74609375 32.37890625 C12.75118477 45.03884758 15.92039978 57.60274181 19.578125 70.08984375 C21.09179469 75.26780334 22.49814799 80.47167225 23.875 85.6875 C24.09043457 86.49654785 24.30586914 87.3055957 24.52783203 88.13916016 C26 93.75340138 26 93.75340138 26 96 C9.83 96 -6.34 96 -23 96 C-18.6135124 75.16418388 -18.6135124 75.16418388 -16.05810547 65.85546875 C-13.9735549 58.25989362 -12.02684504 50.62739946 -10.0625 43 C-9.84378235 42.15114227 -9.6250647 41.30228455 -9.39971924 40.42770386 C-5.95122117 27.01265179 -2.75315574 13.57740487 0 0 Z " fill="#134A7E" transform="translate(3430,1286)"/>
<path d="M0 0 C3.48715894 1.98396827 6.19673639 4.39347279 8 8 C8.51512617 12.09157355 8.94367269 16.23589546 6.953125 19.95703125 C4.63722512 22.75654552 2.68394887 24.7981908 -0.98828125 25.23828125 C-5.15410332 25.3713075 -7.37869331 25.38831668 -11 23.125 C-14.71932063 19.17322183 -14.08437656 16.2313468 -14 11 C-15.093125 11.433125 -16.18625 11.86625 -17.3125 12.3125 C-17.92738281 12.55613281 -18.54226562 12.79976562 -19.17578125 13.05078125 C-21.27446625 14.14281649 -22.48843109 15.17702761 -24 17 C-24.43116962 18.95036468 -24.43116962 18.95036468 -24.34057617 21.10424805 C-24.34034958 21.92487228 -24.34012299 22.74549652 -24.33988953 23.59098816 C-24.32440567 24.47232925 -24.30892181 25.35367035 -24.29296875 26.26171875 C-24.28660149 27.62040825 -24.28660149 27.62040825 -24.28010559 29.00654602 C-24.26330848 31.90049933 -24.2256545 34.79375706 -24.1875 37.6875 C-24.17245449 39.64907849 -24.15876585 41.61066789 -24.14648438 43.57226562 C-24.11340157 48.38177856 -24.06161222 53.19077133 -24 58 C-20.37 58.66 -16.74 59.32 -13 60 C-13 61.65 -13 63.3 -13 65 C-27.19 65 -41.38 65 -56 65 C-56 63.35 -56 61.7 -56 60 C-55.43410156 59.87882812 -54.86820313 59.75765625 -54.28515625 59.6328125 C-53.18494141 59.38144531 -53.18494141 59.38144531 -52.0625 59.125 C-51.33160156 58.96257812 -50.60070313 58.80015625 -49.84765625 58.6328125 C-47.79299706 58.17038477 -47.79299706 58.17038477 -47 56 C-46.89100233 54.63278834 -46.84106191 53.26059076 -46.82299805 51.88916016 C-46.81016281 51.04132965 -46.79732758 50.19349915 -46.78410339 49.31997681 C-46.77671646 48.40227509 -46.76932953 47.48457336 -46.76171875 46.5390625 C-46.753647 45.59694916 -46.74557526 44.65483582 -46.73725891 43.68417358 C-46.7234158 41.68855634 -46.71269466 39.6929154 -46.70483398 37.69726562 C-46.68760763 34.64407604 -46.6437222 31.59196542 -46.59960938 28.5390625 C-46.58948374 26.60157047 -46.58096723 24.66406923 -46.57421875 22.7265625 C-46.54795662 21.35608261 -46.54795662 21.35608261 -46.52116394 19.95791626 C-46.49557454 14.86991871 -46.49557454 14.86991871 -48.82348633 10.47021484 C-51.43829907 8.70393303 -53.96605347 7.82743996 -57 7 C-57 5.35 -57 3.7 -57 2 C-46.312837 1.20414744 -35.71600323 0.87174996 -25 1 C-24.505 4.96 -24.505 4.96 -24 9 C-23.39671875 8.51789063 -22.7934375 8.03578125 -22.171875 7.5390625 C-20.97304687 6.59160156 -20.97304687 6.59160156 -19.75 5.625 C-18.96109375 4.99851562 -18.1721875 4.37203125 -17.359375 3.7265625 C-11.80086433 -0.34108935 -6.82897911 -1.13655788 0 0 Z " fill="#165FA1" transform="translate(3139,1984)"/>
<path d="M0 0 C6.93 0 13.86 0 21 0 C21 6.6 21 13.2 21 20 C26.94 20 32.88 20 39 20 C39 21.98 39 23.96 39 26 C33.06 26 27.12 26 21 26 C21.09711106 31.72955228 21.19995189 37.45841091 21.31738281 43.1875 C21.35558233 45.13502798 21.39045075 47.08262435 21.421875 49.03027344 C21.46772196 51.83553446 21.52568366 54.64032839 21.5859375 57.4453125 C21.59748871 58.31116974 21.60903992 59.17702698 21.62094116 60.06912231 C21.73352665 64.71765327 22.07399915 68.67997411 24 73 C26.9615696 74.4807848 29.83506295 74.35314037 33.125 74.5625 C35.04699219 74.68818359 35.04699219 74.68818359 37.0078125 74.81640625 C37.99523438 74.87699219 38.98265625 74.93757813 40 75 C40 76.65 40 78.3 40 80 C38.43979133 80.65134925 36.87671421 81.29582964 35.3125 81.9375 C34.00732422 82.47697266 34.00732422 82.47697266 32.67578125 83.02734375 C25.74076123 85.54824884 17.14293154 86.53656553 10.125 83.8125 C5.88925451 81.35576762 2.89374529 79.01063585 0.87548828 74.47021484 C-0.28907926 69.85416268 -0.24784885 65.52978896 -0.1953125 60.7890625 C-0.1924826 59.82092621 -0.18965271 58.85278992 -0.18673706 57.85531616 C-0.17558696 54.77841572 -0.1504918 51.70181172 -0.125 48.625 C-0.11496352 46.5325563 -0.10583884 44.44010802 -0.09765625 42.34765625 C-0.07566453 37.23165749 -0.04117025 32.11587892 0 27 C-3.96 27 -7.92 27 -12 27 C-12 24.69 -12 22.38 -12 20 C-8.04 20 -4.08 20 0 20 C0 13.4 0 6.8 0 0 Z " fill="#185FA1" transform="translate(2847,1966)"/>
<path d="M0 0 C2.68167264 1.78778176 3.95680945 3.0254481 5.625 5.75 C6.46623743 10.76710973 6.58775505 15.99614201 3.75 20.375 C1.51528786 22.87261945 0.68381048 23.61881994 -2.58203125 24.0234375 C-7.0455375 24.19742725 -9.62835299 24.21292114 -13.5 21.8125 C-16.02022502 17.69613247 -15.83605691 14.45278047 -15.375 9.75 C-19.89844862 11.01235775 -23.12091734 12.31230995 -26.375 15.75 C-26.84563718 18.80827902 -27.0079564 21.29756063 -26.93359375 24.34765625 C-26.93126236 25.17833115 -26.92893097 26.00900604 -26.92652893 26.86485291 C-26.91680174 28.61744484 -26.89503799 30.3700058 -26.86206055 32.12231445 C-26.81260823 34.80662494 -26.80057703 37.48910302 -26.79492188 40.17382812 C-26.78083695 41.87762369 -26.76463292 43.58140333 -26.74609375 45.28515625 C-26.7380497 46.48991356 -26.7380497 46.48991356 -26.72984314 47.7190094 C-26.64762836 51.56378692 -26.55536991 53.47944514 -24.375 56.75 C-21.95892583 57.54798218 -21.95892583 57.54798218 -19.25 57.9375 C-17.88488281 58.17533203 -17.88488281 58.17533203 -16.4921875 58.41796875 C-15.79351563 58.52753906 -15.09484375 58.63710937 -14.375 58.75 C-14.375 60.4 -14.375 62.05 -14.375 63.75 C-28.565 63.75 -42.755 63.75 -57.375 63.75 C-57.375 62.1 -57.375 60.45 -57.375 58.75 C-56.240625 58.440625 -55.10625 58.13125 -53.9375 57.8125 C-50.58724901 57.12075469 -50.58724901 57.12075469 -49.375 55.75 C-49.25108892 54.36014068 -49.19447054 52.96417854 -49.16625977 51.5690918 C-49.13732384 50.23717049 -49.13732384 50.23717049 -49.10780334 48.87834167 C-49.05028225 44.80833729 -49.00078039 40.73851489 -48.9699707 36.66821289 C-48.94837591 34.51961204 -48.91425576 32.37109951 -48.86743164 30.22290039 C-48.80061004 27.13127202 -48.7730005 24.04146627 -48.75390625 20.94921875 C-48.72607559 19.98868088 -48.69824493 19.02814301 -48.66957092 18.03849792 C-48.67750685 15.47165158 -48.74334838 13.23826852 -49.375 10.75 C-52.34578976 8.06715732 -54.61399426 7.00366858 -58.375 5.75 C-58.375 4.1 -58.375 2.45 -58.375 0.75 C-48.0260926 0.09956362 -37.7484499 -0.41494885 -27.375 -0.25 C-27.045 2.72 -26.715 5.69 -26.375 8.75 C-25.86710937 8.27949219 -25.35921875 7.80898437 -24.8359375 7.32421875 C-17.13293255 0.35689405 -10.37114157 -3.84116354 0 0 Z " fill="#175FA1" transform="translate(2675.375,1985.25)"/>
<path d="M0 0 C0.00586624 0.66985428 0.01173248 1.33970856 0.01777649 2.02986145 C0.0816098 8.98902032 0.16600328 15.94771241 0.26245117 22.90649414 C0.29574743 25.50506443 0.32376454 28.10370787 0.34643555 30.70239258 C0.37989451 34.43342319 0.43220729 38.16378061 0.48828125 41.89453125 C0.49467117 43.06023148 0.5010611 44.2259317 0.50764465 45.42695618 C0.52743881 46.50785019 0.54723297 47.5887442 0.56762695 48.70239258 C0.58428154 50.13135612 0.58428154 50.13135612 0.60127258 51.58918762 C1.0729426 54.4410304 1.70532241 55.29412543 4 57 C7.10007201 58.20049407 7.10007201 58.20049407 10 59 C10 60.65 10 62.3 10 64 C-3.53 64 -17.06 64 -31 64 C-31 62.35 -31 60.7 -31 59 C-28.03 58.01 -25.06 57.02 -22 56 C-21.87653522 49.64631272 -21.78572379 43.29332122 -21.7253418 36.9387207 C-21.70017501 34.77648764 -21.66603842 32.61433982 -21.62280273 30.45239258 C-21.56224704 27.34695428 -21.53381213 24.24263903 -21.51171875 21.13671875 C-21.48591232 20.16788254 -21.4601059 19.19904633 -21.43351746 18.20085144 C-21.43246964 15.70182013 -21.47039148 13.4422794 -22 11 C-24.21573315 8.80731952 -24.21573315 8.80731952 -27 8 C-27.928125 7.608125 -28.85625 7.21625 -29.8125 6.8125 C-30.8953125 6.4103125 -30.8953125 6.4103125 -32 6 C-32 4.35 -32 2.7 -32 1 C-29.6670209 0.82626751 -27.33386219 0.66110616 -25 0.5 C-23.700625 0.4071875 -22.40125 0.314375 -21.0625 0.21875 C-14.0513401 -0.17211606 -7.01919604 -0.0387563 0 0 Z " fill="#165EA1" transform="translate(3377,1985)"/>
<path d="M0 0 C5.11468337 2.99160725 6.77767649 5.92558829 8.45703125 11.5234375 C11.27074334 24.35720343 12.17401603 40.93175626 5.0625 52.625 C1.96758066 56.18884651 0.29183129 56.83254039 -4.375 57.4375 C-7.94712198 57.00638183 -10.0421232 56.43024037 -12.64453125 53.890625 C-18.15422786 46.2056303 -18.36562525 36.90771491 -18.4375 27.8125 C-18.44765137 26.89863525 -18.45780273 25.98477051 -18.46826172 25.04321289 C-18.34945601 15.75210411 -16.6995735 7.6995735 -10 1 C-6.75681023 -0.62159489 -3.50535577 -0.55485147 0 0 Z " fill="#FAFBFC" transform="translate(3305,1989)"/>
<path d="M0 0 C3.91613768 0.07692413 6.20161948 0.62500567 9.25 3.25 C14.82276569 10.874899 14.45917322 18.8076116 14.5 27.9375 C14.520625 29.07123047 14.54125 30.20496094 14.5625 31.37304688 C14.59710653 38.87833721 14.56455435 47.14101519 9.63549805 53.25146484 C6.75120296 56.11466268 4.71462957 57.16033464 0.6875 57.9375 C-3.6275684 57.07448632 -6.10227271 55.68365211 -8.75 52.25 C-15.7170679 41.163087 -14.01558097 24.05159201 -11.5625 11.6875 C-10.24607193 6.86899534 -8.76640146 4.2094537 -4.75 1.25 C-3.75 0.25 -3.75 0.25 0 0 Z " fill="#FCFDFD" transform="translate(3036.75,1988.75)"/>
<path d="M0 0 C3.21768429 1.63500218 5.24783658 4.01891728 7.4375 6.875 C8.3323238 10.25544546 7.87208578 12.62793497 7 16 C4.88824247 19.41540567 2.90156258 21.69947914 -1 23 C-4.76854983 23.50247331 -8.41269044 23.83718859 -11.8515625 22.0234375 C-14.64048274 19.78405819 -17.07758224 17.48468933 -18 14 C-17.88697266 7.89652383 -16.10379879 5.20389144 -12 1 C-8.27083603 -0.86458199 -4.06038696 -0.56048286 0 0 Z " fill="#1960A2" transform="translate(3370,1950)"/>
<path d="M0 0 C4.06283817 0.84642462 5.46249851 2.38263699 8 5.625 C10.74428328 11.24424672 10 14.79028347 10 21.625 C3.07 21.625 -3.86 21.625 -11 21.625 C-11 13.32610796 -10.64491487 9.05624092 -5.6875 2.625 C-3 0.625 -3 0.625 0 0 Z " fill="#F1F5F9" transform="translate(2926,1988.375)"/>
<path d="M0 0 C3.40299526 2.48326681 4.70616029 5.05686945 6 9 C6.25222779 13.02051094 6.08865804 16.96605914 6 21 C-0.6 21 -7.2 21 -14 21 C-14 8.17857143 -14 8.17857143 -9.25 1.5625 C-6.0027213 -0.69255466 -3.86130262 -0.55161466 0 0 Z " fill="#F4F7FA" transform="translate(2724,1989)"/>
<path d="M0 0 C0 7.26 0 14.52 0 22 C-8.42372881 26.81355932 -8.42372881 26.81355932 -13 26 C-15.375 24.6875 -15.375 24.6875 -17 22 C-17.78706922 16.85192476 -17.59494762 12.46032598 -15.625 7.625 C-11.48152571 3.48152571 -5.98826571 0 0 0 Z " fill="#FAFCFD" transform="translate(2802,2015)"/>
<path d="M0 0 C0 0.99 0 1.98 0 3 C-1.38782485 3.8466034 -2.78569397 4.67675339 -4.1875 5.5 C-4.96480469 5.9640625 -5.74210937 6.428125 -6.54296875 6.90625 C-9.24103386 8.10729647 -11.0806982 8.20741043 -14 8 C-14.33 7.01 -14.66 6.02 -15 5 C-14.34 5 -13.68 5 -13 5 C-13 4.34 -13 3.68 -13 3 C-8.70614007 -0.4887612 -5.28129105 -0.26854022 0 0 Z " fill="#215789" transform="translate(475,1686)"/>
<path d="M0 0 C0 1.65 0 3.3 0 5 C-2.64 5.33 -5.28 5.66 -8 6 C-8.66 5.01 -9.32 4.02 -10 3 C-6.68152292 -0.06320961 -4.44849969 -0.3033068 0 0 Z " fill="#215889" transform="translate(480,1678)"/>
</svg>
