<?xml version="1.0" encoding="UTF-8"?>
<svg version="1.1" xmlns="http://www.w3.org/2000/svg" width="6000" height="3375">
<path d="M0 0 C1980 0 3960 0 6000 0 C6000 1113.75 6000 2227.5 6000 3375 C4020 3375 2040 3375 0 3375 C0 2261.25 0 1147.5 0 0 Z " fill="#164670" transform="translate(0,0)"/>
<path d="M0 0 C1316.7 0 2633.4 0 3990 0 C3990 477.51 3990 955.02 3990 1447 C2673.3 1447 1356.6 1447 0 1447 C0 969.49 0 491.98 0 0 Z " fill="#145C9E" transform="translate(1005,964)"/>
<path d="M0 0 C0.83824059 0.00002625 1.67648118 0.00005251 2.54012301 0.00007956 C3.50632121 -0.00231672 4.47251941 -0.00471301 5.46799635 -0.00718191 C7.08400619 -0.00349147 7.08400619 -0.00349147 8.73266269 0.00027352 C10.44138268 -0.00172036 10.44138268 -0.00172036 12.18462226 -0.00375452 C15.38225535 -0.0064546 18.57985062 -0.00461026 21.77748164 -0.00095154 C25.26025143 0.00193829 28.74301704 -0.00095442 32.22578669 -0.0031268 C38.37418196 -0.00614985 44.52256817 -0.0054054 50.67096326 -0.00229056 C59.90221576 0.00236501 69.1334614 0.00126014 78.36471449 -0.0009896 C94.16498883 -0.00467025 109.9652597 -0.00356221 125.76553391 0.0000615 C141.87850091 0.00373647 157.99146593 0.00522067 174.10443333 0.00404579 C175.63347745 0.00393631 175.63347745 0.00393631 177.19341136 0.00382462 C182.39760841 0.00344215 187.60180546 0.00302453 192.80600251 0.00259493 C230.88180861 -0.00047274 268.95761326 0.00140417 307.03341917 0.00573921 C345.64568398 0.01011912 384.25794801 0.01232168 422.87021307 0.011837 C424.69437121 0.01181557 424.69437121 0.01181557 426.55538102 0.0117937 C437.69960643 0.01166195 448.84383183 0.01150584 459.98805724 0.0113207 C487.93775801 0.0108575 515.88745878 0.01072509 543.83715955 0.01081192 C545.75864963 0.01081754 545.75864963 0.01081754 547.7189577 0.01082328 C610.92317282 0.01103764 674.12738765 0.01500733 737.33160261 0.01921463 C759.59085047 0.02069377 781.85009833 0.0221551 804.10934619 0.02355075 C805.49299427 0.02363751 806.87664234 0.02372428 808.30221915 0.02381368 C872.36051467 0.02780887 936.41881016 0.02924226 1000.47710579 0.03001672 C1004.66502761 0.03006748 1008.85294943 0.03011944 1013.04087125 0.03017172 C1038.29360843 0.03048581 1063.54634561 0.03077318 1088.79908279 0.03102969 C1151.58132223 0.03166859 1214.36356167 0.03262809 1277.14580111 0.03380489 C1278.57517388 0.03383152 1280.00454666 0.03385816 1281.47723377 0.0338856 C1374.07696453 0.03561359 1466.67669519 0.0386616 1559.27642588 0.0428133 C1561.49456978 0.04291273 1561.49456978 0.04291273 1563.75752467 0.04301417 C1608.77350903 0.04503492 1653.78949338 0.04715328 1698.80547774 0.04929074 C1748.62151775 0.05165569 1798.43755776 0.05400398 1848.25359777 0.05628013 C1849.75155736 0.05634863 1851.24951694 0.05641713 1852.79286924 0.05648771 C1995.03061876 0.06298654 2137.26836832 0.06679827 2279.50611796 0.06991392 C2285.52984465 0.07004606 2291.55357134 0.07017898 2297.57729804 0.07031194 C2353.00838838 0.07153533 2408.43947872 0.07272716 2463.87056906 0.07387936 C2465.34451506 0.07391 2466.81846105 0.07394064 2468.33707208 0.0739722 C2472.79978387 0.07406497 2477.26249566 0.07415772 2481.72520745 0.07425047 C2602.29172994 0.0767564 2722.85825243 0.07953761 2843.42477491 0.0824971 C2847.67885095 0.08260146 2851.93292698 0.0827056 2856.18700302 0.08280968 C2994.4345787 0.08619286 3132.68215436 0.09006355 3376.81911156 0.09914748 C3380.58435691 0.09929238 3384.34960226 0.09943702 3388.11484762 0.09958155 C3389.96359156 0.09965254 3389.96359156 0.09965254 3391.84968386 0.09972496 C3394.09283741 0.09981109 3396.33599095 0.09989718 3398.57914449 0.09998322 C3595.42241118 0.10754441 3792.26567781 0.11641794 3989.10894445 0.12494468 C3989.10894445 317.91494468 3989.10894445 635.70494468 3989.10894445 963.12494468 C2671.74894445 963.12494468 1354.38894445 963.12494468 -2.89105555 963.12494468 C-2.89105555 0.19101608 -2.89105555 0.19101608 0 0 Z " fill="#1E5485" transform="translate(1006.8910555454349,2411.875055315424)"/>
<path d="M0 0 C635 0 635 0 831 1 C835.62 0.67 840.24 0.34 845 0 C848.35595275 -0.00377162 851.66390849 0.02891757 855.01171875 0.15625 C855.87263626 0.18223267 856.73355377 0.20821533 857.62055969 0.23498535 C860.3098041 0.31662086 862.99861471 0.40733837 865.6875 0.5 C868.41566506 0.59200663 871.14381921 0.68184551 873.87226868 0.76501465 C875.55520881 0.81643469 877.23800361 0.87293197 878.920578 0.93518066 C882.24198571 1.03773138 884.82027178 1.05990941 888 0 C890.8878457 0.09079434 893.74443625 0.23964655 896.625 0.4375 C903.25352793 0.83934494 909.85866204 1.11412682 916.5 1.125 C917.56661865 1.13164673 917.56661865 1.13164673 918.65478516 1.13842773 C921.71555224 1.12984056 924.0725044 0.97583187 927 0 C929.00664306 -0.0940365 931.01630177 -0.12793376 933.02514648 -0.12939453 C934.26751572 -0.13254669 935.50988495 -0.13569885 936.78990173 -0.13894653 C938.15029943 -0.13715487 939.5106968 -0.13510345 940.87109375 -0.1328125 C942.27295448 -0.13348675 943.67481509 -0.13445779 945.07667542 -0.13571167 C948.02142444 -0.13718729 950.96614317 -0.13504136 953.91088867 -0.13037109 C957.65267369 -0.12472114 961.39438622 -0.12792329 965.13616848 -0.13394356 C968.03699773 -0.13759347 970.93781041 -0.13638966 973.83864021 -0.13381577 C975.21589225 -0.1331562 976.59314586 -0.1339403 977.97039604 -0.13629532 C979.91703124 -0.13888982 981.8636718 -0.13422329 983.81030273 -0.12939453 C984.91155991 -0.12859894 986.01281708 -0.12780334 987.14744568 -0.12698364 C992.44209148 0.04753263 997.72077779 0.56006482 1003 1 C1003 478.51 1003 956.02 1003 1448 C766.06 1448.33 529.12 1448.66 285 1449 C190.95 1449.33 96.9 1449.66 0 1450 C0 971.5 0 493 0 0 Z " fill="#184A77" transform="translate(0,963)"/>
<path d="M0 0 C1.2501847 0.00015598 2.50036941 0.00031196 3.7884385 0.00047267 C4.8340217 -0.00144447 4.8340217 -0.00144447 5.90072779 -0.00340034 C8.2708541 -0.00649871 10.64091561 -0.0023784 13.01103985 0.00162334 C14.72167141 0.0008847 16.43230282 -0.0002928 18.14293381 -0.00187286 C22.88646601 -0.00496203 27.62997703 -0.00175062 32.37350767 0.00240542 C37.50603214 0.00581683 42.63855429 0.00346981 47.77107918 0.00182265 C56.79024289 -0.00026269 65.80940002 0.00140482 74.82856297 0.00545603 C88.41415588 0.01153846 101.99974478 0.01182758 115.58533881 0.01099074 C138.34839514 0.00974634 161.11144799 0.01304284 183.87450325 0.0190956 C214.6533176 0.02726243 245.43212802 0.02919759 276.21094429 0.03006667 C350.24125901 0.03532407 424.27157289 0.04928508 498.30188667 0.06217116 C746.26594917 0.09310866 746.26594917 0.09310866 999.23938667 0.12467116 C999.23938667 478.29467116 999.23938667 956.46467116 999.23938667 1449.12467116 C945.48596268 1449.12467116 891.73282887 1449.12442586 837.97948372 1449.06120986 C835.99081694 1449.05893005 834.00215014 1449.05665876 832.01348334 1449.05439496 C828.89969588 1449.05084922 825.78590842 1449.04729854 822.67212099 1449.04372163 C811.66807771 1449.03108595 800.66403375 1449.01909153 789.65998976 1449.00709199 C769.37290463 1448.98495354 749.08582004 1448.96235739 728.79873573 1448.93947524 C708.79011478 1448.91690876 688.78149359 1448.89456117 668.77287209 1448.87248916 C666.88791528 1448.87040964 666.88791528 1448.87040964 664.96487854 1448.86828811 C658.57982183 1448.86124508 652.19476511 1448.85420581 645.80970838 1448.84716797 C600.89906033 1448.79765918 555.9884128 1448.74768497 511.07776558 1448.69742507 C500.2575955 1448.68531634 489.43742542 1448.67320928 478.61725533 1448.66110915 C477.94592424 1448.66035841 477.27459316 1448.65960766 476.58291871 1448.65883416 C445.20583948 1448.62374761 413.82875996 1448.58893124 382.45168036 1448.55418185 C380.40746532 1448.55191792 378.36325028 1448.54965388 376.31903524 1448.54738982 C362.76866293 1448.53238233 349.21829062 1448.51737944 335.6679183 1448.50237962 C308.07848016 1448.47183897 280.48904205 1448.44126919 252.89960396 1448.41068191 C251.63183423 1448.40927642 250.36406449 1448.40787093 249.0578775 1448.40642285 C164.78504668 1448.31299206 80.51221662 1448.21888656 -3.76061333 1448.12467116 C-3.76611123 1403.85326819 -3.77138321 1359.5818652 -3.77648247 1315.31046218 C-3.77658226 1314.44419681 -3.77668206 1313.57793145 -3.77678488 1312.68541562 C-3.78746879 1219.893434 -3.79669279 1127.10145238 -3.80295647 1034.30947036 C-3.80309592 1032.24911464 -3.80323537 1030.18875891 -3.80337482 1028.12840319 C-3.80629729 984.88426485 -3.80901403 941.6401265 -3.811493 898.39598814 C-3.81273843 876.67413605 -3.81402341 854.95228397 -3.81534577 833.23043188 C-3.81554502 829.95370214 -3.81574313 826.67697241 -3.81594121 823.40024267 C-3.81900243 772.92268382 -3.82291358 722.44512522 -3.82927788 671.96756667 C-3.82941478 670.88164322 -3.82955167 669.79571977 -3.82969272 668.67688955 C-3.83190519 651.16776347 -3.83418876 633.6586374 -3.83648177 616.14951133 C-3.84308248 565.73892542 -3.8491604 515.3283397 -3.85175312 464.9177534 C-3.85180665 463.88185094 -3.85186019 462.84594848 -3.85191535 461.77865504 C-3.85308091 439.04212861 -3.85397586 416.30560217 -3.85461431 393.56907571 C-3.85487594 384.42168791 -3.85517656 375.2743001 -3.85549057 366.1269123 C-3.855524 365.12574917 -3.85555742 364.12458604 -3.85559186 363.09308463 C-3.85668962 330.79601159 -3.86096515 298.49893993 -3.86689553 266.20186745 C-3.87285136 233.68746355 -3.87571504 201.17306099 -3.87423731 168.65865654 C-3.87403421 164.17266021 -3.87386684 159.68666389 -3.87372101 155.20066756 C-3.87369113 154.32123034 -3.87366125 153.44179311 -3.87363046 152.53570627 C-3.87324877 138.5709238 -3.87624336 124.60614413 -3.88062319 110.64136242 C-3.88485395 96.93311168 -3.88556396 83.22486461 -3.88244514 69.51661354 C-3.88072157 61.46458891 -3.88178249 53.41257586 -3.88683033 45.36055257 C-3.89026295 39.40587281 -3.88856481 33.45120214 -3.8847533 27.49652234 C-3.88403192 25.0853362 -3.88503071 22.67414885 -3.88784857 20.26296424 C-3.89140437 17.01764682 -3.88893441 13.77239134 -3.88481182 10.52707601 C-3.8873207 9.57564539 -3.88982958 8.62421477 -3.89241448 7.64395292 C-3.87183709 0.17485478 -3.87183709 0.17485478 0 0 Z " fill="#1A4D7A" transform="translate(5000.760613325983,962.8753288350999)"/>
<path d="M0 0 C1.21095255 -0.00256411 2.42190509 -0.00512821 3.66955317 -0.00777002 C5.01360366 -0.00556184 6.357654 -0.0032629 7.70170419 -0.00088333 C9.1372699 -0.00200031 10.57283533 -0.00355552 12.00840014 -0.00550923 C15.97779885 -0.00962783 19.94717378 -0.00747971 23.9165725 -0.00436337 C28.2418075 -0.00206716 32.56703839 -0.00556489 36.89227258 -0.00833018 C44.51022874 -0.01239217 52.12817809 -0.01270616 59.74613495 -0.01062424 C71.15057923 -0.00752457 82.55501723 -0.01015635 93.95946105 -0.01392295 C113.39307722 -0.0201689 132.82669117 -0.02162726 152.26030819 -0.02050548 C171.96366661 -0.01938243 191.66702315 -0.0204102 211.37038128 -0.02407794 C212.61328979 -0.02430759 213.8561983 -0.02453725 215.1367707 -0.02477386 C220.19866692 -0.02571546 225.26056313 -0.02667114 230.32245934 -0.02764505 C282.46637677 -0.03766286 334.61029262 -0.04083733 386.7542108 -0.04141348 C392.44368763 -0.04147673 398.13316445 -0.04154325 403.82264128 -0.04161404 C405.24862858 -0.04163173 406.67461588 -0.0416491 408.10060319 -0.04166616 C440.08950655 -0.04205377 472.07840969 -0.04423172 504.06731294 -0.04679641 C511.20435287 -0.04736797 518.34139281 -0.04792194 525.47843274 -0.04847705 C526.54108854 -0.04855973 526.54108854 -0.04855973 527.62521214 -0.04864408 C531.92551965 -0.04897858 536.22582715 -0.04931235 540.52613466 -0.04964564 C542.68033038 -0.04981272 544.8345261 -0.04998023 546.98872182 -0.05014778 C580.48398679 -0.05274978 613.97925178 -0.05498004 647.47451679 -0.05682998 C648.20436159 -0.05687035 648.93420638 -0.05691072 649.68616768 -0.05695231 C696.20146377 -0.05951582 742.71675972 -0.06041477 789.23205587 -0.06015198 C791.51971315 -0.06013922 793.80737043 -0.06012726 796.09502771 -0.06011557 C812.16712937 -0.06003323 828.23923103 -0.05993052 844.3113327 -0.05982269 C848.91964994 -0.05979192 853.52796718 -0.05976185 858.13628443 -0.05973187 C861.98022508 -0.05970678 865.82416573 -0.05968099 869.66810638 -0.05965376 C942.27455815 -0.05914231 1014.88100882 -0.0605607 1087.48746006 -0.07000117 C1088.25189942 -0.07010053 1089.01633878 -0.07019989 1089.80394296 -0.07030226 C1113.68858134 -0.0734136 1137.57321968 -0.0767801 1161.45785801 -0.08019404 C1185.96492409 -0.08369541 1210.47199017 -0.08716584 1234.97905628 -0.09045844 C1235.73362323 -0.09055997 1236.48819017 -0.09066149 1237.26562278 -0.0907661 C1284.51447873 -0.09711423 1331.76333438 -0.10103692 1379.01219074 -0.10231643 C1379.74182209 -0.10233646 1380.47145343 -0.10235648 1381.22319481 -0.10237712 C1413.26525155 -0.1032524 1445.30730827 -0.10357223 1477.34936502 -0.10328623 C1490.23955009 -0.10317195 1503.12973516 -0.10311588 1516.01992022 -0.10308291 C1518.15720823 -0.10307651 1520.29449624 -0.10306743 1522.43178424 -0.10305776 C1555.13306766 -0.10292123 1587.83435006 -0.10426949 1620.53563301 -0.11010294 C1621.24111737 -0.11022861 1621.94660173 -0.11035428 1622.6734644 -0.11048376 C1634.02246283 -0.11251285 1645.37146123 -0.11465686 1656.72045964 -0.11681057 C1703.2061913 -0.12562501 1749.69191713 -0.12816294 1796.17764967 -0.12145026 C1802.49773129 -0.1205379 1808.81781292 -0.11969464 1815.13789456 -0.11889224 C1816.99633428 -0.11865211 1816.99633428 -0.11865211 1818.89231823 -0.11840713 C1838.54466397 -0.11605011 1858.19700227 -0.12042094 1877.8493466 -0.12756343 C1897.15328077 -0.13443949 1916.45720392 -0.13422737 1935.76113784 -0.12637129 C1947.09149597 -0.12197468 1958.4218217 -0.12309758 1969.75217718 -0.13223808 C1977.2665917 -0.13775771 1984.7809819 -0.13609126 1992.29539453 -0.12845529 C1996.56184457 -0.12432447 2000.8282306 -0.12335523 2005.09467686 -0.13120598 C2008.9650394 -0.13826993 2012.83528362 -0.13614558 2016.70564002 -0.12667229 C2018.09422212 -0.12488122 2019.48281365 -0.1264322 2020.87138669 -0.13175842 C2040.47725249 -0.20188834 2055.32821086 5.89694372 2069.70444004 19.3131165 C2085.52607832 35.70285669 2088.48171463 55.0484879 2088.40512364 76.77039189 C2088.40919636 78.72326047 2088.41454215 80.67612673 2088.42105381 82.62898869 C2088.43464898 87.89750985 2088.4294614 93.1658534 2088.41991656 98.43437738 C2088.41228041 103.96740223 2088.4193764 109.50041266 2088.42407505 115.03343816 C2088.42952067 124.32110915 2088.42237189 133.60870838 2088.40805332 142.89636846 C2088.39172434 153.61134571 2088.397022 164.32615171 2088.41353254 175.04112483 C2088.42717572 184.26699069 2088.42905338 193.4928052 2088.42121653 202.71867789 C2088.41655619 208.21748701 2088.41586997 213.7162158 2088.425826 219.21501965 C2088.43453486 224.38537729 2088.42840249 229.55551548 2088.41114323 234.72584958 C2088.40719946 236.61557125 2088.40827595 238.50531161 2088.41493122 240.39502568 C2088.44687427 250.391766 2088.19842589 259.52464923 2085.01694004 269.1256165 C2084.64053379 270.26256963 2084.26412754 271.39952275 2083.87631504 272.570929 C2081.03312357 279.43863799 2077.54496124 285.24024937 2073.01694004 291.1256165 C2072.29506504 292.1362415 2071.57319004 293.1468665 2070.82944004 294.1881165 C2061.24829148 305.282078 2046.34078511 312.66065134 2032.01694004 315.1256165 C2030.02872655 315.21429278 2028.03790144 315.25159694 2026.04771149 315.25217834 C2024.23592307 315.25634131 2024.23592307 315.25634131 2022.38753286 315.26058839 C2021.04698134 315.25861888 2019.70642995 315.25655859 2018.36587869 315.25441767 C2016.93399707 315.25578611 2015.50211581 315.25759227 2014.07023523 315.25979649 C2010.11107715 315.26460827 2006.15194179 315.26315784 2002.19278242 315.26073879 C1997.87866948 315.25920069 1993.56456164 315.26344983 1989.25045039 315.26696555 C1981.65207075 315.27234846 1974.0536973 315.27398145 1966.4553159 315.27321481 C1955.08007313 315.27208136 1943.70483759 315.27665416 1932.32959645 315.28234565 C1912.94549162 315.29186732 1893.56138824 315.29656647 1874.17728131 315.29865498 C1854.52390585 315.30078182 1834.87053263 315.30503766 1815.21715824 315.31189771 C1813.35751017 315.31254363 1813.35751017 315.31254363 1811.46029345 315.3132026 C1806.41118197 315.3149609 1801.36207049 315.31673054 1796.31295902 315.31851562 C1735.77705225 315.33987599 1675.24114568 315.35079212 1614.70523611 315.35967785 C1594.13456352 315.36270097 1573.56389104 315.36616157 1552.99321859 315.36995907 C1552.29305702 315.37008818 1551.59289545 315.3702173 1550.87151687 315.37035033 C1544.4982446 315.3715258 1538.12497233 315.37270498 1531.75170006 315.37388759 C1459.73792222 315.3872426 1387.72414404 315.39963675 1241.0050882 315.41464662 C1234.15328085 315.41517108 1227.3014735 315.4157084 1220.44966615 315.41624509 C1218.16144947 315.41642429 1215.8732328 315.41660326 1213.58501612 315.41678218 C1199.04848602 315.41791926 1184.51195592 315.41906533 1169.97542582 315.42023037 C1166.14019212 315.42053768 1162.30495842 315.42084362 1158.46972472 315.42114628 C1086.03742225 315.42686591 1013.60512328 315.43610796 941.17282383 315.45856328 C940.41036473 315.45879951 939.64790563 315.45903574 938.8623417 315.45927912 C914.27328912 315.46690698 889.68423668 315.47495581 865.09518425 315.48306439 C841.41850215 315.49087196 817.74182003 315.49859538 794.06513779 315.50595422 C792.93620594 315.50630535 792.93620594 315.50630535 791.7844674 315.50666358 C744.64892465 315.52130054 697.51338285 315.53110208 650.37783806 315.53582902 C649.64982636 315.53590261 648.92181465 315.53597621 648.17174199 315.53605203 C616.19896091 315.53927803 584.22617984 315.54144643 552.25339861 315.54243504 C539.39053612 315.54283585 526.52767364 315.54336924 513.66481116 315.54396646 C511.53207557 315.54406393 509.39933998 315.54415631 507.26660439 315.54424784 C474.64449662 315.54567653 442.02239335 315.55024602 409.40028827 315.56412382 C408.69679679 315.56442289 407.99330531 315.56472196 407.26849591 315.5650301 C395.95194367 315.56985864 384.63539155 315.57494055 373.31883945 315.58005609 C326.94215153 315.60101292 280.56548541 315.60963706 234.18879153 315.59993124 C227.87990555 315.59861274 221.57101955 315.59743471 215.26213352 315.59634061 C214.02539553 315.59612076 212.78865753 315.59590091 211.51444263 315.5956744 C191.91701331 315.59255783 172.31961502 315.60289534 152.7221929 315.61881616 C133.46039581 315.63418612 114.19864171 315.63533349 94.93684314 315.62126792 C83.63894329 315.61344696 72.34117461 315.61660137 61.04328781 315.63590508 C53.54145348 315.64763191 46.03971509 315.6448685 38.53788599 315.63029044 C34.2842648 315.6224312 30.03090043 315.62073916 25.77729691 315.63690948 C21.9102937 315.65149277 18.04375999 315.6473354 14.17677754 315.62885782 C12.15280094 315.62382465 10.12880347 315.63818386 8.10487943 315.6536138 C-11.52714312 315.50231302 -27.74963984 308.78113836 -41.98305996 295.1256165 C-47.53331292 289.03365885 -51.57772843 282.48661355 -54.92055996 275.0006165 C-55.20318691 274.36825078 -55.48581386 273.73588506 -55.77700527 273.08435674 C-60.55971186 261.64253811 -60.28108383 250.06422531 -60.2735873 237.88489385 C-60.27957907 235.93895822 -60.2863861 233.99302496 -60.29394253 232.04709477 C-60.31154595 226.78230491 -60.31629558 221.51758015 -60.3175741 216.2527637 C-60.31899972 212.95632202 -60.32327714 209.65989667 -60.32856853 206.36345906 C-60.34705168 194.84259859 -60.35524149 183.32178428 -60.35366543 171.80090947 C-60.35246523 161.09570514 -60.37354826 150.39070282 -60.40515275 139.68554957 C-60.43138852 130.46733019 -60.44202963 121.24917648 -60.44075461 112.0309201 C-60.44024702 106.53748416 -60.44581671 101.0442278 -60.46711071 95.55082936 C-60.48661591 90.37800581 -60.48653431 85.20553085 -60.47207744 80.03269429 C-60.47000324 78.14625895 -60.4746062 76.25980106 -60.48679836 74.37340398 C-60.61603883 52.97159708 -56.3800155 35.13606931 -41.12368496 19.23108525 C-40.06407558 18.18887822 -40.06407558 18.18887822 -38.98305996 17.1256165 C-38.42102871 16.56487431 -37.85899746 16.00413213 -37.27993496 15.42639775 C-27.13297824 6.04292564 -13.85497031 0.00159339 0 0 Z " fill="#FEFEFE" transform="translate(1985.9830599576235,1847.8743834979832)"/>
<path d="M0 0 C1316.7 0 2633.4 0 3990 0 C3990 477.51 3990 955.02 3990 1447 C2673.3 1447 1356.6 1447 0 1447 C0 969.49 0 491.98 0 0 Z M12 12 C12 481.59 12 951.18 12 1435 C1320.78 1435 2629.56 1435 3978 1435 C3978 965.41 3978 495.82 3978 12 C2669.22 12 1360.44 12 12 12 Z " fill="#FEFEFE" transform="translate(1005,964)"/>
<path d="M0 0 C23.76 0 47.52 0 72 0 C78.92081262 22.76178373 85.7850101 45.53356054 92.4375 68.375 C92.72369202 69.35718506 93.00988403 70.33937012 93.30474854 71.35131836 C96.2763241 81.55583075 99.22388106 91.76684583 102.13671875 101.98828125 C104.49931578 110.27836563 106.91337003 118.5511932 109.375 126.8125 C109.90673828 128.60204102 109.90673828 128.60204102 110.44921875 130.42773438 C111.29849949 133.28544929 112.14874692 136.14287212 113 139 C115.57716384 132.44388419 117.60016129 125.7986426 119.546875 119.03125 C119.88116516 117.87870728 120.21545532 116.72616455 120.55987549 115.53869629 C121.62618548 111.85997331 122.6882025 108.18002767 123.75 104.5 C124.44762451 102.08975917 125.14553876 99.67960218 125.84375 97.26953125 C126.88427883 93.67731073 127.92441082 90.08497854 128.96307373 86.49221802 C131.17151228 78.85319395 133.39371354 71.2183156 135.625 63.5859375 C138.87992066 52.44548272 142.07286554 41.28784966 145.25 30.125 C146.27523874 26.52320815 147.30142295 22.92168747 148.328125 19.3203125 C148.55316711 18.52851593 148.77820923 17.73671936 149.0100708 16.92092896 C150.62294837 11.26360588 152.30917098 5.63609674 154 0 C177.76 0 201.52 0 226 0 C226 65.34 226 130.68 226 198 C209.83 198 193.66 198 177 198 C176.95989119 171.3811202 176.95989119 171.3811202 176.95117188 159.86132812 C176.94523961 152.06127221 176.93829302 144.26122824 176.92456055 136.46118164 C176.91353666 130.15874922 176.90768278 123.85632965 176.90512276 117.55388832 C176.90330305 115.17307648 176.8997518 112.79226519 176.89426994 110.41145897 C176.86604428 97.62096248 176.99525681 84.85118634 177.44360352 72.06762695 C177.48245887 70.91720256 177.52131422 69.76677816 177.56134701 68.58149242 C177.6028214 67.51527818 177.64429579 66.44906393 177.68702698 65.35054016 C177.74108121 63.9422216 177.74108121 63.9422216 177.79622746 62.50545216 C177.98193311 60.22213854 178.36653249 58.19611132 179 56 C178.34 56 177.68 56 177 56 C176.83455688 56.89682495 176.83455688 56.89682495 176.66577148 57.81176758 C175.44198691 64.20828814 173.85650794 70.42952865 172.0625 76.6875 C171.61777344 78.25757813 171.61777344 78.25757813 171.1640625 79.859375 C170.49250127 82.23006706 169.81938998 84.60032037 169.14501953 86.97021484 C167.86984855 91.45349312 166.6045121 95.93953081 165.33984375 100.42578125 C165.10888504 101.24506607 164.87792633 102.06435089 164.63996887 102.90846252 C164.16607379 104.58963376 163.69220214 106.27081159 163.21835327 107.95199585 C162.49859668 110.50497759 161.77831742 113.05781128 161.05786133 115.6105957 C157.62937015 127.75931108 154.216843 139.91240452 150.81933594 152.06982422 C149.94575587 155.19399226 149.07070367 158.31774521 148.1953125 161.44140625 C147.89077148 162.52824707 147.58623047 163.61508789 147.27246094 164.73486328 C146.70552365 166.75800889 146.13848042 168.78112482 145.57128906 170.80419922 C143.03294905 179.86548275 140.51858013 188.93311154 138 198 C121.17 198 104.34 198 87 198 C83.62508555 189.00022815 83.62508555 189.00022815 82.52954102 185.09130859 C82.2824086 184.21614594 82.03527618 183.34098328 81.78065491 182.43930054 C81.52432785 181.51831573 81.26800079 180.59733093 81.00390625 179.6484375 C80.7290892 178.67194244 80.45427216 177.69544739 80.17112732 176.68936157 C79.29833462 173.5854762 78.43028894 170.48028762 77.5625 167.375 C76.69717705 164.29145354 75.83088487 161.20818039 74.96458435 158.12490845 C74.42834426 156.21495885 73.89284768 154.30480027 73.35829163 152.39437866 C71.26640325 144.9216593 69.13488853 137.46053243 67 130 C66.24147623 127.34429017 65.48363602 124.68838545 64.72583008 122.0324707 C62.7845241 115.22982205 60.8425846 108.42735446 58.90025806 101.62499714 C57.73337146 97.53826393 56.56673835 93.45145867 55.40063477 89.36450195 C54.26192071 85.37358087 53.12256624 81.38284313 51.98276329 77.39223289 C51.55073722 75.87921913 51.11894331 74.36613906 50.68738747 72.8529911 C50.08753261 70.74988185 49.48685812 68.64700835 48.88598633 66.54418945 C48.54497391 65.34953568 48.20396149 64.1548819 47.85261536 62.92402649 C47.27344098 60.93776012 46.65427036 58.96281108 46 57 C46.14414551 60.0209218 46.29030594 63.04172632 46.4375 66.0625 C46.47681641 66.89072266 46.51613281 67.71894531 46.55664062 68.57226562 C46.74349036 72.38112552 46.9326824 76.18391177 47.24621582 79.98486328 C48.22461735 92.20081594 48.12643912 104.40444633 48.09765625 116.65234375 C48.09578742 119.00745107 48.09436571 121.36255878 48.09336853 123.71766663 C48.08957998 129.86763615 48.07978165 136.01758145 48.06866455 142.1675415 C48.05655604 149.57255299 48.05203073 156.97757266 48.04621124 164.38259125 C48.03656739 175.58841093 48.01738535 186.79417763 48 198 C32.16 198 16.32 198 0 198 C0 132.66 0 67.32 0 0 Z " fill="#FDFDFE" transform="translate(4078,1233)"/>
<path d="M0 0 C23.76 0 47.52 0 72 0 C76.39586032 14.28654605 80.67527977 28.34281085 84.53295898 42.73657227 C85.889649 47.69693668 87.43685779 52.5780066 89.03515625 57.46484375 C92.19271329 67.2598934 95.13378342 77.11179639 98.0234375 86.98828125 C98.34951524 88.1020558 98.34951524 88.1020558 98.6821804 89.23833084 C100.48188428 95.38809575 102.27574908 101.53956031 104.06811523 107.69146729 C105.42051667 112.33296497 106.77542301 116.97371506 108.13405228 121.61339378 C108.76423622 123.76930293 109.39063445 125.92628899 110.01693726 128.08332825 C110.39829847 129.38674679 110.77984887 130.69010999 111.16162109 131.9934082 C111.4935849 133.13284378 111.82554871 134.27227936 112.16757202 135.44624329 C112.75649883 137.90754898 112.75649883 137.90754898 114 139 C114.26627197 138.06542969 114.53254395 137.13085938 114.80688477 136.16796875 C123.70005771 104.96219266 123.70005771 104.96219266 127.5 92 C130.60160219 81.41904724 133.62891267 70.81745816 136.6517334 60.21380615 C139.56430747 49.99894968 142.49713465 39.79067077 145.4921875 29.59960938 C148.38297988 19.74809322 151.17911718 9.87308986 154 0 C177.76 0 201.52 0 226 0 C226 65.34 226 130.68 226 198 C209.83 198 193.66 198 177 198 C176.9772998 183.09051019 176.95893237 168.18102942 176.94818783 153.27152634 C176.94306315 146.34653854 176.93609479 139.42156236 176.92456055 132.49658203 C176.91340996 125.79866631 176.90769551 119.10076507 176.90512276 112.40283966 C176.90329209 109.86273256 176.89971797 107.32262603 176.89426994 104.78252411 C176.87011936 93.04279828 176.87442504 81.31918134 177.44360352 69.59082031 C177.48245887 68.78435436 177.52131422 67.97788841 177.56134701 67.1469841 C177.77317915 63.35101513 178.122435 59.70299101 179 56 C178.34 56 177.68 56 177 56 C176.89056564 56.59384995 176.78113129 57.18769989 176.66838074 57.79954529 C175.42256213 64.31409138 173.80131402 70.65763312 171.98828125 77.03515625 C171.55131172 78.58969765 171.55131172 78.58969765 171.10551453 80.17564392 C170.17802371 83.47226469 169.24540272 86.76740714 168.3125 90.0625 C167.70603101 92.21409431 167.09990879 94.3657864 166.49414062 96.51757812 C165.27786443 100.83657053 164.05971755 105.15502902 162.84033203 109.47314453 C160.99276126 116.01998475 159.15701057 122.57010282 157.32421875 129.12109375 C154.7236763 138.41619865 152.11595207 147.70922028 149.5 157 C145.65452324 170.66328168 141.82414189 184.33072687 138 198 C121.17 198 104.34 198 87 198 C85.01867726 193.37691361 83.4884923 189.58824809 82.2668457 184.84155273 C81.9611113 183.67028336 81.65537689 182.49901398 81.34037781 181.29225159 C81.01793594 180.0395195 80.69549408 178.78678741 80.36328125 177.49609375 C79.65465896 174.78390764 78.94055281 172.07318385 78.22509766 169.36279297 C78.04224685 168.66919332 77.85939604 167.97559366 77.6710043 167.26097584 C75.75846134 160.03529015 73.72577733 152.8458532 71.66796875 145.66015625 C71.48664965 145.02692507 71.30533054 144.39369389 71.11851692 143.74127388 C70.00268676 139.8465436 68.88295205 135.95294455 67.76209641 132.05965805 C66.18433849 126.57575335 64.61314195 121.08996121 63.04077339 115.60450935 C62.65035609 114.24266455 62.25982724 112.88085173 61.86918449 111.51907158 C59.36573771 102.7920398 56.87876908 94.0605877 54.421875 85.3203125 C54.15969681 84.38769089 53.89751862 83.45506927 53.62739563 82.4941864 C52.44314248 78.27773793 51.26228189 74.06036183 50.0847168 69.84204102 C49.68019352 68.39859529 49.27565371 66.95515419 48.87109375 65.51171875 C48.53005615 64.28928467 48.18901855 63.06685059 47.83764648 61.80737305 C47.11180977 59.07960992 47.11180977 59.07960992 46 57 C46.05993134 57.96675156 46.11986267 58.93350311 46.18161011 59.92955017 C47.94649916 89.02398413 48.25506354 118.03005202 48.1373291 147.17144775 C48.11266077 153.95633836 48.10398529 160.74126855 48.09242249 167.52619171 C48.07342391 177.6842059 48.03495402 187.8419722 48 198 C32.16 198 16.32 198 0 198 C0 132.66 0 67.32 0 0 Z " fill="#FDFEFE" transform="translate(2818,1233)"/>
<path d="M0 0 C14.18896986 12.22807185 21.87243857 27.32010866 26.515625 45.16796875 C26.74894531 46.04324219 26.98226562 46.91851563 27.22265625 47.8203125 C29.77894655 58.28455122 29.72994678 69.03331794 29.75585938 79.74169922 C29.76549413 82.13545453 29.79657251 84.52832257 29.828125 86.921875 C29.92796578 101.24902652 28.60850471 115.62012839 23.265625 129.04296875 C22.96043945 129.83195557 22.65525391 130.62094238 22.34082031 131.43383789 C14.79867481 150.37640528 1.43622281 166.02106171 -17.22265625 174.7890625 C-33.33817105 181.60196876 -49.10243181 183.61493333 -66.484375 183.60546875 C-67.24795319 183.60587158 -68.01153137 183.60627441 -68.79824829 183.60668945 C-95.03409103 183.52729786 -118.10701161 176.86337072 -137.609375 158.54296875 C-150.47493928 145.17405689 -157.80115099 127.30585332 -160.484375 109.16796875 C-160.65138916 108.15863281 -160.81840332 107.14929687 -160.99047852 106.109375 C-162.34676013 97.50450153 -162.83637416 89.12358453 -162.796875 80.41796875 C-162.79123535 79.10538086 -162.7855957 77.79279297 -162.77978516 76.44042969 C-162.45613953 50.45264748 -155.76646333 23.74599246 -137.1328125 4.625 C-101.68242125 -28.26334232 -37.9338023 -29.35894579 0 0 Z " fill="#FDFEFE" transform="translate(2201.484375,1249.83203125)"/>
<path d="M0 0 C1.69617782 1.50913707 3.36447016 3.05033939 5 4.625 C5.77601563 5.36105469 6.55203125 6.09710937 7.3515625 6.85546875 C26.87023668 26.87720154 31.59889103 54.94547808 31.39111328 81.84204102 C31.37493164 84.32298107 31.3911381 86.80230947 31.41015625 89.28320312 C31.42916835 102.95679218 29.72267438 115.95529467 25.1875 128.9375 C24.92888184 129.68966797 24.67026367 130.44183594 24.40380859 131.21679688 C17.91745064 149.49331849 5.76568902 163.97346473 -11 173.625 C-11.75667969 174.07746094 -12.51335938 174.52992188 -13.29296875 174.99609375 C-18.6448763 177.95299964 -24.20649086 179.71932416 -30.0625 181.375 C-30.80636963 181.58592285 -31.55023926 181.7968457 -32.31665039 182.01416016 C-58.83806536 189.12973292 -93.46795543 187.227399 -117.51171875 173.73046875 C-137.76732244 161.74539578 -150.51077538 144.41166842 -156.73217773 121.71337891 C-157.58678335 118.36990064 -158.31622567 115.00711876 -159 111.625 C-159.226875 110.51511719 -159.45375 109.40523437 -159.6875 108.26171875 C-164.90725342 76.83445337 -161.49434284 41.17634937 -142.62524414 14.74804688 C-129.22663006 -3.31561874 -109.70894074 -13.50348403 -87.8125 -17.125 C-58.43338967 -21.48080434 -24.12877833 -19.06679686 0 0 Z " fill="#FDFEFE" transform="translate(2679,1248.375)"/>
<path d="M0 0 C19.04165079 18.32857926 25.40141521 44.61336223 26.0546875 70.1953125 C26.4072052 92.23496767 25.61110954 113.50936197 15.81640625 133.7109375 C15.34203125 134.70222656 14.86765625 135.69351562 14.37890625 136.71484375 C4.52783237 155.96191474 -12.05961913 169.00107596 -32.44067383 175.59790039 C-43.86444262 178.99500181 -54.64143778 180.18024249 -66.49975586 180.04711914 C-68.74824834 180.02341479 -70.99555341 180.02660473 -73.24414062 180.03320312 C-97.97884802 179.98721243 -121.66484341 174.17937713 -139.60546875 156.35546875 C-140.45625 155.48277344 -141.30703125 154.61007812 -142.18359375 153.7109375 C-142.84875 153.05480469 -143.51390625 152.39867187 -144.19921875 151.72265625 C-153.39960392 142.04567455 -158.83714944 129.46240199 -162.18359375 116.7109375 C-162.37969238 115.98680664 -162.57579102 115.26267578 -162.77783203 114.51660156 C-165.808811 102.85365224 -166.55492377 91.33275536 -166.55859375 79.3359375 C-166.56028564 78.01795166 -166.56197754 76.69996582 -166.5637207 75.34204102 C-166.26547834 48.98960952 -160.54974878 24.09867628 -143.18359375 3.7109375 C-142.64476562 3.05996094 -142.1059375 2.40898438 -141.55078125 1.73828125 C-107.91292912 -35.36477676 -35.39775227 -30.73650979 0 0 Z " fill="#FEFEFE" transform="translate(1483.18359375,1253.2890625)"/>
<path d="M0 0 C23.1 0 46.2 0 70 0 C76.95580655 12.752312 83.86966002 25.45012886 90.45358276 38.38616943 C92.48742576 42.38179534 94.53146588 46.3722053 96.57421875 50.36328125 C97.16315666 51.51479675 97.16315666 51.51479675 97.76399231 52.6895752 C101.71448801 60.40852387 105.75080691 68.08048819 109.80908203 75.74316406 C112.18046374 80.23702476 114.52619423 84.7443113 116.875 89.25 C117.37467285 90.2080957 117.8743457 91.16619141 118.38916016 92.15332031 C120.98943382 97.14016939 123.58733964 102.12824469 126.18359375 107.1171875 C131.38924878 117.11523525 136.61829426 127.09549182 142 137 C141.97021844 136.35283587 141.94043688 135.70567173 141.90975285 135.03889656 C141.14757692 118.07624108 140.86334108 101.1578176 140.90234375 84.1796875 C140.90421604 81.72820058 140.90563609 79.27671327 140.90663147 76.82522583 C140.91039293 70.46991892 140.92016621 64.11463601 140.93133545 57.75933838 C140.94351949 50.08206681 140.94798223 42.40478708 140.95378876 34.72750854 C140.96338347 23.15165583 140.98258397 11.57585545 141 0 C156.84 0 172.68 0 189 0 C189 65.34 189 130.68 189 198 C165.57 198 142.14 198 118 198 C115.2775 192.699375 112.555 187.39875 109.75 181.9375 C104.00095056 170.75251669 98.23467571 159.57744511 92.40478516 148.43432617 C88.45614394 140.88425884 84.53694262 133.31912632 80.625 125.75 C79.98763455 124.51692484 79.35026476 123.28385192 78.71289062 122.05078125 C78.39738251 121.44039001 78.08187439 120.82999878 77.75680542 120.20111084 C77.44131744 119.59075989 77.12582947 118.98040894 76.80078125 118.3515625 C76.48489044 117.74040588 76.16899963 117.12924927 75.84353638 116.49957275 C70.80403974 106.75060503 65.75357883 97.00732669 60.69628906 87.26757812 C59.54396852 85.04785185 58.39229868 82.82778769 57.24121094 80.60742188 C55.55852081 77.36230087 53.87334732 74.11848171 52.1875 70.875 C51.67743408 69.89031738 51.16736816 68.90563477 50.6418457 67.89111328 C50.17609131 66.99634277 49.71033691 66.10157227 49.23046875 65.1796875 C48.82207764 64.39319824 48.41368652 63.60670898 47.99291992 62.79638672 C47.1278717 61.03560577 47.1278717 61.03560577 46 60 C46.1065818 61.79282661 46.1065818 61.79282661 46.21531677 63.62187195 C47.04993641 78.63517037 47.12996861 93.61145122 47.09765625 108.64453125 C47.09578601 111.23768588 47.09436498 113.83084086 47.09336853 116.42399597 C47.08997458 122.49006164 47.08213952 128.5561058 47.07201904 134.62216347 C47.06072878 141.54391881 47.05531537 148.46567517 47.05032361 155.38743746 C47.03995204 169.59163653 47.02165933 183.79581376 47 198 C31.49 198 15.98 198 0 198 C0 132.66 0 67.32 0 0 Z " fill="#FDFEFE" transform="translate(3288,1233)"/>
<path d="M0 0 C23.1 0 46.2 0 70 0 C82.32142857 23.61607143 82.32142857 23.61607143 86.81201172 32.23144531 C90.81661942 39.91302454 94.83222592 47.58843798 98.875 55.25 C103.57042789 64.15003115 108.19666169 73.08551797 112.82324219 82.02148438 C116.61954848 89.3495748 120.44071024 96.66371147 124.29272461 103.96264648 C127.73438488 110.48634806 131.15111674 117.02291976 134.5625 123.5625 C135.0879541 124.56958008 135.6134082 125.57666016 136.15478516 126.61425781 C139.86386404 133.72772807 139.86386404 133.72772807 141 136 C141 91.12 141 46.24 141 0 C156.51 0 172.02 0 188 0 C188 65.34 188 130.68 188 198 C164.9 198 141.8 198 118 198 C106.53860294 176.22334559 106.53860294 176.22334559 101.25 166 C100.04689136 163.67707486 98.84376587 161.35415845 97.640625 159.03125 C97.03798828 157.86722656 96.43535156 156.70320313 95.81445312 155.50390625 C92.87871887 149.83468423 89.93919948 144.167426 87 138.5 C85.83201701 136.24740322 84.66404827 133.99479904 83.49609375 131.7421875 C81.17618014 127.26802217 78.85583394 122.79408156 76.53515625 118.3203125 C75.9620874 117.2154248 75.38901855 116.11053711 74.79858398 114.97216797 C73.64588606 112.74976767 72.49305512 110.52743637 71.34008789 108.30517578 C68.20696535 102.26420225 65.08022991 96.21999702 61.9609375 90.171875 C60.94788407 88.20885222 59.93474745 86.24587239 58.92160034 84.28289795 C57.96696714 82.43212863 57.01385587 80.58058119 56.06079102 78.72900391 C55.17798462 77.01849854 55.17798462 77.01849854 54.27734375 75.2734375 C53.76421631 74.27747559 53.25108887 73.28151367 52.72241211 72.25537109 C51.30867736 69.5834024 49.86278637 66.93737067 48.39234924 64.29653931 C47.71956861 63.08763251 47.71956861 63.08763251 47.03319645 61.85430336 C46.69224162 61.24238325 46.35128679 60.63046314 46 60 C46.02978156 60.61509147 46.05956312 61.23018293 46.09024715 61.86391354 C46.88196554 78.63891966 47.13542288 95.3684049 47.09765625 112.16015625 C47.09578445 114.65791292 47.09436416 117.15566996 47.09336853 119.65342712 C47.08960325 126.13533596 47.07982637 132.61722134 47.06866455 139.09912109 C47.05831942 145.75032249 47.05384324 152.4015272 47.04882812 159.05273438 C47.03819687 172.03516806 47.02065089 185.01757838 47 198 C31.49 198 15.98 198 0 198 C0 132.66 0 67.32 0 0 Z " fill="#FEFEFE" transform="translate(4499,1233)"/>
<path d="M0 0 C111.04120879 0 111.04120879 0 131.8125 19.125 C142.43496703 30.40412863 145.35295684 42.45451654 145.3125 57.375 C145.32861328 58.55578125 145.34472656 59.7365625 145.36132812 60.953125 C145.36519079 67.89046858 144.74796354 73.61394759 142 80 C141.64679688 80.88429688 141.29359375 81.76859375 140.9296875 82.6796875 C135.21147805 94.58203457 125.9434569 105.02827155 114 111 C114.61993162 114.09839262 115.63939476 116.27750102 117.37890625 118.90600586 C117.87960129 119.66847122 118.38029633 120.43093658 118.89616394 121.21650696 C119.44605484 122.0409581 119.99594574 122.86540924 120.5625 123.71484375 C121.42534355 125.02239876 121.42534355 125.02239876 122.30561829 126.35636902 C124.19811429 129.22051699 126.09896354 132.07901502 128 134.9375 C129.30658492 136.91171423 130.61281552 138.886163 131.91870117 140.86083984 C138.3906976 150.63336243 144.90950804 160.37325673 151.48828125 170.07421875 C152.071008 170.93383713 152.65373474 171.79345551 153.25411987 172.67912292 C156.02117106 176.75786068 158.79520182 180.83160506 161.58007812 184.89819336 C162.57035242 186.35137254 163.56058904 187.80457739 164.55078125 189.2578125 C165.00560379 189.91718307 165.46042633 190.57655365 165.92903137 191.25590515 C169 195.77398421 169 195.77398421 169 198 C161.33418279 198.34897138 153.66919477 198.61474839 145.99722385 198.77718258 C142.43318633 198.85519913 138.87461137 198.96073554 135.3137207 199.1315918 C112.44316032 200.1999808 112.44316032 200.1999808 106.90527344 196.66159058 C103.67068753 193.26672736 102.09567292 189.34878975 100.67221069 184.93710327 C99.69247255 182.11380102 98.17172176 179.72139229 96.5859375 177.19921875 C95.51450096 175.36263445 94.44420566 173.52538394 93.375 171.6875 C92.79451904 170.69129639 92.21403809 169.69509277 91.6159668 168.66870117 C86.3465765 159.6160868 81.1111307 150.5439231 75.88623047 141.46557617 C75.29084473 140.43150635 74.69545898 139.39743652 74.08203125 138.33203125 C73.55843018 137.42171143 73.0348291 136.5113916 72.49536133 135.57348633 C71.46219884 133.79543477 70.39726305 132.0356035 69.30737305 130.29174805 C68 128 68 128 68 126 C63.38 126 58.76 126 54 126 C54 149.76 54 173.52 54 198 C36.18 198 18.36 198 0 198 C0 132.66 0 67.32 0 0 Z " fill="#FDFDFE" transform="translate(1545,1233)"/>
<path d="M0 0 C23.76 0 47.52 0 72 0 C73.78597824 4.76260864 75.53153682 9.46895357 77.13793945 14.28442383 C77.73137901 16.06008224 77.73137901 16.06008224 78.33680725 17.87161255 C78.76235648 19.15006618 79.18784611 20.42853965 79.61328125 21.70703125 C80.06329436 23.05601135 80.51340548 24.40495876 80.96360779 25.75387573 C82.16568321 29.35730761 83.36560701 32.96145223 84.56486511 36.5658226 C85.31819945 38.8296271 86.07206033 41.09325567 86.8260498 43.35684204 C93.04248355 62.0218839 99.22565037 80.69661681 105.27905273 99.4152832 C109.05497073 111.0798069 112.88543528 122.72579258 116.73486328 134.36622047 C117.6324599 137.08096484 118.52946796 139.79590294 119.42626953 142.51091003 C119.72421165 143.41286889 120.02215378 144.31482775 120.32912445 145.24411869 C120.93441073 147.07650772 121.53968106 148.90890202 122.14493561 150.74130154 C123.95509125 156.22015255 125.76923378 161.69766478 127.58602333 167.17431927 C128.72518122 170.61136204 129.86066435 174.04961082 130.99520493 177.48818016 C131.53218638 179.11297032 132.07075778 180.73723592 132.61096573 182.36095619 C133.35654833 184.60259167 134.09664758 186.84596592 134.83544922 189.08984375 C135.05660778 189.7503155 135.27776634 190.41078726 135.50562668 191.09127331 C136.41409498 193.86743657 137 196.05470908 137 199 C117.86 199 98.72 199 79 199 C75.4857987 187.05171559 72.16955145 175.04429552 69 163 C36.825 162.505 36.825 162.505 4 162 C3.505 165.96 3.505 165.96 3 170 C2.51117389 172.21551727 1.98052356 174.42226664 1.40625 176.6171875 C1.09816406 177.80054688 0.79007813 178.98390625 0.47265625 180.203125 C0.15167969 181.41484375 -0.16929687 182.6265625 -0.5 183.875 C-0.98146484 185.72738281 -0.98146484 185.72738281 -1.47265625 187.6171875 C-3.85611679 196.71223358 -3.85611679 196.71223358 -5 199 C-24.47 199 -43.94 199 -64 199 C-62.06446985 191.90305611 -60.07814095 184.93297101 -57.76953125 177.96484375 C-57.46270416 177.03046478 -57.15587708 176.09608582 -56.8397522 175.13339233 C-56.17884189 173.12100769 -55.51680209 171.10899369 -54.85372925 169.09732056 C-53.03910747 163.59048408 -51.2340553 158.08051592 -49.4296875 152.5703125 C-49.05740524 151.43364639 -48.68512299 150.29698029 -48.30155945 149.12586975 C-44.94508246 138.86231258 -41.65821097 128.57722604 -38.38406372 118.28717041 C-30.61998602 93.88778589 -22.64721185 69.55894116 -14.62600422 45.24313927 C-13.66309855 42.32380314 -12.70095794 39.40421508 -11.73881721 36.48462677 C-11.08616426 34.5056025 -10.43211904 32.52704278 -9.77793884 30.54852295 C-6.4291595 20.39107157 -3.22152995 10.2015115 0 0 Z " fill="#FDFEFE" transform="translate(3562,1232)"/>
<path d="M0 0 C1.88863014 0.00333092 1.88863014 0.00333092 3.81541443 0.00672913 C4.50806396 0.0065831 5.2007135 0.00643707 5.91435242 0.00628662 C8.21400537 0.00698577 10.51357828 0.01477823 12.81321716 0.02259827 C14.40362504 0.02446244 15.99403349 0.02588635 17.58444214 0.02688599 C21.77827021 0.03071123 25.97206386 0.04054156 30.1658783 0.05158997 C34.44220006 0.06180395 38.71852736 0.06638358 42.99485779 0.07142639 C51.39135799 0.08216383 59.78783017 0.09924032 68.18431091 0.12025452 C70.79858519 6.49224101 73.20387548 12.88958354 75.36399841 19.42884827 C75.65807587 20.31153885 75.95215332 21.19422943 76.25514221 22.10366821 C76.88009246 23.98152599 77.5035929 25.85986682 78.12571716 27.73866272 C79.01962243 30.43791067 79.91788201 33.13567099 80.81712341 35.83314514 C83.98710336 45.36227863 87.11802395 54.9038207 90.22093201 64.45497131 C90.62901281 65.71108687 90.62901281 65.71108687 91.04533768 66.99257851 C91.61558111 68.747986 92.18582105 70.50339464 92.75605774 72.25880432 C97.9516048 88.25146847 103.19151395 104.22858821 108.48682022 120.18851662 C109.54817395 123.38757788 110.60871755 126.58690661 111.66902161 129.78631592 C115.97015754 142.7636917 115.97015754 142.7636917 120.28147888 155.73768616 C122.07931964 161.14125024 123.8714207 166.54668732 125.65962601 171.95344734 C126.33290685 173.98556122 127.00832068 176.01696974 127.68595505 178.04763603 C128.61909656 180.84472336 129.54490086 183.64413679 130.46897888 186.44422913 C130.88482239 187.68185753 130.88482239 187.68185753 131.30906677 188.94448853 C131.55808746 189.70401825 131.80710815 190.46354797 132.06367493 191.24609375 C132.28147047 191.90186873 132.49926601 192.55764372 132.72366142 193.23329067 C133.18431091 195.12025452 133.18431091 195.12025452 133.18431091 199.12025452 C114.04431091 199.12025452 94.90431091 199.12025452 75.18431091 199.12025452 C73.53431091 193.18025452 71.88431091 187.24025452 70.18431091 181.12025452 C68.54454611 175.57606037 68.54454611 175.57606037 66.88352966 170.03822327 C66.18431091 167.12025452 66.18431091 167.12025452 66.18431091 162.12025452 C44.73431091 162.45025452 23.28431091 162.78025452 1.18431091 163.12025452 C-1.62795241 173.80685514 -4.42533555 184.45526654 -7.01881409 195.19056702 C-7.81568909 198.12025452 -7.81568909 198.12025452 -8.81568909 199.12025452 C-10.65686938 199.21406754 -12.5016655 199.23769406 -14.3452301 199.23377991 C-15.52637894 199.23370438 -16.70752777 199.23362885 -17.92446899 199.23355103 C-19.20986069 199.22838974 -20.49525238 199.22322845 -21.81959534 199.21791077 C-23.78182289 199.21578835 -23.78182289 199.21578835 -25.78369141 199.21362305 C-29.26731768 199.20979861 -32.75090248 199.19996898 -36.23451233 199.18891907 C-39.78695617 199.17870334 -43.33940668 199.17412508 -46.89186096 199.16908264 C-53.86648741 199.15834664 -60.84108626 199.14127111 -67.81568909 199.12025452 C-62.10759227 180.49154293 -56.19157177 161.94251502 -50.07780457 143.44273376 C-47.76695133 136.44963576 -45.46647451 129.45312107 -43.16725159 122.45619202 C-42.82172084 121.40488633 -42.82172084 121.40488633 -42.46920967 120.33234215 C-38.12045531 107.09587181 -33.85525868 93.83359362 -29.62818909 80.55775452 C-24.18003703 63.45783062 -18.67575619 46.37694321 -13.10508728 29.3165741 C-12.29122552 26.82316466 -11.47840957 24.3294136 -10.66667175 21.83531189 C-9.54368884 18.38629348 -8.41667113 14.9386219 -7.28834534 11.49134827 C-6.9506311 10.45236389 -6.61291687 9.41337952 -6.26496887 8.34291077 C-5.9556543 7.40117004 -5.64633972 6.45942932 -5.32765198 5.489151 C-5.0583638 4.66511276 -4.78907562 3.84107452 -4.5116272 2.99206543 C-3.41833311 0.05151686 -3.29472577 0.14071357 0 0 Z " fill="#FDFEFE" transform="translate(3132.815689086914,1231.8797454833984)"/>
<path d="M0 0 C-0.63713873 5.09061354 -2.15169856 9.47161788 -4.01953125 14.20703125 C-4.31937424 14.97303146 -4.61921722 15.73903168 -4.92814636 16.52824402 C-5.56119544 18.13723307 -6.19759421 19.74490782 -6.8371582 21.35131836 C-7.81399675 23.8162769 -8.76747724 26.28950262 -9.72070312 28.76367188 C-10.33973056 30.32868554 -10.96012583 31.89315901 -11.58203125 33.45703125 C-11.86448196 34.19862991 -12.14693268 34.94022858 -12.4379425 35.70429993 C-13.27661133 37.76879883 -13.27661133 37.76879883 -15 41 C-18.51122866 42.3283839 -20.26561594 41.75744018 -23.64453125 40.234375 C-41.5364766 32.63136147 -64.60244871 28.64277053 -83.27734375 35.6796875 C-96.35502742 42.02151975 -103.9667885 52.11789245 -108.6875 65.625 C-113.9454132 81.42811341 -113.29625784 105.65928057 -107 121 C-106.61457031 121.94359375 -106.22914063 122.8871875 -105.83203125 123.859375 C-101.17833622 134.04027417 -94.38772185 140.82090364 -83.8125 144.82910156 C-77.60092517 146.89718485 -72.01460944 147.40396418 -65.5 147.25 C-64.62730469 147.24484375 -63.75460938 147.2396875 -62.85546875 147.234375 C-56.80728724 147.16269285 -51.08092644 146.60809264 -45 146 C-45 135.44 -45 124.88 -45 114 C-56.88 114 -68.76 114 -81 114 C-81 100.47 -81 86.94 -81 73 C-52.62 73 -24.24 73 5 73 C5 108.31 5 143.62 5 180 C-20.84095506 187.23546742 -42.33446537 191.34974462 -68.4375 191.375 C-69.32131348 191.37708466 -70.20512695 191.37916931 -71.11572266 191.38131714 C-80.92256492 191.37869243 -90.37739181 191.11072777 -100 189 C-101.20011719 188.75121094 -102.40023437 188.50242187 -103.63671875 188.24609375 C-124.72724165 182.65616002 -142.73177343 169.77735845 -153.86328125 150.828125 C-163.58130512 132.43255091 -167.55800085 112.53643257 -167.39111328 91.86376953 C-167.3750071 89.50104089 -167.39108267 87.14002175 -167.41015625 84.77734375 C-167.44762459 58.78595985 -159.6432413 33.54822987 -141.00390625 14.78125 C-103.98665465 -20.48029116 -44.5499797 -17.3249921 0 0 Z " fill="#FDFEFE" transform="translate(3881,1242)"/>
<path d="M0 0 C106.8407516 0 106.8407516 0 127.98046875 18.95703125 C141.43327718 32.56596512 143.44315756 49.00251438 143.43603516 67.25366211 C143.17271329 84.50349474 138.23943678 100.15628727 126.18359375 112.94140625 C105.43796263 132.49945204 80.56414068 132 53 132 C53 153.78 53 175.56 53 198 C35.51 198 18.02 198 0 198 C0 132.66 0 67.32 0 0 Z " fill="#FEFEFE" transform="translate(1149,1233)"/>
<path d="M0 0 C38.94 0 77.88 0 118 0 C118 14.19 118 28.38 118 43 C96.88 43 75.76 43 54 43 C54 53.23 54 63.46 54 74 C73.47 74 92.94 74 113 74 C113 88.19 113 102.38 113 117 C93.53 117 74.06 117 54 117 C54 129.21 54 141.42 54 154 C75.12 154 96.24 154 118 154 C118 168.52 118 183.04 118 198 C79.06 198 40.12 198 0 198 C0 132.66 0 67.32 0 0 Z " fill="#FDFDFE" transform="translate(3926,1233)"/>
<path d="M0 0 C38.61 0 77.22 0 117 0 C117 14.19 117 28.38 117 43 C95.88 43 74.76 43 53 43 C53 53.23 53 63.46 53 74 C72.47 74 91.94 74 112 74 C112 88.19 112 102.38 112 117 C92.53 117 73.06 117 53 117 C53 129.54 53 142.08 53 155 C74.12 155 95.24 155 117 155 C117 169.19 117 183.38 117 198 C78.39 198 39.78 198 0 198 C0 132.66 0 67.32 0 0 Z " fill="#FFFFFF" transform="translate(4347,1233)"/>
<path d="M0 0 C38.61 0 77.22 0 117 0 C117 14.19 117 28.38 117 43 C95.55 43 74.1 43 52 43 C52 55.54 52 68.08 52 81 C71.8 81 91.6 81 112 81 C112 95.19 112 109.38 112 124 C92.53 124 73.06 124 53 124 C53 148.42 53 172.84 53 198 C35.51 198 18.02 198 0 198 C0 132.66 0 67.32 0 0 Z " fill="#FDFEFE" transform="translate(1897,1233)"/>
<path d="M0 0 C49.5 0 99 0 150 0 C150 14.52 150 29.04 150 44 C134.16 44 118.32 44 102 44 C102 94.82 102 145.64 102 198 C84.18 198 66.36 198 48 198 C48 147.18 48 96.36 48 44 C32.16 44 16.32 44 0 44 C0 29.48 0 14.96 0 0 Z " fill="#FDFDFE" transform="translate(4716,1233)"/>
<path d="M0 0 C49.83 0 99.66 0 151 0 C151 14.52 151 29.04 151 44 C134.83 44 118.66 44 102 44 C102 94.82 102 145.64 102 198 C84.51 198 67.02 198 49 198 C49 147.18 49 96.36 49 44 C32.83 44 16.66 44 0 44 C0 29.48 0 14.96 0 0 Z " fill="#FDFEFE" transform="translate(1718,1233)"/>
<path d="M0 0 C17.82 0 35.64 0 54 0 C54 51.15 54 102.3 54 155 C79.08 155 104.16 155 130 155 C130 169.19 130 183.38 130 198 C87.1 198 44.2 198 0 198 C0 132.66 0 67.32 0 0 Z " fill="#FDFDFE" transform="translate(2267,1233)"/>
<path d="M0 0 C17.49 0 34.98 0 53 0 C53 65.34 53 130.68 53 198 C35.51 198 18.02 198 0 198 C0 132.66 0 67.32 0 0 Z " fill="#FFFFFF" transform="translate(2429,1233)"/>
<path d="M0 0 C12.04908401 9.95359114 16.66328044 22.19095606 18.875 37.375 C20.0575389 59.85465678 20.85775719 84.43879471 4.875 102.375 C-5.73201098 110.3663365 -16.31796005 111.16824323 -29.125 110.375 C-37.70034606 109.1222934 -44.22350979 104.91491588 -49.84375 98.375 C-59.58492482 84.85663495 -61.47980677 69.1781089 -61.4375 53 C-61.45361328 51.77539062 -61.46972656 50.55078125 -61.48632812 49.2890625 C-61.49434759 34.14831265 -58.19191784 17.23159213 -48.125 5.375 C-35.15884119 -7.1997276 -15.75147755 -8.19076833 0 0 Z " fill="#13538E" transform="translate(1434.125,1278.625)"/>
<path d="M0 0 C7.5832025 6.10563808 11.98115583 14.67080968 14.42578125 23.953125 C14.60093262 24.60772705 14.77608398 25.2623291 14.95654297 25.93676758 C16.87091661 34.05449737 16.82206617 42.22599418 16.80078125 50.515625 C16.80056976 51.27157959 16.80035828 52.02753418 16.80014038 52.80639648 C16.75286391 69.70045295 15.28823658 87.23756503 3.29296875 100.3515625 C-6.71235855 108.9335378 -17.9594728 109.6939286 -30.56835938 109.12792969 C-38.73101786 108.41657824 -45.89693468 103.63040907 -51.57421875 97.953125 C-65.14029191 80.5196635 -65.36232992 54.6951086 -62.88671875 33.640625 C-60.70947891 20.68302401 -56.1534293 8.01616599 -45.69921875 -0.484375 C-32.51219259 -9.33422335 -13.2059644 -8.46167548 0 0 Z " fill="#13538E" transform="translate(2637.57421875,1280.046875)"/>
<path d="M0 0 C10.89111082 8.34489549 14.52921329 22.77824653 16.2890625 35.75390625 C16.67190448 40.90940294 16.7202454 46.02354854 16.6640625 51.19140625 C16.65940979 51.86611969 16.65475708 52.54083313 16.64996338 53.23599243 C16.51313599 70.18529731 15.19670643 87.21553416 2.98046875 100.29296875 C-6.70346196 108.65738003 -18.50325358 109.6131223 -30.73291016 108.94921875 C-39.14759178 108.11834424 -46.88826334 103.13687781 -52.36328125 96.859375 C-65.21839785 79.22856622 -65.92294663 53.64817135 -62.88842773 32.76489258 C-60.66126333 19.73113917 -56.06998623 7.25245816 -45.3359375 -1.12109375 C-31.96303057 -9.61509398 -13.09187288 -8.41041369 0 0 Z " fill="#13538E" transform="translate(2158.7109375,1280.24609375)"/>
<path d="M0 0 C13.86 0 27.72 0 42 0 C45.11083984 8.29557292 48.22167969 16.59114583 51.33251953 24.88671875 C51.78556961 26.09448975 51.78556961 26.09448975 52.24777222 27.32666016 C52.86895037 28.98364929 53.48943435 30.64089873 54.10940552 32.29833984 C55.66844239 36.46385165 57.23614099 40.62542256 58.83105469 44.77734375 C59.11254364 45.5144458 59.39403259 46.25154785 59.68405151 47.01098633 C60.20773026 48.38088453 60.7352638 49.74931784 61.2673645 51.1159668 C62.33314517 53.91325024 63 55.97507205 63 59 C63.66 59 64.32 59 65 59 C65.08773682 58.21407471 65.17547363 57.42814941 65.26586914 56.6184082 C66.22875994 51.87248054 67.95510107 47.59387252 69.74609375 43.10546875 C70.50846689 41.1608086 71.27083657 39.2161471 72.03320312 37.27148438 C73.23398525 34.22968281 74.43699605 31.18877282 75.64086914 28.14819336 C76.80640937 25.19857019 77.96396752 22.24590076 79.12109375 19.29296875 C79.47948837 18.39579636 79.837883 17.49862396 80.20713806 16.57426453 C80.54411209 15.71339737 80.88108612 14.85253021 81.22827148 13.96557617 C81.52281723 13.22200363 81.81736298 12.47843109 82.12083435 11.71232605 C83.3604803 7.88787725 84.12786588 3.92460352 85 0 C98.53 0 112.06 0 126 0 C126 1.65 126 3.3 126 5 C125.07767578 5.16435547 125.07767578 5.16435547 124.13671875 5.33203125 C122.92435547 5.56986328 122.92435547 5.56986328 121.6875 5.8125 C120.48673828 6.03873047 120.48673828 6.03873047 119.26171875 6.26953125 C116.57977359 7.13572079 115.67440156 7.73348855 114 10 C113.53503087 13.10206934 113.53503087 13.10206934 113.59594727 16.70288086 C113.58565239 17.71802513 113.58565239 17.71802513 113.57514954 18.75367737 C113.55684734 20.99094623 113.56072371 23.22751608 113.56640625 25.46484375 C113.56184586 27.02039315 113.55654071 28.57594054 113.55052185 30.13148499 C113.54158392 33.39234601 113.54402123 36.65296222 113.55395508 39.91381836 C113.56544237 44.09163478 113.54524132 48.26860568 113.51603794 52.446311 C113.49768616 55.65911727 113.49796635 58.87172058 113.50367546 62.08456612 C113.50382882 63.62474312 113.49777224 65.16493377 113.48538399 66.70506096 C113.47049501 68.85982047 113.48113315 71.01301392 113.49829102 73.16772461 C113.49845718 74.39333603 113.49862335 75.61894745 113.49879456 76.88169861 C114.09410208 80.58546579 115.07149462 81.73687756 118 84 C120.09989111 84.88246003 120.09989111 84.88246003 122.25 85.25 C124.10625 85.62125 124.10625 85.62125 126 86 C126 87.65 126 89.3 126 91 C109.83 91 93.66 91 77 91 C77 89.35 77 87.7 77 86 C77.77085937 85.81824219 78.54171875 85.63648438 79.3359375 85.44921875 C80.33882812 85.19785156 81.34171875 84.94648437 82.375 84.6875 C83.37273438 84.44386719 84.37046875 84.20023438 85.3984375 83.94921875 C88.3084986 83.17806142 88.3084986 83.17806142 90 80 C90.29166455 76.98563216 90.29166455 76.98563216 90.22705078 73.5090332 C90.22734283 72.8551059 90.22763489 72.20117859 90.22793579 71.5274353 C90.2265437 69.36841511 90.21098857 67.20974107 90.1953125 65.05078125 C90.19158193 63.55291431 90.18873517 62.05504493 90.18673706 60.55717468 C90.17910403 56.61649833 90.15945845 52.67596962 90.1373291 48.73535156 C90.11686353 44.71356198 90.10773382 40.69174853 90.09765625 36.66992188 C90.07621218 28.7798802 90.04208029 20.88995847 90 13 C79.94949799 38.64720553 69.91156862 64.29872721 60 90 C57.36 90 54.72 90 52 90 C49.17050435 83.03807963 46.497815 76.03056004 43.91796875 68.97265625 C43.35206779 67.43006386 43.35206779 67.43006386 42.7747345 65.85630798 C41.57762045 62.59220531 40.38249893 59.32737753 39.1875 56.0625 C38.39792401 53.90815271 37.60821148 51.75385545 36.81835938 49.59960938 C35.6559651 46.42918783 34.49368386 43.2587254 33.33200073 40.08804321 C29.89980557 30.72100481 26.45284304 21.35944422 23 12 C22.93031062 19.96286729 22.87709316 27.92560591 22.84456348 35.88870335 C22.82894625 39.58680094 22.80778089 43.28468899 22.77368164 46.98266602 C22.74094631 50.55532309 22.72311736 54.12777933 22.71536827 57.70057487 C22.70985005 59.05966284 22.69907446 60.41874054 22.68280983 61.77774239 C22.46310936 71.82715361 22.46310936 71.82715361 26 81 C28.08211786 82.61299376 28.08211786 82.61299376 30.5 83.375 C31.2734375 83.67148438 32.046875 83.96796875 32.84375 84.2734375 C34.56140671 84.85221313 36.28046715 85.42682238 38 86 C38 87.65 38 89.3 38 91 C25.13 91 12.26 91 -1 91 C-1 89.35 -1 87.7 -1 86 C-0.31292969 85.82984375 0.37414063 85.6596875 1.08203125 85.484375 C1.98308594 85.24203125 2.88414062 84.9996875 3.8125 84.75 C4.70582031 84.51796875 5.59914063 84.2859375 6.51953125 84.046875 C9.42856235 82.81912644 10.39982831 81.68546164 12 79 C13.07969941 75.76090178 13.14642918 73.36385957 13.17700195 69.95556641 C13.18983719 68.71062408 13.20267242 67.46568176 13.21589661 66.18301392 C13.22406365 64.82253416 13.23150745 63.4620499 13.23828125 62.1015625 C13.24235678 61.41550304 13.2464323 60.72944359 13.25063133 60.02259445 C13.27146949 56.3923447 13.28578176 52.76213251 13.29516602 49.13183594 C13.30623526 45.38687634 13.34064653 41.64251014 13.38033772 37.89776039 C13.40650551 35.0135082 13.41485785 32.12939753 13.41844749 29.24503708 C13.42331189 27.86474976 13.43492192 26.4844687 13.45348549 25.10429764 C13.47787886 23.17075204 13.47449192 21.23691684 13.4699707 19.30322266 C13.47583694 18.2041861 13.48170319 17.10514954 13.48774719 15.97280884 C12.88451995 12.29615151 11.57311169 10.64538667 9 8 C6.68934206 6.79252087 6.68934206 6.79252087 4.25 6.1875 C3.45078125 5.95417969 2.6515625 5.72085937 1.828125 5.48046875 C1.22484375 5.32191406 0.6215625 5.16335938 0 5 C0 3.35 0 1.7 0 0 Z " fill="#175FA1" transform="translate(3093,1958)"/>
<path d="M0 0 C0.68908195 0.00098694 1.37816391 0.00197388 2.08812714 0.00299072 C3.77042318 0.00554345 5.45271705 0.00946583 7.13500977 0.01367188 C7.14309662 1.09473206 7.15118347 2.17579224 7.15951538 3.28961182 C7.23696255 13.47204328 7.32469829 23.65434089 7.42253685 33.83659744 C7.47250651 39.07153925 7.51883658 44.3064608 7.55688477 49.54150391 C7.59372898 54.59254989 7.64008674 59.64342676 7.69307327 64.69432831 C7.71162178 66.62242418 7.72672805 68.55055632 7.73835373 70.47870636 C7.75520826 73.17706155 7.78424148 75.87502906 7.81616211 78.57324219 C7.8183223 79.37237534 7.82048248 80.17150848 7.82270813 80.99485779 C7.86845535 86.32874838 7.86845535 86.32874838 10.13500977 91.01367188 C12.30709565 91.92527281 12.30709565 91.92527281 14.76000977 92.26367188 C15.57727539 92.41320313 16.39454102 92.56273437 17.23657227 92.71679688 C17.86305664 92.81476563 18.48954102 92.91273437 19.13500977 93.01367188 C19.13500977 94.66367188 19.13500977 96.31367187 19.13500977 98.01367188 C8.14981185 99.28731801 -2.82400649 99.11452403 -13.86499023 99.01367188 C-14.19499023 97.36367187 -14.52499023 95.71367188 -14.86499023 94.01367188 C-15.55206055 94.43519531 -16.23913086 94.85671875 -16.94702148 95.29101562 C-17.84807617 95.83886719 -18.74913086 96.38671875 -19.67749023 96.95117188 C-20.57081055 97.49644531 -21.46413086 98.04171875 -22.38452148 98.60351562 C-28.21906017 101.92047384 -34.32811699 101.65468795 -40.86499023 101.01367188 C-48.24489605 98.83532726 -53.68798492 94.42359759 -57.86499023 88.01367188 C-62.84130118 77.92450488 -64.61082918 67.24246691 -62.25170898 56.12304688 C-58.97244763 46.93533665 -52.51086192 40.32664138 -43.94311523 35.88867188 C-39.36879086 33.96264056 -35.04067839 33.80029409 -30.11499023 33.76367188 C-29.43694336 33.74304687 -28.75889648 33.72242188 -28.06030273 33.70117188 C-22.72444711 33.66059503 -18.77021864 34.92400058 -13.86499023 37.01367188 C-13.91684542 33.09592283 -14.01191892 29.18038182 -14.11499023 25.26367188 C-14.12916992 24.1525 -14.14334961 23.04132813 -14.15795898 21.89648438 C-14.19018555 20.8265625 -14.22241211 19.75664063 -14.25561523 18.65429688 C-14.2765625 17.66977539 -14.29750977 16.68525391 -14.3190918 15.67089844 C-15.0066723 12.32401732 -16.24550371 11.14079195 -18.86499023 9.01367188 C-21.19126799 7.91974335 -21.19126799 7.91974335 -23.61499023 7.26367188 C-24.41420898 7.02132813 -25.21342773 6.77898437 -26.03686523 6.52929688 C-26.64014648 6.35914063 -27.24342773 6.18898438 -27.86499023 6.01367188 C-27.86499023 4.36367187 -27.86499023 2.71367188 -27.86499023 1.01367188 C-24.84437349 0.84194138 -21.8236027 0.67626266 -18.80249023 0.51367188 C-17.97426758 0.46597656 -17.14604492 0.41828125 -16.29272461 0.36914062 C-10.85915744 0.08208425 -5.44064666 -0.01496191 0 0 Z " fill="#175FA1" transform="translate(3036.864990234375,1949.986328125)"/>
<path d="M0 0 C0.88429688 0.00515625 1.76859375 0.0103125 2.6796875 0.015625 C9.15229056 0.09384377 9.15229056 0.09384377 11.63671875 0.74291992 C14.45158551 1.41834486 17.15461333 1.47090704 20.046875 1.56640625 C21.25214844 1.60830078 22.45742187 1.65019531 23.69921875 1.69335938 C25.58060547 1.75233398 25.58060547 1.75233398 27.5 1.8125 C28.76972656 1.85568359 30.03945312 1.89886719 31.34765625 1.94335938 C34.48166365 2.04939722 37.61574933 2.15146058 40.75 2.25 C40.75 4.56 40.75 6.87 40.75 9.25 C36.46 9.58 32.17 9.91 27.75 10.25 C28.74 11.9 29.73 13.55 30.75 15.25 C31.67478373 20.898679 31.56653038 26.84102778 28.26953125 31.6875 C18.14151145 42.10191625 4.19848475 41.66326932 -9.25 42.25 C-9.58 44.56 -9.91 46.87 -10.25 49.25 C-2.97518103 50.50534358 4.31314162 50.55049653 11.68164062 50.6796875 C21.10443746 50.96576862 29.20350363 52.18765352 36.375 58.65234375 C40.07566045 62.95225887 40.18655096 66.93195709 40.0546875 72.43359375 C39.49023839 77.65112972 37.74653123 81.30647402 33.984375 84.96875 C23.48083011 93.40466795 11.94912767 93.46048481 -1 93.5625 C-2.81757813 93.60600586 -2.81757813 93.60600586 -4.671875 93.65039062 C-13.87350413 93.71484169 -21.5268362 92.33451513 -29.3125 87.25 C-32.54425499 83.91399485 -33.13574958 82.03705847 -33.8125 77.375 C-33.7027063 73.90681063 -32.89440113 72.31462906 -30.375 69.9375 C-26.11852874 66.72985123 -21.38636851 65.42816099 -16.25 64.25 C-16.80429688 63.93546875 -17.35859375 63.6209375 -17.9296875 63.296875 C-18.65414062 62.86890625 -19.37859375 62.4409375 -20.125 62 C-20.84429688 61.58234375 -21.56359375 61.1646875 -22.3046875 60.734375 C-24.50912766 59.05227207 -25.279583 57.82628472 -26.25 55.25 C-26.80464815 50.89205028 -26.84719729 49.02284355 -24.125 45.5 C-21.2781304 43.2720151 -18.550084 41.70817665 -15.25 40.25 C-17.53038721 38.49585599 -19.75808729 36.95361575 -22.25 35.5 C-26.44065878 32.35700592 -27.92513016 28.89973968 -30.25 24.25 C-30.84626497 18.28735026 -29.72122537 14.04731146 -26.25 9.25 C-18.64613713 1.78071878 -10.33630924 -0.24537233 0 0 Z " fill="#1860A1" transform="translate(3506.25,1983.75)"/>
<path d="M0 0 C0.33 21.78 0.66 43.56 1 66 C3.31 63.69 5.62 61.38 8 59 C9.33800986 57.81483837 10.68864716 56.64341893 12.0625 55.5 C16.51840313 51.65093192 21.10573827 47.68278519 23 42 C20.36 41.34 17.72 40.68 15 40 C15 38.35 15 36.7 15 35 C25.89 35 36.78 35 48 35 C48 36.65 48 38.3 48 40 C47.21238281 40.25652344 46.42476562 40.51304688 45.61328125 40.77734375 C36.90728051 43.83732271 28.87355604 47.71142745 22 54 C22 58.32314964 22.45290108 59.16852504 24.78125 62.59765625 C25.37244629 63.47695801 25.96364258 64.35625977 26.57275391 65.26220703 C27.20874512 66.18630371 27.84473633 67.11040039 28.5 68.0625 C29.1398584 69.00464355 29.7797168 69.94678711 30.43896484 70.91748047 C32.28110568 73.61981572 34.13729378 76.31181199 36 79 C36.45665039 79.66273926 36.91330078 80.32547852 37.38378906 81.00830078 C42.59572965 89.17694669 42.59572965 89.17694669 50.75 93.6875 C51.4925 93.790625 52.235 93.89375 53 94 C53 95.65 53 97.3 53 99 C43.17757284 100.35449092 32.67485014 101.7490155 23 99 C16.56335639 94.10000146 13.33366522 86.72557497 10.15917969 79.46728516 C8.81762536 76.61182012 7.06122132 74.37572692 5 72 C5 71.34 5 70.68 5 70 C2.82362434 70.8321184 2.82362434 70.8321184 1 73 C0.47385783 76.23390636 0.62577684 79.42186437 0.75 82.6875 C0.76804687 83.58017578 0.78609375 84.47285156 0.8046875 85.39257812 C0.85180904 87.59551018 0.92355261 89.79789058 1 92 C3.64 92.66 6.28 93.32 9 94 C9 95.65 9 97.3 9 99 C-3.87 99 -16.74 99 -30 99 C-30 97.35 -30 95.7 -30 94 C-27.36 93.01 -24.72 92.02 -22 91 C-21.90734662 80.76884005 -21.8362587 70.5377798 -21.79275131 60.30628586 C-21.77187056 55.55543964 -21.7435441 50.80488031 -21.69824219 46.05419922 C-21.6548017 41.47006661 -21.63086657 36.88621006 -21.62049103 32.30188751 C-21.61309641 30.55234684 -21.59865645 28.80282138 -21.57707977 27.05339813 C-21.54806899 24.60395075 -21.54404292 22.15564605 -21.54589844 19.70605469 C-21.53151733 18.98172745 -21.51713623 18.25740021 -21.50231934 17.51112366 C-21.52985269 14.15515588 -21.76234439 12.31839691 -23.79400635 9.59649658 C-26.68996099 7.5006693 -29.54277603 6.79782092 -33 6 C-33 4.35 -33 2.7 -33 1 C-29.93768879 0.8290235 -26.87522968 0.66316918 -23.8125 0.5 C-22.96751953 0.45230469 -22.12253906 0.40460938 -21.25195312 0.35546875 C-14.1365728 -0.01762235 -7.15516744 0 0 0 Z " fill="#175FA1" transform="translate(2717,1950)"/>
<path d="M0 0 C5.00833985 4.7171573 8.0046133 9.2926392 8.30297852 16.29956055 C8.33764288 17.99511451 8.36240547 19.69089076 8.37890625 21.38671875 C8.39590073 22.28493851 8.4128952 23.18315826 8.43040466 24.1085968 C8.48338804 26.96816045 8.52377945 29.82771046 8.5625 32.6875 C8.60643147 35.55792946 8.65309832 38.42824707 8.70530701 41.29853821 C8.7372611 43.08245924 8.76415217 44.86647944 8.78553772 46.65055847 C8.73213183 50.96170784 8.73213183 50.96170784 10 55 C12.3140622 55.73075648 14.64828869 56.40138258 17 57 C17 58.65 17 60.3 17 62 C4.13 62 -8.74 62 -22 62 C-22 60.35 -22 58.7 -22 57 C-19.69 56.34 -17.38 55.68 -15 55 C-14.87624039 49.11018515 -14.78558486 43.22112988 -14.7253418 37.33032227 C-14.7002245 35.32725844 -14.66612405 33.32428602 -14.62280273 31.3215332 C-14.56202812 28.43938634 -14.53376268 25.55845279 -14.51171875 22.67578125 C-14.48591232 21.78288895 -14.4601059 20.88999664 -14.43351746 19.970047 C-14.4315085 15.49898937 -14.54417187 13.60143257 -17.32348633 9.93432617 C-19.91451082 7.77295918 -19.91451082 7.77295918 -23.3125 7.375 C-27.98985234 8.16777158 -31.32009338 10.03812394 -35 13 C-36.59919459 16.19838918 -36.16301759 19.67053358 -36.16796875 23.18359375 C-36.17129715 23.9949025 -36.17462555 24.80621124 -36.17805481 25.6421051 C-36.1831213 27.35946078 -36.18546322 29.07682631 -36.18530273 30.79418945 C-36.18748837 33.42350464 -36.20564436 36.05239976 -36.22460938 38.68164062 C-36.2275435 40.3489569 -36.22952817 42.01627516 -36.23046875 43.68359375 C-36.23765427 44.47116562 -36.24483978 45.25873749 -36.25224304 46.07017517 C-36.23613717 49.9130469 -36.18266282 51.72600577 -34 55 C-31.44816596 56.20450304 -31.44816596 56.20450304 -29 57 C-29 58.65 -29 60.3 -29 62 C-41.87 62 -54.74 62 -68 62 C-68 60.35 -68 58.7 -68 57 C-65.03 56.01 -62.06 55.02 -59 54 C-58.85169361 47.66465526 -58.74280164 41.33032016 -58.67041016 34.99365234 C-58.64023447 32.83819989 -58.59928798 30.68287024 -58.54736328 28.52783203 C-58.4745837 25.42970507 -58.44055168 22.33320068 -58.4140625 19.234375 C-58.38309479 18.27070007 -58.35212708 17.30702515 -58.32022095 16.31414795 C-58.31892548 13.73962323 -58.37608553 11.49812597 -59 9 C-61.97047127 6.31308528 -64.23700789 5.2543307 -68 4 C-68 2.35 -68 0.7 -68 -1 C-60.93111222 -1.85214779 -53.9911168 -2.12746455 -46.875 -2.0625 C-45.44027344 -2.05573242 -45.44027344 -2.05573242 -43.9765625 -2.04882812 C-41.65101378 -2.03720038 -39.32549793 -2.01927208 -37 -2 C-36.67 0.97 -36.34 3.94 -36 7 C-35.5153125 6.52949219 -35.030625 6.05898437 -34.53125 5.57421875 C-25.20771336 -3.08591239 -11.66912168 -7.38250555 0 0 Z " fill="#185FA1" transform="translate(2950,1987)"/>
<path d="M0 0 C0.97646484 -0.00708984 1.95292969 -0.01417969 2.95898438 -0.02148438 C10.16764528 0.04119963 17.06359923 0.68510727 22.8125 5.375 C23.34875 6.055625 23.885 6.73625 24.4375 7.4375 C24.994375 8.118125 25.55125 8.79875 26.125 9.5 C28.16359785 12.50935873 28.5651848 15.06266141 28.61108398 18.60180664 C28.62457382 19.43599625 28.63806366 20.27018585 28.65196228 21.12965393 C28.66240067 22.0265947 28.67283905 22.92353546 28.68359375 23.84765625 C28.71651515 25.74284346 28.74972707 27.63802563 28.78320312 29.53320312 C28.83073816 32.52446218 28.8752052 35.51569839 28.91430664 38.50708008 C28.95388622 41.3916491 29.0054456 44.2758099 29.05859375 47.16015625 C29.0670079 48.05912125 29.07542206 48.95808624 29.08409119 49.8842926 C29.10905418 51.13084877 29.10905418 51.13084877 29.13452148 52.40258789 C29.14482895 53.13522354 29.15513641 53.86785919 29.16575623 54.62269592 C29.29104745 56.68744591 29.29104745 56.68744591 31.4375 58.4375 C34.09287372 59.00270003 36.72894713 59.17538198 39.4375 59.4375 C39.4375 61.0875 39.4375 62.7375 39.4375 64.4375 C31.12359677 67.81942674 22.44792286 69.25161862 13.8125 66.125 C9.8318662 63.29665493 9.8318662 63.29665493 8.4375 61.4375 C8.4375 60.4475 8.4375 59.4575 8.4375 58.4375 C7.880625 58.83582031 7.32375 59.23414063 6.75 59.64453125 C-2.0894742 65.78139594 -9.55304723 69.03350121 -20.5625 67.4375 C-25.17162498 65.57910081 -29.07646592 62.82461896 -31.5625 58.4375 C-33.23567174 53.41798477 -33.51351109 48.2420123 -31.796875 43.1796875 C-26.84008106 33.99914661 -15.45460079 31.48641446 -6.125 28.625 C-5.14595703 28.31369141 -4.16691406 28.00238281 -3.15820312 27.68164062 C4.0181147 25.4375 4.0181147 25.4375 7.4375 25.4375 C7.34989411 23.37423023 7.24170727 21.3118284 7.125 19.25 C7.06699219 18.10144531 7.00898438 16.95289063 6.94921875 15.76953125 C6.40985751 12.25750728 5.5380277 10.27450902 3.4375 7.4375 C1.19237738 6.31493869 -0.07706649 6.30336238 -2.5625 6.3125 C-3.26375 6.30992188 -3.965 6.30734375 -4.6875 6.3046875 C-6.65403775 6.32372764 -6.65403775 6.32372764 -8.5625 7.4375 C-8.315 8.4584375 -8.315 8.4584375 -8.0625 9.5 C-7.47467573 12.95346758 -7.24457439 15.9403183 -7.5625 19.4375 C-9.42958505 21.80247439 -10.88311431 23.09780715 -13.5625 24.4375 C-15.18415752 24.55898305 -16.81134327 24.61293652 -18.4375 24.625 C-19.73300781 24.64626953 -19.73300781 24.64626953 -21.0546875 24.66796875 C-23.71972361 24.4230511 -25.30312647 23.84333242 -27.5625 22.4375 C-29.33104915 20.04995864 -29.63266645 18.0656178 -30.1875 15.125 C-29.39948902 10.47573521 -27.75939822 9.1051962 -24.2890625 6.11328125 C-16.35180749 1.2349397 -9.24077336 -0.18983696 0 0 Z " fill="#1860A1" transform="translate(3430.5625,1983.5625)"/>
<path d="M0 0 C1.49273438 -0.04350586 1.49273438 -0.04350586 3.015625 -0.08789062 C10.36528146 -0.15025716 17.73320419 0.77270228 23.52783203 5.72509766 C28.7442515 11.62972905 29.17298328 17.19954632 29.21875 24.69921875 C29.2333728 25.59743851 29.24799561 26.49565826 29.26306152 27.4210968 C29.32521997 31.25365277 29.36506669 35.08636464 29.40673828 38.91918945 C29.4403785 41.72104057 29.48549319 44.52254365 29.53125 47.32421875 C29.5365271 48.19503586 29.5418042 49.06585297 29.54724121 49.96305847 C29.40693635 54.61880031 29.40693635 54.61880031 31.875 58.3125 C34.19775177 58.71297444 36.53239357 59.0522104 38.875 59.3125 C38.875 60.9625 38.875 62.6125 38.875 64.3125 C31.06760615 67.98656769 22.65560645 68.93449148 14.375 66.125 C11.5676749 64.0896893 9.21938538 61.86374291 6.875 59.3125 C6.30652344 59.72242188 5.73804687 60.13234375 5.15234375 60.5546875 C-3.02769727 66.2629632 -10.13508137 68.27975385 -20.125 67.3125 C-24.86633065 65.64425403 -27.82764104 63.08091024 -31.125 59.3125 C-32.97476101 53.76321696 -33.27691702 47.51344913 -31.27734375 41.95703125 C-24.19221774 30.75516536 -5.08449246 27.90799773 6.875 24.3125 C7.38781219 15.37268897 7.38781219 15.37268897 3.875 7.3125 C1.62987738 6.18993869 0.36043351 6.17836238 -2.125 6.1875 C-2.82625 6.18492188 -3.5275 6.18234375 -4.25 6.1796875 C-6.21653775 6.19872764 -6.21653775 6.19872764 -8.125 7.3125 C-8.06699219 8.20453125 -8.00898438 9.0965625 -7.94921875 10.015625 C-7.90410156 11.18609375 -7.85898438 12.3565625 -7.8125 13.5625 C-7.75449219 14.72265625 -7.69648438 15.8828125 -7.63671875 17.078125 C-8.125 20.3125 -8.125 20.3125 -10.30078125 22.69921875 C-14.86448984 25.30615049 -19.02042657 25.1772928 -24.125 24.3125 C-27.31755488 22.30932831 -28.70169832 21.07684984 -29.58984375 17.375 C-29.88517098 13.57176155 -29.44939108 11.76246182 -27.1875 8.625 C-18.12091554 1.77880357 -11.17436029 0.1060857 0 0 Z " fill="#1A61A2" transform="translate(2838.125,1983.6875)"/>
<path d="M0 0 C0.97380615 -0.00636475 1.9476123 -0.01272949 2.95092773 -0.01928711 C10.44318818 0.11249111 17.28143767 0.99607895 23.1875 5.875 C27.97180154 11.78501954 28.7529293 15.61768311 28.75390625 23.0703125 C28.76711411 23.98835663 28.78032196 24.90640076 28.79393005 25.8522644 C28.8347363 28.77654092 28.85647835 31.70050358 28.875 34.625 C28.89878485 37.55654262 28.92687687 40.4877896 28.96678162 43.41915894 C28.99114363 45.24093311 29.00599812 47.06286438 29.01039124 48.88479614 C29.02057785 49.70930267 29.03076447 50.5338092 29.04125977 51.38330078 C29.04767235 52.46987473 29.04767235 52.46987473 29.05421448 53.57839966 C29.21330187 55.82669496 29.21330187 55.82669496 31.3125 58.5 C33.27611864 59.07748803 33.27611864 59.07748803 35.4375 59.1875 C36.71625 59.290625 37.995 59.39375 39.3125 59.5 C39.3125 61.15 39.3125 62.8 39.3125 64.5 C31.52350166 67.66840611 22.8833798 69.63029091 14.73828125 66.515625 C9.65531861 63.5589286 9.65531861 63.5589286 8.609375 60.328125 C8.51140625 59.72484375 8.4134375 59.1215625 8.3125 58.5 C7.66023438 58.98210937 7.00796875 59.46421875 6.3359375 59.9609375 C5.46195313 60.59257813 4.58796875 61.22421875 3.6875 61.875 C2.82898437 62.50148438 1.97046875 63.12796875 1.0859375 63.7734375 C-5.74228151 68.02424427 -12.83139744 68.44848067 -20.6875 67.5 C-25.28695739 65.70735434 -29.27709044 62.89545272 -31.6875 58.5 C-33.60042462 53.63073733 -33.27542127 48.2291802 -31.625 43.375 C-25.90426256 34.8861638 -18.35403913 32.56080329 -8.9375 29.625 C-7.70644531 29.2228125 -6.47539062 28.820625 -5.20703125 28.40625 C3.81816008 25.5 3.81816008 25.5 7.3125 25.5 C7.38070757 16.40610179 7.38070757 16.40610179 4.25 8.125 C0.20404458 5.88681189 -2.10292323 5.97390103 -6.6875 6.5 C-7.3475 7.16 -8.0075 7.82 -8.6875 8.5 C-8.3575 9.49 -8.0275 10.48 -7.6875 11.5 C-7.11196043 18.75179856 -7.11196043 18.75179856 -9.5625 21.9375 C-14.01050292 25.20809039 -18.29896978 25.13543988 -23.6875 24.5 C-26.62173195 22.70353146 -28.15955355 21.5558929 -29.6875 18.5 C-30.16885953 15.5430772 -30.16630465 13.42500984 -28.76953125 10.7265625 C-21.58349353 1.07493413 -11.16385776 0.06303252 0 0 Z " fill="#185FA1" transform="translate(3261.6875,1983.5)"/>
<path d="M0 0 C3.83413968 3.74062408 6.22455043 7.76460478 6.30297852 13.17016602 C6.32794151 14.38646446 6.32794151 14.38646446 6.35340881 15.62733459 C6.36182297 16.49410324 6.37023712 17.36087189 6.37890625 18.25390625 C6.39590073 19.15116928 6.4128952 20.04843231 6.43040466 20.97288513 C6.48347322 23.83601881 6.52380268 26.69913885 6.5625 29.5625 C6.60645769 32.42935801 6.65318196 35.29610512 6.70530701 38.16282654 C6.73720771 39.94567019 6.7641153 41.7286116 6.78553772 43.51161194 C6.79902756 44.31932541 6.8125174 45.12703888 6.82641602 45.95922852 C6.83592789 46.66886246 6.84543976 47.3784964 6.85523987 48.1096344 C6.94031953 50.22573955 6.94031953 50.22573955 8 53 C10.10584438 53.80563638 10.10584438 53.80563638 12.5625 54.1875 C13.38878906 54.34605469 14.21507813 54.50460937 15.06640625 54.66796875 C15.70449219 54.77753906 16.34257812 54.88710937 17 55 C17 56.65 17 58.3 17 60 C9.32107418 63.12363084 0.83716826 64.94905447 -7.28125 62.23828125 C-10.71340966 60.3985855 -12.78516988 58.11910987 -15 55 C-15.58007812 55.40992188 -16.16015625 55.81984375 -16.7578125 56.2421875 C-17.53898437 56.78101563 -18.32015625 57.31984375 -19.125 57.875 C-19.89070313 58.40867187 -20.65640625 58.94234375 -21.4453125 59.4921875 C-28.27004575 63.52024107 -35.25477126 63.89840871 -43 63 C-47.93142649 61.33030442 -50.96061845 58.64140871 -53.5 54.125 C-55.40161396 49.59168815 -55.92678536 45.71787617 -54.3046875 40.9609375 C-51.57772471 34.84245796 -48.11839621 31.30500278 -41.95703125 28.7265625 C-38.32809613 27.39742977 -34.68055967 26.17839125 -31 25 C-29.78054687 24.60296875 -28.56109375 24.2059375 -27.3046875 23.796875 C-18.50044014 21 -18.50044014 21 -15 21 C-15.14139481 18.74971671 -15.28828003 16.49977794 -15.4375 14.25 C-15.51871094 12.99703125 -15.59992187 11.7440625 -15.68359375 10.453125 C-15.96582832 6.63230661 -15.96582832 6.63230661 -17 3 C-19.82716095 2.05761302 -21.63176123 1.86534353 -24.5625 1.875 C-25.74005859 1.87113281 -25.74005859 1.87113281 -26.94140625 1.8671875 C-29.06438977 1.87023634 -29.06438977 1.87023634 -31 3 C-30.7525 3.99 -30.7525 3.99 -30.5 5 C-29.84768778 8.91387335 -29.62069201 12.01726607 -30 16 C-31.8125 18.5 -31.8125 18.5 -35 20 C-40.1210763 20.73706645 -44.43909731 20.70393651 -49.1875 18.5625 C-51.49581011 15.29902708 -51.66635471 13.11018855 -51.40234375 9.17578125 C-50.75737692 5.6879509 -49.7037688 4.31751611 -47 2 C-34.14182344 -5.63250953 -13.30864185 -8.15946494 0 0 Z " fill="#1860A1" transform="translate(2596,1988)"/>
<path d="M0 0 C4.90928934 2.81340043 8.03407291 7.06487983 10.34375 12.1640625 C10.98041638 15.46113312 10.97398593 18.642621 10.91015625 21.9921875 C10.91579086 22.90361511 10.92142548 23.81504272 10.92723083 24.75408936 C10.94358435 27.64128211 10.92820267 30.52692469 10.90625 33.4140625 C10.88964519 36.31533123 10.88055178 39.21559812 10.89598083 42.11688232 C10.90525077 43.91542885 10.89612947 45.71418837 10.86634827 47.51251221 C10.86163253 52.44968168 10.86163253 52.44968168 13.19897461 56.69824219 C15.6074359 58.34427538 17.46173722 58.84383886 20.34375 59.1640625 C20.34375 60.8140625 20.34375 62.4640625 20.34375 64.1640625 C7.47375 64.1640625 -5.39625 64.1640625 -18.65625 64.1640625 C-18.65625 62.5140625 -18.65625 60.8640625 -18.65625 59.1640625 C-16.34625 58.8340625 -14.03625 58.5040625 -11.65625 58.1640625 C-11.60679952 52.25587179 -11.57050636 46.34780166 -11.54638672 40.43945312 C-11.5363313 38.42966615 -11.52268515 36.4198938 -11.50537109 34.41015625 C-11.48110276 31.52079662 -11.46976229 28.63163048 -11.4609375 25.7421875 C-11.45061493 24.84413391 -11.44029236 23.94608032 -11.42965698 23.02081299 C-11.42950592 22.18024353 -11.42935486 21.33967407 -11.42919922 20.47363281 C-11.42253738 19.36776825 -11.42253738 19.36776825 -11.41574097 18.23956299 C-11.69596934 15.82129987 -12.39433288 14.23648037 -13.65625 12.1640625 C-16.51261437 10.22968916 -18.63146067 9.89851265 -22.03125 10.2265625 C-22.76085938 10.27941406 -23.49046875 10.33226562 -24.2421875 10.38671875 C-27.76630687 11.521508 -30.39415659 13.26166567 -32.65625 16.1640625 C-33.47244538 19.25702462 -33.35818524 22.22164802 -33.2421875 25.40234375 C-33.22945297 26.72349434 -33.22945297 26.72349434 -33.21646118 28.07133484 C-33.18297156 30.87434125 -33.10770454 33.67443135 -33.03125 36.4765625 C-33.00114448 38.38081772 -32.97376969 40.2851182 -32.94921875 42.18945312 C-32.8831952 46.8487736 -32.77970728 51.50592429 -32.65625 56.1640625 C-30.34625 57.1540625 -28.03625 58.1440625 -25.65625 59.1640625 C-25.65625 60.8140625 -25.65625 62.4640625 -25.65625 64.1640625 C-38.52625 64.1640625 -51.39625 64.1640625 -64.65625 64.1640625 C-64.65625 62.5140625 -64.65625 60.8640625 -64.65625 59.1640625 C-64.09035156 59.04289062 -63.52445313 58.92171875 -62.94140625 58.796875 C-61.84119141 58.54550781 -61.84119141 58.54550781 -60.71875 58.2890625 C-59.98785156 58.12664062 -59.25695313 57.96421875 -58.50390625 57.796875 C-56.44924706 57.33444727 -56.44924706 57.33444727 -55.65625 55.1640625 C-55.54725233 53.79685084 -55.49731191 52.42465326 -55.47924805 51.05322266 C-55.46641281 50.20539215 -55.45357758 49.35756165 -55.44035339 48.48403931 C-55.43296646 47.56633759 -55.42557953 46.64863586 -55.41796875 45.703125 C-55.409897 44.76101166 -55.40182526 43.81889832 -55.39350891 42.84823608 C-55.3796658 40.85261884 -55.36894466 38.8569779 -55.36108398 36.86132812 C-55.34385763 33.80813854 -55.2999722 30.75602792 -55.25585938 27.703125 C-55.24573374 25.76563297 -55.23721723 23.82813173 -55.23046875 21.890625 C-55.20420662 20.52014511 -55.20420662 20.52014511 -55.17741394 19.12197876 C-55.15182454 14.03398121 -55.15182454 14.03398121 -57.47973633 9.63427734 C-60.09454907 7.86799553 -62.62230347 6.99150246 -65.65625 6.1640625 C-65.65625 4.5140625 -65.65625 2.8640625 -65.65625 1.1640625 C-54.969087 0.36820994 -44.37225323 0.03581246 -33.65625 0.1640625 C-33.16125 4.1240625 -33.16125 4.1240625 -32.65625 8.1640625 C-31.89699219 7.59816406 -31.13773438 7.03226563 -30.35546875 6.44921875 C-29.36160156 5.71574219 -28.36773438 4.98226563 -27.34375 4.2265625 C-26.35761719 3.49566406 -25.37148437 2.76476563 -24.35546875 2.01171875 C-17.98762132 -2.34716958 -7.27086141 -2.28818285 0 0 Z " fill="#165EA1" transform="translate(3370.65625,1984.8359375)"/>
<path d="M0 0 C29.04 0 58.08 0 88 0 C88 8.58 88 17.16 88 26 C86.35 26 84.7 26 83 26 C82.55269531 25.11957031 82.10539062 24.23914062 81.64453125 23.33203125 C81.03996094 22.17058594 80.43539062 21.00914063 79.8125 19.8125 C79.22082031 18.66394531 78.62914063 17.51539063 78.01953125 16.33203125 C75.66529052 12.44776174 73.13015275 9.06507638 69 7 C64.71 6.67 60.42 6.34 56 6 C56.33 31.41 56.66 56.82 57 83 C60.96 83.99 64.92 84.98 69 86 C69 87.65 69 89.3 69 91 C52.5 91 36 91 19 91 C19 89.35 19 87.7 19 86 C24.94 85.01 24.94 85.01 31 84 C31.99007456 80.03970177 32.1568702 76.82290357 32.20532227 72.75292969 C32.21522186 72.03058136 32.22512146 71.30823303 32.23532104 70.56399536 C32.26683484 68.18332158 32.2916533 65.80262787 32.31640625 63.421875 C32.33698453 61.76848846 32.35798123 60.11510709 32.37937927 58.46173096 C32.43450974 54.11511417 32.48395873 49.76845062 32.53222656 45.42175293 C32.58250757 40.9842514 32.63815916 36.54681758 32.69335938 32.109375 C32.80083053 23.4063073 32.90229991 14.70318285 33 6 C30.58262469 6.07710026 28.1696763 6.17654527 25.75390625 6.2890625 C25.07251587 6.308479 24.39112549 6.32789551 23.68908691 6.34790039 C19.34038423 6.57226441 16.91619005 7.1485659 13.9375 10.375 C12.3746093 12.53469169 12.3746093 12.53469169 11 15 C10.42507812 15.98226563 9.85015625 16.96453125 9.2578125 17.9765625 C7.77372065 20.62330695 6.36083586 23.28829777 5 26 C3.35 26 1.7 26 0 26 C0 17.42 0 8.84 0 0 Z " fill="#175FA1" transform="translate(2379,1958)"/>
<path d="M0 0 C1.38759521 0.01921509 1.38759521 0.01921509 2.80322266 0.03881836 C11.47115001 0.29691091 17.83314743 1.8049143 24.4375 7.625 C31.12627683 15.04116155 31.5625 21.56965747 31.5625 31.5 C17.0425 31.5 2.5225 31.5 -12.4375 31.5 C-10.7247119 44.0959961 -10.7247119 44.0959961 -4 53.875 C1.44219949 57.3261509 6.16103481 58.48095122 12.5625 57.5 C19.12286294 55.22873022 23.60197065 52.17675874 27.5625 46.5 C29.2125 47.49 30.8625 48.48 32.5625 49.5 C30.33290833 56.2121215 25.2083064 60.43855858 19.14453125 63.8671875 C9.03333355 68.5078377 -3.62306303 69.42203733 -14.3125 66.0625 C-22.27205865 62.664981 -29.39463853 56.53077183 -32.765625 48.453125 C-32.98734375 47.80859375 -33.2090625 47.1640625 -33.4375 46.5 C-33.65921875 45.87609375 -33.8809375 45.2521875 -34.109375 44.609375 C-36.70774999 35.97153383 -36.41584132 26.63615668 -32.4375 18.5 C-24.96347432 6.17918191 -14.4344808 -0.30306899 0 0 Z " fill="#175FA1" transform="translate(3586.4375,1983.5)"/>
<path d="M0 0 C1.34191406 -0.0299707 1.34191406 -0.0299707 2.7109375 -0.06054688 C10.57180387 -0.05483404 16.66829677 1.85038467 22.625 7.0625 C25.39434808 10.35110084 25.79974353 12.08559483 25.875 16.3125 C25.90078125 17.17617187 25.9265625 18.03984375 25.953125 18.9296875 C25.55822688 21.94783741 24.71829196 23.2561724 22.625 25.4375 C18.29179898 26.88190034 14.1535153 26.97918843 9.625 26.4375 C6.69076805 24.64103146 5.15294645 23.4933929 3.625 20.4375 C3.71338461 18.05966895 3.86846421 15.68404854 4.0625 13.3125 C4.16433594 12.03117187 4.26617188 10.74984375 4.37109375 9.4296875 C4.45488281 8.44226562 4.53867188 7.45484375 4.625 6.4375 C-1.20170951 5.84697646 -1.20170951 5.84697646 -6.1875 8.5 C-12.88073327 17.48805611 -13.16829461 27.65738696 -12.375 38.4375 C-10.97972672 44.45235684 -8.88398394 50.06942181 -4.375 54.4375 C0.54639778 57.50382545 6.03110027 57.02478606 11.625 56.4375 C17.05734088 54.71170217 20.31031242 50.85708343 23.625 46.4375 C25.275 47.0975 26.925 47.7575 28.625 48.4375 C26.4081758 55.75301985 21.16007542 60.46769725 14.84765625 64.39453125 C6.24890709 68.42944518 -4.14485079 68.87459864 -13.35546875 66.75 C-23.40161969 63.01189732 -29.75560815 57.08820399 -34.375 47.4375 C-37.54378515 39.50468511 -38.08823698 29.48395012 -34.75 21.5 C-34.0052444 20.11947743 -33.21291559 18.76354711 -32.375 17.4375 C-31.95089844 16.74140625 -31.52679687 16.0453125 -31.08984375 15.328125 C-23.76402592 4.47203841 -12.68815322 -0.09969263 0 0 Z " fill="#1860A1" transform="translate(2655.375,1983.5625)"/>
<path d="M0 0 C2.68167264 1.78778176 3.95680945 3.0254481 5.625 5.75 C6.46623743 10.76710973 6.58775505 15.99614201 3.75 20.375 C1.51528786 22.87261945 0.68381048 23.61881994 -2.58203125 24.0234375 C-7.0455375 24.19742725 -9.62835299 24.21292114 -13.5 21.8125 C-16.02022502 17.69613247 -15.83605691 14.45278047 -15.375 9.75 C-19.89844862 11.01235775 -23.12091734 12.31230995 -26.375 15.75 C-26.84563718 18.80827902 -27.0079564 21.29756063 -26.93359375 24.34765625 C-26.93126236 25.17833115 -26.92893097 26.00900604 -26.92652893 26.86485291 C-26.91680174 28.61744484 -26.89503799 30.3700058 -26.86206055 32.12231445 C-26.81260823 34.80662494 -26.80057703 37.48910302 -26.79492188 40.17382812 C-26.78083695 41.87762369 -26.76463292 43.58140333 -26.74609375 45.28515625 C-26.7380497 46.48991356 -26.7380497 46.48991356 -26.72984314 47.7190094 C-26.64762836 51.56378692 -26.55536991 53.47944514 -24.375 56.75 C-21.95892583 57.54798218 -21.95892583 57.54798218 -19.25 57.9375 C-17.88488281 58.17533203 -17.88488281 58.17533203 -16.4921875 58.41796875 C-15.79351563 58.52753906 -15.09484375 58.63710937 -14.375 58.75 C-14.375 60.4 -14.375 62.05 -14.375 63.75 C-28.565 63.75 -42.755 63.75 -57.375 63.75 C-57.375 62.1 -57.375 60.45 -57.375 58.75 C-56.240625 58.440625 -55.10625 58.13125 -53.9375 57.8125 C-50.58724901 57.12075469 -50.58724901 57.12075469 -49.375 55.75 C-49.25108892 54.36014068 -49.19447054 52.96417854 -49.16625977 51.5690918 C-49.13732384 50.23717049 -49.13732384 50.23717049 -49.10780334 48.87834167 C-49.05028225 44.80833729 -49.00078039 40.73851489 -48.9699707 36.66821289 C-48.94837591 34.51961204 -48.91425576 32.37109951 -48.86743164 30.22290039 C-48.80061004 27.13127202 -48.7730005 24.04146627 -48.75390625 20.94921875 C-48.72607559 19.98868088 -48.69824493 19.02814301 -48.66957092 18.03849792 C-48.67750685 15.47165158 -48.74334838 13.23826852 -49.375 10.75 C-52.34578976 8.06715732 -54.61399426 7.00366858 -58.375 5.75 C-58.375 4.1 -58.375 2.45 -58.375 0.75 C-48.0260926 0.09956362 -37.7484499 -0.41494885 -27.375 -0.25 C-27.045 2.72 -26.715 5.69 -26.375 8.75 C-25.86710937 8.27949219 -25.35921875 7.80898437 -24.8359375 7.32421875 C-17.13293255 0.35689405 -10.37114157 -3.84116354 0 0 Z " fill="#175FA1" transform="translate(2529.375,1985.25)"/>
<path d="M0 0 C2.87980417 2.87980417 3.01630819 6.25295516 3.75 10.125 C6.99732846 26.3242091 11.03486353 42.35714209 15.81982422 58.17138672 C18.35562603 66.72544351 20.04498092 75.20241416 22 84 C8.14 84 -5.72 84 -20 84 C-17.75510204 71.65306122 -17.75510204 71.65306122 -16.3125 66.4375 C-16.06367065 65.52085571 -16.06367065 65.52085571 -15.80981445 64.58569336 C-14.96774651 61.48743453 -14.11014041 58.39368427 -13.24511719 55.30175781 C-8.13250635 37.00044788 -3.91254204 18.58682123 0 0 Z " fill="#134A7E" transform="translate(3598,1266)"/>
<path d="M0 0 C2 1 2 1 2.71435547 3.13867188 C3.03750732 4.53956055 3.03750732 4.53956055 3.3671875 5.96875 C3.61098145 7.00660645 3.85477539 8.04446289 4.10595703 9.11376953 C4.35974121 10.23122559 4.61352539 11.34868164 4.875 12.5 C5.14038574 13.63679199 5.40577148 14.77358398 5.67919922 15.94482422 C6.4602317 19.29488047 7.23109979 22.64714158 8 26 C8.70449894 29.04256904 9.41310463 32.08415357 10.125 35.125 C10.28282959 35.80062988 10.44065918 36.47625977 10.60327148 37.17236328 C12.08425884 43.46022563 13.74893813 49.6940499 15.43945312 55.92822266 C16.5330352 59.97009438 17.61226872 64.01571338 18.6875 68.0625 C18.90204834 68.86026855 19.11659668 69.65803711 19.33764648 70.47998047 C19.64037476 71.62104248 19.64037476 71.62104248 19.94921875 72.78515625 C20.12799561 73.45426025 20.30677246 74.12336426 20.4909668 74.81274414 C21.11998669 77.5155687 21.54378388 80.26270325 22 83 C8.14 83 -5.72 83 -20 83 C-18.68 77.72 -17.36 72.44 -16 67 C-15.34593279 64.21025099 -14.69803892 61.41902823 -14.0625 58.625 C-12.76792886 53.00703763 -11.29621758 47.47273293 -9.6875 41.9375 C-5.708799 28.15698717 -2.97828897 14.02261587 0 0 Z " fill="#134A7E" transform="translate(3165,1267)"/>
<path d="M0 0 C25.83157895 0 25.83157895 0 32.91796875 5.484375 C37.58439501 10.31097607 37.54488495 15.73748698 37.57080078 22.10058594 C37.33964277 29.0015807 34.99442594 35.13700632 30 40 C21 44 21 44 0 44 C0 29.48 0 14.96 0 0 Z " fill="#10497D" transform="translate(1599,1274)"/>
<path d="M0 0 C25.8974359 0 25.8974359 0 32.5 6.4375 C36.72092778 13.64825162 37.24835584 21.28672183 35.46484375 29.44921875 C33.20936428 35.91985657 29.83720546 39.84184056 23.9765625 43.10546875 C15.0153463 47.16103893 11.36359357 46 0 46 C0 30.82 0 15.64 0 0 Z " fill="#144C7E" transform="translate(1202,1276)"/>
<path d="M0 0 C4.22734019 1.82544236 6.05053376 3.87040811 8 8 C8.45135751 10.96032184 8.46801064 13.88820785 8.46875 16.87890625 C8.48017029 18.15253273 8.48017029 18.15253273 8.49182129 19.45188904 C8.50259656 21.2412523 8.50548587 23.03067833 8.50097656 24.82006836 C8.50000177 27.55753935 8.54170007 30.29222852 8.5859375 33.02929688 C8.59114306 34.7708275 8.59383272 36.51236785 8.59375 38.25390625 C8.6183429 39.47902672 8.6183429 39.47902672 8.64343262 40.72889709 C8.59341611 44.83736874 8.56823058 46.39923669 5.65039062 49.48413086 C1.29299421 51.97630794 -2.01490017 52.42246609 -7 52 C-12.6449789 49.34353934 -14.85888519 45.6217989 -17 40 C-19.66976404 30.63450186 -19.5129627 16.75947743 -15 8 C-10.65855339 1.72516251 -7.87705816 -0.53403784 0 0 Z " fill="#FCFDFD" transform="translate(3015,1990)"/>
<path d="M0 0 C0.94681641 -0.020625 1.89363281 -0.04125 2.86914062 -0.0625 C8.28742531 -0.09274862 12.1417203 0.18084333 16.8125 3.25 C18.8125 5.25 18.8125 5.25 19.125 9.0625 C19.02094377 12.8917694 18.25108871 15.20176412 15.8125 18.25 C10.48946376 22.90765671 5.07870013 22.58428886 -1.72265625 22.53515625 C-7.28815843 22.07711605 -10.06227156 20.23811693 -14.125 16.4375 C-15.71448394 13.16503306 -15.62124957 10.84392504 -15.1875 7.25 C-10.73430212 -0.5071834 -8.45419042 0.04511909 0 0 Z " fill="#F8FAFC" transform="translate(3508.1875,2049.75)"/>
<path d="M0 0 C4.09490554 3.98990797 5.14997407 6.93655035 5.234375 12.5703125 C5.23953125 13.28960938 5.2446875 14.00890625 5.25 14.75 C5.270625 15.45382812 5.29125 16.15765625 5.3125 16.8828125 C5.34791884 21.64664585 4.63847695 24.88200326 2 29 C-1.51824511 31.34549674 -2.85775694 31.57991403 -7 31 C-9.57285724 28.827365 -11.48996919 27.02006162 -13 24 C-13.12488834 21.38315357 -13.18516963 18.80451082 -13.1875 16.1875 C-13.19974609 15.47529297 -13.21199219 14.76308594 -13.22460938 14.02929688 C-13.23852672 9.01441487 -12.50819192 5.42986477 -9.875 1.1875 C-6.76798943 -0.78027336 -3.49164479 -0.77435671 0 0 Z " fill="#FCFCFD" transform="translate(3511,1989)"/>
<path d="M0 0 C0.14533755 3.582906 0.23407931 7.16505417 0.3125 10.75 C0.35439453 11.76578125 0.39628906 12.7815625 0.43945312 13.828125 C0.56363589 21.37843741 0.56363589 21.37843741 -2.39453125 24.640625 C-6.63035136 26.8506181 -9.12415652 27.34216445 -14 27 C-16.61593153 25.16884793 -16.96989455 24.09031634 -18 21 C-18.25052929 16.49047283 -18.28949849 12.9545883 -16 9 C-12.19291985 5.19291985 -5.70503921 0 0 0 Z " fill="#F7FAFC" transform="translate(3438,2014)"/>
<path d="M0 0 C4.06283817 0.84642462 5.46249851 2.38263699 8 5.625 C10.74428328 11.24424672 10 14.79028347 10 21.625 C3.07 21.625 -3.86 21.625 -11 21.625 C-11 13.32610796 -10.64491487 9.05624092 -5.6875 2.625 C-3 0.625 -3 0.625 0 0 Z " fill="#F1F5F9" transform="translate(3585,1988.375)"/>
<path d="M0 0 C0.11632513 3.41637953 0.18728897 6.83224897 0.25 10.25 C0.30027344 11.70212891 0.30027344 11.70212891 0.3515625 13.18359375 C0.45002225 20.32192593 0.45002225 20.32192593 -1.734375 23.61328125 C-5.38034967 25.84486919 -8.76985436 26.20995208 -13 26 C-16.32004159 24.3399792 -16.81746738 23.54759787 -18 20 C-18.37373979 15.44037454 -18.45422154 12.96522078 -16.5 8.8125 C-12.22448772 4.00254869 -6.62921903 0 0 0 Z " fill="#F9FBFC" transform="translate(3269,2015)"/>
<path d="M0 0 C0 7.26 0 14.52 0 22 C-8.42372881 26.81355932 -8.42372881 26.81355932 -13 26 C-15.375 24.6875 -15.375 24.6875 -17 22 C-17.78706922 16.85192476 -17.59494762 12.46032598 -15.625 7.625 C-11.48152571 3.48152571 -5.98826571 0 0 0 Z " fill="#FAFCFD" transform="translate(2581,2015)"/>
<path d="M0 0 C0.11601004 3.60389664 0.18718408 7.20731467 0.25 10.8125 C0.28351562 11.83666016 0.31703125 12.86082031 0.3515625 13.91601562 C0.36445313 14.89892578 0.37734375 15.88183594 0.390625 16.89453125 C0.41157227 17.80050049 0.43251953 18.70646973 0.45410156 19.63989258 C0 22 0 22 -1.88574219 23.77612305 C-5.44030373 25.83374626 -8.92467209 26.33649496 -13 26 C-15.5625 24.1875 -15.5625 24.1875 -17 21 C-17.63909768 16.45943394 -17.73415552 12.61611132 -15.81640625 8.39453125 C-13.6576649 5.54870664 -11.65809168 4.33021704 -8.5 2.6875 C-7.5409375 2.17574219 -6.581875 1.66398437 -5.59375 1.13671875 C-3 0 -3 0 0 0 Z " fill="#FBFCFD" transform="translate(2845,2015)"/>
<path d="M0 0 C0 0.99 0 1.98 0 3 C-1.38782485 3.8466034 -2.78569397 4.67675339 -4.1875 5.5 C-4.96480469 5.9640625 -5.74210937 6.428125 -6.54296875 6.90625 C-9.24103386 8.10729647 -11.0806982 8.20741043 -14 8 C-14.33 7.01 -14.66 6.02 -15 5 C-14.34 5 -13.68 5 -13 5 C-13 4.34 -13 3.68 -13 3 C-8.70614007 -0.4887612 -5.28129105 -0.26854022 0 0 Z " fill="#215789" transform="translate(475,1686)"/>
<path d="M0 0 C0 1.65 0 3.3 0 5 C-2.64 5.33 -5.28 5.66 -8 6 C-8.66 5.01 -9.32 4.02 -10 3 C-6.68152292 -0.06320961 -4.44849969 -0.3033068 0 0 Z " fill="#215889" transform="translate(480,1678)"/>
</svg>
