<?xml version="1.0" encoding="UTF-8"?>
<svg version="1.1" xmlns="http://www.w3.org/2000/svg" width="6000" height="3375">
<path d="M0 0 C1980 0 3960 0 6000 0 C6000 1113.75 6000 2227.5 6000 3375 C4020 3375 2040 3375 0 3375 C0 2261.25 0 1147.5 0 0 Z " fill="#164670" transform="translate(0,0)"/>
<path d="M0 0 C1316.7 0 2633.4 0 3990 0 C3990 477.51 3990 955.02 3990 1447 C2673.3 1447 1356.6 1447 0 1447 C0 969.49 0 491.98 0 0 Z " fill="#145C9F" transform="translate(1005,964)"/>
<path d="M0 0 C0.83824059 0.00002625 1.67648118 0.00005251 2.54012301 0.00007956 C3.50632121 -0.00231672 4.47251941 -0.00471301 5.46799635 -0.00718191 C7.08400619 -0.00349147 7.08400619 -0.00349147 8.73266269 0.00027352 C10.44138268 -0.00172036 10.44138268 -0.00172036 12.18462226 -0.00375452 C15.38225535 -0.0064546 18.57985062 -0.00461026 21.77748164 -0.00095154 C25.26025143 0.00193829 28.74301704 -0.00095442 32.22578669 -0.0031268 C38.37418196 -0.00614985 44.52256817 -0.0054054 50.67096326 -0.00229056 C59.90221576 0.00236501 69.1334614 0.00126014 78.36471449 -0.0009896 C94.16498883 -0.00467025 109.9652597 -0.00356221 125.76553391 0.0000615 C141.87850091 0.00373647 157.99146593 0.00522067 174.10443333 0.00404579 C175.63347745 0.00393631 175.63347745 0.00393631 177.19341136 0.00382462 C182.39760841 0.00344215 187.60180546 0.00302453 192.80600251 0.00259493 C230.88180861 -0.00047274 268.95761326 0.00140417 307.03341917 0.00573921 C345.64568398 0.01011912 384.25794801 0.01232168 422.87021307 0.011837 C424.69437121 0.01181557 424.69437121 0.01181557 426.55538102 0.0117937 C437.69960643 0.01166195 448.84383183 0.01150584 459.98805724 0.0113207 C487.93775801 0.0108575 515.88745878 0.01072509 543.83715955 0.01081192 C545.75864963 0.01081754 545.75864963 0.01081754 547.7189577 0.01082328 C610.92317282 0.01103764 674.12738765 0.01500733 737.33160261 0.01921463 C759.59085047 0.02069377 781.85009833 0.0221551 804.10934619 0.02355075 C805.49299427 0.02363751 806.87664234 0.02372428 808.30221915 0.02381368 C872.36051467 0.02780887 936.41881016 0.02924226 1000.47710579 0.03001672 C1004.66502761 0.03006748 1008.85294943 0.03011944 1013.04087125 0.03017172 C1038.29360843 0.03048581 1063.54634561 0.03077318 1088.79908279 0.03102969 C1151.58132223 0.03166859 1214.36356167 0.03262809 1277.14580111 0.03380489 C1278.57517388 0.03383152 1280.00454666 0.03385816 1281.47723377 0.0338856 C1374.07696453 0.03561359 1466.67669519 0.0386616 1559.27642588 0.0428133 C1561.49456978 0.04291273 1561.49456978 0.04291273 1563.75752467 0.04301417 C1608.77350903 0.04503492 1653.78949338 0.04715328 1698.80547774 0.04929074 C1748.62151775 0.05165569 1798.43755776 0.05400398 1848.25359777 0.05628013 C1849.75155736 0.05634863 1851.24951694 0.05641713 1852.79286924 0.05648771 C1995.03061876 0.06298654 2137.26836832 0.06679827 2279.50611796 0.06991392 C2285.52984465 0.07004606 2291.55357134 0.07017898 2297.57729804 0.07031194 C2353.00838838 0.07153533 2408.43947872 0.07272716 2463.87056906 0.07387936 C2465.34451506 0.07391 2466.81846105 0.07394064 2468.33707208 0.0739722 C2472.79978387 0.07406497 2477.26249566 0.07415772 2481.72520745 0.07425047 C2602.29172994 0.0767564 2722.85825243 0.07953761 2843.42477491 0.0824971 C2847.67885095 0.08260146 2851.93292698 0.0827056 2856.18700302 0.08280968 C2994.4345787 0.08619286 3132.68215436 0.09006355 3376.81911156 0.09914748 C3380.58435691 0.09929238 3384.34960226 0.09943702 3388.11484762 0.09958155 C3389.96359156 0.09965254 3389.96359156 0.09965254 3391.84968386 0.09972496 C3394.09283741 0.09981109 3396.33599095 0.09989718 3398.57914449 0.09998322 C3595.42241118 0.10754441 3792.26567781 0.11641794 3989.10894445 0.12494468 C3989.10894445 317.91494468 3989.10894445 635.70494468 3989.10894445 963.12494468 C2671.74894445 963.12494468 1354.38894445 963.12494468 -2.89105555 963.12494468 C-2.89105555 0.19101608 -2.89105555 0.19101608 0 0 Z " fill="#1E5485" transform="translate(1006.8910555454349,2411.875055315424)"/>
<path d="M0 0 C635 0 635 0 831 1 C835.62 0.67 840.24 0.34 845 0 C848.35595275 -0.00377162 851.66390849 0.02891757 855.01171875 0.15625 C855.87263626 0.18223267 856.73355377 0.20821533 857.62055969 0.23498535 C860.3098041 0.31662086 862.99861471 0.40733837 865.6875 0.5 C868.41566506 0.59200663 871.14381921 0.68184551 873.87226868 0.76501465 C875.55520881 0.81643469 877.23800361 0.87293197 878.920578 0.93518066 C882.24198571 1.03773138 884.82027178 1.05990941 888 0 C890.8878457 0.09079434 893.74443625 0.23964655 896.625 0.4375 C903.25352793 0.83934494 909.85866204 1.11412682 916.5 1.125 C917.56661865 1.13164673 917.56661865 1.13164673 918.65478516 1.13842773 C921.71555224 1.12984056 924.0725044 0.97583187 927 0 C929.00664306 -0.0940365 931.01630177 -0.12793376 933.02514648 -0.12939453 C934.26751572 -0.13254669 935.50988495 -0.13569885 936.78990173 -0.13894653 C938.15029943 -0.13715487 939.5106968 -0.13510345 940.87109375 -0.1328125 C942.27295448 -0.13348675 943.67481509 -0.13445779 945.07667542 -0.13571167 C948.02142444 -0.13718729 950.96614317 -0.13504136 953.91088867 -0.13037109 C957.65267369 -0.12472114 961.39438622 -0.12792329 965.13616848 -0.13394356 C968.03699773 -0.13759347 970.93781041 -0.13638966 973.83864021 -0.13381577 C975.21589225 -0.1331562 976.59314586 -0.1339403 977.97039604 -0.13629532 C979.91703124 -0.13888982 981.8636718 -0.13422329 983.81030273 -0.12939453 C984.91155991 -0.12859894 986.01281708 -0.12780334 987.14744568 -0.12698364 C992.44209148 0.04753263 997.72077779 0.56006482 1003 1 C1003 478.51 1003 956.02 1003 1448 C766.06 1448.33 529.12 1448.66 285 1449 C190.95 1449.33 96.9 1449.66 0 1450 C0 971.5 0 493 0 0 Z " fill="#184A77" transform="translate(0,963)"/>
<path d="M0 0 C1.2501847 0.00015598 2.50036941 0.00031196 3.7884385 0.00047267 C4.8340217 -0.00144447 4.8340217 -0.00144447 5.90072779 -0.00340034 C8.2708541 -0.00649871 10.64091561 -0.0023784 13.01103985 0.00162334 C14.72167141 0.0008847 16.43230282 -0.0002928 18.14293381 -0.00187286 C22.88646601 -0.00496203 27.62997703 -0.00175062 32.37350767 0.00240542 C37.50603214 0.00581683 42.63855429 0.00346981 47.77107918 0.00182265 C56.79024289 -0.00026269 65.80940002 0.00140482 74.82856297 0.00545603 C88.41415588 0.01153846 101.99974478 0.01182758 115.58533881 0.01099074 C138.34839514 0.00974634 161.11144799 0.01304284 183.87450325 0.0190956 C214.6533176 0.02726243 245.43212802 0.02919759 276.21094429 0.03006667 C350.24125901 0.03532407 424.27157289 0.04928508 498.30188667 0.06217116 C746.26594917 0.09310866 746.26594917 0.09310866 999.23938667 0.12467116 C999.23938667 478.29467116 999.23938667 956.46467116 999.23938667 1449.12467116 C945.48596268 1449.12467116 891.73282887 1449.12442586 837.97948372 1449.06120986 C835.99081694 1449.05893005 834.00215014 1449.05665876 832.01348334 1449.05439496 C828.89969588 1449.05084922 825.78590842 1449.04729854 822.67212099 1449.04372163 C811.66807771 1449.03108595 800.66403375 1449.01909153 789.65998976 1449.00709199 C769.37290463 1448.98495354 749.08582004 1448.96235739 728.79873573 1448.93947524 C708.79011478 1448.91690876 688.78149359 1448.89456117 668.77287209 1448.87248916 C666.88791528 1448.87040964 666.88791528 1448.87040964 664.96487854 1448.86828811 C658.57982183 1448.86124508 652.19476511 1448.85420581 645.80970838 1448.84716797 C600.89906033 1448.79765918 555.9884128 1448.74768497 511.07776558 1448.69742507 C500.2575955 1448.68531634 489.43742542 1448.67320928 478.61725533 1448.66110915 C477.94592424 1448.66035841 477.27459316 1448.65960766 476.58291871 1448.65883416 C445.20583948 1448.62374761 413.82875996 1448.58893124 382.45168036 1448.55418185 C380.40746532 1448.55191792 378.36325028 1448.54965388 376.31903524 1448.54738982 C362.76866293 1448.53238233 349.21829062 1448.51737944 335.6679183 1448.50237962 C308.07848016 1448.47183897 280.48904205 1448.44126919 252.89960396 1448.41068191 C251.63183423 1448.40927642 250.36406449 1448.40787093 249.0578775 1448.40642285 C164.78504668 1448.31299206 80.51221662 1448.21888656 -3.76061333 1448.12467116 C-3.76611123 1403.85326819 -3.77138321 1359.5818652 -3.77648247 1315.31046218 C-3.77658226 1314.44419681 -3.77668206 1313.57793145 -3.77678488 1312.68541562 C-3.78746879 1219.893434 -3.79669279 1127.10145238 -3.80295647 1034.30947036 C-3.80309592 1032.24911464 -3.80323537 1030.18875891 -3.80337482 1028.12840319 C-3.80629729 984.88426485 -3.80901403 941.6401265 -3.811493 898.39598814 C-3.81273843 876.67413605 -3.81402341 854.95228397 -3.81534577 833.23043188 C-3.81554502 829.95370214 -3.81574313 826.67697241 -3.81594121 823.40024267 C-3.81900243 772.92268382 -3.82291358 722.44512522 -3.82927788 671.96756667 C-3.82941478 670.88164322 -3.82955167 669.79571977 -3.82969272 668.67688955 C-3.83190519 651.16776347 -3.83418876 633.6586374 -3.83648177 616.14951133 C-3.84308248 565.73892542 -3.8491604 515.3283397 -3.85175312 464.9177534 C-3.85180665 463.88185094 -3.85186019 462.84594848 -3.85191535 461.77865504 C-3.85308091 439.04212861 -3.85397586 416.30560217 -3.85461431 393.56907571 C-3.85487594 384.42168791 -3.85517656 375.2743001 -3.85549057 366.1269123 C-3.855524 365.12574917 -3.85555742 364.12458604 -3.85559186 363.09308463 C-3.85668962 330.79601159 -3.86096515 298.49893993 -3.86689553 266.20186745 C-3.87285136 233.68746355 -3.87571504 201.17306099 -3.87423731 168.65865654 C-3.87403421 164.17266021 -3.87386684 159.68666389 -3.87372101 155.20066756 C-3.87369113 154.32123034 -3.87366125 153.44179311 -3.87363046 152.53570627 C-3.87324877 138.5709238 -3.87624336 124.60614413 -3.88062319 110.64136242 C-3.88485395 96.93311168 -3.88556396 83.22486461 -3.88244514 69.51661354 C-3.88072157 61.46458891 -3.88178249 53.41257586 -3.88683033 45.36055257 C-3.89026295 39.40587281 -3.88856481 33.45120214 -3.8847533 27.49652234 C-3.88403192 25.0853362 -3.88503071 22.67414885 -3.88784857 20.26296424 C-3.89140437 17.01764682 -3.88893441 13.77239134 -3.88481182 10.52707601 C-3.8873207 9.57564539 -3.88982958 8.62421477 -3.89241448 7.64395292 C-3.87183709 0.17485478 -3.87183709 0.17485478 0 0 Z " fill="#1A4D7A" transform="translate(5000.760613325983,962.8753288350999)"/>
<path d="M0 0 C1.21095255 -0.00256411 2.42190509 -0.00512821 3.66955317 -0.00777002 C5.01360366 -0.00556184 6.357654 -0.0032629 7.70170419 -0.00088333 C9.1372699 -0.00200031 10.57283533 -0.00355552 12.00840014 -0.00550923 C15.97779885 -0.00962783 19.94717378 -0.00747971 23.9165725 -0.00436337 C28.2418075 -0.00206716 32.56703839 -0.00556489 36.89227258 -0.00833018 C44.51022874 -0.01239217 52.12817809 -0.01270616 59.74613495 -0.01062424 C71.15057923 -0.00752457 82.55501723 -0.01015635 93.95946105 -0.01392295 C113.39307722 -0.0201689 132.82669117 -0.02162726 152.26030819 -0.02050548 C171.96366661 -0.01938243 191.66702315 -0.0204102 211.37038128 -0.02407794 C212.61328979 -0.02430759 213.8561983 -0.02453725 215.1367707 -0.02477386 C220.19866692 -0.02571546 225.26056313 -0.02667114 230.32245934 -0.02764505 C282.46637677 -0.03766286 334.61029262 -0.04083733 386.7542108 -0.04141348 C392.44368763 -0.04147673 398.13316445 -0.04154325 403.82264128 -0.04161404 C405.24862858 -0.04163173 406.67461588 -0.0416491 408.10060319 -0.04166616 C440.08950655 -0.04205377 472.07840969 -0.04423172 504.06731294 -0.04679641 C511.20435287 -0.04736797 518.34139281 -0.04792194 525.47843274 -0.04847705 C526.54108854 -0.04855973 526.54108854 -0.04855973 527.62521214 -0.04864408 C531.92551965 -0.04897858 536.22582715 -0.04931235 540.52613466 -0.04964564 C542.68033038 -0.04981272 544.8345261 -0.04998023 546.98872182 -0.05014778 C580.48398679 -0.05274978 613.97925178 -0.05498004 647.47451679 -0.05682998 C648.20436159 -0.05687035 648.93420638 -0.05691072 649.68616768 -0.05695231 C696.20146377 -0.05951582 742.71675972 -0.06041477 789.23205587 -0.06015198 C791.51971315 -0.06013922 793.80737043 -0.06012726 796.09502771 -0.06011557 C812.16712937 -0.06003323 828.23923103 -0.05993052 844.3113327 -0.05982269 C848.91964994 -0.05979192 853.52796718 -0.05976185 858.13628443 -0.05973187 C861.98022508 -0.05970678 865.82416573 -0.05968099 869.66810638 -0.05965376 C942.27455815 -0.05914231 1014.88100882 -0.0605607 1087.48746006 -0.07000117 C1088.25189942 -0.07010053 1089.01633878 -0.07019989 1089.80394296 -0.07030226 C1113.68858134 -0.0734136 1137.57321968 -0.0767801 1161.45785801 -0.08019404 C1185.96492409 -0.08369541 1210.47199017 -0.08716584 1234.97905628 -0.09045844 C1235.73362323 -0.09055997 1236.48819017 -0.09066149 1237.26562278 -0.0907661 C1284.51447873 -0.09711423 1331.76333438 -0.10103692 1379.01219074 -0.10231643 C1379.74182209 -0.10233646 1380.47145343 -0.10235648 1381.22319481 -0.10237712 C1413.26525155 -0.1032524 1445.30730827 -0.10357223 1477.34936502 -0.10328623 C1490.23955009 -0.10317195 1503.12973516 -0.10311588 1516.01992022 -0.10308291 C1518.15720823 -0.10307651 1520.29449624 -0.10306743 1522.43178424 -0.10305776 C1555.13306766 -0.10292123 1587.83435006 -0.10426949 1620.53563301 -0.11010294 C1621.24111737 -0.11022861 1621.94660173 -0.11035428 1622.6734644 -0.11048376 C1634.02246283 -0.11251285 1645.37146123 -0.11465686 1656.72045964 -0.11681057 C1703.2061913 -0.12562501 1749.69191713 -0.12816294 1796.17764967 -0.12145026 C1802.49773129 -0.1205379 1808.81781292 -0.11969464 1815.13789456 -0.11889224 C1816.99633428 -0.11865211 1816.99633428 -0.11865211 1818.89231823 -0.11840713 C1838.54466397 -0.11605011 1858.19700227 -0.12042094 1877.8493466 -0.12756343 C1897.15328077 -0.13443949 1916.45720392 -0.13422737 1935.76113784 -0.12637129 C1947.09149597 -0.12197468 1958.4218217 -0.12309758 1969.75217718 -0.13223808 C1977.2665917 -0.13775771 1984.7809819 -0.13609126 1992.29539453 -0.12845529 C1996.56184457 -0.12432447 2000.8282306 -0.12335523 2005.09467686 -0.13120598 C2008.9650394 -0.13826993 2012.83528362 -0.13614558 2016.70564002 -0.12667229 C2018.09422212 -0.12488122 2019.48281365 -0.1264322 2020.87138669 -0.13175842 C2040.47725249 -0.20188834 2055.32821086 5.89694372 2069.70444004 19.3131165 C2085.52607832 35.70285669 2088.48171463 55.0484879 2088.40512364 76.77039189 C2088.40919636 78.72326047 2088.41454215 80.67612673 2088.42105381 82.62898869 C2088.43464898 87.89750985 2088.4294614 93.1658534 2088.41991656 98.43437738 C2088.41228041 103.96740223 2088.4193764 109.50041266 2088.42407505 115.03343816 C2088.42952067 124.32110915 2088.42237189 133.60870838 2088.40805332 142.89636846 C2088.39172434 153.61134571 2088.397022 164.32615171 2088.41353254 175.04112483 C2088.42717572 184.26699069 2088.42905338 193.4928052 2088.42121653 202.71867789 C2088.41655619 208.21748701 2088.41586997 213.7162158 2088.425826 219.21501965 C2088.43453486 224.38537729 2088.42840249 229.55551548 2088.41114323 234.72584958 C2088.40719946 236.61557125 2088.40827595 238.50531161 2088.41493122 240.39502568 C2088.44687427 250.391766 2088.19842589 259.52464923 2085.01694004 269.1256165 C2084.64053379 270.26256963 2084.26412754 271.39952275 2083.87631504 272.570929 C2081.03312357 279.43863799 2077.54496124 285.24024937 2073.01694004 291.1256165 C2072.29506504 292.1362415 2071.57319004 293.1468665 2070.82944004 294.1881165 C2061.24829148 305.282078 2046.34078511 312.66065134 2032.01694004 315.1256165 C2030.02872655 315.21429278 2028.03790144 315.25159694 2026.04771149 315.25217834 C2024.23592307 315.25634131 2024.23592307 315.25634131 2022.38753286 315.26058839 C2021.04698134 315.25861888 2019.70642995 315.25655859 2018.36587869 315.25441767 C2016.93399707 315.25578611 2015.50211581 315.25759227 2014.07023523 315.25979649 C2010.11107715 315.26460827 2006.15194179 315.26315784 2002.19278242 315.26073879 C1997.87866948 315.25920069 1993.56456164 315.26344983 1989.25045039 315.26696555 C1981.65207075 315.27234846 1974.0536973 315.27398145 1966.4553159 315.27321481 C1955.08007313 315.27208136 1943.70483759 315.27665416 1932.32959645 315.28234565 C1912.94549162 315.29186732 1893.56138824 315.29656647 1874.17728131 315.29865498 C1854.52390585 315.30078182 1834.87053263 315.30503766 1815.21715824 315.31189771 C1813.35751017 315.31254363 1813.35751017 315.31254363 1811.46029345 315.3132026 C1806.41118197 315.3149609 1801.36207049 315.31673054 1796.31295902 315.31851562 C1735.77705225 315.33987599 1675.24114568 315.35079212 1614.70523611 315.35967785 C1594.13456352 315.36270097 1573.56389104 315.36616157 1552.99321859 315.36995907 C1552.29305702 315.37008818 1551.59289545 315.3702173 1550.87151687 315.37035033 C1544.4982446 315.3715258 1538.12497233 315.37270498 1531.75170006 315.37388759 C1459.73792222 315.3872426 1387.72414404 315.39963675 1241.0050882 315.41464662 C1234.15328085 315.41517108 1227.3014735 315.4157084 1220.44966615 315.41624509 C1218.16144947 315.41642429 1215.8732328 315.41660326 1213.58501612 315.41678218 C1199.04848602 315.41791926 1184.51195592 315.41906533 1169.97542582 315.42023037 C1166.14019212 315.42053768 1162.30495842 315.42084362 1158.46972472 315.42114628 C1086.03742225 315.42686591 1013.60512328 315.43610796 941.17282383 315.45856328 C940.41036473 315.45879951 939.64790563 315.45903574 938.8623417 315.45927912 C914.27328912 315.46690698 889.68423668 315.47495581 865.09518425 315.48306439 C841.41850215 315.49087196 817.74182003 315.49859538 794.06513779 315.50595422 C792.93620594 315.50630535 792.93620594 315.50630535 791.7844674 315.50666358 C744.64892465 315.52130054 697.51338285 315.53110208 650.37783806 315.53582902 C649.64982636 315.53590261 648.92181465 315.53597621 648.17174199 315.53605203 C616.19896091 315.53927803 584.22617984 315.54144643 552.25339861 315.54243504 C539.39053612 315.54283585 526.52767364 315.54336924 513.66481116 315.54396646 C511.53207557 315.54406393 509.39933998 315.54415631 507.26660439 315.54424784 C474.64449662 315.54567653 442.02239335 315.55024602 409.40028827 315.56412382 C408.69679679 315.56442289 407.99330531 315.56472196 407.26849591 315.5650301 C395.95194367 315.56985864 384.63539155 315.57494055 373.31883945 315.58005609 C326.94215153 315.60101292 280.56548541 315.60963706 234.18879153 315.59993124 C227.87990555 315.59861274 221.57101955 315.59743471 215.26213352 315.59634061 C214.02539553 315.59612076 212.78865753 315.59590091 211.51444263 315.5956744 C191.91701331 315.59255783 172.31961502 315.60289534 152.7221929 315.61881616 C133.46039581 315.63418612 114.19864171 315.63533349 94.93684314 315.62126792 C83.63894329 315.61344696 72.34117461 315.61660137 61.04328781 315.63590508 C53.54145348 315.64763191 46.03971509 315.6448685 38.53788599 315.63029044 C34.2842648 315.6224312 30.03090043 315.62073916 25.77729691 315.63690948 C21.9102937 315.65149277 18.04375999 315.6473354 14.17677754 315.62885782 C12.15280094 315.62382465 10.12880347 315.63818386 8.10487943 315.6536138 C-11.52714312 315.50231302 -27.74963984 308.78113836 -41.98305996 295.1256165 C-47.53331292 289.03365885 -51.57772843 282.48661355 -54.92055996 275.0006165 C-55.20318691 274.36825078 -55.48581386 273.73588506 -55.77700527 273.08435674 C-60.55971186 261.64253811 -60.28108383 250.06422531 -60.2735873 237.88489385 C-60.27957907 235.93895822 -60.2863861 233.99302496 -60.29394253 232.04709477 C-60.31154595 226.78230491 -60.31629558 221.51758015 -60.3175741 216.2527637 C-60.31899972 212.95632202 -60.32327714 209.65989667 -60.32856853 206.36345906 C-60.34705168 194.84259859 -60.35524149 183.32178428 -60.35366543 171.80090947 C-60.35246523 161.09570514 -60.37354826 150.39070282 -60.40515275 139.68554957 C-60.43138852 130.46733019 -60.44202963 121.24917648 -60.44075461 112.0309201 C-60.44024702 106.53748416 -60.44581671 101.0442278 -60.46711071 95.55082936 C-60.48661591 90.37800581 -60.48653431 85.20553085 -60.47207744 80.03269429 C-60.47000324 78.14625895 -60.4746062 76.25980106 -60.48679836 74.37340398 C-60.61603883 52.97159708 -56.3800155 35.13606931 -41.12368496 19.23108525 C-40.06407558 18.18887822 -40.06407558 18.18887822 -38.98305996 17.1256165 C-38.42102871 16.56487431 -37.85899746 16.00413213 -37.27993496 15.42639775 C-27.13297824 6.04292564 -13.85497031 0.00159339 0 0 Z " fill="#FEFEFE" transform="translate(1985.9830599576235,1847.8743834979832)"/>
<path d="M0 0 C1316.7 0 2633.4 0 3990 0 C3990 477.51 3990 955.02 3990 1447 C2673.3 1447 1356.6 1447 0 1447 C0 969.49 0 491.98 0 0 Z M12 12 C12 481.59 12 951.18 12 1435 C1320.78 1435 2629.56 1435 3978 1435 C3978 965.41 3978 495.82 3978 12 C2669.22 12 1360.44 12 12 12 Z " fill="#FEFEFE" transform="translate(1005,964)"/>
<path d="M0 0 C111.08754174 0 111.08754174 0 132.77734375 20.58984375 C136.2925199 24.40155498 138.76532516 28.33511628 141 33 C141.61875 34.19882813 141.61875 34.19882813 142.25 35.421875 C147.30186212 47.27971804 147.18481995 64.73501925 143.3125 77 C142.59456899 78.69012925 141.82774226 80.36085249 141 82 C140.649375 82.77601562 140.29875 83.55203125 139.9375 84.3515625 C134.74794784 94.83878248 124.55256855 105.72371573 114 111 C113.34 111 112.68 111 112 111 C133.30610161 143.54616833 133.30610161 143.54616833 155.32861328 175.60791016 C158.26567987 179.81144192 161.14081795 184.05573112 164 188.3125 C164.51183838 189.06740723 165.02367676 189.82231445 165.55102539 190.60009766 C169 195.76353878 169 195.76353878 169 198 C161.28122664 198.20892707 153.56274766 198.36864028 145.84178734 198.46630955 C142.25597355 198.5132002 138.67209949 198.57673688 135.08740234 198.67895508 C131.6248041 198.77706869 128.16406517 198.83061876 124.70018387 198.85389519 C122.74207366 198.87851477 120.78470795 198.94873008 118.82772827 199.01966858 C110.1400042 199.02458678 110.1400042 199.02458678 106.94500732 196.15306091 C105.37148548 193.83568878 104.16397776 191.54460421 103 189 C102.36384766 187.94031006 101.72769531 186.88062012 101.07226562 185.78881836 C100.52248047 184.81565674 99.97269531 183.84249512 99.40625 182.83984375 C98.77509277 181.72786621 98.14393555 180.61588867 97.49365234 179.47021484 C97.16854675 178.89406433 96.84344116 178.31791382 96.50848389 177.7243042 C94.76557591 174.63626746 93.01106512 171.55482766 91.2578125 168.47265625 C90.7253038 167.5356488 90.7253038 167.5356488 90.18203735 166.57971191 C86.62136566 160.32042482 83.0064498 154.09351277 79.375 147.875 C78.82005859 146.92359131 78.26511719 145.97218262 77.69335938 144.99194336 C76.64166402 143.19284786 75.57606523 141.40179029 74.49511719 139.62011719 C73 137 73 137 71.76269531 134.13769531 C70.39704674 130.93496214 70.39704674 130.93496214 67 127 C60.07 126.505 60.07 126.505 53 126 C53 149.76 53 173.52 53 198 C35.51 198 18.02 198 0 198 C0 132.66 0 67.32 0 0 Z " fill="#FEFEFE" transform="translate(3730,1233)"/>
<path d="M0 0 C1.88863014 0.00333092 1.88863014 0.00333092 3.81541443 0.00672913 C4.50806396 0.0065831 5.2007135 0.00643707 5.91435242 0.00628662 C8.21400537 0.00698577 10.51357828 0.01477823 12.81321716 0.02259827 C14.40362504 0.02446244 15.99403349 0.02588635 17.58444214 0.02688599 C21.77827021 0.03071123 25.97206386 0.04054156 30.1658783 0.05158997 C34.44220006 0.06180395 38.71852736 0.06638358 42.99485779 0.07142639 C51.39135799 0.08216383 59.78783017 0.09924032 68.18431091 0.12025452 C71.11099205 7.17356148 73.64838724 14.29457946 76.00071716 21.55775452 C76.54778069 23.23238266 76.54778069 23.23238266 77.105896 24.94084167 C78.11080686 28.01835251 79.11289481 31.09676623 80.11396027 34.17552948 C81.87909738 39.5997261 83.65297178 45.02107913 85.42476654 50.44310379 C86.14338113 52.64259476 86.86158818 54.84221853 87.57975769 57.04185486 C92.82860408 73.11353456 98.1229307 89.17020151 103.41646194 105.22720623 C107.93991316 118.94873062 112.45598456 132.67268575 116.97172165 146.39675045 C118.15137756 149.98183379 119.33125682 153.566843 120.51200867 157.15156555 C122.67251963 163.71090285 124.83013677 170.27115783 126.97904968 176.83430481 C127.56681441 178.62733482 128.15609007 180.41987037 128.74699402 182.21186829 C129.52580254 184.57453365 130.29924914 186.93887969 131.07102966 189.30384827 C131.29144424 189.9683046 131.51185883 190.63276093 131.73895264 191.31735229 C132.62807747 194.06073534 133.18431091 196.21129469 133.18431091 199.12025452 C114.04431091 199.12025452 94.90431091 199.12025452 75.18431091 199.12025452 C73.02198645 192.63328112 71.27927786 186.10943634 69.55931091 179.49525452 C69.23446716 178.26806702 68.90962341 177.04087952 68.57493591 175.77650452 C68.1147406 174.00919983 68.1147406 174.00919983 67.64524841 172.20619202 C67.36471619 171.13417542 67.08418396 170.06215881 66.79515076 168.95765686 C66.18431091 166.12025452 66.18431091 166.12025452 66.18431091 162.12025452 C44.73431091 162.45025452 23.28431091 162.78025452 1.18431091 163.12025452 C-2.28068909 176.48525452 -2.28068909 176.48525452 -5.81568909 190.12025452 C-6.80568909 193.09025452 -7.79568909 196.06025452 -8.81568909 199.12025452 C-28.28568909 199.12025452 -47.75568909 199.12025452 -67.81568909 199.12025452 C-64.44140019 186.7478619 -64.44140019 186.7478619 -62.89308167 182.06532288 C-62.54388168 181.00422806 -62.1946817 179.94313324 -61.8348999 178.84988403 C-61.46375565 177.73125473 -61.09261139 176.61262543 -60.71022034 175.46009827 C-60.10316779 173.61762726 -59.49611934 171.77515489 -58.8892374 169.93262768 C-58.24680037 167.9836024 -57.60309929 166.03499866 -56.95906067 164.08650208 C-54.67830972 157.18492357 -52.40867833 150.27968522 -50.13990784 143.37416077 C-49.79637772 142.32885696 -49.79637772 142.32885696 -49.44590759 141.26243591 C-45.20774735 128.36210212 -41.05572687 115.4353943 -36.94068909 102.49525452 C-30.41227671 81.97726498 -23.72751133 61.51217542 -17.00318909 41.05775452 C-16.75858192 40.31362053 -16.51397476 39.56948654 -16.26195526 38.80280304 C-14.62852838 33.83407035 -12.99410622 28.86566594 -11.35865784 23.89759827 C-11.04267482 22.93772098 -11.04267482 22.93772098 -10.7203083 21.95845222 C-9.75646756 19.03122329 -8.79145778 16.10439218 -7.82408142 13.17832947 C-7.17889133 11.22171041 -6.53817749 9.26360604 -5.90324402 7.30363464 C-3.57237147 0.15257146 -3.57237147 0.15257146 0 0 Z " fill="#FDFEFE" transform="translate(3574.815689086914,1231.8797454833984)"/>
<path d="M0 0 C23.76 0 47.52 0 72 0 C85.35368503 39.982504 85.35368503 39.982504 89.05859375 51.11328125 C89.31670774 51.88874109 89.57482174 52.66420094 89.84075737 53.46315956 C94.11140302 66.29747768 98.33181511 79.14706169 102.50243568 92.01423454 C106.68488123 104.91534992 110.90219999 117.80436791 115.16120529 130.68040657 C116.10462535 133.53335737 117.04693265 136.38667359 117.98892212 139.24009705 C120.92395893 148.13066885 123.86067984 157.02067273 126.80343723 165.90869236 C128.03435924 169.62845738 129.26286734 173.34901649 130.49077797 177.06977654 C131.07296941 178.83206211 131.65623292 180.5939939 132.24059105 182.35556221 C133.04705169 184.78701992 133.849887 187.21964551 134.65185547 189.65258789 C135.01164505 190.73284367 135.01164505 190.73284367 135.37870312 191.83492279 C137 196.77196946 137 196.77196946 137 199 C117.53 199 98.06 199 78 199 C76.35 192.4 74.7 185.8 73 179 C71.36153978 172.88348254 71.36153978 172.88348254 69.69921875 166.7734375 C69 164 69 164 69 162 C47.55 162 26.1 162 4 162 C3.34 165.3 2.68 168.6 2 172 C1.23902785 175.40909703 0.40413806 178.79749654 -0.4375 182.1875 C-0.64181641 183.03763672 -0.84613281 183.88777344 -1.05664062 184.76367188 C-1.26353516 185.59833984 -1.47042969 186.43300781 -1.68359375 187.29296875 C-1.86462646 188.0305542 -2.04565918 188.76813965 -2.23217773 189.52807617 C-3.24013022 192.77307423 -4.66148676 195.87680245 -6 199 C-25.14 199 -44.28 199 -64 199 C-61.75031633 188.87642351 -61.75031633 188.87642351 -60.55810547 185.27368164 C-60.28888779 184.45260925 -60.0196701 183.63153687 -59.74229431 182.7855835 C-59.45350906 181.9191925 -59.16472382 181.05280151 -58.8671875 180.16015625 C-58.40482445 178.75434296 -58.40482445 178.75434296 -57.93312073 177.32012939 C-57.26693386 175.29556051 -56.59888893 173.27160227 -55.9291687 171.24819946 C-54.0983386 165.71542803 -52.28207239 160.17787577 -50.46484375 154.640625 C-50.08946976 153.49777542 -49.71409576 152.35492584 -49.3273468 151.17744446 C-45.95576134 140.898154 -42.66202609 130.59492344 -39.3833313 120.28570557 C-32.36102923 98.21121128 -25.1738426 76.19253028 -17.9375 54.1875 C-17.6893391 53.43270481 -17.44117821 52.67790962 -17.18549728 51.90024185 C-15.50907465 46.80155735 -13.83121742 41.70334668 -12.15234375 36.60546875 C-11.94124466 35.96421932 -11.73014557 35.32296989 -11.51264954 34.66228867 C-7.70478216 23.09817647 -3.85009037 11.55027111 0 0 Z " fill="#FDFEFE" transform="translate(2974,1232)"/>
<path d="M0 0 C1.88863014 0.00333092 1.88863014 0.00333092 3.81541443 0.00672913 C4.50806396 0.0065831 5.2007135 0.00643707 5.91435242 0.00628662 C8.21400537 0.00698577 10.51357828 0.01477823 12.81321716 0.02259827 C14.40362504 0.02446244 15.99403349 0.02588635 17.58444214 0.02688599 C21.77827021 0.03071123 25.97206386 0.04054156 30.1658783 0.05158997 C34.44220006 0.06180395 38.71852736 0.06638358 42.99485779 0.07142639 C51.39135799 0.08216383 59.78783017 0.09924032 68.18431091 0.12025452 C71.92663356 8.76933934 74.73850434 17.7176905 77.62096596 26.67815971 C79.16779115 31.48561061 80.72657939 36.28918813 82.28343201 41.09339905 C82.60573319 42.08901698 82.92803438 43.08463491 83.26010227 44.11042309 C86.6422765 54.55156228 90.07528304 64.97574488 93.51634216 75.39759827 C94.13160986 77.26194335 94.74686453 79.12629273 95.36210632 80.99064636 C96.60603102 84.75954669 97.85035417 88.52831522 99.09489441 92.29701233 C102.35599775 102.17315832 105.61153344 112.05114124 108.86790466 121.92884827 C109.82252003 124.82444651 110.77714503 127.72004157 111.73178101 130.61563301 C112.34622275 132.47935187 112.96065366 134.3430743 113.57507324 136.20680046 C115.21353116 141.17656113 116.85263063 146.14610937 118.49242878 151.11542797 C120.82352985 158.17983721 123.1507572 165.24549954 125.47200012 172.31315613 C126.191133 174.50042696 126.91183126 176.6871838 127.63417053 178.87339783 C128.60029393 181.79810618 129.56105419 184.72451778 130.52024841 187.65150452 C130.93507225 188.90079491 130.93507225 188.90079491 131.35827637 190.17532349 C132.36565846 193.26583219 133.18431091 195.84743433 133.18431091 199.12025452 C114.04431091 199.12025452 94.90431091 199.12025452 75.18431091 199.12025452 C71.67451629 186.83597334 68.28290853 174.51464498 65.18431091 162.12025452 C43.73431091 162.12025452 22.28431091 162.12025452 0.18431091 162.12025452 C-0.31068909 166.08025452 -0.31068909 166.08025452 -0.81568909 170.12025452 C-1.30166663 172.25217644 -1.83176924 174.37461121 -2.40943909 176.48353577 C-2.71752502 177.61726624 -3.02561096 178.7509967 -3.34303284 179.91908264 C-3.6640094 181.07859436 -3.98498596 182.23810608 -4.31568909 183.43275452 C-4.63666565 184.61160217 -4.95764221 185.79044983 -5.28834534 187.00502014 C-7.61492024 195.51794797 -7.61492024 195.51794797 -8.81568909 199.12025452 C-28.28568909 199.12025452 -47.75568909 199.12025452 -67.81568909 199.12025452 C-64.44138071 186.74779046 -64.44138071 186.74779046 -63.07667542 182.61610413 C-62.76750183 181.6750885 -62.45832825 180.73407288 -62.13978577 179.76454163 C-61.64871338 178.28352966 -61.64871338 178.28352966 -61.14772034 176.77259827 C-60.79641052 175.70477112 -60.44510071 174.63694397 -60.08314514 173.53675842 C-59.32798741 171.24162745 -58.57169886 168.94686829 -57.81437683 166.65245056 C-55.76636504 160.44603009 -53.72787563 154.23648525 -51.69068909 148.02650452 C-51.48311792 147.39398207 -51.27554676 146.76145962 -51.06168556 146.10976982 C-47.01692082 133.78017612 -43.06139945 121.4232838 -39.12818909 109.05775452 C-32.39801021 87.91266633 -25.49915861 66.8243422 -18.56568909 45.74525452 C-18.31129185 44.9717503 -18.05689461 44.19824608 -17.79478836 43.40130234 C-16.08930154 38.21611546 -14.38270218 33.0312958 -12.67506409 27.84681702 C-12.45598326 27.18162237 -12.23690243 26.51642773 -12.01118279 25.83107567 C-10.99327764 22.74112348 -9.97398018 19.65164415 -8.95228577 16.5629425 C-8.18381848 14.23529792 -7.4200251 11.90610585 -6.66053772 9.57551575 C-6.12293823 7.93549591 -6.12293823 7.93549591 -5.57447815 6.26234436 C-5.25867798 5.29308014 -4.94287781 4.32381592 -4.61750793 3.32518005 C-3.46207922 0.14786102 -3.46207922 0.14786102 0 0 Z " fill="#FDFEFE" transform="translate(2387.815689086914,1231.8797454833984)"/>
<path d="M0 0 C1.88863014 0.00333092 1.88863014 0.00333092 3.81541443 0.00672913 C4.50806396 0.0065831 5.2007135 0.00643707 5.91435242 0.00628662 C8.21400537 0.00698577 10.51357828 0.01477823 12.81321716 0.02259827 C14.40362504 0.02446244 15.99403349 0.02588635 17.58444214 0.02688599 C21.77827021 0.03071123 25.97206386 0.04054156 30.1658783 0.05158997 C34.44220006 0.06180395 38.71852736 0.06638358 42.99485779 0.07142639 C51.39135799 0.08216383 59.78783017 0.09924032 68.18431091 0.12025452 C70.70544812 6.27938044 73.05942879 12.45312196 75.14524841 18.77259827 C75.41712982 19.58870071 75.68901123 20.40480316 75.96913147 21.24563599 C76.54700386 22.98225832 77.12342761 24.71936331 77.69847107 26.45692444 C78.5199658 28.93888227 79.34577863 31.4193612 80.17259216 33.89955139 C83.20758243 43.02442323 86.20160706 52.16244228 89.17210388 61.30848694 C89.44204792 62.13956781 89.71199196 62.97064869 89.99011612 63.82691383 C90.26762081 64.68128218 90.5451255 65.53565052 90.83103943 66.41590881 C96.39440872 83.54328891 102.00139686 100.65525876 107.67302322 117.74712563 C108.76756176 121.04575145 109.86129256 124.34464405 110.95478821 127.64361572 C115.39941391 141.05147397 115.39941391 141.05147397 119.85423279 154.45594788 C121.71042812 160.0345755 123.56088334 165.61507752 125.407444 171.19690132 C126.10305255 173.29600171 126.80079625 175.39439584 127.50075912 177.49204826 C128.46503316 180.38253335 129.42197136 183.27534791 130.37718201 186.1688385 C130.66376175 187.02197632 130.95034149 187.87511414 131.24560547 188.75410461 C131.63175774 189.93126289 131.63175774 189.93126289 132.02571106 191.13220215 C132.25088095 191.81010016 132.47605083 192.48799818 132.70804405 193.18643856 C133.18431091 195.12025452 133.18431091 195.12025452 133.18431091 199.12025452 C114.04431091 199.12025452 94.90431091 199.12025452 75.18431091 199.12025452 C73.53431091 193.18025452 71.88431091 187.24025452 70.18431091 181.12025452 C68.54454611 175.57606037 68.54454611 175.57606037 66.88352966 170.03822327 C66.18431091 167.12025452 66.18431091 167.12025452 66.18431091 162.12025452 C44.73431091 162.45025452 23.28431091 162.78025452 1.18431091 163.12025452 C-0.46568909 169.39025452 -2.11568909 175.66025452 -3.81568909 182.12025452 C-5.46568909 187.73025452 -7.11568909 193.34025452 -8.81568909 199.12025452 C-28.28568909 199.12025452 -47.75568909 199.12025452 -67.81568909 199.12025452 C-58.64693309 169.32179753 -58.64693309 169.32179753 -55.00318909 158.33900452 C-54.37282996 156.42661924 -53.74247497 154.51423259 -53.11229134 152.60178947 C-52.46022787 150.62419964 -51.80703659 148.64698573 -51.15351868 146.6698761 C-48.82777253 139.63233767 -46.51252949 132.59134077 -44.19850159 125.54994202 C-43.96653202 124.84422436 -43.73456245 124.1385067 -43.49556351 123.41140366 C-39.15828206 110.21123825 -34.90505402 96.98518409 -30.69068909 83.74525452 C-24.87469293 65.48637201 -18.97988651 47.25413317 -13.02568817 29.03992462 C-12.38094873 27.06620253 -11.73739758 25.09209675 -11.0941925 23.11787415 C-9.90220985 19.45989597 -8.70502929 15.80363212 -7.50709534 12.14759827 C-7.14750229 11.04297745 -6.78790924 9.93835663 -6.41741943 8.80026245 C-6.08808914 7.79847458 -5.75875885 6.79668671 -5.41944885 5.76454163 C-4.98886925 4.44854225 -4.98886925 4.44854225 -4.54959106 3.10595703 C-3.43260403 0.08374967 -3.36788614 0.14383815 0 0 Z " fill="#FDFEFE" transform="translate(1814.815689086914,1231.8797454833984)"/>
<path d="M0 0 C17.82 0 35.64 0 54 0 C54.00410889 3.76341797 54.00821777 7.52683594 54.01245117 11.40429688 C54.02970425 23.88539186 54.07404976 36.36626995 54.13209057 48.84723663 C54.16660292 56.40909485 54.19207788 63.97077339 54.19555664 71.53271484 C54.19861585 78.13109114 54.21936597 84.7291463 54.26052457 91.32739878 C54.28168101 94.81454149 54.29454626 98.30122973 54.28615379 101.78843689 C53.7330708 126.02845614 53.7330708 126.02845614 63.25 147.75 C70.27816918 154.50900526 77.32853202 155.54766318 86.75683594 155.40283203 C94.79608283 155.08760237 101.40729024 153.55992866 107.4296875 147.9296875 C115.39375604 138.1429963 115.14595455 126.38644975 115.20532227 114.43359375 C115.21522186 113.19372208 115.22512146 111.9538504 115.23532104 110.67640686 C115.26137716 107.29889444 115.2832928 103.92140398 115.30332303 100.54385376 C115.32529915 97.00577341 115.35263056 93.4677344 115.37937927 89.9296875 C115.42914987 83.2399004 115.47414621 76.55009016 115.51740164 69.8602581 C115.56690825 62.23987589 115.62177628 54.61953518 115.67708123 46.99919319 C115.79066107 31.33283245 115.89684407 15.66643337 116 0 C133.82 0 151.64 0 170 0 C170.06796292 16.67357013 170.12312402 33.34702032 170.15543652 50.02069092 C170.1708447 57.76417025 170.19181709 65.50755681 170.22631836 73.25097656 C170.2564075 80.00741838 170.27561884 86.76379295 170.28226548 93.52029991 C170.28614505 97.09123445 170.29513289 100.66197677 170.31719017 104.23284912 C170.48518503 132.54369947 168.32549974 158.32385927 148 180 C138.03595122 189.45684761 126.1859821 194.63241093 113 198 C111.83339844 198.30035156 110.66679687 198.60070313 109.46484375 198.91015625 C84.16956171 204.53423654 55.65352225 201.89189203 32.96875 188.94921875 C28.14456136 185.78175805 24.04724179 182.09738461 20 178 C19.36449219 177.38640625 18.72898437 176.7728125 18.07421875 176.140625 C3.43318792 160.94771496 -0.35010978 137.83767174 -0.22705078 117.61230469 C-0.22734283 116.33283463 -0.22763489 115.05336456 -0.22793579 113.73512268 C-0.22850365 110.26687757 -0.21684255 106.79877416 -0.20278788 103.33056164 C-0.1901847 99.69110543 -0.18910253 96.05164507 -0.18673706 92.41217041 C-0.18055021 85.53829987 -0.16417771 78.66449384 -0.14403808 71.79065156 C-0.12159147 63.95739963 -0.11066374 56.12414443 -0.10064721 48.29086828 C-0.07980861 32.1938686 -0.04316785 16.09695765 0 0 Z " fill="#FDFDFE" transform="translate(2130,1233)"/>
<path d="M0 0 C17.82 0 35.64 0 54 0 C54.00410889 3.76341797 54.00821777 7.52683594 54.01245117 11.40429688 C54.02970425 23.88539186 54.07404976 36.36626995 54.13209057 48.84723663 C54.16660292 56.40909485 54.19207788 63.97077339 54.19555664 71.53271484 C54.19861585 78.13109114 54.21936597 84.7291463 54.26052457 91.32739878 C54.28168101 94.81454149 54.29454626 98.30122973 54.28615379 101.78843689 C53.7330708 126.02845614 53.7330708 126.02845614 63.25 147.75 C70.27816918 154.50900526 77.32853202 155.54766318 86.75683594 155.40283203 C94.79608283 155.08760237 101.40729024 153.55992866 107.4296875 147.9296875 C115.39375604 138.1429963 115.14595455 126.38644975 115.20532227 114.43359375 C115.21522186 113.19372208 115.22512146 111.9538504 115.23532104 110.67640686 C115.26137716 107.29889444 115.2832928 103.92140398 115.30332303 100.54385376 C115.32529915 97.00577341 115.35263056 93.4677344 115.37937927 89.9296875 C115.42914987 83.2399004 115.47414621 76.55009016 115.51740164 69.8602581 C115.56690825 62.23987589 115.62177628 54.61953518 115.67708123 46.99919319 C115.79066107 31.33283245 115.89684407 15.66643337 116 0 C133.82 0 151.64 0 170 0 C170.06796292 16.67357013 170.12312402 33.34702032 170.15543652 50.02069092 C170.1708447 57.76417025 170.19181709 65.50755681 170.22631836 73.25097656 C170.2564075 80.00741838 170.27561884 86.76379295 170.28226548 93.52029991 C170.28614505 97.09123445 170.29513289 100.66197677 170.31719017 104.23284912 C170.48518503 132.54369947 168.32549974 158.32385927 148 180 C138.03436227 189.45835568 126.18640722 194.62847543 113 198 C111.2675 198.45052734 111.2675 198.45052734 109.5 198.91015625 C84.00273652 204.62048088 55.42009449 201.81814243 32.59375 188.7265625 C27.93652574 185.62642226 23.95418345 181.9406185 20 178 C19.36191406 177.38511719 18.72382813 176.77023437 18.06640625 176.13671875 C3.44008666 160.92404336 -0.35017066 137.84767749 -0.22705078 117.61230469 C-0.22734283 116.33283463 -0.22763489 115.05336456 -0.22793579 113.73512268 C-0.22850365 110.26687757 -0.21684255 106.79877416 -0.20278788 103.33056164 C-0.1901847 99.69110543 -0.18910253 96.05164507 -0.18673706 92.41217041 C-0.18055021 85.53829987 -0.16417771 78.66449384 -0.14403808 71.79065156 C-0.12159147 63.95739963 -0.11066374 56.12414443 -0.10064721 48.29086828 C-0.07980861 32.1938686 -0.04316785 16.09695765 0 0 Z " fill="#FDFDFE" transform="translate(4080,1233)"/>
<path d="M0 0 C108.42708333 0 108.42708333 0 128.3125 18.6875 C140.69840619 31.9084111 144.63720687 47.04810495 144.33007812 64.70800781 C143.75168844 82.16058038 140.08888118 97.84203409 128 111 C127.50371094 111.598125 127.00742187 112.19625 126.49609375 112.8125 C115.59684318 125.05025503 98.63608038 129.76627423 83 132 C73.43 132 63.86 132 54 132 C54 153.78 54 175.56 54 198 C36.18 198 18.36 198 0 198 C0 132.66 0 67.32 0 0 Z " fill="#FDFDFE" transform="translate(4291,1233)"/>
<path d="M0 0 C19.8 0 39.6 0 60 0 C63.15812723 10.73763259 66.20403269 21.41084454 68.9375 32.25 C71.45337509 42.13950556 74.07786535 51.98519051 76.92382812 61.78564453 C79.18519211 69.58488558 81.2602648 77.4253418 83.29199219 85.28710938 C84.09031353 88.34605655 84.90814656 91.39949438 85.7265625 94.453125 C90.0831233 110.8143794 94.0370926 127.16133356 96 144 C96.1124707 143.22325928 96.22494141 142.44651855 96.34082031 141.64624023 C99.31128332 121.68193102 103.69558648 102.01578218 109.25439453 82.61962891 C110.51988458 78.17342451 111.72599146 73.71115492 112.9375 69.25 C113.18314697 68.34934814 113.42879395 67.44869629 113.68188477 66.52075195 C115.614448 59.4342705 117.52860936 52.3428907 119.4375 45.25 C119.8708667 43.6402832 119.8708667 43.6402832 120.31298828 41.99804688 C121.85675173 36.26040696 123.39575472 30.52152613 124.9296875 24.78125 C125.24494385 23.60401367 125.5602002 22.42677734 125.88500977 21.21386719 C126.48858428 18.95971734 127.09071171 16.70517936 127.69116211 14.45019531 C127.96452393 13.43022461 128.23788574 12.41025391 128.51953125 11.359375 C128.75776611 10.46702148 128.99600098 9.57466797 129.24145508 8.65527344 C130.07322611 5.74367325 131.04243754 2.87268739 132 0 C151.8 0 171.6 0 192 0 C190.1410257 6.8162391 188.26295455 13.50901143 186.03588867 20.1953125 C185.755578 21.04468384 185.47526733 21.89405518 185.1864624 22.76916504 C184.26627364 25.55532486 183.34210482 28.34014724 182.41796875 31.125 C181.76049081 33.11367804 181.10329583 35.10244964 180.44636536 37.09130859 C178.71323515 42.33626225 176.97686936 47.5801386 175.23962402 52.82373047 C172.1703528 62.08958931 169.10668735 71.35730406 166.04296875 80.625 C165.70678591 81.64166874 165.37060307 82.65833748 165.02423286 83.70581436 C157.94625508 105.11454417 150.95985222 126.55262408 144 148 C143.14144876 150.64488643 142.28276096 153.2897285 141.42407227 155.93457031 C141.04070206 157.11545227 140.65733185 158.29633423 140.26234436 159.51300049 C138.89703844 163.71706374 137.53028191 167.92065392 136.1628418 172.12402344 C135.488286 174.19952779 134.81485656 176.27539843 134.14233398 178.3515625 C133.13284581 181.46706399 132.11957646 184.58131215 131.10546875 187.6953125 C130.80456833 188.62707306 130.50366791 189.55883362 130.19364929 190.51882935 C129.78104607 191.78205521 129.78104607 191.78205521 129.36010742 193.07080078 C129.12031662 193.8093631 128.88052582 194.54792542 128.63346863 195.30886841 C128 197 128 197 127 198 C125.03630847 198.0940067 123.06920801 198.11743381 121.10327148 198.11352539 C119.84203964 198.11344986 118.5808078 198.11337433 117.28135681 198.11329651 C115.89460206 198.1081891 114.50784771 198.10297309 113.12109375 198.09765625 C111.71004791 198.09579201 110.29900143 198.09436814 108.88795471 198.09336853 C105.16759465 198.08954379 101.4472734 198.0797139 97.72692871 198.06866455 C93.93319219 198.05844948 90.13944942 198.05387071 86.34570312 198.04882812 C78.89711769 198.03809158 71.44856428 198.0210157 64 198 C42.33109859 132.07990172 42.33109859 132.07990172 33.13720703 103.78686523 C28.75674292 90.30893686 24.34875352 76.84010797 19.93658447 63.37252808 C8.68409609 29.01976513 8.68409609 29.01976513 4.51867676 16.17126465 C3.89421027 14.24670464 3.26697308 12.32304433 2.63964844 10.39941406 C2.28161133 9.29178711 1.92357422 8.18416016 1.5546875 7.04296875 C1.25030762 6.10477295 0.94592773 5.16657715 0.63232422 4.19995117 C0 2 0 2 0 0 Z " fill="#FEFEFE" transform="translate(1555,1233)"/>
<path d="M0 0 C-2.40482203 7.60966413 -5.31681729 14.98962866 -8.29833984 22.38647461 C-9.13262865 24.45642744 -9.96310562 26.52787876 -10.79296875 28.59960938 C-14.83550542 38.67101085 -14.83550542 38.67101085 -16 41 C-19.38804118 40.37937348 -22.57625683 39.5505806 -25.8359375 38.44140625 C-26.73570312 38.13783203 -27.63546875 37.83425781 -28.5625 37.52148438 C-29.490625 37.20501953 -30.41875 36.88855469 -31.375 36.5625 C-46.06252525 31.57408981 -63.04530551 25.92472417 -78.2890625 32.1015625 C-80.8605298 33.45187638 -81.91722557 34.25697144 -83 37 C-83.82106075 41.94523945 -83.82434119 44.82041786 -80.87890625 49.03515625 C-78.14159456 52.08240694 -75.02759818 54.13648571 -71.4375 56.0625 C-70.76984619 56.43189697 -70.10219238 56.80129395 -69.41430664 57.18188477 C-63.01699995 60.63198362 -56.4037634 63.59628 -49.78753662 66.59750366 C-30.22416308 75.48011817 -12.40443541 84.85910545 -2.96484375 105.234375 C2.54605275 121.03079087 1.2114624 137.63325 -5.21484375 152.8828125 C-12.68671789 168.08645205 -25.41458146 178.00908856 -41.125 183.8125 C-72.66302199 194.23162406 -107.88250804 192.39438954 -138 178 C-139 177 -139 177 -139.12025452 175.09544373 C-139.11803391 174.26271439 -139.11581329 173.42998505 -139.11352539 172.57202148 C-139.11344986 171.63112167 -139.11337433 170.69022186 -139.11329651 169.72080994 C-139.10555458 168.18645042 -139.10555458 168.18645042 -139.09765625 166.62109375 C-139.0962413 165.57929459 -139.09482635 164.53749542 -139.09336853 163.46412659 C-139.0877508 160.12188906 -139.0751953 156.77971743 -139.0625 153.4375 C-139.05748728 151.17773534 -139.05292398 148.91796963 -139.04882812 146.65820312 C-139.03777561 141.10544609 -139.02102024 135.55272775 -139 130 C-137.57225339 130.46869289 -136.14512764 130.93927732 -134.71826172 131.41064453 C-133.52606522 131.80342087 -133.52606522 131.80342087 -132.30978394 132.20413208 C-129.18331424 133.28140035 -126.16524139 134.5760516 -123.125 135.875 C-117.21474844 138.31350613 -111.2436304 140.18474191 -105.0625 141.8125 C-103.89195068 142.1226001 -103.89195068 142.1226001 -102.69775391 142.43896484 C-90.07444443 145.64261799 -70.81131745 148.67706169 -59 142 C-55.75996514 138.75996514 -54.74048529 136.03208051 -54.375 131.5625 C-54.72395394 126.23387903 -57.16840486 123.53214093 -61 120 C-63.74875099 118.09540508 -66.62832885 116.60130579 -69.625 115.125 C-70.85984131 114.49392334 -70.85984131 114.49392334 -72.11962891 113.85009766 C-78.11749448 110.82452532 -84.22694685 108.07856997 -90.375 105.375 C-108.08116142 97.58177119 -125.52014473 87.47252499 -133.375 68.875 C-138.59973621 55.15396379 -139.99055743 36.26391005 -134.328125 22.56640625 C-126.32624401 7.10394798 -115.29424364 -3.06291137 -98.7421875 -9.1953125 C-92.92329612 -10.90285043 -86.96808211 -11.95890123 -81 -13 C-80.04738281 -13.18691406 -79.09476563 -13.37382813 -78.11328125 -13.56640625 C-51.22900568 -17.31064036 -24.78734612 -9.49870314 0 0 Z " fill="#FDFDFE" transform="translate(3334,1244)"/>
<path d="M0 0 C38.61 0 77.22 0 117 0 C117 14.19 117 28.38 117 43 C95.88 43 74.76 43 53 43 C53 53.23 53 63.46 53 74 C72.8 74 92.6 74 113 74 C113 88.19 113 102.38 113 117 C93.2 117 73.4 117 53 117 C53 129.54 53 142.08 53 155 C74.12 155 95.24 155 117 155 C117 169.19 117 183.38 117 198 C78.39 198 39.78 198 0 198 C0 132.66 0 67.32 0 0 Z " fill="#FEFEFE" transform="translate(2707,1233)"/>
<path d="M0 0 C49.5 0 99 0 150 0 C150 14.52 150 29.04 150 44 C134.16 44 118.32 44 102 44 C102 94.82 102 145.64 102 198 C84.18 198 66.36 198 48 198 C48 147.18 48 96.36 48 44 C32.16 44 16.32 44 0 44 C0 29.48 0 14.96 0 0 Z " fill="#FDFDFE" transform="translate(3903,1233)"/>
<path d="M0 0 C49.5 0 99 0 150 0 C150 14.52 150 29.04 150 44 C134.16 44 118.32 44 102 44 C102 94.82 102 145.64 102 198 C84.18 198 66.36 198 48 198 C48 147.18 48 96.36 48 44 C32.16 44 16.32 44 0 44 C0 29.48 0 14.96 0 0 Z " fill="#FDFDFE" transform="translate(3350,1233)"/>
<path d="M0 0 C49.83 0 99.66 0 151 0 C151 14.52 151 29.04 151 44 C134.83 44 118.66 44 102 44 C102 94.82 102 145.64 102 198 C84.51 198 67.02 198 49 198 C49 147.18 49 96.36 49 44 C32.83 44 16.66 44 0 44 C0 29.48 0 14.96 0 0 Z " fill="#FDFEFE" transform="translate(2528,1233)"/>
<path d="M0 0 C17.49 0 34.98 0 53 0 C53 51.15 53 102.3 53 155 C78.41 155 103.82 155 130 155 C130 169.19 130 183.38 130 198 C87.1 198 44.2 198 0 198 C0 132.66 0 67.32 0 0 Z " fill="#FEFEFE" transform="translate(1970,1233)"/>
<path d="M0 0 C1.49273438 -0.04350586 1.49273438 -0.04350586 3.015625 -0.08789062 C10.36528146 -0.15025716 17.73320419 0.77270228 23.52783203 5.72509766 C28.7442515 11.62972905 29.17298328 17.19954632 29.21875 24.69921875 C29.2333728 25.59743851 29.24799561 26.49565826 29.26306152 27.4210968 C29.32521997 31.25365277 29.36506669 35.08636464 29.40673828 38.91918945 C29.4403785 41.72104057 29.48549319 44.52254365 29.53125 47.32421875 C29.5365271 48.19503586 29.5418042 49.06585297 29.54724121 49.96305847 C29.40693635 54.61880031 29.40693635 54.61880031 31.875 58.3125 C34.19775177 58.71297444 36.53239357 59.0522104 38.875 59.3125 C38.875 60.9625 38.875 62.6125 38.875 64.3125 C31.06760615 67.98656769 22.65560645 68.93449148 14.375 66.125 C11.5676749 64.0896893 9.21938538 61.86374291 6.875 59.3125 C6.30652344 59.72242188 5.73804687 60.13234375 5.15234375 60.5546875 C-3.02769727 66.2629632 -10.13508137 68.27975385 -20.125 67.3125 C-24.86633065 65.64425403 -27.82764104 63.08091024 -31.125 59.3125 C-32.97476101 53.76321696 -33.27691702 47.51344913 -31.27734375 41.95703125 C-24.19221774 30.75516536 -5.08449246 27.90799773 6.875 24.3125 C7.38781219 15.37268897 7.38781219 15.37268897 3.875 7.3125 C1.62987738 6.18993869 0.36043351 6.17836238 -2.125 6.1875 C-2.82625 6.18492188 -3.5275 6.18234375 -4.25 6.1796875 C-6.21653775 6.19872764 -6.21653775 6.19872764 -8.125 7.3125 C-8.06699219 8.20453125 -8.00898438 9.0965625 -7.94921875 10.015625 C-7.90410156 11.18609375 -7.85898438 12.3565625 -7.8125 13.5625 C-7.75449219 14.72265625 -7.69648438 15.8828125 -7.63671875 17.078125 C-8.125 20.3125 -8.125 20.3125 -10.30078125 22.69921875 C-14.86448984 25.30615049 -19.02042657 25.1772928 -24.125 24.3125 C-27.31755488 22.30932831 -28.70169832 21.07684984 -29.58984375 17.375 C-29.88517098 13.57176155 -29.44939108 11.76246182 -27.1875 8.625 C-18.12091554 1.77880357 -11.17436029 0.1060857 0 0 Z " fill="#1A61A2" transform="translate(3091.125,1983.6875)"/>
<path d="M0 0 C3.83413968 3.74062408 6.22455043 7.76460478 6.30297852 13.17016602 C6.32794151 14.38646446 6.32794151 14.38646446 6.35340881 15.62733459 C6.36182297 16.49410324 6.37023712 17.36087189 6.37890625 18.25390625 C6.39590073 19.15116928 6.4128952 20.04843231 6.43040466 20.97288513 C6.48347322 23.83601881 6.52380268 26.69913885 6.5625 29.5625 C6.60645769 32.42935801 6.65318196 35.29610512 6.70530701 38.16282654 C6.73720771 39.94567019 6.7641153 41.7286116 6.78553772 43.51161194 C6.79902756 44.31932541 6.8125174 45.12703888 6.82641602 45.95922852 C6.83592789 46.66886246 6.84543976 47.3784964 6.85523987 48.1096344 C6.94031953 50.22573955 6.94031953 50.22573955 8 53 C10.10584438 53.80563638 10.10584438 53.80563638 12.5625 54.1875 C13.38878906 54.34605469 14.21507813 54.50460937 15.06640625 54.66796875 C15.70449219 54.77753906 16.34257812 54.88710937 17 55 C17 56.65 17 58.3 17 60 C9.32107418 63.12363084 0.83716826 64.94905447 -7.28125 62.23828125 C-10.71340966 60.3985855 -12.78516988 58.11910987 -15 55 C-15.58007812 55.40992188 -16.16015625 55.81984375 -16.7578125 56.2421875 C-17.53898437 56.78101563 -18.32015625 57.31984375 -19.125 57.875 C-19.89070313 58.40867187 -20.65640625 58.94234375 -21.4453125 59.4921875 C-28.27004575 63.52024107 -35.25477126 63.89840871 -43 63 C-47.93142649 61.33030442 -50.96061845 58.64140871 -53.5 54.125 C-55.40161396 49.59168815 -55.92678536 45.71787617 -54.3046875 40.9609375 C-51.57772471 34.84245796 -48.11839621 31.30500278 -41.95703125 28.7265625 C-38.32809613 27.39742977 -34.68055967 26.17839125 -31 25 C-29.78054687 24.60296875 -28.56109375 24.2059375 -27.3046875 23.796875 C-18.50044014 21 -18.50044014 21 -15 21 C-15.14139481 18.74971671 -15.28828003 16.49977794 -15.4375 14.25 C-15.51871094 12.99703125 -15.59992187 11.7440625 -15.68359375 10.453125 C-15.96582832 6.63230661 -15.96582832 6.63230661 -17 3 C-19.82716095 2.05761302 -21.63176123 1.86534353 -24.5625 1.875 C-25.74005859 1.87113281 -25.74005859 1.87113281 -26.94140625 1.8671875 C-29.06438977 1.87023634 -29.06438977 1.87023634 -31 3 C-30.7525 3.99 -30.7525 3.99 -30.5 5 C-29.84768778 8.91387335 -29.62069201 12.01726607 -30 16 C-31.8125 18.5 -31.8125 18.5 -35 20 C-40.1210763 20.73706645 -44.43909731 20.70393651 -49.1875 18.5625 C-51.49581011 15.29902708 -51.66635471 13.11018855 -51.40234375 9.17578125 C-50.75737692 5.6879509 -49.7037688 4.31751611 -47 2 C-34.14182344 -5.63250953 -13.30864185 -8.15946494 0 0 Z " fill="#1860A1" transform="translate(2901,1988)"/>
<path d="M0 0 C0.01030746 0.60277267 0.02061493 1.20554535 0.03123474 1.82658386 C0.13948009 8.10462902 0.25406324 14.38253589 0.37231445 20.66040039 C0.4156055 23.00281885 0.45728469 25.34526768 0.49731445 27.68774414 C0.55515813 31.05624541 0.61881219 34.42459464 0.68359375 37.79296875 C0.70030624 38.83897751 0.71701874 39.88498627 0.73423767 40.96269226 C0.7641555 42.43365105 0.7641555 42.43365105 0.79467773 43.93432617 C0.81799416 45.22339119 0.81799416 45.22339119 0.84178162 46.53849792 C1.00637917 49.09924472 1.44174063 51.49798318 2 54 C6.46567248 55.48855749 11.48034013 56.14767116 15.88671875 54.140625 C17.73067161 52.90834657 19.42913664 51.57086336 21 50 C21.1383676 47.07805805 21.21317973 44.18146394 21.23828125 41.2578125 C21.246353 40.37850067 21.25442474 39.49918884 21.26274109 38.5932312 C21.27659768 36.7286782 21.28731276 34.86409967 21.29516602 32.99951172 C21.31238712 30.14371846 21.35625904 27.28908014 21.40039062 24.43359375 C21.41051633 22.62500854 21.41903282 20.81641346 21.42578125 19.0078125 C21.44328934 18.15148224 21.46079742 17.29515198 21.47883606 16.41287231 C21.57330494 11.75981259 21.57330494 11.75981259 19.17651367 7.97998047 C16.47515967 6.76368939 13.93372481 6.33337782 11 6 C11 4.35 11 2.7 11 1 C13.87477589 0.82837159 16.7497134 0.66266912 19.625 0.5 C20.41390625 0.45230469 21.2028125 0.40460938 22.015625 0.35546875 C29.34507602 -0.05172297 36.66084248 -0.04782075 44 0 C44.00546844 1.00478142 44.00546844 1.00478142 44.01104736 2.02986145 C44.05279207 8.98909452 44.12208106 15.94766312 44.20751953 22.90649414 C44.23578069 25.50505942 44.25696945 28.10371148 44.27099609 30.70239258 C44.29235366 34.43355919 44.33896946 38.16367655 44.390625 41.89453125 C44.39185364 43.06023148 44.39308228 44.2259317 44.39434814 45.42695618 C44.41406677 46.50785019 44.4337854 47.5887442 44.45410156 48.70239258 C44.46298401 49.65503494 44.47186646 50.60767731 44.48101807 51.58918762 C44.79408998 54.13598626 44.79408998 54.13598626 46.86224365 55.78813171 C49.24655126 57.13976694 51.29755999 57.62466111 54 58 C54 59.65 54 61.3 54 63 C43.37719894 64.39315424 32.68873373 64.09675083 22 64 C21.505 60.535 21.505 60.535 21 57 C20.5153125 57.39832031 20.030625 57.79664063 19.53125 58.20703125 C10.76675146 65.13435606 3.29604802 67.29674021 -8 66 C-12.90619743 64.41570708 -16.25379767 61.31546081 -19 57 C-21.6605581 50.96813883 -22.46148165 46.02293025 -22.51171875 39.46875 C-22.52966995 38.59222778 -22.54762115 37.71570557 -22.56611633 36.81262207 C-22.61984509 34.04179547 -22.65399373 31.27113735 -22.6875 28.5 C-22.72070621 26.60935174 -22.75519888 24.71872561 -22.79101562 22.828125 C-22.87554955 18.21887235 -22.94253791 13.6096664 -23 9 C-25.97 8.01 -28.94 7.02 -32 6 C-32 4.35 -32 2.7 -32 1 C-29.29191567 0.82805814 -26.58365937 0.66243176 -23.875 0.5 C-22.76318359 0.42845703 -22.76318359 0.42845703 -21.62890625 0.35546875 C-14.41904808 -0.06864055 -7.22036765 -0.04674218 0 0 Z " fill="#1A61A2" transform="translate(2998,1985)"/>
<path d="M0 0 C16.17 0 32.34 0 49 0 C49 1.65 49 3.3 49 5 C45.7 5.99 42.4 6.98 39 8 C39.53177529 14.6128365 41.86696969 20.17300337 44.40234375 26.26171875 C45.05898766 27.86404106 45.05898766 27.86404106 45.72889709 29.49873352 C47.12432663 32.89810371 48.53093196 36.29272578 49.9375 39.6875 C50.8802547 41.98213547 51.82231951 44.27705451 52.76367188 46.57226562 C54.48943605 50.76946799 56.21557352 54.96649647 57.95288086 59.15893555 C58.30072128 59.9994194 58.64856171 60.83990326 59.00694275 61.70585632 C59.93364028 63.84669692 60.93420982 65.92546593 62 68 C67.87314877 53.96239945 73.53907879 39.88184019 78.6875 25.5625 C79.1211084 24.3672168 79.5547168 23.17193359 80.00146484 21.94042969 C80.39672363 20.82700195 80.79198242 19.71357422 81.19921875 18.56640625 C81.54815186 17.58615479 81.89708496 16.60590332 82.2565918 15.59594727 C83.18353747 12.80914492 83.18353747 12.80914492 83 9 C78.71 7.68 74.42 6.36 70 5 C70 3.35 70 1.7 70 0 C82.21 0 94.42 0 107 0 C107 1.65 107 3.3 107 5 C106.39671875 5.24234375 105.7934375 5.4846875 105.171875 5.734375 C104.37265625 6.06953125 103.5734375 6.4046875 102.75 6.75 C101.96109375 7.07484375 101.1721875 7.3996875 100.359375 7.734375 C95.04538522 10.58492581 92.79013188 14.9077323 90.3828125 20.23828125 C89.874655 21.3413134 89.874655 21.3413134 89.35623169 22.46662903 C84.59432917 32.92369925 80.2561282 43.5671539 75.875 54.1875 C74.14462888 58.3690698 72.41215421 62.54976683 70.6796875 66.73046875 C70.27063171 67.71876678 69.86157593 68.70706482 69.44012451 69.72531128 C66.35253821 77.17659087 63.2006185 84.59660213 60 92 C55.71 92 51.42 92 47 92 C40.17174326 76.65650543 33.76357425 61.16840954 27.53100586 45.57543945 C24.38746903 37.73067497 21.16631762 29.92313396 17.7890625 22.17578125 C17.46956635 21.42942917 17.15007019 20.68307709 16.82089233 19.91410828 C14.60867372 14.90422748 12.44907272 10.29503997 7.421875 7.63671875 C6.54015625 7.32347656 5.6584375 7.01023437 4.75 6.6875 C3.85796875 6.36136719 2.9659375 6.03523438 2.046875 5.69921875 C1.37140625 5.46847656 0.6959375 5.23773437 0 5 C0 3.35 0 1.7 0 0 Z " fill="#175FA1" transform="translate(2737,1958)"/>
<path d="M0 0 C1.38759521 0.01921509 1.38759521 0.01921509 2.80322266 0.03881836 C11.47115001 0.29691091 17.83314743 1.8049143 24.4375 7.625 C31.12627683 15.04116155 31.5625 21.56965747 31.5625 31.5 C17.0425 31.5 2.5225 31.5 -12.4375 31.5 C-10.7247119 44.0959961 -10.7247119 44.0959961 -4 53.875 C1.44219949 57.3261509 6.16103481 58.48095122 12.5625 57.5 C19.12286294 55.22873022 23.60197065 52.17675874 27.5625 46.5 C29.2125 47.49 30.8625 48.48 32.5625 49.5 C30.33290833 56.2121215 25.2083064 60.43855858 19.14453125 63.8671875 C9.03333355 68.5078377 -3.62306303 69.42203733 -14.3125 66.0625 C-22.27205865 62.664981 -29.39463853 56.53077183 -32.765625 48.453125 C-32.98734375 47.80859375 -33.2090625 47.1640625 -33.4375 46.5 C-33.65921875 45.87609375 -33.8809375 45.2521875 -34.109375 44.609375 C-36.70774999 35.97153383 -36.41584132 26.63615668 -32.4375 18.5 C-24.96347432 6.17918191 -14.4344808 -0.30306899 0 0 Z " fill="#175FA1" transform="translate(3223.4375,1983.5)"/>
<path d="M0 0 C1.24756073 0.00197388 2.49512146 0.00394775 3.78048706 0.00598145 C4.72449371 0.00851929 5.66850037 0.01105713 6.64111328 0.01367188 C6.64658173 1.69496941 6.64658173 1.69496941 6.65216064 3.41023254 C6.68906335 13.96094841 6.746784 24.51137112 6.82501602 35.0618639 C6.86456586 40.48632348 6.89671744 45.91061889 6.91210938 51.33520508 C6.92722659 56.56790706 6.96158392 61.80015794 7.0094223 67.03265953 C7.02428718 69.03134941 7.03215721 71.03010367 7.03299713 73.02884865 C7.03535323 75.82351701 7.06232235 78.61692484 7.09521484 81.41137695 C7.09018448 82.24215759 7.08515411 83.07293823 7.07997131 83.92889404 C7.11650691 88.4106719 7.11650691 88.4106719 9.53460693 92.00834656 C11.57613522 92.98266124 13.41653085 93.61642501 15.64111328 94.01367188 C15.64111328 95.66367188 15.64111328 97.31367187 15.64111328 99.01367188 C2.44111328 99.01367188 -10.75888672 99.01367188 -24.35888672 99.01367188 C-24.35888672 97.36367187 -24.35888672 95.71367188 -24.35888672 94.01367188 C-21.71888672 93.68367188 -19.07888672 93.35367187 -16.35888672 93.01367188 C-15.19547267 89.52342973 -15.21125095 86.3904248 -15.21362305 82.76000977 C-15.21026443 82.02472549 -15.20690582 81.28944122 -15.20344543 80.53187561 C-15.19394249 78.10000929 -15.19199271 75.66821186 -15.19091797 73.23632812 C-15.18770513 71.54625927 -15.18434104 69.8561907 -15.18083191 68.16612244 C-15.17484243 64.62286738 -15.17299184 61.07963671 -15.17358398 57.53637695 C-15.17368564 52.99561002 -15.16002887 48.45499933 -15.14281178 43.91426945 C-15.13169525 40.42357159 -15.12966466 36.93291155 -15.13019371 33.4421978 C-15.12901325 31.7680552 -15.12458775 30.09391164 -15.11686134 28.41978645 C-15.10706764 26.07865564 -15.10993686 23.73786477 -15.1159668 21.39672852 C-15.10753754 20.35938568 -15.10753754 20.35938568 -15.09893799 19.30108643 C-15.12234992 15.72530077 -15.27339952 12.9893105 -17.35888672 10.01367188 C-19.74731089 8.67219646 -19.74731089 8.67219646 -22.48388672 7.76367188 C-23.39396484 7.42851563 -24.30404297 7.09335938 -25.24169922 6.74804688 C-25.94037109 6.50570313 -26.63904297 6.26335937 -27.35888672 6.01367188 C-27.35888672 4.36367187 -27.35888672 2.71367188 -27.35888672 1.01367188 C-24.3174228 0.8423218 -21.27580723 0.67655329 -18.23388672 0.51367188 C-17.39728516 0.46597656 -16.56068359 0.41828125 -15.69873047 0.36914062 C-10.46116451 0.09347926 -5.24527293 -0.0107983 0 0 Z " fill="#175FA1" transform="translate(2946.35888671875,1949.986328125)"/>
<path d="M0 0 C6.6 0 13.2 0 20 0 C20 6.27 20 12.54 20 19 C25.94 19 31.88 19 38 19 C38 21.31 38 23.62 38 26 C32.39 26 26.78 26 21 26 C21.06893036 31.89030857 21.15692397 37.77991092 21.26245117 43.66967773 C21.29566727 45.67252764 21.32370952 47.6754704 21.34643555 49.6784668 C21.38004234 52.56078594 21.43236148 55.44225668 21.48828125 58.32421875 C21.49467117 59.21711105 21.5010611 60.11000336 21.50764465 61.029953 C21.61882865 65.75101632 21.7690017 69.26498101 25 73 C28.40934596 73.82304013 28.40934596 73.82304013 32.1875 73.8125 C33.45980469 73.86019531 34.73210938 73.90789062 36.04296875 73.95703125 C37.50669922 73.97830078 37.50669922 73.97830078 39 74 C39 75.65 39 77.3 39 79 C30.16439409 83.22145616 20.43938811 86.27761633 10.65234375 83.28125 C5.5759251 80.92806902 2.57481181 77.93186054 -0.08935547 72.97192383 C-1.42629083 68.6087833 -1.2453118 64.42350894 -1.1953125 59.88671875 C-1.1924826 58.91716751 -1.18965271 57.94761627 -1.18673706 56.94868469 C-1.17556991 53.86149595 -1.15047152 50.77460061 -1.125 47.6875 C-1.11496573 45.59049899 -1.10584066 43.49349342 -1.09765625 41.39648438 C-1.07564188 36.2642104 -1.04113571 31.1321549 -1 26 C-4.63 26 -8.26 26 -12 26 C-12 23.69 -12 21.38 -12 19 C-8.04 19 -4.08 19 0 19 C0 12.73 0 6.46 0 0 Z " fill="#1A61A2" transform="translate(3144,1967)"/>
<path d="M0 0 C1.43335504 2.67947338 2.39816027 5.14680459 3.078125 8.10546875 C3.26640869 8.91161621 3.45469238 9.71776367 3.64868164 10.54833984 C3.8471167 11.4192627 4.04555176 12.29018555 4.25 13.1875 C4.69108919 15.07950103 5.13250987 16.9714248 5.57421875 18.86328125 C5.80544434 19.86053223 6.03666992 20.8577832 6.27490234 21.88525391 C9.6343424 36.31614153 13.11197346 50.70209597 17 65 C18.65 71.27 20.3 77.54 22 84 C8.14 84 -5.72 84 -20 84 C-18.71097655 76.26585927 -17.35229416 68.94749705 -15.3125 61.4375 C-14.77839414 59.42715019 -14.24455115 57.41673052 -13.7109375 55.40625 C-13.29279785 53.84197266 -13.29279785 53.84197266 -12.86621094 52.24609375 C-8.23806327 34.90227996 -3.8473197 17.53455845 0 0 Z " fill="#134B7E" transform="translate(3010,1266)"/>
<path d="M0 0 C2 1 2 1 2.69848633 3.07519531 C2.90755615 3.98366211 3.11662598 4.89212891 3.33203125 5.828125 C3.57050781 6.84487305 3.80898437 7.86162109 4.0546875 8.90917969 C4.30476563 10.01165039 4.55484375 11.11412109 4.8125 12.25 C5.07675781 13.38083008 5.34101562 14.51166016 5.61328125 15.67675781 C6.41641427 19.11613638 7.20938393 22.55772508 8 26 C8.82686089 29.5848732 9.65899068 33.16841891 10.5 36.75 C10.69811279 37.59481934 10.89622559 38.43963867 11.1003418 39.31005859 C12.78617964 46.37022075 14.74619772 53.33965969 16.85742188 60.28417969 C19.10817574 67.84732931 20.42665896 75.13329479 22 83 C8.14 83 -5.72 83 -20 83 C-18.68 77.72 -17.36 72.44 -16 67 C-14.96576861 62.64059441 -13.93851411 58.28026819 -12.93359375 53.9140625 C-11.78842492 49.0300312 -10.4940658 44.21921268 -9.078125 39.40625 C-6.75870116 31.38745246 -4.98874476 23.28429637 -3.25 15.125 C-2.93141608 13.64704342 -2.61240766 12.16917827 -2.29296875 10.69140625 C-1.52377386 7.12863956 -0.7602447 3.56468869 0 0 Z " fill="#124A7D" transform="translate(1847,1267)"/>
<path d="M0 0 C2.33197685 3.49796528 3.05142454 6.83455555 3.953125 10.8671875 C4.32583326 12.48136696 4.69855514 14.09554327 5.07128906 15.7097168 C5.26372192 16.55368011 5.45615479 17.39764343 5.65441895 18.2671814 C8.83395226 32.18912544 12.24537091 45.97496088 16.31933594 59.66455078 C17.57305547 63.96622979 18.72707919 68.29409621 19.875 72.625 C20.0905957 73.42639404 20.30619141 74.22778809 20.52832031 75.0534668 C21.33459966 78.11445354 22 80.82023347 22 84 C8.14 84 -5.72 84 -20 84 C-18.6793338 78.05700211 -17.31930322 72.14897923 -15.828125 66.25 C-15.40947847 64.58415385 -14.99085973 62.91830073 -14.57226562 61.25244141 C-14.35610596 60.39402649 -14.13994629 59.53561157 -13.91723633 58.65118408 C-10.73012714 45.9875853 -7.55516579 33.32117534 -4.5 20.625 C-4.26958008 19.67238281 -4.03916016 18.71976563 -3.80175781 17.73828125 C-2.39383446 11.85098904 -1.14556828 5.94383541 0 0 Z " fill="#124A7D" transform="translate(3607,1266)"/>
<path d="M0 0 C2.40772738 2.40772738 2.54713719 3.70938905 3.2265625 7.01171875 C3.44973145 8.06456055 3.67290039 9.11740234 3.90283203 10.20214844 C4.14114746 11.35231445 4.37946289 12.50248047 4.625 13.6875 C6.89413673 24.2748935 9.39351548 34.77296029 12.125 45.25 C12.44936035 46.49612061 12.7737207 47.74224121 13.10791016 49.02612305 C14.41013687 54.00147476 15.72142654 58.97416361 17.06152344 63.93945312 C17.23803436 64.5953241 17.41454529 65.25119507 17.59640503 65.92694092 C18.08445321 67.73790996 18.57509265 69.54818011 19.06591797 71.35839844 C20.14072422 75.54862584 21.06158546 79.77713458 22 84 C8.14 84 -5.72 84 -20 84 C-14.25167736 58.13254813 -14.25167736 58.13254813 -10.6875 45.9375 C-6.30949089 30.85185188 -3.32896452 15.34326323 0 0 Z " fill="#124A7D" transform="translate(2420,1266)"/>
<path d="M0 0 C25.83333333 0 25.83333333 0 34 7 C39.21310263 13.31059792 38.7223798 20.09954241 38 28 C36.99230527 34.10486907 34.01797767 37.73044205 29.203125 41.5234375 C19.92819661 47.73961291 11.76685539 46 0 46 C0 30.82 0 15.64 0 0 Z " fill="#154D80" transform="translate(3783,1273)"/>
<path d="M0 0 C24.35135135 0 24.35135135 0 30.8125 5.3125 C35.69452406 11.31041527 36.61092526 16.02037172 36.41015625 23.67578125 C35.56144991 30.5543441 32.60992962 35.85969192 27.5 40.5 C19.14848822 46.90342696 10.44796238 46 0 46 C0 30.82 0 15.64 0 0 Z " fill="#124A7E" transform="translate(4345,1276)"/>
<path d="M0 0 C4.06283817 0.84642462 5.46249851 2.38263699 8 5.625 C10.74428328 11.24424672 10 14.79028347 10 21.625 C3.07 21.625 -3.86 21.625 -11 21.625 C-11 13.32610796 -10.64491487 9.05624092 -5.6875 2.625 C-3 0.625 -3 0.625 0 0 Z " fill="#F1F5F9" transform="translate(3222,1988.375)"/>
<path d="M0 0 C0 7.26 0 14.52 0 22 C-8.42372881 26.81355932 -8.42372881 26.81355932 -13 26 C-15.375 24.6875 -15.375 24.6875 -17 22 C-17.78706922 16.85192476 -17.59494762 12.46032598 -15.625 7.625 C-11.48152571 3.48152571 -5.98826571 0 0 0 Z " fill="#FAFCFD" transform="translate(2886,2015)"/>
<path d="M0 0 C0.11601004 3.60389664 0.18718408 7.20731467 0.25 10.8125 C0.28351562 11.83666016 0.31703125 12.86082031 0.3515625 13.91601562 C0.36445313 14.89892578 0.37734375 15.88183594 0.390625 16.89453125 C0.41157227 17.80050049 0.43251953 18.70646973 0.45410156 19.63989258 C0 22 0 22 -1.88574219 23.77612305 C-5.44030373 25.83374626 -8.92467209 26.33649496 -13 26 C-15.5625 24.1875 -15.5625 24.1875 -17 21 C-17.63909768 16.45943394 -17.73415552 12.61611132 -15.81640625 8.39453125 C-13.6576649 5.54870664 -11.65809168 4.33021704 -8.5 2.6875 C-7.5409375 2.17574219 -6.581875 1.66398437 -5.59375 1.13671875 C-3 0 -3 0 0 0 Z " fill="#FBFCFD" transform="translate(3098,2015)"/>
<path d="M0 0 C0 0.99 0 1.98 0 3 C-1.38782485 3.8466034 -2.78569397 4.67675339 -4.1875 5.5 C-4.96480469 5.9640625 -5.74210937 6.428125 -6.54296875 6.90625 C-9.24103386 8.10729647 -11.0806982 8.20741043 -14 8 C-14.33 7.01 -14.66 6.02 -15 5 C-14.34 5 -13.68 5 -13 5 C-13 4.34 -13 3.68 -13 3 C-8.70614007 -0.4887612 -5.28129105 -0.26854022 0 0 Z " fill="#215789" transform="translate(475,1686)"/>
<path d="M0 0 C0 1.65 0 3.3 0 5 C-2.64 5.33 -5.28 5.66 -8 6 C-8.66 5.01 -9.32 4.02 -10 3 C-6.68152292 -0.06320961 -4.44849969 -0.3033068 0 0 Z " fill="#215889" transform="translate(480,1678)"/>
</svg>
