<?xml version="1.0" encoding="UTF-8"?>
<svg version="1.1" xmlns="http://www.w3.org/2000/svg" width="6000" height="3375">
<path d="M0 0 C1980 0 3960 0 6000 0 C6000 1113.75 6000 2227.5 6000 3375 C4020 3375 2040 3375 0 3375 C0 2261.25 0 1147.5 0 0 Z " fill="#164670" transform="translate(0,0)"/>
<path d="M0 0 C1316.7 0 2633.4 0 3990 0 C3990 477.51 3990 955.02 3990 1447 C2673.3 1447 1356.6 1447 0 1447 C0 969.49 0 491.98 0 0 Z " fill="#145C9F" transform="translate(1005,964)"/>
<path d="M0 0 C0.83824059 0.00002625 1.67648118 0.00005251 2.54012301 0.00007956 C3.50632121 -0.00231672 4.47251941 -0.00471301 5.46799635 -0.00718191 C7.08400619 -0.00349147 7.08400619 -0.00349147 8.73266269 0.00027352 C10.44138268 -0.00172036 10.44138268 -0.00172036 12.18462226 -0.00375452 C15.38225535 -0.0064546 18.57985062 -0.00461026 21.77748164 -0.00095154 C25.26025143 0.00193829 28.74301704 -0.00095442 32.22578669 -0.0031268 C38.37418196 -0.00614985 44.52256817 -0.0054054 50.67096326 -0.00229056 C59.90221576 0.00236501 69.1334614 0.00126014 78.36471449 -0.0009896 C94.16498883 -0.00467025 109.9652597 -0.00356221 125.76553391 0.0000615 C141.87850091 0.00373647 157.99146593 0.00522067 174.10443333 0.00404579 C175.63347745 0.00393631 175.63347745 0.00393631 177.19341136 0.00382462 C182.39760841 0.00344215 187.60180546 0.00302453 192.80600251 0.00259493 C230.88180861 -0.00047274 268.95761326 0.00140417 307.03341917 0.00573921 C345.64568398 0.01011912 384.25794801 0.01232168 422.87021307 0.011837 C424.69437121 0.01181557 424.69437121 0.01181557 426.55538102 0.0117937 C437.69960643 0.01166195 448.84383183 0.01150584 459.98805724 0.0113207 C487.93775801 0.0108575 515.88745878 0.01072509 543.83715955 0.01081192 C545.75864963 0.01081754 545.75864963 0.01081754 547.7189577 0.01082328 C610.92317282 0.01103764 674.12738765 0.01500733 737.33160261 0.01921463 C759.59085047 0.02069377 781.85009833 0.0221551 804.10934619 0.02355075 C805.49299427 0.02363751 806.87664234 0.02372428 808.30221915 0.02381368 C872.36051467 0.02780887 936.41881016 0.02924226 1000.47710579 0.03001672 C1004.66502761 0.03006748 1008.85294943 0.03011944 1013.04087125 0.03017172 C1038.29360843 0.03048581 1063.54634561 0.03077318 1088.79908279 0.03102969 C1151.58132223 0.03166859 1214.36356167 0.03262809 1277.14580111 0.03380489 C1278.57517388 0.03383152 1280.00454666 0.03385816 1281.47723377 0.0338856 C1374.07696453 0.03561359 1466.67669519 0.0386616 1559.27642588 0.0428133 C1561.49456978 0.04291273 1561.49456978 0.04291273 1563.75752467 0.04301417 C1608.77350903 0.04503492 1653.78949338 0.04715328 1698.80547774 0.04929074 C1748.62151775 0.05165569 1798.43755776 0.05400398 1848.25359777 0.05628013 C1849.75155736 0.05634863 1851.24951694 0.05641713 1852.79286924 0.05648771 C1995.03061876 0.06298654 2137.26836832 0.06679827 2279.50611796 0.06991392 C2285.52984465 0.07004606 2291.55357134 0.07017898 2297.57729804 0.07031194 C2353.00838838 0.07153533 2408.43947872 0.07272716 2463.87056906 0.07387936 C2465.34451506 0.07391 2466.81846105 0.07394064 2468.33707208 0.0739722 C2472.79978387 0.07406497 2477.26249566 0.07415772 2481.72520745 0.07425047 C2602.29172994 0.0767564 2722.85825243 0.07953761 2843.42477491 0.0824971 C2847.67885095 0.08260146 2851.93292698 0.0827056 2856.18700302 0.08280968 C2994.4345787 0.08619286 3132.68215436 0.09006355 3376.81911156 0.09914748 C3380.58435691 0.09929238 3384.34960226 0.09943702 3388.11484762 0.09958155 C3389.96359156 0.09965254 3389.96359156 0.09965254 3391.84968386 0.09972496 C3394.09283741 0.09981109 3396.33599095 0.09989718 3398.57914449 0.09998322 C3595.42241118 0.10754441 3792.26567781 0.11641794 3989.10894445 0.12494468 C3989.10894445 317.91494468 3989.10894445 635.70494468 3989.10894445 963.12494468 C2671.74894445 963.12494468 1354.38894445 963.12494468 -2.89105555 963.12494468 C-2.89105555 0.19101608 -2.89105555 0.19101608 0 0 Z " fill="#1E5485" transform="translate(1006.8910555454349,2411.875055315424)"/>
<path d="M0 0 C635 0 635 0 831 1 C835.62 0.67 840.24 0.34 845 0 C848.35595275 -0.00377162 851.66390849 0.02891757 855.01171875 0.15625 C855.87263626 0.18223267 856.73355377 0.20821533 857.62055969 0.23498535 C860.3098041 0.31662086 862.99861471 0.40733837 865.6875 0.5 C868.41566506 0.59200663 871.14381921 0.68184551 873.87226868 0.76501465 C875.55520881 0.81643469 877.23800361 0.87293197 878.920578 0.93518066 C882.24198571 1.03773138 884.82027178 1.05990941 888 0 C890.8878457 0.09079434 893.74443625 0.23964655 896.625 0.4375 C903.25352793 0.83934494 909.85866204 1.11412682 916.5 1.125 C917.56661865 1.13164673 917.56661865 1.13164673 918.65478516 1.13842773 C921.71555224 1.12984056 924.0725044 0.97583187 927 0 C929.00664306 -0.0940365 931.01630177 -0.12793376 933.02514648 -0.12939453 C934.26751572 -0.13254669 935.50988495 -0.13569885 936.78990173 -0.13894653 C938.15029943 -0.13715487 939.5106968 -0.13510345 940.87109375 -0.1328125 C942.27295448 -0.13348675 943.67481509 -0.13445779 945.07667542 -0.13571167 C948.02142444 -0.13718729 950.96614317 -0.13504136 953.91088867 -0.13037109 C957.65267369 -0.12472114 961.39438622 -0.12792329 965.13616848 -0.13394356 C968.03699773 -0.13759347 970.93781041 -0.13638966 973.83864021 -0.13381577 C975.21589225 -0.1331562 976.59314586 -0.1339403 977.97039604 -0.13629532 C979.91703124 -0.13888982 981.8636718 -0.13422329 983.81030273 -0.12939453 C984.91155991 -0.12859894 986.01281708 -0.12780334 987.14744568 -0.12698364 C992.44209148 0.04753263 997.72077779 0.56006482 1003 1 C1003 478.51 1003 956.02 1003 1448 C766.06 1448.33 529.12 1448.66 285 1449 C190.95 1449.33 96.9 1449.66 0 1450 C0 971.5 0 493 0 0 Z " fill="#184A77" transform="translate(0,963)"/>
<path d="M0 0 C1.2501847 0.00015598 2.50036941 0.00031196 3.7884385 0.00047267 C4.8340217 -0.00144447 4.8340217 -0.00144447 5.90072779 -0.00340034 C8.2708541 -0.00649871 10.64091561 -0.0023784 13.01103985 0.00162334 C14.72167141 0.0008847 16.43230282 -0.0002928 18.14293381 -0.00187286 C22.88646601 -0.00496203 27.62997703 -0.00175062 32.37350767 0.00240542 C37.50603214 0.00581683 42.63855429 0.00346981 47.77107918 0.00182265 C56.79024289 -0.00026269 65.80940002 0.00140482 74.82856297 0.00545603 C88.41415588 0.01153846 101.99974478 0.01182758 115.58533881 0.01099074 C138.34839514 0.00974634 161.11144799 0.01304284 183.87450325 0.0190956 C214.6533176 0.02726243 245.43212802 0.02919759 276.21094429 0.03006667 C350.24125901 0.03532407 424.27157289 0.04928508 498.30188667 0.06217116 C746.26594917 0.09310866 746.26594917 0.09310866 999.23938667 0.12467116 C999.23938667 478.29467116 999.23938667 956.46467116 999.23938667 1449.12467116 C945.48596268 1449.12467116 891.73282887 1449.12442586 837.97948372 1449.06120986 C835.99081694 1449.05893005 834.00215014 1449.05665876 832.01348334 1449.05439496 C828.89969588 1449.05084922 825.78590842 1449.04729854 822.67212099 1449.04372163 C811.66807771 1449.03108595 800.66403375 1449.01909153 789.65998976 1449.00709199 C769.37290463 1448.98495354 749.08582004 1448.96235739 728.79873573 1448.93947524 C708.79011478 1448.91690876 688.78149359 1448.89456117 668.77287209 1448.87248916 C666.88791528 1448.87040964 666.88791528 1448.87040964 664.96487854 1448.86828811 C658.57982183 1448.86124508 652.19476511 1448.85420581 645.80970838 1448.84716797 C600.89906033 1448.79765918 555.9884128 1448.74768497 511.07776558 1448.69742507 C500.2575955 1448.68531634 489.43742542 1448.67320928 478.61725533 1448.66110915 C477.94592424 1448.66035841 477.27459316 1448.65960766 476.58291871 1448.65883416 C445.20583948 1448.62374761 413.82875996 1448.58893124 382.45168036 1448.55418185 C380.40746532 1448.55191792 378.36325028 1448.54965388 376.31903524 1448.54738982 C362.76866293 1448.53238233 349.21829062 1448.51737944 335.6679183 1448.50237962 C308.07848016 1448.47183897 280.48904205 1448.44126919 252.89960396 1448.41068191 C251.63183423 1448.40927642 250.36406449 1448.40787093 249.0578775 1448.40642285 C164.78504668 1448.31299206 80.51221662 1448.21888656 -3.76061333 1448.12467116 C-3.76611123 1403.85326819 -3.77138321 1359.5818652 -3.77648247 1315.31046218 C-3.77658226 1314.44419681 -3.77668206 1313.57793145 -3.77678488 1312.68541562 C-3.78746879 1219.893434 -3.79669279 1127.10145238 -3.80295647 1034.30947036 C-3.80309592 1032.24911464 -3.80323537 1030.18875891 -3.80337482 1028.12840319 C-3.80629729 984.88426485 -3.80901403 941.6401265 -3.811493 898.39598814 C-3.81273843 876.67413605 -3.81402341 854.95228397 -3.81534577 833.23043188 C-3.81554502 829.95370214 -3.81574313 826.67697241 -3.81594121 823.40024267 C-3.81900243 772.92268382 -3.82291358 722.44512522 -3.82927788 671.96756667 C-3.82941478 670.88164322 -3.82955167 669.79571977 -3.82969272 668.67688955 C-3.83190519 651.16776347 -3.83418876 633.6586374 -3.83648177 616.14951133 C-3.84308248 565.73892542 -3.8491604 515.3283397 -3.85175312 464.9177534 C-3.85180665 463.88185094 -3.85186019 462.84594848 -3.85191535 461.77865504 C-3.85308091 439.04212861 -3.85397586 416.30560217 -3.85461431 393.56907571 C-3.85487594 384.42168791 -3.85517656 375.2743001 -3.85549057 366.1269123 C-3.855524 365.12574917 -3.85555742 364.12458604 -3.85559186 363.09308463 C-3.85668962 330.79601159 -3.86096515 298.49893993 -3.86689553 266.20186745 C-3.87285136 233.68746355 -3.87571504 201.17306099 -3.87423731 168.65865654 C-3.87403421 164.17266021 -3.87386684 159.68666389 -3.87372101 155.20066756 C-3.87369113 154.32123034 -3.87366125 153.44179311 -3.87363046 152.53570627 C-3.87324877 138.5709238 -3.87624336 124.60614413 -3.88062319 110.64136242 C-3.88485395 96.93311168 -3.88556396 83.22486461 -3.88244514 69.51661354 C-3.88072157 61.46458891 -3.88178249 53.41257586 -3.88683033 45.36055257 C-3.89026295 39.40587281 -3.88856481 33.45120214 -3.8847533 27.49652234 C-3.88403192 25.0853362 -3.88503071 22.67414885 -3.88784857 20.26296424 C-3.89140437 17.01764682 -3.88893441 13.77239134 -3.88481182 10.52707601 C-3.8873207 9.57564539 -3.88982958 8.62421477 -3.89241448 7.64395292 C-3.87183709 0.17485478 -3.87183709 0.17485478 0 0 Z " fill="#1A4D7A" transform="translate(5000.760613325983,962.8753288350999)"/>
<path d="M0 0 C1.44660007 -0.00372236 2.89319649 -0.00919763 4.33978419 -0.01624487 C8.30264052 -0.03051031 12.26509649 -0.02003544 16.22793701 -0.0053969 C20.55986131 0.0061395 24.89173457 -0.00569794 29.22365665 -0.01448435 C36.84096109 -0.02672713 44.45814839 -0.02410531 52.07545105 -0.01179497 C63.47876421 0.00655681 74.8819883 0.00178076 86.2853083 -0.0074934 C105.7200953 -0.02262511 125.15483733 -0.01878026 144.58962321 -0.00464308 C164.2864026 0.00961225 183.98315578 0.01516658 203.67993999 0.01007783 C204.92368797 0.0097621 206.16743596 0.00944637 207.44887328 0.00912108 C213.79069984 0.00747308 220.13252636 0.00568734 226.47435287 0.00385633 C272.38768573 -0.00908913 318.30099267 -0.00238701 364.21432185 0.01504457 C375.56698835 0.01934725 386.91965487 0.02361072 398.27232146 0.02765644 C398.97806122 0.02790829 399.68380098 0.02816015 400.4109268 0.02841964 C433.1112507 0.04001854 465.81157297 0.04202335 498.51189866 0.04172746 C500.65091709 0.04170929 502.78993552 0.04169649 504.92895395 0.04168555 C517.82752192 0.04161912 530.72608988 0.04148155 543.62465785 0.04125134 C575.69056808 0.04069036 607.75647822 0.04146939 639.82238841 0.04322946 C640.55237829 0.04326899 641.28236817 0.04330852 642.03447896 0.04334925 C689.31150349 0.04592668 736.58852504 0.05422298 783.8655479 0.06694543 C784.99768974 0.06724965 784.99768974 0.06724965 786.15270313 0.06756002 C810.66501836 0.07415291 835.17733349 0.08112579 859.68964861 0.08813349 C883.57635959 0.09496188 907.4630706 0.10165019 931.34978175 0.10785997 C932.11427011 0.10805878 932.87875848 0.1082576 933.66641315 0.10846244 C1006.26489089 0.12728953 1078.86336666 0.12955066 1151.46184646 0.12852211 C1155.30504484 0.12846836 1159.14824323 0.12841858 1162.99144161 0.12836857 C1167.59853896 0.12830835 1172.20563631 0.12824787 1176.81273366 0.12818605 C1192.87952815 0.12797049 1208.94632264 0.12777205 1225.01311713 0.12760779 C1227.30002696 0.12758387 1229.58693679 0.12755837 1231.87384661 0.12753253 C1278.36765004 0.12701648 1324.86145269 0.1290597 1371.35525584 0.13420236 C1372.0849769 0.13428295 1372.81469797 0.13436354 1373.56653179 0.13444658 C1407.04946226 0.13815625 1440.5323926 0.14269462 1474.01532288 0.14790198 C1476.16914273 0.14823687 1478.32296258 0.1485709 1480.47678243 0.14890469 C1484.7760343 0.14957117 1489.07528618 0.15023933 1493.37453805 0.15090822 C1494.43694521 0.15107346 1494.43694521 0.15107346 1495.52081515 0.15124203 C1502.65549351 0.15235224 1509.79017188 0.15346796 1516.92485024 0.15461179 C1548.91505093 0.15973959 1580.90525113 0.16381575 1612.89545226 0.16458118 C1614.32022746 0.16461655 1615.74500266 0.16465196 1617.16977786 0.16468742 C1622.85474469 0.16482689 1628.53971153 0.16495672 1634.22467837 0.16508239 C1686.9277131 0.16624874 1739.63073745 0.17376577 1792.33376911 0.19403978 C1797.38122472 0.19595502 1802.42868034 0.19784168 1807.47613597 0.19970644 C1808.71490092 0.2001675 1809.95366587 0.20062857 1811.22996915 0.20110361 C1830.87908826 0.20824388 1850.52820161 0.20870489 1870.17732165 0.20643477 C1889.47783556 0.20435124 1908.77833659 0.20939626 1928.07884653 0.22213503 C1939.4070257 0.22940207 1950.73517409 0.23118096 1962.06335407 0.22497902 C1969.57625346 0.22141037 1977.08912669 0.22502723 1984.60202077 0.23461457 C1988.86758519 0.23985477 1993.13308661 0.24193945 1997.39865038 0.23521685 C2001.26820288 0.22917719 2005.13763488 0.2323165 2009.00717691 0.24279771 C2010.39546176 0.24495261 2011.78375688 0.24376959 2013.17203456 0.23881596 C2032.77663463 0.17393482 2047.62707769 6.27095543 2062.00273585 19.68659532 C2077.82437413 36.07633551 2080.78001044 55.42196672 2080.70341945 77.14387071 C2080.70749217 79.09673928 2080.71283796 81.04960555 2080.71934962 83.00246751 C2080.73294479 88.27098867 2080.72775721 93.53933221 2080.71821237 98.8078562 C2080.71057622 104.34088105 2080.71767221 109.87389148 2080.72237086 115.40691698 C2080.72781649 124.69458797 2080.72066771 133.9821872 2080.70634913 143.26984727 C2080.69002015 153.98482453 2080.69531781 164.69963053 2080.71182835 175.41460365 C2080.72547153 184.64046951 2080.72734919 193.86628402 2080.71951234 203.09215671 C2080.714852 208.59096583 2080.71416578 214.08969462 2080.72412181 219.58849847 C2080.73283067 224.75885611 2080.7266983 229.9289943 2080.70943904 235.0993284 C2080.70549527 236.98905007 2080.70657176 238.87879043 2080.71322703 240.7685045 C2080.74517008 250.76524482 2080.4967217 259.89812805 2077.31523585 269.49909532 C2076.9388296 270.63604845 2076.56242335 271.77300157 2076.17461085 272.94440782 C2073.33141938 279.81211681 2069.84325705 285.61372819 2065.31523585 291.49909532 C2064.59336085 292.50972032 2063.87148585 293.52034532 2063.12773585 294.56159532 C2053.54658729 305.65555682 2038.63908092 313.03413016 2024.31523585 315.49909532 C2022.32702236 315.5877716 2020.33619725 315.62507575 2018.3460073 315.62565716 C2016.53421888 315.62982013 2016.53421888 315.62982013 2014.68582867 315.63406721 C2013.34527715 315.6320977 2012.00472576 315.63003741 2010.6641745 315.62789649 C2009.23229288 315.62926493 2007.80041162 315.63107109 2006.36853105 315.6332753 C2002.40937296 315.63808709 1998.4502376 315.63663666 1994.49107823 315.6342176 C1990.17696529 315.63267951 1985.86285745 315.63692865 1981.5487462 315.64044437 C1973.95036656 315.64582728 1966.35199311 315.64746026 1958.75361171 315.64669362 C1947.37836894 315.64556018 1936.0031334 315.65013298 1924.62789226 315.65582446 C1905.24378743 315.66534614 1885.85968405 315.67004529 1866.47557712 315.6721338 C1846.82220166 315.67426064 1827.16882844 315.67851648 1807.51545405 315.68537652 C1805.65580598 315.68602245 1805.65580598 315.68602245 1803.75858926 315.68668142 C1798.70947778 315.68843972 1793.6603663 315.69020936 1788.61125484 315.69199444 C1728.07534806 315.7133548 1667.5394415 315.72427094 1607.00353192 315.73315667 C1586.43285933 315.73617979 1565.86218686 315.73964038 1545.2915144 315.74343789 C1544.59135283 315.743567 1543.89119126 315.74369612 1543.16981268 315.74382914 C1536.79654041 315.74500462 1530.42326814 315.74618379 1524.04999587 315.74736641 C1452.03621803 315.76072142 1380.02243985 315.77311556 1233.30338401 315.78812544 C1226.45157666 315.7886499 1219.59976931 315.78918721 1212.74796196 315.7897239 C1210.45974529 315.78990311 1208.17152861 315.79008208 1205.88331193 315.790261 C1191.34678183 315.79139808 1176.81025173 315.79254414 1162.27372163 315.79370919 C1158.43848793 315.7940165 1154.60325423 315.79432244 1150.76802053 315.7946251 C1078.33571806 315.80034473 1005.90341909 315.80958678 933.47111964 315.8320421 C932.70866054 315.83227833 931.94620144 315.83251455 931.16063751 315.83275794 C906.57158493 315.84038579 881.98253249 315.84843463 857.39348006 315.85654321 C833.71679796 315.86435078 810.04011584 315.8720742 786.3634336 315.87943304 C785.23450175 315.87978417 785.23450175 315.87978417 784.08276321 315.8801424 C736.94722046 315.89477936 689.81167866 315.9045809 642.67613387 315.90930784 C641.94812217 315.90938143 641.22011046 315.90945503 640.4700378 315.90953085 C608.49725672 315.91275685 576.52447565 315.91492525 544.55169442 315.91591385 C531.68883193 315.91631467 518.82596945 315.91684806 505.96310697 315.91744528 C503.83037138 315.91754275 501.69763579 315.91763513 499.5649002 315.91772666 C466.94279243 315.91915534 434.32068916 315.92372484 401.69858408 315.93760264 C400.9950926 315.93790171 400.29160112 315.93820078 399.56679172 315.93850891 C388.25023948 315.94333746 376.93368736 315.94841937 365.61713526 315.95353491 C319.24044734 315.97449174 272.86378122 315.98311588 226.48708734 315.97341005 C220.17820136 315.97209156 213.86931536 315.97091353 207.56042933 315.96981943 C206.32369134 315.96959958 205.08695334 315.96937973 203.81273844 315.96915322 C184.21530912 315.96603664 164.61791083 315.97637416 145.02048871 315.99229498 C125.75869162 316.00766493 106.49693752 316.00881231 87.23513895 315.99474674 C75.9372391 315.98692577 64.63947042 315.99008018 53.34158362 316.0093839 C45.83974929 316.02111073 38.3380109 316.01834732 30.8361818 316.00376926 C26.58256061 315.99591002 22.32919624 315.99421798 18.07559272 316.0103883 C14.20858951 316.02497159 10.3420558 316.02081422 6.47507335 316.00233664 C4.45109675 315.99730347 2.42709928 316.01166267 0.40317524 316.02709262 C-19.22884731 315.87579184 -35.45134403 309.15461718 -49.68476415 295.49909532 C-55.23501711 289.40713767 -59.27943262 282.86009237 -62.62226415 275.37409532 C-62.9048911 274.7417296 -63.18751805 274.10936388 -63.47870946 273.45783556 C-68.26141605 262.01601693 -67.98278802 250.43770413 -67.97529149 238.25837266 C-67.98128325 236.31243704 -67.98809028 234.36650377 -67.99564672 232.42057359 C-68.01325014 227.15578373 -68.01799977 221.89105897 -68.01927829 216.62624252 C-68.02070391 213.32980084 -68.02498133 210.03337549 -68.03027272 206.73693788 C-68.04875587 195.21607741 -68.05694568 183.6952631 -68.05536962 172.17438829 C-68.05416941 161.46918396 -68.07525244 150.76418164 -68.10685694 140.05902839 C-68.13309271 130.84080901 -68.14373382 121.6226553 -68.1424588 112.40439892 C-68.14195121 106.91096298 -68.1475209 101.41770662 -68.1688149 95.92430818 C-68.1883201 90.75148463 -68.1882385 85.57900967 -68.17378163 80.40617311 C-68.17170743 78.51973776 -68.17631039 76.63327988 -68.18850255 74.7468828 C-68.31774302 53.3450759 -64.08171969 35.50954813 -48.82538915 19.60456407 C-47.76577977 18.56235704 -47.76577977 18.56235704 -46.68476415 17.49909532 C-46.1227329 16.93835313 -45.56070165 16.37761095 -44.98163915 15.79987657 C-32.23161124 4.00919542 -17.02264412 -0.12721873 0 0 Z " fill="#FEFEFE" transform="translate(1993.6847641468048,1847.5009046792984)"/>
<path d="M0 0 C1316.7 0 2633.4 0 3990 0 C3990 477.51 3990 955.02 3990 1447 C2673.3 1447 1356.6 1447 0 1447 C0 969.49 0 491.98 0 0 Z M12 12 C12 481.59 12 951.18 12 1435 C1320.78 1435 2629.56 1435 3978 1435 C3978 965.41 3978 495.82 3978 12 C2669.22 12 1360.44 12 12 12 Z " fill="#FEFEFE" transform="translate(1005,964)"/>
<path d="M0 0 C23.43 0 46.86 0 71 0 C71.99 2.97 72.98 5.94 74 9 C74.31582031 9.91265625 74.63164062 10.8253125 74.95703125 11.765625 C76.95885192 17.5791316 78.71652372 23.44529168 80.37890625 29.36328125 C83.40157334 40.02589052 86.54360829 50.65235694 89.6953125 61.27734375 C89.95304884 62.14637707 90.21078518 63.01541039 90.47633171 63.91077805 C92.08453094 69.3323341 93.69416188 74.7534643 95.30432129 80.17443848 C97.47128653 87.47017822 99.63714499 94.76624585 101.801754 102.06268501 C102.54772396 104.57623166 103.29458798 107.08951134 104.04153442 109.60276794 C105.15951239 113.36690538 106.27295266 117.13234965 107.38150787 120.89927292 C107.79378168 122.29957327 108.20708628 123.69957055 108.62142181 125.09926224 C109.19825374 127.05135187 109.76896055 129.00524832 110.33935547 130.95922852 C110.66161102 132.0582399 110.98386658 133.15725128 111.31588745 134.28956604 C112 137 112 137 112 140 C112.66 140 113.32 140 114 140 C114.11102051 139.39414063 114.22204102 138.78828125 114.33642578 138.1640625 C115.5139935 131.98509971 117.061397 126.01943471 118.875 120 C119.4987438 117.89623252 120.12101617 115.79202848 120.7421875 113.6875 C121.0937793 112.49640625 121.44537109 111.3053125 121.80761719 110.078125 C124.25645977 101.73369 126.61754162 93.36356237 129 85 C132.40582741 73.05203997 135.82469469 61.10908938 139.33447266 49.19116211 C141.21274326 42.780692 143.0298869 36.35406179 144.83203125 29.921875 C145.0820137 29.03066452 145.33199615 28.13945404 145.58955383 27.22123718 C146.85008041 22.72595746 148.10677918 18.22966115 149.35766602 13.73168945 C149.81905204 12.08281115 150.28055384 10.43396524 150.7421875 8.78515625 C150.95539139 8.01351135 151.16859528 7.24186646 151.38825989 6.44683838 C152.88658289 1.11341711 152.88658289 1.11341711 154 0 C177.43 0 200.86 0 225 0 C225 65.34 225 130.68 225 198 C208.83 198 192.66 198 176 198 C175.95989119 173.01666832 175.95989119 173.01666832 175.95117188 162.265625 C175.94522272 154.96516176 175.93822881 147.66471121 175.92456055 140.36425781 C175.9135963 134.4703495 175.90769484 128.57645482 175.90512276 122.68253708 C175.90329267 120.44779623 175.89971972 118.21305603 175.89426994 115.97832108 C175.86680956 104.23774889 176.03178108 92.57571458 176.77638245 80.85800171 C177.06622519 75.85743811 177.11473985 70.88198852 177.0625 65.875 C177.05573242 64.56595703 177.05573242 64.56595703 177.04882812 63.23046875 C177.03741683 61.15361341 177.0195106 59.07679505 177 57 C176.84015121 57.57088852 176.68030243 58.14177704 176.51560974 58.72996521 C173.87433879 68.16307576 171.23306783 77.59618632 168.59179688 87.02929688 C168.2878299 88.11489899 167.98386292 89.2005011 167.67068481 90.31900024 C167.05080348 92.53285046 166.43090995 94.74669727 165.81100464 96.96054077 C164.25083535 102.53237101 162.69087247 108.10425887 161.13134766 113.67626953 C157.74222213 125.78448483 154.34750266 137.89107157 150.93841553 149.99368286 C148.94094402 157.08543742 146.94763024 164.17819206 144.9765625 171.27734375 C144.66267578 172.40591797 144.34878906 173.53449219 144.02539062 174.69726562 C143.44662719 176.78006071 142.86965401 178.86335453 142.29492188 180.94726562 C142.03517578 181.88119141 141.77542969 182.81511719 141.5078125 183.77734375 C141.17740967 184.97218384 141.17740967 184.97218384 140.84033203 186.19116211 C139.65394604 190.15669692 138.30893002 194.07320993 137 198 C120.17 198 103.34 198 86 198 C72.66666667 151.33333333 59.33333333 104.66666667 46 58 C45.89996943 64.06852103 45.9608638 70.05773426 46.49389648 76.10595703 C47.37473983 87.48224639 47.12245646 98.90217923 47.09765625 110.3046875 C47.09578811 112.84058606 47.09436608 115.37648498 47.09336853 117.91238403 C47.08996082 123.86889192 47.08210664 129.82538307 47.07201904 135.78188241 C47.06077221 142.57288539 47.05532604 149.36388935 47.05032361 156.15489936 C47.03992118 170.10327846 47.02161043 184.05163399 47 198 C31.49 198 15.98 198 0 198 C0 132.66 0 67.32 0 0 Z " fill="#FEFEFE" transform="translate(3079,1233)"/>
<path d="M0 0 C19.55521026 18.7894942 26.22597649 46.12625604 26.8828125 72.36328125 C27.14665743 86.2452457 27.16889206 99.98449352 23.59375 113.4921875 C23.42746094 114.14461426 23.26117187 114.79704102 23.08984375 115.46923828 C17.58062145 136.64403622 6.79019415 155.95146003 -12.31542969 167.63916016 C-28.93385054 177.36289844 -46.68888008 181.04204258 -65.72241211 180.82836914 C-67.97090459 180.80466479 -70.21820966 180.80785473 -72.46679688 180.81445312 C-97.20150427 180.76846243 -120.88749966 174.96062713 -138.828125 157.13671875 C-139.67890625 156.26402344 -140.5296875 155.39132812 -141.40625 154.4921875 C-142.07140625 153.83605469 -142.7365625 153.17992187 -143.421875 152.50390625 C-164.57222231 130.25793284 -166.36150913 98.24163794 -165.63476562 69.33192444 C-164.77688599 42.19315408 -156.4353535 17.37915854 -136.40625 -1.5078125 C-100.51703545 -32.2699964 -35.45116222 -30.25573327 0 0 Z " fill="#FEFEFE" transform="translate(2116.40625,1252.5078125)"/>
<path d="M0 0 C108.43487859 0 108.43487859 0 129 17 C129.64453125 17.53238281 130.2890625 18.06476563 130.953125 18.61328125 C140.35073766 27.17328061 145.3883765 40.35863376 146.2734375 52.86328125 C146.85654208 70.93544563 141.82155528 86.22707904 129.43359375 99.75 C124.73191919 104.09697359 119.36954188 107.53762772 114 111 C114.62961306 114.2240072 115.76103284 116.46072523 117.56933594 119.19165039 C118.10790222 120.01093521 118.64646851 120.83022003 119.20135498 121.67433167 C119.78975159 122.55652878 120.37814819 123.43872589 120.984375 124.34765625 C121.9015329 125.73651283 121.9015329 125.73651283 122.83721924 127.15342712 C124.8028471 130.12666446 126.77647616 133.09449951 128.75 136.0625 C130.03304032 138.00293247 131.31559734 139.94368459 132.59765625 141.88476562 C140.61484687 154.00413308 148.7556972 166.03416315 157 178 C157.73653809 179.07032471 158.47307617 180.14064941 159.23193359 181.2434082 C160.16320068 182.59631958 160.16320068 182.59631958 161.11328125 183.9765625 C161.65791016 184.76804687 162.20253906 185.55953125 162.76367188 186.375 C163.84539071 187.94642509 164.92886543 189.5166423 166.01367188 191.0859375 C166.54154297 191.85421875 167.06941406 192.6225 167.61328125 193.4140625 C168.07516846 194.0838916 168.53705566 194.7537207 169.01293945 195.44384766 C170 197 170 197 170 198 C162.27402568 198.51328382 154.5521263 198.90222487 146.81332111 199.13986778 C143.21694487 199.25406858 139.63232094 199.40815316 136.04272461 199.65966797 C112.9899101 201.23258823 112.9899101 201.23258823 106.48330688 195.96099854 C102.18097639 190.75337883 99.52634514 184.89661556 97.06887817 178.6461792 C95.72669158 175.32338121 94.05891153 172.48054341 92.16015625 169.4453125 C91.1268053 167.67234037 90.09423026 165.89891574 89.0625 164.125 C85.39143159 157.81387324 81.71333107 151.50743339 78.00390625 145.21875 C77.35478271 144.11515137 76.70565918 143.01155273 76.03686523 141.87451172 C74.78331054 139.74390094 73.52642586 137.61524512 72.26586914 135.48876953 C71.70633545 134.53599121 71.14680176 133.58321289 70.5703125 132.6015625 C70.07289551 131.75932129 69.57547852 130.91708008 69.06298828 130.04931641 C68 128 68 128 68 126 C63.38 126 58.76 126 54 126 C54 149.76 54 173.52 54 198 C36.18 198 18.36 198 0 198 C0 132.66 0 67.32 0 0 Z " fill="#FDFDFE" transform="translate(2891,1233)"/>
<path d="M0 0 C17.82 0 35.64 0 54 0 C54 24.42 54 48.84 54 74 C74.46 74 94.92 74 116 74 C116 49.58 116 25.16 116 0 C133.82 0 151.64 0 170 0 C170 65.34 170 130.68 170 198 C152.18 198 134.36 198 116 198 C116 171.27 116 144.54 116 117 C95.54 117 75.08 117 54 117 C54 143.73 54 170.46 54 198 C36.18 198 18.36 198 0 198 C0 132.66 0 67.32 0 0 Z " fill="#FEFEFE" transform="translate(3579,1233)"/>
<path d="M0 0 C107.94787691 0 107.94787691 0 127.93359375 18.734375 C142.60724377 34.82268693 143.82991141 53.54804109 143.15234375 74.32226562 C142.85658686 79.52076165 141.81850529 84.14083606 140 89 C139.50693359 90.46179687 139.50693359 90.46179687 139.00390625 91.953125 C133.2134238 107.58141673 122.36108517 118.09173975 107.5625 125.375 C89.86251362 133.0365049 72.33981207 132 53 132 C53 153.78 53 175.56 53 198 C35.51 198 18.02 198 0 198 C0 132.66 0 67.32 0 0 Z " fill="#FEFEFE" transform="translate(1783,1233)"/>
<path d="M0 0 C-0.6263444 5.1452246 -2.21219856 9.48917203 -4.16015625 14.2421875 C-4.62415077 15.39474533 -4.62415077 15.39474533 -5.09751892 16.57058716 C-6.08017002 19.0077306 -7.07118954 21.44136771 -8.0625 23.875 C-8.73297867 25.5336292 -9.40290649 27.19248119 -10.07226562 28.8515625 C-11.70847905 32.90364816 -13.35220276 36.95261189 -15 41 C-19.22096217 40.34832222 -22.74957451 39.41139446 -26.6875 37.75 C-42.51095744 31.57543128 -60.5926724 25.94956381 -77.3359375 31.953125 C-79.56384065 33.35471665 -80.6676858 34.72983321 -82 37 C-82.43438809 39.44934407 -82.43438809 39.44934407 -82.3125 42 C-82.30669922 43.2684375 -82.30669922 43.2684375 -82.30078125 44.5625 C-81.97405914 47.21022203 -81.49756625 48.79406115 -80 51 C-78.68689033 51.7056665 -77.34925925 52.3661848 -76 53 C-74.46030322 53.80751655 -72.92270986 54.61905065 -71.38671875 55.43359375 C-62.27534532 60.24017101 -53.16475594 64.97457432 -43.8215332 69.31762695 C-25.34663119 77.9067955 -10.10644855 87.07510133 -1.89453125 106.6328125 C2.3569609 120.32541162 2.21263313 138.9516378 -4 152 C-10.31853942 163.90124893 -18.28220962 172.39794111 -30 179 C-30.66773437 179.38929688 -31.33546875 179.77859375 -32.0234375 180.1796875 C-37.96812726 183.41540471 -44.47884469 185.28693713 -51 187 C-51.64187256 187.18022705 -52.28374512 187.3604541 -52.94506836 187.54614258 C-62.0554306 189.76665004 -71.49459237 189.43978854 -80.8125 189.4375 C-82.18785919 189.43910126 -82.18785919 189.43910126 -83.59100342 189.44073486 C-104.07280905 189.40622579 -118.73495088 185.70601965 -138 178 C-138 162.16 -138 146.32 -138 130 C-133.60152331 131.4661589 -129.4510595 133.03092442 -125.1875 134.8125 C-109.01930185 141.36870435 -93.08545512 145.04385916 -75.5625 145.3125 C-74.829104 145.33030518 -74.09570801 145.34811035 -73.34008789 145.36645508 C-66.57682145 145.35646502 -61.13572996 143.86876371 -56 139.375 C-53.41964402 135.02064928 -52.85718766 131.93487148 -54 127 C-58.55923584 116.80623684 -74.37179872 112.25708189 -83.86694336 107.9753418 C-103.68387819 99.03895889 -125.03532891 89.40206674 -133.27734375 67.625 C-138.50333219 51.25891519 -138.98817796 34.7258187 -131.875 18.875 C-124.01683035 4.21739614 -110.37948629 -4.80942338 -95 -10 C-90.06332147 -11.36541528 -85.06034179 -12.22240611 -80 -13 C-79.05125 -13.18433594 -78.1025 -13.36867188 -77.125 -13.55859375 C-51.39139856 -17.19346495 -23.28701744 -10.71696956 0 0 Z " fill="#FDFEFE" transform="translate(3548,1244)"/>
<path d="M0 0 C1.14210938 0.01675781 2.28421875 0.03351563 3.4609375 0.05078125 C21.96892321 0.76576966 42.38883619 5.6944181 59 14 C58.33197032 18.01516584 57.10619672 21.55433849 55.6015625 25.33203125 C55.12203125 26.54310547 54.6425 27.75417969 54.1484375 29.00195312 C53.64079477 30.27220328 53.13298108 31.54238512 52.625 32.8125 C51.63669927 35.29765388 50.65050664 37.78363927 49.6640625 40.26953125 C49.20161133 41.43307129 48.73916016 42.59661133 48.26269531 43.79541016 C46.79714043 47.51483657 45.38353346 51.24940078 44 55 C39.08755464 54.36391113 34.67887615 52.90805304 30.0625 51.1875 C6.22534987 42.64088821 6.22534987 42.64088821 -18.328125 46.02734375 C-21.11192159 47.64688896 -22.50996908 49.14950607 -24 52 C-24.6058884 56.16548276 -24.39446473 58.28558835 -22.35351562 61.98193359 C-19.74650478 65.32507344 -17.55104696 66.82935093 -13.84375 68.8515625 C-13.23664185 69.18491608 -12.62953369 69.51826965 -12.00402832 69.86172485 C-3.60075615 74.40512018 5.09471444 78.40700081 13.75927734 82.421875 C32.26041039 91.02071074 49.3114083 101.01945595 57 121 C58.93381491 127.50292661 59.30898023 133.74676391 59.25 140.5 C59.25773437 141.38558594 59.26546875 142.27117187 59.2734375 143.18359375 C59.24642731 152.38056467 57.47597959 159.96678823 53.25 168.125 C52.8900293 168.82439697 52.53005859 169.52379395 52.15917969 170.24438477 C44.40329779 184.95328011 30.61428115 193.88216469 15.0625 199.125 C-17.09717632 208.38879435 -48.38900857 204.24439657 -79 192 C-79 176.16 -79 160.32 -79 144 C-74.60152331 145.4661589 -70.4510595 147.03092442 -66.1875 148.8125 C-57.96063888 152.16357201 -49.58345974 154.73356814 -41 157 C-40.09378906 157.24878906 -39.18757813 157.49757813 -38.25390625 157.75390625 C-31.87813508 159.21268269 -25.38810197 159.26486341 -18.875 159.375 C-17.94405518 159.40118408 -17.01311035 159.42736816 -16.05395508 159.4543457 C-8.4405936 159.47259992 -2.2383499 157.84342918 3.5625 152.75 C5.47117286 149.09862583 5.74655025 145.98422082 5 142 C0.20830255 131.58326642 -13.02459595 127.44856957 -22.875 123 C-65.53963658 103.62714942 -65.53963658 103.62714942 -74.2265625 81.9375 C-78.6339944 69.25424273 -80.07843802 54.98537163 -76 42 C-75.75507813 41.14148437 -75.51015625 40.28296875 -75.2578125 39.3984375 C-70.78990088 25.36207797 -61.5377849 16.38830723 -48.90234375 9.25 C-33.36670938 1.54956165 -17.13381953 -0.37874759 0 0 Z " fill="#FDFEFE" transform="translate(2249,1230)"/>
<path d="M0 0 C38.94 0 77.88 0 118 0 C118 14.19 118 28.38 118 43 C96.55 43 75.1 43 53 43 C53 53.23 53 63.46 53 74 C72.8 74 92.6 74 113 74 C113 88.19 113 102.38 113 117 C93.2 117 73.4 117 53 117 C53 129.54 53 142.08 53 155 C74.12 155 95.24 155 117 155 C117 169.19 117 183.38 117 198 C78.39 198 39.78 198 0 198 C0 132.66 0 67.32 0 0 Z " fill="#FEFEFE" transform="translate(3944,1233)"/>
<path d="M0 0 C38.61 0 77.22 0 117 0 C117 14.19 117 28.38 117 43 C95.88 43 74.76 43 53 43 C53 53.23 53 63.46 53 74 C72.8 74 92.6 74 113 74 C113 88.19 113 102.38 113 117 C93.2 117 73.4 117 53 117 C53 129.54 53 142.08 53 155 C74.12 155 95.24 155 117 155 C117 169.19 117 183.38 117 198 C78.39 198 39.78 198 0 198 C0 132.66 0 67.32 0 0 Z " fill="#FEFEFE" transform="translate(3792,1233)"/>
<path d="M0 0 C38.61 0 77.22 0 117 0 C117 14.19 117 28.38 117 43 C95.88 43 74.76 43 53 43 C53 53.23 53 63.46 53 74 C72.8 74 92.6 74 113 74 C113 88.19 113 102.38 113 117 C93.2 117 73.4 117 53 117 C53 129.54 53 142.08 53 155 C74.12 155 95.24 155 117 155 C117 169.19 117 183.38 117 198 C78.39 198 39.78 198 0 198 C0 132.66 0 67.32 0 0 Z " fill="#FEFEFE" transform="translate(2739,1233)"/>
<path d="M0 0 C49.5 0 99 0 150 0 C150 14.52 150 29.04 150 44 C134.16 44 118.32 44 102 44 C102 94.82 102 145.64 102 198 C84.18 198 66.36 198 48 198 C48 147.18 48 96.36 48 44 C32.16 44 16.32 44 0 44 C0 29.48 0 14.96 0 0 Z " fill="#FDFDFE" transform="translate(4082,1233)"/>
<path d="M0 0 C49.5 0 99 0 150 0 C150 14.52 150 29.04 150 44 C134.16 44 118.32 44 102 44 C102 94.82 102 145.64 102 198 C84.18 198 66.36 198 48 198 C48 147.18 48 96.36 48 44 C32.16 44 16.32 44 0 44 C0 29.48 0 14.96 0 0 Z " fill="#FDFDFE" transform="translate(2325,1233)"/>
<path d="M0 0 C49.5 0 99 0 150 0 C150 14.19 150 28.38 150 43 C134.16 43 118.32 43 102 43 C102 94.15 102 145.3 102 198 C84.51 198 67.02 198 49 198 C49 147.18 49 96.36 49 44 C32.83 44 16.66 44 0 44 C0 29.48 0 14.96 0 0 Z " fill="#FEFEFE" transform="translate(2560,1233)"/>
<path d="M0 0 C11.30060868 7.60339674 16.34866979 18.97224078 19 32 C22.66304597 52.04500156 22.04335138 78.81268113 11 96.5 C4.02333987 105.22082516 -3.04509144 109.2380217 -14 111 C-25.37459363 111.92905069 -35.23240099 110.98548853 -44.25390625 103.59765625 C-54.69916432 94.04036196 -59.37061357 78.8514902 -60.17700195 64.94824219 C-60.96969055 20.94928811 -60.96969055 20.94928811 -45.88671875 4.75390625 C-34.02737031 -6.27062263 -14.13701674 -7.50584054 0 0 Z " fill="#13538E" transform="translate(2067,1278)"/>
<path d="M0 0 C7.84191111 -0.09341535 15.68368752 -0.1641225 23.52601814 -0.20724869 C27.16907784 -0.2279659 30.81175196 -0.25598523 34.45458984 -0.30175781 C37.98190881 -0.34579247 41.50886118 -0.36925574 45.03643417 -0.37950897 C47.01140199 -0.39030303 48.98622598 -0.42143254 50.96096802 -0.45318604 C62.49905697 -0.45599675 73.91747542 0.96454171 82.546875 9.21875 C86.97449017 14.64614924 86.56741935 20.25302932 86 27 C84.81358255 32.05154304 81.93683373 36.6282177 78 40 C69.77631579 45 69.77631579 45 65 45 C67.66473426 50.32946852 71.07105289 54.636692 74.93847656 59.16186523 C77.69990569 62.40378302 80.32165965 65.70987969 82.86523438 69.12524414 C89.10157939 77.47783725 94.30048902 84.28043573 105 86 C105 87.65 105 89.3 105 91 C100.16240424 91.27364565 95.32937451 91.47223893 90.48583984 91.60424805 C88.8421378 91.65929641 87.19896798 91.73417216 85.55712891 91.82983398 C71.94530409 92.60257571 71.94530409 92.60257571 67.2590332 88.74194336 C65.20355761 85.92093378 63.57940803 83.10847743 62 80 C61.16468938 78.76757696 60.30779166 77.54912933 59.41796875 76.35546875 C58.68191406 75.31003906 57.94585938 74.26460937 57.1875 73.1875 C53.5921513 68.13726286 49.91171512 63.15851593 46.125 58.25 C45.67278076 57.65340576 45.22056152 57.05681152 44.75463867 56.44213867 C42.3887106 53.41270961 40.48911348 51.56239974 37 50 C37.0688642 54.3605117 37.15682189 58.72009398 37.26245117 63.07983398 C37.29569423 64.56279854 37.32372823 66.04588944 37.34643555 67.52905273 C37.37999468 69.66184293 37.43230638 71.79347612 37.48828125 73.92578125 C37.51446533 75.20880127 37.54064941 76.49182129 37.56762695 77.8137207 C37.73396942 80.95903753 37.73396942 80.95903753 39.40429688 82.89648438 C41.31237309 84.21602301 42.92306202 84.70491486 45.1875 85.1875 C46.445625 85.455625 47.70375 85.72375 49 86 C49 87.65 49 89.3 49 91 C32.83 91 16.66 91 0 91 C0 89.35 0 87.7 0 86 C5.94 85.01 5.94 85.01 12 84 C12.95609431 80.17562276 13.1389693 77.18015842 13.16113281 73.25952148 C13.16609772 72.59075989 13.17106262 71.92199829 13.17617798 71.23297119 C13.1907396 69.02900147 13.19758948 66.82510359 13.203125 64.62109375 C13.20887887 63.08700051 13.21463657 61.55290729 13.22039795 60.01881409 C13.23088907 56.80689154 13.23674492 53.5949939 13.24023438 50.38305664 C13.24573277 46.26475856 13.26979702 42.14678883 13.29820633 38.02859402 C13.31680947 34.86219815 13.32203693 31.69588202 13.32357025 28.52943611 C13.32659967 27.01075496 13.33463798 25.49207532 13.34775543 23.9734478 C13.36477738 21.85240279 13.3629464 19.73216924 13.35644531 17.61108398 C13.36009094 16.40403305 13.36373657 15.19698212 13.36749268 13.95335388 C13.24700643 11.01821607 13.24700643 11.01821607 11.63275146 9.14613342 C9.4609114 7.62157899 7.36683807 7.00913766 4.8125 6.3125 C3.91144531 6.06113281 3.01039063 5.80976562 2.08203125 5.55078125 C1.39496094 5.36902344 0.70789062 5.18726563 0 5 C0 3.35 0 1.7 0 0 Z " fill="#175FA1" transform="translate(2438,1958)"/>
<path d="M0 0 C6.16218439 4.7604858 10.28923148 11.71651794 11.84375 19.3671875 C13.1184417 30.01258578 12.86990839 39.46847574 7.1328125 48.78125 C1.59828437 55.78884645 -4.94435982 61.01611712 -13.8671875 62.78125 C-22.51039487 63.49566145 -29.0832207 62.55017259 -36.8671875 58.78125 C-36.75731782 62.05277618 -36.6266878 65.32315114 -36.4921875 68.59375 C-36.46125 69.52251953 -36.4303125 70.45128906 -36.3984375 71.40820312 C-36.35976562 72.30087891 -36.32109375 73.19355469 -36.28125 74.11328125 C-36.2498291 74.93546143 -36.2184082 75.7576416 -36.18603516 76.60473633 C-35.98345128 79.07077937 -35.98345128 79.07077937 -33.8671875 81.78125 C-31.22027082 82.58217254 -31.22027082 82.58217254 -28.2421875 82.96875 C-26.73785156 83.20658203 -26.73785156 83.20658203 -25.203125 83.44921875 C-24.43226563 83.55878906 -23.66140625 83.66835937 -22.8671875 83.78125 C-22.8671875 85.43125 -22.8671875 87.08125 -22.8671875 88.78125 C-38.0471875 88.78125 -53.2271875 88.78125 -68.8671875 88.78125 C-68.8671875 87.46125 -68.8671875 86.14125 -68.8671875 84.78125 C-68.22910156 84.57628906 -67.59101563 84.37132813 -66.93359375 84.16015625 C-66.10730469 83.89074219 -65.28101562 83.62132813 -64.4296875 83.34375 C-63.60597656 83.07691406 -62.78226563 82.81007813 -61.93359375 82.53515625 C-59.90499162 81.95969506 -59.90499162 81.95969506 -58.8671875 80.78125 C-58.75168705 78.52773986 -58.70746389 76.2705621 -58.69018555 74.01416016 C-58.68361435 73.30682236 -58.67704315 72.59948456 -58.67027283 71.87071228 C-58.65049722 69.52057807 -58.63886829 67.17050785 -58.62890625 64.8203125 C-58.62483072 64.01959698 -58.6207552 63.21888145 -58.61655617 62.39390182 C-58.5956779 58.15648402 -58.58138345 53.91909878 -58.57202148 49.68164062 C-58.56094912 45.29749392 -58.52654523 40.9138537 -58.48684978 36.52988625 C-58.46074519 33.16532425 -58.45233521 29.80088407 -58.44874001 26.43622971 C-58.44385856 24.81984407 -58.43220046 23.20346443 -58.41370201 21.58717728 C-58.38943832 19.32674923 -58.39025121 17.0676464 -58.3972168 14.80712891 C-58.39135056 13.51996979 -58.38548431 12.23281067 -58.37944031 10.90664673 C-58.56539994 7.72809566 -58.56539994 7.72809566 -60.69343567 5.91635132 C-63.33958727 4.53456977 -66.00794419 3.62602643 -68.8671875 2.78125 C-68.8671875 1.13125 -68.8671875 -0.51875 -68.8671875 -2.21875 C-58.1800245 -3.01460256 -47.58319073 -3.34700004 -36.8671875 -3.21875 C-36.3721875 0.24625 -36.3721875 0.24625 -35.8671875 3.78125 C-35.10535156 3.16636719 -35.10535156 3.16636719 -34.328125 2.5390625 C-24.08623654 -5.47799626 -11.31411111 -7.38494282 0 0 Z " fill="#175FA1" transform="translate(3258.8671875,1988.21875)"/>
<path d="M0 0 C7.66745406 3.51676535 13.39308761 10.08327864 16.59375 17.796875 C19.09548664 27.77090396 19.35810773 39.69471233 15.046875 49.16015625 C10.04916275 57.3456616 3.5611614 62.84877335 -5.625 65.72265625 C-14.86761927 67.72106042 -22.08958925 66.36938888 -30.515625 62.34765625 C-30.4060557 65.80666103 -30.27535652 69.26454734 -30.140625 72.72265625 C-30.1096875 73.7075 -30.07875 74.69234375 -30.046875 75.70703125 C-29.98886719 77.11855469 -29.98886719 77.11855469 -29.9296875 78.55859375 C-29.8982666 79.42790527 -29.8668457 80.2972168 -29.83447266 81.19287109 C-29.70333067 83.55727419 -29.70333067 83.55727419 -27.515625 85.34765625 C-25.82800642 85.9507724 -24.11548024 86.48615862 -22.390625 86.97265625 C-21.48054688 87.23304688 -20.57046875 87.4934375 -19.6328125 87.76171875 C-18.93414063 87.95507812 -18.23546875 88.1484375 -17.515625 88.34765625 C-17.515625 89.66765625 -17.515625 90.98765625 -17.515625 92.34765625 C-32.365625 92.34765625 -47.215625 92.34765625 -62.515625 92.34765625 C-62.515625 90.69765625 -62.515625 89.04765625 -62.515625 87.34765625 C-61.87753906 87.22648437 -61.23945313 87.1053125 -60.58203125 86.98046875 C-59.75574219 86.81289062 -58.92945312 86.6453125 -58.078125 86.47265625 C-57.25441406 86.31023438 -56.43070313 86.1478125 -55.58203125 85.98046875 C-54.55916016 85.66722656 -54.55916016 85.66722656 -53.515625 85.34765625 C-52.06163717 82.43968059 -52.38830142 79.89873251 -52.38623047 76.65063477 C-52.38447815 75.96265808 -52.38272583 75.2746814 -52.38092041 74.56585693 C-52.37651042 72.28606664 -52.37943721 70.00635361 -52.3828125 67.7265625 C-52.38213914 66.14477015 -52.38116884 64.56297791 -52.37991333 62.98118591 C-52.37843745 59.66314714 -52.38058711 56.34513526 -52.38525391 53.02709961 C-52.39094648 48.77210374 -52.38767449 44.51717101 -52.38168144 40.26217747 C-52.37806891 36.99455794 -52.37921769 33.7269534 -52.38180923 30.45933342 C-52.38247683 28.89043101 -52.38165592 27.32152725 -52.37932968 25.75262642 C-52.37679235 23.55973837 -52.38065926 21.36695268 -52.38623047 19.17407227 C-52.38702606 17.92545914 -52.38782166 16.67684601 -52.38864136 15.39039612 C-52.3770952 12.30258654 -52.3770952 12.30258654 -53.515625 9.34765625 C-55.61282372 8.32484107 -55.61282372 8.32484107 -58.078125 7.66015625 C-58.90441406 7.40878906 -59.73070313 7.15742187 -60.58203125 6.8984375 C-61.22011719 6.71667969 -61.85820312 6.53492188 -62.515625 6.34765625 C-62.515625 4.69765625 -62.515625 3.04765625 -62.515625 1.34765625 C-51.83047945 0.66923431 -41.22655209 0.19267499 -30.515625 0.34765625 C-30.515625 2.65765625 -30.515625 4.96765625 -30.515625 7.34765625 C-29.91234375 6.93773437 -29.3090625 6.5278125 -28.6875 6.10546875 C-27.48867187 5.29722656 -27.48867187 5.29722656 -26.265625 4.47265625 C-25.47671875 3.93898438 -24.6878125 3.4053125 -23.875 2.85546875 C-16.71131159 -1.72265 -8.24729678 -2.13866236 0 0 Z " fill="#175FA1" transform="translate(3339.515625,1984.65234375)"/>
<path d="M0 0 C1.32 0 2.64 0 4 0 C4.00546844 1.60612907 4.00546844 1.60612907 4.01104736 3.2447052 C4.04795267 13.32451232 4.10567613 23.40401266 4.18390274 33.48358631 C4.22344989 38.66590982 4.25560276 43.84806157 4.27099609 49.03051758 C4.28611513 54.02981084 4.32047558 59.02863211 4.36830902 64.02771568 C4.38317204 65.93708893 4.39104382 67.84652955 4.39188385 69.75596046 C4.39424053 72.42611934 4.42121379 75.09495993 4.45410156 77.76489258 C4.4490712 78.55827026 4.44404083 79.35164795 4.43885803 80.16906738 C4.49471162 84.47900182 4.49471162 84.47900182 6.83099365 87.94047546 C9.48792251 89.23834226 12.16640338 90.162801 15 91 C15 92.32 15 93.64 15 95 C0.48 95 -14.04 95 -29 95 C-29 93.68 -29 92.36 -29 91 C-28.28972656 90.80664062 -27.57945312 90.61328125 -26.84765625 90.4140625 C-25.92855469 90.15367187 -25.00945313 89.89328125 -24.0625 89.625 C-23.14597656 89.36976563 -22.22945312 89.11453125 -21.28515625 88.8515625 C-18.83254913 88.23339896 -18.83254913 88.23339896 -18 86 C-17.84655791 84.11527141 -17.75040429 82.22572126 -17.68359375 80.3359375 C-17.64169922 79.21445313 -17.59980469 78.09296875 -17.55664062 76.9375 C-17.51732422 75.761875 -17.47800781 74.58625 -17.4375 73.375 C-17.37272461 71.59996094 -17.37272461 71.59996094 -17.30664062 69.7890625 C-17.20032574 66.85949672 -17.09829358 63.92984412 -17 61 C-17.46180664 61.33990967 -17.92361328 61.67981934 -18.39941406 62.0300293 C-19.01526367 62.47773682 -19.63111328 62.92544434 -20.265625 63.38671875 C-21.17489746 64.05127075 -21.17489746 64.05127075 -22.10253906 64.72924805 C-28.56222814 69.05537796 -35.35207972 69.95599004 -43 69 C-49.23960377 67.35146832 -53.82322425 65.03670016 -58 60 C-59.0209375 58.88625 -59.0209375 58.88625 -60.0625 57.75 C-66.07854683 49.21109482 -67.77312352 40.29910968 -67 30 C-64.95986108 19.52928702 -59.49917254 11.53007123 -50.76953125 5.4453125 C-41.3363422 0.26802734 -28.90177417 0.46010181 -18.5859375 2.953125 C-15 4 -15 4 -12.3125 5.1875 C-9.33202361 6.23469441 -7.95802385 6.10925894 -5 5 C-4.154375 4.154375 -3.30875 3.30875 -2.4375 2.4375 C-1.633125 1.633125 -0.82875 0.82875 0 0 Z " fill="#175FA1" transform="translate(2685,1982)"/>
<path d="M0 0 C9.3813639 5.51175453 15.2841107 11.72152762 18.25390625 22.32421875 C19.28331094 33.72788369 17.7104986 42.78446442 11.12890625 52.1796875 C4.76575335 59.45754363 -3.26424759 63.30542464 -12.74609375 64.32421875 C-25.22481184 65.10734818 -35.87324783 64.27575702 -45.9609375 56.09375 C-53.23622438 48.88214178 -56.16927912 40.77580493 -56.24609375 30.69921875 C-56.25367247 21.38023609 -54.1494247 14.29835186 -47.84765625 7.1796875 C-35.73015537 -4.19543684 -15.14719643 -6.92929532 0 0 Z " fill="#1860A1" transform="translate(3422.74609375,1986.67578125)"/>
<path d="M0 0 C3.02491905 0.87114167 4.71862693 0.70053591 7.69921875 -0.22265625 C8.02921875 -0.55265625 8.35921875 -0.88265625 8.69921875 -1.22265625 C10.67921875 -1.22265625 12.65921875 -1.22265625 14.69921875 -1.22265625 C14.69921875 9.00734375 14.69921875 19.23734375 14.69921875 29.77734375 C13.04921875 29.77734375 11.39921875 29.77734375 9.69921875 29.77734375 C9.14234375 28.63136719 8.58546875 27.48539063 8.01171875 26.3046875 C3.365288 16.98824526 -0.57234891 9.84981596 -9.67578125 4.33984375 C-15.92269816 3.0012187 -21.27622057 2.74584452 -26.86328125 6.15234375 C-29.03411533 7.64615714 -30.11705645 8.40989416 -31.30078125 10.77734375 C-31.53706571 13.04752885 -31.53706571 13.04752885 -31.55078125 15.58984375 C-31.5765625 16.44191406 -31.60234375 17.29398438 -31.62890625 18.171875 C-31.20908209 21.50547878 -30.41466805 23.15217132 -28.30078125 25.77734375 C-25.9368133 27.11889556 -23.80113753 28.15493221 -21.30078125 29.15234375 C-20.60597656 29.44488037 -19.91117188 29.73741699 -19.1953125 30.03881836 C-15.26999691 31.6649585 -11.30515046 33.15093434 -7.30078125 34.5703125 C-6.46804687 34.86695801 -5.6353125 35.16360352 -4.77734375 35.46923828 C-3.1730952 36.03319237 -1.56387867 36.58328478 0.05078125 37.11669922 C8.03391963 39.8891938 14.98278291 44.27276382 18.8515625 52.0234375 C21.06315101 59.20855224 20.90534727 67.65292867 18.26171875 74.71484375 C13.87059272 82.81098236 6.31257949 87.95718307 -2.2421875 90.9296875 C-13.82188935 93.79695682 -27.97912134 93.42133025 -38.99609375 88.75 C-41.44709633 87.71559383 -43.66067934 87.10227937 -46.30078125 86.77734375 C-46.77515625 87.25171875 -47.24953125 87.72609375 -47.73828125 88.21484375 C-49.30078125 89.77734375 -49.30078125 89.77734375 -52.3984375 89.875 C-53.35621094 89.84277344 -54.31398438 89.81054688 -55.30078125 89.77734375 C-55.95842856 78.76175137 -56.46285671 67.8164832 -56.30078125 56.77734375 C-54.32078125 56.77734375 -52.34078125 56.77734375 -50.30078125 56.77734375 C-49.79289062 57.77894531 -49.285 58.78054688 -48.76171875 59.8125 C-43.12423926 70.77357733 -38.71221483 78.2542099 -27.30078125 83.77734375 C-26.64078125 84.10734375 -25.98078125 84.43734375 -25.30078125 84.77734375 C-18.68327069 85.35665444 -12.09243987 85.36135838 -6.30078125 81.77734375 C-2.91434001 78.30624148 -2.01242016 75.43846797 -1.73828125 70.71484375 C-1.90597454 67.10673332 -2.17600467 65.95671009 -4.30078125 62.90234375 C-12.07387991 57.39639887 -20.82015341 54.78728871 -29.8125 51.953125 C-39.57249744 48.71698318 -46.61898532 44.09029905 -51.875 35.078125 C-54.66488382 28.61935286 -54.54746781 20.70025079 -52.421875 14.01171875 C-48.36605157 6.14101189 -41.4879129 0.90771762 -33.30078125 -2.22265625 C-22.43799237 -5.10148723 -10.35346159 -4.01957921 0 0 Z " fill="#175FA1" transform="translate(3075.30078125,1959.22265625)"/>
<path d="M0 0 C0.01030746 0.60277267 0.02061493 1.20554535 0.03123474 1.82658386 C0.13948009 8.10462902 0.25406324 14.38253589 0.37231445 20.66040039 C0.4156055 23.00281885 0.45728469 25.34526768 0.49731445 27.68774414 C0.55515813 31.05624541 0.61881219 34.42459464 0.68359375 37.79296875 C0.70030624 38.83897751 0.71701874 39.88498627 0.73423767 40.96269226 C0.7641555 42.43365105 0.7641555 42.43365105 0.79467773 43.93432617 C0.81799416 45.22339119 0.81799416 45.22339119 0.84178162 46.53849792 C1.00637917 49.09924472 1.44174063 51.49798318 2 54 C6.46567248 55.48855749 11.48034013 56.14767116 15.88671875 54.140625 C17.73067161 52.90834657 19.42913664 51.57086336 21 50 C21.1383676 47.07805805 21.21317973 44.18146394 21.23828125 41.2578125 C21.246353 40.37850067 21.25442474 39.49918884 21.26274109 38.5932312 C21.27659768 36.7286782 21.28731276 34.86409967 21.29516602 32.99951172 C21.31238712 30.14371846 21.35625904 27.28908014 21.40039062 24.43359375 C21.41051633 22.62500854 21.41903282 20.81641346 21.42578125 19.0078125 C21.44328934 18.15148224 21.46079742 17.29515198 21.47883606 16.41287231 C21.57330494 11.75981259 21.57330494 11.75981259 19.17651367 7.97998047 C16.47515967 6.76368939 13.93372481 6.33337782 11 6 C11 4.35 11 2.7 11 1 C13.87477589 0.82837159 16.7497134 0.66266912 19.625 0.5 C20.41390625 0.45230469 21.2028125 0.40460938 22.015625 0.35546875 C29.34507602 -0.05172297 36.66084248 -0.04782075 44 0 C44.00546844 1.00478142 44.00546844 1.00478142 44.01104736 2.02986145 C44.05279207 8.98909452 44.12208106 15.94766312 44.20751953 22.90649414 C44.23578069 25.50505942 44.25696945 28.10371148 44.27099609 30.70239258 C44.29235366 34.43355919 44.33896946 38.16367655 44.390625 41.89453125 C44.39185364 43.06023148 44.39308228 44.2259317 44.39434814 45.42695618 C44.41406677 46.50785019 44.4337854 47.5887442 44.45410156 48.70239258 C44.46298401 49.65503494 44.47186646 50.60767731 44.48101807 51.58918762 C44.79408998 54.13598626 44.79408998 54.13598626 46.86224365 55.78813171 C49.24655126 57.13976694 51.29755999 57.62466111 54 58 C54 59.65 54 61.3 54 63 C43.37719894 64.39315424 32.68873373 64.09675083 22 64 C21.505 60.535 21.505 60.535 21 57 C20.5153125 57.39832031 20.030625 57.79664063 19.53125 58.20703125 C10.76675146 65.13435606 3.29604802 67.29674021 -8 66 C-12.90619743 64.41570708 -16.25379767 61.31546081 -19 57 C-21.6605581 50.96813883 -22.46148165 46.02293025 -22.51171875 39.46875 C-22.52966995 38.59222778 -22.54762115 37.71570557 -22.56611633 36.81262207 C-22.61984509 34.04179547 -22.65399373 31.27113735 -22.6875 28.5 C-22.72070621 26.60935174 -22.75519888 24.71872561 -22.79101562 22.828125 C-22.87554955 18.21887235 -22.94253791 13.6096664 -23 9 C-25.97 8.01 -28.94 7.02 -32 6 C-32 4.35 -32 2.7 -32 1 C-29.29191567 0.82805814 -26.58365937 0.66243176 -23.875 0.5 C-22.76318359 0.42845703 -22.76318359 0.42845703 -21.62890625 0.35546875 C-14.41904808 -0.06864055 -7.22036765 -0.04674218 0 0 Z " fill="#1A61A2" transform="translate(2732,1985)"/>
<path d="M0 0 C0.97086548 0.00225586 1.94173096 0.00451172 2.9420166 0.00683594 C5.31943364 0.01268624 7.69681784 0.02088322 10.07421875 0.03125 C10.08008499 0.6045253 10.08595123 1.1778006 10.09199524 1.76844788 C10.1561124 7.75504961 10.24057876 13.74112285 10.33666992 19.72729492 C10.36984843 21.95899471 10.39790223 24.19077698 10.4206543 26.42260742 C10.45433001 29.63756334 10.5066536 32.8517682 10.5625 36.06640625 C10.56888992 37.05834488 10.57527985 38.05028351 10.5818634 39.07228088 C10.70217468 44.78842826 11.28601933 48.99539863 14.07421875 54.03125 C17.54117913 55.76473019 21.28370812 55.50824379 25.07421875 55.03125 C29.34825732 52.80686281 29.34825732 52.80686281 32.07421875 49.03125 C32.20979932 46.23398901 32.28692346 43.46283669 32.3125 40.6640625 C32.32057175 39.83292938 32.32864349 39.00179626 32.33695984 38.14547729 C32.35079946 36.38525478 32.36152217 34.62500545 32.36938477 32.86474609 C32.38660748 30.1736367 32.43049412 27.48375281 32.47460938 24.79296875 C32.48473552 23.08334237 32.49325187 21.37370555 32.5 19.6640625 C32.51750809 18.85977814 32.53501617 18.05549377 32.55305481 17.22683716 C32.53910323 13.63097974 32.40419822 11.48232651 30.25073242 8.53857422 C27.54909747 6.66758216 25.31694919 6.32604368 22.07421875 6.03125 C22.07421875 4.38125 22.07421875 2.73125 22.07421875 1.03125 C24.40719785 0.85751751 26.74035656 0.69235616 29.07421875 0.53125 C30.37359375 0.4384375 31.67296875 0.345625 33.01171875 0.25 C40.02287865 -0.14086606 47.05502271 -0.0075063 54.07421875 0.03125 C54.08967995 0.99511627 54.08967995 0.99511627 54.10545349 1.97845459 C54.21357043 8.66184559 54.3281644 15.34510319 54.4465332 22.02832031 C54.48986535 24.52308361 54.53154166 27.01787623 54.5715332 29.51269531 C54.62927711 33.09709516 54.6929601 36.6813476 54.7578125 40.265625 C54.77452499 41.38241638 54.79123749 42.49920776 54.80845642 43.64984131 C54.83837425 45.21100677 54.83837425 45.21100677 54.86889648 46.80371094 C54.89221291 48.17604889 54.89221291 48.17604889 54.91600037 49.57611084 C55.01896283 52.31921583 55.01896283 52.31921583 56.07421875 56.03125 C59.04421875 56.69125 62.01421875 57.35125 65.07421875 58.03125 C65.07421875 59.68125 65.07421875 61.33125 65.07421875 63.03125 C54.45141769 64.42440424 43.76295248 64.12800083 33.07421875 64.03125 C32.57921875 60.56625 32.57921875 60.56625 32.07421875 57.03125 C31.11322266 57.75441406 31.11322266 57.75441406 30.1328125 58.4921875 C21.24974483 64.97907745 14.0794526 66.98288807 3.07421875 66.03125 C-2.35564472 64.32184854 -5.78361631 60.6687826 -8.92578125 56.03125 C-11.33879891 51.37499702 -11.22133149 47.01658841 -11.234375 41.8984375 C-11.25951766 40.10546526 -11.28491591 38.31249658 -11.31054688 36.51953125 C-11.33936782 33.70394688 -11.36339952 30.88842407 -11.38208008 28.07275391 C-11.40367757 25.34767217 -11.44309044 22.62328149 -11.484375 19.8984375 C-11.48449081 19.05465546 -11.48460663 18.21087341 -11.48472595 17.34152222 C-11.42198745 13.07236642 -11.42198745 13.07236642 -13.22035217 9.35964966 C-15.83481678 7.3231804 -18.74810621 6.81067973 -21.92578125 6.03125 C-21.92578125 4.38125 -21.92578125 2.73125 -21.92578125 1.03125 C-14.61364899 0.07228183 -7.36105485 -0.03265022 0 0 Z " fill="#165FA1" transform="translate(3122.92578125,1984.96875)"/>
<path d="M0 0 C1.32402832 -0.02235718 1.32402832 -0.02235718 2.67480469 -0.04516602 C11.2971009 0.09091617 18.54207639 2.95876578 24.8671875 8.88671875 C31.28404039 16.0184024 30.375 21.32827169 30.375 31.5625 C16.185 31.5625 1.995 31.5625 -12.625 31.5625 C-10.86282635 45.49221741 -10.86282635 45.49221741 -2.5 55 C2.71986645 57.83688394 7.74700107 58.46949973 13.5 57.03125 C19.68221316 54.87684238 23.86067778 51.24401934 28.375 46.5625 C29.695 47.5525 31.015 48.5425 32.375 49.5625 C28.96862397 57.61393425 22.96887698 61.77144824 15.375 65.5625 C5.47748052 69.31673153 -7.46921844 69.0506444 -17.16015625 64.8828125 C-26.24710946 60.01531617 -31.02280821 54.25253209 -34.7265625 44.73046875 C-37.33348551 35.53823151 -36.40826125 25.85003673 -32.29296875 17.28515625 C-27.93232478 10.16719641 -21.89141353 4.54635566 -14.1171875 1.375 C-9.39309219 0.27588163 -4.83931182 0.06118767 0 0 Z " fill="#175FA1" transform="translate(2827.625,1983.4375)"/>
<path d="M0 0 C1.32402832 -0.02235718 1.32402832 -0.02235718 2.67480469 -0.04516602 C11.2971009 0.09091617 18.54207639 2.95876578 24.8671875 8.88671875 C31.28404039 16.0184024 30.375 21.32827169 30.375 31.5625 C16.185 31.5625 1.995 31.5625 -12.625 31.5625 C-10.86282635 45.49221741 -10.86282635 45.49221741 -2.5 55 C2.71986645 57.83688394 7.74700107 58.46949973 13.5 57.03125 C19.68221316 54.87684238 23.86067778 51.24401934 28.375 46.5625 C29.695 47.5525 31.015 48.5425 32.375 49.5625 C28.96862397 57.61393425 22.96887698 61.77144824 15.375 65.5625 C5.47748052 69.31673153 -7.46921844 69.0506444 -17.16015625 64.8828125 C-26.24710946 60.01531617 -31.02280821 54.25253209 -34.7265625 44.73046875 C-37.33348551 35.53823151 -36.40826125 25.85003673 -32.29296875 17.28515625 C-27.93232478 10.16719641 -21.89141353 4.54635566 -14.1171875 1.375 C-9.39309219 0.27588163 -4.83931182 0.06118767 0 0 Z " fill="#175FA1" transform="translate(2578.625,1983.4375)"/>
<path d="M0 0 C0.8350708 0.00837891 1.6701416 0.01675781 2.53051758 0.02539062 C8.4548245 0.1407056 13.94013325 0.80499397 19.6875 2.3125 C20.0175 1.6525 20.3475 0.9925 20.6875 0.3125 C22.6675 0.3125 24.6475 0.3125 26.6875 0.3125 C26.6875 7.2425 26.6875 14.1725 26.6875 21.3125 C25.0375 21.3125 23.3875 21.3125 21.6875 21.3125 C21.38457031 20.70921875 21.08164063 20.1059375 20.76953125 19.484375 C17.67240275 13.57600678 15.10547131 9.79857448 8.8125 7.0625 C4.45610779 6.01696587 0.5732436 5.61775236 -3.6875 7.1875 C-5.47159903 8.23000421 -5.47159903 8.23000421 -6.3125 10.3125 C-6.67679317 13.66399719 -6.86467922 15.56072038 -4.83203125 18.328125 C-1.38553458 21.04257509 2.14242548 21.96891061 6.3125 23.1875 C14.67719388 25.81434559 21.86764262 28.67454059 28.3125 34.8125 C30.79065822 41.12053909 31.08759903 48.42796992 28.76953125 54.859375 C24.9099243 61.50439409 19.0557468 64.79362286 11.78125 66.765625 C-0.27810734 68.89732958 -10.30760375 67.671406 -21.3125 62.3125 C-21.6425 63.6325 -21.9725 64.9525 -22.3125 66.3125 C-24.2925 66.3125 -26.2725 66.3125 -28.3125 66.3125 C-28.3125 58.3925 -28.3125 50.4725 -28.3125 42.3125 C-26.6625 42.3125 -25.0125 42.3125 -23.3125 42.3125 C-23.07015625 42.83199219 -22.8278125 43.35148437 -22.578125 43.88671875 C-18.55832998 52.25098454 -14.03430235 57.58704443 -5.3125 61.3125 C-0.21689841 62.14963455 4.21404153 62.07146117 8.6875 59.3125 C10.24524936 56.19700128 10.25230622 52.7080612 9.6875 49.3125 C7.52587091 46.67661439 5.55632263 45.70698831 2.3359375 44.69921875 C1.48837891 44.42408447 0.64082031 44.1489502 -0.23242188 43.86547852 C-1.12509766 43.57987061 -2.01777344 43.2942627 -2.9375 43 C-20.38587338 37.11195016 -20.38587338 37.11195016 -24.875 29.625 C-26.94453201 24.65621577 -27.10638327 19.59425397 -26.3125 14.3125 C-23.22202607 7.89382339 -17.88695291 3.62501602 -11.33959961 0.92114258 C-7.59796962 -0.20229275 -3.87601165 -0.0835464 0 0 Z " fill="#1960A2" transform="translate(2895.3125,1983.6875)"/>
<path d="M0 0 C6.93 0 13.86 0 21 0 C21 6.6 21 13.2 21 20 C26.94 20 32.88 20 39 20 C39 22.31 39 24.62 39 27 C33.06 27 27.12 27 21 27 C21.06893036 32.89030857 21.15692397 38.77991092 21.26245117 44.66967773 C21.29566727 46.67252764 21.32370952 48.6754704 21.34643555 50.6784668 C21.38004234 53.56078594 21.43236148 56.44225668 21.48828125 59.32421875 C21.49467117 60.21711105 21.5010611 61.11000336 21.50764465 62.029953 C21.61882865 66.75101632 21.7690017 70.26498101 25 74 C28.40934596 74.82304013 28.40934596 74.82304013 32.1875 74.8125 C33.45980469 74.86019531 34.73210938 74.90789062 36.04296875 74.95703125 C37.50669922 74.97830078 37.50669922 74.97830078 39 75 C39 76.65 39 78.3 39 80 C30.16439409 84.22145616 20.43938811 87.27761633 10.65234375 84.28125 C5.42738793 81.85921441 2.21448105 78.83124875 -0.08935547 73.46044922 C-1.28642966 68.9115673 -1.24844475 64.68972262 -1.1953125 60.0078125 C-1.1924826 59.06187225 -1.18965271 58.11593201 -1.18673706 57.1413269 C-1.17558932 54.13575306 -1.15049465 51.13048298 -1.125 48.125 C-1.11496321 46.08073349 -1.10583859 44.03646228 -1.09765625 41.9921875 C-1.07566767 36.99467556 -1.04117509 31.9973892 -1 27 C-4.63 27 -8.26 27 -12 27 C-12 24.69 -12 22.38 -12 20 C-8.04 20 -4.08 20 0 20 C0 13.4 0 6.8 0 0 Z " fill="#1B62A3" transform="translate(3526,1966)"/>
<path d="M0 0 C6.93 0 13.86 0 21 0 C21 6.6 21 13.2 21 20 C26.94 20 32.88 20 39 20 C39 22.31 39 24.62 39 27 C33.06 27 27.12 27 21 27 C21.06893036 32.89030857 21.15692397 38.77991092 21.26245117 44.66967773 C21.29566727 46.67252764 21.32370952 48.6754704 21.34643555 50.6784668 C21.38004234 53.56078594 21.43236148 56.44225668 21.48828125 59.32421875 C21.49467117 60.21711105 21.5010611 61.11000336 21.50764465 62.029953 C21.61882865 66.75101632 21.7690017 70.26498101 25 74 C28.40934596 74.82304013 28.40934596 74.82304013 32.1875 74.8125 C33.45980469 74.86019531 34.73210938 74.90789062 36.04296875 74.95703125 C37.50669922 74.97830078 37.50669922 74.97830078 39 75 C39 76.65 39 78.3 39 80 C30.16439409 84.22145616 20.43938811 87.27761633 10.65234375 84.28125 C5.42738793 81.85921441 2.21448105 78.83124875 -0.08935547 73.46044922 C-1.28642966 68.9115673 -1.24844475 64.68972262 -1.1953125 60.0078125 C-1.1924826 59.06187225 -1.18965271 58.11593201 -1.18673706 57.1413269 C-1.17558932 54.13575306 -1.15049465 51.13048298 -1.125 48.125 C-1.11496321 46.08073349 -1.10583859 44.03646228 -1.09765625 41.9921875 C-1.07566767 36.99467556 -1.04117509 31.9973892 -1 27 C-4.63 27 -8.26 27 -12 27 C-12 24.69 -12 22.38 -12 20 C-8.04 20 -4.08 20 0 20 C0 13.4 0 6.8 0 0 Z " fill="#1B62A3" transform="translate(2942,1966)"/>
<path d="M0 0 C3.1025883 2.14226335 4.2715856 3.27858463 5.625 6.8125 C6.18061193 11.49661725 6.21796196 15.45715837 4.3125 19.8125 C2.23304147 22.27704344 0.56063483 23.67611933 -2.6796875 24.1484375 C-9.65320069 24.25441794 -9.65320069 24.25441794 -13.4375 21.9375 C-17.06891711 17.95465542 -16.45899181 15.01999195 -16.375 9.8125 C-17.468125 10.245625 -18.56125 10.67875 -19.6875 11.125 C-20.30238281 11.36863281 -20.91726562 11.61226562 -21.55078125 11.86328125 C-23.63973947 12.95025523 -24.85962307 14.00921507 -26.375 15.8125 C-26.66120281 18.71919453 -26.77146792 21.40702399 -26.73828125 24.3125 C-26.73877975 25.14458984 -26.73927826 25.97667969 -26.73979187 26.83398438 C-26.73745236 28.59247222 -26.72773102 30.35096347 -26.71118164 32.109375 C-26.68758859 34.80238765 -26.69062149 37.49441027 -26.69726562 40.1875 C-26.69168877 41.89583924 -26.68457885 43.60417431 -26.67578125 45.3125 C-26.67669266 46.11880859 -26.67760406 46.92511719 -26.67854309 47.75585938 C-26.62947945 51.62081979 -26.56764189 53.52353717 -24.375 56.8125 C-22.18994871 57.60687923 -22.18994871 57.60687923 -19.75 58 C-18.93273438 58.15855469 -18.11546875 58.31710937 -17.2734375 58.48046875 C-16.64695312 58.59003906 -16.02046875 58.69960937 -15.375 58.8125 C-15.375 60.4625 -15.375 62.1125 -15.375 63.8125 C-29.565 63.8125 -43.755 63.8125 -58.375 63.8125 C-58.375 62.1625 -58.375 60.5125 -58.375 58.8125 C-55.405 57.8225 -52.435 56.8325 -49.375 55.8125 C-49.22669361 49.47715526 -49.11780164 43.14282016 -49.04541016 36.80615234 C-49.01523447 34.65069989 -48.97428798 32.49537024 -48.92236328 30.34033203 C-48.8495837 27.24220507 -48.81555168 24.14570068 -48.7890625 21.046875 C-48.75809479 20.08320007 -48.72712708 19.11952515 -48.69522095 18.12664795 C-48.69392548 15.55212323 -48.75108553 13.31062597 -49.375 10.8125 C-52.34547127 8.12558528 -54.61200789 7.0668307 -58.375 5.8125 C-58.375 4.1625 -58.375 2.5125 -58.375 0.8125 C-51.30611222 -0.03964779 -44.3661168 -0.31496455 -37.25 -0.25 C-35.81527344 -0.24323242 -35.81527344 -0.24323242 -34.3515625 -0.23632812 C-32.02601378 -0.22470038 -29.70049793 -0.20677208 -27.375 -0.1875 C-27.045 2.7825 -26.715 5.7525 -26.375 8.8125 C-25.78332031 8.25820312 -25.19164063 7.70390625 -24.58203125 7.1328125 C-23.79183594 6.40835937 -23.00164063 5.68390625 -22.1875 4.9375 C-21.41019531 4.21820312 -20.63289063 3.49890625 -19.83203125 2.7578125 C-13.80992264 -2.01008907 -7.12059435 -2.50539431 0 0 Z " fill="#175FA1" transform="translate(3507.375,1985.1875)"/>
<path d="M0 0 C25.65927978 0 25.65927978 0 31 4 C36.70586813 9.88343664 38.36021766 14.97149289 38.28515625 23.078125 C37.66803684 29.40148554 34.61314943 35.63621 30 40 C19.65751873 45.63961548 12.78313329 45 0 45 C0 30.15 0 15.3 0 0 Z " fill="#124A7E" transform="translate(2945,1274)"/>
<path d="M0 0 C24.09708738 0 24.09708738 0 30 4 C32.5 6.5 32.5 6.5 34 9 C34.35320312 9.57363281 34.70640625 10.14726563 35.0703125 10.73828125 C37.68376145 17.09620959 36.91651422 25.80021479 34.3125 32.0625 C31.18158163 38.00463029 26.56647572 42.46505018 20.140625 44.625 C13.13981983 46.46462764 7.63760866 46 0 46 C0 30.82 0 15.64 0 0 Z " fill="#134B7E" transform="translate(1836,1276)"/>
<path d="M0 0 C3.91613768 0.07692413 6.20161948 0.62500567 9.25 3.25 C14.82276569 10.874899 14.45917322 18.8076116 14.5 27.9375 C14.520625 29.07123047 14.54125 30.20496094 14.5625 31.37304688 C14.59710653 38.87833721 14.56455435 47.14101519 9.63549805 53.25146484 C6.75120296 56.11466268 4.71462957 57.16033464 0.6875 57.9375 C-3.6275684 57.07448632 -6.10227271 55.68365211 -8.75 52.25 C-15.7170679 41.163087 -14.01558097 24.05159201 -11.5625 11.6875 C-10.24607193 6.86899534 -8.76640146 4.2094537 -4.75 1.25 C-3.75 0.25 -3.75 0.25 0 0 Z " fill="#FCFDFD" transform="translate(3402.75,1988.75)"/>
<path d="M0 0 C3.26866875 2.68757208 5.49653384 4.91446418 6.06967163 9.26431274 C6.15938267 11.62624388 6.14970062 13.96881252 6.10546875 16.33203125 C6.10122391 17.19060226 6.09697906 18.04917328 6.09260559 18.9337616 C6.07586995 21.66449914 6.03822766 24.39448712 6 27.125 C5.98494653 28.9811091 5.97125928 30.83722982 5.95898438 32.69335938 C5.92598323 37.23335985 5.87423659 41.77280302 5.8125 46.3125 C-0.16620908 49.83580076 -4.11982136 51.64206331 -11.1875 50.3125 C-15.10430551 48.46062124 -16.99175989 45.68373124 -19 41.875 C-22.72395404 30.70313787 -22.24670603 18.33034493 -18.1875 7.3125 C-16.39849183 3.90145775 -14.38201221 1.19875099 -11.25 -1.125 C-6.81668103 -2.33408699 -4.09580197 -2.16836575 0 0 Z " fill="#F9FAFC" transform="translate(2662.1875,1990.6875)"/>
<path d="M0 0 C3.84226404 2.05421221 6.24863243 4.66803022 8.375 8.4375 C11.00560613 19.22298512 12.11535467 32.8059584 7.21484375 43.04296875 C5.05983662 46.51453972 2.71168915 49.14415543 -1 51 C-4.22082643 51.37163382 -6.82341431 51.66699869 -9.72265625 50.0234375 C-12.66103919 47.66984331 -14.72662557 45.51877377 -16 42 C-16.22800133 39.1135577 -16.35168593 36.32552892 -16.37109375 33.4375 C-16.38012222 32.60919678 -16.3891507 31.78089355 -16.39845276 30.92749023 C-16.41293577 29.1792359 -16.42183715 27.4309276 -16.42553711 25.68261719 C-16.43746057 23.00884099 -16.48668384 20.33735371 -16.53710938 17.6640625 C-16.54657111 15.96355291 -16.55380734 14.26302918 -16.55859375 12.5625 C-16.57812607 11.76448975 -16.59765839 10.96647949 -16.61778259 10.14428711 C-16.58570375 6.19850928 -16.39348401 4.41476985 -13.63061523 1.50244141 C-9.15525344 -1.05360282 -4.9909847 -0.94964373 0 0 Z " fill="#FAFCFD" transform="translate(3238,1994)"/>
<path d="M0 0 C3.96301484 2.22919585 6.01822761 4.93736659 8 9 C9.25138297 14.22304579 9.25879697 19.34225886 9.3125 24.6875 C9.34150391 25.63044922 9.37050781 26.57339844 9.40039062 27.54492188 C9.46582699 34.86876103 8.26635825 41.79878339 3.65820312 47.72583008 C1.02001344 50.23570144 -0.97370819 50.99630992 -4.5625 51.5 C-9.17842699 50.82859244 -11.7229446 49.63134153 -14.61132812 45.94165039 C-16.50068995 41.93937884 -16.46766842 38.49606791 -16.46875 34.12109375 C-16.47636353 33.27200943 -16.48397705 32.42292511 -16.49182129 31.54811096 C-16.50259656 29.7587477 -16.50548587 27.96932167 -16.50097656 26.17993164 C-16.50000177 23.44246065 -16.54170007 20.70777148 -16.5859375 17.97070312 C-16.59114306 16.2291725 -16.59383272 14.48763215 -16.59375 12.74609375 C-16.61014526 11.92934677 -16.62654053 11.11259979 -16.64343262 10.27110291 C-16.59316687 6.14215813 -16.56022669 4.5948364 -13.6328125 1.48657227 C-9.18744362 -1.02342877 -4.95448464 -0.73869575 0 0 Z " fill="#FDFDFE" transform="translate(3325,1994)"/>
<path d="M0 0 C14.784 0 14.784 0 19.5703125 4.46484375 C25.05226777 10.87090005 24.62684967 16.83304432 24 25 C22.98904659 28.99509298 21.5561665 31.81814526 18.24609375 34.33203125 C16.375 35.4375 16.375 35.4375 13 37 C12.01 37.495 12.01 37.495 11 38 C7.37 38 3.74 38 0 38 C0 25.46 0 12.92 0 0 Z " fill="#FDFDFE" transform="translate(2475,1964)"/>
<path d="M0 0 C4.54140895 3.33036656 5.99751774 6.53191494 7 12 C7 14.97 7 17.94 7 21 C0.07 21 -6.86 21 -14 21 C-14 12.89459535 -13.74550954 7.92215649 -9.25 1.5 C-5.95101015 -0.69932657 -3.87894656 -0.61246525 0 0 Z " fill="#F1F5F9" transform="translate(2829,1989)"/>
<path d="M0 0 C4.54140895 3.33036656 5.99751774 6.53191494 7 12 C7 14.97 7 17.94 7 21 C0.07 21 -6.86 21 -14 21 C-14 12.89459535 -13.74550954 7.92215649 -9.25 1.5 C-5.95101015 -0.69932657 -3.87894656 -0.61246525 0 0 Z " fill="#F1F5F9" transform="translate(2580,1989)"/>
<path d="M0 0 C0 0.99 0 1.98 0 3 C-1.38782485 3.8466034 -2.78569397 4.67675339 -4.1875 5.5 C-4.96480469 5.9640625 -5.74210937 6.428125 -6.54296875 6.90625 C-9.24103386 8.10729647 -11.0806982 8.20741043 -14 8 C-14.33 7.01 -14.66 6.02 -15 5 C-14.34 5 -13.68 5 -13 5 C-13 4.34 -13 3.68 -13 3 C-8.70614007 -0.4887612 -5.28129105 -0.26854022 0 0 Z " fill="#215789" transform="translate(475,1686)"/>
<path d="M0 0 C0 1.65 0 3.3 0 5 C-2.64 5.33 -5.28 5.66 -8 6 C-8.66 5.01 -9.32 4.02 -10 3 C-6.68152292 -0.06320961 -4.44849969 -0.3033068 0 0 Z " fill="#215889" transform="translate(480,1678)"/>
<path d="M0 0 C2.5654594 2.5654594 2.54046087 4.47686668 3 8 C2.34 8 1.68 8 1 8 C0.67 8.66 0.34 9.32 0 10 C0 6.7 0 3.4 0 0 Z " fill="#275680" transform="translate(3124,1289)"/>
<path d="M0 0 C0.33 0 0.66 0 1 0 C1 2.97 1 5.94 1 9 C0.01 8.67 -0.98 8.34 -2 8 C-1.125 1.125 -1.125 1.125 0 0 Z " fill="#27557F" transform="translate(3256,1289)"/>
</svg>
