<?xml version="1.0" encoding="UTF-8"?>
<svg version="1.1" xmlns="http://www.w3.org/2000/svg" width="6000" height="3375">
<path d="M0 0 C1980 0 3960 0 6000 0 C6000 1113.75 6000 2227.5 6000 3375 C4020 3375 2040 3375 0 3375 C0 2261.25 0 1147.5 0 0 Z " fill="#164670" transform="translate(0,0)"/>
<path d="M0 0 C1316.7 0 2633.4 0 3990 0 C3990 477.51 3990 955.02 3990 1447 C2673.3 1447 1356.6 1447 0 1447 C0 969.49 0 491.98 0 0 Z " fill="#145C9F" transform="translate(1005,964)"/>
<path d="M0 0 C0.83824059 0.00002625 1.67648118 0.00005251 2.54012301 0.00007956 C3.50632121 -0.00231672 4.47251941 -0.00471301 5.46799635 -0.00718191 C7.08400619 -0.00349147 7.08400619 -0.00349147 8.73266269 0.00027352 C10.44138268 -0.00172036 10.44138268 -0.00172036 12.18462226 -0.00375452 C15.38225535 -0.0064546 18.57985062 -0.00461026 21.77748164 -0.00095154 C25.26025143 0.00193829 28.74301704 -0.00095442 32.22578669 -0.0031268 C38.37418196 -0.00614985 44.52256817 -0.0054054 50.67096326 -0.00229056 C59.90221576 0.00236501 69.1334614 0.00126014 78.36471449 -0.0009896 C94.16498883 -0.00467025 109.9652597 -0.00356221 125.76553391 0.0000615 C141.87850091 0.00373647 157.99146593 0.00522067 174.10443333 0.00404579 C175.63347745 0.00393631 175.63347745 0.00393631 177.19341136 0.00382462 C182.39760841 0.00344215 187.60180546 0.00302453 192.80600251 0.00259493 C230.88180861 -0.00047274 268.95761326 0.00140417 307.03341917 0.00573921 C345.64568398 0.01011912 384.25794801 0.01232168 422.87021307 0.011837 C424.69437121 0.01181557 424.69437121 0.01181557 426.55538102 0.0117937 C437.69960643 0.01166195 448.84383183 0.01150584 459.98805724 0.0113207 C487.93775801 0.0108575 515.88745878 0.01072509 543.83715955 0.01081192 C545.75864963 0.01081754 545.75864963 0.01081754 547.7189577 0.01082328 C610.92317282 0.01103764 674.12738765 0.01500733 737.33160261 0.01921463 C759.59085047 0.02069377 781.85009833 0.0221551 804.10934619 0.02355075 C805.49299427 0.02363751 806.87664234 0.02372428 808.30221915 0.02381368 C872.36051467 0.02780887 936.41881016 0.02924226 1000.47710579 0.03001672 C1004.66502761 0.03006748 1008.85294943 0.03011944 1013.04087125 0.03017172 C1038.29360843 0.03048581 1063.54634561 0.03077318 1088.79908279 0.03102969 C1151.58132223 0.03166859 1214.36356167 0.03262809 1277.14580111 0.03380489 C1278.57517388 0.03383152 1280.00454666 0.03385816 1281.47723377 0.0338856 C1374.07696453 0.03561359 1466.67669519 0.0386616 1559.27642588 0.0428133 C1561.49456978 0.04291273 1561.49456978 0.04291273 1563.75752467 0.04301417 C1608.77350903 0.04503492 1653.78949338 0.04715328 1698.80547774 0.04929074 C1748.62151775 0.05165569 1798.43755776 0.05400398 1848.25359777 0.05628013 C1849.75155736 0.05634863 1851.24951694 0.05641713 1852.79286924 0.05648771 C1995.03061876 0.06298654 2137.26836832 0.06679827 2279.50611796 0.06991392 C2285.52984465 0.07004606 2291.55357134 0.07017898 2297.57729804 0.07031194 C2353.00838838 0.07153533 2408.43947872 0.07272716 2463.87056906 0.07387936 C2465.34451506 0.07391 2466.81846105 0.07394064 2468.33707208 0.0739722 C2472.79978387 0.07406497 2477.26249566 0.07415772 2481.72520745 0.07425047 C2602.29172994 0.0767564 2722.85825243 0.07953761 2843.42477491 0.0824971 C2847.67885095 0.08260146 2851.93292698 0.0827056 2856.18700302 0.08280968 C2994.4345787 0.08619286 3132.68215436 0.09006355 3376.81911156 0.09914748 C3380.58435691 0.09929238 3384.34960226 0.09943702 3388.11484762 0.09958155 C3389.96359156 0.09965254 3389.96359156 0.09965254 3391.84968386 0.09972496 C3394.09283741 0.09981109 3396.33599095 0.09989718 3398.57914449 0.09998322 C3595.42241118 0.10754441 3792.26567781 0.11641794 3989.10894445 0.12494468 C3989.10894445 317.91494468 3989.10894445 635.70494468 3989.10894445 963.12494468 C2671.74894445 963.12494468 1354.38894445 963.12494468 -2.89105555 963.12494468 C-2.89105555 0.19101608 -2.89105555 0.19101608 0 0 Z " fill="#1E5485" transform="translate(1006.8910555454349,2411.875055315424)"/>
<path d="M0 0 C635 0 635 0 831 1 C835.62 0.67 840.24 0.34 845 0 C848.35595275 -0.00377162 851.66390849 0.02891757 855.01171875 0.15625 C855.87263626 0.18223267 856.73355377 0.20821533 857.62055969 0.23498535 C860.3098041 0.31662086 862.99861471 0.40733837 865.6875 0.5 C868.41566506 0.59200663 871.14381921 0.68184551 873.87226868 0.76501465 C875.55520881 0.81643469 877.23800361 0.87293197 878.920578 0.93518066 C882.24198571 1.03773138 884.82027178 1.05990941 888 0 C890.8878457 0.09079434 893.74443625 0.23964655 896.625 0.4375 C903.25352793 0.83934494 909.85866204 1.11412682 916.5 1.125 C917.56661865 1.13164673 917.56661865 1.13164673 918.65478516 1.13842773 C921.71555224 1.12984056 924.0725044 0.97583187 927 0 C929.00664306 -0.0940365 931.01630177 -0.12793376 933.02514648 -0.12939453 C934.26751572 -0.13254669 935.50988495 -0.13569885 936.78990173 -0.13894653 C938.15029943 -0.13715487 939.5106968 -0.13510345 940.87109375 -0.1328125 C942.27295448 -0.13348675 943.67481509 -0.13445779 945.07667542 -0.13571167 C948.02142444 -0.13718729 950.96614317 -0.13504136 953.91088867 -0.13037109 C957.65267369 -0.12472114 961.39438622 -0.12792329 965.13616848 -0.13394356 C968.03699773 -0.13759347 970.93781041 -0.13638966 973.83864021 -0.13381577 C975.21589225 -0.1331562 976.59314586 -0.1339403 977.97039604 -0.13629532 C979.91703124 -0.13888982 981.8636718 -0.13422329 983.81030273 -0.12939453 C984.91155991 -0.12859894 986.01281708 -0.12780334 987.14744568 -0.12698364 C992.44209148 0.04753263 997.72077779 0.56006482 1003 1 C1003 478.51 1003 956.02 1003 1448 C766.06 1448.33 529.12 1448.66 285 1449 C190.95 1449.33 96.9 1449.66 0 1450 C0 971.5 0 493 0 0 Z " fill="#184A77" transform="translate(0,963)"/>
<path d="M0 0 C1.2501847 0.00015598 2.50036941 0.00031196 3.7884385 0.00047267 C4.8340217 -0.00144447 4.8340217 -0.00144447 5.90072779 -0.00340034 C8.2708541 -0.00649871 10.64091561 -0.0023784 13.01103985 0.00162334 C14.72167141 0.0008847 16.43230282 -0.0002928 18.14293381 -0.00187286 C22.88646601 -0.00496203 27.62997703 -0.00175062 32.37350767 0.00240542 C37.50603214 0.00581683 42.63855429 0.00346981 47.77107918 0.00182265 C56.79024289 -0.00026269 65.80940002 0.00140482 74.82856297 0.00545603 C88.41415588 0.01153846 101.99974478 0.01182758 115.58533881 0.01099074 C138.34839514 0.00974634 161.11144799 0.01304284 183.87450325 0.0190956 C214.6533176 0.02726243 245.43212802 0.02919759 276.21094429 0.03006667 C350.24125901 0.03532407 424.27157289 0.04928508 498.30188667 0.06217116 C746.26594917 0.09310866 746.26594917 0.09310866 999.23938667 0.12467116 C999.23938667 478.29467116 999.23938667 956.46467116 999.23938667 1449.12467116 C945.48596268 1449.12467116 891.73282887 1449.12442586 837.97948372 1449.06120986 C835.99081694 1449.05893005 834.00215014 1449.05665876 832.01348334 1449.05439496 C828.89969588 1449.05084922 825.78590842 1449.04729854 822.67212099 1449.04372163 C811.66807771 1449.03108595 800.66403375 1449.01909153 789.65998976 1449.00709199 C769.37290463 1448.98495354 749.08582004 1448.96235739 728.79873573 1448.93947524 C708.79011478 1448.91690876 688.78149359 1448.89456117 668.77287209 1448.87248916 C666.88791528 1448.87040964 666.88791528 1448.87040964 664.96487854 1448.86828811 C658.57982183 1448.86124508 652.19476511 1448.85420581 645.80970838 1448.84716797 C600.89906033 1448.79765918 555.9884128 1448.74768497 511.07776558 1448.69742507 C500.2575955 1448.68531634 489.43742542 1448.67320928 478.61725533 1448.66110915 C477.94592424 1448.66035841 477.27459316 1448.65960766 476.58291871 1448.65883416 C445.20583948 1448.62374761 413.82875996 1448.58893124 382.45168036 1448.55418185 C380.40746532 1448.55191792 378.36325028 1448.54965388 376.31903524 1448.54738982 C362.76866293 1448.53238233 349.21829062 1448.51737944 335.6679183 1448.50237962 C308.07848016 1448.47183897 280.48904205 1448.44126919 252.89960396 1448.41068191 C251.63183423 1448.40927642 250.36406449 1448.40787093 249.0578775 1448.40642285 C164.78504668 1448.31299206 80.51221662 1448.21888656 -3.76061333 1448.12467116 C-3.76611123 1403.85326819 -3.77138321 1359.5818652 -3.77648247 1315.31046218 C-3.77658226 1314.44419681 -3.77668206 1313.57793145 -3.77678488 1312.68541562 C-3.78746879 1219.893434 -3.79669279 1127.10145238 -3.80295647 1034.30947036 C-3.80309592 1032.24911464 -3.80323537 1030.18875891 -3.80337482 1028.12840319 C-3.80629729 984.88426485 -3.80901403 941.6401265 -3.811493 898.39598814 C-3.81273843 876.67413605 -3.81402341 854.95228397 -3.81534577 833.23043188 C-3.81554502 829.95370214 -3.81574313 826.67697241 -3.81594121 823.40024267 C-3.81900243 772.92268382 -3.82291358 722.44512522 -3.82927788 671.96756667 C-3.82941478 670.88164322 -3.82955167 669.79571977 -3.82969272 668.67688955 C-3.83190519 651.16776347 -3.83418876 633.6586374 -3.83648177 616.14951133 C-3.84308248 565.73892542 -3.8491604 515.3283397 -3.85175312 464.9177534 C-3.85180665 463.88185094 -3.85186019 462.84594848 -3.85191535 461.77865504 C-3.85308091 439.04212861 -3.85397586 416.30560217 -3.85461431 393.56907571 C-3.85487594 384.42168791 -3.85517656 375.2743001 -3.85549057 366.1269123 C-3.855524 365.12574917 -3.85555742 364.12458604 -3.85559186 363.09308463 C-3.85668962 330.79601159 -3.86096515 298.49893993 -3.86689553 266.20186745 C-3.87285136 233.68746355 -3.87571504 201.17306099 -3.87423731 168.65865654 C-3.87403421 164.17266021 -3.87386684 159.68666389 -3.87372101 155.20066756 C-3.87369113 154.32123034 -3.87366125 153.44179311 -3.87363046 152.53570627 C-3.87324877 138.5709238 -3.87624336 124.60614413 -3.88062319 110.64136242 C-3.88485395 96.93311168 -3.88556396 83.22486461 -3.88244514 69.51661354 C-3.88072157 61.46458891 -3.88178249 53.41257586 -3.88683033 45.36055257 C-3.89026295 39.40587281 -3.88856481 33.45120214 -3.8847533 27.49652234 C-3.88403192 25.0853362 -3.88503071 22.67414885 -3.88784857 20.26296424 C-3.89140437 17.01764682 -3.88893441 13.77239134 -3.88481182 10.52707601 C-3.8873207 9.57564539 -3.88982958 8.62421477 -3.89241448 7.64395292 C-3.87183709 0.17485478 -3.87183709 0.17485478 0 0 Z " fill="#1A4D7A" transform="translate(5000.760613325983,962.8753288350999)"/>
<path d="M0 0 C1.44660007 -0.00372236 2.89319649 -0.00919763 4.33978419 -0.01624487 C8.30264052 -0.03051031 12.26509649 -0.02003544 16.22793701 -0.0053969 C20.55986131 0.0061395 24.89173457 -0.00569794 29.22365665 -0.01448435 C36.84096109 -0.02672713 44.45814839 -0.02410531 52.07545105 -0.01179497 C63.47876421 0.00655681 74.8819883 0.00178076 86.2853083 -0.0074934 C105.7200953 -0.02262511 125.15483733 -0.01878026 144.58962321 -0.00464308 C164.2864026 0.00961225 183.98315578 0.01516658 203.67993999 0.01007783 C204.92368797 0.0097621 206.16743596 0.00944637 207.44887328 0.00912108 C213.79069984 0.00747308 220.13252636 0.00568734 226.47435287 0.00385633 C272.38768573 -0.00908913 318.30099267 -0.00238701 364.21432185 0.01504457 C375.56698835 0.01934725 386.91965487 0.02361072 398.27232146 0.02765644 C398.97806122 0.02790829 399.68380098 0.02816015 400.4109268 0.02841964 C433.1112507 0.04001854 465.81157297 0.04202335 498.51189866 0.04172746 C500.65091709 0.04170929 502.78993552 0.04169649 504.92895395 0.04168555 C517.82752192 0.04161912 530.72608988 0.04148155 543.62465785 0.04125134 C575.69056808 0.04069036 607.75647822 0.04146939 639.82238841 0.04322946 C640.55237829 0.04326899 641.28236817 0.04330852 642.03447896 0.04334925 C689.31150349 0.04592668 736.58852504 0.05422298 783.8655479 0.06694543 C784.99768974 0.06724965 784.99768974 0.06724965 786.15270313 0.06756002 C810.66501836 0.07415291 835.17733349 0.08112579 859.68964861 0.08813349 C883.57635959 0.09496188 907.4630706 0.10165019 931.34978175 0.10785997 C932.11427011 0.10805878 932.87875848 0.1082576 933.66641315 0.10846244 C1006.26489089 0.12728953 1078.86336666 0.12955066 1151.46184646 0.12852211 C1155.30504484 0.12846836 1159.14824323 0.12841858 1162.99144161 0.12836857 C1167.59853896 0.12830835 1172.20563631 0.12824787 1176.81273366 0.12818605 C1192.87952815 0.12797049 1208.94632264 0.12777205 1225.01311713 0.12760779 C1227.30002696 0.12758387 1229.58693679 0.12755837 1231.87384661 0.12753253 C1278.36765004 0.12701648 1324.86145269 0.1290597 1371.35525584 0.13420236 C1372.0849769 0.13428295 1372.81469797 0.13436354 1373.56653179 0.13444658 C1407.04946226 0.13815625 1440.5323926 0.14269462 1474.01532288 0.14790198 C1476.16914273 0.14823687 1478.32296258 0.1485709 1480.47678243 0.14890469 C1484.7760343 0.14957117 1489.07528618 0.15023933 1493.37453805 0.15090822 C1494.43694521 0.15107346 1494.43694521 0.15107346 1495.52081515 0.15124203 C1502.65549351 0.15235224 1509.79017188 0.15346796 1516.92485024 0.15461179 C1548.91505093 0.15973959 1580.90525113 0.16381575 1612.89545226 0.16458118 C1614.32022746 0.16461655 1615.74500266 0.16465196 1617.16977786 0.16468742 C1622.85474469 0.16482689 1628.53971153 0.16495672 1634.22467837 0.16508239 C1686.9277131 0.16624874 1739.63073745 0.17376577 1792.33376911 0.19403978 C1797.38122472 0.19595502 1802.42868034 0.19784168 1807.47613597 0.19970644 C1808.71490092 0.2001675 1809.95366587 0.20062857 1811.22996915 0.20110361 C1830.87908826 0.20824388 1850.52820161 0.20870489 1870.17732165 0.20643477 C1889.47783556 0.20435124 1908.77833659 0.20939626 1928.07884653 0.22213503 C1939.4070257 0.22940207 1950.73517409 0.23118096 1962.06335407 0.22497902 C1969.57625346 0.22141037 1977.08912669 0.22502723 1984.60202077 0.23461457 C1988.86758519 0.23985477 1993.13308661 0.24193945 1997.39865038 0.23521685 C2001.26820288 0.22917719 2005.13763488 0.2323165 2009.00717691 0.24279771 C2010.39546176 0.24495261 2011.78375688 0.24376959 2013.17203456 0.23881596 C2032.77663463 0.17393482 2047.62707769 6.27095543 2062.00273585 19.68659532 C2077.82437413 36.07633551 2080.78001044 55.42196672 2080.70341945 77.14387071 C2080.70749217 79.09673928 2080.71283796 81.04960555 2080.71934962 83.00246751 C2080.73294479 88.27098867 2080.72775721 93.53933221 2080.71821237 98.8078562 C2080.71057622 104.34088105 2080.71767221 109.87389148 2080.72237086 115.40691698 C2080.72781649 124.69458797 2080.72066771 133.9821872 2080.70634913 143.26984727 C2080.69002015 153.98482453 2080.69531781 164.69963053 2080.71182835 175.41460365 C2080.72547153 184.64046951 2080.72734919 193.86628402 2080.71951234 203.09215671 C2080.714852 208.59096583 2080.71416578 214.08969462 2080.72412181 219.58849847 C2080.73283067 224.75885611 2080.7266983 229.9289943 2080.70943904 235.0993284 C2080.70549527 236.98905007 2080.70657176 238.87879043 2080.71322703 240.7685045 C2080.74517008 250.76524482 2080.4967217 259.89812805 2077.31523585 269.49909532 C2076.9388296 270.63604845 2076.56242335 271.77300157 2076.17461085 272.94440782 C2073.33141938 279.81211681 2069.84325705 285.61372819 2065.31523585 291.49909532 C2064.59336085 292.50972032 2063.87148585 293.52034532 2063.12773585 294.56159532 C2053.54658729 305.65555682 2038.63908092 313.03413016 2024.31523585 315.49909532 C2022.32702236 315.5877716 2020.33619725 315.62507575 2018.3460073 315.62565716 C2016.53421888 315.62982013 2016.53421888 315.62982013 2014.68582867 315.63406721 C2013.34527715 315.6320977 2012.00472576 315.63003741 2010.6641745 315.62789649 C2009.23229288 315.62926493 2007.80041162 315.63107109 2006.36853105 315.6332753 C2002.40937296 315.63808709 1998.4502376 315.63663666 1994.49107823 315.6342176 C1990.17696529 315.63267951 1985.86285745 315.63692865 1981.5487462 315.64044437 C1973.95036656 315.64582728 1966.35199311 315.64746026 1958.75361171 315.64669362 C1947.37836894 315.64556018 1936.0031334 315.65013298 1924.62789226 315.65582446 C1905.24378743 315.66534614 1885.85968405 315.67004529 1866.47557712 315.6721338 C1846.82220166 315.67426064 1827.16882844 315.67851648 1807.51545405 315.68537652 C1805.65580598 315.68602245 1805.65580598 315.68602245 1803.75858926 315.68668142 C1798.70947778 315.68843972 1793.6603663 315.69020936 1788.61125484 315.69199444 C1728.07534806 315.7133548 1667.5394415 315.72427094 1607.00353192 315.73315667 C1586.43285933 315.73617979 1565.86218686 315.73964038 1545.2915144 315.74343789 C1544.59135283 315.743567 1543.89119126 315.74369612 1543.16981268 315.74382914 C1536.79654041 315.74500462 1530.42326814 315.74618379 1524.04999587 315.74736641 C1452.03621803 315.76072142 1380.02243985 315.77311556 1233.30338401 315.78812544 C1226.45157666 315.7886499 1219.59976931 315.78918721 1212.74796196 315.7897239 C1210.45974529 315.78990311 1208.17152861 315.79008208 1205.88331193 315.790261 C1191.34678183 315.79139808 1176.81025173 315.79254414 1162.27372163 315.79370919 C1158.43848793 315.7940165 1154.60325423 315.79432244 1150.76802053 315.7946251 C1078.33571806 315.80034473 1005.90341909 315.80958678 933.47111964 315.8320421 C932.70866054 315.83227833 931.94620144 315.83251455 931.16063751 315.83275794 C906.57158493 315.84038579 881.98253249 315.84843463 857.39348006 315.85654321 C833.71679796 315.86435078 810.04011584 315.8720742 786.3634336 315.87943304 C785.23450175 315.87978417 785.23450175 315.87978417 784.08276321 315.8801424 C736.94722046 315.89477936 689.81167866 315.9045809 642.67613387 315.90930784 C641.94812217 315.90938143 641.22011046 315.90945503 640.4700378 315.90953085 C608.49725672 315.91275685 576.52447565 315.91492525 544.55169442 315.91591385 C531.68883193 315.91631467 518.82596945 315.91684806 505.96310697 315.91744528 C503.83037138 315.91754275 501.69763579 315.91763513 499.5649002 315.91772666 C466.94279243 315.91915534 434.32068916 315.92372484 401.69858408 315.93760264 C400.9950926 315.93790171 400.29160112 315.93820078 399.56679172 315.93850891 C388.25023948 315.94333746 376.93368736 315.94841937 365.61713526 315.95353491 C319.24044734 315.97449174 272.86378122 315.98311588 226.48708734 315.97341005 C220.17820136 315.97209156 213.86931536 315.97091353 207.56042933 315.96981943 C206.32369134 315.96959958 205.08695334 315.96937973 203.81273844 315.96915322 C184.21530912 315.96603664 164.61791083 315.97637416 145.02048871 315.99229498 C125.75869162 316.00766493 106.49693752 316.00881231 87.23513895 315.99474674 C75.9372391 315.98692577 64.63947042 315.99008018 53.34158362 316.0093839 C45.83974929 316.02111073 38.3380109 316.01834732 30.8361818 316.00376926 C26.58256061 315.99591002 22.32919624 315.99421798 18.07559272 316.0103883 C14.20858951 316.02497159 10.3420558 316.02081422 6.47507335 316.00233664 C4.45109675 315.99730347 2.42709928 316.01166267 0.40317524 316.02709262 C-19.22884731 315.87579184 -35.45134403 309.15461718 -49.68476415 295.49909532 C-55.23501711 289.40713767 -59.27943262 282.86009237 -62.62226415 275.37409532 C-62.9048911 274.7417296 -63.18751805 274.10936388 -63.47870946 273.45783556 C-68.26141605 262.01601693 -67.98278802 250.43770413 -67.97529149 238.25837266 C-67.98128325 236.31243704 -67.98809028 234.36650377 -67.99564672 232.42057359 C-68.01325014 227.15578373 -68.01799977 221.89105897 -68.01927829 216.62624252 C-68.02070391 213.32980084 -68.02498133 210.03337549 -68.03027272 206.73693788 C-68.04875587 195.21607741 -68.05694568 183.6952631 -68.05536962 172.17438829 C-68.05416941 161.46918396 -68.07525244 150.76418164 -68.10685694 140.05902839 C-68.13309271 130.84080901 -68.14373382 121.6226553 -68.1424588 112.40439892 C-68.14195121 106.91096298 -68.1475209 101.41770662 -68.1688149 95.92430818 C-68.1883201 90.75148463 -68.1882385 85.57900967 -68.17378163 80.40617311 C-68.17170743 78.51973776 -68.17631039 76.63327988 -68.18850255 74.7468828 C-68.31774302 53.3450759 -64.08171969 35.50954813 -48.82538915 19.60456407 C-47.76577977 18.56235704 -47.76577977 18.56235704 -46.68476415 17.49909532 C-46.1227329 16.93835313 -45.56070165 16.37761095 -44.98163915 15.79987657 C-32.23161124 4.00919542 -17.02264412 -0.12721873 0 0 Z " fill="#FEFEFE" transform="translate(1993.6847641468048,1847.5009046792984)"/>
<path d="M0 0 C1316.7 0 2633.4 0 3990 0 C3990 477.51 3990 955.02 3990 1447 C2673.3 1447 1356.6 1447 0 1447 C0 969.49 0 491.98 0 0 Z M12 12 C12 481.59 12 951.18 12 1435 C1320.78 1435 2629.56 1435 3978 1435 C3978 965.41 3978 495.82 3978 12 C2669.22 12 1360.44 12 12 12 Z " fill="#FEFEFE" transform="translate(1005,964)"/>
<path d="M0 0 C114.77165523 0 114.77165523 0 141.765625 25.71484375 C162.77373647 47.2004123 165.50959093 74.18824356 165.20703125 102.87890625 C164.81440095 127.96796464 156.18874468 151.13912595 138.78125 169.40625 C100.94523745 204.69152013 48.28332994 195 0 195 C0 130.65 0 66.3 0 0 Z " fill="#FEFEFE" transform="translate(3381,1233)"/>
<path d="M0 0 C114.40662139 0 114.40662139 0 141.6953125 25.67578125 C154.4874725 38.57634939 160.74267355 53.36995065 164 71 C164.1757959 71.92014893 164.3515918 72.84029785 164.53271484 73.78833008 C165.33484593 79.3014097 165.18593621 84.85036346 165.18530273 90.41040039 C165.18746914 92.53227421 165.20560098 94.65360991 165.22460938 96.77539062 C165.34026218 124.02705216 157.70727428 149.68662586 138.5234375 169.56640625 C101.03221457 204.73674395 47.60952447 195 0 195 C0 130.65 0 66.3 0 0 Z " fill="#FDFEFE" transform="translate(1946,1233)"/>
<path d="M0 0 C17.82 0 35.64 0 54 0 C54 23.76 54 47.52 54 72 C73.8 72 93.6 72 114 72 C114 48.24 114 24.48 114 0 C131.82 0 149.64 0 168 0 C168 64.35 168 128.7 168 195 C150.51 195 133.02 195 115 195 C115 168.93 115 142.86 115 116 C94.54 116 74.08 116 53 116 C53 142.07 53 168.14 53 195 C35.51 195 18.02 195 0 195 C0 130.65 0 66.3 0 0 Z " fill="#FBFCFD" transform="translate(3100,1233)"/>
<path d="M0 0 C3.40338616 0.21734861 6.81014018 0.31123739 10.21850586 0.41656494 C16.87167484 0.64665931 23.51004689 0.99663558 30.15209961 1.44195557 C28.7822935 4.22933672 27.32354116 6.79043356 25.57006836 9.35601807 C25.05726318 10.10721924 24.54445801 10.85842041 24.01611328 11.63238525 C23.46286377 12.43579346 22.90961426 13.23920166 22.33959961 14.06695557 C21.75992432 14.91161377 21.18024902 15.75627197 20.58300781 16.62652588 C16.22680348 22.94676177 11.75999666 29.1797587 7.24291992 35.38555908 C2.07617297 42.50177481 -2.94013766 49.71921239 -7.94970703 56.94659424 C-12.61099451 63.67063863 -17.305964 70.36928014 -22.04345703 77.03985596 C-22.91636057 78.27106787 -23.78326854 79.50656261 -24.64282227 80.74713135 C-25.80621283 82.3833261 -27.05269037 83.95945377 -28.30102539 85.53179932 C-30.13239074 88.29748159 -30.13239074 88.29748159 -29.49243164 91.13726807 C-27.06937492 96.00640342 -24.33171528 100.6541802 -21.53540039 105.31695557 C-16.61626255 113.62763936 -11.84786851 121.99264904 -7.28540039 130.50445557 C-1.53024663 141.22981099 4.42428648 151.83037884 10.43579102 162.41363525 C13.5651334 167.93516626 16.67230905 173.46909213 19.77709961 179.00445557 C20.36934326 180.05753906 20.96158691 181.11062256 21.57177734 182.19561768 C22.4043103 183.68073853 22.4043103 183.68073853 23.25366211 185.19586182 C23.7417334 186.06541504 24.22980469 186.93496826 24.73266602 187.83087158 C26.27358281 190.66542699 27.70924626 193.55624886 29.15209961 196.44195557 C9.35209961 196.44195557 -10.44790039 196.44195557 -30.84790039 196.44195557 C-34.47790039 189.18195557 -38.10790039 181.92195557 -41.84790039 174.44195557 C-45.3869768 167.69055352 -45.3869768 167.69055352 -48.94555664 160.94976807 C-52.44634774 154.32058332 -55.91137242 147.67289919 -59.36270142 141.01785278 C-60.10091769 139.59594585 -60.84063642 138.17481792 -61.58187866 136.75448608 C-62.62496888 134.75516872 -63.66283146 132.75322138 -64.69946289 130.75054932 C-65.30612793 129.58322266 -65.91279297 128.415896 -66.5378418 127.2131958 C-67.84790039 124.44195557 -67.84790039 124.44195557 -67.84790039 122.44195557 C-68.83532227 123.01945557 -69.82274414 123.59695557 -70.84008789 124.19195557 C-72.13422774 124.94218156 -73.42850576 125.69216924 -74.72290039 126.44195557 C-75.37387695 126.82351807 -76.02485352 127.20508057 -76.69555664 127.59820557 C-81.62133789 130.44195557 -81.62133789 130.44195557 -83.84790039 130.44195557 C-83.84790039 152.22195557 -83.84790039 174.00195557 -83.84790039 196.44195557 C-101.33790039 196.44195557 -118.82790039 196.44195557 -136.84790039 196.44195557 C-136.84790039 132.42195557 -136.84790039 68.40195557 -136.84790039 2.44195557 C-119.68790039 2.44195557 -102.52790039 2.44195557 -84.84790039 2.44195557 C-84.51790039 29.83195557 -84.18790039 57.22195557 -83.84790039 85.44195557 C-81.86790039 81.81195557 -79.88790039 78.18195557 -77.84790039 74.44195557 C-76.41946326 72.30302622 -74.94442843 70.19396746 -73.41040039 68.12945557 C-68.94565272 62.02917643 -64.6569707 55.82089836 -60.41040039 49.56695557 C-59.11094308 47.6541803 -57.81146417 45.74141971 -56.51196289 43.82867432 C-55.88708984 42.90876709 -55.2622168 41.98885986 -54.6184082 41.04107666 C-53.06414788 38.75940879 -51.50256183 36.48322335 -49.93383789 34.21148682 C-49.52053726 33.61030533 -49.10723663 33.00912384 -48.68141174 32.38972473 C-47.81017117 31.1351303 -46.92801064 29.88796594 -46.02970886 28.65260315 C-43.37484537 24.9396987 -41.23296483 21.25981433 -39.3046875 17.11920166 C-30.17513259 -1.12077598 -19.15405793 -1.35477937 0 0 Z " fill="#FEFEFE" transform="translate(4045.847900390625,1231.5580444335938)"/>
<path d="M0 0 C89.14700997 0 89.14700997 0 102.3125 4.6875 C103.43857666 5.07832764 103.43857666 5.07832764 104.58740234 5.47705078 C118.39353533 10.49124806 127.89053391 18.8600945 135.359375 31.38671875 C140.0001096 41.60738423 141.69914735 51.06209192 141.5625 62.25 C141.55226807 63.51835693 141.54203613 64.78671387 141.53149414 66.09350586 C141.13190092 83.82616253 136.19304875 98.6837742 123.8125 111.8125 C103.89276168 130.52253762 78.99434495 131 53 131 C53 152.12 53 173.24 53 195 C35.51 195 18.02 195 0 195 C0 130.65 0 66.3 0 0 Z " fill="#FDFEFE" transform="translate(2494,1233)"/>
<path d="M0 0 C38.28 0 76.56 0 116 0 C116 13.86 116 27.72 116 42 C95.21 42 74.42 42 53 42 C53 52.23 53 62.46 53 73 C72.47 73 91.94 73 112 73 C112 86.86 112 100.72 112 115 C92.53 115 73.06 115 53 115 C53 127.54 53 140.08 53 153 C73.79 153 94.58 153 116 153 C116 166.86 116 180.72 116 195 C77.72 195 39.44 195 0 195 C0 130.65 0 66.3 0 0 Z " fill="#FDFDFE" transform="translate(3581,1233)"/>
<path d="M0 0 C-2.48589411 7.70713193 -5.26088845 15.29887362 -8.13354492 22.86865234 C-8.6740269 24.30151225 -9.20811218 25.73679978 -9.73608398 27.17431641 C-10.50575645 29.26799608 -11.29540464 31.35311289 -12.08984375 33.4375 C-12.55253662 34.67371094 -13.01522949 35.90992188 -13.49194336 37.18359375 C-15 40 -15 40 -16.93554688 40.99316406 C-19.28775045 41.00095282 -20.77550537 40.58444264 -22.94140625 39.671875 C-23.68358398 39.36773682 -24.42576172 39.06359863 -25.19042969 38.75024414 C-26.36460449 38.25512329 -26.36460449 38.25512329 -27.5625 37.75 C-29.20320678 37.09459311 -30.84513102 36.44222543 -32.48828125 35.79296875 C-34.94428887 34.81710165 -37.40009008 33.84073022 -39.85546875 32.86328125 C-46.16252076 30.75407136 -52.53195984 30.66629745 -59.125 30.5625 C-60.05602539 30.54002197 -60.98705078 30.51754395 -61.94628906 30.49438477 C-72.56257766 30.53115521 -79.61712948 34.61712948 -87 42 C-92.6568346 47.9800823 -96.18469644 56.04059206 -98 64 C-98.18433594 64.70511719 -98.36867188 65.41023438 -98.55859375 66.13671875 C-103.16456334 86.37121963 -100.97312151 111.09541726 -90.25 128.9375 C-85.00063006 136.25439671 -77.50508311 139.73956682 -69 142 C-68.40316406 142.18433594 -67.80632813 142.36867188 -67.19140625 142.55859375 C-49.47982356 146.12616745 -31.46520563 139.88955356 -15.1496582 133.70849609 C-13 133 -13 133 -8 132 C-8 146.52 -8 161.04 -8 176 C-21.99100161 181.829584 -21.99100161 181.829584 -28.25 183.1875 C-28.97195557 183.34766602 -29.69391113 183.50783203 -30.43774414 183.67285156 C-59.6592827 189.93347136 -90.85145786 189.87807745 -117 174 C-120.23222824 171.87203742 -123.13758665 169.60067516 -126 167 C-126.74507812 166.34644531 -127.49015625 165.69289063 -128.2578125 165.01953125 C-146.76446666 147.79893272 -154.15596243 121.39883494 -155.12451172 96.84326172 C-155.88159593 64.26983107 -149.99828146 34.81068418 -126.8125 10.3125 C-94.09606982 -21.36602963 -38.52579773 -19.26289887 0 0 Z " fill="#FDFDFE" transform="translate(3879,1244)"/>
<path d="M0 0 C0.99 0.99 0.99 0.99 2 2 C-3.28 15.53 -8.56 29.06 -14 43 C-17.238125 41.741875 -20.47625 40.48375 -23.8125 39.1875 C-25.76644277 38.44709133 -27.72180485 37.71039537 -29.6796875 36.98046875 C-30.56640137 36.64942139 -31.45311523 36.31837402 -32.36669922 35.97729492 C-33.23568848 35.6547876 -34.10467773 35.33228027 -35 35 C-35.95688721 34.64147949 -36.91377441 34.28295898 -37.8996582 33.91357422 C-44.14228955 31.66634704 -50.55708465 31.67053381 -57.125 31.5625 C-58.05626709 31.53994141 -58.98753418 31.51738281 -59.94702148 31.49414062 C-69.64342071 31.52859527 -78.03506921 35.20598776 -85 42 C-98.59650657 58.42322311 -99.14040858 80.72741762 -98 101 C-96.89253724 110.83727722 -94.42869245 120.62338256 -89 129 C-88.61714844 129.6290625 -88.23429687 130.258125 -87.83984375 130.90625 C-83.05035553 137.58516935 -73.80739891 141.92758024 -65.953125 143.6796875 C-49.07732844 145.51013104 -33.28575665 142.29174022 -17.54833984 136.33764648 C-16.75121582 136.03673096 -15.9540918 135.73581543 -15.1328125 135.42578125 C-14.43043457 135.15161377 -13.72805664 134.87744629 -13.00439453 134.5949707 C-11 134 -11 134 -7 134 C-7 148.52 -7 163.04 -7 178 C-38.82972919 188.60990973 -76.37535772 194.77599668 -107.8125 179.125 C-113.69813278 176.00860485 -119.06822748 172.47993371 -124 168 C-124.73347656 167.35804688 -125.46695313 166.71609375 -126.22265625 166.0546875 C-144.8573206 148.73052271 -152.12362668 122.56010164 -153.12988281 97.8046875 C-153.51427879 83.91983904 -153.60062883 70.48287417 -150 57 C-149.73316406 55.91589844 -149.46632813 54.83179688 -149.19140625 53.71484375 C-143.13963703 31.57881678 -129.34437052 11.33177046 -109.3203125 -0.21875 C-76.14130181 -18.01831338 -33.61762126 -16.28844829 0 0 Z " fill="#FDFEFE" transform="translate(3069,1243)"/>
<path d="M0 0 C18.81 0 37.62 0 57 0 C67.45079497 22.02440262 77.76488244 44.08958421 87.77929688 66.31494141 C88.49455512 67.88822344 89.22710794 69.45421587 90 71 C98.38483754 54.68629795 105.95674747 37.98402205 113.60992432 21.31896973 C114.45260749 19.48436264 115.2961199 17.65013652 116.13964844 15.81591797 C117.19719013 13.51517156 118.25259748 11.21344267 119.30566406 8.91064453 C119.77713867 7.88438965 120.24861328 6.85813477 120.734375 5.80078125 C121.14913086 4.89497314 121.56388672 3.98916504 121.99121094 3.0559082 C123 1 123 1 124 0 C125.77991924 -0.09370624 127.56356739 -0.11744271 129.34594727 -0.11352539 C131.05760826 -0.11341209 131.05760826 -0.11341209 132.80384827 -0.11329651 C134.0454924 -0.10813522 135.28713654 -0.10297394 136.56640625 -0.09765625 C138.46204567 -0.09553383 138.46204567 -0.09553383 140.39598083 -0.09336853 C143.76124889 -0.08870582 147.1264499 -0.0797148 150.49169922 -0.06866455 C153.9234967 -0.05844846 157.35530109 -0.05387049 160.78710938 -0.04882812 C167.52475824 -0.0377738 174.26237525 -0.0210171 181 0 C176.27591427 9.54396078 171.46161261 19.01755227 166.375 28.375 C165.15357978 30.63277677 163.93222756 32.89059032 162.7109375 35.1484375 C162.09573242 36.2837793 161.48052734 37.41912109 160.84667969 38.58886719 C157.88803188 44.05399505 154.94460924 49.52729964 152 55 C150.83599563 57.16148964 149.671933 59.32294791 148.5078125 61.484375 C146.14680476 65.86891533 143.78762107 70.25443072 141.4296875 74.640625 C135.20218133 86.2214519 128.95238105 97.78922536 122.64208984 109.32519531 C122.17625488 110.17694336 121.71041992 111.02869141 121.23046875 111.90625 C120.82207764 112.65197266 120.41368652 113.39769531 119.99291992 114.16601562 C117.92904165 117.97812617 117.82921539 121.0179077 117.79467773 125.29541016 C117.78477814 126.04672714 117.77487854 126.79804413 117.76467896 127.5721283 C117.73303477 130.06107406 117.70829505 132.55003893 117.68359375 135.0390625 C117.66302674 136.76256818 117.64203033 138.48606879 117.62062073 140.20956421 C117.56537393 144.7502024 117.51597617 149.2908863 117.46777344 153.831604 C117.40875511 159.27735404 117.34251281 164.72302036 117.27747345 170.16870117 C117.17943111 178.44574974 117.09059757 186.72285151 117 195 C99.51 195 82.02 195 64 195 C64.06703125 189.84117187 64.1340625 184.68234375 64.203125 179.3671875 C64.21888263 176.04921248 64.23101284 172.7319783 64.23046875 169.4140625 C64.22994313 164.17608719 64.24101639 158.94040725 64.33251953 153.703125 C64.67041436 133.41460353 64.66658882 117.18658078 52.41540527 100.0269165 C50.54254124 97.3449009 49.07638873 94.52131675 47.625 91.59375 C46.96383179 90.31395264 46.96383179 90.31395264 46.28930664 89.00830078 C45.86383545 88.18056152 45.43836426 87.35282227 45 86.5 C41.11143417 78.98993841 37.13686144 71.5358464 33.0625 64.125 C28.19671485 55.27232807 23.51010543 46.33650189 18.87988281 37.35864258 C14.6528524 29.18710657 10.27646127 21.10528798 5.78125 13.078125 C5.31332031 12.23378906 4.84539063 11.38945313 4.36328125 10.51953125 C3.74900269 9.42282104 3.74900269 9.42282104 3.12231445 8.30395508 C2 6 2 6 0 0 Z " fill="#FDFDFE" transform="translate(2221,1233)"/>
<path d="M0 0 C48.84 0 97.68 0 148 0 C148 14.19 148 28.38 148 43 C132.49 43 116.98 43 101 43 C101 93.16 101 143.32 101 195 C83.51 195 66.02 195 48 195 C48 144.84 48 94.68 48 43 C32.16 43 16.32 43 0 43 C0 28.81 0 14.62 0 0 Z " fill="#FDFDFE" transform="translate(2747,1233)"/>
<path d="M0 0 C17.16 0 34.32 0 52 0 C52 64.02 52 128.04 52 194 C34.84 194 17.68 194 0 194 C0 129.98 0 65.96 0 0 Z " fill="#FFFFFF" transform="translate(2667,1234)"/>
<path d="M0 0 C17.16 0 34.32 0 52 0 C52 64.02 52 128.04 52 194 C34.84 194 17.68 194 0 194 C0 129.98 0 65.96 0 0 Z " fill="#FFFFFF" transform="translate(2147,1234)"/>
<path d="M0 0 C7.3722186 -0.06994073 14.74436403 -0.12303252 22.11684895 -0.15543652 C25.54131723 -0.17099981 28.96555621 -0.19206368 32.38989258 -0.22631836 C36.3393262 -0.2655722 40.2886715 -0.27978634 44.23828125 -0.29296875 C45.45018631 -0.30845261 46.66209137 -0.32393646 47.91072083 -0.33988953 C63.38769028 -0.34291181 78.79016855 4.84887799 90.09765625 15.77734375 C98.81068928 25.95745832 100.54059312 37.47799282 100.3125 50.5078125 C99.36490497 61.09718697 94.68430461 70.76974622 87 78.125 C68.83358592 92.42706723 47.96517667 91.41516069 26.0625 91.1875 C23.52930484 91.17242435 20.99610099 91.15874105 18.46289062 91.14648438 C12.30840156 91.11371123 6.15424223 91.06374083 0 91 C0 89.35 0 87.7 0 86 C0.92232422 85.83564453 0.92232422 85.83564453 1.86328125 85.66796875 C2.67152344 85.50941406 3.47976562 85.35085938 4.3125 85.1875 C5.11300781 85.03667969 5.91351562 84.88585938 6.73828125 84.73046875 C9.42424431 83.86298154 10.32571325 83.27286824 12 81 C12.47200642 77.85036996 12.47200642 77.85036996 12.41992188 74.18945312 C12.42839142 73.50133041 12.43686096 72.8132077 12.44558716 72.10423279 C12.46898599 69.82971722 12.46997882 67.55587681 12.46875 65.28125 C12.47584915 63.70088428 12.48354779 62.12052114 12.49182129 60.54016113 C12.50527215 57.22803582 12.50683192 53.9161489 12.50097656 50.60400391 C12.49507535 46.35645165 12.52568506 42.11004043 12.56609344 37.86270905 C12.59192217 34.59932273 12.59485241 31.33621309 12.59120178 28.07273865 C12.59289715 26.50659819 12.60257969 24.94044551 12.62034607 23.37440491 C12.64244652 21.18567112 12.63288422 18.9992716 12.61523438 16.81054688 C12.61728882 15.56494995 12.61934326 14.31935303 12.62145996 13.03601074 C12.30365853 9.84173061 12.30365853 9.84173061 9.6998291 8.14855957 C6.52478385 6.79783385 3.34129746 5.85170327 0 5 C0 3.35 0 1.7 0 0 Z " fill="#165FA1" transform="translate(3337,1958)"/>
<path d="M0 0 C13.86 0 27.72 0 42 0 C49.84592626 19.14406007 56.90265643 38.56907709 64 58 C67.8954325 48.81742577 71.57447282 39.55730989 75.19384766 30.26318359 C76.12672971 27.8705637 77.06527007 25.48021113 78.00390625 23.08984375 C78.60972377 21.53659432 79.21520413 19.98321333 79.8203125 18.4296875 C80.09537628 17.73148895 80.37044006 17.03329041 80.65383911 16.31393433 C82.74635898 10.91260294 84.32074784 5.59750718 86 0 C99.2 0 112.4 0 126 0 C126 1.65 126 3.3 126 5 C125.28972656 5.20496094 124.57945312 5.40992188 123.84765625 5.62109375 C122.46900391 6.02521484 122.46900391 6.02521484 121.0625 6.4375 C120.14597656 6.70433594 119.22945312 6.97117187 118.28515625 7.24609375 C116.0597507 7.79026051 116.0597507 7.79026051 115 9 C114.88981525 11.22301682 114.85085421 13.44957943 114.83886719 15.67529297 C114.83390228 16.3728772 114.82893738 17.07046143 114.82382202 17.78918457 C114.80916545 20.10686209 114.80239245 22.42447116 114.796875 24.7421875 C114.79112617 26.34782921 114.78536841 27.9534709 114.77960205 29.55911255 C114.76908194 32.93019939 114.76324598 36.30126232 114.75976562 39.67236328 C114.75428047 43.99588514 114.73025647 48.31909211 114.70179367 52.64251518 C114.68318565 55.96075366 114.67796267 59.27891605 114.67642975 62.5972023 C114.67339823 64.19124192 114.66535291 65.78528004 114.65224457 67.37926865 C114.63522272 69.60839641 114.63705445 71.8367519 114.64355469 74.06591797 C114.63990906 75.33531219 114.63626343 76.60470642 114.63250732 77.91256714 C114.73831505 80.97162454 114.73831505 80.97162454 116.39459229 82.88772583 C118.30753619 84.21307021 119.91600799 84.70341154 122.1875 85.1875 C123.445625 85.455625 124.70375 85.72375 126 86 C126 87.65 126 89.3 126 91 C109.83 91 93.66 91 77 91 C77 89.35 77 87.7 77 86 C78.28197266 85.70996094 78.28197266 85.70996094 79.58984375 85.4140625 C80.69457031 85.15367188 81.79929687 84.89328125 82.9375 84.625 C84.59072266 84.24214844 84.59072266 84.24214844 86.27734375 83.8515625 C87.17582031 83.57054687 88.07429688 83.28953125 89 83 C90.41697193 80.16605613 90.11945929 77.79126262 90.11352539 74.62255859 C90.11367142 73.96877731 90.11381744 73.31499603 90.1139679 72.6414032 C90.11327036 70.47704773 90.1054854 68.31277796 90.09765625 66.1484375 C90.09579151 64.64913988 90.09436787 63.14984166 90.09336853 61.65054321 C90.08954779 57.70168378 90.07972128 53.75286104 90.06866455 49.80401611 C90.05844091 45.77559913 90.05386887 41.74717622 90.04882812 37.71875 C90.03809862 29.81248315 90.0210275 21.90624614 90 14 C87.78992959 19.5826472 85.5819859 25.16613273 83.375 30.75 C83.04207947 31.59202972 82.70915894 32.43405945 82.3661499 33.30160522 C78.5230141 43.02477335 74.69743593 52.75427602 70.921875 62.50390625 C70.43837082 63.751754 70.43837082 63.751754 69.94509888 65.02481079 C68.39497 69.02712595 66.84830953 73.03073946 65.30615234 77.03613281 C64.74844901 78.47854525 64.19067316 79.92092965 63.6328125 81.36328125 C63.25258942 82.35588707 63.25258942 82.35588707 62.86468506 83.36854553 C61.11332014 87.88667986 61.11332014 87.88667986 60 89 C57.32941149 89.14115161 54.67567762 89.04247107 52 89 C46.94990475 77.53779542 42.85104109 65.72044746 38.625 53.9375 C37.15998095 49.86287543 35.69335686 45.78882953 34.2265625 41.71484375 C33.87217102 40.72962738 33.51777954 39.74441101 33.15264893 38.7293396 C29.81751328 29.46804539 26.41966257 20.23036953 23 11 C22.9301981 18.79792241 22.87703656 26.59577033 22.84456348 34.39392757 C22.82897052 38.01574248 22.80785047 41.63734214 22.77368164 45.2590332 C22.74085851 48.7603775 22.7230992 52.261516 22.71536827 55.7630024 C22.70720495 57.73537617 22.68382289 59.70766826 22.66011047 61.67991638 C22.65885054 68.46681059 22.78838637 74.86347389 26 81 C28.04224062 82.83007154 28.04224062 82.83007154 30.5 83.5 C31.2734375 83.7784375 32.046875 84.056875 32.84375 84.34375 C33.5553125 84.5603125 34.266875 84.776875 35 85 C35.99 85.33 36.98 85.66 38 86 C38 87.65 38 89.3 38 91 C25.13 91 12.26 91 -1 91 C-1 89.35 -1 87.7 -1 86 C-0.31292969 85.81824219 0.37414063 85.63648438 1.08203125 85.44921875 C1.98308594 85.19785156 2.88414062 84.94648437 3.8125 84.6875 C4.70582031 84.44386719 5.59914063 84.20023438 6.51953125 83.94921875 C9.21972904 82.91591471 10.33393271 82.34650318 12 80 C14.5182192 73.38273097 14.30604637 66.85144409 14.30078125 59.83984375 C14.30506638 58.57660782 14.3093515 57.31337189 14.31376648 56.01185608 C14.31949598 53.34817473 14.32096118 50.68488272 14.31567383 48.02124023 C14.30986912 44.61957799 14.3268499 41.21845847 14.3500185 37.81688595 C14.3683415 34.55370951 14.36456997 31.29056234 14.36328125 28.02734375 C14.372491 26.81159164 14.38170074 25.59583954 14.39118958 24.34324646 C14.43288572 16.2194181 14.43288572 16.2194181 11 9 C8.33190697 7.4407783 8.33190697 7.4407783 5.3125 6.625 C3.82169922 6.14933594 3.82169922 6.14933594 2.30078125 5.6640625 C1.54152344 5.44492188 0.78226563 5.22578125 0 5 C0 3.35 0 1.7 0 0 Z " fill="#175FA1" transform="translate(2711,1958)"/>
<path d="M0 0 C35.07518797 0 35.07518797 0 46.71875 10.55859375 C58.14518331 22.71375367 59.67925535 40.79639762 59.21484375 56.6875 C58.52796119 72.16115294 55.6061714 87.7063286 44.30078125 99.01171875 C30.97338939 110.52893854 17.81800042 109 0 109 C0 73.03 0 37.06 0 0 Z " fill="#14528B" transform="translate(3433,1276)"/>
<path d="M0 0 C35.31156716 0 35.31156716 0 46 10.53125 C58.59724245 26.08097115 59.48721995 47.07402062 57.80517578 66.21728516 C56.45072345 78.21346728 52.20079097 89.93517006 44 99 C41.4140625 100.94921875 41.4140625 100.94921875 38.625 102.6875 C37.70976563 103.26886719 36.79453125 103.85023437 35.8515625 104.44921875 C24.59877809 110.56888369 12.68621983 109 0 109 C0 73.03 0 37.06 0 0 Z " fill="#12518A" transform="translate(1999,1276)"/>
<path d="M0 0 C1.07580322 -0.00954712 1.07580322 -0.00954712 2.17333984 -0.01928711 C7.72914248 0.11465782 11.85369396 1.4773681 16.0625 5.125 C17.1875 7.5 17.1875 7.5 17.1875 16.5 C23.7875 16.5 30.3875 16.5 37.1875 16.5 C37.1875 23.1 37.1875 29.7 37.1875 36.5 C43.1275 36.5 49.0675 36.5 55.1875 36.5 C55.1875 38.48 55.1875 40.46 55.1875 42.5 C49.2475 42.5 43.3075 42.5 37.1875 42.5 C37.28461106 48.22955228 37.38745189 53.95841091 37.50488281 59.6875 C37.54308233 61.63502798 37.57795075 63.58262435 37.609375 65.53027344 C37.65522196 68.33553446 37.71318366 71.14032839 37.7734375 73.9453125 C37.78498871 74.81116974 37.79653992 75.67702698 37.80844116 76.56912231 C37.92102665 81.21765327 38.26149915 85.17997411 40.1875 89.5 C43.1490696 90.9807848 46.02256295 90.85314037 49.3125 91.0625 C51.23449219 91.18818359 51.23449219 91.18818359 53.1953125 91.31640625 C54.18273438 91.37699219 55.17015625 91.43757813 56.1875 91.5 C56.1875 93.15 56.1875 94.8 56.1875 96.5 C54.62729133 97.15134925 53.06421421 97.79582964 51.5 98.4375 C50.19482422 98.97697266 50.19482422 98.97697266 48.86328125 99.52734375 C41.92826123 102.04824884 33.33043154 103.03656553 26.3125 100.3125 C22.0824908 97.85909466 19.08750205 95.51376924 17.06298828 90.98388672 C15.88499132 86.29620779 15.94006785 81.88388017 15.9921875 77.0703125 C15.9950174 76.07998016 15.99784729 75.08964783 16.00076294 74.06930542 C16.0119153 70.92107824 16.03701093 67.77314051 16.0625 64.625 C16.07253618 62.48437912 16.08166092 60.34375376 16.08984375 58.203125 C16.1101328 52.96855005 16.14929126 47.73459723 16.1875 42.5 C6.6175 42.5 -2.9525 42.5 -12.8125 42.5 C-12.73858896 49.13925003 -12.65583813 55.77713048 -12.55004883 62.41577148 C-12.51676314 64.67481431 -12.48874267 66.93394103 -12.46606445 69.19311523 C-12.43258574 72.43770148 -12.38027282 75.68151633 -12.32421875 78.92578125 C-12.31782883 79.93836502 -12.3114389 80.95094879 -12.30485535 81.99421692 C-12.27516411 83.40534004 -12.27516411 83.40534004 -12.24487305 84.8449707 C-12.22821846 86.08740288 -12.22821846 86.08740288 -12.21122742 87.35493469 C-11.72076277 89.993526 -10.90804256 90.87127358 -8.8125 92.5 C-6.54856029 93.28356902 -6.54856029 93.28356902 -4.125 93.6875 C-2.91263672 93.92533203 -2.91263672 93.92533203 -1.67578125 94.16796875 C-1.06089844 94.27753906 -0.44601563 94.38710937 0.1875 94.5 C0.1875 96.15 0.1875 97.8 0.1875 99.5 C-14.0025 99.5 -28.1925 99.5 -42.8125 99.5 C-42.8125 97.85 -42.8125 96.2 -42.8125 94.5 C-41.678125 94.190625 -40.54375 93.88125 -39.375 93.5625 C-36.02474901 92.87075469 -36.02474901 92.87075469 -34.8125 91.5 C-34.6899645 89.96617321 -34.63472062 88.42689481 -34.60717773 86.88842773 C-34.58723251 85.90748642 -34.56728729 84.9265451 -34.54673767 83.9158783 C-34.53002518 82.8492244 -34.51331268 81.7825705 -34.49609375 80.68359375 C-34.47531265 79.5974025 -34.45453156 78.51121124 -34.43312073 77.3921051 C-34.36750558 73.90730373 -34.30868489 70.42242432 -34.25 66.9375 C-34.20682615 64.58137199 -34.16321224 62.22525201 -34.11914062 59.86914062 C-34.01181203 54.07950795 -33.91057869 48.28979646 -33.8125 42.5 C-37.7725 42.5 -41.7325 42.5 -45.8125 42.5 C-45.8125 40.52 -45.8125 38.54 -45.8125 36.5 C-41.5225 36.5 -37.2325 36.5 -32.8125 36.5 C-32.998125 33.90125 -32.998125 33.90125 -33.1875 31.25 C-33.1770607 22.40791191 -29.48227958 15.09888446 -23.625 8.5625 C-16.55325091 2.30377195 -9.28583046 0.0709987 0 0 Z " fill="#175FA1" transform="translate(2617.8125,1949.5)"/>
<path d="M0 0 C7.72879671 -0.09335842 15.45745725 -0.16409439 23.18667889 -0.20724869 C26.77708271 -0.22797799 30.36709615 -0.25602042 33.95727539 -0.30175781 C37.43271947 -0.3457481 40.90779206 -0.36924676 44.38349342 -0.37950897 C46.3313639 -0.39031783 48.27908834 -0.42145527 50.22673035 -0.45318604 C60.55901791 -0.45574415 71.92568279 0.96085166 80 8 C85.13222105 14.79672517 85.99691263 20.64352645 85 29 C82.6640584 36.40903615 79.30678069 41.92641697 72.5 45.82421875 C63.04091026 50.27294689 54.52543227 52.17708103 44.125 52.0625 C43.34125 52.05798828 42.5575 52.05347656 41.75 52.04882812 C39.83329986 52.03714093 37.91663952 52.01920908 36 52 C36.06888572 56.07567513 36.156854 60.15044801 36.26245117 64.2253418 C36.29568549 65.61129377 36.32372226 66.99738061 36.34643555 68.38354492 C36.38000617 70.37706843 36.43388 72.37021741 36.48828125 74.36328125 C36.51446533 75.56251221 36.54064941 76.76174316 36.56762695 77.99731445 C36.75353693 80.97866587 36.75353693 80.97866587 38.390625 82.86914062 C40.4474795 84.31443037 42.22450111 84.72345673 44.6875 85.1875 C45.89986328 85.42533203 45.89986328 85.42533203 47.13671875 85.66796875 C47.75160156 85.77753906 48.36648437 85.88710937 49 86 C49 87.65 49 89.3 49 91 C32.83 91 16.66 91 0 91 C0 89.35 0 87.7 0 86 C0.78246094 85.80664062 1.56492187 85.61328125 2.37109375 85.4140625 C3.38300781 85.15367188 4.39492187 84.89328125 5.4375 84.625 C6.44683594 84.36976562 7.45617188 84.11453125 8.49609375 83.8515625 C11.15570324 83.27426046 11.15570324 83.27426046 12 81 C12.1073535 78.8002214 12.14890753 76.59713803 12.16113281 74.39477539 C12.16609772 73.71655228 12.17106262 73.03832916 12.17617798 72.33955383 C12.19080303 70.09224439 12.19760161 67.8450055 12.203125 65.59765625 C12.20887553 64.03828428 12.21463327 62.47891233 12.22039795 60.91954041 C12.23090847 57.64858673 12.23675101 54.37765764 12.24023438 51.10668945 C12.24572373 46.91210772 12.26976068 42.71784984 12.29820633 38.52336979 C12.3168135 35.30206853 12.32203724 32.08084564 12.32357025 28.85949516 C12.32660094 27.31290348 12.33464346 25.76631331 12.34775543 24.21977425 C12.36477887 22.05780368 12.36294548 19.89662922 12.35644531 17.73461914 C12.36009094 16.5037709 12.36373657 15.27292267 12.36749268 14.004776 C12.25368779 11.02176 12.25368779 11.02176 10.61907959 9.13841248 C8.59616797 7.71605632 6.67548274 7.03166866 4.3125 6.3125 C3.50425781 6.06113281 2.69601563 5.80976562 1.86328125 5.55078125 C1.24839844 5.36902344 0.63351563 5.18726563 0 5 C0 3.35 0 1.7 0 0 Z " fill="#165EA1" transform="translate(2954,1958)"/>
<path d="M0 0 C0.33 14.52 0.66 29.04 1 44 C4.3 41.36 7.6 38.72 11 36 C17.73209792 32.89287788 27.51467588 32.39465358 34.54296875 34.91015625 C39.84285464 38.00258498 43.0509081 42.1527243 45 48 C45.09338787 49.34451407 45.13523751 50.69303423 45.1418457 52.04077148 C45.15239738 53.25234169 45.15239738 53.25234169 45.16316223 54.48838806 C45.16732651 55.35718094 45.17149078 56.22597382 45.17578125 57.12109375 C45.19897357 58.96160005 45.22309066 60.80209489 45.24804688 62.64257812 C45.28320253 65.54377994 45.31253259 68.44455804 45.32592773 71.34594727 C45.34138735 74.14651622 45.3815754 76.94585043 45.42578125 79.74609375 C45.42387283 80.6128624 45.42196442 81.47963104 45.41999817 82.37266541 C45.50374294 87.29872267 45.50374294 87.29872267 47.86401367 91.53149414 C50.26804833 93.18428514 52.11814201 93.67979356 55 94 C55 95.65 55 97.3 55 99 C42.13 99 29.26 99 16 99 C16 97.35 16 95.7 16 94 C18.31 93.67 20.62 93.34 23 93 C23.04950439 87.11011984 23.0857692 81.2203613 23.10986328 75.33032227 C23.11990963 73.32737111 23.13354909 71.32443458 23.15087891 69.3215332 C23.17518713 66.43957912 23.18649687 63.55781928 23.1953125 60.67578125 C23.20563507 59.78288895 23.21595764 58.88999664 23.22659302 57.970047 C23.22739134 53.5282743 23.10378748 50.03650573 21 46 C13.82658078 44.61913467 13.82658078 44.61913467 7.0625 46.75 C6.051875 47.4925 5.04125 48.235 4 49 C3.45077881 49.37133057 2.90155762 49.74266113 2.33569336 50.12524414 C0.15378064 53.1877387 0.55278111 56.61986592 0.56640625 60.24609375 C0.5611644 61.05361588 0.55592255 61.861138 0.55052185 62.69313049 C0.54410114 64.40030773 0.54543932 66.1075292 0.55395508 67.81469727 C0.56245861 70.42479425 0.53371787 73.0326978 0.50195312 75.64257812 C0.50034082 77.30208268 0.50091921 78.9615911 0.50390625 80.62109375 C0.49267227 81.40036728 0.48143829 82.17964081 0.46986389 82.98252869 C0.51579836 86.56085552 0.68826131 88.59155508 2.89038086 91.47680664 C4.99213239 92.9943194 6.45161838 93.63594548 9 94 C9 95.65 9 97.3 9 99 C-3.87 99 -16.74 99 -30 99 C-30 97.35 -30 95.7 -30 94 C-28.865625 93.690625 -27.73125 93.38125 -26.5625 93.0625 C-23.21224901 92.37075469 -23.21224901 92.37075469 -22 91 C-21.88372203 88.52135636 -21.83201201 86.07018493 -21.82299805 83.59033203 C-21.81642685 82.81471924 -21.80985565 82.03910645 -21.80308533 81.23999023 C-21.78330692 78.66259679 -21.77168026 76.08526171 -21.76171875 73.5078125 C-21.75764322 72.62986904 -21.7535677 71.75192558 -21.74936867 70.84737778 C-21.72848942 66.20147688 -21.71419526 61.55560568 -21.70483398 56.90966797 C-21.69376017 52.10180237 -21.6593546 47.29439842 -21.61966228 42.48669624 C-21.59356404 38.7978731 -21.58514827 35.10916111 -21.58155251 31.42025375 C-21.57666961 29.64757033 -21.56500749 27.87489242 -21.54651451 26.10229874 C-21.52226445 23.62397544 -21.52306155 21.14686169 -21.5300293 18.66845703 C-21.51721924 17.93275482 -21.50440918 17.19705261 -21.49121094 16.4390564 C-21.52433006 13.21571786 -21.54481198 11.47483164 -23.82624817 9.09494019 C-26.47910216 7.75867153 -29.15414541 6.84082067 -32 6 C-32 4.35 -32 2.7 -32 1 C-29.10437541 0.82876982 -26.20859229 0.66297401 -23.3125 0.5 C-22.51521484 0.45230469 -21.71792969 0.40460938 -20.89648438 0.35546875 C-13.89710994 -0.03184841 -7.04509888 0 0 0 Z " fill="#175FA1" transform="translate(3242,1950)"/>
<path d="M0 0 C0.33 21.78 0.66 43.56 1 66 C13.6151447 55.99490225 13.6151447 55.99490225 23 42 C20.36 41.34 17.72 40.68 15 40 C15 38.35 15 36.7 15 35 C25.89 35 36.78 35 48 35 C48 36.65 48 38.3 48 40 C47.26136719 40.27972656 46.52273437 40.55945312 45.76171875 40.84765625 C36.67707954 44.43764709 28.75475984 49.07622512 21 55 C22.35150743 58.79773589 24.0652784 61.67194413 26.5 64.875 C30.33721628 70.0262357 33.9139819 75.30870353 37.41015625 80.69677734 C41.76795871 87.83903541 41.76795871 87.83903541 48.01953125 93.0234375 C48.90705078 93.19746094 48.90705078 93.19746094 49.8125 93.375 C51.3903125 93.684375 51.3903125 93.684375 53 94 C53 95.65 53 97.3 53 99 C27.38346732 102.01299218 27.38346732 102.01299218 20.49804688 97.28027344 C16.61954005 92.91840915 14.3163113 87.89252947 12.13671875 82.52392578 C10.26103224 78.35922494 7.64863024 74.7057295 5 71 C3.02 71.99 3.02 71.99 1 73 C0.8918134 75.58445773 0.81262763 78.16437352 0.75 80.75 C0.69972656 81.84441406 0.69972656 81.84441406 0.6484375 82.9609375 C0.58302619 86.55855948 0.66611604 88.56038612 2.875 91.46875 C4.98469223 92.9889694 6.44423053 93.63489008 9 94 C9 95.65 9 97.3 9 99 C-3.87 99 -16.74 99 -30 99 C-30 97.35 -30 95.7 -30 94 C-27.36 93.67 -24.72 93.34 -22 93 C-21.90740564 82.36041481 -21.83628875 71.72092513 -21.79275131 61.0810194 C-21.77185768 56.14070107 -21.7435077 51.20065796 -21.69824219 46.26049805 C-21.65484767 41.4948232 -21.63087628 36.72941342 -21.62049103 31.96355629 C-21.61308813 30.14341367 -21.59863228 28.32328591 -21.57707977 26.50325584 C-21.54813024 23.95782253 -21.54404037 21.4134908 -21.54589844 18.86791992 C-21.53151733 18.11194519 -21.51713623 17.35597046 -21.50231934 16.5770874 C-21.52469309 12.40802088 -21.52469309 12.40802088 -23.82525635 9.08247375 C-26.48070514 7.7607301 -29.15790498 6.83970989 -32 6 C-32 4.35 -32 2.7 -32 1 C-29.10437541 0.82876982 -26.20859229 0.66297401 -23.3125 0.5 C-22.51521484 0.45230469 -21.71792969 0.40460938 -20.89648438 0.35546875 C-13.89710994 -0.03184841 -7.04509888 0 0 0 Z " fill="#1860A1" transform="translate(3619,1950)"/>
<path d="M0 0 C0.97646484 -0.00708984 1.95292969 -0.01417969 2.95898438 -0.02148438 C10.16764528 0.04119963 17.06359923 0.68510727 22.8125 5.375 C23.34875 6.055625 23.885 6.73625 24.4375 7.4375 C24.994375 8.118125 25.55125 8.79875 26.125 9.5 C28.16359785 12.50935873 28.5651848 15.06266141 28.61108398 18.60180664 C28.62457382 19.43599625 28.63806366 20.27018585 28.65196228 21.12965393 C28.66240067 22.0265947 28.67283905 22.92353546 28.68359375 23.84765625 C28.71651515 25.74284346 28.74972707 27.63802563 28.78320312 29.53320312 C28.83073816 32.52446218 28.8752052 35.51569839 28.91430664 38.50708008 C28.95388622 41.3916491 29.0054456 44.2758099 29.05859375 47.16015625 C29.0670079 48.05912125 29.07542206 48.95808624 29.08409119 49.8842926 C29.10905418 51.13084877 29.10905418 51.13084877 29.13452148 52.40258789 C29.14482895 53.13522354 29.15513641 53.86785919 29.16575623 54.62269592 C29.29104745 56.68744591 29.29104745 56.68744591 31.4375 58.4375 C34.09287372 59.00270003 36.72894713 59.17538198 39.4375 59.4375 C39.4375 61.0875 39.4375 62.7375 39.4375 64.4375 C31.12359677 67.81942674 22.44792286 69.25161862 13.8125 66.125 C9.8318662 63.29665493 9.8318662 63.29665493 8.4375 61.4375 C8.4375 60.4475 8.4375 59.4575 8.4375 58.4375 C7.880625 58.83582031 7.32375 59.23414063 6.75 59.64453125 C-2.0894742 65.78139594 -9.55304723 69.03350121 -20.5625 67.4375 C-25.17162498 65.57910081 -29.07646592 62.82461896 -31.5625 58.4375 C-33.23567174 53.41798477 -33.51351109 48.2420123 -31.796875 43.1796875 C-26.84008106 33.99914661 -15.45460079 31.48641446 -6.125 28.625 C-5.14595703 28.31369141 -4.16691406 28.00238281 -3.15820312 27.68164062 C4.0181147 25.4375 4.0181147 25.4375 7.4375 25.4375 C7.34989411 23.37423023 7.24170727 21.3118284 7.125 19.25 C7.06699219 18.10144531 7.00898438 16.95289063 6.94921875 15.76953125 C6.40985751 12.25750728 5.5380277 10.27450902 3.4375 7.4375 C1.19237738 6.31493869 -0.07706649 6.30336238 -2.5625 6.3125 C-3.26375 6.30992188 -3.965 6.30734375 -4.6875 6.3046875 C-6.65403775 6.32372764 -6.65403775 6.32372764 -8.5625 7.4375 C-8.315 8.4584375 -8.315 8.4584375 -8.0625 9.5 C-7.47467573 12.95346758 -7.24457439 15.9403183 -7.5625 19.4375 C-9.42958505 21.80247439 -10.88311431 23.09780715 -13.5625 24.4375 C-15.18415752 24.55898305 -16.81134327 24.61293652 -18.4375 24.625 C-19.73300781 24.64626953 -19.73300781 24.64626953 -21.0546875 24.66796875 C-23.71972361 24.4230511 -25.30312647 23.84333242 -27.5625 22.4375 C-29.33104915 20.04995864 -29.63266645 18.0656178 -30.1875 15.125 C-29.39948902 10.47573521 -27.75939822 9.1051962 -24.2890625 6.11328125 C-16.35180749 1.2349397 -9.24077336 -0.18983696 0 0 Z " fill="#1860A1" transform="translate(2530.5625,1983.5625)"/>
<path d="M0 0 C0.92417725 -0.00201416 1.84835449 -0.00402832 2.80053711 -0.00610352 C9.56725737 0.09371107 15.05781849 1.10447821 21.37890625 3.59765625 C24.07650641 4.43775395 25.2803819 4.40461036 27.875 3.375 C28.205 3.045 28.535 2.715 28.875 2.375 C31.185 2.375 33.495 2.375 35.875 2.375 C35.875 13.265 35.875 24.155 35.875 35.375 C33.895 35.375 31.915 35.375 29.875 35.375 C29.58367188 34.61316406 29.29234375 33.85132813 28.9921875 33.06640625 C25.06833294 23.18273485 20.67029505 13.07579664 10.5546875 8.2734375 C5.11810684 6.45067722 -1.02328597 6.3118501 -6.47265625 8.1796875 C-13.05571041 11.85808 -16.87997591 17.50837802 -19.16015625 24.58984375 C-22.87966557 40.52318367 -23.60195296 60.1488416 -15.734375 75 C-12.10351916 80.19785679 -7.48042366 84.17353298 -1.125 85.375 C9.90698442 86.13381374 16.72221089 85.32779364 25.125 78.0625 C28.65278926 74.74095073 31.49750743 71.58964592 33.875 67.375 C35.855 68.365 37.835 69.355 39.875 70.375 C34.97401396 81.35320873 28.11366265 88.48473127 16.93212891 93.19311523 C10.91935221 95.44339791 5.38524868 95.88217536 -1 95.8125 C-2.45635864 95.80114014 -2.45635864 95.80114014 -3.94213867 95.78955078 C-16.77957016 95.49399106 -26.32152061 90.78565105 -35.8125 82.25 C-44.42560978 73.1572739 -48.14910879 60.14157194 -48.5 47.875 C-48.11224874 34.86206775 -43.82157268 23.40411659 -35.0625 13.625 C-25.22334181 4.54441636 -13.2381389 -0.01794921 0 0 Z " fill="#1960A2" transform="translate(2383.125,1955.625)"/>
<path d="M0 0 C1.38759521 0.01921509 1.38759521 0.01921509 2.80322266 0.03881836 C11.47115001 0.29691091 17.83314743 1.8049143 24.4375 7.625 C31.12627683 15.04116155 31.5625 21.56965747 31.5625 31.5 C17.0425 31.5 2.5225 31.5 -12.4375 31.5 C-10.7247119 44.0959961 -10.7247119 44.0959961 -4 53.875 C1.44219949 57.3261509 6.16103481 58.48095122 12.5625 57.5 C19.12286294 55.22873022 23.60197065 52.17675874 27.5625 46.5 C29.2125 47.49 30.8625 48.48 32.5625 49.5 C30.33290833 56.2121215 25.2083064 60.43855858 19.14453125 63.8671875 C9.03333355 68.5078377 -3.62306303 69.42203733 -14.3125 66.0625 C-22.27205865 62.664981 -29.39463853 56.53077183 -32.765625 48.453125 C-32.98734375 47.80859375 -33.2090625 47.1640625 -33.4375 46.5 C-33.65921875 45.87609375 -33.8809375 45.2521875 -34.109375 44.609375 C-36.70774999 35.97153383 -36.41584132 26.63615668 -32.4375 18.5 C-24.96347432 6.17918191 -14.4344808 -0.30306899 0 0 Z " fill="#175FA1" transform="translate(3481.4375,1983.5)"/>
<path d="M0 0 C2.39603669 -0.04407803 4.79125192 -0.07620685 7.1875 -0.1015625 C8.19780273 -0.12198608 8.19780273 -0.12198608 9.22851562 -0.14282227 C17.38893495 -0.20750852 23.4676667 2.7102916 29.43359375 8.1640625 C40.15125474 20.72590955 38.90572894 37.57415572 38 53 C36.966028 62.4169278 33.4532886 69.9990066 26 76 C20.10935189 79.80437691 12.78722562 79.90691377 6 79 C2.92634214 77.19196596 1.56980268 76.13960536 0 73 C-0.09214631 70.69212126 -0.11749397 68.3814915 -0.11352539 66.07177734 C-0.11367142 65.35947464 -0.11381744 64.64717194 -0.1139679 63.9132843 C-0.11327011 61.55413794 -0.10548397 59.19507011 -0.09765625 56.8359375 C-0.0957916 55.20211836 -0.09436792 53.56829866 -0.09336853 51.93447876 C-0.08954709 47.6305182 -0.07971998 43.32659129 -0.06866455 39.02264404 C-0.05844242 34.63228816 -0.05386919 30.24192685 -0.04882812 25.8515625 C-0.03809739 17.23435954 -0.02102543 8.61718396 0 0 Z " fill="#FDFEFE" transform="translate(3373,1964)"/>
<path d="M0 0 C13.2 0 26.4 0 40 0 C40 1.65 40 3.3 40 5 C37.69 5.66 35.38 6.32 33 7 C33.56296511 11.80269673 34.97149139 15.41247858 37.16015625 19.7109375 C37.62415077 20.63043686 37.62415077 20.63043686 38.09751892 21.56851196 C39.07833915 23.50792613 40.07018626 25.44144573 41.0625 27.375 C41.7331611 28.69623961 42.40309056 30.01785087 43.07226562 31.33984375 C44.70640475 34.56423725 46.3504762 37.78344445 48 41 C49.83017977 37.00786138 51.63587606 33.00509708 53.4375 29 C53.95376953 27.87464844 54.47003906 26.74929688 55.00195312 25.58984375 C57.66431986 19.63867105 59.68752721 14.53789212 60 8 C57.36 7.01 54.72 6.02 52 5 C52 3.35 52 1.7 52 0 C60.91 0 69.82 0 79 0 C79 1.65 79 3.3 79 5 C78.20335938 5.30858948 78.20335938 5.30858948 77.390625 5.62341309 C71.89634543 8.00867485 69.37393097 10.6142677 67 16.15625 C66.51273438 17.20782288 66.51273438 17.20782288 66.015625 18.28063965 C65.33258271 19.76272648 64.66086445 21.25007948 64 22.7421875 C63.0227147 24.94871446 62.01682205 27.13957442 61 29.328125 C58.97208472 33.70626339 56.98293111 38.10133982 55 42.5 C51.01876181 51.33142827 47.00189119 60.13378586 42.6875 68.80859375 C42.36201172 69.46593506 42.03652344 70.12327637 41.70117188 70.80053711 C37.5163912 79.12659762 31.29203177 88.90265608 22 92 C16.45583865 92.69743431 11.4627833 93.00504101 6.8125 89.5625 C4.2854743 86.99284977 3.48409208 85.02691183 3.25 81.4375 C3.54757213 78.11367541 4.08791578 76.86103635 5.9375 73.9375 C9.44747551 71.71690325 11.55195121 71.1677039 15.65234375 71.359375 C19.39236634 72.37994689 21.62868808 74.72604689 24.2734375 77.46875 C25.98945173 79.33176146 25.98945173 79.33176146 29 79 C30.9749704 76.76412189 30.9749704 76.76412189 32.75 73.875 C33.70132813 72.44800781 33.70132813 72.44800781 34.671875 70.9921875 C36.29375387 67.33818981 35.89529781 65.84568776 35 62 C33.95667724 59.29171542 33.95667724 59.29171542 32.5949707 56.60888672 C32.09387283 55.58117157 31.59277496 54.55345642 31.07649231 53.49459839 C30.53175766 52.4006778 29.98702301 51.3067572 29.42578125 50.1796875 C28.86432907 49.04346954 28.30287689 47.90725159 27.72441101 46.73660278 C26.53569712 44.33895174 25.34349754 41.94340718 24.14575195 39.55029297 C22.61744209 36.49408 21.11146123 33.42744478 19.61091328 30.35752678 C18.16783944 27.4160402 16.70163204 24.48612589 15.23828125 21.5546875 C14.70366776 20.45671844 14.16905426 19.35874939 13.61824036 18.22750854 C10.07357906 11.22258512 7.60674074 7.53558025 0 5 C0 3.35 0 1.7 0 0 Z " fill="#1B61A2" transform="translate(2840,1985)"/>
<path d="M0 0 C4.28687938 3.58292866 6.53727495 6.53555386 7.41796875 12.11328125 C6.75523893 16.16329681 5.42233207 18.37995009 2.85546875 21.55078125 C0.31191898 22.82255613 -1.61618277 22.79024184 -4.45703125 22.86328125 C-5.40191406 22.90066406 -6.34679688 22.93804688 -7.3203125 22.9765625 C-11.11211426 22.40490774 -12.62915741 21.4520879 -15.14453125 18.55078125 C-15.51686142 15.58405448 -15.62535585 13.23221884 -15.45703125 10.30078125 C-15.43447266 9.55570313 -15.41191406 8.810625 -15.38867188 8.04296875 C-15.32996686 6.21137225 -15.24028882 4.38081472 -15.14453125 2.55078125 C-20.18988051 2.31214915 -20.18988051 2.31214915 -24.83203125 3.98828125 C-30.68416679 10.47308009 -31.77330033 17.57324184 -31.58203125 26.05078125 C-31.58912109 26.93636719 -31.59621094 27.82195312 -31.60351562 28.734375 C-31.53324115 36.0969782 -30.51314905 42.76765534 -25.64453125 48.48828125 C-19.83458255 53.28148893 -15.4737194 53.15424694 -8.14453125 52.55078125 C-2.55914697 50.79241953 0.3782211 47.05147413 3.85546875 42.55078125 C5.50546875 43.21078125 7.15546875 43.87078125 8.85546875 44.55078125 C7.10829977 50.76293761 2.71400161 55.76364934 -2.6875 59.140625 C-12.39112764 64.08560511 -23.03143626 65.45975218 -33.65234375 62.609375 C-43.95785901 58.48975173 -49.64749328 52.894561 -54.39453125 42.92578125 C-57.30715383 33.70247641 -56.95421731 24.43525666 -53.14453125 15.55078125 C-48.64229631 7.78056892 -41.52379957 0.90248858 -33.14453125 -2.44921875 C-23.1872 -5.07945719 -8.87870953 -5.5786582 0 0 Z " fill="#1960A2" transform="translate(3577.14453125,1987.44921875)"/>
<path d="M0 0 C4.0576589 2.55052845 6.7892455 5.51599099 8.9375 9.8125 C9.31462577 14.80941647 9.03040612 17.80317725 5.9375 21.8125 C1.69104956 24.64346696 -2.07664256 24.34527903 -7.0625 23.8125 C-11.57565789 21.78618421 -11.57565789 21.78618421 -13.0625 18.8125 C-13.52494252 13.43526143 -13.13060447 8.85350465 -11.0625 3.8125 C-15.50991848 3.46368286 -18.94602826 3.20572188 -22.9375 5.375 C-30.23602966 13.74684284 -29.67801827 25.22643305 -29.23730469 35.67919922 C-28.72514414 41.92956081 -26.33563468 46.90317127 -22.0625 51.4375 C-17.97091128 54.55700501 -13.85535194 54.48128417 -8.86328125 54.1953125 C-1.66986676 53.21211219 1.70923358 49.28525618 5.9375 43.8125 C7.5875 44.4725 9.2375 45.1325 10.9375 45.8125 C9.90667553 51.67123656 5.4990073 55.81241896 0.94140625 59.37109375 C-7.78914798 65.10637012 -16.83439892 65.64465241 -27.0625 64.8125 C-36.80127122 62.78712666 -44.59298167 57.11806487 -50.0625 48.8125 C-54.52448818 40.52595053 -54.36580818 29.8558159 -52.40625 20.76953125 C-48.99653936 11.2899478 -41.84495519 4.47864371 -33.0625 -0.1875 C-23.87341158 -4.14901812 -9.05770423 -4.31836573 0 0 Z " fill="#185FA1" transform="translate(3198.0625,1986.1875)"/>
<path d="M0 0 C3.48715894 1.98396827 6.19673639 4.39347279 8 8 C8.51512617 12.09157355 8.94367269 16.23589546 6.953125 19.95703125 C4.63722512 22.75654552 2.68394887 24.7981908 -0.98828125 25.23828125 C-5.15410332 25.3713075 -7.37869331 25.38831668 -11 23.125 C-14.71932063 19.17322183 -14.08437656 16.2313468 -14 11 C-15.093125 11.433125 -16.18625 11.86625 -17.3125 12.3125 C-17.92738281 12.55613281 -18.54226562 12.79976562 -19.17578125 13.05078125 C-21.27446625 14.14281649 -22.48843109 15.17702761 -24 17 C-24.43116962 18.95036468 -24.43116962 18.95036468 -24.34057617 21.10424805 C-24.34034958 21.92487228 -24.34012299 22.74549652 -24.33988953 23.59098816 C-24.32440567 24.47232925 -24.30892181 25.35367035 -24.29296875 26.26171875 C-24.28660149 27.62040825 -24.28660149 27.62040825 -24.28010559 29.00654602 C-24.26330848 31.90049933 -24.2256545 34.79375706 -24.1875 37.6875 C-24.17245449 39.64907849 -24.15876585 41.61066789 -24.14648438 43.57226562 C-24.11340157 48.38177856 -24.06161222 53.19077133 -24 58 C-20.37 58.66 -16.74 59.32 -13 60 C-13 61.65 -13 63.3 -13 65 C-27.19 65 -41.38 65 -56 65 C-56 63.35 -56 61.7 -56 60 C-55.43410156 59.87882812 -54.86820313 59.75765625 -54.28515625 59.6328125 C-53.18494141 59.38144531 -53.18494141 59.38144531 -52.0625 59.125 C-51.33160156 58.96257812 -50.60070313 58.80015625 -49.84765625 58.6328125 C-47.79299706 58.17038477 -47.79299706 58.17038477 -47 56 C-46.89100233 54.63278834 -46.84106191 53.26059076 -46.82299805 51.88916016 C-46.81016281 51.04132965 -46.79732758 50.19349915 -46.78410339 49.31997681 C-46.77671646 48.40227509 -46.76932953 47.48457336 -46.76171875 46.5390625 C-46.753647 45.59694916 -46.74557526 44.65483582 -46.73725891 43.68417358 C-46.7234158 41.68855634 -46.71269466 39.6929154 -46.70483398 37.69726562 C-46.68760763 34.64407604 -46.6437222 31.59196542 -46.59960938 28.5390625 C-46.58948374 26.60157047 -46.58096723 24.66406923 -46.57421875 22.7265625 C-46.54795662 21.35608261 -46.54795662 21.35608261 -46.52116394 19.95791626 C-46.49557454 14.86991871 -46.49557454 14.86991871 -48.82348633 10.47021484 C-51.43829907 8.70393303 -53.96605347 7.82743996 -57 7 C-57 5.35 -57 3.7 -57 2 C-46.312837 1.20414744 -35.71600323 0.87174996 -25 1 C-24.505 4.96 -24.505 4.96 -24 9 C-23.39671875 8.51789063 -22.7934375 8.03578125 -22.171875 7.5390625 C-20.97304687 6.59160156 -20.97304687 6.59160156 -19.75 5.625 C-18.96109375 4.99851562 -18.1721875 4.37203125 -17.359375 3.7265625 C-11.80086433 -0.34108935 -6.82897911 -1.13655788 0 0 Z " fill="#165FA1" transform="translate(2484,1984)"/>
<path d="M0 0 C6.6 0 13.2 0 20 0 C20 6.27 20 12.54 20 19 C25.94 19 31.88 19 38 19 C38 21.31 38 23.62 38 26 C32.39 26 26.78 26 21 26 C21.06893036 31.89030857 21.15692397 37.77991092 21.26245117 43.66967773 C21.29566727 45.67252764 21.32370952 47.6754704 21.34643555 49.6784668 C21.38004234 52.56078594 21.43236148 55.44225668 21.48828125 58.32421875 C21.49467117 59.21711105 21.5010611 60.11000336 21.50764465 61.029953 C21.61882865 65.75101632 21.7690017 69.26498101 25 73 C28.40934596 73.82304013 28.40934596 73.82304013 32.1875 73.8125 C33.45980469 73.86019531 34.73210938 73.90789062 36.04296875 73.95703125 C37.50669922 73.97830078 37.50669922 73.97830078 39 74 C39 75.65 39 77.3 39 79 C30.16439409 83.22145616 20.43938811 86.27761633 10.65234375 83.28125 C5.5759251 80.92806902 2.57481181 77.93186054 -0.08935547 72.97192383 C-1.42629083 68.6087833 -1.2453118 64.42350894 -1.1953125 59.88671875 C-1.1924826 58.91716751 -1.18965271 57.94761627 -1.18673706 56.94868469 C-1.17556991 53.86149595 -1.15047152 50.77460061 -1.125 47.6875 C-1.11496573 45.59049899 -1.10584066 43.49349342 -1.09765625 41.39648438 C-1.07564188 36.2642104 -1.04113571 31.1321549 -1 26 C-4.63 26 -8.26 26 -12 26 C-12 23.69 -12 21.38 -12 19 C-8.04 19 -4.08 19 0 19 C0 12.73 0 6.46 0 0 Z " fill="#1A61A2" transform="translate(3100,1967)"/>
<path d="M0 0 C0.01213028 1.00478142 0.01213028 1.00478142 0.02450562 2.02986145 C0.11042694 8.9889353 0.209925 15.9477202 0.31738281 22.90649414 C0.35571432 25.50507767 0.39055974 28.10371502 0.421875 30.70239258 C0.46743466 34.43330143 0.52544462 38.1638384 0.5859375 41.89453125 C0.59748871 43.06023148 0.60903992 44.2259317 0.62094116 45.42695618 C0.64081085 46.50785019 0.66068054 47.5887442 0.68115234 48.70239258 C0.69447601 49.65503494 0.70779968 50.60767731 0.7215271 51.58918762 C0.84459272 54.26041348 0.84459272 54.26041348 3 57 C6.55672179 58.2188121 6.55672179 58.2188121 10 59 C10 60.65 10 62.3 10 64 C-3.53 64 -17.06 64 -31 64 C-31 62.35 -31 60.7 -31 59 C-30.43410156 58.87882812 -29.86820313 58.75765625 -29.28515625 58.6328125 C-28.18494141 58.38144531 -28.18494141 58.38144531 -27.0625 58.125 C-26.33160156 57.96257812 -25.60070313 57.80015625 -24.84765625 57.6328125 C-22.79299706 57.17038477 -22.79299706 57.17038477 -22 55 C-21.89594932 53.62732006 -21.85139271 52.2498519 -21.83886719 50.87329102 C-21.82925964 50.02223282 -21.8196521 49.17117462 -21.80975342 48.29432678 C-21.8033786 46.91306862 -21.8033786 46.91306862 -21.796875 45.50390625 C-21.79117493 44.55942123 -21.78547485 43.61493622 -21.77960205 42.64183044 C-21.77014707 40.64200971 -21.7636161 38.64217336 -21.75976562 36.64233398 C-21.75005022 33.57833823 -21.71902756 30.51501038 -21.6875 27.45117188 C-21.68097105 25.51042066 -21.67572015 23.56966464 -21.671875 21.62890625 C-21.6595282 20.71009171 -21.6471814 19.79127716 -21.63446045 18.84461975 C-21.63746155 17.99040939 -21.64046265 17.13619904 -21.64355469 16.25610352 C-21.63990906 15.50490738 -21.63626343 14.75371124 -21.63250732 13.97975159 C-22.10117168 11.45496927 -23.03377811 10.5975977 -25 9 C-26.80190614 8.02284391 -26.80190614 8.02284391 -28.6875 7.3125 C-29.780625 6.879375 -30.87375 6.44625 -32 6 C-32 4.35 -32 2.7 -32 1 C-29.29191567 0.82805814 -26.58365937 0.66243176 -23.875 0.5 C-22.76318359 0.42845703 -22.76318359 0.42845703 -21.62890625 0.35546875 C-14.41904808 -0.06864055 -7.22036765 -0.04674218 0 0 Z " fill="#155DA0" transform="translate(3076,1985)"/>
<path d="M0 0 C24.44736842 0 24.44736842 0 30.8125 5.375 C35.31503023 10.77803628 35.43218367 15.87997563 35.31640625 22.703125 C34.61775025 29.98294803 31.63678954 35.32558916 26 40 C17.4801601 45.81842725 11.38234558 44 0 44 C0 29.48 0 14.96 0 0 Z " fill="#10497D" transform="translate(2547,1276)"/>
<path d="M0 0 C13.9 0 13.9 0 18 3 C22.74569427 7.74569427 24.15631917 11.52835416 24.25 18.1875 C24.19253982 23.92074874 23.676925 27.92307327 21 33 C18.5 35.375 18.5 35.375 16 37 C15.01 37.66 14.02 38.32 13 39 C8.47723068 40.29221981 4.96160157 40 0 40 C0 26.8 0 13.6 0 0 Z " fill="#FBFCFD" transform="translate(2990,1964)"/>
<path d="M0 0 C2.32164728 2.15919966 3.94129719 4.34355485 5.5625 7.0625 C6.94309381 9.37209151 8.08505492 11.08505492 10 13 C12.30164566 13.31948171 12.30164566 13.31948171 14.875 13.25 C15.73867187 13.25515625 16.60234375 13.2603125 17.4921875 13.265625 C20.36527603 13.1094587 20.36527603 13.1094587 24 11 C24 17.27 24 23.54 24 30 C14.43 30 4.86 30 -5 30 C-5.061875 26.865 -5.12375 23.73 -5.1875 20.5 C-5.21481201 19.52869141 -5.24212402 18.55738281 -5.27026367 17.55664062 C-5.32603997 11.65994685 -4.49379914 7.36197005 -2 2 C-1.34 1.34 -0.68 0.68 0 0 Z " fill="#F5F8FB" transform="translate(2610,1956)"/>
<path d="M0 0 C4.07337573 1.53712292 7.10098686 2.99097226 9 7 C9.69727061 11.58821281 9.6527872 14.90425005 7.25 18.9375 C3.0643279 22.7743661 -0.26917572 23.39574005 -5.81640625 23.25 C-10.05311765 22.76493823 -12.20296496 20.9894228 -14.8125 17.75 C-16.38686787 14.10409547 -16.61196879 11.94379885 -16 8 C-11.728792 1.41685373 -7.94611317 -0.82864495 0 0 Z " fill="#1860A1" transform="translate(3067,1950)"/>
<path d="M0 0 C0.14533755 3.582906 0.23407931 7.16505417 0.3125 10.75 C0.35439453 11.76578125 0.39628906 12.7815625 0.43945312 13.828125 C0.56363589 21.37843741 0.56363589 21.37843741 -2.39453125 24.640625 C-6.63035136 26.8506181 -9.12415652 27.34216445 -14 27 C-16.61593153 25.16884793 -16.96989455 24.09031634 -18 21 C-18.25052929 16.49047283 -18.28949849 12.9545883 -16 9 C-12.19291985 5.19291985 -5.70503921 0 0 0 Z " fill="#F7FAFC" transform="translate(2538,2014)"/>
<path d="M0 0 C4.06283817 0.84642462 5.46249851 2.38263699 8 5.625 C10.74428328 11.24424672 10 14.79028347 10 21.625 C3.07 21.625 -3.86 21.625 -11 21.625 C-11 13.32610796 -10.64491487 9.05624092 -5.6875 2.625 C-3 0.625 -3 0.625 0 0 Z " fill="#F1F5F9" transform="translate(3480,1988.375)"/>
<path d="M0 0 C0 0.99 0 1.98 0 3 C-1.38782485 3.8466034 -2.78569397 4.67675339 -4.1875 5.5 C-4.96480469 5.9640625 -5.74210937 6.428125 -6.54296875 6.90625 C-9.24103386 8.10729647 -11.0806982 8.20741043 -14 8 C-14.33 7.01 -14.66 6.02 -15 5 C-14.34 5 -13.68 5 -13 5 C-13 4.34 -13 3.68 -13 3 C-8.70614007 -0.4887612 -5.28129105 -0.26854022 0 0 Z " fill="#215789" transform="translate(475,1686)"/>
<path d="M0 0 C0 1.65 0 3.3 0 5 C-2.64 5.33 -5.28 5.66 -8 6 C-8.66 5.01 -9.32 4.02 -10 3 C-6.68152292 -0.06320961 -4.44849969 -0.3033068 0 0 Z " fill="#215889" transform="translate(480,1678)"/>
</svg>
