<?xml version="1.0" encoding="UTF-8"?>
<svg version="1.1" xmlns="http://www.w3.org/2000/svg" width="6000" height="3375">
<path d="M0 0 C1980 0 3960 0 6000 0 C6000 1113.75 6000 2227.5 6000 3375 C4020 3375 2040 3375 0 3375 C0 2261.25 0 1147.5 0 0 Z " fill="#164670" transform="translate(0,0)"/>
<path d="M0 0 C1316.7 0 2633.4 0 3990 0 C3990 477.51 3990 955.02 3990 1447 C2673.3 1447 1356.6 1447 0 1447 C0 969.49 0 491.98 0 0 Z " fill="#145C9E" transform="translate(1005,964)"/>
<path d="M0 0 C0.83824059 0.00002625 1.67648118 0.00005251 2.54012301 0.00007956 C3.50632121 -0.00231672 4.47251941 -0.00471301 5.46799635 -0.00718191 C7.08400619 -0.00349147 7.08400619 -0.00349147 8.73266269 0.00027352 C10.44138268 -0.00172036 10.44138268 -0.00172036 12.18462226 -0.00375452 C15.38225535 -0.0064546 18.57985062 -0.00461026 21.77748164 -0.00095154 C25.26025143 0.00193829 28.74301704 -0.00095442 32.22578669 -0.0031268 C38.37418196 -0.00614985 44.52256817 -0.0054054 50.67096326 -0.00229056 C59.90221576 0.00236501 69.1334614 0.00126014 78.36471449 -0.0009896 C94.16498883 -0.00467025 109.9652597 -0.00356221 125.76553391 0.0000615 C141.87850091 0.00373647 157.99146593 0.00522067 174.10443333 0.00404579 C175.63347745 0.00393631 175.63347745 0.00393631 177.19341136 0.00382462 C182.39760841 0.00344215 187.60180546 0.00302453 192.80600251 0.00259493 C230.88180861 -0.00047274 268.95761326 0.00140417 307.03341917 0.00573921 C345.64568398 0.01011912 384.25794801 0.01232168 422.87021307 0.011837 C424.69437121 0.01181557 424.69437121 0.01181557 426.55538102 0.0117937 C437.69960643 0.01166195 448.84383183 0.01150584 459.98805724 0.0113207 C487.93775801 0.0108575 515.88745878 0.01072509 543.83715955 0.01081192 C545.75864963 0.01081754 545.75864963 0.01081754 547.7189577 0.01082328 C610.92317282 0.01103764 674.12738765 0.01500733 737.33160261 0.01921463 C759.59085047 0.02069377 781.85009833 0.0221551 804.10934619 0.02355075 C805.49299427 0.02363751 806.87664234 0.02372428 808.30221915 0.02381368 C872.36051467 0.02780887 936.41881016 0.02924226 1000.47710579 0.03001672 C1004.66502761 0.03006748 1008.85294943 0.03011944 1013.04087125 0.03017172 C1038.29360843 0.03048581 1063.54634561 0.03077318 1088.79908279 0.03102969 C1151.58132223 0.03166859 1214.36356167 0.03262809 1277.14580111 0.03380489 C1278.57517388 0.03383152 1280.00454666 0.03385816 1281.47723377 0.0338856 C1374.07696453 0.03561359 1466.67669519 0.0386616 1559.27642588 0.0428133 C1561.49456978 0.04291273 1561.49456978 0.04291273 1563.75752467 0.04301417 C1608.77350903 0.04503492 1653.78949338 0.04715328 1698.80547774 0.04929074 C1748.62151775 0.05165569 1798.43755776 0.05400398 1848.25359777 0.05628013 C1849.75155736 0.05634863 1851.24951694 0.05641713 1852.79286924 0.05648771 C1995.03061876 0.06298654 2137.26836832 0.06679827 2279.50611796 0.06991392 C2285.52984465 0.07004606 2291.55357134 0.07017898 2297.57729804 0.07031194 C2353.00838838 0.07153533 2408.43947872 0.07272716 2463.87056906 0.07387936 C2465.34451506 0.07391 2466.81846105 0.07394064 2468.33707208 0.0739722 C2472.79978387 0.07406497 2477.26249566 0.07415772 2481.72520745 0.07425047 C2602.29172994 0.0767564 2722.85825243 0.07953761 2843.42477491 0.0824971 C2847.67885095 0.08260146 2851.93292698 0.0827056 2856.18700302 0.08280968 C2994.4345787 0.08619286 3132.68215436 0.09006355 3376.81911156 0.09914748 C3380.58435691 0.09929238 3384.34960226 0.09943702 3388.11484762 0.09958155 C3389.96359156 0.09965254 3389.96359156 0.09965254 3391.84968386 0.09972496 C3394.09283741 0.09981109 3396.33599095 0.09989718 3398.57914449 0.09998322 C3595.42241118 0.10754441 3792.26567781 0.11641794 3989.10894445 0.12494468 C3989.10894445 317.91494468 3989.10894445 635.70494468 3989.10894445 963.12494468 C2671.74894445 963.12494468 1354.38894445 963.12494468 -2.89105555 963.12494468 C-2.89105555 0.19101608 -2.89105555 0.19101608 0 0 Z " fill="#1E5485" transform="translate(1006.8910555454349,2411.875055315424)"/>
<path d="M0 0 C635 0 635 0 831 1 C835.62 0.67 840.24 0.34 845 0 C848.35595275 -0.00377162 851.66390849 0.02891757 855.01171875 0.15625 C855.87263626 0.18223267 856.73355377 0.20821533 857.62055969 0.23498535 C860.3098041 0.31662086 862.99861471 0.40733837 865.6875 0.5 C868.41566506 0.59200663 871.14381921 0.68184551 873.87226868 0.76501465 C875.55520881 0.81643469 877.23800361 0.87293197 878.920578 0.93518066 C882.24198571 1.03773138 884.82027178 1.05990941 888 0 C890.8878457 0.09079434 893.74443625 0.23964655 896.625 0.4375 C903.25352793 0.83934494 909.85866204 1.11412682 916.5 1.125 C917.56661865 1.13164673 917.56661865 1.13164673 918.65478516 1.13842773 C921.71555224 1.12984056 924.0725044 0.97583187 927 0 C929.00664306 -0.0940365 931.01630177 -0.12793376 933.02514648 -0.12939453 C934.26751572 -0.13254669 935.50988495 -0.13569885 936.78990173 -0.13894653 C938.15029943 -0.13715487 939.5106968 -0.13510345 940.87109375 -0.1328125 C942.27295448 -0.13348675 943.67481509 -0.13445779 945.07667542 -0.13571167 C948.02142444 -0.13718729 950.96614317 -0.13504136 953.91088867 -0.13037109 C957.65267369 -0.12472114 961.39438622 -0.12792329 965.13616848 -0.13394356 C968.03699773 -0.13759347 970.93781041 -0.13638966 973.83864021 -0.13381577 C975.21589225 -0.1331562 976.59314586 -0.1339403 977.97039604 -0.13629532 C979.91703124 -0.13888982 981.8636718 -0.13422329 983.81030273 -0.12939453 C984.91155991 -0.12859894 986.01281708 -0.12780334 987.14744568 -0.12698364 C992.44209148 0.04753263 997.72077779 0.56006482 1003 1 C1003 478.51 1003 956.02 1003 1448 C766.06 1448.33 529.12 1448.66 285 1449 C190.95 1449.33 96.9 1449.66 0 1450 C0 971.5 0 493 0 0 Z " fill="#184A77" transform="translate(0,963)"/>
<path d="M0 0 C1.2501847 0.00015598 2.50036941 0.00031196 3.7884385 0.00047267 C4.8340217 -0.00144447 4.8340217 -0.00144447 5.90072779 -0.00340034 C8.2708541 -0.00649871 10.64091561 -0.0023784 13.01103985 0.00162334 C14.72167141 0.0008847 16.43230282 -0.0002928 18.14293381 -0.00187286 C22.88646601 -0.00496203 27.62997703 -0.00175062 32.37350767 0.00240542 C37.50603214 0.00581683 42.63855429 0.00346981 47.77107918 0.00182265 C56.79024289 -0.00026269 65.80940002 0.00140482 74.82856297 0.00545603 C88.41415588 0.01153846 101.99974478 0.01182758 115.58533881 0.01099074 C138.34839514 0.00974634 161.11144799 0.01304284 183.87450325 0.0190956 C214.6533176 0.02726243 245.43212802 0.02919759 276.21094429 0.03006667 C350.24125901 0.03532407 424.27157289 0.04928508 498.30188667 0.06217116 C746.26594917 0.09310866 746.26594917 0.09310866 999.23938667 0.12467116 C999.23938667 478.29467116 999.23938667 956.46467116 999.23938667 1449.12467116 C945.48596268 1449.12467116 891.73282887 1449.12442586 837.97948372 1449.06120986 C835.99081694 1449.05893005 834.00215014 1449.05665876 832.01348334 1449.05439496 C828.89969588 1449.05084922 825.78590842 1449.04729854 822.67212099 1449.04372163 C811.66807771 1449.03108595 800.66403375 1449.01909153 789.65998976 1449.00709199 C769.37290463 1448.98495354 749.08582004 1448.96235739 728.79873573 1448.93947524 C708.79011478 1448.91690876 688.78149359 1448.89456117 668.77287209 1448.87248916 C666.88791528 1448.87040964 666.88791528 1448.87040964 664.96487854 1448.86828811 C658.57982183 1448.86124508 652.19476511 1448.85420581 645.80970838 1448.84716797 C600.89906033 1448.79765918 555.9884128 1448.74768497 511.07776558 1448.69742507 C500.2575955 1448.68531634 489.43742542 1448.67320928 478.61725533 1448.66110915 C477.94592424 1448.66035841 477.27459316 1448.65960766 476.58291871 1448.65883416 C445.20583948 1448.62374761 413.82875996 1448.58893124 382.45168036 1448.55418185 C380.40746532 1448.55191792 378.36325028 1448.54965388 376.31903524 1448.54738982 C362.76866293 1448.53238233 349.21829062 1448.51737944 335.6679183 1448.50237962 C308.07848016 1448.47183897 280.48904205 1448.44126919 252.89960396 1448.41068191 C251.63183423 1448.40927642 250.36406449 1448.40787093 249.0578775 1448.40642285 C164.78504668 1448.31299206 80.51221662 1448.21888656 -3.76061333 1448.12467116 C-3.76611123 1403.85326819 -3.77138321 1359.5818652 -3.77648247 1315.31046218 C-3.77658226 1314.44419681 -3.77668206 1313.57793145 -3.77678488 1312.68541562 C-3.78746879 1219.893434 -3.79669279 1127.10145238 -3.80295647 1034.30947036 C-3.80309592 1032.24911464 -3.80323537 1030.18875891 -3.80337482 1028.12840319 C-3.80629729 984.88426485 -3.80901403 941.6401265 -3.811493 898.39598814 C-3.81273843 876.67413605 -3.81402341 854.95228397 -3.81534577 833.23043188 C-3.81554502 829.95370214 -3.81574313 826.67697241 -3.81594121 823.40024267 C-3.81900243 772.92268382 -3.82291358 722.44512522 -3.82927788 671.96756667 C-3.82941478 670.88164322 -3.82955167 669.79571977 -3.82969272 668.67688955 C-3.83190519 651.16776347 -3.83418876 633.6586374 -3.83648177 616.14951133 C-3.84308248 565.73892542 -3.8491604 515.3283397 -3.85175312 464.9177534 C-3.85180665 463.88185094 -3.85186019 462.84594848 -3.85191535 461.77865504 C-3.85308091 439.04212861 -3.85397586 416.30560217 -3.85461431 393.56907571 C-3.85487594 384.42168791 -3.85517656 375.2743001 -3.85549057 366.1269123 C-3.855524 365.12574917 -3.85555742 364.12458604 -3.85559186 363.09308463 C-3.85668962 330.79601159 -3.86096515 298.49893993 -3.86689553 266.20186745 C-3.87285136 233.68746355 -3.87571504 201.17306099 -3.87423731 168.65865654 C-3.87403421 164.17266021 -3.87386684 159.68666389 -3.87372101 155.20066756 C-3.87369113 154.32123034 -3.87366125 153.44179311 -3.87363046 152.53570627 C-3.87324877 138.5709238 -3.87624336 124.60614413 -3.88062319 110.64136242 C-3.88485395 96.93311168 -3.88556396 83.22486461 -3.88244514 69.51661354 C-3.88072157 61.46458891 -3.88178249 53.41257586 -3.88683033 45.36055257 C-3.89026295 39.40587281 -3.88856481 33.45120214 -3.8847533 27.49652234 C-3.88403192 25.0853362 -3.88503071 22.67414885 -3.88784857 20.26296424 C-3.89140437 17.01764682 -3.88893441 13.77239134 -3.88481182 10.52707601 C-3.8873207 9.57564539 -3.88982958 8.62421477 -3.89241448 7.64395292 C-3.87183709 0.17485478 -3.87183709 0.17485478 0 0 Z " fill="#1A4D7A" transform="translate(5000.760613325983,962.8753288350999)"/>
<path d="M0 0 C1.21095255 -0.00256411 2.42190509 -0.00512821 3.66955317 -0.00777002 C5.01360366 -0.00556184 6.357654 -0.0032629 7.70170419 -0.00088333 C9.1372699 -0.00200031 10.57283533 -0.00355552 12.00840014 -0.00550923 C15.97779885 -0.00962783 19.94717378 -0.00747971 23.9165725 -0.00436337 C28.2418075 -0.00206716 32.56703839 -0.00556489 36.89227258 -0.00833018 C44.51022874 -0.01239217 52.12817809 -0.01270616 59.74613495 -0.01062424 C71.15057923 -0.00752457 82.55501723 -0.01015635 93.95946105 -0.01392295 C113.39307722 -0.0201689 132.82669117 -0.02162726 152.26030819 -0.02050548 C171.96366661 -0.01938243 191.66702315 -0.0204102 211.37038128 -0.02407794 C212.61328979 -0.02430759 213.8561983 -0.02453725 215.1367707 -0.02477386 C220.19866692 -0.02571546 225.26056313 -0.02667114 230.32245934 -0.02764505 C282.46637677 -0.03766286 334.61029262 -0.04083733 386.7542108 -0.04141348 C392.44368763 -0.04147673 398.13316445 -0.04154325 403.82264128 -0.04161404 C405.24862858 -0.04163173 406.67461588 -0.0416491 408.10060319 -0.04166616 C440.08950655 -0.04205377 472.07840969 -0.04423172 504.06731294 -0.04679641 C511.20435287 -0.04736797 518.34139281 -0.04792194 525.47843274 -0.04847705 C526.54108854 -0.04855973 526.54108854 -0.04855973 527.62521214 -0.04864408 C531.92551965 -0.04897858 536.22582715 -0.04931235 540.52613466 -0.04964564 C542.68033038 -0.04981272 544.8345261 -0.04998023 546.98872182 -0.05014778 C580.48398679 -0.05274978 613.97925178 -0.05498004 647.47451679 -0.05682998 C648.20436159 -0.05687035 648.93420638 -0.05691072 649.68616768 -0.05695231 C696.20146377 -0.05951582 742.71675972 -0.06041477 789.23205587 -0.06015198 C791.51971315 -0.06013922 793.80737043 -0.06012726 796.09502771 -0.06011557 C812.16712937 -0.06003323 828.23923103 -0.05993052 844.3113327 -0.05982269 C848.91964994 -0.05979192 853.52796718 -0.05976185 858.13628443 -0.05973187 C861.98022508 -0.05970678 865.82416573 -0.05968099 869.66810638 -0.05965376 C942.27455815 -0.05914231 1014.88100882 -0.0605607 1087.48746006 -0.07000117 C1088.25189942 -0.07010053 1089.01633878 -0.07019989 1089.80394296 -0.07030226 C1113.68858134 -0.0734136 1137.57321968 -0.0767801 1161.45785801 -0.08019404 C1185.96492409 -0.08369541 1210.47199017 -0.08716584 1234.97905628 -0.09045844 C1235.73362323 -0.09055997 1236.48819017 -0.09066149 1237.26562278 -0.0907661 C1284.51447873 -0.09711423 1331.76333438 -0.10103692 1379.01219074 -0.10231643 C1379.74182209 -0.10233646 1380.47145343 -0.10235648 1381.22319481 -0.10237712 C1413.26525155 -0.1032524 1445.30730827 -0.10357223 1477.34936502 -0.10328623 C1490.23955009 -0.10317195 1503.12973516 -0.10311588 1516.01992022 -0.10308291 C1518.15720823 -0.10307651 1520.29449624 -0.10306743 1522.43178424 -0.10305776 C1555.13306766 -0.10292123 1587.83435006 -0.10426949 1620.53563301 -0.11010294 C1621.24111737 -0.11022861 1621.94660173 -0.11035428 1622.6734644 -0.11048376 C1634.02246283 -0.11251285 1645.37146123 -0.11465686 1656.72045964 -0.11681057 C1703.2061913 -0.12562501 1749.69191713 -0.12816294 1796.17764967 -0.12145026 C1802.49773129 -0.1205379 1808.81781292 -0.11969464 1815.13789456 -0.11889224 C1816.99633428 -0.11865211 1816.99633428 -0.11865211 1818.89231823 -0.11840713 C1838.54466397 -0.11605011 1858.19700227 -0.12042094 1877.8493466 -0.12756343 C1897.15328077 -0.13443949 1916.45720392 -0.13422737 1935.76113784 -0.12637129 C1947.09149597 -0.12197468 1958.4218217 -0.12309758 1969.75217718 -0.13223808 C1977.2665917 -0.13775771 1984.7809819 -0.13609126 1992.29539453 -0.12845529 C1996.56184457 -0.12432447 2000.8282306 -0.12335523 2005.09467686 -0.13120598 C2008.9650394 -0.13826993 2012.83528362 -0.13614558 2016.70564002 -0.12667229 C2018.09422212 -0.12488122 2019.48281365 -0.1264322 2020.87138669 -0.13175842 C2040.47725249 -0.20188834 2055.32821086 5.89694372 2069.70444004 19.3131165 C2085.52607832 35.70285669 2088.48171463 55.0484879 2088.40512364 76.77039189 C2088.40919636 78.72326047 2088.41454215 80.67612673 2088.42105381 82.62898869 C2088.43464898 87.89750985 2088.4294614 93.1658534 2088.41991656 98.43437738 C2088.41228041 103.96740223 2088.4193764 109.50041266 2088.42407505 115.03343816 C2088.42952067 124.32110915 2088.42237189 133.60870838 2088.40805332 142.89636846 C2088.39172434 153.61134571 2088.397022 164.32615171 2088.41353254 175.04112483 C2088.42717572 184.26699069 2088.42905338 193.4928052 2088.42121653 202.71867789 C2088.41655619 208.21748701 2088.41586997 213.7162158 2088.425826 219.21501965 C2088.43453486 224.38537729 2088.42840249 229.55551548 2088.41114323 234.72584958 C2088.40719946 236.61557125 2088.40827595 238.50531161 2088.41493122 240.39502568 C2088.44687427 250.391766 2088.19842589 259.52464923 2085.01694004 269.1256165 C2084.64053379 270.26256963 2084.26412754 271.39952275 2083.87631504 272.570929 C2081.03312357 279.43863799 2077.54496124 285.24024937 2073.01694004 291.1256165 C2072.29506504 292.1362415 2071.57319004 293.1468665 2070.82944004 294.1881165 C2061.24829148 305.282078 2046.34078511 312.66065134 2032.01694004 315.1256165 C2030.02872655 315.21429278 2028.03790144 315.25159694 2026.04771149 315.25217834 C2024.23592307 315.25634131 2024.23592307 315.25634131 2022.38753286 315.26058839 C2021.04698134 315.25861888 2019.70642995 315.25655859 2018.36587869 315.25441767 C2016.93399707 315.25578611 2015.50211581 315.25759227 2014.07023523 315.25979649 C2010.11107715 315.26460827 2006.15194179 315.26315784 2002.19278242 315.26073879 C1997.87866948 315.25920069 1993.56456164 315.26344983 1989.25045039 315.26696555 C1981.65207075 315.27234846 1974.0536973 315.27398145 1966.4553159 315.27321481 C1955.08007313 315.27208136 1943.70483759 315.27665416 1932.32959645 315.28234565 C1912.94549162 315.29186732 1893.56138824 315.29656647 1874.17728131 315.29865498 C1854.52390585 315.30078182 1834.87053263 315.30503766 1815.21715824 315.31189771 C1813.35751017 315.31254363 1813.35751017 315.31254363 1811.46029345 315.3132026 C1806.41118197 315.3149609 1801.36207049 315.31673054 1796.31295902 315.31851562 C1735.77705225 315.33987599 1675.24114568 315.35079212 1614.70523611 315.35967785 C1594.13456352 315.36270097 1573.56389104 315.36616157 1552.99321859 315.36995907 C1552.29305702 315.37008818 1551.59289545 315.3702173 1550.87151687 315.37035033 C1544.4982446 315.3715258 1538.12497233 315.37270498 1531.75170006 315.37388759 C1459.73792222 315.3872426 1387.72414404 315.39963675 1241.0050882 315.41464662 C1234.15328085 315.41517108 1227.3014735 315.4157084 1220.44966615 315.41624509 C1218.16144947 315.41642429 1215.8732328 315.41660326 1213.58501612 315.41678218 C1199.04848602 315.41791926 1184.51195592 315.41906533 1169.97542582 315.42023037 C1166.14019212 315.42053768 1162.30495842 315.42084362 1158.46972472 315.42114628 C1086.03742225 315.42686591 1013.60512328 315.43610796 941.17282383 315.45856328 C940.41036473 315.45879951 939.64790563 315.45903574 938.8623417 315.45927912 C914.27328912 315.46690698 889.68423668 315.47495581 865.09518425 315.48306439 C841.41850215 315.49087196 817.74182003 315.49859538 794.06513779 315.50595422 C792.93620594 315.50630535 792.93620594 315.50630535 791.7844674 315.50666358 C744.64892465 315.52130054 697.51338285 315.53110208 650.37783806 315.53582902 C649.64982636 315.53590261 648.92181465 315.53597621 648.17174199 315.53605203 C616.19896091 315.53927803 584.22617984 315.54144643 552.25339861 315.54243504 C539.39053612 315.54283585 526.52767364 315.54336924 513.66481116 315.54396646 C511.53207557 315.54406393 509.39933998 315.54415631 507.26660439 315.54424784 C474.64449662 315.54567653 442.02239335 315.55024602 409.40028827 315.56412382 C408.69679679 315.56442289 407.99330531 315.56472196 407.26849591 315.5650301 C395.95194367 315.56985864 384.63539155 315.57494055 373.31883945 315.58005609 C326.94215153 315.60101292 280.56548541 315.60963706 234.18879153 315.59993124 C227.87990555 315.59861274 221.57101955 315.59743471 215.26213352 315.59634061 C214.02539553 315.59612076 212.78865753 315.59590091 211.51444263 315.5956744 C191.91701331 315.59255783 172.31961502 315.60289534 152.7221929 315.61881616 C133.46039581 315.63418612 114.19864171 315.63533349 94.93684314 315.62126792 C83.63894329 315.61344696 72.34117461 315.61660137 61.04328781 315.63590508 C53.54145348 315.64763191 46.03971509 315.6448685 38.53788599 315.63029044 C34.2842648 315.6224312 30.03090043 315.62073916 25.77729691 315.63690948 C21.9102937 315.65149277 18.04375999 315.6473354 14.17677754 315.62885782 C12.15280094 315.62382465 10.12880347 315.63818386 8.10487943 315.6536138 C-11.52714312 315.50231302 -27.74963984 308.78113836 -41.98305996 295.1256165 C-47.53331292 289.03365885 -51.57772843 282.48661355 -54.92055996 275.0006165 C-55.20318691 274.36825078 -55.48581386 273.73588506 -55.77700527 273.08435674 C-60.55971186 261.64253811 -60.28108383 250.06422531 -60.2735873 237.88489385 C-60.27957907 235.93895822 -60.2863861 233.99302496 -60.29394253 232.04709477 C-60.31154595 226.78230491 -60.31629558 221.51758015 -60.3175741 216.2527637 C-60.31899972 212.95632202 -60.32327714 209.65989667 -60.32856853 206.36345906 C-60.34705168 194.84259859 -60.35524149 183.32178428 -60.35366543 171.80090947 C-60.35246523 161.09570514 -60.37354826 150.39070282 -60.40515275 139.68554957 C-60.43138852 130.46733019 -60.44202963 121.24917648 -60.44075461 112.0309201 C-60.44024702 106.53748416 -60.44581671 101.0442278 -60.46711071 95.55082936 C-60.48661591 90.37800581 -60.48653431 85.20553085 -60.47207744 80.03269429 C-60.47000324 78.14625895 -60.4746062 76.25980106 -60.48679836 74.37340398 C-60.61603883 52.97159708 -56.3800155 35.13606931 -41.12368496 19.23108525 C-40.06407558 18.18887822 -40.06407558 18.18887822 -38.98305996 17.1256165 C-38.42102871 16.56487431 -37.85899746 16.00413213 -37.27993496 15.42639775 C-27.13297824 6.04292564 -13.85497031 0.00159339 0 0 Z " fill="#FEFEFE" transform="translate(1985.9830599576235,1847.8743834979832)"/>
<path d="M0 0 C1316.7 0 2633.4 0 3990 0 C3990 477.51 3990 955.02 3990 1447 C2673.3 1447 1356.6 1447 0 1447 C0 969.49 0 491.98 0 0 Z M12 12 C12 481.59 12 951.18 12 1435 C1320.78 1435 2629.56 1435 3978 1435 C3978 965.41 3978 495.82 3978 12 C2669.22 12 1360.44 12 12 12 Z " fill="#FEFEFE" transform="translate(1005,964)"/>
<path d="M0 0 C27.06 0 54.12 0 82 0 C86.62 8.91 91.24 17.82 96 27 C99.75010855 34.1348126 99.75010855 34.1348126 103.5078125 41.265625 C106.35589679 46.66803468 109.17774853 52.08406283 112 57.5 C115.652127 64.50772863 119.31463407 71.50969301 123 78.5 C127.20305504 86.47224633 131.37387512 94.46103957 135.5390625 102.453125 C139.07412842 109.23320015 142.62762183 116.00328484 146.19555664 122.76611328 C148.53791694 127.20977087 150.86648517 131.66030362 153.18359375 136.1171875 C153.72435547 137.15681641 154.26511719 138.19644531 154.82226562 139.26757812 C155.87570935 141.29421533 156.92785494 143.32152798 157.97851562 145.34960938 C158.45869141 146.27322266 158.93886719 147.19683594 159.43359375 148.1484375 C159.85697021 148.96489746 160.28034668 149.78135742 160.71655273 150.62255859 C162.07034528 153.1303067 163.51644109 155.56714724 165 158 C165.0276368 155.29159356 165.04713583 152.58348395 165.0625 149.875 C165.07087891 149.13378906 165.07925781 148.39257812 165.08789062 147.62890625 C165.10781077 142.88791246 164.88383165 138.2167838 164.50099182 133.49069214 C163.99663693 126.59595308 163.86444532 119.75495715 163.88647461 112.84423828 C163.88632858 111.61324402 163.88618256 110.38224976 163.8860321 109.11395264 C163.88660302 105.78841613 163.89156399 102.46294431 163.89860606 99.13741922 C163.90492378 95.64344384 163.90544998 92.14946728 163.90663147 88.65548706 C163.90972025 82.0614921 163.91790005 75.46751403 163.92798096 68.87352645 C163.9403246 60.61751048 163.94574418 52.36149167 163.95117188 44.10546875 C163.96086731 29.40363273 163.98090671 14.70183348 164 0 C182.48 0 200.96 0 220 0 C220 76.23 220 152.46 220 231 C192.94 231 165.88 231 138 231 C132.18144427 219.94474412 126.37214321 208.89342281 120.66741943 197.78039551 C118.83792995 194.2169669 117.00507217 190.65527231 115.171875 187.09375 C114.81056488 186.39179504 114.44925476 185.68984009 114.07699585 184.96661377 C111.02988304 179.05048711 107.95904306 173.14696146 104.875 167.25 C100.43569446 158.76165755 96.02314353 150.25972841 91.625 141.75 C91.15077103 140.83247955 91.15077103 140.83247955 90.66696167 139.89642334 C90.19264206 138.97872162 90.19264206 138.97872162 89.70874023 138.04248047 C89.0701538 136.80696405 88.43156331 135.57144972 87.79296875 134.3359375 C87.47666 133.72394501 87.16035126 133.11195251 86.8344574 132.48141479 C83.54079466 126.1098496 80.23959546 119.74219841 76.9375 113.375 C76.37272949 112.28525879 75.80795898 111.19551758 75.22607422 110.07275391 C72.51342301 104.83983262 69.79745905 99.60869035 67.0717926 94.38253784 C65.77534652 91.89621548 64.48063175 89.40899354 63.18606567 86.92169189 C62.27279454 85.16875202 61.35701015 83.41712226 60.44116211 81.66552734 C59.88823486 80.60285645 59.33530762 79.54018555 58.765625 78.4453125 C58.27868164 77.51219238 57.79173828 76.57907227 57.29003906 75.61767578 C56.05782823 73.11734184 54.99658274 70.60205753 54 68 C53.34 68 52.68 68 52 68 C52.15405304 68.54021286 52.30810608 69.08042572 52.46682739 69.63700867 C59.21981499 99.565874 55.24292275 133.71715231 55.14405417 164.30293572 C55.11899306 172.19738521 55.10844442 180.09184848 55.09765625 187.98632812 C55.07845778 201.99094215 55.03835127 215.9953964 55 230 C36.85 230 18.7 230 0 230 C0 154.1 0 78.2 0 0 Z " fill="#FDFEFE" transform="translate(1594,1246)"/>
<path d="M0 0 C27.06 0 54.12 0 82 0 C95.70091339 25.11834121 95.70091339 25.11834121 102.02606201 37.53112793 C103.94343995 41.29346964 105.8708398 45.05067873 107.796875 48.80859375 C108.1681955 49.53366119 108.53951599 50.25872864 108.92208862 51.00576782 C112.4452064 57.88067388 116.03540481 64.71888201 119.6484375 71.546875 C122.45567338 76.85238184 125.22668737 82.17670536 128 87.5 C132.05130635 95.27388546 136.12016343 103.0381407 140.20874023 110.79248047 C144.02322784 118.0321757 147.8062353 125.28817522 151.58300781 132.54760742 C153.95389789 137.09979361 156.33679446 141.64430004 158.76171875 146.16796875 C159.18380615 146.95671387 159.60589355 147.74545898 160.04077148 148.55810547 C160.8270185 150.02392515 161.61671152 151.48790346 162.41040039 152.94970703 C165 157.779665 165 157.779665 165 160 C165.66 160 166.32 160 167 160 C166.84647568 159.18368103 166.69295135 158.36736206 166.53477478 157.52630615 C163.91581174 140.25685775 164.86355878 122.33592976 164.89860606 104.91362286 C164.90495571 101.21148051 164.90545241 97.5093369 164.90663147 93.80718994 C164.90971117 86.83090274 164.91787811 79.85463164 164.92798096 72.87835145 C164.93924794 64.92157212 164.94467893 56.96479192 164.94967639 49.00800657 C164.96006445 32.67199353 164.97836688 16.33600261 165 0 C183.15 0 201.3 0 220 0 C220 75.9 220 151.8 220 230 C192.94 230 165.88 230 138 230 C131.24590649 217.61749522 124.637759 205.42123858 118.40234375 192.8125 C116.15051021 188.27445378 113.81166016 183.78752503 111.4375 179.3125 C106.7618635 170.4947974 102.18871366 161.62594695 97.625 152.75 C92.26945391 142.33630041 86.89506475 131.93340971 81.46630859 121.55761719 C77.69997942 114.35481867 73.9661712 107.13545908 70.23764038 99.91305542 C64.89746701 89.56916122 59.52034801 79.24914268 54 69 C54.02978156 69.6185253 54.05956312 70.23705059 54.09024715 70.87431908 C54.93456839 88.95311366 55.13766818 107.00403793 55.10139394 125.09859896 C55.09500854 128.84074487 55.09454491 132.58289221 55.09336853 136.32504272 C55.09029887 143.36487885 55.08214639 150.40469886 55.07201904 157.44452798 C55.0607197 165.47883312 55.05531316 173.51313916 55.05032361 181.5474503 C55.03995844 198.03164437 55.02166954 214.51581633 55 231 C36.85 231 18.7 231 0 231 C0 154.77 0 78.54 0 0 Z " fill="#FEFEFE" transform="translate(2098,1246)"/>
<path d="M0 0 C26.73 0 53.46 0 81 0 C86.6368522 10.02107057 92.15551201 19.99237604 97.3722229 30.22344971 C99.21300049 33.83328696 101.06438181 37.43768782 102.9140625 41.04296875 C103.27335342 41.74397705 103.63264435 42.44498535 104.00282288 43.16723633 C106.73971676 48.50401876 109.50899978 53.82286778 112.3125 59.125 C115.89741576 65.90511722 119.45624397 72.69826572 123 79.5 C126.65206913 86.50775858 130.31463422 93.5096933 134 100.5 C137.68536644 107.49030796 141.34767969 114.49237146 145 121.5 C148.82580098 128.83728712 152.65415203 136.17319627 156.5 143.5 C157.09554687 144.63791992 157.09554687 144.63791992 157.703125 145.79882812 C158.07953125 146.51490234 158.4559375 147.23097656 158.84375 147.96875 C159.32618164 148.88817383 159.32618164 148.88817383 159.81835938 149.82617188 C160.87938335 151.77810524 161.970017 153.70794718 163.07385254 155.63586426 C163.7094812 156.74602905 164.34510986 157.85619385 165 159 C164.97021844 158.37803804 164.94043688 157.75607609 164.90975285 157.1152668 C164.07890752 139.24093892 163.86188835 121.39788198 163.89860606 103.50718832 C163.90499517 99.84912412 163.90545537 96.19105843 163.90663147 92.5329895 C163.9097001 85.65252505 163.91785107 78.77207709 163.92798096 71.8916198 C163.93928365 64.03868975 163.94468766 56.18575877 163.94967639 48.33282256 C163.96003919 32.22187061 163.97832669 16.11094131 164 0 C182.15 0 200.3 0 219 0 C219 75.9 219 151.8 219 230 C191.94 230 164.88 230 137 230 C131.21815581 219.01449603 125.44070444 208.03204235 119.75 197 C118.78311854 195.12785407 117.81594271 193.2558604 116.84873962 191.38388062 C116.19393148 190.11652375 115.53919669 188.84912898 114.88453674 187.58169556 C111.57551105 181.17601361 108.25726062 174.77512442 104.9375 168.375 C104.36418945 167.26962891 103.79087891 166.16425781 103.20019531 165.02539062 C102.04480224 162.79782919 100.88936616 160.57029007 99.73388672 158.34277344 C96.82195804 152.72884391 93.91103226 147.11439439 91 141.5 C89.83333808 139.24999754 88.66667142 136.99999754 87.5 134.75 C80.5 121.25 80.5 121.25 78.74731445 117.86962891 C77.58980897 115.63742398 76.4320968 113.40532621 75.27416992 111.17333984 C72.54326299 105.90870894 69.81445734 100.64302032 67.0930481 95.37347412 C65.80951748 92.88845011 64.52479968 90.40404075 63.23999023 87.91967773 C62.33526767 86.16905506 61.43225998 84.41754647 60.52929688 82.66601562 C59.97951172 81.60318359 59.42972656 80.54035156 58.86328125 79.4453125 C58.38157471 78.51219238 57.89986816 77.57907227 57.40356445 76.61767578 C56.01371225 74.02557363 54.53453505 71.50868546 53 69 C53.14541848 72.375018 53.29142487 75.75001036 53.4375 79.125 C53.47681641 80.03765625 53.51613281 80.9503125 53.55664062 81.890625 C53.59853516 82.85742188 53.64042969 83.82421875 53.68359375 84.8203125 C53.72782471 85.86501709 53.77205566 86.90972168 53.81762695 87.98608398 C53.94258095 90.83797516 54.08990364 93.68799381 54.24621582 96.53833008 C55.04367578 111.61171093 55.13016409 126.65067079 55.09765625 141.7421875 C55.09578569 144.33391289 55.09436481 146.92563863 55.09336853 149.5173645 C55.08997667 155.57631371 55.08214454 161.63524133 55.07201904 167.69418252 C55.05960757 175.29090971 55.05424105 182.88764015 55.04882812 190.484375 C55.03917502 203.98959779 55.01912921 217.49477995 55 231 C36.85 231 18.7 231 0 231 C0 154.77 0 78.54 0 0 Z " fill="#FEFEFE" transform="translate(3310,1246)"/>
<path d="M0 0 C1.17280014 0.00539291 1.17280014 0.00539291 2.36929321 0.01089478 C3.18873917 0.01074875 4.00818512 0.01060272 4.85246277 0.01045227 C7.57416385 0.01115164 10.29579737 0.01894515 13.01748657 0.02676392 C14.89935773 0.02862801 16.78122938 0.03005195 18.6631012 0.03105164 C23.62631561 0.0348775 28.58950096 0.04470836 33.55270386 0.05575562 C38.61322639 0.06596827 43.67375359 0.07054894 48.73428345 0.07559204 C58.67114521 0.08633057 68.60798535 0.10340781 78.54483032 0.12442017 C79.15133675 1.98648605 79.15133675 1.98648605 79.77009583 3.88616943 C88.97662192 32.14937324 98.24451533 60.39196329 107.54483032 88.62442017 C108.12306128 90.37984073 108.70128799 92.13526269 109.2795105 93.89068604 C111.61725617 100.9877679 113.95512615 108.0848088 116.29312134 115.18180847 C121.66397189 131.48514793 127.03421762 147.7886859 132.39857292 164.09416389 C133.67439459 167.97210686 134.95054823 171.84993962 136.22769165 175.72744751 C140.92617318 189.99317498 145.61435549 204.26218375 150.22061157 218.55801392 C150.56077805 219.60747696 150.90094452 220.65694 151.25141907 221.73820496 C151.70857048 223.16386024 151.70857048 223.16386024 152.17495728 224.61831665 C152.44129471 225.44556747 152.70763214 226.2728183 152.98204041 227.12513733 C153.54483032 229.12442017 153.54483032 229.12442017 153.54483032 231.12442017 C131.10483032 231.12442017 108.66483032 231.12442017 85.54483032 231.12442017 C82.85745594 221.71860984 80.24235226 212.33887194 77.79483032 202.87442017 C77.32109985 201.06264282 77.32109985 201.06264282 76.83779907 199.21426392 C76.54002563 198.06570923 76.2422522 196.91715454 75.93545532 195.73379517 C75.66765259 194.7022229 75.39984985 193.67065063 75.12393188 192.6078186 C74.54483032 190.12442017 74.54483032 190.12442017 74.54483032 188.12442017 C49.79483032 188.45442017 25.04483032 188.78442017 -0.45516968 189.12442017 C-4.21755663 203.09900026 -7.94514668 217.08432818 -11.45516968 231.12442017 C-34.22516968 231.12442017 -56.99516968 231.12442017 -80.45516968 231.12442017 C-77.08067885 217.62645686 -77.08067885 217.62645686 -75.25717163 212.12979126 C-74.8479245 210.88863052 -74.43867737 209.64746979 -74.01702881 208.36869812 C-73.57587237 207.04507257 -73.13467866 205.72145945 -72.69345093 204.39785767 C-72.22578323 202.98368919 -71.75856037 201.56937354 -71.29174805 200.15492249 C-70.30208118 197.15837647 -69.31002758 194.16263679 -68.315979 191.1675415 C-65.6823391 183.23094413 -63.06538417 175.2888345 -60.44735718 167.34707642 C-60.1859815 166.55463469 -59.92460583 165.76219296 -59.65530968 164.94573784 C-55.15561304 151.30095668 -50.74252682 137.63025139 -46.39266968 123.93692017 C-39.40866636 101.96757813 -32.23050053 80.06380398 -25.01520824 58.1695776 C-24.12321921 55.46282773 -23.23161951 52.75594973 -22.34013939 50.04903221 C-21.90329482 48.72283412 -21.46627588 47.39669346 -21.02907753 46.07061195 C-18.5244414 38.47196114 -16.04388601 30.86624882 -13.60263062 23.24697876 C-13.37036711 22.52288283 -13.1381036 21.79878691 -12.8988018 21.05274868 C-11.7809319 17.5665173 -10.66650706 14.07924837 -9.55786133 10.59007263 C-9.16480804 9.36157089 -8.77175476 8.13306915 -8.36679077 6.86734009 C-8.0207077 5.77950729 -7.67462463 4.6916745 -7.3180542 3.57087708 C-5.81948465 -0.67787898 -4.28659626 0.008321 0 0 Z " fill="#FEFEFE" transform="translate(1919.4551696777344,1244.8755798339844)"/>
<path d="M0 0 C27.72 0 55.44 0 84 0 C93.22489327 26.7722446 102.18115026 53.61754599 110.97747803 80.53294373 C111.19461205 81.19732389 111.41174606 81.86170406 111.6354599 82.54621696 C112.08099964 83.90952233 112.52649998 85.27284057 112.97196198 86.63617134 C118.35827713 103.11910377 123.78745413 119.58788396 129.21610069 136.05691242 C132.95135847 147.38922652 136.68100273 158.72338832 140.41049194 170.05760193 C143.18036851 178.47497901 145.95354728 186.89124411 148.73193359 195.30581665 C150.08991518 199.42236786 151.44329403 203.54041729 152.79473877 207.65911865 C153.38195434 209.44549529 153.97121228 211.23120208 154.56268311 213.01617432 C155.34275961 215.37103061 156.11575612 217.72808486 156.88671875 220.0859375 C157.10713333 220.74523254 157.32754791 221.40452759 157.55464172 222.08380127 C158.5931097 225.28757687 159 227.57012936 159 231 C136.89 231 114.78 231 92 231 C88.6264308 220.8792924 88.6264308 220.8792924 87.71875 217.3515625 C87.51789795 216.5788501 87.3170459 215.8061377 87.11010742 215.01000977 C86.90877197 214.22295654 86.70743652 213.43590332 86.5 212.625 C86.0695385 210.95949884 85.63855138 209.29413344 85.20703125 207.62890625 C85.00158691 206.83500488 84.79614258 206.04110352 84.58447266 205.22314453 C83.60794674 201.50875647 82.55193686 197.81688765 81.48046875 194.12890625 C81 192 81 192 81 188 C55.92 188 30.84 188 5 188 C4.34 191.3 3.68 194.6 3 198 C2.0778852 202.03529277 1.06939816 206.04758871 0.0625 210.0625 C-0.31551758 211.59874023 -0.31551758 211.59874023 -0.70117188 213.16601562 C-0.95318359 214.17470703 -1.20519531 215.18339844 -1.46484375 216.22265625 C-1.687771 217.11734619 -1.91069824 218.01203613 -2.14038086 218.93383789 C-3.28032104 222.99987275 -4.66463102 226.99389306 -6 231 C-28.44 231 -50.88 231 -74 231 C-73.31515168 226.20606173 -72.69259925 222.57671306 -71.21264648 218.1237793 C-70.84327972 217.00233521 -70.47391296 215.88089111 -70.09335327 214.72546387 C-69.69000763 213.52055298 -69.28666199 212.31564209 -68.87109375 211.07421875 C-68.44536217 209.78774574 -68.02021538 208.50107907 -67.59561157 207.2142334 C-66.68915901 204.47023923 -65.77931947 201.72740225 -64.86672974 198.98544312 C-62.68220275 192.42061831 -60.51592631 185.84976238 -58.34854698 179.27926064 C-57.85972746 177.79764196 -57.37069362 176.31609398 -56.88144875 174.83461571 C-52.52577894 161.64493276 -48.26782858 148.42591311 -44.0625 135.1875 C-37.53815343 114.66856396 -30.83333623 94.21141111 -24.09566498 73.76182556 C-17.47292907 53.66079475 -10.9189378 33.54178334 -4.59106445 13.34545898 C-4.22689926 12.18512146 -4.22689926 12.18512146 -3.8553772 11.00134277 C-3.41311736 9.59058788 -2.97245535 8.17933057 -2.53378296 6.76745605 C-1.80208636 4.43021359 -1.0973095 2.194619 0 0 Z " fill="#FEFEFE" transform="translate(2740,1245)"/>
<path d="M0 0 C20.79 0 41.58 0 63 0 C63 28.05 63 56.1 63 85 C87.09 85 111.18 85 136 85 C136 56.95 136 28.9 136 0 C156.46 0 176.92 0 198 0 C198 75.9 198 151.8 198 230 C177.54 230 157.08 230 136 230 C136 198.98 136 167.96 136 136 C111.91 136 87.82 136 63 136 C63 167.02 63 198.04 63 230 C42.21 230 21.42 230 0 230 C0 154.1 0 78.2 0 0 Z " fill="#FEFEFE" transform="translate(4117,1246)"/>
<path d="M0 0 C1.33366021 3.30838724 0.82994448 5.23536071 -0.4753418 8.47729492 C-0.8228801 9.35467819 -1.1704184 10.23206146 -1.52848816 11.1360321 C-1.91482925 12.0746962 -2.30117035 13.01336029 -2.69921875 13.98046875 C-3.09067581 14.94906326 -3.48213287 15.91765778 -3.88545227 16.91560364 C-4.71634484 18.96128289 -5.5531047 21.00458734 -6.39526367 23.0456543 C-7.68374503 26.17837044 -8.94336335 29.32166055 -10.20117188 32.46679688 C-11.01129522 34.45122617 -11.82308815 36.43497487 -12.63671875 38.41796875 C-13.01293869 39.36270554 -13.38915863 40.30744232 -13.77677917 41.2808075 C-14.14007828 42.14873428 -14.50337738 43.01666107 -14.87768555 43.91088867 C-15.19158737 44.67825851 -15.5054892 45.44562836 -15.8289032 46.23625183 C-17 48 -17 48 -19.01112366 48.78565979 C-21.42531095 49.04583555 -22.74821697 48.59995016 -24.984375 47.671875 C-25.74524414 47.36773682 -26.50611328 47.06359863 -27.29003906 46.75024414 C-28.10182617 46.42016357 -28.91361328 46.09008301 -29.75 45.75 C-43.11059107 40.66618187 -55.36125275 38.73586426 -69.62072754 38.53024292 C-71.62984704 38.50084363 -73.63868629 38.45392698 -75.64746094 38.40649414 C-88.29904372 38.40569482 -99.07917553 42.10499274 -109 50 C-109.67546875 50.52722656 -110.3509375 51.05445313 -111.046875 51.59765625 C-123.51783925 62.59433984 -127.66350952 80.10221747 -129 96 C-130.23646034 118.24149095 -128.43679807 141.64690975 -113 159 C-100.99106628 169.59611799 -88.44295194 171.17693175 -73.0625 171.125 C-71.92103516 171.12886719 -70.77957031 171.13273437 -69.60351562 171.13671875 C-67.92999023 171.13478516 -67.92999023 171.13478516 -66.22265625 171.1328125 C-65.21984619 171.13168457 -64.21703613 171.13055664 -63.18383789 171.12939453 C-59.44002213 170.97724191 -55.71797224 170.46474653 -52 170 C-52 157.79 -52 145.58 -52 133 C-65.53 133 -79.06 133 -93 133 C-93 117.16 -93 101.32 -93 85 C-60.33 85 -27.66 85 6 85 C6 126.25 6 167.5 6 210 C-36.18518294 225.34006653 -93.02911866 232.92588205 -135.22265625 214.1796875 C-159.46394455 202.83577192 -176.83189284 184.11622171 -186 159 C-186.67675781 157.15341797 -186.67675781 157.15341797 -187.3671875 155.26953125 C-193.17077524 138.60959661 -194.27238101 122.00783743 -194.3125 104.5 C-194.31617584 103.72418579 -194.31985168 102.94837158 -194.32363892 102.14904785 C-194.3465376 92.88720544 -193.87391675 84.10700241 -192 75 C-191.78859375 73.77667969 -191.5771875 72.55335937 -191.359375 71.29296875 C-186.32152825 45.61932666 -171.70628278 21.32554985 -150.01049805 6.29394531 C-137.26127855 -2.01366975 -122.90126719 -7.98638281 -108 -11 C-107.29278809 -11.14808105 -106.58557617 -11.29616211 -105.85693359 -11.44873047 C-74.47873812 -17.77064407 -28.47558666 -17.00190705 0 0 Z " fill="#FDFEFE" transform="translate(4064,1256)"/>
<path d="M0 0 C1 2 1 2 0.45036316 3.9354248 C-0.02357124 5.1188446 -0.02357124 5.1188446 -0.50708008 6.32617188 C-0.86107376 7.22049927 -1.21506744 8.11482666 -1.57978821 9.03625488 C-1.97240341 10.00397827 -2.36501862 10.97170166 -2.76953125 11.96875 C-3.16573166 12.95999878 -3.56193207 13.95124756 -3.97013855 14.97253418 C-4.81141688 17.07221284 -5.6565268 19.17035966 -6.50512695 21.26708984 C-7.80554764 24.48280801 -9.09215021 27.70379611 -10.37695312 30.92578125 C-11.19449378 32.96126652 -12.01282689 34.99643373 -12.83203125 37.03125 C-13.21857376 37.99897339 -13.60511627 38.96669678 -14.00337219 39.96374512 C-14.54854744 41.30523621 -14.54854744 41.30523621 -15.10473633 42.67382812 C-15.42307938 43.46277466 -15.74142242 44.25172119 -16.06941223 45.0645752 C-17 47 -17 47 -19 49 C-19.56807373 48.77860352 -20.13614746 48.55720703 -20.72143555 48.32910156 C-53.39566725 34.69968326 -53.39566725 34.69968326 -87.8125 36.625 C-91.93400918 38.63309476 -94.17435872 40.68484789 -96 45 C-96.7903102 49.20377768 -96.3781221 52.15781897 -94.625 56.0625 C-87.69219627 63.82063751 -78.1804618 68.12853379 -68.90982056 72.48165894 C-66.83494014 73.45631781 -64.7658866 74.44248589 -62.69799805 75.43188477 C-59.99588709 76.72392438 -57.29223001 78.01258742 -54.58642578 79.296875 C-33.29983798 89.40546836 -11.75677491 100.15708745 -2.65625 123.4375 C3.04604762 141.03316123 3.24014079 160.93860195 -4.85546875 177.796875 C-5.23316406 178.52390625 -5.61085937 179.2509375 -6 180 C-6.61294922 181.18335938 -6.61294922 181.18335938 -7.23828125 182.390625 C-14.24208268 194.93828051 -23.7812849 202.96944861 -36 210 C-36.70769531 210.41894531 -37.41539063 210.83789062 -38.14453125 211.26953125 C-40.06189204 212.31802266 -41.97565624 213.17513395 -44 214 C-44.99257813 214.40863281 -45.98515625 214.81726562 -47.0078125 215.23828125 C-83.22530764 228.73029318 -125.27640481 222.73239395 -160 208 C-161 207 -161 207 -161.12025452 204.79173279 C-161.11803391 203.81688431 -161.11581329 202.84203583 -161.11352539 201.83764648 C-161.11344986 200.73658066 -161.11337433 199.63551483 -161.11329651 198.50108337 C-161.10813522 197.3031868 -161.10297394 196.10529022 -161.09765625 194.87109375 C-161.0962413 193.65172623 -161.09482635 192.4323587 -161.09336853 191.17604065 C-161.08774967 187.2631693 -161.07519396 183.35035419 -161.0625 179.4375 C-161.05748743 176.79231853 -161.0529241 174.14713617 -161.04882812 171.50195312 C-161.03777411 165.00128274 -161.02101764 158.50064539 -161 152 C-159.5790312 152.46443633 -158.15885726 152.93130497 -156.73901367 153.39916992 C-155.55259529 153.7887513 -155.55259529 153.7887513 -154.34220886 154.186203 C-151.58958993 155.14259637 -148.94694333 156.27305098 -146.28271484 157.44848633 C-125.27184834 166.66254538 -95.28867812 175.95687482 -72.5625 168.25 C-68.92735543 166.77960445 -66.57484378 164.9653146 -64 162 C-62.30404288 156.91212864 -61.7046906 151.05024471 -63.84765625 146.00390625 C-71.65605755 135.66434123 -87.91090473 130.66693405 -99.23779297 125.5 C-121.0441843 115.52992528 -145.32428947 104.16463025 -154.51171875 80.2421875 C-160.98424563 62.06646813 -161.64623773 41.28634678 -153.8671875 23.39453125 C-152.69992104 21.1488961 -151.4273581 19.08891452 -150 17 C-149.52046875 16.27683594 -149.0409375 15.55367187 -148.546875 14.80859375 C-136.19453619 -2.43071406 -116.83968513 -10.62818733 -96.60546875 -14.6796875 C-64.58084596 -19.83469844 -29.17930018 -14.14237615 0 0 Z " fill="#FDFEFE" transform="translate(4706,1258)"/>
<path d="M0 0 C1 2 1 2 0.45036316 3.9354248 C-0.02357124 5.1188446 -0.02357124 5.1188446 -0.50708008 6.32617188 C-0.86107376 7.22049927 -1.21506744 8.11482666 -1.57978821 9.03625488 C-1.97240341 10.00397827 -2.36501862 10.97170166 -2.76953125 11.96875 C-3.16573166 12.95999878 -3.56193207 13.95124756 -3.97013855 14.97253418 C-4.81141688 17.07221284 -5.6565268 19.17035966 -6.50512695 21.26708984 C-7.80554764 24.48280801 -9.09215021 27.70379611 -10.37695312 30.92578125 C-11.19449378 32.96126652 -12.01282689 34.99643373 -12.83203125 37.03125 C-13.21857376 37.99897339 -13.60511627 38.96669678 -14.00337219 39.96374512 C-14.54854744 41.30523621 -14.54854744 41.30523621 -15.10473633 42.67382812 C-15.42307938 43.46277466 -15.74142242 44.25172119 -16.06941223 45.0645752 C-17 47 -17 47 -19 49 C-19.56807373 48.77860352 -20.13614746 48.55720703 -20.72143555 48.32910156 C-53.39566725 34.69968326 -53.39566725 34.69968326 -87.8125 36.625 C-91.93400918 38.63309476 -94.17435872 40.68484789 -96 45 C-96.7903102 49.20377768 -96.3781221 52.15781897 -94.625 56.0625 C-87.69219627 63.82063751 -78.1804618 68.12853379 -68.90982056 72.48165894 C-66.83494014 73.45631781 -64.7658866 74.44248589 -62.69799805 75.43188477 C-59.99588709 76.72392438 -57.29223001 78.01258742 -54.58642578 79.296875 C-33.29983798 89.40546836 -11.75677491 100.15708745 -2.65625 123.4375 C3.79268706 143.33707722 2.13054053 163.95735137 -7.30859375 182.58203125 C-14.2335897 195.03917693 -23.8916036 203.03292511 -36 210 C-36.70769531 210.41894531 -37.41539062 210.83789062 -38.14453125 211.26953125 C-40.06189204 212.31802266 -41.97565624 213.17513395 -44 214 C-44.99257812 214.40863281 -45.98515625 214.81726562 -47.0078125 215.23828125 C-83.22530764 228.73029318 -125.27640481 222.73239395 -160 208 C-161 207 -161 207 -161.12025452 204.79173279 C-161.11803391 203.81688431 -161.11581329 202.84203583 -161.11352539 201.83764648 C-161.11344986 200.73658066 -161.11337433 199.63551483 -161.11329651 198.50108337 C-161.10813522 197.3031868 -161.10297394 196.10529022 -161.09765625 194.87109375 C-161.0962413 193.65172623 -161.09482635 192.4323587 -161.09336853 191.17604065 C-161.08774967 187.2631693 -161.07519396 183.35035419 -161.0625 179.4375 C-161.05748743 176.79231853 -161.0529241 174.14713617 -161.04882812 171.50195312 C-161.03777411 165.00128274 -161.02101764 158.50064539 -161 152 C-159.5790312 152.46443633 -158.15885726 152.93130497 -156.73901367 153.39916992 C-155.55259529 153.7887513 -155.55259529 153.7887513 -154.34220886 154.186203 C-151.58958993 155.14259637 -148.94694333 156.27305098 -146.28271484 157.44848633 C-125.27184834 166.66254538 -95.28867812 175.95687482 -72.5625 168.25 C-68.92735543 166.77960445 -66.57484378 164.9653146 -64 162 C-62.30404288 156.91212864 -61.7046906 151.05024471 -63.84765625 146.00390625 C-71.68038368 135.63212956 -88.0215494 130.61025273 -99.38061523 125.4296875 C-121.10330222 115.50505931 -145.37539054 104.01565841 -154.5078125 80.24609375 C-161.10004332 61.76316089 -161.66701571 40.7492955 -153.25 22.8125 C-143.17011844 3.9065758 -126.89033149 -6.21643647 -106.875 -12.375 C-72.11773129 -21.27097138 -32.154616 -15.58442702 0 0 Z " fill="#FDFEFE" transform="translate(3729,1258)"/>
<path d="M0 0 C-0.6392678 5.54857437 -2.51630778 10.33668901 -4.5625 15.484375 C-5.08952515 16.82958221 -5.08952515 16.82958221 -5.62719727 18.20196533 C-6.74601594 21.05348703 -7.87300032 23.90170319 -9 26.75 C-9.75832709 28.68078755 -10.51614516 30.61177511 -11.2734375 32.54296875 C-12.65718888 36.06465136 -14.04160702 39.58605558 -15.43359375 43.10449219 C-15.71259521 43.81031433 -15.99159668 44.51613647 -16.27905273 45.24334717 C-17 47 -17 47 -18 49 C-21.38485322 48.40181634 -24.40799746 47.55147495 -27.58984375 46.2578125 C-41.58777212 40.67071852 -54.06299971 36.80713776 -69.25 36.625 C-70.16128662 36.61082031 -71.07257324 36.59664062 -72.01147461 36.58203125 C-83.38594403 36.66456708 -92.40210292 40.09081869 -100.87109375 47.67578125 C-115.52566049 62.91783619 -117.35164318 83.36330465 -117.375 103.375 C-117.37812698 104.47201233 -117.37812698 104.47201233 -117.38131714 105.59118652 C-117.37525434 124.39852588 -115.12395458 143.52432725 -102 158 C-93.90676504 166.07601531 -82.23591028 169.7442509 -71 170 C-70.01644531 170.05027344 -69.03289063 170.10054687 -68.01953125 170.15234375 C-53.73952467 170.58717952 -40.62892674 166.50694497 -27.3125 161.875 C-25.3152758 161.19000261 -23.3171637 160.50766971 -21.31864929 159.82644653 C-19.53421973 159.21673898 -17.75201823 158.60052174 -15.9699707 157.98388672 C-13.67691743 157.22424803 -11.34348042 156.5858701 -9 156 C-9 173.49 -9 190.98 -9 209 C-46.71963002 223.50755001 -89.55158813 228.19859997 -127.57421875 211.6171875 C-137.91388312 206.73620569 -145.9365942 199.95031455 -154 192 C-155.11568359 190.90365234 -155.11568359 190.90365234 -156.25390625 189.78515625 C-177.13191437 167.844862 -182.18821356 136.33152126 -182.18530273 107.31640625 C-182.18747673 104.90085886 -182.20565392 102.48577879 -182.22460938 100.0703125 C-182.33219316 70.93092696 -175.26627971 42.61693706 -156 20 C-155.45214844 19.29230469 -154.90429688 18.58460937 -154.33984375 17.85546875 C-138.42230806 -1.97300937 -111.598393 -12.47299464 -87.13671875 -15.6484375 C-57.61874173 -18.51140966 -26.60693164 -13.30346582 0 0 Z " fill="#FDFEFE" transform="translate(2542,1258)"/>
<path d="M0 0 C45.21 0 90.42 0 137 0 C137 16.5 137 33 137 50 C112.25 50 87.5 50 62 50 C62 64.52 62 79.04 62 94 C84.77 94 107.54 94 131 94 C131 110.5 131 127 131 144 C108.23 144 85.46 144 62 144 C62 172.71 62 201.42 62 231 C41.54 231 21.08 231 0 231 C0 154.77 0 78.54 0 0 Z " fill="#FCFDFD" transform="translate(1307,1246)"/>
<path d="M0 0 C57.75 0 115.5 0 175 0 C175 16.83 175 33.66 175 51 C156.52 51 138.04 51 119 51 C119 110.4 119 169.8 119 231 C98.54 231 78.08 231 57 231 C57 171.6 57 112.2 57 51 C38.19 51 19.38 51 0 51 C0 34.17 0 17.34 0 0 Z " fill="#FDFEFE" transform="translate(4348,1246)"/>
<path d="M0 0 C20.46 0 40.92 0 62 0 C62 59.4 62 118.8 62 180 C91.37 180 120.74 180 151 180 C151 196.5 151 213 151 230 C101.17 230 51.34 230 0 230 C0 154.1 0 78.2 0 0 Z " fill="#FFFFFF" transform="translate(2925,1246)"/>
<path d="M0 0 C20.79 0 41.58 0 63 0 C63 76.23 63 152.46 63 231 C42.21 231 21.42 231 0 231 C0 154.77 0 78.54 0 0 Z " fill="#FDFDFE" transform="translate(3197,1246)"/>
<path d="M0 0 C20.46 0 40.92 0 62 0 C62 75.9 62 151.8 62 230 C41.54 230 21.08 230 0 230 C0 154.1 0 78.2 0 0 Z " fill="#FFFFFF" transform="translate(3766,1246)"/>
<path d="M0 0 C20.46 0 40.92 0 62 0 C62 75.9 62 151.8 62 230 C41.54 230 21.08 230 0 230 C0 154.1 0 78.2 0 0 Z " fill="#FFFFFF" transform="translate(2578,1246)"/>
<path d="M0 0 C20.46 0 40.92 0 62 0 C62 75.9 62 151.8 62 230 C41.54 230 21.08 230 0 230 C0 154.1 0 78.2 0 0 Z " fill="#FFFFFF" transform="translate(1482,1246)"/>
<path d="M0 0 C13.86 0 27.72 0 42 0 C45.01289177 7.23094025 47.9763874 14.41229439 50.69921875 21.74609375 C51.02034134 22.60509781 51.34146393 23.46410187 51.6723175 24.34913635 C52.67949863 27.0444718 53.68364412 29.74092455 54.6875 32.4375 C55.70266683 35.15884174 56.71847621 37.87994202 57.7348175 40.60084534 C58.36224724 42.28115544 58.98890599 43.96175371 59.6146698 45.64268494 C61.03318147 49.44700221 62.46847157 53.23925208 64 57 C66.11977986 54.88022014 66.69659939 53.56669479 67.73999023 50.80078125 C68.2357682 49.49802246 68.2357682 49.49802246 68.74156189 48.16894531 C69.0936824 47.22631836 69.44580292 46.28369141 69.80859375 45.3125 C70.1759816 44.34022461 70.54336945 43.36794922 70.92189026 42.36621094 C71.70028623 40.30257522 72.47600418 38.2379277 73.24926758 36.17236328 C74.42321236 33.0381454 75.60638486 29.907536 76.79101562 26.77734375 C77.54743243 24.76843897 78.30330858 22.75933051 79.05859375 20.75 C79.58373817 19.36035034 79.58373817 19.36035034 80.11949158 17.94262695 C80.61999779 16.60204224 80.61999779 16.60204224 81.13061523 15.234375 C81.41992416 14.46319336 81.70923309 13.69201172 82.00730896 12.89746094 C83.46596072 8.63995651 84.70680653 4.31064491 86 0 C99.53 0 113.06 0 127 0 C127 1.65 127 3.3 127 5 C126.21753906 5.20496094 125.43507813 5.40992188 124.62890625 5.62109375 C123.61699219 5.89050781 122.60507813 6.15992188 121.5625 6.4375 C120.55316406 6.70433594 119.54382812 6.97117187 118.50390625 7.24609375 C116.08247999 7.75978077 116.08247999 7.75978077 115 9 C114.88981525 11.22301682 114.85085421 13.44957943 114.83886719 15.67529297 C114.83390228 16.3728772 114.82893738 17.07046143 114.82382202 17.78918457 C114.80916545 20.10686209 114.80239245 22.42447116 114.796875 24.7421875 C114.79112617 26.34782921 114.78536841 27.9534709 114.77960205 29.55911255 C114.76908194 32.93019939 114.76324598 36.30126232 114.75976562 39.67236328 C114.75428047 43.99588514 114.73025647 48.31909211 114.70179367 52.64251518 C114.68318565 55.96075366 114.67796267 59.27891605 114.67642975 62.5972023 C114.67339823 64.19124192 114.66535291 65.78528004 114.65224457 67.37926865 C114.63522272 69.60839641 114.63705445 71.8367519 114.64355469 74.06591797 C114.63990906 75.33531219 114.63626343 76.60470642 114.63250732 77.91256714 C114.74011854 80.96884124 114.74011854 80.96884124 116.38092041 82.88772583 C118.44457539 84.30541409 120.23364731 84.72517993 122.6875 85.1875 C123.89986328 85.42533203 123.89986328 85.42533203 125.13671875 85.66796875 C125.75160156 85.77753906 126.36648437 85.88710937 127 86 C127 87.65 127 89.3 127 91 C110.5 91 94 91 77 91 C77 89.35 77 87.7 77 86 C78.28197266 85.70996094 78.28197266 85.70996094 79.58984375 85.4140625 C80.69457031 85.15367188 81.79929687 84.89328125 82.9375 84.625 C84.59072266 84.24214844 84.59072266 84.24214844 86.27734375 83.8515625 C87.17582031 83.57054687 88.07429688 83.28953125 89 83 C90.41697193 80.16605613 90.11945929 77.79126262 90.11352539 74.62255859 C90.11367142 73.96877731 90.11381744 73.31499603 90.1139679 72.6414032 C90.11327036 70.47704773 90.1054854 68.31277796 90.09765625 66.1484375 C90.09579151 64.64913988 90.09436787 63.14984166 90.09336853 61.65054321 C90.08954779 57.70168378 90.07972128 53.75286104 90.06866455 49.80401611 C90.05844091 45.77559913 90.05386887 41.74717622 90.04882812 37.71875 C90.03809862 29.81248315 90.0210275 21.90624614 90 14 C89.67292809 14.8442025 89.67292809 14.8442025 89.33924866 15.70545959 C87.01886202 21.69436165 84.69792765 27.68305124 82.37670898 33.67163086 C81.51654935 35.89098013 80.65651825 38.11037922 79.79663086 40.32983398 C78.54316526 43.56508077 77.28922316 46.8001425 76.03515625 50.03515625 C75.62037018 51.10577301 75.20558411 52.17638977 74.77822876 53.27944946 C72.66480648 58.72921758 70.54092079 64.17457041 68.39794922 69.61279297 C67.98347031 70.66591171 67.56899139 71.71903046 67.14195251 72.80406189 C66.35552018 74.80016858 65.56702282 76.79546332 64.77613831 78.78981018 C64.24970985 80.12639931 64.24970985 80.12639931 63.71264648 81.48999023 C63.40487778 82.26753159 63.09710907 83.04507294 62.78001404 83.84617615 C61.85860287 86.27573169 61.85860287 86.27573169 61 90 C58.03 90 55.06 90 52 90 C51.76720337 89.35758865 51.53440674 88.71517731 51.29455566 88.05329895 C49.06189798 81.89315578 46.82755148 75.73362787 44.59146881 69.57472706 C43.44291259 66.41105654 42.2951186 63.24711467 41.1484375 60.08276367 C35.5628667 44.67038546 29.89841296 29.29561933 24 14 C23.95353637 21.83249371 23.91805979 29.66495475 23.89637566 37.49755192 C23.8859652 41.13505505 23.87185643 44.77246347 23.84912109 48.40991211 C23.8272945 51.92420309 23.8154108 55.43840331 23.81024551 58.95275688 C23.80478459 60.93737153 23.78918745 62.92194998 23.77340698 64.9065094 C23.70311566 73.66213505 23.70311566 73.66213505 26 82 C28.51300356 83.44598381 28.51300356 83.44598381 31.5 83.875 C32.96953125 84.18050781 32.96953125 84.18050781 34.46875 84.4921875 C35.3040625 84.65976563 36.139375 84.82734375 37 85 C37.99 85.495 37.99 85.495 39 86 C39 87.65 39 89.3 39 91 C25.8 91 12.6 91 -1 91 C-1 89.35 -1 87.7 -1 86 C-0.31292969 85.80664062 0.37414063 85.61328125 1.08203125 85.4140625 C1.98308594 85.15367188 2.88414062 84.89328125 3.8125 84.625 C4.70582031 84.36976562 5.59914063 84.11453125 6.51953125 83.8515625 C9.20467896 83.04733339 9.20467896 83.04733339 12 81 C13.76959328 76.86092042 14.25512472 73.27243379 14.2746582 68.79858398 C14.28419022 67.59390976 14.29372223 66.38923553 14.30354309 65.14805603 C14.30217598 63.2165847 14.30217598 63.2165847 14.30078125 61.24609375 C14.30467292 59.89901092 14.30900856 58.5519293 14.31376648 57.20484924 C14.32120462 54.38986215 14.32095411 51.57500056 14.31567383 48.76000977 C14.30986936 45.15981431 14.32684476 41.56013168 14.3500185 37.96002102 C14.36477319 35.18126952 14.36562544 32.40264123 14.36250877 29.6238575 C14.36326873 27.65354776 14.37711964 25.68325708 14.39118958 23.71299744 C14.38184639 21.91071434 14.38184639 21.91071434 14.37231445 20.07202148 C14.37294388 19.01756332 14.3735733 17.96310516 14.3742218 16.87669373 C13.94115047 13.54761572 12.99812796 11.67849391 11 9 C8.31467169 7.55370957 8.31467169 7.55370957 5.3125 6.6875 C4.31863281 6.36136719 3.32476563 6.03523438 2.30078125 5.69921875 C1.54152344 5.46847656 0.78226563 5.23773437 0 5 C0 3.35 0 1.7 0 0 Z " fill="#1960A2" transform="translate(3163,1958)"/>
<path d="M0 0 C1.72456169 0.00296082 1.72456169 0.00296082 3.48396301 0.00598145 C4.7819709 0.00978821 4.7819709 0.00978821 6.10620117 0.01367188 C6.11166962 1.65405426 6.11166962 1.65405426 6.11724854 3.32757568 C6.15417124 13.62780937 6.21191399 23.92774333 6.29010391 34.22774887 C6.32963264 39.52326456 6.36179465 44.81861263 6.37719727 50.11425781 C6.3923283 55.22377581 6.42671055 60.33283311 6.47451019 65.4421463 C6.48936071 67.39256031 6.49724428 69.34304008 6.49808502 71.29351044 C6.50044541 74.02332319 6.52744944 76.75185311 6.56030273 79.48144531 C6.55527237 80.2899292 6.550242 81.09841309 6.5450592 81.93139648 C6.610964 85.46492419 6.80678223 87.6000174 8.90594482 90.50006104 C11.88429855 92.54894433 14.54847642 92.74000074 18.10620117 93.01367188 C18.10620117 94.66367188 18.10620117 96.31367187 18.10620117 98.01367188 C7.12100326 99.28731801 -3.85281508 99.11452403 -14.89379883 99.01367188 C-15.22379883 97.36367187 -15.55379883 95.71367188 -15.89379883 94.01367188 C-16.58086914 94.43519531 -17.26793945 94.85671875 -17.97583008 95.29101562 C-18.87688477 95.83886719 -19.77793945 96.38671875 -20.70629883 96.95117188 C-21.59961914 97.49644531 -22.49293945 98.04171875 -23.41333008 98.60351562 C-29.25109042 101.92230536 -35.35373403 101.6482672 -41.89379883 101.01367188 C-50.69338158 98.49423827 -56.77671245 92.4113384 -61.27661133 84.61914062 C-65.18230433 75.72890936 -65.39565092 64.55428218 -63.23364258 55.13867188 C-59.61220651 46.10859751 -52.21425124 39.67377022 -43.89379883 35.01367188 C-39.99504891 33.71408857 -36.27047839 33.78995598 -32.20629883 33.76367188 C-31.42834961 33.74304687 -30.65040039 33.72242188 -29.84887695 33.70117188 C-24.20180952 33.66349336 -20.07467729 34.76369037 -14.89379883 37.01367188 C-14.94565402 33.09592283 -15.04072751 29.18038182 -15.14379883 25.26367188 C-15.15797852 24.1525 -15.1721582 23.04132813 -15.18676758 21.89648438 C-15.21899414 20.8265625 -15.2512207 19.75664063 -15.28442383 18.65429688 C-15.30537109 17.66977539 -15.32631836 16.68525391 -15.34790039 15.67089844 C-16.03639379 12.3195737 -17.2629313 11.13627612 -19.89379883 9.01367188 C-22.45007408 7.91157854 -22.45007408 7.91157854 -25.14379883 7.26367188 C-26.03583008 7.02132813 -26.92786133 6.77898437 -27.84692383 6.52929688 C-28.52239258 6.35914063 -29.19786133 6.18898438 -29.89379883 6.01367188 C-29.89379883 4.36367187 -29.89379883 2.71367188 -29.89379883 1.01367188 C-26.33152151 0.84201786 -22.76895222 0.67731952 -19.20629883 0.51367188 C-17.72419922 0.44212891 -17.72419922 0.44212891 -16.2121582 0.36914062 C-10.80417704 0.12411882 -5.41398482 -0.01212199 0 0 Z " fill="#165FA1" transform="translate(3108.893798828125,1949.986328125)"/>
<path d="M0 0 C7.75979326 4.00072386 13.6668891 10.85772076 16.59765625 19.06640625 C19.08257028 30.72638745 18.3669828 43.23651836 11.8203125 53.39453125 C6.88826898 59.71371201 -0.76705402 64.74104849 -8.7421875 66.1640625 C-17.21050663 66.85753115 -24.59010062 65.93212042 -31.7421875 61.1640625 C-31.60295212 64.41438034 -31.45464565 67.66422311 -31.3046875 70.9140625 C-31.26537109 71.83445312 -31.22605469 72.75484375 -31.18554688 73.703125 C-31.14365234 74.59257812 -31.10175781 75.48203125 -31.05859375 76.3984375 C-31.00360718 77.62385254 -31.00360718 77.62385254 -30.94750977 78.87402344 C-30.77376217 81.47673861 -30.77376217 81.47673861 -29.7421875 85.1640625 C-25.7821875 86.1540625 -21.8221875 87.1440625 -17.7421875 88.1640625 C-17.7421875 89.4840625 -17.7421875 90.8040625 -17.7421875 92.1640625 C-32.9221875 92.1640625 -48.1021875 92.1640625 -63.7421875 92.1640625 C-63.7421875 90.8440625 -63.7421875 89.5240625 -63.7421875 88.1640625 C-58.7921875 87.1740625 -58.7921875 87.1740625 -53.7421875 86.1640625 C-53.64957894 76.43717104 -53.57846913 66.71038414 -53.53493881 56.9831419 C-53.5140482 52.46654903 -53.48570401 47.95025738 -53.44042969 43.43383789 C-53.39702397 39.07664332 -53.3730615 34.71973879 -53.36267853 30.36234474 C-53.35527761 28.69849899 -53.34082549 27.03466943 -53.31926727 25.37094688 C-53.29030225 23.04341488 -53.28622843 20.71708701 -53.28808594 18.3894043 C-53.27370483 17.69888474 -53.25932373 17.00836517 -53.24450684 16.29692078 C-53.27164654 13.16183756 -53.33636646 11.58146922 -55.56744385 9.28669739 C-58.21609071 7.91942664 -60.88695998 7.00765245 -63.7421875 6.1640625 C-63.7421875 4.5140625 -63.7421875 2.8640625 -63.7421875 1.1640625 C-53.11938644 -0.22909174 -42.43092123 0.06731167 -31.7421875 0.1640625 C-31.7421875 2.4740625 -31.7421875 4.7840625 -31.7421875 7.1640625 C-30.98292969 6.67035156 -30.22367188 6.17664062 -29.44140625 5.66796875 C-28.44753906 5.02730469 -27.45367188 4.38664062 -26.4296875 3.7265625 C-25.44355469 3.08847656 -24.45742187 2.45039062 -23.44140625 1.79296875 C-16.83090894 -2.19628939 -7.32353684 -2.23253117 0 0 Z " fill="#1860A1" transform="translate(2543.7421875,1984.8359375)"/>
<path d="M0 0 C2.06362991 0.15029988 4.13123915 0.24844448 6.19921875 0.31640625 C8.01196289 0.37924805 8.01196289 0.37924805 9.86132812 0.44335938 C11.12396484 0.48267578 12.38660156 0.52199219 13.6875 0.5625 C15.59885742 0.62727539 15.59885742 0.62727539 17.54882812 0.69335938 C20.69910852 0.7995486 23.84946839 0.90159533 27 1 C27 3.31 27 5.62 27 8 C22.71 8 18.42 8 14 8 C14.66 8.94875 15.32 9.8975 16 10.875 C18.61676261 15.48237132 18.84045492 19.82005336 18 25 C14.2944012 32.55372062 8.23226838 36.55093991 0.49609375 39.22265625 C-5.64522124 40.58815534 -11.86171781 40.65967292 -18.1328125 40.82421875 C-21.77923615 40.5544797 -21.77923615 40.5544797 -23 42 C-23.04063832 43.66617115 -23.042721 45.33388095 -23 47 C-19.31306714 48.68171468 -16.36564023 49.26589483 -12.32421875 49.34375 C-11.24849609 49.37339844 -10.17277344 49.40304687 -9.06445312 49.43359375 C-7.39286133 49.46646484 -7.39286133 49.46646484 -5.6875 49.5 C4.90001645 49.71038899 14.50411445 49.93262618 23 57 C26.87281586 61.26444893 27.7076119 65.85270187 27.44140625 71.51171875 C26.37543552 77.52077499 22.88264999 81.54152291 18.25 85.3125 C8.76792948 91.90872297 -1.96642458 92.20190269 -13.125 92.25 C-14.88457031 92.2809375 -14.88457031 92.2809375 -16.6796875 92.3125 C-26.71474048 92.35710024 -36.00528396 91.61618219 -43.66015625 84.59765625 C-45.95033642 81.86680001 -46.92379422 79.59694527 -47.375 76.0625 C-46.89690715 72.15807506 -45.80368948 70.72990817 -43 68 C-38.73993318 65.34929176 -34.96790418 64.49679042 -30 64 C-30.7425 63.443125 -31.485 62.88625 -32.25 62.3125 C-36.17383925 59.01290791 -38.53080418 56.51798646 -40.0625 51.5625 C-39.99502539 47.71644711 -39.25890258 46.07628047 -36.61328125 43.2890625 C-33.94978971 41.16084892 -31.20567996 40.13141646 -28 39 C-28.66386719 38.57589844 -29.32773438 38.15179687 -30.01171875 37.71484375 C-40.8861912 30.49165402 -40.8861912 30.49165402 -43 25 C-43.85812928 19.70433733 -43.7145625 15.48409134 -41.375 10.625 C-31.05943801 -0.77641062 -14.89670317 -4.96556772 0 0 Z " fill="#185FA1" transform="translate(3590,1985)"/>
<path d="M0 0 C9.3813639 5.51175453 15.2841107 11.72152762 18.25390625 22.32421875 C19.28331094 33.72788369 17.7104986 42.78446442 11.12890625 52.1796875 C4.76575335 59.45754363 -3.26424759 63.30542464 -12.74609375 64.32421875 C-25.22481184 65.10734818 -35.87324783 64.27575702 -45.9609375 56.09375 C-53.23622438 48.88214178 -56.16927912 40.77580493 -56.24609375 30.69921875 C-56.25367247 21.38023609 -54.1494247 14.29835186 -47.84765625 7.1796875 C-35.73015537 -4.19543684 -15.14719643 -6.92929532 0 0 Z " fill="#1860A1" transform="translate(2671.74609375,1986.67578125)"/>
<path d="M0 0 C26.73 0 53.46 0 81 0 C81 7.59 81 15.18 81 23 C79.02 23 77.04 23 75 23 C74.72027344 22.41992188 74.44054688 21.83984375 74.15234375 21.2421875 C71.32293815 15.72894057 68.32672642 11.3366519 63 8 C59.85152742 7.02432521 56.86308614 6.81134224 53.578125 6.68359375 C52.65418945 6.64548584 51.73025391 6.60737793 50.77832031 6.56811523 C49.61397461 6.52501221 48.44962891 6.48190918 47.25 6.4375 C41.68125 6.2209375 41.68125 6.2209375 36 6 C36 17.55 36 29.1 36 41 C48.1235742 41.00718242 48.1235742 41.00718242 57.6875 35.3125 C59.56450336 32.00539883 60.74380207 28.58913694 62 25 C63.65 25 65.3 25 67 25 C67 37.54 67 50.08 67 63 C65.35 63 63.7 63 62 63 C61.69707031 62.16855469 61.39414063 61.33710937 61.08203125 60.48046875 C60.66308594 59.39378906 60.24414062 58.30710937 59.8125 57.1875 C59.40644531 56.10855469 59.00039062 55.02960938 58.58203125 53.91796875 C56.7111197 50.46717634 55.62075817 49.4721764 52 48 C49.23004311 47.53804417 46.49163439 47.40020751 43.6875 47.3125 C42.94693359 47.27833984 42.20636719 47.24417969 41.44335938 47.20898438 C39.62941836 47.12706446 37.81473647 47.06184178 36 47 C36.09386894 51.32369494 36.20003516 55.64686413 36.31738281 59.9699707 C36.35555952 61.43928862 36.39043182 62.90869639 36.421875 64.37817383 C36.46777289 66.49593114 36.52572372 68.6130759 36.5859375 70.73046875 C36.6173584 72.00301514 36.6487793 73.27556152 36.68115234 74.58666992 C36.98465487 77.83572722 37.49771061 80.11855423 39 83 C42.80670183 84.90335092 47.43721578 84.22832971 51.625 84.25 C52.59824219 84.270625 53.57148438 84.29125 54.57421875 84.3125 C60.41881227 84.34396484 65.94468485 84.23086296 71 81 C73.52921522 78.09453059 73.52921522 78.09453059 75.3125 74.625 C75.94800781 73.50351563 76.58351563 72.38203125 77.23828125 71.2265625 C78.34289868 69.2034716 79.40942323 67.15859579 80.41796875 65.0859375 C80.94003906 64.39757813 81.46210938 63.70921875 82 63 C83.65 63 85.3 63 87 63 C86.67 72.24 86.34 81.48 86 91 C57.62 91 29.24 91 0 91 C0 89.35 0 87.7 0 86 C0.78246094 85.79503906 1.56492187 85.59007812 2.37109375 85.37890625 C3.38300781 85.10949219 4.39492187 84.84007812 5.4375 84.5625 C6.44683594 84.29566406 7.45617188 84.02882813 8.49609375 83.75390625 C10.91752001 83.24021923 10.91752001 83.24021923 12 82 C12.10491235 79.77155529 12.13857212 77.53974077 12.14526367 75.30883789 C12.14862228 74.60964737 12.1519809 73.91045685 12.15544128 73.19007874 C12.16497793 70.86758674 12.16689575 68.54516663 12.16796875 66.22265625 C12.17117947 64.61461863 12.1745434 63.00658131 12.17805481 61.39854431 C12.18405289 58.02325768 12.18589402 54.64799667 12.18530273 51.27270508 C12.18520108 46.940187 12.19885383 42.60783267 12.21607494 38.27535343 C12.22717452 34.95286804 12.22922257 31.63042249 12.22869301 28.30792046 C12.2298762 26.71027499 12.23431682 25.1126286 12.24202538 23.5150013 C12.25178422 21.28340194 12.24896372 19.05216134 12.24291992 16.82055664 C12.24434494 15.5489418 12.24576996 14.27732697 12.24723816 12.96717834 C12.31175333 9.88112062 12.31175333 9.88112062 10 8 C7.83552102 7.35987856 7.83552102 7.35987856 5.4375 6.9375 C1.09722222 6.09722222 1.09722222 6.09722222 0 5 C0 3.35 0 1.7 0 0 Z " fill="#1860A1" transform="translate(2312,1958)"/>
<path d="M0 0 C5.00833985 4.7171573 8.0046133 9.2926392 8.30297852 16.29956055 C8.33764288 17.99511451 8.36240547 19.69089076 8.37890625 21.38671875 C8.39590073 22.28493851 8.4128952 23.18315826 8.43040466 24.1085968 C8.48338804 26.96816045 8.52377945 29.82771046 8.5625 32.6875 C8.60643147 35.55792946 8.65309832 38.42824707 8.70530701 41.29853821 C8.7372611 43.08245924 8.76415217 44.86647944 8.78553772 46.65055847 C8.73213183 50.96170784 8.73213183 50.96170784 10 55 C12.3140622 55.73075648 14.64828869 56.40138258 17 57 C17 58.65 17 60.3 17 62 C4.13 62 -8.74 62 -22 62 C-22 60.35 -22 58.7 -22 57 C-19.69 56.34 -17.38 55.68 -15 55 C-14.87624039 49.11018515 -14.78558486 43.22112988 -14.7253418 37.33032227 C-14.7002245 35.32725844 -14.66612405 33.32428602 -14.62280273 31.3215332 C-14.56202812 28.43938634 -14.53376268 25.55845279 -14.51171875 22.67578125 C-14.48591232 21.78288895 -14.4601059 20.88999664 -14.43351746 19.970047 C-14.4315085 15.49898937 -14.54417187 13.60143257 -17.32348633 9.93432617 C-19.91451082 7.77295918 -19.91451082 7.77295918 -23.3125 7.375 C-27.98985234 8.16777158 -31.32009338 10.03812394 -35 13 C-36.59919459 16.19838918 -36.16301759 19.67053358 -36.16796875 23.18359375 C-36.17129715 23.9949025 -36.17462555 24.80621124 -36.17805481 25.6421051 C-36.1831213 27.35946078 -36.18546322 29.07682631 -36.18530273 30.79418945 C-36.18748837 33.42350464 -36.20564436 36.05239976 -36.22460938 38.68164062 C-36.2275435 40.3489569 -36.22952817 42.01627516 -36.23046875 43.68359375 C-36.23765427 44.47116562 -36.24483978 45.25873749 -36.25224304 46.07017517 C-36.23613717 49.9130469 -36.18266282 51.72600577 -34 55 C-31.44816596 56.20450304 -31.44816596 56.20450304 -29 57 C-29 58.65 -29 60.3 -29 62 C-41.87 62 -54.74 62 -68 62 C-68 60.35 -68 58.7 -68 57 C-65.03 56.01 -62.06 55.02 -59 54 C-58.85169361 47.66465526 -58.74280164 41.33032016 -58.67041016 34.99365234 C-58.64023447 32.83819989 -58.59928798 30.68287024 -58.54736328 28.52783203 C-58.4745837 25.42970507 -58.44055168 22.33320068 -58.4140625 19.234375 C-58.38309479 18.27070007 -58.35212708 17.30702515 -58.32022095 16.31414795 C-58.31892548 13.73962323 -58.37608553 11.49812597 -59 9 C-61.97047127 6.31308528 -64.23700789 5.2543307 -68 4 C-68 2.35 -68 0.7 -68 -1 C-60.93111222 -1.85214779 -53.9911168 -2.12746455 -46.875 -2.0625 C-45.44027344 -2.05573242 -45.44027344 -2.05573242 -43.9765625 -2.04882812 C-41.65101378 -2.03720038 -39.32549793 -2.01927208 -37 -2 C-36.67 0.97 -36.34 3.94 -36 7 C-35.5153125 6.52949219 -35.030625 6.05898437 -34.53125 5.57421875 C-25.20771336 -3.08591239 -11.66912168 -7.38250555 0 0 Z " fill="#185FA1" transform="translate(3444,1987)"/>
<path d="M0 0 C0.70672852 0.00427002 1.41345703 0.00854004 2.14160156 0.01293945 C9.68672532 0.25927887 13.41880595 2.72259032 18.5 7.9375 C22.20519889 13.78031363 22.41690449 19.28086846 22.43359375 25.984375 C22.45872765 27.82422227 22.48412601 29.66406595 22.50976562 31.50390625 C22.53862953 34.38980367 22.56266554 37.27563918 22.58129883 40.16162109 C22.60285284 42.9570104 22.64225116 45.75171889 22.68359375 48.546875 C22.68376747 49.84839508 22.68376747 49.84839508 22.6839447 51.1762085 C22.69381771 53.85443148 22.69381771 53.85443148 23.125 57.5 C26.04265 59.4451 27.75037285 59.95276317 31.125 60.5 C31.125 62.15 31.125 63.8 31.125 65.5 C18.255 65.5 5.385 65.5 -7.875 65.5 C-7.875 63.85 -7.875 62.2 -7.875 60.5 C-5.565 60.17 -3.255 59.84 -0.875 59.5 C-0.80074361 53.61013537 -0.74634732 47.72054434 -0.71020508 41.83032227 C-0.69513535 39.82734428 -0.6746759 37.8243992 -0.64868164 35.8215332 C-0.61221873 32.93953319 -0.59525539 30.05797016 -0.58203125 27.17578125 C-0.56654739 26.28288895 -0.55106354 25.38999664 -0.53511047 24.470047 C-0.53381513 19.66526933 -0.69308247 16.37719141 -3.875 12.5 C-7.04587015 10.91456493 -9.35490484 11.15934563 -12.875 11.5 C-16.09662627 13.08225262 -19.32071676 14.94571676 -21.875 17.5 C-22.00092074 20.34924301 -22.06367742 23.17291608 -22.078125 26.0234375 C-22.08667511 27.30911118 -22.08667511 27.30911118 -22.09539795 28.62075806 C-22.10486282 30.43824015 -22.11138781 32.25573952 -22.11523438 34.07324219 C-22.12493525 36.85642426 -22.15594214 39.63886661 -22.1875 42.421875 C-22.19403021 44.18489143 -22.19928061 45.94791316 -22.203125 47.7109375 C-22.2154718 48.54539398 -22.2278186 49.37985046 -22.24053955 50.23959351 C-22.36541066 54.52549141 -22.36541066 54.52549141 -20.48944092 58.20108032 C-18.64211321 59.68737213 -17.19153416 60.10059756 -14.875 60.5 C-14.875 62.15 -14.875 63.8 -14.875 65.5 C-27.745 65.5 -40.615 65.5 -53.875 65.5 C-53.875 63.85 -53.875 62.2 -53.875 60.5 C-53.30910156 60.37882812 -52.74320313 60.25765625 -52.16015625 60.1328125 C-51.05994141 59.88144531 -51.05994141 59.88144531 -49.9375 59.625 C-49.20660156 59.46257812 -48.47570313 59.30015625 -47.72265625 59.1328125 C-45.66799706 58.67038477 -45.66799706 58.67038477 -44.875 56.5 C-44.76600233 55.13278834 -44.71606191 53.76059076 -44.69799805 52.38916016 C-44.68516281 51.54132965 -44.67232758 50.69349915 -44.65910339 49.81997681 C-44.65171646 48.90227509 -44.64432953 47.98457336 -44.63671875 47.0390625 C-44.628647 46.09694916 -44.62057526 45.15483582 -44.61225891 44.18417358 C-44.5984158 42.18855634 -44.58769466 40.1929154 -44.57983398 38.19726562 C-44.56260763 35.14407604 -44.5187222 32.09196542 -44.47460938 29.0390625 C-44.46448374 27.10157047 -44.45596723 25.16406923 -44.44921875 23.2265625 C-44.42295662 21.85608261 -44.42295662 21.85608261 -44.39616394 20.45791626 C-44.37057454 15.36991871 -44.37057454 15.36991871 -46.69848633 10.97021484 C-49.31329907 9.20393303 -51.84105347 8.32743996 -54.875 7.5 C-54.875 5.85 -54.875 4.2 -54.875 2.5 C-44.187837 1.70414744 -33.59100323 1.37174996 -22.875 1.5 C-22.38 5.955 -22.38 5.955 -21.875 10.5 C-21.36710937 10.02949219 -20.85921875 9.55898437 -20.3359375 9.07421875 C-19.64757813 8.45160156 -18.95921875 7.82898437 -18.25 7.1875 C-17.24066406 6.26517578 -17.24066406 6.26517578 -16.2109375 5.32421875 C-11.04090133 1.28674903 -6.50363225 -0.05924984 0 0 Z " fill="#175FA1" transform="translate(3006.875,1983.5)"/>
<path d="M0 0 C1.49273438 -0.04350586 1.49273438 -0.04350586 3.015625 -0.08789062 C10.36528146 -0.15025716 17.73320419 0.77270228 23.52783203 5.72509766 C28.7442515 11.62972905 29.17298328 17.19954632 29.21875 24.69921875 C29.2333728 25.59743851 29.24799561 26.49565826 29.26306152 27.4210968 C29.32521997 31.25365277 29.36506669 35.08636464 29.40673828 38.91918945 C29.4403785 41.72104057 29.48549319 44.52254365 29.53125 47.32421875 C29.5365271 48.19503586 29.5418042 49.06585297 29.54724121 49.96305847 C29.40693635 54.61880031 29.40693635 54.61880031 31.875 58.3125 C34.19775177 58.71297444 36.53239357 59.0522104 38.875 59.3125 C38.875 60.9625 38.875 62.6125 38.875 64.3125 C31.06760615 67.98656769 22.65560645 68.93449148 14.375 66.125 C11.5676749 64.0896893 9.21938538 61.86374291 6.875 59.3125 C6.30652344 59.72242188 5.73804687 60.13234375 5.15234375 60.5546875 C-3.02769727 66.2629632 -10.13508137 68.27975385 -20.125 67.3125 C-24.86633065 65.64425403 -27.82764104 63.08091024 -31.125 59.3125 C-32.97476101 53.76321696 -33.27691702 47.51344913 -31.27734375 41.95703125 C-24.19221774 30.75516536 -5.08449246 27.90799773 6.875 24.3125 C7.38781219 15.37268897 7.38781219 15.37268897 3.875 7.3125 C1.62987738 6.18993869 0.36043351 6.17836238 -2.125 6.1875 C-2.82625 6.18492188 -3.5275 6.18234375 -4.25 6.1796875 C-6.21653775 6.19872764 -6.21653775 6.19872764 -8.125 7.3125 C-8.06699219 8.20453125 -8.00898438 9.0965625 -7.94921875 10.015625 C-7.90410156 11.18609375 -7.85898438 12.3565625 -7.8125 13.5625 C-7.75449219 14.72265625 -7.69648438 15.8828125 -7.63671875 17.078125 C-8.125 20.3125 -8.125 20.3125 -10.30078125 22.69921875 C-14.86448984 25.30615049 -19.02042657 25.1772928 -24.125 24.3125 C-27.31755488 22.30932831 -28.70169832 21.07684984 -29.58984375 17.375 C-29.88517098 13.57176155 -29.44939108 11.76246182 -27.1875 8.625 C-18.12091554 1.77880357 -11.17436029 0.1060857 0 0 Z " fill="#1A61A2" transform="translate(3332.125,1983.6875)"/>
<path d="M0 0 C3.83413968 3.74062408 6.22455043 7.76460478 6.30297852 13.17016602 C6.32794151 14.38646446 6.32794151 14.38646446 6.35340881 15.62733459 C6.36182297 16.49410324 6.37023712 17.36087189 6.37890625 18.25390625 C6.39590073 19.15116928 6.4128952 20.04843231 6.43040466 20.97288513 C6.48347322 23.83601881 6.52380268 26.69913885 6.5625 29.5625 C6.60645769 32.42935801 6.65318196 35.29610512 6.70530701 38.16282654 C6.73720771 39.94567019 6.7641153 41.7286116 6.78553772 43.51161194 C6.79902756 44.31932541 6.8125174 45.12703888 6.82641602 45.95922852 C6.83592789 46.66886246 6.84543976 47.3784964 6.85523987 48.1096344 C6.94031953 50.22573955 6.94031953 50.22573955 8 53 C10.10584438 53.80563638 10.10584438 53.80563638 12.5625 54.1875 C13.38878906 54.34605469 14.21507813 54.50460937 15.06640625 54.66796875 C15.70449219 54.77753906 16.34257812 54.88710937 17 55 C17 56.65 17 58.3 17 60 C9.32107418 63.12363084 0.83716826 64.94905447 -7.28125 62.23828125 C-10.71340966 60.3985855 -12.78516988 58.11910987 -15 55 C-15.58007812 55.40992188 -16.16015625 55.81984375 -16.7578125 56.2421875 C-17.53898437 56.78101563 -18.32015625 57.31984375 -19.125 57.875 C-19.89070313 58.40867187 -20.65640625 58.94234375 -21.4453125 59.4921875 C-28.27004575 63.52024107 -35.25477126 63.89840871 -43 63 C-47.93142649 61.33030442 -50.96061845 58.64140871 -53.5 54.125 C-55.40161396 49.59168815 -55.92678536 45.71787617 -54.3046875 40.9609375 C-51.57772471 34.84245796 -48.11839621 31.30500278 -41.95703125 28.7265625 C-38.32809613 27.39742977 -34.68055967 26.17839125 -31 25 C-29.78054687 24.60296875 -28.56109375 24.2059375 -27.3046875 23.796875 C-18.50044014 21 -18.50044014 21 -15 21 C-15.14139481 18.74971671 -15.28828003 16.49977794 -15.4375 14.25 C-15.51871094 12.99703125 -15.59992187 11.7440625 -15.68359375 10.453125 C-15.96582832 6.63230661 -15.96582832 6.63230661 -17 3 C-19.82716095 2.05761302 -21.63176123 1.86534353 -24.5625 1.875 C-25.74005859 1.87113281 -25.74005859 1.87113281 -26.94140625 1.8671875 C-29.06438977 1.87023634 -29.06438977 1.87023634 -31 3 C-30.7525 3.99 -30.7525 3.99 -30.5 5 C-29.84768778 8.91387335 -29.62069201 12.01726607 -30 16 C-31.8125 18.5 -31.8125 18.5 -35 20 C-40.1210763 20.73706645 -44.43909731 20.70393651 -49.1875 18.5625 C-51.49581011 15.29902708 -51.66635471 13.11018855 -51.40234375 9.17578125 C-50.75737692 5.6879509 -49.7037688 4.31751611 -47 2 C-34.14182344 -5.63250953 -13.30864185 -8.15946494 0 0 Z " fill="#1860A1" transform="translate(3523,1988)"/>
<path d="M0 0 C3.83413968 3.74062408 6.22455043 7.76460478 6.30297852 13.17016602 C6.32794151 14.38646446 6.32794151 14.38646446 6.35340881 15.62733459 C6.36182297 16.49410324 6.37023712 17.36087189 6.37890625 18.25390625 C6.39590073 19.15116928 6.4128952 20.04843231 6.43040466 20.97288513 C6.48347322 23.83601881 6.52380268 26.69913885 6.5625 29.5625 C6.60645769 32.42935801 6.65318196 35.29610512 6.70530701 38.16282654 C6.73720771 39.94567019 6.7641153 41.7286116 6.78553772 43.51161194 C6.79902756 44.31932541 6.8125174 45.12703888 6.82641602 45.95922852 C6.83592789 46.66886246 6.84543976 47.3784964 6.85523987 48.1096344 C6.94031953 50.22573955 6.94031953 50.22573955 8 53 C10.10584438 53.80563638 10.10584438 53.80563638 12.5625 54.1875 C13.38878906 54.34605469 14.21507813 54.50460937 15.06640625 54.66796875 C15.70449219 54.77753906 16.34257812 54.88710937 17 55 C17 56.65 17 58.3 17 60 C9.32107418 63.12363084 0.83716826 64.94905447 -7.28125 62.23828125 C-10.71340966 60.3985855 -12.78516988 58.11910987 -15 55 C-15.58007812 55.40992188 -16.16015625 55.81984375 -16.7578125 56.2421875 C-17.53898437 56.78101563 -18.32015625 57.31984375 -19.125 57.875 C-19.89070313 58.40867187 -20.65640625 58.94234375 -21.4453125 59.4921875 C-28.27004575 63.52024107 -35.25477126 63.89840871 -43 63 C-47.93142649 61.33030442 -50.96061845 58.64140871 -53.5 54.125 C-55.40161396 49.59168815 -55.92678536 45.71787617 -54.3046875 40.9609375 C-51.57772471 34.84245796 -48.11839621 31.30500278 -41.95703125 28.7265625 C-38.32809613 27.39742977 -34.68055967 26.17839125 -31 25 C-29.78054687 24.60296875 -28.56109375 24.2059375 -27.3046875 23.796875 C-18.50044014 21 -18.50044014 21 -15 21 C-15.14139481 18.74971671 -15.28828003 16.49977794 -15.4375 14.25 C-15.51871094 12.99703125 -15.59992187 11.7440625 -15.68359375 10.453125 C-15.96582832 6.63230661 -15.96582832 6.63230661 -17 3 C-19.82716095 2.05761302 -21.63176123 1.86534353 -24.5625 1.875 C-25.74005859 1.87113281 -25.74005859 1.87113281 -26.94140625 1.8671875 C-29.06438977 1.87023634 -29.06438977 1.87023634 -31 3 C-30.7525 3.99 -30.7525 3.99 -30.5 5 C-29.84768778 8.91387335 -29.62069201 12.01726607 -30 16 C-31.8125 18.5 -31.8125 18.5 -35 20 C-40.1210763 20.73706645 -44.43909731 20.70393651 -49.1875 18.5625 C-51.49581011 15.29902708 -51.66635471 13.11018855 -51.40234375 9.17578125 C-50.75737692 5.6879509 -49.7037688 4.31751611 -47 2 C-34.14182344 -5.63250953 -13.30864185 -8.15946494 0 0 Z " fill="#1860A1" transform="translate(2931,1988)"/>
<path d="M0 0 C1.38759521 0.01921509 1.38759521 0.01921509 2.80322266 0.03881836 C11.47115001 0.29691091 17.83314743 1.8049143 24.4375 7.625 C31.12627683 15.04116155 31.5625 21.56965747 31.5625 31.5 C17.0425 31.5 2.5225 31.5 -12.4375 31.5 C-10.7247119 44.0959961 -10.7247119 44.0959961 -4 53.875 C1.44219949 57.3261509 6.16103481 58.48095122 12.5625 57.5 C19.12286294 55.22873022 23.60197065 52.17675874 27.5625 46.5 C29.2125 47.49 30.8625 48.48 32.5625 49.5 C30.33290833 56.2121215 25.2083064 60.43855858 19.14453125 63.8671875 C9.03333355 68.5078377 -3.62306303 69.42203733 -14.3125 66.0625 C-22.27205865 62.664981 -29.39463853 56.53077183 -32.765625 48.453125 C-32.98734375 47.80859375 -33.2090625 47.1640625 -33.4375 46.5 C-33.65921875 45.87609375 -33.8809375 45.2521875 -34.109375 44.609375 C-36.70774999 35.97153383 -36.41584132 26.63615668 -32.4375 18.5 C-24.96347432 6.17918191 -14.4344808 -0.30306899 0 0 Z " fill="#175FA1" transform="translate(2802.4375,1983.5)"/>
<path d="M0 0 C6.11712537 3.92419364 8.40279122 8.35420106 11 15 C11 18.96 11 22.92 11 27 C-3.19 27 -17.38 27 -32 27 C-30.38323555 40.35004443 -30.38323555 40.35004443 -22.9375 50.5 C-17.22949306 53.41472695 -11.82688387 54.09967927 -5.62109375 52.31640625 C-1.57893112 50.66807936 1.33608492 48.89574641 4.3125 45.6875 C5.199375 44.800625 6.08625 43.91375 7 43 C9.16796875 43.33203125 9.16796875 43.33203125 11 44 C11.75 45.71875 11.75 45.71875 12 48 C6.74802548 55.17096522 -0.74908221 60.79211698 -9.5078125 62.68359375 C-22.15224074 64.28892085 -33.47846386 63.26040673 -43.9609375 55.72265625 C-51.40157814 49.43659778 -54.4877896 41.91887578 -55.31640625 32.34375 C-55.55505978 24.64524894 -55.15209208 18.57091207 -51 12 C-50.57589844 11.30390625 -50.15179687 10.6078125 -49.71484375 9.890625 C-39.48812948 -5.26428306 -15.57649166 -9.51547777 0 0 Z " fill="#175FA1" transform="translate(3677,1988)"/>
<path d="M0 0 C13.2 0 26.4 0 40 0 C40 1.65 40 3.3 40 5 C38.02 5.33 36.04 5.66 34 6 C35.99904635 10.22020897 37.97210033 14.11573406 40.75 17.875 C43 21 43 21 43 23 C50.84449846 15.62587649 50.84449846 15.62587649 55 6 C53.02 5.67 51.04 5.34 49 5 C49 3.68 49 2.36 49 1 C57.25 1 65.5 1 74 1 C74 2.32 74 3.64 74 5 C73.17556396 5.4021875 73.17556396 5.4021875 72.33447266 5.8125 C66.06807112 9.05433972 61.32295931 13.0059703 56.375 18 C55.64410156 18.69867187 54.91320313 19.39734375 54.16015625 20.1171875 C53.13341797 21.14199219 53.13341797 21.14199219 52.0859375 22.1875 C51.4676709 22.79980469 50.8494043 23.41210938 50.21240234 24.04296875 C48.75772424 25.97084312 48.75772424 25.97084312 49.15014648 28.49291992 C50.00446754 31.01317931 50.95734916 32.77649245 52.51171875 34.92578125 C53.02283203 35.64056641 53.53394531 36.35535156 54.06054688 37.09179688 C54.59744141 37.82462891 55.13433594 38.55746094 55.6875 39.3125 C56.20505859 40.03373047 56.72261719 40.75496094 57.25585938 41.49804688 C58.30077074 42.9489512 59.35319856 44.39447201 60.41308594 45.83447266 C61.48446117 47.29648778 62.53952207 48.77057899 63.57910156 50.25537109 C64.08795898 50.96902832 64.59681641 51.68268555 65.12109375 52.41796875 C65.57025146 53.05887451 66.01940918 53.69978027 66.48217773 54.36010742 C69.16271929 57.25623057 72.25826697 57.96779778 76 59 C76 60.65 76 62.3 76 64 C62.8 64 49.6 64 36 64 C36 62.35 36 60.7 36 59 C38.31 58.67 40.62 58.34 43 58 C39.66380014 51.75569672 36.01229308 45.83230231 32 40 C28.80669302 42.99977322 25.95050328 46.15928865 23.1875 49.5625 C22.58292969 50.30628906 21.97835937 51.05007813 21.35546875 51.81640625 C19.64839954 54.13806232 19.64839954 54.13806232 20 58 C21.98 58.33 23.96 58.66 26 59 C26 60.65 26 62.3 26 64 C17.09 64 8.18 64 -1 64 C-1 62.35 -1 60.7 -1 59 C-0.20166748 58.73219727 -0.20166748 58.73219727 0.61279297 58.45898438 C7.93512513 55.64868059 12.703196 51.04730872 18.125 45.5 C18.99898437 44.64535156 19.87296875 43.79070312 20.7734375 42.91015625 C21.59328125 42.08386719 22.413125 41.25757813 23.2578125 40.40625 C24.0017627 39.65666016 24.74571289 38.90707031 25.51220703 38.13476562 C27.21733945 36.15454419 27.21733945 36.15454419 26.89086914 33.96606445 C25.92670217 31.83823858 24.84162624 30.0422266 23.48828125 28.13671875 C22.97716797 27.41419922 22.46605469 26.69167969 21.93945312 25.94726562 C21.40255859 25.20154297 20.86566406 24.45582031 20.3125 23.6875 C19.79494141 22.95337891 19.27738281 22.21925781 18.74414062 21.46289062 C12.66652956 11.97876509 12.66652956 11.97876509 3.625 6.0625 C2.42875 5.711875 1.2325 5.36125 0 5 C0 3.35 0 1.7 0 0 Z " fill="#1A61A2" transform="translate(2403,1985)"/>
<path d="M0 0 C0.66 0 1.32 0 2 0 C2.60944887 2.53937031 3.21886196 5.07874915 3.828125 7.61816406 C4.36659858 9.86114407 4.9056767 12.10397901 5.4453125 14.34667969 C6.81854983 20.05737612 8.18374098 25.76961591 9.5234375 31.48828125 C12.02362703 42.11862506 14.67389022 52.66397022 17.73681641 63.14672852 C19.72530614 69.9660014 21.57807341 76.81532541 23.375 83.6875 C23.63796875 84.68668457 23.9009375 85.68586914 24.171875 86.71533203 C24.41164063 87.63813965 24.65140625 88.56094727 24.8984375 89.51171875 C25.21820557 90.74088013 25.21820557 90.74088013 25.54443359 91.99487305 C26 94 26 94 26 96 C9.83 96 -6.34 96 -23 96 C-19.62622761 79.13113807 -19.62622761 79.13113807 -18.046875 73.41796875 C-17.70720703 72.17708496 -17.36753906 70.93620117 -17.01757812 69.65771484 C-16.68177734 68.45066895 -16.34597656 67.24362305 -16 66 C-9.97705003 44.12767597 -4.7626365 22.17841902 0 0 Z " fill="#124A7E" transform="translate(1955,1286)"/>
<path d="M0 0 C1.42469933 2.66714364 2.39638134 5.12922626 3.08154297 8.0715332 C3.26868866 8.86368729 3.45583435 9.65584137 3.64865112 10.47200012 C3.84451813 11.32299789 4.04038513 12.17399567 4.2421875 13.05078125 C4.55665329 14.38727974 4.55665329 14.38727974 4.87747192 15.7507782 C5.54803146 18.60360436 6.21193028 21.45792456 6.875 24.3125 C7.74440284 28.03846627 8.6168171 31.7637125 9.4921875 35.48828125 C9.70530579 36.39523239 9.91842407 37.30218353 10.13800049 38.23661804 C11.94348566 45.86776683 13.9353455 53.43522223 16 61 C16.45067775 62.70890964 16.8989278 64.41846309 17.34375 66.12890625 C17.53622314 66.86681396 17.72869629 67.60472168 17.92700195 68.36499023 C18.11609131 69.09016846 18.30518066 69.81534668 18.5 70.5625 C20.30663311 77.4880444 22.23422057 84.36170379 24.30078125 91.21484375 C25 94 25 94 25 98 C8.83 98 -7.34 98 -24 98 C-22.783125 93.09125 -21.56625 88.1825 -20.3125 83.125 C-19.94036377 81.61824707 -19.56822754 80.11149414 -19.18481445 78.55908203 C-17.4023666 71.40078617 -15.53520986 64.28089041 -13.5234375 57.18359375 C-10.79306624 47.50835672 -8.53451604 37.73984593 -6.3125 27.9375 C-5.91899566 26.21671088 -5.52511646 24.49600744 -5.13085938 22.77539062 C-3.39529688 15.18912744 -1.68242076 7.59823424 0 0 Z " fill="#124A7D" transform="translate(2782,1284)"/>
<path d="M0 0 C0.00546844 1.6591745 0.00546844 1.6591745 0.01104736 3.35186768 C0.04796921 13.76982857 0.10571103 24.18749311 0.18390274 34.60522842 C0.22343236 39.96127814 0.25559393 45.31716209 0.27099609 50.67333984 C0.28612653 55.84121006 0.32050775 61.00862472 0.36830902 66.17629242 C0.38316015 68.14903558 0.39104314 70.12184376 0.39188385 72.09464264 C0.39424405 74.85558287 0.42124668 77.61525442 0.45410156 80.37597656 C0.4490712 81.19381119 0.44404083 82.01164581 0.43885803 82.85426331 C0.5051665 86.44953596 0.67921405 88.57071184 2.86224365 91.49212646 C5.2686832 93.18951659 7.09279676 93.67697742 10 94 C10 95.65 10 97.3 10 99 C-3.53 99 -17.06 99 -31 99 C-31 97.35 -31 95.7 -31 94 C-30.43410156 93.87882812 -29.86820313 93.75765625 -29.28515625 93.6328125 C-28.55167969 93.46523437 -27.81820312 93.29765625 -27.0625 93.125 C-26.33160156 92.96257812 -25.60070313 92.80015625 -24.84765625 92.6328125 C-22.79299706 92.17038477 -22.79299706 92.17038477 -22 90 C-21.89165753 87.58013969 -21.84269692 85.18861483 -21.83886719 82.76806641 C-21.83390228 82.02317459 -21.82893738 81.27828278 -21.82382202 80.51081848 C-21.80919011 78.04105717 -21.80239674 75.57136008 -21.796875 73.1015625 C-21.79112443 71.38764443 -21.78536669 69.67372638 -21.77960205 67.95980835 C-21.76908916 64.36350199 -21.76324837 60.76721801 -21.75976562 57.17089844 C-21.75428 52.56165671 -21.73025187 47.95271026 -21.70179367 43.34356117 C-21.68317413 39.80224747 -21.67796206 36.26100498 -21.67642975 32.71964645 C-21.67340118 31.02037313 -21.66536576 29.32110112 -21.65224457 27.62187576 C-21.63519789 25.24459592 -21.63706064 22.86803874 -21.64355469 20.49072266 C-21.62973251 19.43699715 -21.62973251 19.43699715 -21.6156311 18.36198425 C-21.65046103 14.29371693 -22.07612195 11.909038 -25 9 C-27.01416636 7.90078684 -27.01416636 7.90078684 -29.1875 7.25 C-29.90292969 7.00765625 -30.61835938 6.7653125 -31.35546875 6.515625 C-31.89816406 6.34546875 -32.44085937 6.1753125 -33 6 C-33 4.35 -33 2.7 -33 1 C-29.56270271 0.82897661 -26.12513833 0.66401369 -22.6875 0.5 C-21.25180664 0.42845703 -21.25180664 0.42845703 -19.78710938 0.35546875 C-18.82998047 0.31035156 -17.87285156 0.26523438 -16.88671875 0.21875 C-16.02264404 0.17685547 -15.15856934 0.13496094 -14.26831055 0.09179688 C-9.51224524 -0.04178649 -4.75760883 -0.01663627 0 0 Z " fill="#155EA0" transform="translate(2599,1950)"/>
<path d="M0 0 C3.48715894 1.98396827 6.19673639 4.39347279 8 8 C8.51512617 12.09157355 8.94367269 16.23589546 6.953125 19.95703125 C4.63722512 22.75654552 2.68394887 24.7981908 -0.98828125 25.23828125 C-5.15410332 25.3713075 -7.37869331 25.38831668 -11 23.125 C-14.71932063 19.17322183 -14.08437656 16.2313468 -14 11 C-15.093125 11.433125 -16.18625 11.86625 -17.3125 12.3125 C-17.92738281 12.55613281 -18.54226562 12.79976562 -19.17578125 13.05078125 C-21.27446625 14.14281649 -22.48843109 15.17702761 -24 17 C-24.43116962 18.95036468 -24.43116962 18.95036468 -24.34057617 21.10424805 C-24.34034958 21.92487228 -24.34012299 22.74549652 -24.33988953 23.59098816 C-24.32440567 24.47232925 -24.30892181 25.35367035 -24.29296875 26.26171875 C-24.28660149 27.62040825 -24.28660149 27.62040825 -24.28010559 29.00654602 C-24.26330848 31.90049933 -24.2256545 34.79375706 -24.1875 37.6875 C-24.17245449 39.64907849 -24.15876585 41.61066789 -24.14648438 43.57226562 C-24.11340157 48.38177856 -24.06161222 53.19077133 -24 58 C-20.37 58.66 -16.74 59.32 -13 60 C-13 61.65 -13 63.3 -13 65 C-27.19 65 -41.38 65 -56 65 C-56 63.35 -56 61.7 -56 60 C-55.43410156 59.87882812 -54.86820313 59.75765625 -54.28515625 59.6328125 C-53.18494141 59.38144531 -53.18494141 59.38144531 -52.0625 59.125 C-51.33160156 58.96257812 -50.60070313 58.80015625 -49.84765625 58.6328125 C-47.79299706 58.17038477 -47.79299706 58.17038477 -47 56 C-46.89100233 54.63278834 -46.84106191 53.26059076 -46.82299805 51.88916016 C-46.81016281 51.04132965 -46.79732758 50.19349915 -46.78410339 49.31997681 C-46.77671646 48.40227509 -46.76932953 47.48457336 -46.76171875 46.5390625 C-46.753647 45.59694916 -46.74557526 44.65483582 -46.73725891 43.68417358 C-46.7234158 41.68855634 -46.71269466 39.6929154 -46.70483398 37.69726562 C-46.68760763 34.64407604 -46.6437222 31.59196542 -46.59960938 28.5390625 C-46.58948374 26.60157047 -46.58096723 24.66406923 -46.57421875 22.7265625 C-46.54795662 21.35608261 -46.54795662 21.35608261 -46.52116394 19.95791626 C-46.49557454 14.86991871 -46.49557454 14.86991871 -48.82348633 10.47021484 C-51.43829907 8.70393303 -53.96605347 7.82743996 -57 7 C-57 5.35 -57 3.7 -57 2 C-46.312837 1.20414744 -35.71600323 0.87174996 -25 1 C-24.505 4.96 -24.505 4.96 -24 9 C-23.39671875 8.51789063 -22.7934375 8.03578125 -22.171875 7.5390625 C-20.97304687 6.59160156 -20.97304687 6.59160156 -19.75 5.625 C-18.96109375 4.99851562 -18.1721875 4.37203125 -17.359375 3.7265625 C-11.80086433 -0.34108935 -6.82897911 -1.13655788 0 0 Z " fill="#165FA1" transform="translate(2754,1984)"/>
<path d="M0 0 C3.91613768 0.07692413 6.20161948 0.62500567 9.25 3.25 C14.82276569 10.874899 14.45917322 18.8076116 14.5 27.9375 C14.520625 29.07123047 14.54125 30.20496094 14.5625 31.37304688 C14.59710653 38.87833721 14.56455435 47.14101519 9.63549805 53.25146484 C6.75120296 56.11466268 4.71462957 57.16033464 0.6875 57.9375 C-3.6275684 57.07448632 -6.10227271 55.68365211 -8.75 52.25 C-15.7170679 41.163087 -14.01558097 24.05159201 -11.5625 11.6875 C-10.24607193 6.86899534 -8.76640146 4.2094537 -4.75 1.25 C-3.75 0.25 -3.75 0.25 0 0 Z " fill="#FCFDFD" transform="translate(2651.75,1988.75)"/>
<path d="M0 0 C3.625486 0.1812743 5.6579412 0.34897855 8.75 2.1875 C12.88263466 7.15462743 13.38769613 10.93684755 13.421875 17.12890625 C13.4351886 17.97420395 13.4485022 18.81950165 13.46221924 19.69041443 C13.48238799 21.46954694 13.49185588 23.24882946 13.49121094 25.02807617 C13.4999908 27.74715042 13.57275508 30.45980184 13.6484375 33.17773438 C13.66017017 34.91143624 13.66811142 36.64516877 13.671875 38.37890625 C13.70061707 39.18735489 13.72935913 39.99580353 13.75897217 40.82875061 C13.72063561 43.199578 13.59313168 44.96800918 12.75 47.1875 C9.27614527 50.50187378 5.83549975 52.01906038 1.125 52.75 C-3.14938312 52.03760281 -5.03081561 51.12675531 -8.25 48.1875 C-12.91941596 41.16528407 -14.01610744 34.92888199 -13.8125 26.625 C-13.82345703 25.64853516 -13.83441406 24.67207031 -13.84570312 23.66601562 C-13.76740647 15.86244854 -12.17870135 8.89376295 -6.5625 3.1875 C-5.799375 2.5275 -5.03625 1.8675 -4.25 1.1875 C-3.25 0.1875 -3.25 0.1875 0 0 Z " fill="#FBFCFD" transform="translate(3081.25,1989.8125)"/>
<path d="M0 0 C5.98689326 5.81583917 7.46222605 11.76945733 7.62573242 19.94189453 C7.62285092 30.98956665 7.39898029 40.46984254 -0.5625 49 C-3.94328412 50.69039206 -7.15984805 50.77985792 -10.8125 50.125 C-14.71737376 47.78207575 -16.85092208 45.19888798 -18.8125 41.125 C-19.27300436 38.23849682 -19.30411453 35.38398778 -19.31640625 32.46484375 C-19.32639145 31.63795547 -19.33637665 30.8110672 -19.34666443 29.9591217 C-19.36180686 28.21685777 -19.36889142 26.4745074 -19.3684082 24.73217773 C-19.37498951 22.0667487 -19.42955761 19.40500797 -19.48632812 16.74023438 C-19.49512747 15.04428354 -19.50108351 13.34831506 -19.50390625 11.65234375 C-19.5254628 10.85747055 -19.54701935 10.06259735 -19.56922913 9.24363708 C-19.54125977 6.98803711 -19.54125977 6.98803711 -18.8125 3.125 C-13.02444443 -1.90177911 -7.15384584 -2.22564093 0 0 Z " fill="#F9FAFC" transform="translate(2530.8125,1994.875)"/>
<path d="M0 0 C1.96137185 0.0119434 3.92275694 0.05607498 5.8828125 0.12890625 C7.35427734 0.13180664 7.35427734 0.13180664 8.85546875 0.13476562 C14.25007045 0.23304784 18.414927 0.56794875 23.0078125 3.69140625 C25.50590341 7.43854262 25.20571382 9.15989657 24.6171875 13.46875 C23.49824111 17.55003524 20.72671267 19.57825122 17.30078125 21.796875 C14.04171325 23.06830017 11.12112636 23.03159274 7.6328125 23.06640625 C6.34632813 23.09476563 5.05984375 23.123125 3.734375 23.15234375 C-1.31518625 22.5277649 -3.97001686 20.31170788 -7.83984375 17.2109375 C-9.36738124 15.19665925 -9.42534966 13.89051487 -9.4296875 11.37890625 C-9.44902344 10.64027344 -9.46835938 9.90164062 -9.48828125 9.140625 C-8.27967328 3.17371792 -6.0935691 0.37550634 0 0 Z " fill="#F8FAFC" transform="translate(3572.9921875,2049.30859375)"/>
<path d="M0 0 C3.0849947 0.07824262 3.92807041 0.22989399 6.5 2.125 C11.23872302 8.6863088 10.82540771 15.56211879 10.125 23.375 C9.13222033 26.37675362 8.14273502 27.8825038 6.125 30.375 C3.03326248 31.92086876 0.53070448 31.66859521 -2.875 31.375 C-6.28166046 28.88905858 -7.5814204 26.32207621 -8.875 22.375 C-9.17578125 19.03515625 -9.17578125 19.03515625 -9.1875 15.4375 C-9.20425781 14.25285156 -9.22101562 13.06820313 -9.23828125 11.84765625 C-8.58477274 5.6006771 -6.59324467 0.63805594 0 0 Z " fill="#F8FAFC" transform="translate(3576.875,1988.625)"/>
<path d="M0 0 C4.06283817 0.84642462 5.46249851 2.38263699 8 5.625 C10.74428328 11.24424672 10 14.79028347 10 21.625 C3.07 21.625 -3.86 21.625 -11 21.625 C-11 13.32610796 -10.64491487 9.05624092 -5.6875 2.625 C-3 0.625 -3 0.625 0 0 Z " fill="#F1F5F9" transform="translate(2801,1988.375)"/>
<path d="M0 0 C3.40299526 2.48326681 4.70616029 5.05686945 6 9 C6.25222779 13.02051094 6.08865804 16.96605914 6 21 C-0.6 21 -7.2 21 -14 21 C-14 8.17857143 -14 8.17857143 -9.25 1.5625 C-6.0027213 -0.69255466 -3.86130262 -0.55161466 0 0 Z " fill="#F4F7FA" transform="translate(3659,1989)"/>
<path d="M0 0 C0 7.26 0 14.52 0 22 C-8.42372881 26.81355932 -8.42372881 26.81355932 -13 26 C-15.375 24.6875 -15.375 24.6875 -17 22 C-17.78706922 16.85192476 -17.59494762 12.46032598 -15.625 7.625 C-11.48152571 3.48152571 -5.98826571 0 0 0 Z " fill="#FAFCFD" transform="translate(3508,2015)"/>
<path d="M0 0 C0 7.26 0 14.52 0 22 C-8.42372881 26.81355932 -8.42372881 26.81355932 -13 26 C-15.375 24.6875 -15.375 24.6875 -17 22 C-17.78706922 16.85192476 -17.59494762 12.46032598 -15.625 7.625 C-11.48152571 3.48152571 -5.98826571 0 0 0 Z " fill="#FAFCFD" transform="translate(2916,2015)"/>
<path d="M0 0 C0.11601004 3.60389664 0.18718408 7.20731467 0.25 10.8125 C0.28351562 11.83666016 0.31703125 12.86082031 0.3515625 13.91601562 C0.36445313 14.89892578 0.37734375 15.88183594 0.390625 16.89453125 C0.41157227 17.80050049 0.43251953 18.70646973 0.45410156 19.63989258 C0 22 0 22 -1.88574219 23.77612305 C-5.44030373 25.83374626 -8.92467209 26.33649496 -13 26 C-15.5625 24.1875 -15.5625 24.1875 -17 21 C-17.63909768 16.45943394 -17.73415552 12.61611132 -15.81640625 8.39453125 C-13.6576649 5.54870664 -11.65809168 4.33021704 -8.5 2.6875 C-7.5409375 2.17574219 -6.581875 1.66398437 -5.59375 1.13671875 C-3 0 -3 0 0 0 Z " fill="#FBFCFD" transform="translate(3339,2015)"/>
<path d="M0 0 C0 0.99 0 1.98 0 3 C-1.38782485 3.8466034 -2.78569397 4.67675339 -4.1875 5.5 C-4.96480469 5.9640625 -5.74210937 6.428125 -6.54296875 6.90625 C-9.24103386 8.10729647 -11.0806982 8.20741043 -14 8 C-14.33 7.01 -14.66 6.02 -15 5 C-14.34 5 -13.68 5 -13 5 C-13 4.34 -13 3.68 -13 3 C-8.70614007 -0.4887612 -5.28129105 -0.26854022 0 0 Z " fill="#215789" transform="translate(475,1686)"/>
<path d="M0 0 C0 1.65 0 3.3 0 5 C-2.64 5.33 -5.28 5.66 -8 6 C-8.66 5.01 -9.32 4.02 -10 3 C-6.68152292 -0.06320961 -4.44849969 -0.3033068 0 0 Z " fill="#215889" transform="translate(480,1678)"/>
</svg>
