<?xml version="1.0" encoding="UTF-8"?>
<svg version="1.1" xmlns="http://www.w3.org/2000/svg" width="6000" height="3375">
<path d="M0 0 C1980 0 3960 0 6000 0 C6000 1113.75 6000 2227.5 6000 3375 C4020 3375 2040 3375 0 3375 C0 2261.25 0 1147.5 0 0 Z " fill="#164670" transform="translate(0,0)"/>
<path d="M0 0 C1316.7 0 2633.4 0 3990 0 C3990 477.51 3990 955.02 3990 1447 C2673.3 1447 1356.6 1447 0 1447 C0 969.49 0 491.98 0 0 Z " fill="#145C9F" transform="translate(1005,964)"/>
<path d="M0 0 C0.83824059 0.00002625 1.67648118 0.00005251 2.54012301 0.00007956 C3.50632121 -0.00231672 4.47251941 -0.00471301 5.46799635 -0.00718191 C7.08400619 -0.00349147 7.08400619 -0.00349147 8.73266269 0.00027352 C10.44138268 -0.00172036 10.44138268 -0.00172036 12.18462226 -0.00375452 C15.38225535 -0.0064546 18.57985062 -0.00461026 21.77748164 -0.00095154 C25.26025143 0.00193829 28.74301704 -0.00095442 32.22578669 -0.0031268 C38.37418196 -0.00614985 44.52256817 -0.0054054 50.67096326 -0.00229056 C59.90221576 0.00236501 69.1334614 0.00126014 78.36471449 -0.0009896 C94.16498883 -0.00467025 109.9652597 -0.00356221 125.76553391 0.0000615 C141.87850091 0.00373647 157.99146593 0.00522067 174.10443333 0.00404579 C175.63347745 0.00393631 175.63347745 0.00393631 177.19341136 0.00382462 C182.39760841 0.00344215 187.60180546 0.00302453 192.80600251 0.00259493 C230.88180861 -0.00047274 268.95761326 0.00140417 307.03341917 0.00573921 C345.64568398 0.01011912 384.25794801 0.01232168 422.87021307 0.011837 C424.69437121 0.01181557 424.69437121 0.01181557 426.55538102 0.0117937 C437.69960643 0.01166195 448.84383183 0.01150584 459.98805724 0.0113207 C487.93775801 0.0108575 515.88745878 0.01072509 543.83715955 0.01081192 C545.75864963 0.01081754 545.75864963 0.01081754 547.7189577 0.01082328 C610.92317282 0.01103764 674.12738765 0.01500733 737.33160261 0.01921463 C759.59085047 0.02069377 781.85009833 0.0221551 804.10934619 0.02355075 C805.49299427 0.02363751 806.87664234 0.02372428 808.30221915 0.02381368 C872.36051467 0.02780887 936.41881016 0.02924226 1000.47710579 0.03001672 C1004.66502761 0.03006748 1008.85294943 0.03011944 1013.04087125 0.03017172 C1038.29360843 0.03048581 1063.54634561 0.03077318 1088.79908279 0.03102969 C1151.58132223 0.03166859 1214.36356167 0.03262809 1277.14580111 0.03380489 C1278.57517388 0.03383152 1280.00454666 0.03385816 1281.47723377 0.0338856 C1374.07696453 0.03561359 1466.67669519 0.0386616 1559.27642588 0.0428133 C1561.49456978 0.04291273 1561.49456978 0.04291273 1563.75752467 0.04301417 C1608.77350903 0.04503492 1653.78949338 0.04715328 1698.80547774 0.04929074 C1748.62151775 0.05165569 1798.43755776 0.05400398 1848.25359777 0.05628013 C1849.75155736 0.05634863 1851.24951694 0.05641713 1852.79286924 0.05648771 C1995.03061876 0.06298654 2137.26836832 0.06679827 2279.50611796 0.06991392 C2285.52984465 0.07004606 2291.55357134 0.07017898 2297.57729804 0.07031194 C2353.00838838 0.07153533 2408.43947872 0.07272716 2463.87056906 0.07387936 C2465.34451506 0.07391 2466.81846105 0.07394064 2468.33707208 0.0739722 C2472.79978387 0.07406497 2477.26249566 0.07415772 2481.72520745 0.07425047 C2602.29172994 0.0767564 2722.85825243 0.07953761 2843.42477491 0.0824971 C2847.67885095 0.08260146 2851.93292698 0.0827056 2856.18700302 0.08280968 C2994.4345787 0.08619286 3132.68215436 0.09006355 3376.81911156 0.09914748 C3380.58435691 0.09929238 3384.34960226 0.09943702 3388.11484762 0.09958155 C3389.96359156 0.09965254 3389.96359156 0.09965254 3391.84968386 0.09972496 C3394.09283741 0.09981109 3396.33599095 0.09989718 3398.57914449 0.09998322 C3595.42241118 0.10754441 3792.26567781 0.11641794 3989.10894445 0.12494468 C3989.10894445 317.91494468 3989.10894445 635.70494468 3989.10894445 963.12494468 C2671.74894445 963.12494468 1354.38894445 963.12494468 -2.89105555 963.12494468 C-2.89105555 0.19101608 -2.89105555 0.19101608 0 0 Z " fill="#1E5485" transform="translate(1006.8910555454349,2411.875055315424)"/>
<path d="M0 0 C635 0 635 0 831 1 C835.62 0.67 840.24 0.34 845 0 C848.35595275 -0.00377162 851.66390849 0.02891757 855.01171875 0.15625 C855.87263626 0.18223267 856.73355377 0.20821533 857.62055969 0.23498535 C860.3098041 0.31662086 862.99861471 0.40733837 865.6875 0.5 C868.41566506 0.59200663 871.14381921 0.68184551 873.87226868 0.76501465 C875.55520881 0.81643469 877.23800361 0.87293197 878.920578 0.93518066 C882.24198571 1.03773138 884.82027178 1.05990941 888 0 C890.8878457 0.09079434 893.74443625 0.23964655 896.625 0.4375 C903.25352793 0.83934494 909.85866204 1.11412682 916.5 1.125 C917.56661865 1.13164673 917.56661865 1.13164673 918.65478516 1.13842773 C921.71555224 1.12984056 924.0725044 0.97583187 927 0 C929.00664306 -0.0940365 931.01630177 -0.12793376 933.02514648 -0.12939453 C934.26751572 -0.13254669 935.50988495 -0.13569885 936.78990173 -0.13894653 C938.15029943 -0.13715487 939.5106968 -0.13510345 940.87109375 -0.1328125 C942.27295448 -0.13348675 943.67481509 -0.13445779 945.07667542 -0.13571167 C948.02142444 -0.13718729 950.96614317 -0.13504136 953.91088867 -0.13037109 C957.65267369 -0.12472114 961.39438622 -0.12792329 965.13616848 -0.13394356 C968.03699773 -0.13759347 970.93781041 -0.13638966 973.83864021 -0.13381577 C975.21589225 -0.1331562 976.59314586 -0.1339403 977.97039604 -0.13629532 C979.91703124 -0.13888982 981.8636718 -0.13422329 983.81030273 -0.12939453 C984.91155991 -0.12859894 986.01281708 -0.12780334 987.14744568 -0.12698364 C992.44209148 0.04753263 997.72077779 0.56006482 1003 1 C1003 478.51 1003 956.02 1003 1448 C766.06 1448.33 529.12 1448.66 285 1449 C190.95 1449.33 96.9 1449.66 0 1450 C0 971.5 0 493 0 0 Z " fill="#184A77" transform="translate(0,963)"/>
<path d="M0 0 C1.2501847 0.00015598 2.50036941 0.00031196 3.7884385 0.00047267 C4.8340217 -0.00144447 4.8340217 -0.00144447 5.90072779 -0.00340034 C8.2708541 -0.00649871 10.64091561 -0.0023784 13.01103985 0.00162334 C14.72167141 0.0008847 16.43230282 -0.0002928 18.14293381 -0.00187286 C22.88646601 -0.00496203 27.62997703 -0.00175062 32.37350767 0.00240542 C37.50603214 0.00581683 42.63855429 0.00346981 47.77107918 0.00182265 C56.79024289 -0.00026269 65.80940002 0.00140482 74.82856297 0.00545603 C88.41415588 0.01153846 101.99974478 0.01182758 115.58533881 0.01099074 C138.34839514 0.00974634 161.11144799 0.01304284 183.87450325 0.0190956 C214.6533176 0.02726243 245.43212802 0.02919759 276.21094429 0.03006667 C350.24125901 0.03532407 424.27157289 0.04928508 498.30188667 0.06217116 C746.26594917 0.09310866 746.26594917 0.09310866 999.23938667 0.12467116 C999.23938667 478.29467116 999.23938667 956.46467116 999.23938667 1449.12467116 C945.48596268 1449.12467116 891.73282887 1449.12442586 837.97948372 1449.06120986 C835.99081694 1449.05893005 834.00215014 1449.05665876 832.01348334 1449.05439496 C828.89969588 1449.05084922 825.78590842 1449.04729854 822.67212099 1449.04372163 C811.66807771 1449.03108595 800.66403375 1449.01909153 789.65998976 1449.00709199 C769.37290463 1448.98495354 749.08582004 1448.96235739 728.79873573 1448.93947524 C708.79011478 1448.91690876 688.78149359 1448.89456117 668.77287209 1448.87248916 C666.88791528 1448.87040964 666.88791528 1448.87040964 664.96487854 1448.86828811 C658.57982183 1448.86124508 652.19476511 1448.85420581 645.80970838 1448.84716797 C600.89906033 1448.79765918 555.9884128 1448.74768497 511.07776558 1448.69742507 C500.2575955 1448.68531634 489.43742542 1448.67320928 478.61725533 1448.66110915 C477.94592424 1448.66035841 477.27459316 1448.65960766 476.58291871 1448.65883416 C445.20583948 1448.62374761 413.82875996 1448.58893124 382.45168036 1448.55418185 C380.40746532 1448.55191792 378.36325028 1448.54965388 376.31903524 1448.54738982 C362.76866293 1448.53238233 349.21829062 1448.51737944 335.6679183 1448.50237962 C308.07848016 1448.47183897 280.48904205 1448.44126919 252.89960396 1448.41068191 C251.63183423 1448.40927642 250.36406449 1448.40787093 249.0578775 1448.40642285 C164.78504668 1448.31299206 80.51221662 1448.21888656 -3.76061333 1448.12467116 C-3.76611123 1403.85326819 -3.77138321 1359.5818652 -3.77648247 1315.31046218 C-3.77658226 1314.44419681 -3.77668206 1313.57793145 -3.77678488 1312.68541562 C-3.78746879 1219.893434 -3.79669279 1127.10145238 -3.80295647 1034.30947036 C-3.80309592 1032.24911464 -3.80323537 1030.18875891 -3.80337482 1028.12840319 C-3.80629729 984.88426485 -3.80901403 941.6401265 -3.811493 898.39598814 C-3.81273843 876.67413605 -3.81402341 854.95228397 -3.81534577 833.23043188 C-3.81554502 829.95370214 -3.81574313 826.67697241 -3.81594121 823.40024267 C-3.81900243 772.92268382 -3.82291358 722.44512522 -3.82927788 671.96756667 C-3.82941478 670.88164322 -3.82955167 669.79571977 -3.82969272 668.67688955 C-3.83190519 651.16776347 -3.83418876 633.6586374 -3.83648177 616.14951133 C-3.84308248 565.73892542 -3.8491604 515.3283397 -3.85175312 464.9177534 C-3.85180665 463.88185094 -3.85186019 462.84594848 -3.85191535 461.77865504 C-3.85308091 439.04212861 -3.85397586 416.30560217 -3.85461431 393.56907571 C-3.85487594 384.42168791 -3.85517656 375.2743001 -3.85549057 366.1269123 C-3.855524 365.12574917 -3.85555742 364.12458604 -3.85559186 363.09308463 C-3.85668962 330.79601159 -3.86096515 298.49893993 -3.86689553 266.20186745 C-3.87285136 233.68746355 -3.87571504 201.17306099 -3.87423731 168.65865654 C-3.87403421 164.17266021 -3.87386684 159.68666389 -3.87372101 155.20066756 C-3.87369113 154.32123034 -3.87366125 153.44179311 -3.87363046 152.53570627 C-3.87324877 138.5709238 -3.87624336 124.60614413 -3.88062319 110.64136242 C-3.88485395 96.93311168 -3.88556396 83.22486461 -3.88244514 69.51661354 C-3.88072157 61.46458891 -3.88178249 53.41257586 -3.88683033 45.36055257 C-3.89026295 39.40587281 -3.88856481 33.45120214 -3.8847533 27.49652234 C-3.88403192 25.0853362 -3.88503071 22.67414885 -3.88784857 20.26296424 C-3.89140437 17.01764682 -3.88893441 13.77239134 -3.88481182 10.52707601 C-3.8873207 9.57564539 -3.88982958 8.62421477 -3.89241448 7.64395292 C-3.87183709 0.17485478 -3.87183709 0.17485478 0 0 Z " fill="#1A4D7A" transform="translate(5000.760613325983,962.8753288350999)"/>
<path d="M0 0 C1.43520688 -0.00211139 2.87041268 -0.00509863 4.30561614 -0.00887535 C8.25069955 -0.01672097 12.19568526 -0.01214392 16.14076732 -0.00553953 C20.44825098 -0.00054696 24.75571956 -0.00719652 29.06320086 -0.0123432 C36.6420949 -0.01979044 44.22096084 -0.0197843 51.79985658 -0.01495371 C63.14580082 -0.00775777 74.49172078 -0.01207215 85.83766437 -0.01863506 C105.17369147 -0.02947783 124.50970883 -0.03078871 143.84573811 -0.02693671 C163.44541043 -0.02306335 183.04507549 -0.0235109 202.64474744 -0.02924651 C203.88190802 -0.02960533 205.1190686 -0.02996416 206.39371889 -0.03033386 C211.43234697 -0.03180874 216.47097504 -0.03331313 221.5096031 -0.03485533 C268.46114668 -0.049209 315.41268478 -0.05354284 362.36422986 -0.0513069 C363.05984562 -0.05127383 363.75546138 -0.05124076 364.4721564 -0.05120668 C367.28836025 -0.05107237 370.10456409 -0.05093722 372.92076793 -0.05080131 C380.69999226 -0.05042614 388.47921658 -0.05006847 396.25844091 -0.04973358 C396.96078341 -0.04970286 397.66312591 -0.04967215 398.38675152 -0.0496405 C430.21656246 -0.04826669 462.04637265 -0.05079632 493.8761834 -0.05425965 C498.13376659 -0.05472288 502.39134979 -0.05517474 506.64893299 -0.05562377 C507.70462918 -0.05573519 507.70462918 -0.05573519 508.78165256 -0.05584886 C510.20446826 -0.05599901 511.62728395 -0.05614913 513.05009964 -0.05629922 C516.61274079 -0.05667529 520.17538194 -0.05705275 523.7380231 -0.0574303 C524.79757412 -0.05754251 524.79757412 -0.05754251 525.87853022 -0.05765698 C529.45051584 -0.05803545 533.02250146 -0.05841537 536.59448708 -0.05879792 C569.93069117 -0.06236612 603.26689531 -0.06523044 636.60309952 -0.06739062 C637.69263085 -0.06746148 637.69263085 -0.06746148 638.80417291 -0.06753377 C685.09151505 -0.07052869 731.37885661 -0.07040333 777.66619878 -0.06796985 C779.94236772 -0.06785026 782.21853667 -0.06773188 784.49470561 -0.06761376 C801.24958455 -0.06674232 818.00446348 -0.06581172 834.75934241 -0.06486312 C836.28738224 -0.06477674 837.81542206 -0.06469036 839.34346189 -0.064604 C840.87212768 -0.06451757 842.40079346 -0.06443112 843.92945925 -0.06434468 C845.06482628 -0.06428049 845.06482628 -0.06428049 846.22313001 -0.06421501 C850.04763975 -0.06399862 853.8721495 -0.06378118 857.69665925 -0.06356178 C929.93641307 -0.05942293 1002.17616398 -0.05834646 1074.4159171 -0.07072181 C1075.17651744 -0.07085209 1075.93711777 -0.07098237 1076.72076661 -0.0711166 C1099.72082962 -0.0750685 1122.72089255 -0.07942807 1145.72095547 -0.08388776 C1170.8704932 -0.08876379 1196.02003093 -0.09359769 1221.16956872 -0.09816951 C1221.92038143 -0.09830628 1222.67119414 -0.09844305 1223.44475875 -0.09858396 C1270.46304908 -0.10713795 1317.48133857 -0.11204227 1364.49962968 -0.11287707 C1365.22576384 -0.11289034 1365.951898 -0.11290361 1366.70003623 -0.11291729 C1398.58933461 -0.1134926 1430.47863294 -0.11320786 1462.3679313 -0.11199857 C1474.48689066 -0.11153936 1486.60585002 -0.11114712 1498.72480938 -0.11078781 C1501.56181893 -0.11070355 1504.39882848 -0.11061428 1507.23583804 -0.11052099 C1539.77445672 -0.10946533 1572.31307327 -0.11054631 1604.85169119 -0.11819595 C1605.55347165 -0.11836059 1606.25525212 -0.11852524 1606.97829866 -0.11869487 C1618.26737496 -0.12135318 1629.55645122 -0.12417227 1640.84552747 -0.12699889 C1688.36397083 -0.13888202 1735.8824 -0.13993131 1783.40084455 -0.12768153 C1788.42528235 -0.12642966 1793.44972017 -0.12522618 1798.47415799 -0.12406081 C1799.70726599 -0.12377052 1800.94037398 -0.12348022 1802.21084889 -0.12318113 C1821.75895362 -0.11885083 1841.30704194 -0.12459509 1860.8551441 -0.134501 C1880.06332827 -0.14402358 1899.27148704 -0.14288286 1918.47966973 -0.13029478 C1929.74926519 -0.12322953 1941.01878775 -0.12440502 1952.28837806 -0.13764316 C1959.76760342 -0.14561205 1967.24677344 -0.14275247 1974.72599368 -0.13099352 C1978.96916467 -0.12462767 1983.21219135 -0.12293412 1987.45535443 -0.13456073 C1991.30935429 -0.1450332 1995.1630872 -0.1415706 1999.0170724 -0.12725233 C2001.04140415 -0.12323754 2003.06574913 -0.13382665 2005.09005325 -0.14513983 C2025.23625957 -0.02551868 2041.750497 6.72703952 2056.44405431 20.439349 C2072.26569258 36.82908918 2075.2213289 56.17472039 2075.1447379 77.89662439 C2075.14881062 79.84949296 2075.15415641 81.80235922 2075.16066808 83.75522119 C2075.17426324 89.02374235 2075.16907567 94.29208589 2075.15953082 99.56060988 C2075.15189468 105.09363473 2075.15899066 110.62664515 2075.16368932 116.15967065 C2075.16913494 125.44734164 2075.16198616 134.73494087 2075.14766759 144.02260095 C2075.1313386 154.73757821 2075.13663626 165.4523842 2075.1531468 176.16735733 C2075.16678998 185.39322318 2075.16866764 194.61903769 2075.1608308 203.84491038 C2075.15617046 209.3437195 2075.15548423 214.84244829 2075.16544026 220.34125215 C2075.17414913 225.51160978 2075.16801675 230.68174798 2075.15075749 235.85208207 C2075.14681372 237.74180375 2075.14789021 239.63154411 2075.15454549 241.52125818 C2075.18648853 251.51799849 2074.93804016 260.65088172 2071.75655431 270.251849 C2071.38014806 271.38880212 2071.00374181 272.52575525 2070.61592931 273.6971615 C2067.77273783 280.56487048 2064.2845755 286.36648186 2059.75655431 292.251849 C2059.03467931 293.262474 2058.31280431 294.273099 2057.56905431 295.314349 C2047.98790574 306.40831049 2033.08039937 313.78688383 2018.75655431 316.251849 C2016.76834081 316.34052528 2014.7775157 316.37782943 2012.78732575 316.37841083 C2010.97553733 316.38257381 2010.97553733 316.38257381 2009.12714712 316.38682088 C2007.7865956 316.38485137 2006.44604421 316.38279108 2005.10549295 316.38065016 C2003.67361133 316.3820186 2002.24173007 316.38382477 2000.8098495 316.38602898 C1996.85069141 316.39084076 1992.89155605 316.38939033 1988.93239669 316.38697128 C1984.61828374 316.38543318 1980.3041759 316.38968233 1975.99006465 316.39319804 C1968.39168501 316.39858096 1960.79331156 316.40021394 1953.19493016 316.3994473 C1941.81968739 316.39831385 1930.44445185 316.40288666 1919.06921071 316.40857814 C1899.68510588 316.41809982 1880.3010025 316.42279897 1860.91689557 316.42488748 C1841.26352012 316.42701431 1821.6101469 316.43127015 1801.95677251 316.4381302 C1800.09712443 316.43877612 1800.09712443 316.43877612 1798.19990771 316.43943509 C1793.15079623 316.4411934 1788.10168476 316.44296304 1783.05257329 316.44474811 C1722.51666651 316.46610848 1661.98075995 316.47702461 1601.44485037 316.48591035 C1580.87417778 316.48893347 1560.30350531 316.49239406 1539.73283285 316.49619156 C1539.03267128 316.49632068 1538.33250971 316.49644979 1537.61113113 316.49658282 C1531.23785886 316.4977583 1524.86458659 316.49893747 1518.49131432 316.50012008 C1446.47753649 316.5134751 1374.4637583 316.52586924 1227.74470246 316.54087912 C1220.89289511 316.54140358 1214.04108776 316.54194089 1207.18928041 316.54247758 C1204.90106374 316.54265679 1202.61284706 316.54283575 1200.32463038 316.54301467 C1185.78810028 316.54415175 1171.25157018 316.54529782 1156.71504009 316.54646287 C1152.87980639 316.54677018 1149.04457269 316.54707611 1145.20933899 316.54737877 C1072.77703651 316.5530984 1000.34473754 316.56234046 927.91243809 316.58479577 C927.14997899 316.585032 926.38751989 316.58526823 925.60195597 316.58551162 C901.01290338 316.59313947 876.42385094 316.60118831 851.83479851 316.60929688 C828.15811641 316.61710446 804.48143429 316.62482788 780.80475205 316.63218671 C779.67582021 316.63253784 779.67582021 316.63253784 778.52408166 316.63289607 C731.38853891 316.64753303 684.25299711 316.65733457 637.11745232 316.66206151 C636.38944062 316.66213511 635.66142892 316.6622087 634.91135625 316.66228453 C602.93857517 316.66551053 570.9657941 316.66767892 538.99301287 316.66866753 C526.13015038 316.66906834 513.2672879 316.66960174 500.40442542 316.67019896 C498.27168983 316.67029643 496.13895424 316.67038881 494.00621865 316.67048033 C461.38411088 316.67190902 428.76200761 316.67647852 396.13990253 316.69035631 C395.43641105 316.69065538 394.73291957 316.69095446 394.00811017 316.69126259 C382.69155794 316.69609113 371.37500582 316.70117305 360.05845371 316.70628859 C313.68176579 316.72724542 267.30509967 316.73586956 220.92840579 316.72616373 C214.61951981 316.72484523 208.31063381 316.7236672 202.00174779 316.7225731 C200.76500979 316.72235325 199.52827179 316.7221334 198.25405689 316.72190689 C178.65662758 316.71879032 159.05922928 316.72912783 139.46180716 316.74504865 C120.20001007 316.76041861 100.93825597 316.76156598 81.67645741 316.74750042 C70.37855755 316.73967945 59.08078887 316.74283386 47.78290207 316.76213758 C40.28106775 316.77386441 32.77932935 316.771101 25.27750025 316.75652294 C21.02387906 316.74866369 16.77051469 316.74697165 12.51691118 316.76314197 C8.64990797 316.77772526 4.78337426 316.77356789 0.9163918 316.75509032 C-1.1075848 316.75005714 -3.13158226 316.76441635 -5.1555063 316.7798463 C-24.78752885 316.62854551 -41.01002557 309.90737086 -55.24344569 296.251849 C-60.79369866 290.15989135 -64.83811417 283.61284604 -68.18094569 276.126849 C-68.46357265 275.49448327 -68.7461996 274.86211755 -69.03739101 274.21058923 C-73.8200976 262.7687706 -73.54146957 251.19045781 -73.53397304 239.01112634 C-73.5399648 237.06519071 -73.54677183 235.11925745 -73.55432826 233.17332727 C-73.57193169 227.90853741 -73.57668132 222.64381264 -73.57795984 217.37899619 C-73.57938546 214.08255451 -73.58366288 210.78612916 -73.58895427 207.48969156 C-73.60743742 195.96883108 -73.61562723 184.44801677 -73.61405116 172.92714196 C-73.61285096 162.22193764 -73.63393399 151.51693531 -73.66553849 140.81178206 C-73.69177426 131.59356268 -73.70241537 122.37540898 -73.70114034 113.15715259 C-73.70063276 107.66371665 -73.70620245 102.1704603 -73.72749645 96.67706186 C-73.74700164 91.5042383 -73.74692005 86.33176335 -73.73246318 81.15892678 C-73.73038898 79.27249144 -73.73499193 77.38603356 -73.7471841 75.49963647 C-73.87642457 54.09782957 -69.64040124 36.2623018 -54.38407069 20.35731775 C-53.32446132 19.31511071 -53.32446132 19.31511071 -52.24344569 18.251849 C-51.68141444 17.69110681 -51.11938319 17.13036462 -50.54032069 16.55263025 C-36.20227821 3.29342106 -18.83057468 -0.06694842 0 0 Z " fill="#FEFEFE" transform="translate(1999.2434456944466,1846.7481510043144)"/>
<path d="M0 0 C1316.7 0 2633.4 0 3990 0 C3990 477.51 3990 955.02 3990 1447 C2673.3 1447 1356.6 1447 0 1447 C0 969.49 0 491.98 0 0 Z M12 12 C12 481.59 12 951.18 12 1435 C1320.78 1435 2629.56 1435 3978 1435 C3978 965.41 3978 495.82 3978 12 C2669.22 12 1360.44 12 12 12 Z " fill="#FEFEFE" transform="translate(1005,964)"/>
<path d="M0 0 C0.78186676 0.00359528 1.56373352 0.00719055 2.36929321 0.01089478 C3.18873917 0.01074875 4.00818512 0.01060272 4.85246277 0.01045227 C7.57416385 0.01115164 10.29579737 0.01894515 13.01748657 0.02676392 C14.89935773 0.02862801 16.78122938 0.03005195 18.6631012 0.03105164 C23.62631561 0.0348775 28.58950096 0.04470836 33.55270386 0.05575562 C38.61322639 0.06596827 43.67375359 0.07054894 48.73428345 0.07559204 C58.67114521 0.08633057 68.60798535 0.10340781 78.54483032 0.12442017 C78.88341568 1.16854065 79.22200104 2.21266113 79.57084656 3.28842163 C88.11483088 29.63265574 96.75401487 55.94506489 105.41983032 82.24942017 C106.00231136 84.01759775 106.58479019 85.78577605 107.16726685 87.55395508 C109.52829853 94.7210268 111.88949529 101.88804412 114.25085449 109.05500793 C119.6031432 125.29992794 124.95352561 141.54547415 130.29815674 157.79291534 C131.55703331 161.61982679 132.81619581 165.44664338 134.07626343 169.27316284 C137.2419766 178.88713733 140.40082175 188.50332376 143.54483032 198.12442017 C143.897934 199.20484966 143.897934 199.20484966 144.25817108 200.30710602 C145.69364956 204.70166867 147.12500553 209.09754423 148.55120659 213.49512672 C148.99917752 214.87520453 149.44811274 216.25496974 149.89805794 217.63440514 C150.51549274 219.5283477 151.12878175 221.42364031 151.74185181 223.31900024 C152.09118271 224.39523148 152.44051361 225.47146271 152.8004303 226.58030701 C153.54483032 229.12442017 153.54483032 229.12442017 153.54483032 231.12442017 C131.10483032 231.12442017 108.66483032 231.12442017 85.54483032 231.12442017 C83.77350995 225.22001892 82.04384854 219.39175104 80.50186157 213.43692017 C80.2418763 212.43314331 80.2418763 212.43314331 79.97663879 211.40908813 C79.61696453 210.01806402 79.25826684 208.62678704 78.90054321 207.23526001 C78.35099415 205.09979878 77.79670282 202.96560399 77.24209595 200.83145142 C76.8909017 199.47084729 76.53997993 198.1101728 76.18936157 196.74942017 C75.87329956 195.52481079 75.55723755 194.30020142 75.2315979 193.03848267 C74.54483032 190.12442017 74.54483032 190.12442017 74.54483032 188.12442017 C49.79483032 188.45442017 25.04483032 188.78442017 -0.45516968 189.12442017 C-4.21755663 203.09900026 -7.94514668 217.08432818 -11.45516968 231.12442017 C-56.66516968 231.12442017 -101.87516968 231.12442017 -148.45516968 231.12442017 C-153.73516968 221.88442017 -159.01516968 212.64442017 -164.45516968 203.12442017 C-170.4258357 193.04826933 -170.4258357 193.04826933 -176.45516968 183.00723267 C-178.94786598 178.81663043 -181.27247248 174.60146831 -183.45321655 170.24118042 C-184.77079678 167.61171856 -186.13012165 165.00473476 -187.49032593 162.39712524 C-188.12473924 161.14932801 -188.7375473 159.89026643 -189.32626343 158.62026978 C-191.32589855 154.31287603 -193.22312533 151.91197214 -196.45516968 148.12442017 C-201.73516968 147.79442017 -207.01516968 147.46442017 -212.45516968 147.12442017 C-212.45516968 174.84442017 -212.45516968 202.56442017 -212.45516968 231.12442017 C-232.91516968 231.12442017 -253.37516968 231.12442017 -274.45516968 231.12442017 C-274.45516968 155.22442017 -274.45516968 79.32442017 -274.45516968 1.12442017 C-143.70469709 1.12442017 -143.70469709 1.12442017 -121.45516968 23.12442017 C-106.8800191 39.86063096 -104.31066045 56.52306063 -105.21688843 78.07510376 C-106.49333369 94.40994118 -114.78326423 107.93809476 -126.45516968 119.12442017 C-136.90308755 127.82880015 -136.90308755 127.82880015 -143.45516968 130.12442017 C-140.03940043 136.52632429 -136.27195993 142.57318693 -132.18563843 148.56582642 C-131.59205032 149.44298813 -130.99846222 150.32014984 -130.3868866 151.22389221 C-128.47545999 154.04716231 -126.55906283 156.86701956 -124.64266968 159.68692017 C-122.66267006 162.60913661 -120.68399832 165.53224896 -118.70544434 168.45544434 C-117.40594896 170.37525794 -116.1060459 172.29479566 -114.8057251 174.21405029 C-109.98735421 181.32802066 -105.20619493 188.46531601 -100.45516968 195.62442017 C-93.88119927 205.52170814 -87.1971169 215.34088761 -80.45516968 225.12442017 C-78.43439895 222.09326408 -77.50081252 219.60027642 -76.37069702 216.15151978 C-75.96137436 214.90967926 -75.5520517 213.66783875 -75.13032532 212.3883667 C-74.6837959 211.01787263 -74.23739368 209.64733711 -73.79110718 208.27676392 C-73.32280092 206.84947176 -72.85412972 205.42229929 -72.38511658 203.99523926 C-71.12372145 200.15285807 -69.86831849 196.30854357 -68.61420822 192.46377945 C-67.56391184 189.24625381 -66.5101646 186.02986248 -65.45652676 182.81342983 C-59.0473338 163.24479129 -52.71023385 143.6541058 -46.46844482 124.03137207 C-39.54953849 102.28601143 -32.41914061 80.61123114 -25.28231812 58.93667603 C-24.36066333 56.1373129 -23.4391238 53.33791185 -22.51766968 50.53848267 C-22.18293514 49.52166633 -22.18293514 49.52166633 -21.84143829 48.48430824 C-19.08493329 40.10889314 -16.34476558 31.72850498 -13.64266968 23.33535767 C-13.37372391 22.50018616 -13.10477814 21.66501465 -12.8276825 20.80453491 C-11.65817604 17.16866696 -10.49323223 13.53141189 -9.33480835 9.89199829 C-8.76596924 8.11599243 -8.76596924 8.11599243 -8.18563843 6.30410767 C-7.87005981 5.31136841 -7.5544812 4.31862915 -7.2293396 3.29580688 C-5.7965946 -0.7227469 -4.01263526 0.0077892 0 0 Z " fill="#FEFEFE" transform="translate(3075.4551696777344,1244.8755798339844)"/>
<path d="M0 0 C131.87327189 0 131.87327189 0 162 25 C162.58136719 25.43570312 163.16273438 25.87140625 163.76171875 26.3203125 C180.91020517 39.67134855 191.64423117 64.17415771 194.28320312 85.26318359 C197.91277391 121.99472577 195.1552717 161.23008031 171.40234375 191.1953125 C150.40136359 215.71352999 122.56932885 227.13006101 91 230 C60.97 230 30.94 230 0 230 C0 154.1 0 78.2 0 0 Z " fill="#FEFEFE" transform="translate(2564,1246)"/>
<path d="M0 0 C27.06 0 54.12 0 82 0 C87.28 10.23 92.56 20.46 98 31 C101.7827321 38.20645912 101.7827321 38.20645912 105.578125 45.40625 C108.4056836 50.7602628 111.20223573 56.13037516 114 61.5 C117.63040037 68.46655267 121.27232203 75.42668216 124.9375 82.375 C129.38670606 90.81115695 133.78562792 99.27307962 138.18115234 107.73730469 C141.84505192 114.78899013 145.53200532 121.82797555 149.23974609 128.85668945 C154.52765398 138.8864125 159.75985251 148.945272 165 159 C164.97003433 158.3410524 164.94006866 157.6821048 164.90919495 157.00318909 C163.63153303 127.18627164 163.88110188 97.34200173 163.92797339 67.50497496 C163.94048106 59.3958983 163.94577335 51.28681834 163.95117188 43.17773438 C163.96078381 28.7851425 163.98083543 14.39258933 164 0 C182.48 0 200.96 0 220 0 C220 76.23 220 152.46 220 231 C192.94 231 165.88 231 138 231 C126.19767442 208.5755814 126.19767442 208.5755814 122.3125 201.125 C121.82249512 200.1855957 121.33249023 199.24619141 120.82763672 198.27832031 C115.78069806 188.59361171 110.76583347 178.89233126 105.75158691 169.19067383 C105.27707092 168.27257935 105.27707092 168.27257935 104.79296875 167.3359375 C104.31845276 166.41784302 104.31845276 166.41784302 103.83435059 165.48120117 C100.54071469 159.10971205 97.23977463 152.7420156 93.9375 146.375 C93.36402832 145.26930664 92.79055664 144.16361328 92.19970703 143.02441406 C91.04447194 140.79718063 89.88919859 138.56996704 88.73388672 136.34277344 C86.40544963 131.8537618 84.07765418 127.36441764 81.75 122.875 C80.59003378 120.63792229 79.42987973 118.40094196 78.26953125 116.1640625 C75.55806344 110.93654798 72.84822038 105.70821243 70.1446228 100.47662354 C68.88038566 98.03052881 67.61515534 95.58494842 66.34985352 93.1394043 C65.46729817 91.4326268 64.58616322 89.72511507 63.70507812 88.01757812 C60.86211002 82.52387108 57.96963845 77.08137264 54.86743164 71.72900391 C54 70 54 70 54 68 C53.34 68 52.68 68 52 68 C52.33 68.99 52.66 69.98 53 71 C53.52883936 75.71903417 53.77736946 80.46342999 54.0546875 85.203125 C54.09929989 85.96495338 54.14391228 86.72678177 54.18987656 87.51169586 C55.6204221 113.09750569 55.2269937 138.75844353 55.14405417 164.37496138 C55.11897782 172.26167831 55.10844123 180.14840909 55.09765625 188.03515625 C55.07846694 202.02349439 55.03835922 216.01167229 55 230 C36.85 230 18.7 230 0 230 C0 154.1 0 78.2 0 0 Z " fill="#FDFEFE" transform="translate(3666,1246)"/>
<path d="M0 0 C27.06 0 54.12 0 82 0 C86.62 8.91 91.24 17.82 96 27 C99.75010855 34.1348126 99.75010855 34.1348126 103.5078125 41.265625 C106.35589679 46.66803468 109.17774853 52.08406283 112 57.5 C115.652127 64.50772863 119.31463407 71.50969301 123 78.5 C127.20305504 86.47224633 131.37387512 94.46103957 135.5390625 102.453125 C139.07412842 109.23320015 142.62762183 116.00328484 146.19555664 122.76611328 C148.53791694 127.20977087 150.86648517 131.66030362 153.18359375 136.1171875 C153.72435547 137.15681641 154.26511719 138.19644531 154.82226562 139.26757812 C155.87570935 141.29421533 156.92785494 143.32152798 157.97851562 145.34960938 C158.45869141 146.27322266 158.93886719 147.19683594 159.43359375 148.1484375 C159.85697021 148.96489746 160.28034668 149.78135742 160.71655273 150.62255859 C162.07034528 153.1303067 163.51644109 155.56714724 165 158 C165.0276368 155.29159356 165.04713583 152.58348395 165.0625 149.875 C165.07087891 149.13378906 165.07925781 148.39257812 165.08789062 147.62890625 C165.10781077 142.88791246 164.88383165 138.2167838 164.50099182 133.49069214 C163.99663693 126.59595308 163.86444532 119.75495715 163.88647461 112.84423828 C163.88632858 111.61324402 163.88618256 110.38224976 163.8860321 109.11395264 C163.88660302 105.78841613 163.89156399 102.46294431 163.89860606 99.13741922 C163.90492378 95.64344384 163.90544998 92.14946728 163.90663147 88.65548706 C163.90972025 82.0614921 163.91790005 75.46751403 163.92798096 68.87352645 C163.9403246 60.61751048 163.94574418 52.36149167 163.95117188 44.10546875 C163.96086731 29.40363273 163.98090671 14.70183348 164 0 C182.48 0 200.96 0 220 0 C220 76.23 220 152.46 220 231 C192.94 231 165.88 231 138 231 C132.18144427 219.94474412 126.37214321 208.89342281 120.66741943 197.78039551 C118.83792995 194.2169669 117.00507217 190.65527231 115.171875 187.09375 C114.81056488 186.39179504 114.44925476 185.68984009 114.07699585 184.96661377 C111.02988304 179.05048711 107.95904306 173.14696146 104.875 167.25 C100.43569446 158.76165755 96.02314353 150.25972841 91.625 141.75 C91.15077103 140.83247955 91.15077103 140.83247955 90.66696167 139.89642334 C90.19264206 138.97872162 90.19264206 138.97872162 89.70874023 138.04248047 C89.0701538 136.80696405 88.43156331 135.57144972 87.79296875 134.3359375 C87.47666 133.72394501 87.16035126 133.11195251 86.8344574 132.48141479 C83.54079466 126.1098496 80.23959546 119.74219841 76.9375 113.375 C76.37272949 112.28525879 75.80795898 111.19551758 75.22607422 110.07275391 C72.51342301 104.83983262 69.79745905 99.60869035 67.0717926 94.38253784 C65.77534652 91.89621548 64.48063175 89.40899354 63.18606567 86.92169189 C62.27279454 85.16875202 61.35701015 83.41712226 60.44116211 81.66552734 C59.88823486 80.60285645 59.33530762 79.54018555 58.765625 78.4453125 C58.27868164 77.51219238 57.79173828 76.57907227 57.29003906 75.61767578 C56.05782823 73.11734184 54.99658274 70.60205753 54 68 C53.34 68 52.68 68 52 68 C52.15405304 68.54021286 52.30810608 69.08042572 52.46682739 69.63700867 C59.21981499 99.565874 55.24292275 133.71715231 55.14405417 164.30293572 C55.11899306 172.19738521 55.10844442 180.09184848 55.09765625 187.98632812 C55.07845778 201.99094215 55.03835127 215.9953964 55 230 C36.85 230 18.7 230 0 230 C0 154.1 0 78.2 0 0 Z " fill="#FDFEFE" transform="translate(2294,1246)"/>
<path d="M0 0 C0.969375 0.2475 1.93875 0.495 2.9375 0.75 C10.41232955 2.6621657 17.89848266 4.96935246 25 8 C26 10 26 10 25.39894104 12.02481079 C25.05918747 12.85531952 24.7194339 13.68582825 24.36938477 14.54150391 C23.98891495 15.48232819 23.60844513 16.42315247 23.21644592 17.39248657 C22.79568283 18.41023163 22.37491974 19.42797668 21.94140625 20.4765625 C21.51826645 21.51694672 21.09512665 22.55733093 20.65916443 23.62924194 C19.30084812 26.96416834 17.93180832 30.2945738 16.5625 33.625 C15.64187054 35.87991957 14.72193935 38.13512437 13.80273438 40.390625 C11.54325982 45.93042309 9.27495672 51.46654315 7 57 C3.24793148 56.44063276 -0.21771147 55.70593933 -3.79296875 54.44140625 C-4.67146484 54.13783203 -5.54996094 53.83425781 -6.45507812 53.52148438 C-8.25808471 52.88869221 -10.06019124 52.25332889 -11.86132812 51.61523438 C-22.73489625 47.86927828 -32.91102502 46.62660663 -44.4152832 46.62939453 C-46.43200693 46.62501194 -48.44654986 46.58852484 -50.46289062 46.55078125 C-64.91338204 46.50813346 -76.5415554 50.55656875 -87.44140625 60.1484375 C-97.48100009 70.37489349 -101.74234283 83.12409171 -104 97 C-104.27457031 98.36318359 -104.27457031 98.36318359 -104.5546875 99.75390625 C-107.34671709 120.1063325 -105.00644859 145.09916101 -92.578125 162.046875 C-91.79695313 163.01367188 -91.79695313 163.01367188 -91 164 C-90.49984375 164.62390625 -89.9996875 165.2478125 -89.484375 165.890625 C-82.46737233 173.72514255 -71.64789169 178.53437189 -61.19702148 179.1706543 C-58.02460129 179.23266012 -54.86027886 179.22361911 -51.6875 179.1875 C-50.09131836 179.1865332 -50.09131836 179.1865332 -48.46289062 179.18554688 C-41.5337674 179.147498 -34.96518389 178.63319854 -28 178 C-28 166.12 -28 154.24 -28 142 C-41.53 142 -55.06 142 -69 142 C-69 125.83 -69 109.66 -69 93 C-36 93 -3 93 31 93 C31 134.25 31 175.5 31 218 C8.96369509 224.95883313 8.96369509 224.95883313 1.8125 226.1875 C0.54128296 226.4182019 0.54128296 226.4182019 -0.75561523 226.65356445 C-18.3322705 229.73430525 -36.44165389 232.24054426 -54.3125 232.125 C-55.53259766 232.11774902 -55.53259766 232.11774902 -56.77734375 232.11035156 C-86.77081805 231.81652834 -116.28744529 225.48798019 -138.2890625 203.80859375 C-150.77725729 190.87053604 -158.35567246 176.87973424 -164 160 C-164.30679688 159.11441406 -164.61359375 158.22882813 -164.9296875 157.31640625 C-172.93543697 131.5246876 -172.59192252 100.96746621 -166 75 C-165.71125 73.73671875 -165.4225 72.4734375 -165.125 71.171875 C-159.05230267 46.98952669 -142.92292561 25.15008769 -121.79052734 12.06298828 C-85.72777459 -9.34650524 -39.83257707 -11.38073631 0 0 Z " fill="#FDFDFE" transform="translate(4097,1248)"/>
<path d="M0 0 C20.79 0 41.58 0 63 0 C63.0093457 4.4758667 63.01869141 8.9517334 63.02832031 13.56323242 C63.06213428 28.37529026 63.11750859 43.18721008 63.18390274 57.999156 C63.2236218 66.97689785 63.25605039 75.95455295 63.27099609 84.93237305 C63.28404974 92.76231723 63.31110851 100.59206997 63.35461307 108.42190629 C63.37714485 112.56336737 63.39291569 116.70459304 63.39188385 120.84612083 C63.39113229 124.7540928 63.40927914 128.66154605 63.44116783 132.56938362 C63.44960102 133.99423731 63.45146217 135.41914963 63.44580269 136.84401703 C63.40108219 149.84757255 65.43069411 162.8741275 74.59375 172.7109375 C82.42504074 180.0082766 92.06244814 181.39106797 102.44921875 181.2734375 C110.94797292 180.61896798 119.17987825 178.27455085 125.3515625 172.16796875 C134.18656337 160.54847709 134.29788858 145.18417483 134.31884766 131.23535156 C134.32816956 129.79517061 134.3383415 128.35499495 134.34928894 126.91482544 C134.3763484 123.0437698 134.39166605 119.17275005 134.40471697 115.30162525 C134.42045403 111.24171189 134.44720993 107.18187069 134.4727478 103.12200928 C134.51934982 95.45133778 134.55618322 87.78065242 134.58942068 80.10991263 C134.62777414 71.3697316 134.67714921 62.62962339 134.72740483 53.88950396 C134.83044807 35.92638329 134.91834291 17.96323149 135 0 C155.79 0 176.58 0 198 0 C198.08060607 35.34576101 198.08060607 35.34576101 198.09765625 50.25976562 C198.10948202 60.52093526 198.12331557 70.78207184 198.15087891 81.04321289 C198.17095141 88.51933323 198.18374894 95.99542651 198.18817699 103.47157305 C198.19076117 107.42205484 198.1967388 111.37245929 198.21146011 115.32291603 C198.32732904 147.74822473 198.15453205 180.61998123 175 206 C174.48308594 206.6084375 173.96617187 207.216875 173.43359375 207.84375 C158.56053693 224.24511592 134.29764739 231.76691206 112.8598938 233.13674927 C107.38695359 233.38865392 101.91555314 233.43960272 96.4375 233.4375 C95.18317169 233.43860275 95.18317169 233.43860275 93.90350342 233.43972778 C80.73200912 233.40935696 68.48277742 232.55254235 56 228 C55.26716797 227.73767578 54.53433594 227.47535156 53.77929688 227.20507812 C34.69855642 220.14503485 19.36140063 207.18969188 10 189 C8.10186028 184.73290262 6.48660169 180.42576075 5 176 C4.70351562 175.15953125 4.40703125 174.3190625 4.1015625 173.453125 C0.13771537 161.44384557 -0.29447854 148.99641148 -0.22705078 136.45751953 C-0.22648495 134.95793668 -0.22680657 133.45835328 -0.22793579 131.95877075 C-0.2285036 127.9348847 -0.21684328 123.91112079 -0.20278788 119.88726282 C-0.19018387 115.6645843 -0.18910247 111.44190219 -0.18673706 107.21920776 C-0.18055045 99.24397151 -0.16417828 91.26879088 -0.14403808 83.29357898 C-0.12159071 74.20516423 -0.11066354 65.11674665 -0.10064721 56.02831101 C-0.07980916 37.35216952 -0.04316869 18.67610415 0 0 Z " fill="#FDFDFE" transform="translate(2048,1246)"/>
<path d="M0 0 C1.28683706 2.76121317 0.99322394 4.02254056 0.10717773 6.9699707 C-0.59749634 8.68059692 -0.59749634 8.68059692 -1.31640625 10.42578125 C-1.69671242 11.36275093 -1.69671242 11.36275093 -2.08470154 12.31864929 C-2.9001847 14.32106459 -3.73090829 16.3167282 -4.5625 18.3125 C-5.09544181 19.61220393 -5.62735252 20.91233116 -6.15820312 22.21289062 C-7.22175673 24.8153898 -8.29088323 27.41549565 -9.36376953 30.01416016 C-11.9615809 36.32162032 -14.47803572 42.66192793 -17 49 C-22.02970412 47.38026478 -26.9226052 45.62770885 -31.8125 43.625 C-47.76598208 37.40201054 -69.93063693 30.48035411 -86.75 36.6875 C-90.53043557 38.52043846 -93.10443759 40.12271325 -95 44 C-95.65627706 48.23877775 -95.50392483 51.76818374 -93.875 55.75 C-88.9075447 61.71094636 -82.74780437 64.96536121 -75.9375 68.4375 C-74.94959473 68.94901611 -73.96168945 69.46053223 -72.94384766 69.98754883 C-67.17356568 72.95029293 -61.35842987 75.80357959 -55.49609375 78.578125 C-54.86245407 78.87916641 -54.22881439 79.18020782 -53.57597351 79.4903717 C-50.48732893 80.95657279 -47.39423404 82.4089816 -44.28881836 83.83959961 C-24.64598861 93.09049014 -9.04543598 105.30210463 -1 126 C1.33942934 133.19884801 1.36697538 140.15639076 1.375 147.6875 C1.39949219 148.87794922 1.42398438 150.06839844 1.44921875 151.29492188 C1.50086532 167.12459664 -4.31826973 183.13141081 -15 195 C-17.532686 197.52172199 -20.19595484 199.78601471 -23 202 C-24.07507812 202.86431641 -24.07507812 202.86431641 -25.171875 203.74609375 C-32.47856965 209.25063385 -40.58553645 212.57456317 -49 216 C-49.8146875 216.36351562 -50.629375 216.72703125 -51.46875 217.1015625 C-54.96764843 218.34345546 -58.53856833 218.94838772 -62.1875 219.5625 C-62.89197266 219.68818359 -63.59644531 219.81386719 -64.32226562 219.94335938 C-96.18844982 225.45145094 -129.71971796 221.97214979 -159 208 C-160 207 -160 207 -160.12025452 204.79173279 C-160.11803391 203.81688431 -160.11581329 202.84203583 -160.11352539 201.83764648 C-160.11344986 200.73658066 -160.11337433 199.63551483 -160.11329651 198.50108337 C-160.10813522 197.3031868 -160.10297394 196.10529022 -160.09765625 194.87109375 C-160.0962413 193.65172623 -160.09482635 192.4323587 -160.09336853 191.17604065 C-160.08774967 187.2631693 -160.07519396 183.35035419 -160.0625 179.4375 C-160.05748743 176.79231853 -160.0529241 174.14713617 -160.04882812 171.50195312 C-160.03777411 165.00128274 -160.02101764 158.50064539 -160 152 C-156.54218042 153.12588776 -153.15333683 154.29820288 -149.8125 155.734375 C-127.12288228 165.28314998 -96.24019126 176.45053704 -71.5625 168.3125 C-67.63881428 166.5970281 -65.15262082 164.81600964 -63 161 C-61.24669813 155.7400944 -61.14418294 150.8976813 -63.4375 145.8125 C-69.456239 139.20656696 -77.6894869 135.48460979 -85.66796875 131.734375 C-87.71696711 130.75165696 -89.76578969 129.76857233 -91.81445312 128.78515625 C-94.99311697 127.26876085 -98.17363279 125.75655502 -101.35766602 124.25146484 C-122.86318112 114.06226901 -144.31342179 103.07380247 -153.96875 79.9140625 C-159.69931843 63.72086533 -160.91064332 42.57888067 -154.3125 26.4375 C-145.47436166 8.43509276 -131.94770984 -3.39985431 -113.06640625 -10.01171875 C-112.05449219 -10.33785156 -111.04257813 -10.66398437 -110 -11 C-108.68322266 -11.44279297 -108.68322266 -11.44279297 -107.33984375 -11.89453125 C-75.85932881 -21.53336162 -27.99276564 -17.87894107 0 0 Z " fill="#FEFEFE" transform="translate(3516,1258)"/>
<path d="M0 0 C45.21 0 90.42 0 137 0 C137 16.5 137 33 137 50 C111.92 50 86.84 50 61 50 C61 64.52 61 79.04 61 94 C84.1 94 107.2 94 131 94 C131 110.5 131 127 131 144 C107.9 144 84.8 144 61 144 C61 172.71 61 201.42 61 231 C40.87 231 20.74 231 0 231 C0 154.77 0 78.54 0 0 Z " fill="#FDFDFE" transform="translate(1875,1246)"/>
<path d="M0 0 C20.79 0 41.58 0 63 0 C63 76.23 63 152.46 63 231 C42.21 231 21.42 231 0 231 C0 154.77 0 78.54 0 0 Z " fill="#FDFDFE" transform="translate(3553,1246)"/>
<path d="M0 0 C20.79 0 41.58 0 63 0 C63 76.23 63 152.46 63 231 C42.21 231 21.42 231 0 231 C0 154.77 0 78.54 0 0 Z " fill="#FDFDFE" transform="translate(3254,1246)"/>
<path d="M0 0 C41.13315217 0 41.13315217 0 54.41015625 12.21484375 C69.11370672 28.7247272 69.99994462 52.11002783 69 73 C68.06317341 88.97218366 63.68648742 106.00646086 51.75 117.3125 C36.41734689 130.02988452 19.78561946 129 0 129 C0 86.43 0 43.86 0 0 Z " fill="#12518A" transform="translate(2626,1296)"/>
<path d="M0 0 C7.74610972 -0.06996438 15.49214337 -0.12304429 23.23849106 -0.15543652 C26.83668039 -0.17099475 30.43465121 -0.19204913 34.03271484 -0.22631836 C37.5146215 -0.25926816 40.99631996 -0.2769267 44.47837067 -0.28463173 C46.43232601 -0.29275243 48.38619931 -0.31611272 50.34002686 -0.33988953 C61.80785826 -0.34201884 73.21844885 0.90829469 82 9 C86.36675956 14.76610751 85.68965046 21.07998461 85 28 C83.06184855 35.325751 77.83474491 39.68571923 71.546875 43.48046875 C69.38325422 44.694954 67.20794135 45.86849264 65 47 C74.21573738 59.45647411 74.21573738 59.45647411 83.92578125 71.52734375 C85.31136207 73.17908134 86.66333482 74.85958772 87.98046875 76.56640625 C92.64843183 82.3710789 96.65156743 84.68993108 104 86 C104 87.65 104 89.3 104 91 C99.16240424 91.27364565 94.32937451 91.47223893 89.48583984 91.60424805 C87.8421378 91.65929641 86.19896798 91.73417216 84.55712891 91.82983398 C70.94282714 92.60271633 70.94282714 92.60271633 66.24145508 88.72436523 C64.18553726 85.90774107 62.56431654 83.11218647 61 80 C60.23432183 78.84315045 59.45073733 77.69757875 58.63671875 76.57421875 C57.99347656 75.62160156 57.35023438 74.66898438 56.6875 73.6875 C52.86899849 68.12301699 48.79789408 62.81744494 44.54174805 57.58081055 C42.50864913 55.05510573 41.03498563 53.10495688 40 50 C38.68 50 37.36 50 36 50 C36.33 60.89 36.66 71.78 37 83 C40.63 83.99 44.26 84.98 48 86 C48 87.65 48 89.3 48 91 C32.16 91 16.32 91 0 91 C0 89.35 0 87.7 0 86 C0.78246094 85.81824219 1.56492187 85.63648438 2.37109375 85.44921875 C3.38300781 85.19785156 4.39492187 84.94648437 5.4375 84.6875 C6.44683594 84.44386719 7.45617188 84.20023438 8.49609375 83.94921875 C9.32238281 83.63597656 10.14867188 83.32273437 11 83 C12.15190466 79.54428603 12.12007093 76.87950974 12.11352539 73.23364258 C12.11367142 72.55045456 12.11381744 71.86726654 12.1139679 71.16337585 C12.11327169 68.90706193 12.10549296 66.65083074 12.09765625 64.39453125 C12.09579103 62.82940211 12.09436762 61.26427239 12.09336853 59.69914246 C12.08955152 55.58096707 12.07972818 51.46282698 12.06866455 47.34466553 C12.05843291 43.14189125 12.05386715 38.93911127 12.04882812 34.73632812 C12.03810519 26.49086922 12.02103854 18.245439 12 10 C8.05233556 7.98193624 4.23962514 6.31226492 0 5 C0 3.35 0 1.7 0 0 Z " fill="#165EA1" transform="translate(2562,1958)"/>
<path d="M0 0 C6.16218439 4.7604858 10.28923148 11.71651794 11.84375 19.3671875 C13.1184417 30.01258578 12.86990839 39.46847574 7.1328125 48.78125 C1.59828437 55.78884645 -4.94435982 61.01611712 -13.8671875 62.78125 C-22.51039487 63.49566145 -29.0832207 62.55017259 -36.8671875 58.78125 C-36.75731782 62.05277618 -36.6266878 65.32315114 -36.4921875 68.59375 C-36.46125 69.52251953 -36.4303125 70.45128906 -36.3984375 71.40820312 C-36.35976562 72.30087891 -36.32109375 73.19355469 -36.28125 74.11328125 C-36.2498291 74.93546143 -36.2184082 75.7576416 -36.18603516 76.60473633 C-35.98345128 79.07077937 -35.98345128 79.07077937 -33.8671875 81.78125 C-31.22027082 82.58217254 -31.22027082 82.58217254 -28.2421875 82.96875 C-26.73785156 83.20658203 -26.73785156 83.20658203 -25.203125 83.44921875 C-24.43226563 83.55878906 -23.66140625 83.66835937 -22.8671875 83.78125 C-22.8671875 85.43125 -22.8671875 87.08125 -22.8671875 88.78125 C-38.0471875 88.78125 -53.2271875 88.78125 -68.8671875 88.78125 C-68.8671875 87.46125 -68.8671875 86.14125 -68.8671875 84.78125 C-68.22910156 84.57628906 -67.59101563 84.37132813 -66.93359375 84.16015625 C-66.10730469 83.89074219 -65.28101562 83.62132813 -64.4296875 83.34375 C-63.60597656 83.07691406 -62.78226563 82.81007813 -61.93359375 82.53515625 C-59.90499162 81.95969506 -59.90499162 81.95969506 -58.8671875 80.78125 C-58.75168705 78.52773986 -58.70746389 76.2705621 -58.69018555 74.01416016 C-58.68361435 73.30682236 -58.67704315 72.59948456 -58.67027283 71.87071228 C-58.65049722 69.52057807 -58.63886829 67.17050785 -58.62890625 64.8203125 C-58.62483072 64.01959698 -58.6207552 63.21888145 -58.61655617 62.39390182 C-58.5956779 58.15648402 -58.58138345 53.91909878 -58.57202148 49.68164062 C-58.56094912 45.29749392 -58.52654523 40.9138537 -58.48684978 36.52988625 C-58.46074519 33.16532425 -58.45233521 29.80088407 -58.44874001 26.43622971 C-58.44385856 24.81984407 -58.43220046 23.20346443 -58.41370201 21.58717728 C-58.38943832 19.32674923 -58.39025121 17.0676464 -58.3972168 14.80712891 C-58.39135056 13.51996979 -58.38548431 12.23281067 -58.37944031 10.90664673 C-58.56539994 7.72809566 -58.56539994 7.72809566 -60.69343567 5.91635132 C-63.33958727 4.53456977 -66.00794419 3.62602643 -68.8671875 2.78125 C-68.8671875 1.13125 -68.8671875 -0.51875 -68.8671875 -2.21875 C-58.1800245 -3.01460256 -47.58319073 -3.34700004 -36.8671875 -3.21875 C-36.3721875 0.24625 -36.3721875 0.24625 -35.8671875 3.78125 C-35.10535156 3.16636719 -35.10535156 3.16636719 -34.328125 2.5390625 C-24.08623654 -5.47799626 -11.31411111 -7.38494282 0 0 Z " fill="#175FA1" transform="translate(3203.8671875,1988.21875)"/>
<path d="M0 0 C0.97646484 -0.00708984 1.95292969 -0.01417969 2.95898438 -0.02148438 C10.16764528 0.04119963 17.06359923 0.68510727 22.8125 5.375 C23.34875 6.055625 23.885 6.73625 24.4375 7.4375 C24.994375 8.118125 25.55125 8.79875 26.125 9.5 C28.16359785 12.50935873 28.5651848 15.06266141 28.61108398 18.60180664 C28.62457382 19.43599625 28.63806366 20.27018585 28.65196228 21.12965393 C28.66240067 22.0265947 28.67283905 22.92353546 28.68359375 23.84765625 C28.71651515 25.74284346 28.74972707 27.63802563 28.78320312 29.53320312 C28.83073816 32.52446218 28.8752052 35.51569839 28.91430664 38.50708008 C28.95388622 41.3916491 29.0054456 44.2758099 29.05859375 47.16015625 C29.0670079 48.05912125 29.07542206 48.95808624 29.08409119 49.8842926 C29.10905418 51.13084877 29.10905418 51.13084877 29.13452148 52.40258789 C29.14482895 53.13522354 29.15513641 53.86785919 29.16575623 54.62269592 C29.29104745 56.68744591 29.29104745 56.68744591 31.4375 58.4375 C34.09287372 59.00270003 36.72894713 59.17538198 39.4375 59.4375 C39.4375 61.0875 39.4375 62.7375 39.4375 64.4375 C31.12359677 67.81942674 22.44792286 69.25161862 13.8125 66.125 C9.8318662 63.29665493 9.8318662 63.29665493 8.4375 61.4375 C8.4375 60.4475 8.4375 59.4575 8.4375 58.4375 C7.880625 58.83582031 7.32375 59.23414063 6.75 59.64453125 C-2.0894742 65.78139594 -9.55304723 69.03350121 -20.5625 67.4375 C-25.17162498 65.57910081 -29.07646592 62.82461896 -31.5625 58.4375 C-33.23567174 53.41798477 -33.51351109 48.2420123 -31.796875 43.1796875 C-26.84008106 33.99914661 -15.45460079 31.48641446 -6.125 28.625 C-5.14595703 28.31369141 -4.16691406 28.00238281 -3.15820312 27.68164062 C4.0181147 25.4375 4.0181147 25.4375 7.4375 25.4375 C7.34989411 23.37423023 7.24170727 21.3118284 7.125 19.25 C7.06699219 18.10144531 7.00898438 16.95289063 6.94921875 15.76953125 C6.40985751 12.25750728 5.5380277 10.27450902 3.4375 7.4375 C1.19237738 6.31493869 -0.07706649 6.30336238 -2.5625 6.3125 C-3.26375 6.30992188 -3.965 6.30734375 -4.6875 6.3046875 C-6.65403775 6.32372764 -6.65403775 6.32372764 -8.5625 7.4375 C-8.315 8.4584375 -8.315 8.4584375 -8.0625 9.5 C-7.47467573 12.95346758 -7.24457439 15.9403183 -7.5625 19.4375 C-9.42958505 21.80247439 -10.88311431 23.09780715 -13.5625 24.4375 C-15.18415752 24.55898305 -16.81134327 24.61293652 -18.4375 24.625 C-19.73300781 24.64626953 -19.73300781 24.64626953 -21.0546875 24.66796875 C-23.71972361 24.4230511 -25.30312647 23.84333242 -27.5625 22.4375 C-29.33104915 20.04995864 -29.63266645 18.0656178 -30.1875 15.125 C-29.39948902 10.47573521 -27.75939822 9.1051962 -24.2890625 6.11328125 C-16.35180749 1.2349397 -9.24077336 -0.18983696 0 0 Z " fill="#1860A1" transform="translate(2699.5625,1983.5625)"/>
<path d="M0 0 C0.97380615 -0.00636475 1.9476123 -0.01272949 2.95092773 -0.01928711 C10.44318818 0.11249111 17.28143767 0.99607895 23.1875 5.875 C27.97180154 11.78501954 28.7529293 15.61768311 28.75390625 23.0703125 C28.76711411 23.98835663 28.78032196 24.90640076 28.79393005 25.8522644 C28.8347363 28.77654092 28.85647835 31.70050358 28.875 34.625 C28.89878485 37.55654262 28.92687687 40.4877896 28.96678162 43.41915894 C28.99114363 45.24093311 29.00599812 47.06286438 29.01039124 48.88479614 C29.02057785 49.70930267 29.03076447 50.5338092 29.04125977 51.38330078 C29.04767235 52.46987473 29.04767235 52.46987473 29.05421448 53.57839966 C29.21330187 55.82669496 29.21330187 55.82669496 31.3125 58.5 C33.27611864 59.07748803 33.27611864 59.07748803 35.4375 59.1875 C36.71625 59.290625 37.995 59.39375 39.3125 59.5 C39.3125 61.15 39.3125 62.8 39.3125 64.5 C31.52350166 67.66840611 22.8833798 69.63029091 14.73828125 66.515625 C9.65531861 63.5589286 9.65531861 63.5589286 8.609375 60.328125 C8.51140625 59.72484375 8.4134375 59.1215625 8.3125 58.5 C7.66023438 58.98210937 7.00796875 59.46421875 6.3359375 59.9609375 C5.46195313 60.59257813 4.58796875 61.22421875 3.6875 61.875 C2.82898437 62.50148438 1.97046875 63.12796875 1.0859375 63.7734375 C-5.74228151 68.02424427 -12.83139744 68.44848067 -20.6875 67.5 C-25.28695739 65.70735434 -29.27709044 62.89545272 -31.6875 58.5 C-33.60042462 53.63073733 -33.27542127 48.2291802 -31.625 43.375 C-25.90426256 34.8861638 -18.35403913 32.56080329 -8.9375 29.625 C-7.70644531 29.2228125 -6.47539062 28.820625 -5.20703125 28.40625 C3.81816008 25.5 3.81816008 25.5 7.3125 25.5 C7.38070757 16.40610179 7.38070757 16.40610179 4.25 8.125 C0.20404458 5.88681189 -2.10292323 5.97390103 -6.6875 6.5 C-7.3475 7.16 -8.0075 7.82 -8.6875 8.5 C-8.3575 9.49 -8.0275 10.48 -7.6875 11.5 C-7.11196043 18.75179856 -7.11196043 18.75179856 -9.5625 21.9375 C-14.01050292 25.20809039 -18.29896978 25.13543988 -23.6875 24.5 C-26.62173195 22.70353146 -28.15955355 21.5558929 -29.6875 18.5 C-30.16885953 15.5430772 -30.16630465 13.42500984 -28.76953125 10.7265625 C-21.58349353 1.07493413 -11.16385776 0.06303252 0 0 Z " fill="#185FA1" transform="translate(3093.6875,1983.5)"/>
<path d="M0 0 C3.83413968 3.74062408 6.22455043 7.76460478 6.30297852 13.17016602 C6.32794151 14.38646446 6.32794151 14.38646446 6.35340881 15.62733459 C6.36182297 16.49410324 6.37023712 17.36087189 6.37890625 18.25390625 C6.39590073 19.15116928 6.4128952 20.04843231 6.43040466 20.97288513 C6.48347322 23.83601881 6.52380268 26.69913885 6.5625 29.5625 C6.60645769 32.42935801 6.65318196 35.29610512 6.70530701 38.16282654 C6.73720771 39.94567019 6.7641153 41.7286116 6.78553772 43.51161194 C6.79902756 44.31932541 6.8125174 45.12703888 6.82641602 45.95922852 C6.83592789 46.66886246 6.84543976 47.3784964 6.85523987 48.1096344 C6.94031953 50.22573955 6.94031953 50.22573955 8 53 C10.10584438 53.80563638 10.10584438 53.80563638 12.5625 54.1875 C13.38878906 54.34605469 14.21507813 54.50460937 15.06640625 54.66796875 C15.70449219 54.77753906 16.34257812 54.88710937 17 55 C17 56.65 17 58.3 17 60 C9.32107418 63.12363084 0.83716826 64.94905447 -7.28125 62.23828125 C-10.71340966 60.3985855 -12.78516988 58.11910987 -15 55 C-15.58007812 55.40992188 -16.16015625 55.81984375 -16.7578125 56.2421875 C-17.53898437 56.78101563 -18.32015625 57.31984375 -19.125 57.875 C-19.89070313 58.40867187 -20.65640625 58.94234375 -21.4453125 59.4921875 C-28.27004575 63.52024107 -35.25477126 63.89840871 -43 63 C-47.93142649 61.33030442 -50.96061845 58.64140871 -53.5 54.125 C-55.40161396 49.59168815 -55.92678536 45.71787617 -54.3046875 40.9609375 C-51.57772471 34.84245796 -48.11839621 31.30500278 -41.95703125 28.7265625 C-38.32809613 27.39742977 -34.68055967 26.17839125 -31 25 C-29.78054687 24.60296875 -28.56109375 24.2059375 -27.3046875 23.796875 C-18.50044014 21 -18.50044014 21 -15 21 C-15.14139481 18.74971671 -15.28828003 16.49977794 -15.4375 14.25 C-15.51871094 12.99703125 -15.59992187 11.7440625 -15.68359375 10.453125 C-15.96582832 6.63230661 -15.96582832 6.63230661 -17 3 C-19.82716095 2.05761302 -21.63176123 1.86534353 -24.5625 1.875 C-25.74005859 1.87113281 -25.74005859 1.87113281 -26.94140625 1.8671875 C-29.06438977 1.87023634 -29.06438977 1.87023634 -31 3 C-30.7525 3.99 -30.7525 3.99 -30.5 5 C-29.84768778 8.91387335 -29.62069201 12.01726607 -30 16 C-31.8125 18.5 -31.8125 18.5 -35 20 C-40.1210763 20.73706645 -44.43909731 20.70393651 -49.1875 18.5625 C-51.49581011 15.29902708 -51.66635471 13.11018855 -51.40234375 9.17578125 C-50.75737692 5.6879509 -49.7037688 4.31751611 -47 2 C-34.14182344 -5.63250953 -13.30864185 -8.15946494 0 0 Z " fill="#1860A1" transform="translate(3379,1988)"/>
<path d="M0 0 C2.83713909 0.99683265 4.46855553 0.68148303 7.3125 -0.1875 C7.6425 -0.5175 7.9725 -0.8475 8.3125 -1.1875 C10.2925 -1.1875 12.2725 -1.1875 14.3125 -1.1875 C14.3125 9.7025 14.3125 20.5925 14.3125 31.8125 C12.6625 31.8125 11.0125 31.8125 9.3125 31.8125 C8.65894531 30.3275 8.65894531 30.3275 7.9921875 28.8125 C1.60502522 14.25740336 1.60502522 14.25740336 -10.6875 4.8125 C-11.3475 4.4825 -12.0075 4.1525 -12.6875 3.8125 C-21.02926728 3.16314087 -26.73555022 3.51920851 -33.3125 9 C-41.5230301 18.72299617 -42.04994337 29.75100826 -42.0625 42 C-42.08699219 43.23814453 -42.11148438 44.47628906 -42.13671875 45.75195312 C-42.16841097 55.83536047 -40.92102093 67.30402876 -34.1953125 75.37890625 C-28.0097524 81.25999577 -21.87873912 82.48303419 -13.50512695 82.33837891 C-8.03746703 82.06282903 -4.06150665 81.07156378 0.3125 77.8125 C1.859375 76.7296875 1.859375 76.7296875 3.4375 75.625 C7.20472321 72.33385445 9.71522637 68.03997728 12.3125 63.8125 C14.75 64.625 14.75 64.625 17.3125 65.8125 C17.6425 66.8025 17.9725 67.7925 18.3125 68.8125 C13.04531172 79.18112588 4.18239911 87.17415465 -6.765625 90.96484375 C-20.04530502 94.31974711 -35.84313327 92.94084354 -47.671875 86.08203125 C-57.40845372 79.4901043 -63.8877327 70.96057761 -67.6875 59.8125 C-70.44041853 45.03090559 -69.87882902 30.27489629 -61.375 17.5 C-47.12644582 -1.41722937 -22.5397797 -9.95943754 0 0 Z " fill="#185FA1" transform="translate(3035.6875,1959.1875)"/>
<path d="M0 0 C2.68821523 2.42239491 4.10798739 4.56035231 5.76171875 7.76953125 C6.27347656 8.71957031 6.78523438 9.66960937 7.3125 10.6484375 C8.44921875 14.20703125 8.44921875 14.20703125 8.44921875 25.20703125 C-5.74078125 25.20703125 -19.93078125 25.20703125 -34.55078125 25.20703125 C-33.1238746 38.80460655 -33.1238746 38.80460655 -25.48828125 48.64453125 C-19.82044936 51.65933545 -14.37645822 52.30636371 -8.171875 50.5234375 C-4.12971237 48.87511061 -1.21469633 47.10277766 1.76171875 43.89453125 C2.64859375 43.00765625 3.53546875 42.12078125 4.44921875 41.20703125 C6.5546875 41.3515625 6.5546875 41.3515625 8.44921875 42.20703125 C8.77921875 43.19703125 9.10921875 44.18703125 9.44921875 45.20703125 C4.59529858 52.83918205 -2.78614338 58.38854348 -11.484375 60.69921875 C-23.33408911 62.66159179 -35.10393282 62.27517414 -45.265625 55.359375 C-52.36238685 49.61735477 -56.58129145 43.24523289 -57.84033203 34.10498047 C-58.82923917 23.74510821 -57.96423179 14.79764496 -51.55078125 6.20703125 C-38.75012959 -7.8257687 -15.90690257 -11.18111528 0 0 Z " fill="#175FA1" transform="translate(2916.55078125,1989.79296875)"/>
<path d="M0 0 C0.66 0 1.32 0 2 0 C2.60956854 2.53986892 3.21912215 5.07974141 3.82861328 7.61962891 C4.36580267 9.85764358 4.90324324 12.09559797 5.44091797 14.33349609 C6.83097974 20.1207085 8.21738599 25.90873212 9.59375 31.69921875 C12.24696514 42.84541 14.99216469 53.94385537 18 65 C18.860138 68.22759846 19.71185118 71.45738943 20.5625 74.6875 C20.85942749 75.80970947 20.85942749 75.80970947 21.16235352 76.95458984 C22.83210514 83.29041171 24.41043948 89.6417579 26 96 C9.83 96 -6.34 96 -23 96 C-19.55975385 78.79876924 -19.55975385 78.79876924 -17.75 72.1875 C-17.54093018 71.40366943 -17.33186035 70.61983887 -17.11645508 69.81225586 C-15.90691192 65.29123288 -14.66144448 60.7808825 -13.40234375 56.2734375 C-8.24395386 37.66187154 -4.06773119 18.87440018 0 0 Z " fill="#124A7E" transform="translate(3111,1286)"/>
<path d="M0 0 C0.8350708 0.00837891 1.6701416 0.01675781 2.53051758 0.02539062 C8.4548245 0.1407056 13.94013325 0.80499397 19.6875 2.3125 C20.0175 1.6525 20.3475 0.9925 20.6875 0.3125 C22.6675 0.3125 24.6475 0.3125 26.6875 0.3125 C26.6875 7.2425 26.6875 14.1725 26.6875 21.3125 C25.0375 21.3125 23.3875 21.3125 21.6875 21.3125 C21.38457031 20.70921875 21.08164063 20.1059375 20.76953125 19.484375 C17.67240275 13.57600678 15.10547131 9.79857448 8.8125 7.0625 C4.45610779 6.01696587 0.5732436 5.61775236 -3.6875 7.1875 C-5.47159903 8.23000421 -5.47159903 8.23000421 -6.3125 10.3125 C-6.67679317 13.66399719 -6.86467922 15.56072038 -4.83203125 18.328125 C-1.38553458 21.04257509 2.14242548 21.96891061 6.3125 23.1875 C14.67719388 25.81434559 21.86764262 28.67454059 28.3125 34.8125 C30.79065822 41.12053909 31.08759903 48.42796992 28.76953125 54.859375 C24.9099243 61.50439409 19.0557468 64.79362286 11.78125 66.765625 C-0.27810734 68.89732958 -10.30760375 67.671406 -21.3125 62.3125 C-21.6425 63.6325 -21.9725 64.9525 -22.3125 66.3125 C-24.2925 66.3125 -26.2725 66.3125 -28.3125 66.3125 C-28.3125 58.3925 -28.3125 50.4725 -28.3125 42.3125 C-26.6625 42.3125 -25.0125 42.3125 -23.3125 42.3125 C-23.07015625 42.83199219 -22.8278125 43.35148437 -22.578125 43.88671875 C-18.55832998 52.25098454 -14.03430235 57.58704443 -5.3125 61.3125 C-0.21689841 62.14963455 4.21404153 62.07146117 8.6875 59.3125 C10.24524936 56.19700128 10.25230622 52.7080612 9.6875 49.3125 C7.52587091 46.67661439 5.55632263 45.70698831 2.3359375 44.69921875 C1.48837891 44.42408447 0.64082031 44.1489502 -0.23242188 43.86547852 C-1.12509766 43.57987061 -2.01777344 43.2942627 -2.9375 43 C-20.38587338 37.11195016 -20.38587338 37.11195016 -24.875 29.625 C-26.94453201 24.65621577 -27.10638327 19.59425397 -26.3125 14.3125 C-23.22202607 7.89382339 -17.88695291 3.62501602 -11.33959961 0.92114258 C-7.59796962 -0.20229275 -3.87601165 -0.0835464 0 0 Z " fill="#1960A2" transform="translate(2819.3125,1983.6875)"/>
<path d="M0 0 C1.24756073 0.00197388 2.49512146 0.00394775 3.78048706 0.00598145 C4.72449371 0.00851929 5.66850037 0.01105713 6.64111328 0.01367188 C6.64658173 1.69496941 6.64658173 1.69496941 6.65216064 3.41023254 C6.68906335 13.96094841 6.746784 24.51137112 6.82501602 35.0618639 C6.86456586 40.48632348 6.89671744 45.91061889 6.91210938 51.33520508 C6.92722659 56.56790706 6.96158392 61.80015794 7.0094223 67.03265953 C7.02428718 69.03134941 7.03215721 71.03010367 7.03299713 73.02884865 C7.03535323 75.82351701 7.06232235 78.61692484 7.09521484 81.41137695 C7.09018448 82.24215759 7.08515411 83.07293823 7.07997131 83.92889404 C7.11650691 88.4106719 7.11650691 88.4106719 9.53460693 92.00834656 C11.57613522 92.98266124 13.41653085 93.61642501 15.64111328 94.01367188 C15.64111328 95.66367188 15.64111328 97.31367187 15.64111328 99.01367188 C2.44111328 99.01367188 -10.75888672 99.01367188 -24.35888672 99.01367188 C-24.35888672 97.36367187 -24.35888672 95.71367188 -24.35888672 94.01367188 C-21.71888672 93.68367188 -19.07888672 93.35367187 -16.35888672 93.01367188 C-15.19547267 89.52342973 -15.21125095 86.3904248 -15.21362305 82.76000977 C-15.21026443 82.02472549 -15.20690582 81.28944122 -15.20344543 80.53187561 C-15.19394249 78.10000929 -15.19199271 75.66821186 -15.19091797 73.23632812 C-15.18770513 71.54625927 -15.18434104 69.8561907 -15.18083191 68.16612244 C-15.17484243 64.62286738 -15.17299184 61.07963671 -15.17358398 57.53637695 C-15.17368564 52.99561002 -15.16002887 48.45499933 -15.14281178 43.91426945 C-15.13169525 40.42357159 -15.12966466 36.93291155 -15.13019371 33.4421978 C-15.12901325 31.7680552 -15.12458775 30.09391164 -15.11686134 28.41978645 C-15.10706764 26.07865564 -15.10993686 23.73786477 -15.1159668 21.39672852 C-15.10753754 20.35938568 -15.10753754 20.35938568 -15.09893799 19.30108643 C-15.12234992 15.72530077 -15.27339952 12.9893105 -17.35888672 10.01367188 C-19.74731089 8.67219646 -19.74731089 8.67219646 -22.48388672 7.76367188 C-23.39396484 7.42851563 -24.30404297 7.09335938 -25.24169922 6.74804688 C-25.94037109 6.50570313 -26.63904297 6.26335937 -27.35888672 6.01367188 C-27.35888672 4.36367187 -27.35888672 2.71367188 -27.35888672 1.01367188 C-24.3174228 0.8423218 -21.27580723 0.67655329 -18.23388672 0.51367188 C-17.39728516 0.46597656 -16.56068359 0.41828125 -15.69873047 0.36914062 C-10.46116451 0.09347926 -5.24527293 -0.0107983 0 0 Z " fill="#175FA1" transform="translate(3424.35888671875,1949.986328125)"/>
<path d="M0 0 C6.93 0 13.86 0 21 0 C21 6.6 21 13.2 21 20 C26.94 20 32.88 20 39 20 C39 22.31 39 24.62 39 27 C33.06 27 27.12 27 21 27 C21.0971233 32.58714575 21.19997128 38.17358223 21.31738281 43.76025391 C21.35557692 45.65927778 21.39044625 47.55837164 21.421875 49.45751953 C21.46773387 52.19328763 21.52569337 54.92857792 21.5859375 57.6640625 C21.59748871 58.50804596 21.60903992 59.35202942 21.62094116 60.22158813 C21.73507054 64.81886764 22.10445472 68.72470751 24 73 C26.9615696 74.4807848 29.83506295 74.35314037 33.125 74.5625 C35.04699219 74.68818359 35.04699219 74.68818359 37.0078125 74.81640625 C37.99523438 74.87699219 38.98265625 74.93757813 40 75 C40 76.65 40 78.3 40 80 C38.41800369 80.64910154 36.83434276 81.29414694 35.25 81.9375 C33.92742188 82.47697266 33.92742188 82.47697266 32.578125 83.02734375 C25.1493882 85.83000354 15.93266428 86.71987556 8.5 83.5 C4.32422681 80.84297096 1.95715251 77.52118397 0 73 C-0.63246494 69.36371638 -0.58675118 65.83804562 -0.48828125 62.15625 C-0.47766914 60.64170227 -0.47766914 60.64170227 -0.46684265 59.09655762 C-0.43903256 55.89692579 -0.37631815 52.69909571 -0.3125 49.5 C-0.28739988 47.32033792 -0.26458973 45.14064818 -0.24414062 42.9609375 C-0.18924956 37.63993925 -0.10306921 32.32027425 0 27 C-3.96 27 -7.92 27 -12 27 C-12 24.69 -12 22.38 -12 20 C-8.04 20 -4.08 20 0 20 C0 13.4 0 6.8 0 0 Z " fill="#1860A1" transform="translate(3279,1966)"/>
<path d="M0 0 C30.68493151 0 30.68493151 0 38.80078125 7.7109375 C44.78521785 14.48092067 44.57379498 21.37132466 44.17041016 30.03515625 C43.61133356 36.48135751 41.05699767 41.36547106 36.5 45.875 C25.3096951 54.51277185 14.32277465 53 0 53 C0 35.51 0 18.02 0 0 Z " fill="#124B7F" transform="translate(2863,1293)"/>
<path d="M0 0 C0.33 18.81 0.66 37.62 1 57 C3.64 57.66 6.28 58.32 9 59 C9 60.65 9 62.3 9 64 C-4.2 64 -17.4 64 -31 64 C-31 62.35 -31 60.7 -31 59 C-29.865625 58.690625 -28.73125 58.38125 -27.5625 58.0625 C-24.21224901 57.37075469 -24.21224901 57.37075469 -23 56 C-22.8864296 54.60444413 -22.84048516 53.20328288 -22.82299805 51.80322266 C-22.81016281 50.91204742 -22.79732758 50.02087219 -22.78410339 49.10269165 C-22.77671646 48.13294403 -22.76932953 47.16319641 -22.76171875 46.1640625 C-22.753647 45.17377045 -22.74557526 44.18347839 -22.73725891 43.16317749 C-22.72340091 41.06322999 -22.71268647 38.9632598 -22.70483398 36.86328125 C-22.6876092 33.6454013 -22.64373685 30.42854523 -22.59960938 27.2109375 C-22.58948411 25.17448675 -22.58096749 23.13802724 -22.57421875 21.1015625 C-22.55671066 20.13586334 -22.53920258 19.17016418 -22.52116394 18.17520142 C-22.52555229 16.82898209 -22.52555229 16.82898209 -22.5300293 15.45556641 C-22.52416306 14.66582428 -22.51829681 13.87608215 -22.51225281 13.06240845 C-22.83757674 10.8358412 -22.83757674 10.8358412 -24.82624817 9.29574585 C-27.44884515 7.73244911 -30.07941177 6.86290107 -33 6 C-33 4.35 -33 2.7 -33 1 C-30.68787444 0.82573482 -28.3755806 0.66072109 -26.0625 0.5 C-24.77472656 0.4071875 -23.48695313 0.314375 -22.16015625 0.21875 C-14.77970632 -0.09412297 -7.38707863 0 0 0 Z " fill="#1B62A3" transform="translate(2775,1985)"/>
<path d="M0 0 C0.00586624 0.66985428 0.01173248 1.33970856 0.01777649 2.02986145 C0.0816098 8.98902032 0.16600328 15.94771241 0.26245117 22.90649414 C0.29574743 25.50506443 0.32376454 28.10370787 0.34643555 30.70239258 C0.37989451 34.43342319 0.43220729 38.16378061 0.48828125 41.89453125 C0.49467117 43.06023148 0.5010611 44.2259317 0.50764465 45.42695618 C0.52743881 46.50785019 0.54723297 47.5887442 0.56762695 48.70239258 C0.58428154 50.13135612 0.58428154 50.13135612 0.60127258 51.58918762 C1.0729426 54.4410304 1.70532241 55.29412543 4 57 C7.10007201 58.20049407 7.10007201 58.20049407 10 59 C10 60.65 10 62.3 10 64 C-3.53 64 -17.06 64 -31 64 C-31 62.35 -31 60.7 -31 59 C-28.03 58.01 -25.06 57.02 -22 56 C-21.87653522 49.64631272 -21.78572379 43.29332122 -21.7253418 36.9387207 C-21.70017501 34.77648764 -21.66603842 32.61433982 -21.62280273 30.45239258 C-21.56224704 27.34695428 -21.53381213 24.24263903 -21.51171875 21.13671875 C-21.48591232 20.16788254 -21.4601059 19.19904633 -21.43351746 18.20085144 C-21.43246964 15.70182013 -21.47039148 13.4422794 -22 11 C-24.21573315 8.80731952 -24.21573315 8.80731952 -27 8 C-27.928125 7.608125 -28.85625 7.21625 -29.8125 6.8125 C-30.8953125 6.4103125 -30.8953125 6.4103125 -32 6 C-32 4.35 -32 2.7 -32 1 C-29.6670209 0.82626751 -27.33386219 0.66110616 -25 0.5 C-23.700625 0.4071875 -22.40125 0.314375 -21.0625 0.21875 C-14.0513401 -0.17211606 -7.01919604 -0.0387563 0 0 Z " fill="#165EA1" transform="translate(3255,1985)"/>
<path d="M0 0 C3.84226404 2.05421221 6.24863243 4.66803022 8.375 8.4375 C11.00560613 19.22298512 12.11535467 32.8059584 7.21484375 43.04296875 C5.05983662 46.51453972 2.71168915 49.14415543 -1 51 C-4.22082643 51.37163382 -6.82341431 51.66699869 -9.72265625 50.0234375 C-12.66103919 47.66984331 -14.72662557 45.51877377 -16 42 C-16.22800133 39.1135577 -16.35168593 36.32552892 -16.37109375 33.4375 C-16.38012222 32.60919678 -16.3891507 31.78089355 -16.39845276 30.92749023 C-16.41293577 29.1792359 -16.42183715 27.4309276 -16.42553711 25.68261719 C-16.43746057 23.00884099 -16.48668384 20.33735371 -16.53710938 17.6640625 C-16.54657111 15.96355291 -16.55380734 14.26302918 -16.55859375 12.5625 C-16.57812607 11.76448975 -16.59765839 10.96647949 -16.61778259 10.14428711 C-16.58570375 6.19850928 -16.39348401 4.41476985 -13.63061523 1.50244141 C-9.15525344 -1.05360282 -4.9909847 -0.94964373 0 0 Z " fill="#FAFCFD" transform="translate(3183,1994)"/>
<path d="M0 0 C14.92380952 0 14.92380952 0 20.671875 4.23046875 C25.1050304 9.07456271 24.64594071 15.15528386 24.41796875 21.390625 C23.67448966 27.81094908 22.00431596 31.37149328 17 35.4375 C10.9270473 38.6004962 7.38251795 38 0 38 C0 25.46 0 12.92 0 0 Z " fill="#FDFDFE" transform="translate(2598,1964)"/>
<path d="M0 0 C3.21768429 1.63500218 5.24783658 4.01891728 7.4375 6.875 C8.3323238 10.25544546 7.87208578 12.62793497 7 16 C4.88824247 19.41540567 2.90156258 21.69947914 -1 23 C-4.76854983 23.50247331 -8.41269044 23.83718859 -11.8515625 22.0234375 C-14.64048274 19.78405819 -17.07758224 17.48468933 -18 14 C-17.88697266 7.89652383 -16.10379879 5.20389144 -12 1 C-8.27083603 -0.86458199 -4.06038696 -0.56048286 0 0 Z " fill="#1960A2" transform="translate(3248,1950)"/>
<path d="M0 0 C4.12244569 1.74058818 6.66200608 4.18993583 9 8 C9.66659324 11.59960349 9.74584618 13.8216098 7.75390625 16.96875 C4.77818532 20.59007621 2.79166973 22.62777737 -2.05078125 23.2734375 C-6.31853138 23.46508086 -9.1159053 23.41093753 -12.5 20.625 C-16.17599422 16.76520607 -16.33881967 14.41597294 -16.2890625 9.2578125 C-15.86180676 5.92059878 -14.40534301 4.26789483 -12 2 C-7.95154115 -0.69897256 -4.75041428 -0.53620196 0 0 Z " fill="#1860A1" transform="translate(2766,1950)"/>
<path d="M0 0 C0.14533755 3.582906 0.23407931 7.16505417 0.3125 10.75 C0.35439453 11.76578125 0.39628906 12.7815625 0.43945312 13.828125 C0.56363589 21.37843741 0.56363589 21.37843741 -2.39453125 24.640625 C-6.63035136 26.8506181 -9.12415652 27.34216445 -14 27 C-16.61593153 25.16884793 -16.96989455 24.09031634 -18 21 C-18.25052929 16.49047283 -18.28949849 12.9545883 -16 9 C-12.19291985 5.19291985 -5.70503921 0 0 0 Z " fill="#F7FAFC" transform="translate(2707,2014)"/>
<path d="M0 0 C0.11632513 3.41637953 0.18728897 6.83224897 0.25 10.25 C0.30027344 11.70212891 0.30027344 11.70212891 0.3515625 13.18359375 C0.45002225 20.32192593 0.45002225 20.32192593 -1.734375 23.61328125 C-5.38034967 25.84486919 -8.76985436 26.20995208 -13 26 C-16.32004159 24.3399792 -16.81746738 23.54759787 -18 20 C-18.37373979 15.44037454 -18.45422154 12.96522078 -16.5 8.8125 C-12.22448772 4.00254869 -6.62921903 0 0 0 Z " fill="#F9FBFC" transform="translate(3101,2015)"/>
<path d="M0 0 C3.59495644 3.36050276 5.66387951 6.07023288 6 11 C6 14.3 6 17.6 6 21 C-0.6 21 -7.2 21 -14 21 C-14.36259484 13.74810322 -14.49020788 7.99194965 -10 2 C-6.23500419 -0.5099972 -4.45706394 -0.61476744 0 0 Z " fill="#F4F7FA" transform="translate(2896,1989)"/>
<path d="M0 0 C0 7.26 0 14.52 0 22 C-8.42372881 26.81355932 -8.42372881 26.81355932 -13 26 C-15.375 24.6875 -15.375 24.6875 -17 22 C-17.78706922 16.85192476 -17.59494762 12.46032598 -15.625 7.625 C-11.48152571 3.48152571 -5.98826571 0 0 0 Z " fill="#FAFCFD" transform="translate(3364,2015)"/>
<path d="M0 0 C0 0.99 0 1.98 0 3 C-1.38782485 3.8466034 -2.78569397 4.67675339 -4.1875 5.5 C-4.96480469 5.9640625 -5.74210937 6.428125 -6.54296875 6.90625 C-9.24103386 8.10729647 -11.0806982 8.20741043 -14 8 C-14.33 7.01 -14.66 6.02 -15 5 C-14.34 5 -13.68 5 -13 5 C-13 4.34 -13 3.68 -13 3 C-8.70614007 -0.4887612 -5.28129105 -0.26854022 0 0 Z " fill="#215789" transform="translate(475,1686)"/>
<path d="M0 0 C0 1.65 0 3.3 0 5 C-2.64 5.33 -5.28 5.66 -8 6 C-8.66 5.01 -9.32 4.02 -10 3 C-6.68152292 -0.06320961 -4.44849969 -0.3033068 0 0 Z " fill="#215889" transform="translate(480,1678)"/>
</svg>
