<?xml version="1.0" encoding="UTF-8"?>
<svg version="1.1" xmlns="http://www.w3.org/2000/svg" width="6000" height="3375">
<path d="M0 0 C1980 0 3960 0 6000 0 C6000 1113.75 6000 2227.5 6000 3375 C4020 3375 2040 3375 0 3375 C0 2261.25 0 1147.5 0 0 Z " fill="#164670" transform="translate(0,0)"/>
<path d="M0 0 C1316.7 0 2633.4 0 3990 0 C3990 477.51 3990 955.02 3990 1447 C2673.3 1447 1356.6 1447 0 1447 C0 969.49 0 491.98 0 0 Z " fill="#145C9F" transform="translate(1005,964)"/>
<path d="M0 0 C0.83824059 0.00002625 1.67648118 0.00005251 2.54012301 0.00007956 C3.50632121 -0.00231672 4.47251941 -0.00471301 5.46799635 -0.00718191 C7.08400619 -0.00349147 7.08400619 -0.00349147 8.73266269 0.00027352 C10.44138268 -0.00172036 10.44138268 -0.00172036 12.18462226 -0.00375452 C15.38225535 -0.0064546 18.57985062 -0.00461026 21.77748164 -0.00095154 C25.26025143 0.00193829 28.74301704 -0.00095442 32.22578669 -0.0031268 C38.37418196 -0.00614985 44.52256817 -0.0054054 50.67096326 -0.00229056 C59.90221576 0.00236501 69.1334614 0.00126014 78.36471449 -0.0009896 C94.16498883 -0.00467025 109.9652597 -0.00356221 125.76553391 0.0000615 C141.87850091 0.00373647 157.99146593 0.00522067 174.10443333 0.00404579 C175.63347745 0.00393631 175.63347745 0.00393631 177.19341136 0.00382462 C182.39760841 0.00344215 187.60180546 0.00302453 192.80600251 0.00259493 C230.88180861 -0.00047274 268.95761326 0.00140417 307.03341917 0.00573921 C345.64568398 0.01011912 384.25794801 0.01232168 422.87021307 0.011837 C424.69437121 0.01181557 424.69437121 0.01181557 426.55538102 0.0117937 C437.69960643 0.01166195 448.84383183 0.01150584 459.98805724 0.0113207 C487.93775801 0.0108575 515.88745878 0.01072509 543.83715955 0.01081192 C545.75864963 0.01081754 545.75864963 0.01081754 547.7189577 0.01082328 C610.92317282 0.01103764 674.12738765 0.01500733 737.33160261 0.01921463 C759.59085047 0.02069377 781.85009833 0.0221551 804.10934619 0.02355075 C805.49299427 0.02363751 806.87664234 0.02372428 808.30221915 0.02381368 C872.36051467 0.02780887 936.41881016 0.02924226 1000.47710579 0.03001672 C1004.66502761 0.03006748 1008.85294943 0.03011944 1013.04087125 0.03017172 C1038.29360843 0.03048581 1063.54634561 0.03077318 1088.79908279 0.03102969 C1151.58132223 0.03166859 1214.36356167 0.03262809 1277.14580111 0.03380489 C1278.57517388 0.03383152 1280.00454666 0.03385816 1281.47723377 0.0338856 C1374.07696453 0.03561359 1466.67669519 0.0386616 1559.27642588 0.0428133 C1561.49456978 0.04291273 1561.49456978 0.04291273 1563.75752467 0.04301417 C1608.77350903 0.04503492 1653.78949338 0.04715328 1698.80547774 0.04929074 C1748.62151775 0.05165569 1798.43755776 0.05400398 1848.25359777 0.05628013 C1849.75155736 0.05634863 1851.24951694 0.05641713 1852.79286924 0.05648771 C1995.03061876 0.06298654 2137.26836832 0.06679827 2279.50611796 0.06991392 C2285.52984465 0.07004606 2291.55357134 0.07017898 2297.57729804 0.07031194 C2353.00838838 0.07153533 2408.43947872 0.07272716 2463.87056906 0.07387936 C2465.34451506 0.07391 2466.81846105 0.07394064 2468.33707208 0.0739722 C2472.79978387 0.07406497 2477.26249566 0.07415772 2481.72520745 0.07425047 C2602.29172994 0.0767564 2722.85825243 0.07953761 2843.42477491 0.0824971 C2847.67885095 0.08260146 2851.93292698 0.0827056 2856.18700302 0.08280968 C2994.4345787 0.08619286 3132.68215436 0.09006355 3376.81911156 0.09914748 C3380.58435691 0.09929238 3384.34960226 0.09943702 3388.11484762 0.09958155 C3389.96359156 0.09965254 3389.96359156 0.09965254 3391.84968386 0.09972496 C3394.09283741 0.09981109 3396.33599095 0.09989718 3398.57914449 0.09998322 C3595.42241118 0.10754441 3792.26567781 0.11641794 3989.10894445 0.12494468 C3989.10894445 317.91494468 3989.10894445 635.70494468 3989.10894445 963.12494468 C2671.74894445 963.12494468 1354.38894445 963.12494468 -2.89105555 963.12494468 C-2.89105555 0.19101608 -2.89105555 0.19101608 0 0 Z " fill="#1E5485" transform="translate(1006.8910555454349,2411.875055315424)"/>
<path d="M0 0 C635 0 635 0 831 1 C835.62 0.67 840.24 0.34 845 0 C848.35595275 -0.00377162 851.66390849 0.02891757 855.01171875 0.15625 C855.87263626 0.18223267 856.73355377 0.20821533 857.62055969 0.23498535 C860.3098041 0.31662086 862.99861471 0.40733837 865.6875 0.5 C868.41566506 0.59200663 871.14381921 0.68184551 873.87226868 0.76501465 C875.55520881 0.81643469 877.23800361 0.87293197 878.920578 0.93518066 C882.24198571 1.03773138 884.82027178 1.05990941 888 0 C890.8878457 0.09079434 893.74443625 0.23964655 896.625 0.4375 C903.25352793 0.83934494 909.85866204 1.11412682 916.5 1.125 C917.56661865 1.13164673 917.56661865 1.13164673 918.65478516 1.13842773 C921.71555224 1.12984056 924.0725044 0.97583187 927 0 C929.00664306 -0.0940365 931.01630177 -0.12793376 933.02514648 -0.12939453 C934.26751572 -0.13254669 935.50988495 -0.13569885 936.78990173 -0.13894653 C938.15029943 -0.13715487 939.5106968 -0.13510345 940.87109375 -0.1328125 C942.27295448 -0.13348675 943.67481509 -0.13445779 945.07667542 -0.13571167 C948.02142444 -0.13718729 950.96614317 -0.13504136 953.91088867 -0.13037109 C957.65267369 -0.12472114 961.39438622 -0.12792329 965.13616848 -0.13394356 C968.03699773 -0.13759347 970.93781041 -0.13638966 973.83864021 -0.13381577 C975.21589225 -0.1331562 976.59314586 -0.1339403 977.97039604 -0.13629532 C979.91703124 -0.13888982 981.8636718 -0.13422329 983.81030273 -0.12939453 C984.91155991 -0.12859894 986.01281708 -0.12780334 987.14744568 -0.12698364 C992.44209148 0.04753263 997.72077779 0.56006482 1003 1 C1003 478.51 1003 956.02 1003 1448 C766.06 1448.33 529.12 1448.66 285 1449 C190.95 1449.33 96.9 1449.66 0 1450 C0 971.5 0 493 0 0 Z " fill="#184A77" transform="translate(0,963)"/>
<path d="M0 0 C1.2501847 0.00015598 2.50036941 0.00031196 3.7884385 0.00047267 C4.8340217 -0.00144447 4.8340217 -0.00144447 5.90072779 -0.00340034 C8.2708541 -0.00649871 10.64091561 -0.0023784 13.01103985 0.00162334 C14.72167141 0.0008847 16.43230282 -0.0002928 18.14293381 -0.00187286 C22.88646601 -0.00496203 27.62997703 -0.00175062 32.37350767 0.00240542 C37.50603214 0.00581683 42.63855429 0.00346981 47.77107918 0.00182265 C56.79024289 -0.00026269 65.80940002 0.00140482 74.82856297 0.00545603 C88.41415588 0.01153846 101.99974478 0.01182758 115.58533881 0.01099074 C138.34839514 0.00974634 161.11144799 0.01304284 183.87450325 0.0190956 C214.6533176 0.02726243 245.43212802 0.02919759 276.21094429 0.03006667 C350.24125901 0.03532407 424.27157289 0.04928508 498.30188667 0.06217116 C746.26594917 0.09310866 746.26594917 0.09310866 999.23938667 0.12467116 C999.23938667 478.29467116 999.23938667 956.46467116 999.23938667 1449.12467116 C945.48596268 1449.12467116 891.73282887 1449.12442586 837.97948372 1449.06120986 C835.99081694 1449.05893005 834.00215014 1449.05665876 832.01348334 1449.05439496 C828.89969588 1449.05084922 825.78590842 1449.04729854 822.67212099 1449.04372163 C811.66807771 1449.03108595 800.66403375 1449.01909153 789.65998976 1449.00709199 C769.37290463 1448.98495354 749.08582004 1448.96235739 728.79873573 1448.93947524 C708.79011478 1448.91690876 688.78149359 1448.89456117 668.77287209 1448.87248916 C666.88791528 1448.87040964 666.88791528 1448.87040964 664.96487854 1448.86828811 C658.57982183 1448.86124508 652.19476511 1448.85420581 645.80970838 1448.84716797 C600.89906033 1448.79765918 555.9884128 1448.74768497 511.07776558 1448.69742507 C500.2575955 1448.68531634 489.43742542 1448.67320928 478.61725533 1448.66110915 C477.94592424 1448.66035841 477.27459316 1448.65960766 476.58291871 1448.65883416 C445.20583948 1448.62374761 413.82875996 1448.58893124 382.45168036 1448.55418185 C380.40746532 1448.55191792 378.36325028 1448.54965388 376.31903524 1448.54738982 C362.76866293 1448.53238233 349.21829062 1448.51737944 335.6679183 1448.50237962 C308.07848016 1448.47183897 280.48904205 1448.44126919 252.89960396 1448.41068191 C251.63183423 1448.40927642 250.36406449 1448.40787093 249.0578775 1448.40642285 C164.78504668 1448.31299206 80.51221662 1448.21888656 -3.76061333 1448.12467116 C-3.76611123 1403.85326819 -3.77138321 1359.5818652 -3.77648247 1315.31046218 C-3.77658226 1314.44419681 -3.77668206 1313.57793145 -3.77678488 1312.68541562 C-3.78746879 1219.893434 -3.79669279 1127.10145238 -3.80295647 1034.30947036 C-3.80309592 1032.24911464 -3.80323537 1030.18875891 -3.80337482 1028.12840319 C-3.80629729 984.88426485 -3.80901403 941.6401265 -3.811493 898.39598814 C-3.81273843 876.67413605 -3.81402341 854.95228397 -3.81534577 833.23043188 C-3.81554502 829.95370214 -3.81574313 826.67697241 -3.81594121 823.40024267 C-3.81900243 772.92268382 -3.82291358 722.44512522 -3.82927788 671.96756667 C-3.82941478 670.88164322 -3.82955167 669.79571977 -3.82969272 668.67688955 C-3.83190519 651.16776347 -3.83418876 633.6586374 -3.83648177 616.14951133 C-3.84308248 565.73892542 -3.8491604 515.3283397 -3.85175312 464.9177534 C-3.85180665 463.88185094 -3.85186019 462.84594848 -3.85191535 461.77865504 C-3.85308091 439.04212861 -3.85397586 416.30560217 -3.85461431 393.56907571 C-3.85487594 384.42168791 -3.85517656 375.2743001 -3.85549057 366.1269123 C-3.855524 365.12574917 -3.85555742 364.12458604 -3.85559186 363.09308463 C-3.85668962 330.79601159 -3.86096515 298.49893993 -3.86689553 266.20186745 C-3.87285136 233.68746355 -3.87571504 201.17306099 -3.87423731 168.65865654 C-3.87403421 164.17266021 -3.87386684 159.68666389 -3.87372101 155.20066756 C-3.87369113 154.32123034 -3.87366125 153.44179311 -3.87363046 152.53570627 C-3.87324877 138.5709238 -3.87624336 124.60614413 -3.88062319 110.64136242 C-3.88485395 96.93311168 -3.88556396 83.22486461 -3.88244514 69.51661354 C-3.88072157 61.46458891 -3.88178249 53.41257586 -3.88683033 45.36055257 C-3.89026295 39.40587281 -3.88856481 33.45120214 -3.8847533 27.49652234 C-3.88403192 25.0853362 -3.88503071 22.67414885 -3.88784857 20.26296424 C-3.89140437 17.01764682 -3.88893441 13.77239134 -3.88481182 10.52707601 C-3.8873207 9.57564539 -3.88982958 8.62421477 -3.89241448 7.64395292 C-3.87183709 0.17485478 -3.87183709 0.17485478 0 0 Z " fill="#1A4D7A" transform="translate(5000.760613325983,962.8753288350999)"/>
<path d="M0 0 C1.44660007 -0.00372236 2.89319649 -0.00919763 4.33978419 -0.01624487 C8.30264052 -0.03051031 12.26509649 -0.02003544 16.22793701 -0.0053969 C20.55986131 0.0061395 24.89173457 -0.00569794 29.22365665 -0.01448435 C36.84096109 -0.02672713 44.45814839 -0.02410531 52.07545105 -0.01179497 C63.47876421 0.00655681 74.8819883 0.00178076 86.2853083 -0.0074934 C105.7200953 -0.02262511 125.15483733 -0.01878026 144.58962321 -0.00464308 C164.2864026 0.00961225 183.98315578 0.01516658 203.67993999 0.01007783 C204.92368797 0.0097621 206.16743596 0.00944637 207.44887328 0.00912108 C213.79069984 0.00747308 220.13252636 0.00568734 226.47435287 0.00385633 C272.38768573 -0.00908913 318.30099267 -0.00238701 364.21432185 0.01504457 C375.56698835 0.01934725 386.91965487 0.02361072 398.27232146 0.02765644 C398.97806122 0.02790829 399.68380098 0.02816015 400.4109268 0.02841964 C433.1112507 0.04001854 465.81157297 0.04202335 498.51189866 0.04172746 C500.65091709 0.04170929 502.78993552 0.04169649 504.92895395 0.04168555 C517.82752192 0.04161912 530.72608988 0.04148155 543.62465785 0.04125134 C575.69056808 0.04069036 607.75647822 0.04146939 639.82238841 0.04322946 C640.55237829 0.04326899 641.28236817 0.04330852 642.03447896 0.04334925 C689.31150349 0.04592668 736.58852504 0.05422298 783.8655479 0.06694543 C784.99768974 0.06724965 784.99768974 0.06724965 786.15270313 0.06756002 C810.66501836 0.07415291 835.17733349 0.08112579 859.68964861 0.08813349 C883.57635959 0.09496188 907.4630706 0.10165019 931.34978175 0.10785997 C932.11427011 0.10805878 932.87875848 0.1082576 933.66641315 0.10846244 C1006.26489089 0.12728953 1078.86336666 0.12955066 1151.46184646 0.12852211 C1155.30504484 0.12846836 1159.14824323 0.12841858 1162.99144161 0.12836857 C1167.59853896 0.12830835 1172.20563631 0.12824787 1176.81273366 0.12818605 C1192.87952815 0.12797049 1208.94632264 0.12777205 1225.01311713 0.12760779 C1227.30002696 0.12758387 1229.58693679 0.12755837 1231.87384661 0.12753253 C1278.36765004 0.12701648 1324.86145269 0.1290597 1371.35525584 0.13420236 C1372.0849769 0.13428295 1372.81469797 0.13436354 1373.56653179 0.13444658 C1407.04946226 0.13815625 1440.5323926 0.14269462 1474.01532288 0.14790198 C1476.16914273 0.14823687 1478.32296258 0.1485709 1480.47678243 0.14890469 C1484.7760343 0.14957117 1489.07528618 0.15023933 1493.37453805 0.15090822 C1494.43694521 0.15107346 1494.43694521 0.15107346 1495.52081515 0.15124203 C1502.65549351 0.15235224 1509.79017188 0.15346796 1516.92485024 0.15461179 C1548.91505093 0.15973959 1580.90525113 0.16381575 1612.89545226 0.16458118 C1614.32022746 0.16461655 1615.74500266 0.16465196 1617.16977786 0.16468742 C1622.85474469 0.16482689 1628.53971153 0.16495672 1634.22467837 0.16508239 C1686.9277131 0.16624874 1739.63073745 0.17376577 1792.33376911 0.19403978 C1797.38122472 0.19595502 1802.42868034 0.19784168 1807.47613597 0.19970644 C1808.71490092 0.2001675 1809.95366587 0.20062857 1811.22996915 0.20110361 C1830.87908826 0.20824388 1850.52820161 0.20870489 1870.17732165 0.20643477 C1889.47783556 0.20435124 1908.77833659 0.20939626 1928.07884653 0.22213503 C1939.4070257 0.22940207 1950.73517409 0.23118096 1962.06335407 0.22497902 C1969.57625346 0.22141037 1977.08912669 0.22502723 1984.60202077 0.23461457 C1988.86758519 0.23985477 1993.13308661 0.24193945 1997.39865038 0.23521685 C2001.26820288 0.22917719 2005.13763488 0.2323165 2009.00717691 0.24279771 C2010.39546176 0.24495261 2011.78375688 0.24376959 2013.17203456 0.23881596 C2032.77663463 0.17393482 2047.62707769 6.27095543 2062.00273585 19.68659532 C2077.82437413 36.07633551 2080.78001044 55.42196672 2080.70341945 77.14387071 C2080.70749217 79.09673928 2080.71283796 81.04960555 2080.71934962 83.00246751 C2080.73294479 88.27098867 2080.72775721 93.53933221 2080.71821237 98.8078562 C2080.71057622 104.34088105 2080.71767221 109.87389148 2080.72237086 115.40691698 C2080.72781649 124.69458797 2080.72066771 133.9821872 2080.70634913 143.26984727 C2080.69002015 153.98482453 2080.69531781 164.69963053 2080.71182835 175.41460365 C2080.72547153 184.64046951 2080.72734919 193.86628402 2080.71951234 203.09215671 C2080.714852 208.59096583 2080.71416578 214.08969462 2080.72412181 219.58849847 C2080.73283067 224.75885611 2080.7266983 229.9289943 2080.70943904 235.0993284 C2080.70549527 236.98905007 2080.70657176 238.87879043 2080.71322703 240.7685045 C2080.74517008 250.76524482 2080.4967217 259.89812805 2077.31523585 269.49909532 C2076.9388296 270.63604845 2076.56242335 271.77300157 2076.17461085 272.94440782 C2073.33141938 279.81211681 2069.84325705 285.61372819 2065.31523585 291.49909532 C2064.59336085 292.50972032 2063.87148585 293.52034532 2063.12773585 294.56159532 C2053.54658729 305.65555682 2038.63908092 313.03413016 2024.31523585 315.49909532 C2022.32702236 315.5877716 2020.33619725 315.62507575 2018.3460073 315.62565716 C2016.53421888 315.62982013 2016.53421888 315.62982013 2014.68582867 315.63406721 C2013.34527715 315.6320977 2012.00472576 315.63003741 2010.6641745 315.62789649 C2009.23229288 315.62926493 2007.80041162 315.63107109 2006.36853105 315.6332753 C2002.40937296 315.63808709 1998.4502376 315.63663666 1994.49107823 315.6342176 C1990.17696529 315.63267951 1985.86285745 315.63692865 1981.5487462 315.64044437 C1973.95036656 315.64582728 1966.35199311 315.64746026 1958.75361171 315.64669362 C1947.37836894 315.64556018 1936.0031334 315.65013298 1924.62789226 315.65582446 C1905.24378743 315.66534614 1885.85968405 315.67004529 1866.47557712 315.6721338 C1846.82220166 315.67426064 1827.16882844 315.67851648 1807.51545405 315.68537652 C1805.65580598 315.68602245 1805.65580598 315.68602245 1803.75858926 315.68668142 C1798.70947778 315.68843972 1793.6603663 315.69020936 1788.61125484 315.69199444 C1728.07534806 315.7133548 1667.5394415 315.72427094 1607.00353192 315.73315667 C1586.43285933 315.73617979 1565.86218686 315.73964038 1545.2915144 315.74343789 C1544.59135283 315.743567 1543.89119126 315.74369612 1543.16981268 315.74382914 C1536.79654041 315.74500462 1530.42326814 315.74618379 1524.04999587 315.74736641 C1452.03621803 315.76072142 1380.02243985 315.77311556 1233.30338401 315.78812544 C1226.45157666 315.7886499 1219.59976931 315.78918721 1212.74796196 315.7897239 C1210.45974529 315.78990311 1208.17152861 315.79008208 1205.88331193 315.790261 C1191.34678183 315.79139808 1176.81025173 315.79254414 1162.27372163 315.79370919 C1158.43848793 315.7940165 1154.60325423 315.79432244 1150.76802053 315.7946251 C1078.33571806 315.80034473 1005.90341909 315.80958678 933.47111964 315.8320421 C932.70866054 315.83227833 931.94620144 315.83251455 931.16063751 315.83275794 C906.57158493 315.84038579 881.98253249 315.84843463 857.39348006 315.85654321 C833.71679796 315.86435078 810.04011584 315.8720742 786.3634336 315.87943304 C785.23450175 315.87978417 785.23450175 315.87978417 784.08276321 315.8801424 C736.94722046 315.89477936 689.81167866 315.9045809 642.67613387 315.90930784 C641.94812217 315.90938143 641.22011046 315.90945503 640.4700378 315.90953085 C608.49725672 315.91275685 576.52447565 315.91492525 544.55169442 315.91591385 C531.68883193 315.91631467 518.82596945 315.91684806 505.96310697 315.91744528 C503.83037138 315.91754275 501.69763579 315.91763513 499.5649002 315.91772666 C466.94279243 315.91915534 434.32068916 315.92372484 401.69858408 315.93760264 C400.9950926 315.93790171 400.29160112 315.93820078 399.56679172 315.93850891 C388.25023948 315.94333746 376.93368736 315.94841937 365.61713526 315.95353491 C319.24044734 315.97449174 272.86378122 315.98311588 226.48708734 315.97341005 C220.17820136 315.97209156 213.86931536 315.97091353 207.56042933 315.96981943 C206.32369134 315.96959958 205.08695334 315.96937973 203.81273844 315.96915322 C184.21530912 315.96603664 164.61791083 315.97637416 145.02048871 315.99229498 C125.75869162 316.00766493 106.49693752 316.00881231 87.23513895 315.99474674 C75.9372391 315.98692577 64.63947042 315.99008018 53.34158362 316.0093839 C45.83974929 316.02111073 38.3380109 316.01834732 30.8361818 316.00376926 C26.58256061 315.99591002 22.32919624 315.99421798 18.07559272 316.0103883 C14.20858951 316.02497159 10.3420558 316.02081422 6.47507335 316.00233664 C4.45109675 315.99730347 2.42709928 316.01166267 0.40317524 316.02709262 C-19.22884731 315.87579184 -35.45134403 309.15461718 -49.68476415 295.49909532 C-55.23501711 289.40713767 -59.27943262 282.86009237 -62.62226415 275.37409532 C-62.9048911 274.7417296 -63.18751805 274.10936388 -63.47870946 273.45783556 C-68.26141605 262.01601693 -67.98278802 250.43770413 -67.97529149 238.25837266 C-67.98128325 236.31243704 -67.98809028 234.36650377 -67.99564672 232.42057359 C-68.01325014 227.15578373 -68.01799977 221.89105897 -68.01927829 216.62624252 C-68.02070391 213.32980084 -68.02498133 210.03337549 -68.03027272 206.73693788 C-68.04875587 195.21607741 -68.05694568 183.6952631 -68.05536962 172.17438829 C-68.05416941 161.46918396 -68.07525244 150.76418164 -68.10685694 140.05902839 C-68.13309271 130.84080901 -68.14373382 121.6226553 -68.1424588 112.40439892 C-68.14195121 106.91096298 -68.1475209 101.41770662 -68.1688149 95.92430818 C-68.1883201 90.75148463 -68.1882385 85.57900967 -68.17378163 80.40617311 C-68.17170743 78.51973776 -68.17631039 76.63327988 -68.18850255 74.7468828 C-68.31774302 53.3450759 -64.08171969 35.50954813 -48.82538915 19.60456407 C-47.76577977 18.56235704 -47.76577977 18.56235704 -46.68476415 17.49909532 C-46.1227329 16.93835313 -45.56070165 16.37761095 -44.98163915 15.79987657 C-32.23161124 4.00919542 -17.02264412 -0.12721873 0 0 Z " fill="#FEFEFE" transform="translate(1993.6847641468048,1847.5009046792984)"/>
<path d="M0 0 C1316.7 0 2633.4 0 3990 0 C3990 477.51 3990 955.02 3990 1447 C2673.3 1447 1356.6 1447 0 1447 C0 969.49 0 491.98 0 0 Z M12 12 C12 481.59 12 951.18 12 1435 C1320.78 1435 2629.56 1435 3978 1435 C3978 965.41 3978 495.82 3978 12 C2669.22 12 1360.44 12 12 12 Z " fill="#FEFEFE" transform="translate(1005,964)"/>
<path d="M0 0 C96.280607 0 96.280607 0 112.4375 6.125 C113.25331543 6.4235791 114.06913086 6.7221582 114.90966797 7.02978516 C135.11787296 14.79300794 151.06121193 30.00090118 160.171875 49.5625 C169.45800002 70.99201927 171.30231745 98.40268897 166 121 C165.84934082 121.69577148 165.69868164 122.39154297 165.54345703 123.10839844 C160.60439477 145.6639239 149.99681533 166.35496315 130.8984375 180.2578125 C91.29938005 205.59735535 46.2338924 198 0 198 C0 132.66 0 67.32 0 0 Z " fill="#FEFEFE" transform="translate(3532,1233)"/>
<path d="M0 0 C1.88863014 0.00333092 1.88863014 0.00333092 3.81541443 0.00672913 C4.50806396 0.0065831 5.2007135 0.00643707 5.91435242 0.00628662 C8.21400537 0.00698577 10.51357828 0.01477823 12.81321716 0.02259827 C14.40362504 0.02446244 15.99403349 0.02588635 17.58444214 0.02688599 C21.77827021 0.03071123 25.97206386 0.04054156 30.1658783 0.05158997 C34.44220006 0.06180395 38.71852736 0.06638358 42.99485779 0.07142639 C51.39135799 0.08216383 59.78783017 0.09924032 68.18431091 0.12025452 C71.11099205 7.17356148 73.64838724 14.29457946 76.00071716 21.55775452 C76.54778069 23.23238266 76.54778069 23.23238266 77.105896 24.94084167 C78.11080686 28.01835251 79.11289481 31.09676623 80.11396027 34.17552948 C81.87909738 39.5997261 83.65297178 45.02107913 85.42476654 50.44310379 C86.14338113 52.64259476 86.86158818 54.84221853 87.57975769 57.04185486 C92.82860408 73.11353456 98.1229307 89.17020151 103.41646194 105.22720623 C107.93991316 118.94873062 112.45598456 132.67268575 116.97172165 146.39675045 C118.15137756 149.98183379 119.33125682 153.566843 120.51200867 157.15156555 C122.67251963 163.71090285 124.83013677 170.27115783 126.97904968 176.83430481 C127.56681441 178.62733482 128.15609007 180.41987037 128.74699402 182.21186829 C129.52580254 184.57453365 130.29924914 186.93887969 131.07102966 189.30384827 C131.29144424 189.9683046 131.51185883 190.63276093 131.73895264 191.31735229 C132.62807747 194.06073534 133.18431091 196.21129469 133.18431091 199.12025452 C114.04431091 199.12025452 94.90431091 199.12025452 75.18431091 199.12025452 C73.02198645 192.63328112 71.27927786 186.10943634 69.55931091 179.49525452 C69.23446716 178.26806702 68.90962341 177.04087952 68.57493591 175.77650452 C68.1147406 174.00919983 68.1147406 174.00919983 67.64524841 172.20619202 C67.36471619 171.13417542 67.08418396 170.06215881 66.79515076 168.95765686 C66.18431091 166.12025452 66.18431091 166.12025452 66.18431091 162.12025452 C44.73431091 162.45025452 23.28431091 162.78025452 1.18431091 163.12025452 C-2.28068909 176.48525452 -2.28068909 176.48525452 -5.81568909 190.12025452 C-6.80568909 193.09025452 -7.79568909 196.06025452 -8.81568909 199.12025452 C-28.28568909 199.12025452 -47.75568909 199.12025452 -67.81568909 199.12025452 C-64.44140019 186.7478619 -64.44140019 186.7478619 -62.89308167 182.06532288 C-62.54388168 181.00422806 -62.1946817 179.94313324 -61.8348999 178.84988403 C-61.46375565 177.73125473 -61.09261139 176.61262543 -60.71022034 175.46009827 C-60.10316779 173.61762726 -59.49611934 171.77515489 -58.8892374 169.93262768 C-58.24680037 167.9836024 -57.60309929 166.03499866 -56.95906067 164.08650208 C-54.67830972 157.18492357 -52.40867833 150.27968522 -50.13990784 143.37416077 C-49.79637772 142.32885696 -49.79637772 142.32885696 -49.44590759 141.26243591 C-45.20774735 128.36210212 -41.05572687 115.4353943 -36.94068909 102.49525452 C-30.41227671 81.97726498 -23.72751133 61.51217542 -17.00318909 41.05775452 C-16.75858192 40.31362053 -16.51397476 39.56948654 -16.26195526 38.80280304 C-14.62852838 33.83407035 -12.99410622 28.86566594 -11.35865784 23.89759827 C-11.04267482 22.93772098 -11.04267482 22.93772098 -10.7203083 21.95845222 C-9.75646756 19.03122329 -8.79145778 16.10439218 -7.82408142 13.17832947 C-7.17889133 11.22171041 -6.53817749 9.26360604 -5.90324402 7.30363464 C-3.57237147 0.15257146 -3.57237147 0.15257146 0 0 Z " fill="#FDFEFE" transform="translate(2369.815689086914,1231.8797454833984)"/>
<path d="M0 0 C17.82 0 35.64 0 54 0 C54 24.42 54 48.84 54 74 C74.46 74 94.92 74 116 74 C116 49.58 116 25.16 116 0 C133.82 0 151.64 0 170 0 C170 65.34 170 130.68 170 198 C152.18 198 134.36 198 116 198 C116 171.27 116 144.54 116 117 C95.54 117 75.08 117 54 117 C54 143.73 54 170.46 54 198 C36.18 198 18.36 198 0 198 C0 132.66 0 67.32 0 0 Z " fill="#FDFEFE" transform="translate(2758,1233)"/>
<path d="M0 0 C1.17691406 0.18304687 2.35382812 0.36609375 3.56640625 0.5546875 C14.74890509 2.5089106 25.31656324 6.23818301 36 10 C33.50457208 17.91407142 30.48243608 25.60308582 27.38427734 33.29589844 C26.78980618 34.77764489 26.20036344 36.2614177 25.61572266 37.74707031 C24.76496525 39.90876108 23.89991145 42.06420197 23.03125 44.21875 C22.64205383 45.21859924 22.64205383 45.21859924 22.24499512 46.23864746 C21.58019062 47.86252471 20.79854254 49.43754291 20 51 C16.10806467 52.29731178 15.02225715 51.36981868 11.3125 49.75 C3.68092671 46.68031689 -3.8929765 45.24255558 -12 44 C-12.82113281 43.86722656 -13.64226563 43.73445313 -14.48828125 43.59765625 C-29.5623202 41.52533075 -44.07235786 42.54216374 -57 51 C-57.86625 51.556875 -58.7325 52.11375 -59.625 52.6875 C-71.8061441 64.54808768 -76.12769469 81.08322568 -76.38037109 97.63769531 C-76.34908141 115.04045037 -74.64851028 132.98911586 -62.25 146.4375 C-53.10923651 154.844206 -42.34239399 157.34683113 -30.25 157.1875 C-28.83267578 157.1865332 -28.83267578 157.1865332 -27.38671875 157.18554688 C-22.10879586 157.17911004 -22.10879586 157.17911004 -17 156 C-14.69 156 -12.38 156 -10 156 C-10 145.44 -10 134.88 -10 124 C-21.55 124 -33.1 124 -45 124 C-45 110.47 -45 96.94 -45 83 C-16.95 83 11.1 83 40 83 C40 118.31 40 153.62 40 190 C15.91233558 196.74454604 -4.50879546 200.72715962 -29 202 C-30.43279297 202.08024414 -30.43279297 202.08024414 -31.89453125 202.16210938 C-58.32889752 203.48191493 -84.64586465 196.58897965 -104.54345703 178.60498047 C-115.86575907 167.81636468 -122.38520459 154.86598215 -127 140 C-127.29648438 139.07703125 -127.59296875 138.1540625 -127.8984375 137.203125 C-134.29705653 115.78992468 -134.883457 89.57267566 -129 68 C-128.59974609 66.37771484 -128.59974609 66.37771484 -128.19140625 64.72265625 C-124.72020174 51.99490638 -118.68104946 39.94906792 -110 30 C-108.83984375 28.5459375 -108.83984375 28.5459375 -107.65625 27.0625 C-82.92804269 -2.55939681 -35.15783248 -6.03141969 0 0 Z " fill="#FEFEFE" transform="translate(2243,1232)"/>
<path d="M0 0 C17.82 0 35.64 0 54 0 C54.33 27.39 54.66 54.78 55 83 C58.3 77.72 61.6 72.44 65 67 C66.84921653 64.29985864 68.69694884 61.63859665 70.625 59 C75.62184469 52.04313592 80.39669579 44.95419796 85.125 37.8125 C90.4873033 29.71793342 95.85962643 21.64524188 101.72180176 13.90026855 C103.1301082 11.88561914 103.1301082 11.88561914 104.50378418 9.08508301 C109.19735567 0.63742203 109.19735567 0.63742203 113.99597168 -1.05938721 C117.61482568 -1.38875402 121.05810944 -1.35181141 124.6875 -1.171875 C126.63487061 -1.14640594 126.63487061 -1.14640594 128.62158203 -1.12042236 C132.05044081 -1.07490085 135.47305981 -0.95735817 138.8994751 -0.82397461 C142.4047806 -0.70052756 145.9111097 -0.64626961 149.41796875 -0.5859375 C156.28118727 -0.45778244 163.1402932 -0.25338933 170 0 C168.89641556 1.74659958 167.79119732 3.4921669 166.68530273 5.23730469 C166.07001205 6.20947937 165.45472137 7.18165405 164.82078552 8.18328857 C162.36902751 11.97609927 159.74184673 15.61630619 157.0625 19.25 C151.92545282 26.28948895 146.90235019 33.40057793 141.9375 40.5625 C137.23131258 47.34982956 132.5174358 54.13051318 127.75 60.875 C127.04254639 61.87805176 127.04254639 61.87805176 126.32080078 62.90136719 C123.77403465 66.5080439 121.20980929 70.10125615 118.62890625 73.68359375 C118.07428711 74.45783691 117.51966797 75.23208008 116.94824219 76.02978516 C115.88497865 77.51359323 114.81687344 78.99394796 113.74316406 80.47021484 C113.26717773 81.13617676 112.79119141 81.80213867 112.30078125 82.48828125 C111.87966064 83.07134033 111.45854004 83.65439941 111.0246582 84.25512695 C109.85286338 86.25055646 109.25466529 87.69238709 109 90 C109.74970746 92.1922029 109.74970746 92.1922029 111.0703125 94.39453125 C111.54774902 95.2553833 112.02518555 96.11623535 112.51708984 97.00317383 C113.0477002 97.93025146 113.57831055 98.8573291 114.125 99.8125 C114.66979004 100.78662842 115.21458008 101.76075684 115.77587891 102.7644043 C117.50530446 105.84983986 119.25165332 108.925254 121 112 C122.06855035 113.89535887 123.13628042 115.79118047 124.203125 117.6875 C126.34642389 121.49196307 128.4969134 125.29224151 130.65234375 129.08984375 C134.10242028 135.17279348 137.5229229 141.27206805 140.9375 147.375 C141.51363037 148.40431641 142.08976074 149.43363281 142.68334961 150.49414062 C145.70813772 155.89960748 148.7299227 161.3067437 151.75 166.71484375 C152.3675415 167.81973145 152.98508301 168.92461914 153.62133789 170.06298828 C154.78814912 172.15066908 155.95407731 174.2388438 157.11889648 176.32763672 C160.56720644 182.49579146 164.09754264 188.60836404 167.69946289 194.68823242 C169 197 169 197 169 198 C148.87 198 128.74 198 108 198 C104.37 190.74 100.74 183.48 97 176 C93.49460641 169.31859546 93.49460641 169.31859546 89.96875 162.6484375 C85.87875988 154.90037431 81.88357671 147.10288369 77.875 139.3125 C77.48511902 138.55488373 77.09523804 137.79726746 76.69354248 137.01669312 C74.4612305 132.67837645 72.23011687 128.33944544 70 124 C66.45966953 124.79106457 63.95326497 126.11905809 60.875 128.0625 C56.21647059 131 56.21647059 131 54 131 C54 153.11 54 175.22 54 198 C36.18 198 18.36 198 0 198 C0 132.66 0 67.32 0 0 Z " fill="#FDFEFE" transform="translate(4048,1233)"/>
<path d="M0 0 C107.86214442 0 107.86214442 0 127.16015625 18.03515625 C141.10299626 32.9252805 143.62442145 50.18777418 143.3125 69.734375 C142.68598151 87.1202631 136.3879533 101.74430243 124 114 C123.48179687 114.55171875 122.96359375 115.1034375 122.4296875 115.671875 C104.17847309 133.44530893 76.09418345 132 53 132 C53 153.78 53 175.56 53 198 C35.51 198 18.02 198 0 198 C0 132.66 0 67.32 0 0 Z " fill="#FEFEFE" transform="translate(3285,1233)"/>
<path d="M0 0 C38.94 0 77.88 0 118 0 C118 14.19 118 28.38 118 43 C96.88 43 75.76 43 54 43 C54 53.23 54 63.46 54 74 C73.47 74 92.94 74 113 74 C113 88.19 113 102.38 113 117 C93.53 117 74.06 117 54 117 C54 129.54 54 142.08 54 155 C75.12 155 96.24 155 118 155 C118 169.19 118 183.38 118 198 C79.06 198 40.12 198 0 198 C0 132.66 0 67.32 0 0 Z " fill="#FDFEFE" transform="translate(3735,1233)"/>
<path d="M0 0 C1.63582031 0.04640625 1.63582031 0.04640625 3.3046875 0.09375 C22.48584451 0.97971568 41.34743208 6.66292445 59 14 C56.5843905 23.19471997 52.92934274 31.8569554 49.3125 40.625 C48.69944249 42.1209187 48.08680895 43.61701124 47.47460938 45.11328125 C45.98795073 48.74420897 44.49558354 52.37273987 43 56 C42.39115967 55.7733667 41.78231934 55.5467334 41.1550293 55.31323242 C38.33430617 54.26643488 35.51093932 53.226948 32.6875 52.1875 C31.73037109 51.83107422 30.77324219 51.47464844 29.78710938 51.10742188 C18.29170475 46.88856967 7.32568511 43.84444969 -5 43.75 C-5.67289063 43.729375 -6.34578125 43.70875 -7.0390625 43.6875 C-13.22103458 43.63976276 -17.84663174 45.01227546 -22.4375 49.25 C-24.48046228 52.84561362 -24.57325731 54.91554166 -24 59 C-19.88890634 68.1565268 -7.93139162 72.17507551 0.625 76.375 C1.57995361 76.84905273 2.53490723 77.32310547 3.51879883 77.81152344 C7.87075329 79.9709152 12.23032344 82.11409128 16.59765625 84.2421875 C34.39428868 92.95060379 50.22544896 102.28637754 57 122 C61.03213758 135.55205807 60.5559852 150.98729782 55 164 C54.649375 164.8765625 54.29875 165.753125 53.9375 166.65625 C47.15422823 181.91861148 33.13378768 192.05520971 18 198 C2.64934453 203.72400382 -13.75283685 204.78940272 -30 204 C-30.80937012 203.96277832 -31.61874023 203.92555664 -32.45263672 203.88720703 C-49.09597512 202.99296744 -63.76560706 198.77084131 -79 192 C-79 176.16 -79 160.32 -79 144 C-75.00018827 145.33327058 -71.31995761 146.71382152 -67.4934082 148.41162109 C-56.98177059 153.01771809 -46.22319399 155.71712204 -35 158 C-34.0203125 158.20238281 -33.040625 158.40476562 -32.03125 158.61328125 C-27.58246582 159.18084521 -23.1685395 159.26493058 -18.6875 159.3125 C-17.78837891 159.34150391 -16.88925781 159.37050781 -15.96289062 159.40039062 C-9.58415173 159.46034985 -4.47770904 158.38384569 1 155 C3.9620221 151.74900014 4.87974574 149.84177982 5.5 145.5 C4.87354376 141.11480631 3.96502842 139.31800799 1 136 C-8.64465624 129.04035194 -20.25477418 124.4897676 -30.98144531 119.46704102 C-41.51490189 114.52315066 -51.07421078 109.53203061 -60 102 C-60.77690186 101.34717041 -61.55380371 100.69434082 -62.35424805 100.02172852 C-72.5263924 91.14313699 -77.15114238 77.04034089 -78.15966797 63.92333984 C-79.0350952 47.8423592 -75.82392422 34.13068367 -65.5 21.375 C-48.86401573 3.72694064 -23.31517729 -1.10237245 0 0 Z " fill="#FDFEFE" transform="translate(3958,1230)"/>
<path d="M0 0 C38.61 0 77.22 0 117 0 C117 14.19 117 28.38 117 43 C95.88 43 74.76 43 53 43 C53 53.23 53 63.46 53 74 C72.8 74 92.6 74 113 74 C113 88.19 113 102.38 113 117 C93.2 117 73.4 117 53 117 C53 129.54 53 142.08 53 155 C74.12 155 95.24 155 117 155 C117 169.19 117 183.38 117 198 C78.39 198 39.78 198 0 198 C0 132.66 0 67.32 0 0 Z " fill="#FEFEFE" transform="translate(2971,1233)"/>
<path d="M0 0 C38.61 0 77.22 0 117 0 C117 14.19 117 28.38 117 43 C95.88 43 74.76 43 53 43 C53 53.23 53 63.46 53 74 C72.8 74 92.6 74 113 74 C113 88.19 113 102.38 113 117 C93.2 117 73.4 117 53 117 C53 129.54 53 142.08 53 155 C74.12 155 95.24 155 117 155 C117 169.19 117 183.38 117 198 C78.39 198 39.78 198 0 198 C0 132.66 0 67.32 0 0 Z " fill="#FEFEFE" transform="translate(1966,1233)"/>
<path d="M0 0 C17.82 0 35.64 0 54 0 C54 51.15 54 102.3 54 155 C79.08 155 104.16 155 130 155 C130 169.19 130 183.38 130 198 C87.1 198 44.2 198 0 198 C0 132.66 0 67.32 0 0 Z " fill="#FDFDFE" transform="translate(3123,1233)"/>
<path d="M0 0 C17.82 0 35.64 0 54 0 C54 51.15 54 102.3 54 155 C79.08 155 104.16 155 130 155 C130 169.19 130 183.38 130 198 C87.1 198 44.2 198 0 198 C0 132.66 0 67.32 0 0 Z " fill="#FDFDFE" transform="translate(1804,1233)"/>
<path d="M0 0 C17.49 0 34.98 0 53 0 C53 51.15 53 102.3 53 155 C78.41 155 103.82 155 130 155 C130 169.19 130 183.38 130 198 C87.1 198 44.2 198 0 198 C0 132.66 0 67.32 0 0 Z " fill="#FEFEFE" transform="translate(2525,1233)"/>
<path d="M0 0 C7.59477841 -0.05109258 15.1895118 -0.08589701 22.78442383 -0.10986328 C25.36321672 -0.11986423 27.94199844 -0.13346932 30.52075195 -0.15087891 C34.24693577 -0.17538853 37.97296847 -0.18654254 41.69921875 -0.1953125 C42.8351799 -0.20563507 43.97114105 -0.21595764 45.14152527 -0.22659302 C56.02225967 -0.22808704 66.68486288 0.46186472 76.375 5.75 C77.0548999 6.10924561 77.7347998 6.46849121 78.43530273 6.83862305 C88.39708965 12.23393935 94.9234878 19.06412047 99.10546875 29.8515625 C102.88473008 43.01687663 101.99589358 55.68863475 96 68 C89.66969129 78.81293848 78.80945929 85.42502763 67 89 C58.55799443 90.80005541 50.40782607 91.27320699 41.796875 91.1953125 C40.5930719 91.1924826 39.3892688 91.18965271 38.14898682 91.18673706 C34.34921825 91.17564902 30.54969589 91.15056606 26.75 91.125 C24.15495135 91.11495549 21.55989896 91.10583223 18.96484375 91.09765625 C12.64314686 91.07574708 6.32159103 91.04238486 0 91 C0 89.35 0 87.7 0 86 C0.69867187 85.86722656 1.39734375 85.73445313 2.1171875 85.59765625 C3.48230469 85.33275391 3.48230469 85.33275391 4.875 85.0625 C6.23238281 84.80146484 6.23238281 84.80146484 7.6171875 84.53515625 C9.99956317 84.10036299 9.99956317 84.10036299 12 83 C13.13652833 79.59041502 13.13393633 76.96894777 13.14526367 73.37304688 C13.14862228 72.7044313 13.1519809 72.03581573 13.15544128 71.34693909 C13.16493781 69.13752382 13.16689358 66.92818441 13.16796875 64.71875 C13.17118165 63.18322722 13.17454575 61.64770475 13.17805481 60.11218262 C13.18404241 56.89427989 13.18589503 53.676404 13.18530273 50.45849609 C13.185201 46.33239534 13.19886656 42.20646622 13.21607494 38.08040619 C13.22718389 34.90972093 13.2292223 31.73907736 13.22869301 28.56837463 C13.22987428 27.04691474 13.2343043 25.52545382 13.24202538 24.00401306 C13.25180542 21.87820328 13.24895558 19.75276874 13.24291992 17.62695312 C13.24434494 16.41688599 13.24576996 15.20681885 13.24723816 13.96008301 C13.22459512 10.813079 13.22459512 10.813079 11 8 C8.35952748 6.98247445 8.35952748 6.98247445 5.375 6.3125 C4.37210938 6.06113281 3.36921875 5.80976562 2.3359375 5.55078125 C1.56507813 5.36902344 0.79421875 5.18726563 0 5 C0 3.35 0 1.7 0 0 Z " fill="#175FA1" transform="translate(2494,1958)"/>
<path d="M0 0 C34.92051756 0 34.92051756 0 46.3984375 10.11328125 C57.46809545 22.02653767 59.54882235 35.96351884 59.375 51.8125 C59.37067963 52.47264099 59.36635925 53.13278198 59.36190796 53.81292725 C59.2364233 70.15266314 57.78846221 87.89926669 45.8828125 100.3203125 C32.41755325 112.33288818 17.82977755 111 0 111 C0 74.37 0 37.74 0 0 Z " fill="#14528B" transform="translate(3585,1276)"/>
<path d="M0 0 C7.74610972 -0.06996438 15.49214337 -0.12304429 23.23849106 -0.15543652 C26.83668039 -0.17099475 30.43465121 -0.19204913 34.03271484 -0.22631836 C37.5146215 -0.25926816 40.99631996 -0.2769267 44.47837067 -0.28463173 C46.43232601 -0.29275243 48.38619931 -0.31611272 50.34002686 -0.33988953 C61.80785826 -0.34201884 73.21844885 0.90829469 82 9 C86.36675956 14.76610751 85.68965046 21.07998461 85 28 C83.06184855 35.325751 77.83474491 39.68571923 71.546875 43.48046875 C69.38325422 44.694954 67.20794135 45.86849264 65 47 C74.21573738 59.45647411 74.21573738 59.45647411 83.92578125 71.52734375 C85.31136207 73.17908134 86.66333482 74.85958772 87.98046875 76.56640625 C92.64843183 82.3710789 96.65156743 84.68993108 104 86 C104 87.65 104 89.3 104 91 C99.16240424 91.27364565 94.32937451 91.47223893 89.48583984 91.60424805 C87.8421378 91.65929641 86.19896798 91.73417216 84.55712891 91.82983398 C70.94282714 92.60271633 70.94282714 92.60271633 66.24145508 88.72436523 C64.18553726 85.90774107 62.56431654 83.11218647 61 80 C60.23432183 78.84315045 59.45073733 77.69757875 58.63671875 76.57421875 C57.99347656 75.62160156 57.35023438 74.66898438 56.6875 73.6875 C52.86899849 68.12301699 48.79789408 62.81744494 44.54174805 57.58081055 C42.50864913 55.05510573 41.03498563 53.10495688 40 50 C38.68 50 37.36 50 36 50 C36.33 60.89 36.66 71.78 37 83 C40.63 83.99 44.26 84.98 48 86 C48 87.65 48 89.3 48 91 C32.16 91 16.32 91 0 91 C0 89.35 0 87.7 0 86 C0.78246094 85.81824219 1.56492187 85.63648438 2.37109375 85.44921875 C3.38300781 85.19785156 4.39492187 84.94648437 5.4375 84.6875 C6.44683594 84.44386719 7.45617188 84.20023438 8.49609375 83.94921875 C9.32238281 83.63597656 10.14867188 83.32273437 11 83 C12.15190466 79.54428603 12.12007093 76.87950974 12.11352539 73.23364258 C12.11367142 72.55045456 12.11381744 71.86726654 12.1139679 71.16337585 C12.11327169 68.90706193 12.10549296 66.65083074 12.09765625 64.39453125 C12.09579103 62.82940211 12.09436762 61.26427239 12.09336853 59.69914246 C12.08955152 55.58096707 12.07972818 51.46282698 12.06866455 47.34466553 C12.05843291 43.14189125 12.05386715 38.93911127 12.04882812 34.73632812 C12.03810519 26.49086922 12.02103854 18.245439 12 10 C8.05233556 7.98193624 4.23962514 6.31226492 0 5 C0 3.35 0 1.7 0 0 Z " fill="#165EA1" transform="translate(3026,1958)"/>
<path d="M0 0 C3.97654612 2.41672247 6.48014873 4.45037182 8.25 8.875 C9.26180587 17.52891612 8.12201247 22.99390206 2.9375 30 C0.16532374 32.96558391 -2.30446616 34.79165396 -5.75 36.875 C-4.27920916 40.11960895 -2.43575824 42.68054495 -0.1875 45.4375 C0.51503906 46.30246094 1.21757812 47.16742187 1.94140625 48.05859375 C2.70324219 48.98800781 3.46507813 49.91742187 4.25 50.875 C5.08402344 51.89722656 5.91804688 52.91945313 6.77734375 53.97265625 C8.93127073 56.60977064 11.08895022 59.24372179 13.25 61.875 C17.70416213 55.02375062 20.58038989 50.29994228 20.25 41.875 C15.3 39.895 15.3 39.895 10.25 37.875 C10.25 36.225 10.25 34.575 10.25 32.875 C22.46 32.875 34.67 32.875 47.25 32.875 C47.25 34.525 47.25 36.175 47.25 37.875 C46.41597656 38.00132813 45.58195312 38.12765625 44.72265625 38.2578125 C38.44691527 39.62366678 34.17476549 41.05308892 30.47021484 46.55761719 C28.99642812 49.00319641 27.59431311 51.47510383 26.25537109 53.99707031 C25.26391452 55.8490091 24.21895629 57.65606342 23.14453125 59.4609375 C21.48466525 62.25057257 19.85656342 65.05447387 18.25 67.875 C28.06475447 78.27863974 34.72209658 83.84536643 49.25 85.875 C49.25 87.525 49.25 89.175 49.25 90.875 C43.8241899 91.07356579 38.4005165 91.21829525 32.97192383 91.31445312 C31.1277989 91.35455334 29.28392626 91.40905166 27.44067383 91.47851562 C12.05650893 92.04352951 12.05650893 92.04352951 7.44189453 89.05859375 C5.69801345 87.0655868 4.39176512 85.25723031 3.25 82.875 C2.30898437 83.42929688 1.36796875 83.98359375 0.3984375 84.5546875 C-0.85920604 85.28674867 -2.11702808 86.01850325 -3.375 86.75 C-4.30119141 87.29720703 -4.30119141 87.29720703 -5.24609375 87.85546875 C-14.3443783 93.12289665 -23.39658731 94.09687797 -33.75 92.875 C-40.64620992 90.94164453 -45.93993975 86.95050148 -49.75 80.875 C-52.72287214 74.79506358 -52.55124881 68.48710731 -51.75 61.875 C-48.58188029 52.96089892 -41.42309246 47.14290892 -33.1875 42.9375 C-32.383125 42.586875 -31.57875 42.23625 -30.75 41.875 C-31.14832031 41.16214844 -31.54664062 40.44929688 -31.95703125 39.71484375 C-33.57983665 36.78115906 -35.17085149 33.83238754 -36.75 30.875 C-37.10191406 30.235625 -37.45382813 29.59625 -37.81640625 28.9375 C-40.73307287 23.07598641 -40.6763095 16.82761154 -38.75 10.6875 C-29.89361118 -1.76679678 -14.15352537 -6.51945448 0 0 Z " fill="#1860A1" transform="translate(2939.75,1958.125)"/>
<path d="M0 0 C1.07580322 -0.00954712 1.07580322 -0.00954712 2.17333984 -0.01928711 C7.72914248 0.11465782 11.85369396 1.4773681 16.0625 5.125 C17.1875 7.5 17.1875 7.5 17.1875 16.5 C23.7875 16.5 30.3875 16.5 37.1875 16.5 C37.1875 23.1 37.1875 29.7 37.1875 36.5 C43.1275 36.5 49.0675 36.5 55.1875 36.5 C55.1875 38.48 55.1875 40.46 55.1875 42.5 C49.2475 42.5 43.3075 42.5 37.1875 42.5 C37.28461106 48.22955228 37.38745189 53.95841091 37.50488281 59.6875 C37.54308233 61.63502798 37.57795075 63.58262435 37.609375 65.53027344 C37.65522196 68.33553446 37.71318366 71.14032839 37.7734375 73.9453125 C37.78498871 74.81116974 37.79653992 75.67702698 37.80844116 76.56912231 C37.92102665 81.21765327 38.26149915 85.17997411 40.1875 89.5 C43.1490696 90.9807848 46.02256295 90.85314037 49.3125 91.0625 C51.23449219 91.18818359 51.23449219 91.18818359 53.1953125 91.31640625 C54.18273438 91.37699219 55.17015625 91.43757813 56.1875 91.5 C56.1875 93.15 56.1875 94.8 56.1875 96.5 C54.62729133 97.15134925 53.06421421 97.79582964 51.5 98.4375 C50.19482422 98.97697266 50.19482422 98.97697266 48.86328125 99.52734375 C41.92826123 102.04824884 33.33043154 103.03656553 26.3125 100.3125 C22.0824908 97.85909466 19.08750205 95.51376924 17.06298828 90.98388672 C15.88499132 86.29620779 15.94006785 81.88388017 15.9921875 77.0703125 C15.9950174 76.07998016 15.99784729 75.08964783 16.00076294 74.06930542 C16.0119153 70.92107824 16.03701093 67.77314051 16.0625 64.625 C16.07253618 62.48437912 16.08166092 60.34375376 16.08984375 58.203125 C16.1101328 52.96855005 16.14929126 47.73459723 16.1875 42.5 C6.6175 42.5 -2.9525 42.5 -12.8125 42.5 C-12.73858896 49.13925003 -12.65583813 55.77713048 -12.55004883 62.41577148 C-12.51676314 64.67481431 -12.48874267 66.93394103 -12.46606445 69.19311523 C-12.43258574 72.43770148 -12.38027282 75.68151633 -12.32421875 78.92578125 C-12.31782883 79.93836502 -12.3114389 80.95094879 -12.30485535 81.99421692 C-12.27516411 83.40534004 -12.27516411 83.40534004 -12.24487305 84.8449707 C-12.22821846 86.08740288 -12.22821846 86.08740288 -12.21122742 87.35493469 C-11.72076277 89.993526 -10.90804256 90.87127358 -8.8125 92.5 C-6.54856029 93.28356902 -6.54856029 93.28356902 -4.125 93.6875 C-2.91263672 93.92533203 -2.91263672 93.92533203 -1.67578125 94.16796875 C-1.06089844 94.27753906 -0.44601563 94.38710937 0.1875 94.5 C0.1875 96.15 0.1875 97.8 0.1875 99.5 C-14.0025 99.5 -28.1925 99.5 -42.8125 99.5 C-42.8125 97.85 -42.8125 96.2 -42.8125 94.5 C-41.678125 94.190625 -40.54375 93.88125 -39.375 93.5625 C-36.02474901 92.87075469 -36.02474901 92.87075469 -34.8125 91.5 C-34.6899645 89.96617321 -34.63472062 88.42689481 -34.60717773 86.88842773 C-34.58723251 85.90748642 -34.56728729 84.9265451 -34.54673767 83.9158783 C-34.53002518 82.8492244 -34.51331268 81.7825705 -34.49609375 80.68359375 C-34.47531265 79.5974025 -34.45453156 78.51121124 -34.43312073 77.3921051 C-34.36750558 73.90730373 -34.30868489 70.42242432 -34.25 66.9375 C-34.20682615 64.58137199 -34.16321224 62.22525201 -34.11914062 59.86914062 C-34.01181203 54.07950795 -33.91057869 48.28979646 -33.8125 42.5 C-37.7725 42.5 -41.7325 42.5 -45.8125 42.5 C-45.8125 40.52 -45.8125 38.54 -45.8125 36.5 C-41.5225 36.5 -37.2325 36.5 -32.8125 36.5 C-32.998125 33.90125 -32.998125 33.90125 -33.1875 31.25 C-33.1770607 22.40791191 -29.48227958 15.09888446 -23.625 8.5625 C-16.55325091 2.30377195 -9.28583046 0.0709987 0 0 Z " fill="#175FA1" transform="translate(2792.8125,1949.5)"/>
<path d="M0 0 C13.2 0 26.4 0 40 0 C40 1.65 40 3.3 40 5 C37.69 5.66 35.38 6.32 33 7 C33.53663742 12.19523038 34.77105789 16.28629152 36.94140625 21.02734375 C37.22853989 21.66112442 37.51567352 22.29490509 37.81150818 22.94789124 C38.72013244 24.94837236 39.64104437 26.94290186 40.5625 28.9375 C41.18506981 30.30235835 41.8068226 31.66758969 42.42773438 33.03320312 C43.94240672 36.35983104 45.4681441 39.68124356 47 43 C50.60903095 35.9639627 54.02910808 28.94241519 56.875 21.5625 C57.18179688 20.80001953 57.48859375 20.03753906 57.8046875 19.25195312 C59.31209235 15.37913398 60.42063806 12.23161892 60 8 C57.36 7.01 54.72 6.02 52 5 C52 3.35 52 1.7 52 0 C71.47 0 90.94 0 111 0 C111.25 27.3125 111.25 27.3125 111.29785156 35.9309082 C111.32720928 38.17922022 111.35803289 40.42751379 111.390625 42.67578125 C111.39231689 44.43408264 111.39231689 44.43408264 111.39404297 46.22790527 C111.42377197 47.90233704 111.42377197 47.90233704 111.45410156 49.6105957 C111.46298401 50.58100296 111.47186646 51.55141022 111.48101807 52.55122375 C111.78726932 55.13834634 111.78726932 55.13834634 113.89349365 56.79386902 C115.95589048 57.97474403 117.67017036 58.58395899 120 59 C120 60.65 120 62.3 120 64 C106.8 64 93.6 64 80 64 C80 62.35 80 60.7 80 59 C80.56589844 58.87882812 81.13179687 58.75765625 81.71484375 58.6328125 C82.81505859 58.38144531 82.81505859 58.38144531 83.9375 58.125 C85.03384766 57.88136719 85.03384766 57.88136719 86.15234375 57.6328125 C88.20700294 57.17038477 88.20700294 57.17038477 89 55 C89.11396749 53.63295509 89.16926993 52.26074441 89.19287109 50.88916016 C89.21696548 49.6174144 89.21696548 49.6174144 89.24154663 48.31997681 C89.28597538 44.44574776 89.32705044 40.57168971 89.35009766 36.69726562 C89.36667113 34.6525536 89.39397938 32.60789984 89.43212891 30.56347656 C89.48682435 27.61753245 89.50875886 24.67294557 89.5234375 21.7265625 C89.55744156 20.35608261 89.55744156 20.35608261 89.59213257 18.95791626 C89.62677673 13.67983259 89.62677673 13.67983259 86.65478516 9.45458984 C82.29338377 7.06492372 78.95105367 6.48782203 74 7 C69.30991222 10.79348072 67.16382099 15.15915246 64.75 20.52734375 C64.3694043 21.35271133 63.98880859 22.17807892 63.59667969 23.02845764 C62.79484013 24.77346796 61.99839097 26.52096411 61.20703125 28.27075195 C60.01543986 30.90338802 58.80619094 33.52730229 57.59375 36.15039062 C53.24549412 45.62467478 49.26626779 55.09553534 46 65 C42.04 65 38.08 65 34 65 C29.76804773 56.68678813 25.85505396 48.29834686 22.125 39.75 C18.37490139 31.21507071 14.55030813 22.75872509 10.23486328 14.49316406 C8 10.18711085 8 10.18711085 8 8 C6.865625 7.690625 5.73125 7.38125 4.5625 7.0625 C1 6 1 6 0 5 C0 3.35 0 1.7 0 0 Z " fill="#1960A2" transform="translate(3199,1985)"/>
<path d="M0 0 C12.87 0 25.74 0 39 0 C39 1.65 39 3.3 39 5 C36.36 5.66 33.72 6.32 31 7 C32.43660245 11.00032292 33.87444453 15.00019921 35.3125 19 C35.91868164 20.68802734 35.91868164 20.68802734 36.53710938 22.41015625 C38.65148453 28.28915057 40.78747223 34.15720823 43 40 C46.71081049 31.11733731 49.78661064 22.02881753 52.87182617 12.91625977 C53.53066012 10.973302 54.19293508 9.0315424 54.85546875 7.08984375 C55.24371826 5.94378662 55.63196777 4.79772949 56.03198242 3.61694336 C57 1 57 1 58 0 C62.29 0 66.58 0 71 0 C75.95 13.53 80.9 27.06 86 41 C89.74472814 37.25527186 90.86666415 31.60259818 92.625 26.6875 C93.04523437 25.54603516 93.46546875 24.40457031 93.8984375 23.22851562 C94.49398437 21.57432617 94.49398437 21.57432617 95.1015625 19.88671875 C95.64804443 18.37404419 95.64804443 18.37404419 96.20556641 16.83081055 C96.98183352 14.06473275 97.15882839 11.85400888 97 9 C92.545 7.02 92.545 7.02 88 5 C88 3.35 88 1.7 88 0 C96.91 0 105.82 0 115 0 C115 1.65 115 3.3 115 5 C113.46313477 6.10302734 113.46313477 6.10302734 111.37890625 6.9609375 C105.02344278 10.56185385 103.39023441 17.10935324 100.9375 23.625 C100.42343587 24.93456275 99.90730626 26.2433165 99.38916016 27.55126953 C97.89181499 31.35492942 96.44319123 35.17546618 95 39 C94.60796387 40.02416016 94.21592773 41.04832031 93.81201172 42.10351562 C90.92007386 49.66521113 88.14146261 57.18876019 86 65 C81.71 65 77.42 65 73 65 C72.55084229 63.7632251 72.10168457 62.5264502 71.63891602 61.25219727 C69.97750465 56.67971857 68.31243702 52.10857865 66.64624023 47.5378418 C65.9245321 45.55643674 65.2038266 43.57466619 64.48413086 41.5925293 C63.4516691 38.74952894 62.4156517 35.90784682 61.37890625 33.06640625 C61.05596085 32.17474258 60.73301544 31.28307892 60.40028381 30.36439514 C60.10004807 29.54361984 59.79981232 28.72284454 59.49047852 27.87719727 C59.22622574 27.15105728 58.96197296 26.4249173 58.68971252 25.67677307 C58.12401075 23.99569211 58.12401075 23.99569211 57 23 C52.05 36.86 47.1 50.72 42 65 C38.04 65 34.08 65 30 65 C26.9692586 57.88739301 24.10799499 50.73741275 21.37109375 43.5078125 C21.05210114 42.66724304 20.73310852 41.82667358 20.40444946 40.96063232 C19.0770994 37.46077047 17.75107012 33.96047369 16.43579102 30.45605469 C15.46268579 27.86651224 14.48015955 25.28070618 13.49609375 22.6953125 C13.05842934 21.51861496 13.05842934 21.51861496 12.61192322 20.31814575 C10.39530555 14.52714116 8.32028551 9.33862626 2.75 6.125 C1.8425 5.75375 0.935 5.3825 0 5 C0 3.35 0 1.7 0 0 Z " fill="#1B62A2" transform="translate(3396,1985)"/>
<path d="M0 0 C0.97646484 -0.00708984 1.95292969 -0.01417969 2.95898438 -0.02148438 C10.16764528 0.04119963 17.06359923 0.68510727 22.8125 5.375 C23.34875 6.055625 23.885 6.73625 24.4375 7.4375 C24.994375 8.118125 25.55125 8.79875 26.125 9.5 C28.16359785 12.50935873 28.5651848 15.06266141 28.61108398 18.60180664 C28.62457382 19.43599625 28.63806366 20.27018585 28.65196228 21.12965393 C28.66240067 22.0265947 28.67283905 22.92353546 28.68359375 23.84765625 C28.71651515 25.74284346 28.74972707 27.63802563 28.78320312 29.53320312 C28.83073816 32.52446218 28.8752052 35.51569839 28.91430664 38.50708008 C28.95388622 41.3916491 29.0054456 44.2758099 29.05859375 47.16015625 C29.0670079 48.05912125 29.07542206 48.95808624 29.08409119 49.8842926 C29.10905418 51.13084877 29.10905418 51.13084877 29.13452148 52.40258789 C29.14482895 53.13522354 29.15513641 53.86785919 29.16575623 54.62269592 C29.29104745 56.68744591 29.29104745 56.68744591 31.4375 58.4375 C34.09287372 59.00270003 36.72894713 59.17538198 39.4375 59.4375 C39.4375 61.0875 39.4375 62.7375 39.4375 64.4375 C31.12359677 67.81942674 22.44792286 69.25161862 13.8125 66.125 C9.8318662 63.29665493 9.8318662 63.29665493 8.4375 61.4375 C8.4375 60.4475 8.4375 59.4575 8.4375 58.4375 C7.880625 58.83582031 7.32375 59.23414063 6.75 59.64453125 C-2.0894742 65.78139594 -9.55304723 69.03350121 -20.5625 67.4375 C-25.17162498 65.57910081 -29.07646592 62.82461896 -31.5625 58.4375 C-33.23567174 53.41798477 -33.51351109 48.2420123 -31.796875 43.1796875 C-26.84008106 33.99914661 -15.45460079 31.48641446 -6.125 28.625 C-5.14595703 28.31369141 -4.16691406 28.00238281 -3.15820312 27.68164062 C4.0181147 25.4375 4.0181147 25.4375 7.4375 25.4375 C7.34989411 23.37423023 7.24170727 21.3118284 7.125 19.25 C7.06699219 18.10144531 7.00898438 16.95289063 6.94921875 15.76953125 C6.40985751 12.25750728 5.5380277 10.27450902 3.4375 7.4375 C1.19237738 6.31493869 -0.07706649 6.30336238 -2.5625 6.3125 C-3.26375 6.30992188 -3.965 6.30734375 -4.6875 6.3046875 C-6.65403775 6.32372764 -6.65403775 6.32372764 -8.5625 7.4375 C-8.315 8.4584375 -8.315 8.4584375 -8.0625 9.5 C-7.47467573 12.95346758 -7.24457439 15.9403183 -7.5625 19.4375 C-9.42958505 21.80247439 -10.88311431 23.09780715 -13.5625 24.4375 C-15.18415752 24.55898305 -16.81134327 24.61293652 -18.4375 24.625 C-19.73300781 24.64626953 -19.73300781 24.64626953 -21.0546875 24.66796875 C-23.71972361 24.4230511 -25.30312647 23.84333242 -27.5625 22.4375 C-29.33104915 20.04995864 -29.63266645 18.0656178 -30.1875 15.125 C-29.39948902 10.47573521 -27.75939822 9.1051962 -24.2890625 6.11328125 C-16.35180749 1.2349397 -9.24077336 -0.18983696 0 0 Z " fill="#1860A1" transform="translate(2705.5625,1983.5625)"/>
<path d="M0 0 C1.38759521 0.01921509 1.38759521 0.01921509 2.80322266 0.03881836 C11.47115001 0.29691091 17.83314743 1.8049143 24.4375 7.625 C31.12627683 15.04116155 31.5625 21.56965747 31.5625 31.5 C17.0425 31.5 2.5225 31.5 -12.4375 31.5 C-10.7247119 44.0959961 -10.7247119 44.0959961 -4 53.875 C1.44219949 57.3261509 6.16103481 58.48095122 12.5625 57.5 C19.12286294 55.22873022 23.60197065 52.17675874 27.5625 46.5 C29.2125 47.49 30.8625 48.48 32.5625 49.5 C30.33290833 56.2121215 25.2083064 60.43855858 19.14453125 63.8671875 C9.03333355 68.5078377 -3.62306303 69.42203733 -14.3125 66.0625 C-22.27205865 62.664981 -29.39463853 56.53077183 -32.765625 48.453125 C-32.98734375 47.80859375 -33.2090625 47.1640625 -33.4375 46.5 C-33.65921875 45.87609375 -33.8809375 45.2521875 -34.109375 44.609375 C-36.70774999 35.97153383 -36.41584132 26.63615668 -32.4375 18.5 C-24.96347432 6.17918191 -14.4344808 -0.30306899 0 0 Z " fill="#175FA1" transform="translate(3361.4375,1983.5)"/>
<path d="M0 0 C1.38759521 0.01921509 1.38759521 0.01921509 2.80322266 0.03881836 C11.47115001 0.29691091 17.83314743 1.8049143 24.4375 7.625 C31.12627683 15.04116155 31.5625 21.56965747 31.5625 31.5 C17.0425 31.5 2.5225 31.5 -12.4375 31.5 C-10.7247119 44.0959961 -10.7247119 44.0959961 -4 53.875 C1.44219949 57.3261509 6.16103481 58.48095122 12.5625 57.5 C19.12286294 55.22873022 23.60197065 52.17675874 27.5625 46.5 C29.2125 47.49 30.8625 48.48 32.5625 49.5 C30.33290833 56.2121215 25.2083064 60.43855858 19.14453125 63.8671875 C9.03333355 68.5078377 -3.62306303 69.42203733 -14.3125 66.0625 C-22.27205865 62.664981 -29.39463853 56.53077183 -32.765625 48.453125 C-32.98734375 47.80859375 -33.2090625 47.1640625 -33.4375 46.5 C-33.65921875 45.87609375 -33.8809375 45.2521875 -34.109375 44.609375 C-36.70774999 35.97153383 -36.41584132 26.63615668 -32.4375 18.5 C-24.96347432 6.17918191 -14.4344808 -0.30306899 0 0 Z " fill="#175FA1" transform="translate(3165.4375,1983.5)"/>
<path d="M0 0 C2.22907085 -0.03223707 4.45827741 -0.05517413 6.6875 -0.07421875 C7.92886719 -0.08799561 9.17023437 -0.10177246 10.44921875 -0.1159668 C16.95991658 0.09666944 22.72835378 1.84357227 27.59375 6.37109375 C36.29096192 16.44536422 38.23724397 27.15716559 38.3125 40.0625 C38.31813965 40.98450195 38.3237793 41.90650391 38.32958984 42.85644531 C38.21701167 53.56854434 36.67807606 64.5789981 29.328125 72.890625 C23.06096922 78.60316523 17.16553761 79.22502962 8.90234375 79.36328125 C5.56648784 78.94573805 3.69627489 77.97534577 1 76 C-0.49282393 73.01435214 -0.11916977 70.31016282 -0.11352539 66.97998047 C-0.11367142 66.25792419 -0.11381744 65.53586792 -0.1139679 64.79193115 C-0.11327007 62.40031959 -0.10548375 60.00878549 -0.09765625 57.6171875 C-0.09579161 55.96094811 -0.09436792 54.30470816 -0.09336853 52.64846802 C-0.08954699 48.28532392 -0.07971978 43.922213 -0.06866455 39.55908203 C-0.05844264 35.10840301 -0.05386924 30.65771863 -0.04882812 26.20703125 C-0.0380972 17.47133892 -0.02102512 8.73567359 0 0 Z " fill="#FDFEFE" transform="translate(2531,1964)"/>
<path d="M0 0 C3.48715894 1.98396827 6.19673639 4.39347279 8 8 C8.51512617 12.09157355 8.94367269 16.23589546 6.953125 19.95703125 C4.63722512 22.75654552 2.68394887 24.7981908 -0.98828125 25.23828125 C-5.15410332 25.3713075 -7.37869331 25.38831668 -11 23.125 C-14.71932063 19.17322183 -14.08437656 16.2313468 -14 11 C-15.093125 11.433125 -16.18625 11.86625 -17.3125 12.3125 C-17.92738281 12.55613281 -18.54226562 12.79976562 -19.17578125 13.05078125 C-21.27446625 14.14281649 -22.48843109 15.17702761 -24 17 C-24.43116962 18.95036468 -24.43116962 18.95036468 -24.34057617 21.10424805 C-24.34034958 21.92487228 -24.34012299 22.74549652 -24.33988953 23.59098816 C-24.32440567 24.47232925 -24.30892181 25.35367035 -24.29296875 26.26171875 C-24.28660149 27.62040825 -24.28660149 27.62040825 -24.28010559 29.00654602 C-24.26330848 31.90049933 -24.2256545 34.79375706 -24.1875 37.6875 C-24.17245449 39.64907849 -24.15876585 41.61066789 -24.14648438 43.57226562 C-24.11340157 48.38177856 -24.06161222 53.19077133 -24 58 C-20.37 58.66 -16.74 59.32 -13 60 C-13 61.65 -13 63.3 -13 65 C-27.19 65 -41.38 65 -56 65 C-56 63.35 -56 61.7 -56 60 C-55.43410156 59.87882812 -54.86820313 59.75765625 -54.28515625 59.6328125 C-53.18494141 59.38144531 -53.18494141 59.38144531 -52.0625 59.125 C-51.33160156 58.96257812 -50.60070313 58.80015625 -49.84765625 58.6328125 C-47.79299706 58.17038477 -47.79299706 58.17038477 -47 56 C-46.89100233 54.63278834 -46.84106191 53.26059076 -46.82299805 51.88916016 C-46.81016281 51.04132965 -46.79732758 50.19349915 -46.78410339 49.31997681 C-46.77671646 48.40227509 -46.76932953 47.48457336 -46.76171875 46.5390625 C-46.753647 45.59694916 -46.74557526 44.65483582 -46.73725891 43.68417358 C-46.7234158 41.68855634 -46.71269466 39.6929154 -46.70483398 37.69726562 C-46.68760763 34.64407604 -46.6437222 31.59196542 -46.59960938 28.5390625 C-46.58948374 26.60157047 -46.58096723 24.66406923 -46.57421875 22.7265625 C-46.54795662 21.35608261 -46.54795662 21.35608261 -46.52116394 19.95791626 C-46.49557454 14.86991871 -46.49557454 14.86991871 -48.82348633 10.47021484 C-51.43829907 8.70393303 -53.96605347 7.82743996 -57 7 C-57 5.35 -57 3.7 -57 2 C-46.312837 1.20414744 -35.71600323 0.87174996 -25 1 C-24.505 4.96 -24.505 4.96 -24 9 C-23.39671875 8.51789063 -22.7934375 8.03578125 -22.171875 7.5390625 C-20.97304687 6.59160156 -20.97304687 6.59160156 -19.75 5.625 C-18.96109375 4.99851562 -18.1721875 4.37203125 -17.359375 3.7265625 C-11.80086433 -0.34108935 -6.82897911 -1.13655788 0 0 Z " fill="#165FA1" transform="translate(2659,1984)"/>
<path d="M0 0 C2.33197685 3.49796528 3.05142454 6.83455555 3.953125 10.8671875 C4.32583326 12.48136696 4.69855514 14.09554327 5.07128906 15.7097168 C5.26372192 16.55368011 5.45615479 17.39764343 5.65441895 18.2671814 C8.83395226 32.18912544 12.24537091 45.97496088 16.31933594 59.66455078 C17.57305547 63.96622979 18.72707919 68.29409621 19.875 72.625 C20.0905957 73.42639404 20.30619141 74.22778809 20.52832031 75.0534668 C21.33459966 78.11445354 22 80.82023347 22 84 C8.14 84 -5.72 84 -20 84 C-18.6793338 78.05700211 -17.31930322 72.14897923 -15.828125 66.25 C-15.40947847 64.58415385 -14.99085973 62.91830073 -14.57226562 61.25244141 C-14.35610596 60.39402649 -14.13994629 59.53561157 -13.91723633 58.65118408 C-10.73012714 45.9875853 -7.55516579 33.32117534 -4.5 20.625 C-4.26958008 19.67238281 -4.03916016 18.71976563 -3.80175781 17.73828125 C-2.39383446 11.85098904 -1.14556828 5.94383541 0 0 Z " fill="#124A7D" transform="translate(2402,1266)"/>
<path d="M0 0 C24.47230321 0 24.47230321 0 30 4 C34.97780707 9.03623204 36.14278633 13.85254615 36.25 20.8125 C36.14198369 28.91372321 33.54726268 34.33059589 28.0546875 40.19921875 C19.71933333 47.50453866 11.14840614 46 0 46 C0 30.82 0 15.64 0 0 Z " fill="#134B7E" transform="translate(3338,1276)"/>
<path d="M0 0 C14.92380952 0 14.92380952 0 20.671875 4.23046875 C25.1050304 9.07456271 24.64594071 15.15528386 24.41796875 21.390625 C23.67448966 27.81094908 22.00431596 31.37149328 17 35.4375 C10.9270473 38.6004962 7.38251795 38 0 38 C0 25.46 0 12.92 0 0 Z " fill="#FDFDFE" transform="translate(3062,1964)"/>
<path d="M0 0 C5.56366885 5.42127147 10.5209765 11.31529286 15.52392578 17.25048828 C16.86283299 18.83742328 18.21023774 20.41717916 19.55859375 21.99609375 C20.64333984 23.29740234 20.64333984 23.29740234 21.75 24.625 C22.38421875 25.38039063 23.0184375 26.13578125 23.671875 26.9140625 C25 29 25 29 25 33 C19.27462474 35.98715231 14.44015835 36.77836351 8 36 C2.05065005 33.86721417 -1.6600817 30.31020396 -4.8125 24.875 C-6.89368494 19.38497765 -7.08076123 13.13572976 -5.16796875 7.5859375 C-3.71799744 4.59910522 -2.35630069 2.35630069 0 0 Z " fill="#F9FBFC" transform="translate(2913,2004)"/>
<path d="M0 0 C2.32164728 2.15919966 3.94129719 4.34355485 5.5625 7.0625 C6.94309381 9.37209151 8.08505492 11.08505492 10 13 C12.30164566 13.31948171 12.30164566 13.31948171 14.875 13.25 C15.73867187 13.25515625 16.60234375 13.2603125 17.4921875 13.265625 C20.36527603 13.1094587 20.36527603 13.1094587 24 11 C24 17.27 24 23.54 24 30 C14.43 30 4.86 30 -5 30 C-5.061875 26.865 -5.12375 23.73 -5.1875 20.5 C-5.21481201 19.52869141 -5.24212402 18.55738281 -5.27026367 17.55664062 C-5.32603997 11.65994685 -4.49379914 7.36197005 -2 2 C-1.34 1.34 -0.68 0.68 0 0 Z " fill="#F5F8FB" transform="translate(2785,1956)"/>
<path d="M0 0 C4.07520856 1.53781455 7.05898157 3.01012879 9 7 C9.54459386 11.82354558 9.4898853 14.02022939 7.3125 18.375 C4.29492323 21.80035741 2.34939715 22.72611764 -2.14453125 23.25 C-6.17555897 23.46391855 -8.40770929 23.35285404 -11.9375 21.25 C-15.55871298 17.29958584 -16.51381554 14.47762041 -16.390625 8.96484375 C-15.72156148 5.59945427 -13.60017609 4.05595319 -11 2 C-7.27661917 -0.48225389 -4.31288496 -0.53094228 0 0 Z " fill="#1860A1" transform="translate(3301,1950)"/>
<path d="M0 0 C3.28079607 0.84836747 4.90003114 2.9118294 6.93359375 5.5 C8.81286594 9.25854438 8.45244278 13.40750538 7.93359375 17.5 C6.20813371 22.18236874 4.16163256 25.59943821 0.12109375 28.5625 C-0.96171875 29.0265625 -0.96171875 29.0265625 -2.06640625 29.5 C-12.28195769 14.92052367 -12.28195769 14.92052367 -11.06640625 5.5 C-8.04744359 0.97155601 -5.26667159 -0.31858883 0 0 Z " fill="#F7F9FC" transform="translate(2931.06640625,1961.5)"/>
<path d="M0 0 C0.14533755 3.582906 0.23407931 7.16505417 0.3125 10.75 C0.35439453 11.76578125 0.39628906 12.7815625 0.43945312 13.828125 C0.56363589 21.37843741 0.56363589 21.37843741 -2.39453125 24.640625 C-6.63035136 26.8506181 -9.12415652 27.34216445 -14 27 C-16.61593153 25.16884793 -16.96989455 24.09031634 -18 21 C-18.25052929 16.49047283 -18.28949849 12.9545883 -16 9 C-12.19291985 5.19291985 -5.70503921 0 0 0 Z " fill="#F7FAFC" transform="translate(2713,2014)"/>
<path d="M0 0 C4.06283817 0.84642462 5.46249851 2.38263699 8 5.625 C10.74428328 11.24424672 10 14.79028347 10 21.625 C3.07 21.625 -3.86 21.625 -11 21.625 C-11 13.32610796 -10.64491487 9.05624092 -5.6875 2.625 C-3 0.625 -3 0.625 0 0 Z " fill="#F1F5F9" transform="translate(3360,1988.375)"/>
<path d="M0 0 C4.06283817 0.84642462 5.46249851 2.38263699 8 5.625 C10.74428328 11.24424672 10 14.79028347 10 21.625 C3.07 21.625 -3.86 21.625 -11 21.625 C-11 13.32610796 -10.64491487 9.05624092 -5.6875 2.625 C-3 0.625 -3 0.625 0 0 Z " fill="#F1F5F9" transform="translate(3164,1988.375)"/>
<path d="M0 0 C0 0.99 0 1.98 0 3 C-1.38782485 3.8466034 -2.78569397 4.67675339 -4.1875 5.5 C-4.96480469 5.9640625 -5.74210937 6.428125 -6.54296875 6.90625 C-9.24103386 8.10729647 -11.0806982 8.20741043 -14 8 C-14.33 7.01 -14.66 6.02 -15 5 C-14.34 5 -13.68 5 -13 5 C-13 4.34 -13 3.68 -13 3 C-8.70614007 -0.4887612 -5.28129105 -0.26854022 0 0 Z " fill="#215789" transform="translate(475,1686)"/>
<path d="M0 0 C0 1.65 0 3.3 0 5 C-2.64 5.33 -5.28 5.66 -8 6 C-8.66 5.01 -9.32 4.02 -10 3 C-6.68152292 -0.06320961 -4.44849969 -0.3033068 0 0 Z " fill="#215889" transform="translate(480,1678)"/>
</svg>
