<?xml version="1.0" encoding="UTF-8"?>
<svg version="1.1" xmlns="http://www.w3.org/2000/svg" width="6000" height="3375">
<path d="M0 0 C1980 0 3960 0 6000 0 C6000 1113.75 6000 2227.5 6000 3375 C4020 3375 2040 3375 0 3375 C0 2261.25 0 1147.5 0 0 Z " fill="#164670" transform="translate(0,0)"/>
<path d="M0 0 C1316.7 0 2633.4 0 3990 0 C3990 477.51 3990 955.02 3990 1447 C2673.3 1447 1356.6 1447 0 1447 C0 969.49 0 491.98 0 0 Z " fill="#145C9E" transform="translate(1005,964)"/>
<path d="M0 0 C0.83824059 0.00002625 1.67648118 0.00005251 2.54012301 0.00007956 C3.50632121 -0.00231672 4.47251941 -0.00471301 5.46799635 -0.00718191 C7.08400619 -0.00349147 7.08400619 -0.00349147 8.73266269 0.00027352 C10.44138268 -0.00172036 10.44138268 -0.00172036 12.18462226 -0.00375452 C15.38225535 -0.0064546 18.57985062 -0.00461026 21.77748164 -0.00095154 C25.26025143 0.00193829 28.74301704 -0.00095442 32.22578669 -0.0031268 C38.37418196 -0.00614985 44.52256817 -0.0054054 50.67096326 -0.00229056 C59.90221576 0.00236501 69.1334614 0.00126014 78.36471449 -0.0009896 C94.16498883 -0.00467025 109.9652597 -0.00356221 125.76553391 0.0000615 C141.87850091 0.00373647 157.99146593 0.00522067 174.10443333 0.00404579 C175.63347745 0.00393631 175.63347745 0.00393631 177.19341136 0.00382462 C182.39760841 0.00344215 187.60180546 0.00302453 192.80600251 0.00259493 C230.88180861 -0.00047274 268.95761326 0.00140417 307.03341917 0.00573921 C345.64568398 0.01011912 384.25794801 0.01232168 422.87021307 0.011837 C424.69437121 0.01181557 424.69437121 0.01181557 426.55538102 0.0117937 C437.69960643 0.01166195 448.84383183 0.01150584 459.98805724 0.0113207 C487.93775801 0.0108575 515.88745878 0.01072509 543.83715955 0.01081192 C545.75864963 0.01081754 545.75864963 0.01081754 547.7189577 0.01082328 C610.92317282 0.01103764 674.12738765 0.01500733 737.33160261 0.01921463 C759.59085047 0.02069377 781.85009833 0.0221551 804.10934619 0.02355075 C805.49299427 0.02363751 806.87664234 0.02372428 808.30221915 0.02381368 C872.36051467 0.02780887 936.41881016 0.02924226 1000.47710579 0.03001672 C1004.66502761 0.03006748 1008.85294943 0.03011944 1013.04087125 0.03017172 C1038.29360843 0.03048581 1063.54634561 0.03077318 1088.79908279 0.03102969 C1151.58132223 0.03166859 1214.36356167 0.03262809 1277.14580111 0.03380489 C1278.57517388 0.03383152 1280.00454666 0.03385816 1281.47723377 0.0338856 C1374.07696453 0.03561359 1466.67669519 0.0386616 1559.27642588 0.0428133 C1561.49456978 0.04291273 1561.49456978 0.04291273 1563.75752467 0.04301417 C1608.77350903 0.04503492 1653.78949338 0.04715328 1698.80547774 0.04929074 C1748.62151775 0.05165569 1798.43755776 0.05400398 1848.25359777 0.05628013 C1849.75155736 0.05634863 1851.24951694 0.05641713 1852.79286924 0.05648771 C1995.03061876 0.06298654 2137.26836832 0.06679827 2279.50611796 0.06991392 C2285.52984465 0.07004606 2291.55357134 0.07017898 2297.57729804 0.07031194 C2353.00838838 0.07153533 2408.43947872 0.07272716 2463.87056906 0.07387936 C2465.34451506 0.07391 2466.81846105 0.07394064 2468.33707208 0.0739722 C2472.79978387 0.07406497 2477.26249566 0.07415772 2481.72520745 0.07425047 C2602.29172994 0.0767564 2722.85825243 0.07953761 2843.42477491 0.0824971 C2847.67885095 0.08260146 2851.93292698 0.0827056 2856.18700302 0.08280968 C2994.4345787 0.08619286 3132.68215436 0.09006355 3376.81911156 0.09914748 C3380.58435691 0.09929238 3384.34960226 0.09943702 3388.11484762 0.09958155 C3389.96359156 0.09965254 3389.96359156 0.09965254 3391.84968386 0.09972496 C3394.09283741 0.09981109 3396.33599095 0.09989718 3398.57914449 0.09998322 C3595.42241118 0.10754441 3792.26567781 0.11641794 3989.10894445 0.12494468 C3989.10894445 317.91494468 3989.10894445 635.70494468 3989.10894445 963.12494468 C2671.74894445 963.12494468 1354.38894445 963.12494468 -2.89105555 963.12494468 C-2.89105555 0.19101608 -2.89105555 0.19101608 0 0 Z " fill="#1E5485" transform="translate(1006.8910555454349,2411.875055315424)"/>
<path d="M0 0 C635 0 635 0 831 1 C835.62 0.67 840.24 0.34 845 0 C848.35595275 -0.00377162 851.66390849 0.02891757 855.01171875 0.15625 C855.87263626 0.18223267 856.73355377 0.20821533 857.62055969 0.23498535 C860.3098041 0.31662086 862.99861471 0.40733837 865.6875 0.5 C868.41566506 0.59200663 871.14381921 0.68184551 873.87226868 0.76501465 C875.55520881 0.81643469 877.23800361 0.87293197 878.920578 0.93518066 C882.24198571 1.03773138 884.82027178 1.05990941 888 0 C890.8878457 0.09079434 893.74443625 0.23964655 896.625 0.4375 C903.25352793 0.83934494 909.85866204 1.11412682 916.5 1.125 C917.56661865 1.13164673 917.56661865 1.13164673 918.65478516 1.13842773 C921.71555224 1.12984056 924.0725044 0.97583187 927 0 C929.00664306 -0.0940365 931.01630177 -0.12793376 933.02514648 -0.12939453 C934.26751572 -0.13254669 935.50988495 -0.13569885 936.78990173 -0.13894653 C938.15029943 -0.13715487 939.5106968 -0.13510345 940.87109375 -0.1328125 C942.27295448 -0.13348675 943.67481509 -0.13445779 945.07667542 -0.13571167 C948.02142444 -0.13718729 950.96614317 -0.13504136 953.91088867 -0.13037109 C957.65267369 -0.12472114 961.39438622 -0.12792329 965.13616848 -0.13394356 C968.03699773 -0.13759347 970.93781041 -0.13638966 973.83864021 -0.13381577 C975.21589225 -0.1331562 976.59314586 -0.1339403 977.97039604 -0.13629532 C979.91703124 -0.13888982 981.8636718 -0.13422329 983.81030273 -0.12939453 C984.91155991 -0.12859894 986.01281708 -0.12780334 987.14744568 -0.12698364 C992.44209148 0.04753263 997.72077779 0.56006482 1003 1 C1003 478.51 1003 956.02 1003 1448 C766.06 1448.33 529.12 1448.66 285 1449 C190.95 1449.33 96.9 1449.66 0 1450 C0 971.5 0 493 0 0 Z " fill="#184A77" transform="translate(0,963)"/>
<path d="M0 0 C1.2501847 0.00015598 2.50036941 0.00031196 3.7884385 0.00047267 C4.8340217 -0.00144447 4.8340217 -0.00144447 5.90072779 -0.00340034 C8.2708541 -0.00649871 10.64091561 -0.0023784 13.01103985 0.00162334 C14.72167141 0.0008847 16.43230282 -0.0002928 18.14293381 -0.00187286 C22.88646601 -0.00496203 27.62997703 -0.00175062 32.37350767 0.00240542 C37.50603214 0.00581683 42.63855429 0.00346981 47.77107918 0.00182265 C56.79024289 -0.00026269 65.80940002 0.00140482 74.82856297 0.00545603 C88.41415588 0.01153846 101.99974478 0.01182758 115.58533881 0.01099074 C138.34839514 0.00974634 161.11144799 0.01304284 183.87450325 0.0190956 C214.6533176 0.02726243 245.43212802 0.02919759 276.21094429 0.03006667 C350.24125901 0.03532407 424.27157289 0.04928508 498.30188667 0.06217116 C746.26594917 0.09310866 746.26594917 0.09310866 999.23938667 0.12467116 C999.23938667 478.29467116 999.23938667 956.46467116 999.23938667 1449.12467116 C945.48596268 1449.12467116 891.73282887 1449.12442586 837.97948372 1449.06120986 C835.99081694 1449.05893005 834.00215014 1449.05665876 832.01348334 1449.05439496 C828.89969588 1449.05084922 825.78590842 1449.04729854 822.67212099 1449.04372163 C811.66807771 1449.03108595 800.66403375 1449.01909153 789.65998976 1449.00709199 C769.37290463 1448.98495354 749.08582004 1448.96235739 728.79873573 1448.93947524 C708.79011478 1448.91690876 688.78149359 1448.89456117 668.77287209 1448.87248916 C666.88791528 1448.87040964 666.88791528 1448.87040964 664.96487854 1448.86828811 C658.57982183 1448.86124508 652.19476511 1448.85420581 645.80970838 1448.84716797 C600.89906033 1448.79765918 555.9884128 1448.74768497 511.07776558 1448.69742507 C500.2575955 1448.68531634 489.43742542 1448.67320928 478.61725533 1448.66110915 C477.94592424 1448.66035841 477.27459316 1448.65960766 476.58291871 1448.65883416 C445.20583948 1448.62374761 413.82875996 1448.58893124 382.45168036 1448.55418185 C380.40746532 1448.55191792 378.36325028 1448.54965388 376.31903524 1448.54738982 C362.76866293 1448.53238233 349.21829062 1448.51737944 335.6679183 1448.50237962 C308.07848016 1448.47183897 280.48904205 1448.44126919 252.89960396 1448.41068191 C251.63183423 1448.40927642 250.36406449 1448.40787093 249.0578775 1448.40642285 C164.78504668 1448.31299206 80.51221662 1448.21888656 -3.76061333 1448.12467116 C-3.76611123 1403.85326819 -3.77138321 1359.5818652 -3.77648247 1315.31046218 C-3.77658226 1314.44419681 -3.77668206 1313.57793145 -3.77678488 1312.68541562 C-3.78746879 1219.893434 -3.79669279 1127.10145238 -3.80295647 1034.30947036 C-3.80309592 1032.24911464 -3.80323537 1030.18875891 -3.80337482 1028.12840319 C-3.80629729 984.88426485 -3.80901403 941.6401265 -3.811493 898.39598814 C-3.81273843 876.67413605 -3.81402341 854.95228397 -3.81534577 833.23043188 C-3.81554502 829.95370214 -3.81574313 826.67697241 -3.81594121 823.40024267 C-3.81900243 772.92268382 -3.82291358 722.44512522 -3.82927788 671.96756667 C-3.82941478 670.88164322 -3.82955167 669.79571977 -3.82969272 668.67688955 C-3.83190519 651.16776347 -3.83418876 633.6586374 -3.83648177 616.14951133 C-3.84308248 565.73892542 -3.8491604 515.3283397 -3.85175312 464.9177534 C-3.85180665 463.88185094 -3.85186019 462.84594848 -3.85191535 461.77865504 C-3.85308091 439.04212861 -3.85397586 416.30560217 -3.85461431 393.56907571 C-3.85487594 384.42168791 -3.85517656 375.2743001 -3.85549057 366.1269123 C-3.855524 365.12574917 -3.85555742 364.12458604 -3.85559186 363.09308463 C-3.85668962 330.79601159 -3.86096515 298.49893993 -3.86689553 266.20186745 C-3.87285136 233.68746355 -3.87571504 201.17306099 -3.87423731 168.65865654 C-3.87403421 164.17266021 -3.87386684 159.68666389 -3.87372101 155.20066756 C-3.87369113 154.32123034 -3.87366125 153.44179311 -3.87363046 152.53570627 C-3.87324877 138.5709238 -3.87624336 124.60614413 -3.88062319 110.64136242 C-3.88485395 96.93311168 -3.88556396 83.22486461 -3.88244514 69.51661354 C-3.88072157 61.46458891 -3.88178249 53.41257586 -3.88683033 45.36055257 C-3.89026295 39.40587281 -3.88856481 33.45120214 -3.8847533 27.49652234 C-3.88403192 25.0853362 -3.88503071 22.67414885 -3.88784857 20.26296424 C-3.89140437 17.01764682 -3.88893441 13.77239134 -3.88481182 10.52707601 C-3.8873207 9.57564539 -3.88982958 8.62421477 -3.89241448 7.64395292 C-3.87183709 0.17485478 -3.87183709 0.17485478 0 0 Z " fill="#1A4D7A" transform="translate(5000.760613325983,962.8753288350999)"/>
<path d="M0 0 C1.21095255 -0.00256411 2.42190509 -0.00512821 3.66955317 -0.00777002 C5.01360366 -0.00556184 6.357654 -0.0032629 7.70170419 -0.00088333 C9.1372699 -0.00200031 10.57283533 -0.00355552 12.00840014 -0.00550923 C15.97779885 -0.00962783 19.94717378 -0.00747971 23.9165725 -0.00436337 C28.2418075 -0.00206716 32.56703839 -0.00556489 36.89227258 -0.00833018 C44.51022874 -0.01239217 52.12817809 -0.01270616 59.74613495 -0.01062424 C71.15057923 -0.00752457 82.55501723 -0.01015635 93.95946105 -0.01392295 C113.39307722 -0.0201689 132.82669117 -0.02162726 152.26030819 -0.02050548 C171.96366661 -0.01938243 191.66702315 -0.0204102 211.37038128 -0.02407794 C212.61328979 -0.02430759 213.8561983 -0.02453725 215.1367707 -0.02477386 C220.19866692 -0.02571546 225.26056313 -0.02667114 230.32245934 -0.02764505 C282.46637677 -0.03766286 334.61029262 -0.04083733 386.7542108 -0.04141348 C392.44368763 -0.04147673 398.13316445 -0.04154325 403.82264128 -0.04161404 C405.24862858 -0.04163173 406.67461588 -0.0416491 408.10060319 -0.04166616 C440.08950655 -0.04205377 472.07840969 -0.04423172 504.06731294 -0.04679641 C511.20435287 -0.04736797 518.34139281 -0.04792194 525.47843274 -0.04847705 C526.54108854 -0.04855973 526.54108854 -0.04855973 527.62521214 -0.04864408 C531.92551965 -0.04897858 536.22582715 -0.04931235 540.52613466 -0.04964564 C542.68033038 -0.04981272 544.8345261 -0.04998023 546.98872182 -0.05014778 C580.48398679 -0.05274978 613.97925178 -0.05498004 647.47451679 -0.05682998 C648.20436159 -0.05687035 648.93420638 -0.05691072 649.68616768 -0.05695231 C696.20146377 -0.05951582 742.71675972 -0.06041477 789.23205587 -0.06015198 C791.51971315 -0.06013922 793.80737043 -0.06012726 796.09502771 -0.06011557 C812.16712937 -0.06003323 828.23923103 -0.05993052 844.3113327 -0.05982269 C848.91964994 -0.05979192 853.52796718 -0.05976185 858.13628443 -0.05973187 C861.98022508 -0.05970678 865.82416573 -0.05968099 869.66810638 -0.05965376 C942.27455815 -0.05914231 1014.88100882 -0.0605607 1087.48746006 -0.07000117 C1088.25189942 -0.07010053 1089.01633878 -0.07019989 1089.80394296 -0.07030226 C1113.68858134 -0.0734136 1137.57321968 -0.0767801 1161.45785801 -0.08019404 C1185.96492409 -0.08369541 1210.47199017 -0.08716584 1234.97905628 -0.09045844 C1235.73362323 -0.09055997 1236.48819017 -0.09066149 1237.26562278 -0.0907661 C1284.51447873 -0.09711423 1331.76333438 -0.10103692 1379.01219074 -0.10231643 C1379.74182209 -0.10233646 1380.47145343 -0.10235648 1381.22319481 -0.10237712 C1413.26525155 -0.1032524 1445.30730827 -0.10357223 1477.34936502 -0.10328623 C1490.23955009 -0.10317195 1503.12973516 -0.10311588 1516.01992022 -0.10308291 C1518.15720823 -0.10307651 1520.29449624 -0.10306743 1522.43178424 -0.10305776 C1555.13306766 -0.10292123 1587.83435006 -0.10426949 1620.53563301 -0.11010294 C1621.24111737 -0.11022861 1621.94660173 -0.11035428 1622.6734644 -0.11048376 C1634.02246283 -0.11251285 1645.37146123 -0.11465686 1656.72045964 -0.11681057 C1703.2061913 -0.12562501 1749.69191713 -0.12816294 1796.17764967 -0.12145026 C1802.49773129 -0.1205379 1808.81781292 -0.11969464 1815.13789456 -0.11889224 C1816.99633428 -0.11865211 1816.99633428 -0.11865211 1818.89231823 -0.11840713 C1838.54466397 -0.11605011 1858.19700227 -0.12042094 1877.8493466 -0.12756343 C1897.15328077 -0.13443949 1916.45720392 -0.13422737 1935.76113784 -0.12637129 C1947.09149597 -0.12197468 1958.4218217 -0.12309758 1969.75217718 -0.13223808 C1977.2665917 -0.13775771 1984.7809819 -0.13609126 1992.29539453 -0.12845529 C1996.56184457 -0.12432447 2000.8282306 -0.12335523 2005.09467686 -0.13120598 C2008.9650394 -0.13826993 2012.83528362 -0.13614558 2016.70564002 -0.12667229 C2018.09422212 -0.12488122 2019.48281365 -0.1264322 2020.87138669 -0.13175842 C2040.47725249 -0.20188834 2055.32821086 5.89694372 2069.70444004 19.3131165 C2085.52607832 35.70285669 2088.48171463 55.0484879 2088.40512364 76.77039189 C2088.40919636 78.72326047 2088.41454215 80.67612673 2088.42105381 82.62898869 C2088.43464898 87.89750985 2088.4294614 93.1658534 2088.41991656 98.43437738 C2088.41228041 103.96740223 2088.4193764 109.50041266 2088.42407505 115.03343816 C2088.42952067 124.32110915 2088.42237189 133.60870838 2088.40805332 142.89636846 C2088.39172434 153.61134571 2088.397022 164.32615171 2088.41353254 175.04112483 C2088.42717572 184.26699069 2088.42905338 193.4928052 2088.42121653 202.71867789 C2088.41655619 208.21748701 2088.41586997 213.7162158 2088.425826 219.21501965 C2088.43453486 224.38537729 2088.42840249 229.55551548 2088.41114323 234.72584958 C2088.40719946 236.61557125 2088.40827595 238.50531161 2088.41493122 240.39502568 C2088.44687427 250.391766 2088.19842589 259.52464923 2085.01694004 269.1256165 C2084.64053379 270.26256963 2084.26412754 271.39952275 2083.87631504 272.570929 C2081.03312357 279.43863799 2077.54496124 285.24024937 2073.01694004 291.1256165 C2072.29506504 292.1362415 2071.57319004 293.1468665 2070.82944004 294.1881165 C2061.24829148 305.282078 2046.34078511 312.66065134 2032.01694004 315.1256165 C2030.02872655 315.21429278 2028.03790144 315.25159694 2026.04771149 315.25217834 C2024.23592307 315.25634131 2024.23592307 315.25634131 2022.38753286 315.26058839 C2021.04698134 315.25861888 2019.70642995 315.25655859 2018.36587869 315.25441767 C2016.93399707 315.25578611 2015.50211581 315.25759227 2014.07023523 315.25979649 C2010.11107715 315.26460827 2006.15194179 315.26315784 2002.19278242 315.26073879 C1997.87866948 315.25920069 1993.56456164 315.26344983 1989.25045039 315.26696555 C1981.65207075 315.27234846 1974.0536973 315.27398145 1966.4553159 315.27321481 C1955.08007313 315.27208136 1943.70483759 315.27665416 1932.32959645 315.28234565 C1912.94549162 315.29186732 1893.56138824 315.29656647 1874.17728131 315.29865498 C1854.52390585 315.30078182 1834.87053263 315.30503766 1815.21715824 315.31189771 C1813.35751017 315.31254363 1813.35751017 315.31254363 1811.46029345 315.3132026 C1806.41118197 315.3149609 1801.36207049 315.31673054 1796.31295902 315.31851562 C1735.77705225 315.33987599 1675.24114568 315.35079212 1614.70523611 315.35967785 C1594.13456352 315.36270097 1573.56389104 315.36616157 1552.99321859 315.36995907 C1552.29305702 315.37008818 1551.59289545 315.3702173 1550.87151687 315.37035033 C1544.4982446 315.3715258 1538.12497233 315.37270498 1531.75170006 315.37388759 C1459.73792222 315.3872426 1387.72414404 315.39963675 1241.0050882 315.41464662 C1234.15328085 315.41517108 1227.3014735 315.4157084 1220.44966615 315.41624509 C1218.16144947 315.41642429 1215.8732328 315.41660326 1213.58501612 315.41678218 C1199.04848602 315.41791926 1184.51195592 315.41906533 1169.97542582 315.42023037 C1166.14019212 315.42053768 1162.30495842 315.42084362 1158.46972472 315.42114628 C1086.03742225 315.42686591 1013.60512328 315.43610796 941.17282383 315.45856328 C940.41036473 315.45879951 939.64790563 315.45903574 938.8623417 315.45927912 C914.27328912 315.46690698 889.68423668 315.47495581 865.09518425 315.48306439 C841.41850215 315.49087196 817.74182003 315.49859538 794.06513779 315.50595422 C792.93620594 315.50630535 792.93620594 315.50630535 791.7844674 315.50666358 C744.64892465 315.52130054 697.51338285 315.53110208 650.37783806 315.53582902 C649.64982636 315.53590261 648.92181465 315.53597621 648.17174199 315.53605203 C616.19896091 315.53927803 584.22617984 315.54144643 552.25339861 315.54243504 C539.39053612 315.54283585 526.52767364 315.54336924 513.66481116 315.54396646 C511.53207557 315.54406393 509.39933998 315.54415631 507.26660439 315.54424784 C474.64449662 315.54567653 442.02239335 315.55024602 409.40028827 315.56412382 C408.69679679 315.56442289 407.99330531 315.56472196 407.26849591 315.5650301 C395.95194367 315.56985864 384.63539155 315.57494055 373.31883945 315.58005609 C326.94215153 315.60101292 280.56548541 315.60963706 234.18879153 315.59993124 C227.87990555 315.59861274 221.57101955 315.59743471 215.26213352 315.59634061 C214.02539553 315.59612076 212.78865753 315.59590091 211.51444263 315.5956744 C191.91701331 315.59255783 172.31961502 315.60289534 152.7221929 315.61881616 C133.46039581 315.63418612 114.19864171 315.63533349 94.93684314 315.62126792 C83.63894329 315.61344696 72.34117461 315.61660137 61.04328781 315.63590508 C53.54145348 315.64763191 46.03971509 315.6448685 38.53788599 315.63029044 C34.2842648 315.6224312 30.03090043 315.62073916 25.77729691 315.63690948 C21.9102937 315.65149277 18.04375999 315.6473354 14.17677754 315.62885782 C12.15280094 315.62382465 10.12880347 315.63818386 8.10487943 315.6536138 C-11.52714312 315.50231302 -27.74963984 308.78113836 -41.98305996 295.1256165 C-47.53331292 289.03365885 -51.57772843 282.48661355 -54.92055996 275.0006165 C-55.20318691 274.36825078 -55.48581386 273.73588506 -55.77700527 273.08435674 C-60.55971186 261.64253811 -60.28108383 250.06422531 -60.2735873 237.88489385 C-60.27957907 235.93895822 -60.2863861 233.99302496 -60.29394253 232.04709477 C-60.31154595 226.78230491 -60.31629558 221.51758015 -60.3175741 216.2527637 C-60.31899972 212.95632202 -60.32327714 209.65989667 -60.32856853 206.36345906 C-60.34705168 194.84259859 -60.35524149 183.32178428 -60.35366543 171.80090947 C-60.35246523 161.09570514 -60.37354826 150.39070282 -60.40515275 139.68554957 C-60.43138852 130.46733019 -60.44202963 121.24917648 -60.44075461 112.0309201 C-60.44024702 106.53748416 -60.44581671 101.0442278 -60.46711071 95.55082936 C-60.48661591 90.37800581 -60.48653431 85.20553085 -60.47207744 80.03269429 C-60.47000324 78.14625895 -60.4746062 76.25980106 -60.48679836 74.37340398 C-60.61603883 52.97159708 -56.3800155 35.13606931 -41.12368496 19.23108525 C-40.06407558 18.18887822 -40.06407558 18.18887822 -38.98305996 17.1256165 C-38.42102871 16.56487431 -37.85899746 16.00413213 -37.27993496 15.42639775 C-27.13297824 6.04292564 -13.85497031 0.00159339 0 0 Z " fill="#FEFEFE" transform="translate(1985.9830599576235,1847.8743834979832)"/>
<path d="M0 0 C1316.7 0 2633.4 0 3990 0 C3990 477.51 3990 955.02 3990 1447 C2673.3 1447 1356.6 1447 0 1447 C0 969.49 0 491.98 0 0 Z M12 12 C12 481.59 12 951.18 12 1435 C1320.78 1435 2629.56 1435 3978 1435 C3978 965.41 3978 495.82 3978 12 C2669.22 12 1360.44 12 12 12 Z " fill="#FEFEFE" transform="translate(1005,964)"/>
<path d="M0 0 C15.51 0 31.02 0 47 0 C51.33769786 18.54365835 55.44293236 37.12508715 59.43972778 55.74449158 C60.64474771 61.35610258 61.85884673 66.96568962 63.078125 72.57421875 C66.24438052 87.14384413 69.39091481 101.71731841 72.4375 116.3125 C72.6845166 117.48619141 72.9315332 118.65988281 73.18603516 119.86914062 C74.36742505 125.57147305 75.38623624 131.20804547 76 137 C76.12528076 136.2879541 76.25056152 135.5759082 76.37963867 134.84228516 C77.89909602 126.22444681 79.44149427 117.61085271 81 109 C81.20818359 107.84790039 81.41636719 106.69580078 81.63085938 105.50878906 C84.11284609 91.88195907 87.02035761 78.45313342 90.46875 65.0390625 C92.05737409 58.8397997 93.51077247 52.61325947 94.9375 46.375 C95.17871582 45.32175537 95.41993164 44.26851074 95.66845703 43.18334961 C96.17279621 40.97987953 96.67685755 38.77634584 97.18066406 36.57275391 C98.5559769 30.5756359 99.94621045 24.58200941 101.34109497 18.5894165 C101.65344001 17.24641575 101.96519472 15.90327755 102.27633667 14.55999756 C102.71021963 12.68682091 103.14608256 10.81410321 103.58203125 8.94140625 C103.83186768 7.86576416 104.0817041 6.79012207 104.33911133 5.68188477 C105 3 105 3 106 0 C121.18 0 136.36 0 152 0 C155.36709474 12.34601405 155.36709474 12.34601405 156.32421875 17.00390625 C156.65389648 18.58268555 156.65389648 18.58268555 156.99023438 20.19335938 C157.33538086 21.86108398 157.33538086 21.86108398 157.6875 23.5625 C159.97003688 34.41476614 162.43140277 45.21231809 165 56 C169.69995362 75.7897172 174.059326 95.6313666 177.8125 115.625 C178.01963623 116.72126709 178.22677246 117.81753418 178.44018555 118.94702148 C179.60396558 125.28381114 180.48015913 131.57759422 181 138 C181.15855469 136.89527344 181.31710938 135.79054688 181.48046875 134.65234375 C183.09590867 123.75020758 185.21754531 113.03155757 187.6171875 102.27734375 C189.1410255 95.43097286 190.53627877 88.55980978 191.9375 81.6875 C194.01892899 71.53928882 196.23747171 61.43431232 198.59814453 51.34765625 C200.90522539 41.47605556 203.11603675 31.58417253 205.3125 21.6875 C205.57797638 20.4931282 205.57797638 20.4931282 205.84881592 19.27462769 C206.35435354 16.99964947 206.8590247 14.72448123 207.36328125 12.44921875 C207.51405624 11.77014465 207.66483124 11.09107056 207.82017517 10.39141846 C208.58482041 6.93337434 209.30531988 3.47340058 210 0 C225.84 0 241.68 0 258 0 C253.37016529 20.83425621 253.37016529 20.83425621 251.5546875 28.44921875 C251.23761589 29.78394981 251.23761589 29.78394981 250.91413879 31.14564514 C250.23644674 33.99341652 249.55605123 36.84053023 248.875 39.6875 C248.63866852 40.67745972 248.40233704 41.66741943 248.15884399 42.68737793 C244.60259921 57.56659785 240.89122533 72.39963119 237.04998779 87.20761108 C234.31286426 97.76359255 231.71805949 108.33229422 229.33349609 118.97460938 C226.65381588 130.78998981 223.57429202 142.50523655 220.51367188 154.2265625 C218.33008626 162.61944501 216.28379986 170.99196636 214.5847168 179.49902344 C214 182 214 182 213 183 C211.15881971 183.09381302 209.31402359 183.11743954 207.47045898 183.11352539 C206.28931015 183.11344986 205.10816132 183.11337433 203.89122009 183.11329651 C202.6058284 183.10813522 201.32043671 183.10297394 199.99609375 183.09765625 C198.0338662 183.09553383 198.0338662 183.09553383 196.03199768 183.09336853 C192.54837141 183.0895441 189.06478661 183.07971446 185.58117676 183.06866455 C182.02873292 183.05844882 178.47628241 183.05387056 174.92382812 183.04882812 C167.94920168 183.03809212 160.97460283 183.0210166 154 183 C153.78907715 182.01531738 153.5781543 181.03063477 153.36083984 180.01611328 C152.36806387 175.38520274 151.37220891 170.75495786 150.375 166.125 C150.19292999 165.27956635 150.01085999 164.43413269 149.82327271 163.56307983 C147.60880269 153.29300519 145.34425277 143.03954171 142.9375 132.8125 C137.45559427 109.37547564 132.66274532 85.79213214 129 62 C128.89042969 62.68473389 128.78085938 63.36946777 128.66796875 64.07495117 C123.78573108 94.23418051 117.03455984 123.96077667 110.05761719 153.69482422 C109.69817189 155.23135277 109.33911326 156.76797184 108.98046875 158.3046875 C108.80939606 159.03742889 108.63832336 159.77017029 108.46206665 160.52511597 C107.02661145 166.74200017 105.7867177 172.98833711 104.60668945 179.25830078 C104 182 104 182 103 183 C101.15881971 183.09381302 99.31402359 183.11743954 97.47045898 183.11352539 C96.28931015 183.11344986 95.10816132 183.11337433 93.89122009 183.11329651 C92.6058284 183.10813522 91.32043671 183.10297394 89.99609375 183.09765625 C88.0338662 183.09553383 88.0338662 183.09553383 86.03199768 183.09336853 C82.54837141 183.0895441 79.06478661 183.07971446 75.58117676 183.06866455 C72.02873292 183.05844882 68.47628241 183.05387056 64.92382812 183.04882812 C57.94920168 183.03809212 50.97460283 183.0210166 44 183 C42.0145232 175.10521595 40.03186692 167.20973045 38.05245018 159.31342506 C37.13244683 155.64368343 36.21160544 151.97415711 35.28857422 148.30517578 C31.8062482 134.4609856 28.32885472 120.62177622 25.1875 106.6953125 C22.53007528 94.95762928 19.57759804 83.30082221 16.6015625 71.640625 C16.36026989 70.69428066 16.11897728 69.74793633 15.87037277 68.77291489 C13.61058829 59.91173985 11.3452385 51.05199914 9.06982422 42.19482422 C7.81191104 37.29699119 6.56095031 32.39742628 5.31437302 27.49669647 C4.84257755 25.64768564 4.36813093 23.79934906 3.89091873 21.95172882 C3.22883766 19.38773501 2.57560974 16.82163465 1.92431641 14.25488281 C1.62988144 13.12823967 1.62988144 13.12823967 1.32949829 11.97883606 C0.26148143 7.72526994 0 4.49335865 0 0 Z " fill="#FDFEFE" transform="translate(2431,1228)"/>
<path d="M0 0 C17.93888045 15.07539719 27.16958616 35.39781319 29.71484375 58.484375 C32.07109536 88.41290428 30.17647577 121.4151671 9.9375 145.3125 C9.23625 146.281875 8.535 147.25125 7.8125 148.25 C-5.30565771 163.47864996 -27.61528716 170.69477489 -47.0625 172.3125 C-60.40586391 172.96936444 -73.07116643 172.48618194 -86.0625 169.3125 C-87.00609375 169.11914062 -87.9496875 168.92578125 -88.921875 168.7265625 C-106.33364545 164.75997574 -123.32028282 153.60648255 -133.14941406 138.65966797 C-138.80974888 129.42506008 -142.27342548 119.73184751 -145.0625 109.3125 C-145.41441406 108.01505859 -145.41441406 108.01505859 -145.7734375 106.69140625 C-152.5327388 79.21337707 -149.4454702 45.78740983 -135.75 20.875 C-124.90291085 3.4336452 -108.60226292 -8.54150197 -88.6875 -13.3125 C-86.4810546 -13.77983739 -84.27275827 -14.23854129 -82.0625 -14.6875 C-80.7321875 -14.99880859 -80.7321875 -14.99880859 -79.375 -15.31640625 C-53.65127673 -20.66305222 -21.22195308 -16.20940588 0 0 Z " fill="#FDFEFE" transform="translate(4533.0625,1241.6875)"/>
<path d="M0 0 C2.70671559 1.884761 5.17362628 3.8632947 7.640625 6.05078125 C8.49785156 6.788125 9.35507813 7.52546875 10.23828125 8.28515625 C26.54327163 23.3359166 33.92112843 46.30210893 34.80175781 68.02563477 C34.82156158 69.41024814 34.83533225 70.79495809 34.84375 72.1796875 C34.84945007 72.93185043 34.85515015 73.68401337 34.86102295 74.45896912 C34.87040692 76.04302596 34.87698039 77.62710175 34.88085938 79.21118164 C34.89050275 81.58321049 34.92156314 83.95434777 34.953125 86.32617188 C35.02265157 96.29858429 34.06313932 105.35998674 31.640625 115.05078125 C31.33439209 116.28260132 31.33439209 116.28260132 31.02197266 117.53930664 C25.88411097 136.80966517 15.07346464 153.99293233 -2.47607422 164.19824219 C-17.64508238 172.57521584 -33.33332639 175.24633135 -50.53491211 175.29101562 C-52.75999802 175.30062204 -54.98411834 175.33165628 -57.20898438 175.36328125 C-79.9729643 175.53319352 -101.39693394 169.64891958 -118.52734375 153.9140625 C-127.37314097 144.91737748 -133.57794863 134.10876357 -137.671875 122.23828125 C-137.91429932 121.55258057 -138.15672363 120.86687988 -138.40649414 120.16040039 C-142.6047474 107.22752626 -142.80380201 93.45906114 -142.796875 79.98828125 C-142.79727783 79.17984772 -142.79768066 78.37141418 -142.7980957 77.53848267 C-142.72495554 51.97315759 -137.01873909 28.80520577 -119.125 9.66015625 C-105.35946105 -3.56555765 -88.73876853 -8.81953894 -70.359375 -11.94921875 C-69.17625732 -12.20940796 -69.17625732 -12.20940796 -67.96923828 -12.47485352 C-45.16103505 -16.62044181 -19.89841247 -11.54570677 0 0 Z " fill="#FDFEFE" transform="translate(1424.359375,1237.94921875)"/>
<path d="M0 0 C21.45 0 42.9 0 65 0 C78.70091339 25.11834121 78.70091339 25.11834121 85.02606201 37.53112793 C86.94343995 41.29346964 88.8708398 45.05067873 90.796875 48.80859375 C91.1681955 49.53366119 91.53951599 50.25872864 91.92208862 51.00576782 C95.4452064 57.88067388 99.03540481 64.71888201 102.6484375 71.546875 C105.45567384 76.85238273 108.22657174 82.17676479 111 87.5 C114.82567687 94.83735141 118.65415228 102.17319674 122.5 109.5 C122.89703125 110.25861328 123.2940625 111.01722656 123.703125 111.79882812 C124.07953125 112.51490234 124.4559375 113.23097656 124.84375 113.96875 C125.32618164 114.88817383 125.32618164 114.88817383 125.81835938 115.82617188 C127.49562804 118.91179175 129.25755043 121.95071325 131 125 C131 83.75 131 42.5 131 0 C145.52 0 160.04 0 175 0 C175 60.39 175 120.78 175 183 C153.22 183 131.44 183 109 183 C105.04 175.08 101.08 167.16 97 159 C93.45503853 152.23770713 93.45503853 152.23770713 89.88671875 145.48828125 C86.07478719 138.27229619 82.35651365 131.00777521 78.625 123.75 C73.27520633 113.34734026 67.90584956 102.95586948 62.48388672 92.59057617 C55.94510529 80.08332153 49.47730092 67.53916831 43 55 C43.02978156 55.59561989 43.05956312 56.19123978 43.09024715 56.80490875 C43.85998523 72.57815042 44.13633724 88.3035717 44.09765625 104.09375 C44.09578409 106.39115365 44.09436398 108.68855771 44.09336853 110.98596191 C44.08960605 116.94345258 44.07983181 122.90091767 44.06866455 128.85839844 C44.05648338 136.05421419 44.05201826 143.25003864 44.04621124 150.44586182 C44.03661468 161.29725883 44.01741487 172.14860007 44 183 C29.48 183 14.96 183 0 183 C0 122.61 0 62.22 0 0 Z " fill="#FDFDFE" transform="translate(3306,1228)"/>
<path d="M0 0 C109.24393764 0 109.24393764 0 126.875 16.3125 C134.36402288 24.43009794 137.35245051 33.51524641 137.25 44.375 C137.25773437 45.18710938 137.26546875 45.99921875 137.2734375 46.8359375 C137.23601171 58.5127827 133.37284235 69.62715765 125 78 C120.23928812 81.67431566 115.78583459 84.26424962 110 86 C109.67 86.66 109.34 87.32 109 88 C110.27875 88.20625 111.5575 88.4125 112.875 88.625 C122.26592698 90.75124762 129.48920805 96.21141405 135 104 C141.80697957 114.96798589 142.82701101 128.6446308 140.61328125 141.19189453 C138.59843523 149.70058926 134.97247538 156.62327411 129 163 C128.26910156 163.89912109 128.26910156 163.89912109 127.5234375 164.81640625 C117.25526858 176.58530755 101.43517613 179.39120597 87 183 C58.29 183 29.58 183 0 183 C0 122.61 0 62.22 0 0 Z " fill="#FEFEFE" transform="translate(3881,1228)"/>
<path d="M0 0 C21.45 0 42.9 0 65 0 C69.95 9.9 69.95 9.9 75 20 C78.67404009 27.02491981 78.67404009 27.02491981 82.375 34.03515625 C85.23112107 39.4282485 88.05447733 44.83822469 90.875 50.25 C91.37612305 51.21107666 91.87724609 52.17215332 92.39355469 53.16235352 C94.44319121 57.09366114 96.49207926 61.02535868 98.54101562 64.95703125 C103.69948028 74.85446661 108.86068038 84.75026598 114.0625 94.625 C119.39066346 104.74176606 124.69450496 114.87132765 130 125 C130 83.75 130 42.5 130 0 C144.52 0 159.04 0 174 0 C174 60.39 174 120.78 174 183 C152.55 183 131.1 183 109 183 C95.22931323 157.75374093 95.22931323 157.75374093 91.1484375 149.67578125 C90.67862457 148.75314987 90.20881165 147.83051849 89.72476196 146.87992859 C88.27185133 144.02562672 86.82310299 141.16924346 85.375 138.3125 C83.44711665 134.51600794 81.51728894 130.72051015 79.5859375 126.92578125 C78.88095375 125.54024048 78.88095375 125.54024048 78.16172791 124.12670898 C74.69692127 117.33158934 71.16494102 110.57408096 67.6002655 103.83091736 C64.86289932 98.65022109 62.15752765 93.45429971 59.48046875 88.2421875 C59.12249207 87.54528305 58.76451538 86.8483786 58.39569092 86.13035583 C56.95952518 83.33235597 55.52483794 80.53360143 54.09106445 77.734375 C50.17441934 70.09112007 46.24217063 62.46956485 42 55 C42.1065818 56.61011711 42.1065818 56.61011711 42.21531677 58.25276184 C43.06875461 72.07344329 43.12955295 85.85620922 43.09765625 99.69921875 C43.0957862 102.11586986 43.09436508 104.53252135 43.09336853 106.94917297 C43.08958953 113.24375495 43.07979988 119.53831306 43.06866455 125.83288574 C43.05834996 132.28246742 43.0538496 138.73205304 43.04882812 145.18164062 C43.03817246 157.78777247 43.0206143 170.3938805 43 183 C28.81 183 14.62 183 0 183 C0 122.61 0 62.22 0 0 Z " fill="#FEFEFE" transform="translate(1493,1228)"/>
<path d="M0 0 C21.45 0 42.9 0 65 0 C69.95 9.9 69.95 9.9 75 20 C78.63779308 26.95023961 78.63779308 26.95023961 82.30078125 33.88671875 C85.39881442 39.74138809 88.44870242 45.62087641 91.5 51.5 C95.72982642 59.6456724 99.97943506 67.78023193 104.26171875 75.8984375 C107.98487538 82.96042491 111.67759246 90.03814988 115.36352539 97.11962891 C120.21285673 106.42891052 125.11104096 115.71097781 130 125 C130 83.75 130 42.5 130 0 C144.52 0 159.04 0 174 0 C174 60.39 174 120.78 174 183 C152.55 183 131.1 183 109 183 C95.22931323 157.75374093 95.22931323 157.75374093 91.1484375 149.67578125 C90.67862457 148.75314987 90.20881165 147.83051849 89.72476196 146.87992859 C88.27185133 144.02562672 86.82310299 141.16924346 85.375 138.3125 C83.44711665 134.51600794 81.51728894 130.72051015 79.5859375 126.92578125 C78.88095375 125.54024048 78.88095375 125.54024048 78.16172791 124.12670898 C74.69692127 117.33158934 71.16494102 110.57408096 67.6002655 103.83091736 C64.86289932 98.65022109 62.15752765 93.45429971 59.48046875 88.2421875 C59.12249207 87.54528305 58.76451538 86.8483786 58.39569092 86.13035583 C56.95952518 83.33235597 55.52483794 80.53360143 54.09106445 77.734375 C50.17441934 70.09112007 46.24217063 62.46956485 42 55 C42.1065818 56.61011711 42.1065818 56.61011711 42.21531677 58.25276184 C43.06875461 72.07344329 43.12955295 85.85620922 43.09765625 99.69921875 C43.0957862 102.11586986 43.09436508 104.53252135 43.09336853 106.94917297 C43.08958953 113.24375495 43.07979988 119.53831306 43.06866455 125.83288574 C43.05834996 132.28246742 43.0538496 138.73205304 43.04882812 145.18164062 C43.03817246 157.78777247 43.0206143 170.3938805 43 183 C28.81 183 14.62 183 0 183 C0 122.61 0 62.22 0 0 Z " fill="#FEFEFE" transform="translate(1707,1228)"/>
<path d="M0 0 C102.61538462 0 102.61538462 0 121.49609375 17.28515625 C126.91728661 22.90218859 130.39890117 28.65572096 133 36 C133.24492187 36.680625 133.48984375 37.36125 133.7421875 38.0625 C137.90000121 52.64332616 135.09664795 67.75375191 128.49609375 81.0234375 C123.01819849 90.4480573 114.8049091 98.20648889 105 103 C106.34751835 105.80635312 107.84405205 108.40217642 109.5559082 111.0012207 C110.06927734 111.78280548 110.58264648 112.56439026 111.11157227 113.36965942 C111.66901123 114.21317963 112.2264502 115.05669983 112.80078125 115.92578125 C113.38553223 116.81393524 113.9702832 117.70208923 114.57275391 118.61715698 C116.48353794 121.5172383 118.3978755 124.41495298 120.3125 127.3125 C120.96028412 128.29465485 121.60806824 129.27680969 122.27548218 130.28872681 C131.74175418 144.64090162 141.29238454 158.93238755 151.00317383 173.12036133 C151.62083618 174.02505661 151.62083618 174.02505661 152.25097656 174.94802856 C153.34276027 176.54642419 154.43749487 178.14280311 155.5324707 179.73901367 C157 182 157 182 157 183 C149.17242121 183.33045294 141.34664528 183.55758671 133.51367188 183.71411133 C130.84888313 183.77205914 128.19322299 183.86785965 125.52929688 183.98071289 C104.15598696 184.86328043 104.15598696 184.86328043 99.09863281 181.87744141 C95.74374957 178.5606556 94.46654959 174.37337606 93 170 C91.8791992 167.97136989 90.7127715 165.96721151 89.5 163.9921875 C88.33329819 161.95314511 87.16663258 159.914082 86 157.875 C85.36408936 156.78131104 84.72817871 155.68762207 84.07299805 154.56079102 C80.94026912 149.16968099 77.8536996 143.77001593 74.92214966 138.26647949 C73.57368943 135.74856349 72.19158457 133.25000618 70.80444336 130.75323486 C70.14923682 129.55389082 69.50950435 128.34594752 68.88647461 127.12957764 C68.01301633 125.42824461 67.07964134 123.75808611 66.14453125 122.08984375 C65.63253174 121.12941162 65.12053223 120.16897949 64.59301758 119.17944336 C61.02626174 115.75558557 61.02626174 115.75558557 50 116 C50 138.11 50 160.22 50 183 C33.5 183 17 183 0 183 C0 122.61 0 62.22 0 0 Z " fill="#FDFDFE" transform="translate(4596,1228)"/>
<path d="M0 0 C1.1702623 0.00222061 2.3405246 0.00444122 3.54624939 0.00672913 C4.19013107 0.0065831 4.83401276 0.00643707 5.49740601 0.00628662 C7.63473327 0.00698567 9.77197438 0.01477761 11.9092865 0.02259827 C13.3875931 0.02446248 14.86590032 0.02588637 16.34420776 0.02688599 C20.24211827 0.03071093 24.13999174 0.040541 28.03788757 0.05158997 C32.01259358 0.0618046 35.98730554 0.06638372 39.96202087 0.07142639 C47.76607425 0.0821633 55.57009707 0.09923942 63.37413025 0.12025452 C72.19685762 25.6068971 80.72665234 51.18362431 89.09873962 76.82167053 C89.74194734 78.79120119 90.38518453 80.7607222 91.0284729 82.73022652 C91.46895898 84.0788277 91.90939848 85.4274441 92.34979248 86.77607536 C96.04999925 98.10459463 99.7817262 109.42253758 103.52443695 120.73707962 C104.43207958 123.48149478 105.33910762 126.22611221 106.24589539 128.97080994 C106.54372547 129.87228319 106.84155556 130.77375645 107.1484108 131.70254707 C107.74793934 133.51727093 108.34744451 135.33200251 108.94692612 137.14674187 C110.43064024 141.63723876 111.91606547 146.12715681 113.40501404 150.61592102 C114.80890744 154.84832482 116.20870305 159.08206209 117.60548401 163.31681824 C118.12465497 164.88818969 118.64540498 166.45904038 119.1678009 168.02934265 C119.88422177 170.1834834 120.59516912 172.33935561 121.30479431 174.4957428 C121.90713898 176.31490707 121.90713898 176.31490707 122.52165222 178.17082214 C123.37413025 181.12025452 123.37413025 181.12025452 123.37413025 184.12025452 C105.55413025 184.12025452 87.73413025 184.12025452 69.37413025 184.12025452 C68.05413025 179.17025452 66.73413025 174.22025452 65.37413025 169.12025452 C64.956474 167.60044983 64.53881775 166.08064514 64.10850525 164.51478577 C63.62123962 162.7416803 63.62123962 162.7416803 63.12413025 160.93275452 C62.788974 159.72232483 62.45381775 158.51189514 62.10850525 157.26478577 C61.37413025 154.12025452 61.37413025 154.12025452 61.37413025 150.12025452 C41.24413025 150.12025452 21.11413025 150.12025452 0.37413025 150.12025452 C0.04413025 153.09025452 -0.28586975 156.06025452 -0.62586975 159.12025452 C-1.02824484 160.91109637 -1.47823296 162.69277702 -2.00086975 164.45228577 C-2.2638385 165.35269592 -2.52680725 166.25310608 -2.79774475 167.18080139 C-3.071026 168.08894592 -3.34430725 168.99709045 -3.62586975 169.93275452 C-4.16794273 171.7724786 -4.70962471 173.61231794 -5.25086975 175.45228577 C-5.49063538 176.25384094 -5.730401 177.05539612 -5.97743225 177.88124084 C-6.57580253 179.94737558 -7.10416667 182.0334422 -7.62586975 184.12025452 C-25.77586975 184.12025452 -43.92586975 184.12025452 -62.62586975 184.12025452 C-59.57667506 173.75299258 -56.5062775 163.4638911 -53.1063385 153.21791077 C-52.68637741 151.94494986 -52.26671383 150.67189077 -51.84732056 149.39874268 C-50.96269334 146.71445051 -50.0766786 144.03062276 -49.18946838 141.34718323 C-46.82597736 134.19723932 -44.47345382 127.04368389 -42.1219635 119.88978577 C-41.88575413 119.17134869 -41.64954475 118.45291161 -41.40617752 117.7127037 C-36.99360582 104.28716432 -32.66372646 90.83615794 -28.37586975 77.37025452 C-23.08392227 60.76352707 -17.74705499 44.17213329 -12.34352112 27.60133362 C-11.57772497 25.25215296 -10.81298293 22.9026284 -10.04933167 20.55274963 C-8.99591405 17.312511 -7.93849012 14.07360956 -6.879776 10.83509827 C-6.56394058 9.86175034 -6.24810516 8.8884024 -5.92269897 7.88555908 C-5.63340012 7.00386551 -5.34410126 6.12217194 -5.04603577 5.21376038 C-4.66875084 4.05764503 -4.66875084 4.05764503 -4.28384399 2.87817383 C-3.24994243 0.11588405 -3.07789567 0.14095553 0 0 Z " fill="#FDFDFE" transform="translate(4096.625869750977,1226.8797454833984)"/>
<path d="M0 0 C16.17 0 32.34 0 49 0 C49 22.44 49 44.88 49 68 C68.14 68 87.28 68 107 68 C107 45.56 107 23.12 107 0 C123.5 0 140 0 157 0 C157 60.39 157 120.78 157 183 C140.5 183 124 183 107 183 C107 158.25 107 133.5 107 108 C87.86 108 68.72 108 49 108 C49 132.75 49 157.5 49 183 C32.83 183 16.66 183 0 183 C0 122.61 0 62.22 0 0 Z " fill="#FEFEFE" transform="translate(2954,1228)"/>
<path d="M0 0 C16.17 0 32.34 0 49 0 C49.03738281 7.99476562 49.07476563 15.98953125 49.11328125 24.2265625 C49.14358207 29.31252094 49.17474389 34.39844528 49.20898438 39.484375 C49.26316756 47.5445787 49.31472135 55.60471186 49.34643555 63.66503906 C49.37257817 70.16853353 49.41305767 76.67179958 49.46318626 83.17515182 C49.47978108 85.6476188 49.49134107 88.12012522 49.49761391 90.59263992 C48.62968519 115.20089913 48.62968519 115.20089913 58.63671875 136.7421875 C66.03429894 143.44975478 73.02612492 143.52692191 82.59375 143.30859375 C89.66572587 142.94993504 94.49697159 140.89902999 99.375 135.75 C106.26056493 126.82356125 106.14721854 116.25575802 106.20532227 105.46508789 C106.21522186 104.32289795 106.22512146 103.18070801 106.23532104 102.00390625 C106.26680827 98.24351038 106.29164288 94.4831019 106.31640625 90.72265625 C106.33698681 88.10948872 106.35798357 85.49632444 106.37937927 82.88316345 C106.42916184 76.71750136 106.4741538 70.55181411 106.51740164 64.38610309 C106.56689792 57.36307009 106.62176983 50.34008225 106.67708123 43.31709301 C106.79067947 28.87810366 106.89685669 14.43906793 107 0 C123.17 0 139.34 0 156 0 C156.09063213 16.15204034 156.16417365 32.30386038 156.20724869 48.45608521 C156.22778937 55.95747036 156.25574522 63.45868519 156.30175781 70.95996094 C156.34188818 77.50545249 156.36749437 84.05082056 156.37635398 90.59643173 C156.38152494 94.05565449 156.39349581 97.51452429 156.42292023 100.97363281 C156.61867734 124.94758838 154.88286481 145.61743085 138.4375 164.53515625 C128.25882464 174.82801547 115.06065899 181.0180344 101 184 C100.0409375 184.20496094 99.081875 184.40992188 98.09375 184.62109375 C83.89092931 187.22135764 69.13811162 186.73417581 55 184 C53.49759766 183.72542969 53.49759766 183.72542969 51.96484375 183.4453125 C35.41921851 179.91383518 21.20342752 170.41846978 11 157 C1.90514692 142.42802428 -0.1680275 126.58219155 -0.11352539 109.77905273 C-0.11367142 108.58780289 -0.11381744 107.39655304 -0.1139679 106.16920471 C-0.11339406 102.93015392 -0.10840788 99.69114735 -0.10139394 96.45210528 C-0.09510695 93.05686307 -0.0945524 89.66161982 -0.09336853 86.26637268 C-0.09027089 79.84929088 -0.08207878 73.43222629 -0.07201904 67.01515204 C-0.06080904 59.70432303 -0.05533518 52.39349317 -0.05032361 45.08265769 C-0.03989473 30.05509399 -0.0215689 15.02755262 0 0 Z " fill="#FEFEFE" transform="translate(3686,1228)"/>
<path d="M0 0 C-0.61020797 4.70039614 -1.91052817 8.69049705 -3.6875 13.078125 C-3.95006592 13.73077332 -4.21263184 14.38342163 -4.4831543 15.05584717 C-5.31644119 17.12290632 -6.15817001 19.18640758 -7 21.25 C-7.56564275 22.65082431 -8.1307522 24.05186409 -8.6953125 25.453125 C-12.76820802 35.53641604 -12.76820802 35.53641604 -14 38 C-20.01806956 37.34939789 -25.37500424 35.10250887 -31 33 C-33.98108303 31.93011702 -36.97297785 30.93181556 -40 30 C-40.63550781 29.79246094 -41.27101562 29.58492187 -41.92578125 29.37109375 C-50.28919108 27.04882655 -61.65270596 26.06663697 -69.90625 29.05078125 C-72.55321871 30.6763653 -74.59103463 32.18206927 -76 35 C-76.4367557 39.54225924 -76.22007282 42.64922365 -73.54125977 46.4296875 C-70.15190247 49.88293415 -65.60481587 51.76180117 -61.3125 53.875 C-60.28608398 54.39602295 -59.25966797 54.9170459 -58.20214844 55.45385742 C-51.42400217 58.87195563 -44.56346499 62.09580986 -37.66918945 65.27075195 C-31.77065152 68.02426819 -26.32395752 71.24493817 -21 75 C-19.78376953 75.84691406 -19.78376953 75.84691406 -18.54296875 76.7109375 C-8.66259909 83.95326485 -2.09682239 93.83740977 0 106 C0.27119677 109.67158704 0.28008282 113.31986871 0.25 117 C0.25773437 117.94617187 0.26546875 118.89234375 0.2734375 119.8671875 C0.23332891 134.34638713 -5.49268087 147.43079159 -15.55859375 157.8203125 C-29.46426132 170.23529251 -47.7115478 175.37973389 -66 176 C-66.77553223 176.02723145 -67.55106445 176.05446289 -68.35009766 176.08251953 C-89.66610767 176.73292168 -108.75313916 173.62343042 -128 164 C-128 149.81 -128 135.62 -128 121 C-124.09585661 121.78082868 -121.16162324 122.72326288 -117.5859375 124.32397461 C-102.71134913 130.9273587 -87.99238811 134.41033063 -71.6875 134.5625 C-70.64400391 134.57724365 -69.60050781 134.5919873 -68.52539062 134.60717773 C-62.43653742 134.52480261 -56.88086745 133.9629382 -52 130 C-49.63652795 126.17657778 -48.99864427 122.38507434 -50 118 C-54.5370276 110.23398729 -62.03890386 107.03420012 -69.9375 103.5 C-71.15330221 102.93689139 -72.36806005 102.37152266 -73.58178711 101.80395508 C-77.04725219 100.18667997 -80.52377147 98.59401107 -84 97 C-93.51079479 92.57316369 -102.17180994 88.1455835 -110 81 C-110.64324219 80.44828125 -111.28648438 79.8965625 -111.94921875 79.328125 C-121.87041999 70.28928656 -125.57746927 58.02315211 -126.3515625 44.9609375 C-126.8902006 30.61581363 -124.89042088 19.04103915 -115 8 C-114.49984375 7.40832031 -113.9996875 6.81664062 -113.484375 6.20703125 C-87.2390401 -22.65009668 -31.56337637 -15.78168819 0 0 Z " fill="#FDFDFE" transform="translate(4889,1238)"/>
<path d="M0 0 C35.64 0 71.28 0 108 0 C108 13.2 108 26.4 108 40 C88.53 40 69.06 40 49 40 C49 49.57 49 59.14 49 69 C67.15 69 85.3 69 104 69 C104 81.87 104 94.74 104 108 C85.85 108 67.7 108 49 108 C49 119.55 49 131.1 49 143 C68.47 143 87.94 143 108 143 C108 156.2 108 169.4 108 183 C72.36 183 36.72 183 0 183 C0 122.61 0 62.22 0 0 Z " fill="#FEFEFE" transform="translate(1921,1228)"/>
<path d="M0 0 C-2.40368973 7.40596295 -5.0352903 14.72140872 -7.76123047 22.01416016 C-8.25842715 23.35064323 -8.75085857 24.68890769 -9.23876953 26.02880859 C-9.95036096 27.98177907 -10.67655741 29.9287322 -11.40625 31.875 C-11.83228516 33.02742188 -12.25832031 34.17984375 -12.69726562 35.3671875 C-13.34211914 36.67042969 -13.34211914 36.67042969 -14 38 C-18.04647376 39.34882459 -20.40313246 37.85568206 -24.125 36.25 C-25.48238571 35.68714194 -26.84045716 35.12593471 -28.19921875 34.56640625 C-28.8545459 34.2945752 -29.50987305 34.02274414 -30.18505859 33.74267578 C-42.62640424 28.65166509 -57.7349259 26.28231778 -70.6953125 30.9140625 C-79.83186525 35.21908227 -84.89236558 41.90985838 -89 51 C-96.24676467 71.5288288 -96.38156045 95.27942922 -88.14453125 115.640625 C-83.77298581 124.65227499 -77.43836722 129.20401778 -68.35546875 133.1484375 C-63.64848064 134.34299327 -59.14892688 134.28940063 -54.3125 134.25 C-53.38244141 134.25773437 -52.45238281 134.26546875 -51.49414062 134.2734375 C-40.37201136 134.24260693 -30.77526129 131.85268381 -20.4375 127.875 C-18.49971247 127.14054676 -16.5609578 126.40863848 -14.62109375 125.6796875 C-13.7798999 125.35726074 -12.93870605 125.03483398 -12.07202148 124.70263672 C-10 124 -10 124 -8 124 C-8 137.86 -8 151.72 -8 166 C-25.4853424 171.82844747 -25.4853424 171.82844747 -33.125 173.25 C-33.97481445 173.41274414 -34.82462891 173.57548828 -35.70019531 173.74316406 C-42.45715644 174.99198382 -49.125589 175.79805892 -56 176 C-57.24910156 176.0515625 -58.49820313 176.103125 -59.78515625 176.15625 C-73.39109207 176.55559262 -86.44495667 174.43927693 -99 169 C-99.95132813 168.60296875 -100.90265625 168.2059375 -101.8828125 167.796875 C-120.30019183 159.4297105 -131.67886365 144.62747842 -139 126 C-143.85469484 112.6696168 -145.35831218 99.47880374 -145.31567383 85.37182617 C-145.31251794 83.1998443 -145.33606591 81.02923652 -145.36132812 78.85742188 C-145.47308148 54.12954712 -137.9968875 29.63963205 -120.7265625 11.45874023 C-89.87365061 -19.35045688 -37.14447115 -18.57223557 0 0 Z " fill="#FDFEFE" transform="translate(3659,1238)"/>
<path d="M0 0 C-2.13542615 7.729657 -4.8449825 15.19516767 -7.76123047 22.66235352 C-8.50937415 24.5866107 -9.24093953 26.51671164 -9.97265625 28.44726562 C-10.68228516 30.26967773 -10.68228516 30.26967773 -11.40625 32.12890625 C-11.83228516 33.23306885 -12.25832031 34.33723145 -12.69726562 35.47485352 C-14 38 -14 38 -17 39 C-19.44926324 38.16595832 -21.75644735 37.27183714 -24.125 36.25 C-25.48238571 35.68714194 -26.84045716 35.12593471 -28.19921875 34.56640625 C-28.8545459 34.2945752 -29.50987305 34.02274414 -30.18505859 33.74267578 C-42.53629031 28.6885398 -57.72033107 26.25992205 -70.62109375 30.765625 C-81.94060763 36.63913302 -87.44008763 46.44191012 -91.203125 58.0703125 C-93.29376074 65.75647332 -93.18352634 73.27593695 -93.1875 81.1875 C-93.20586914 83.08338867 -93.20586914 83.08338867 -93.22460938 85.01757812 C-93.24667624 99.23599565 -91.524657 113.97972341 -81.3203125 124.77734375 C-74.23355929 131.50833626 -66.56603454 134.4905299 -56.7890625 134.44921875 C-55.86867188 134.42472656 -54.94828125 134.40023438 -54 134.375 C-53.07960938 134.37371094 -52.15921875 134.37242187 -51.2109375 134.37109375 C-40.42186668 134.23433088 -31.08648514 131.53928151 -21 127.875 C-18.95929567 127.14054975 -16.91767399 126.40864175 -14.875 125.6796875 C-13.98554688 125.35726074 -13.09609375 125.03483398 -12.1796875 124.70263672 C-10 124 -10 124 -8 124 C-8 137.86 -8 151.72 -8 166 C-37.04054618 176.24960454 -71.47466955 180.74433502 -100.9140625 168.49609375 C-121.61284039 158.46111662 -133.54815212 141.4710161 -140.96875 120.2265625 C-147.36409822 98.93005293 -147.89115888 72.39689307 -142 51 C-141.59974609 49.48599609 -141.59974609 49.48599609 -141.19140625 47.94140625 C-134.62497804 25.96575986 -121.18613425 8.17202829 -101 -3 C-68.64442741 -18.64771466 -31.84207065 -13.92235643 0 0 Z " fill="#FDFEFE" transform="translate(2200,1238)"/>
<path d="M0 0 C0.71397949 0.22945312 1.42795898 0.45890625 2.16357422 0.6953125 C7.60243842 2.47043535 12.89297486 4.40391186 18 7 C15.63630506 15.57708886 12.50132211 23.83140432 9.3125 32.125 C8.79589779 33.47643786 8.27961945 34.82799958 7.76367188 36.1796875 C6.51283904 39.45455893 5.257653 42.7277407 4 46 C-0.52109809 44.50300081 -5.03655073 42.99313729 -9.53515625 41.4296875 C-10.28216797 41.17316406 -11.02917969 40.91664062 -11.79882812 40.65234375 C-13.31384778 40.13208678 -14.8268749 39.60599253 -16.33789062 39.07421875 C-27.8864547 35.14151845 -42.50591278 33.31147921 -53.79296875 38.68359375 C-65.40161843 45.60769099 -70.49984209 56.30968387 -74 69 C-75.39808123 74.9024401 -75.26039384 80.81448813 -75.29516602 86.8527832 C-75.3065889 88.2265867 -75.32688385 89.60034932 -75.35668945 90.97387695 C-75.65857465 104.92974298 -73.57249443 120.34572065 -64.03125 131.25 C-56.83066944 138.14633067 -49.00112335 141.47094877 -39.01049805 141.50537109 C-38.09953369 141.48297363 -37.18856934 141.46057617 -36.25 141.4375 C-35.28553955 141.42283691 -34.3210791 141.40817383 -33.32739258 141.39306641 C-21.37119132 141.07887717 -10.79500004 138.19139323 0.31762695 133.98193359 C3.80153945 132.67469417 6.22593389 132 10 132 C10 145.53 10 159.06 10 173 C-18.2052191 182.95478321 -53.77869689 188.3441948 -82.265625 175.37109375 C-101.2554207 165.84906762 -114.44457337 151.03774106 -121.4765625 130.921875 C-128.70687433 108.80123769 -130.55134947 81.40561519 -124 59 C-123.63648438 57.74316406 -123.27296875 56.48632812 -122.8984375 55.19140625 C-116.63058898 34.61403887 -105.24009848 16.91111446 -86.25 6.125 C-84.83789314 5.40761951 -83.42148857 4.69860634 -82 4 C-81.39285156 3.65582031 -80.78570313 3.31164063 -80.16015625 2.95703125 C-57.4212253 -9.59024354 -24.04710112 -7.88886402 0 0 Z " fill="#FDFEFE" transform="translate(1242,1231)"/>
<path d="M0 0 C45.87 0 91.74 0 139 0 C139 13.2 139 26.4 139 40 C124.15 40 109.3 40 94 40 C94 87.19 94 134.38 94 183 C77.5 183 61 183 44 183 C44 135.81 44 88.62 44 40 C29.48 40 14.96 40 0 40 C0 26.8 0 13.6 0 0 Z " fill="#FDFDFE" transform="translate(2789,1228)"/>
<path d="M0 0 C45.54 0 91.08 0 138 0 C138 13.2 138 26.4 138 40 C123.48 40 108.96 40 94 40 C94 87.19 94 134.38 94 183 C77.5 183 61 183 44 183 C44 135.81 44 88.62 44 40 C29.48 40 14.96 40 0 40 C0 26.8 0 13.6 0 0 Z " fill="#FDFDFE" transform="translate(2215,1228)"/>
<path d="M0 0 C45.87 0 91.74 0 139 0 C139 13.53 139 27.06 139 41 C124.15 41 109.3 41 94 41 C94 87.86 94 134.72 94 183 C77.83 183 61.66 183 45 183 C45 135.81 45 88.62 45 40 C30.15 40 15.3 40 0 40 C0 26.8 0 13.6 0 0 Z " fill="#FEFEFE" transform="translate(4227,1228)"/>
<path d="M0 0 C16.5 0 33 0 50 0 C50 60.39 50 120.78 50 183 C33.5 183 17 183 0 183 C0 122.61 0 62.22 0 0 Z " fill="#FDFDFE" transform="translate(3217,1228)"/>
<path d="M0 0 C16.17 0 32.34 0 49 0 C49 60.39 49 120.78 49 183 C32.83 183 16.66 183 0 183 C0 122.61 0 62.22 0 0 Z " fill="#FFFFFF" transform="translate(2713,1228)"/>
<path d="M0 0 C11.45886712 7.20696837 15.85090891 16.46551665 19.10546875 29.32421875 C22.84668998 48.81938248 22.2961508 73.22315255 11.98046875 90.609375 C6.98936016 97.83608431 0.73397215 101.57493218 -7.89453125 103.32421875 C-17.31081029 104.29372516 -27.8580129 105.02810359 -35.89453125 99.32421875 C-36.58546875 98.86144531 -37.27640625 98.39867187 -37.98828125 97.921875 C-47.3951679 90.74385888 -51.34193827 78.59393272 -53.45703125 67.328125 C-54.20172011 61.77470303 -54.07884658 56.16649665 -54.08203125 50.57421875 C-54.10040039 48.89972656 -54.10040039 48.89972656 -54.11914062 47.19140625 C-54.14363655 33.17973806 -51.79497399 18.21316054 -42.62890625 7.0390625 C-31.8524581 -3.61602925 -13.81091029 -6.77471503 0 0 Z " fill="#13538E" transform="translate(4490.89453125,1268.67578125)"/>
<path d="M0 0 C8.96888492 4.50006769 14.05640492 11.87629521 18.18359375 20.765625 C24.49356989 40.87479486 24.4815603 68.07864416 16.0546875 87.625 C11.85497652 95.33594475 5.99172637 101.01875746 -2.35009766 103.96264648 C-11.70892651 106.43041237 -23.81023199 106.10708687 -32.5625 102 C-42.23547037 96.10553368 -47.29613025 87.00807576 -50.25 76.23046875 C-51.89884744 69.3824203 -52.04608934 62.64818015 -51.96118164 55.64453125 C-51.93752513 53.56470927 -51.9406557 51.48617347 -51.94726562 49.40625 C-51.91373913 32.84219527 -49.85281527 17.98506496 -37.97265625 5.62890625 C-28.29835258 -2.88641262 -12.01360094 -4.18857719 0 0 Z " fill="#12538E" transform="translate(1385.625,1267.4375)"/>
<path d="M0 0 C0.71027344 0.42410156 1.42054688 0.84820313 2.15234375 1.28515625 C9.25756364 6.03520083 13.76334371 12.78871389 16 21 C17.01918744 32.17135324 15.98484937 42.31712855 8.73046875 51.18359375 C0.50862858 59.81374201 -8.93175339 62.9717081 -20.70947266 63.29199219 C-28.27351607 63.36801272 -34.2368839 62.73853634 -41 59 C-42.5778125 58.13375 -42.5778125 58.13375 -44.1875 57.25 C-50.98610807 51.81111354 -56.08007885 45.63396493 -58 37 C-59.12049514 25.63332768 -58.16786834 15.99652875 -50.9375 6.75 C-39.27193619 -5.67143188 -14.62486968 -9.18705121 0 0 Z " fill="#175FA1" transform="translate(2879,1988)"/>
<path d="M0 0 C5.00833985 4.7171573 8.0046133 9.2926392 8.30297852 16.29956055 C8.33764288 17.99511451 8.36240547 19.69089076 8.37890625 21.38671875 C8.39590073 22.28493851 8.4128952 23.18315826 8.43040466 24.1085968 C8.48338804 26.96816045 8.52377945 29.82771046 8.5625 32.6875 C8.60643147 35.55792946 8.65309832 38.42824707 8.70530701 41.29853821 C8.7372611 43.08245924 8.76415217 44.86647944 8.78553772 46.65055847 C8.73213183 50.96170784 8.73213183 50.96170784 10 55 C12.3140622 55.73075648 14.64828869 56.40138258 17 57 C17 58.65 17 60.3 17 62 C4.13 62 -8.74 62 -22 62 C-22 60.35 -22 58.7 -22 57 C-19.69 56.34 -17.38 55.68 -15 55 C-14.87624039 49.11018515 -14.78558486 43.22112988 -14.7253418 37.33032227 C-14.7002245 35.32725844 -14.66612405 33.32428602 -14.62280273 31.3215332 C-14.56202812 28.43938634 -14.53376268 25.55845279 -14.51171875 22.67578125 C-14.48591232 21.78288895 -14.4601059 20.88999664 -14.43351746 19.970047 C-14.4315085 15.49898937 -14.54417187 13.60143257 -17.32348633 9.93432617 C-19.91451082 7.77295918 -19.91451082 7.77295918 -23.3125 7.375 C-27.98985234 8.16777158 -31.32009338 10.03812394 -35 13 C-36.59919459 16.19838918 -36.16301759 19.67053358 -36.16796875 23.18359375 C-36.17129715 23.9949025 -36.17462555 24.80621124 -36.17805481 25.6421051 C-36.1831213 27.35946078 -36.18546322 29.07682631 -36.18530273 30.79418945 C-36.18748837 33.42350464 -36.20564436 36.05239976 -36.22460938 38.68164062 C-36.2275435 40.3489569 -36.22952817 42.01627516 -36.23046875 43.68359375 C-36.23765427 44.47116562 -36.24483978 45.25873749 -36.25224304 46.07017517 C-36.23613717 49.9130469 -36.18266282 51.72600577 -34 55 C-31.44816596 56.20450304 -31.44816596 56.20450304 -29 57 C-29 58.65 -29 60.3 -29 62 C-41.87 62 -54.74 62 -68 62 C-68 60.35 -68 58.7 -68 57 C-65.03 56.01 -62.06 55.02 -59 54 C-58.85169361 47.66465526 -58.74280164 41.33032016 -58.67041016 34.99365234 C-58.64023447 32.83819989 -58.59928798 30.68287024 -58.54736328 28.52783203 C-58.4745837 25.42970507 -58.44055168 22.33320068 -58.4140625 19.234375 C-58.38309479 18.27070007 -58.35212708 17.30702515 -58.32022095 16.31414795 C-58.31892548 13.73962323 -58.37608553 11.49812597 -59 9 C-61.97047127 6.31308528 -64.23700789 5.2543307 -68 4 C-68 2.35 -68 0.7 -68 -1 C-60.93111222 -1.85214779 -53.9911168 -2.12746455 -46.875 -2.0625 C-45.44027344 -2.05573242 -45.44027344 -2.05573242 -43.9765625 -2.04882812 C-41.65101378 -2.03720038 -39.32549793 -2.01927208 -37 -2 C-36.67 0.97 -36.34 3.94 -36 7 C-35.5153125 6.52949219 -35.030625 6.05898437 -34.53125 5.57421875 C-25.20771336 -3.08591239 -11.66912168 -7.38250555 0 0 Z " fill="#185FA1" transform="translate(2971,1987)"/>
<path d="M0 0 C4.90928934 2.81340043 8.03407291 7.06487983 10.34375 12.1640625 C10.98041638 15.46113312 10.97398593 18.642621 10.91015625 21.9921875 C10.91579086 22.90361511 10.92142548 23.81504272 10.92723083 24.75408936 C10.94358435 27.64128211 10.92820267 30.52692469 10.90625 33.4140625 C10.88964519 36.31533123 10.88055178 39.21559812 10.89598083 42.11688232 C10.90525077 43.91542885 10.89612947 45.71418837 10.86634827 47.51251221 C10.86163253 52.44968168 10.86163253 52.44968168 13.19897461 56.69824219 C15.6074359 58.34427538 17.46173722 58.84383886 20.34375 59.1640625 C20.34375 60.8140625 20.34375 62.4640625 20.34375 64.1640625 C7.47375 64.1640625 -5.39625 64.1640625 -18.65625 64.1640625 C-18.65625 62.5140625 -18.65625 60.8640625 -18.65625 59.1640625 C-16.34625 58.8340625 -14.03625 58.5040625 -11.65625 58.1640625 C-11.60679952 52.25587179 -11.57050636 46.34780166 -11.54638672 40.43945312 C-11.5363313 38.42966615 -11.52268515 36.4198938 -11.50537109 34.41015625 C-11.48110276 31.52079662 -11.46976229 28.63163048 -11.4609375 25.7421875 C-11.45061493 24.84413391 -11.44029236 23.94608032 -11.42965698 23.02081299 C-11.42950592 22.18024353 -11.42935486 21.33967407 -11.42919922 20.47363281 C-11.42253738 19.36776825 -11.42253738 19.36776825 -11.41574097 18.23956299 C-11.69596934 15.82129987 -12.39433288 14.23648037 -13.65625 12.1640625 C-16.51261437 10.22968916 -18.63146067 9.89851265 -22.03125 10.2265625 C-22.76085938 10.27941406 -23.49046875 10.33226562 -24.2421875 10.38671875 C-27.76630687 11.521508 -30.39415659 13.26166567 -32.65625 16.1640625 C-33.47244538 19.25702462 -33.35818524 22.22164802 -33.2421875 25.40234375 C-33.22945297 26.72349434 -33.22945297 26.72349434 -33.21646118 28.07133484 C-33.18297156 30.87434125 -33.10770454 33.67443135 -33.03125 36.4765625 C-33.00114448 38.38081772 -32.97376969 40.2851182 -32.94921875 42.18945312 C-32.8831952 46.8487736 -32.77970728 51.50592429 -32.65625 56.1640625 C-30.34625 57.1540625 -28.03625 58.1440625 -25.65625 59.1640625 C-25.65625 60.8140625 -25.65625 62.4640625 -25.65625 64.1640625 C-38.52625 64.1640625 -51.39625 64.1640625 -64.65625 64.1640625 C-64.65625 62.5140625 -64.65625 60.8640625 -64.65625 59.1640625 C-64.09035156 59.04289062 -63.52445313 58.92171875 -62.94140625 58.796875 C-61.84119141 58.54550781 -61.84119141 58.54550781 -60.71875 58.2890625 C-59.98785156 58.12664062 -59.25695313 57.96421875 -58.50390625 57.796875 C-56.44924706 57.33444727 -56.44924706 57.33444727 -55.65625 55.1640625 C-55.54725233 53.79685084 -55.49731191 52.42465326 -55.47924805 51.05322266 C-55.46641281 50.20539215 -55.45357758 49.35756165 -55.44035339 48.48403931 C-55.43296646 47.56633759 -55.42557953 46.64863586 -55.41796875 45.703125 C-55.409897 44.76101166 -55.40182526 43.81889832 -55.39350891 42.84823608 C-55.3796658 40.85261884 -55.36894466 38.8569779 -55.36108398 36.86132812 C-55.34385763 33.80813854 -55.2999722 30.75602792 -55.25585938 27.703125 C-55.24573374 25.76563297 -55.23721723 23.82813173 -55.23046875 21.890625 C-55.20420662 20.52014511 -55.20420662 20.52014511 -55.17741394 19.12197876 C-55.15182454 14.03398121 -55.15182454 14.03398121 -57.47973633 9.63427734 C-60.09454907 7.86799553 -62.62230347 6.99150246 -65.65625 6.1640625 C-65.65625 4.5140625 -65.65625 2.8640625 -65.65625 1.1640625 C-54.969087 0.36820994 -44.37225323 0.03581246 -33.65625 0.1640625 C-33.16125 4.1240625 -33.16125 4.1240625 -32.65625 8.1640625 C-31.89699219 7.59816406 -31.13773438 7.03226563 -30.35546875 6.44921875 C-29.36160156 5.71574219 -28.36773438 4.98226563 -27.34375 4.2265625 C-26.35761719 3.49566406 -25.37148437 2.76476563 -24.35546875 2.01171875 C-17.98762132 -2.34716958 -7.27086141 -2.28818285 0 0 Z " fill="#165EA1" transform="translate(3058.65625,1984.8359375)"/>
<path d="M0 0 C2.69760016 0.8400977 3.90147565 0.80695411 6.49609375 -0.22265625 C6.82609375 -0.55265625 7.15609375 -0.88265625 7.49609375 -1.22265625 C9.80609375 -1.22265625 12.11609375 -1.22265625 14.49609375 -1.22265625 C14.49609375 9.66734375 14.49609375 20.55734375 14.49609375 31.77734375 C12.51609375 31.77734375 10.53609375 31.77734375 8.49609375 31.77734375 C8.13257812 30.85953125 7.7690625 29.94171875 7.39453125 28.99609375 C3.45561394 19.28706613 -0.72913469 9.42591402 -10.79296875 4.703125 C-16.23782969 2.84371284 -22.52095067 2.61114787 -27.921875 4.72265625 C-35.15454143 9.03783059 -39.0545168 15.19557418 -41.5703125 23.1484375 C-42.99219609 29.04304884 -42.833066 34.99651496 -42.81640625 41.02734375 C-42.83251953 42.17847656 -42.84863281 43.32960938 -42.86523438 44.515625 C-42.87170889 56.00141065 -41.4219014 67.80585895 -32.98828125 76.3046875 C-26.64428005 81.83165824 -21.50171966 82.30988169 -13.26953125 82.0859375 C-4.52353089 81.36920096 1.54011535 77.01817329 7.49609375 70.77734375 C9.31602868 68.50684241 10.90195569 66.21836765 12.49609375 63.77734375 C14.14609375 64.43734375 15.79609375 65.09734375 17.49609375 65.77734375 C17.04556231 72.9858468 11.19694198 78.31350421 6.24609375 83.02734375 C1.74559495 86.90997746 -2.88292671 88.98147122 -8.50390625 90.77734375 C-9.49390625 91.10734375 -10.48390625 91.43734375 -11.50390625 91.77734375 C-27.52230601 93.07463372 -40.536356 91.85152579 -53.50390625 81.77734375 C-56.19140625 79.40234375 -56.19140625 79.40234375 -58.50390625 76.77734375 C-58.99632813 76.22691406 -59.48875 75.67648437 -59.99609375 75.109375 C-69.09242605 64.13494424 -70.4850672 49.52741626 -69.50390625 35.77734375 C-66.96077311 23.52670812 -60.46591419 12.43527748 -50.22265625 5.15625 C-47.7043588 3.55840621 -45.15435368 2.14391917 -42.50390625 0.77734375 C-41.72917969 0.36097656 -40.95445312 -0.05539062 -40.15625 -0.484375 C-28.04561032 -5.95431527 -12.13676675 -4.78701159 0 0 Z " fill="#1960A2" transform="translate(2796.50390625,1959.22265625)"/>
<path d="M0 0 C1.38759521 0.01921509 1.38759521 0.01921509 2.80322266 0.03881836 C11.47115001 0.29691091 17.83314743 1.8049143 24.4375 7.625 C31.12627683 15.04116155 31.5625 21.56965747 31.5625 31.5 C17.0425 31.5 2.5225 31.5 -12.4375 31.5 C-10.7247119 44.0959961 -10.7247119 44.0959961 -4 53.875 C1.44219949 57.3261509 6.16103481 58.48095122 12.5625 57.5 C19.12286294 55.22873022 23.60197065 52.17675874 27.5625 46.5 C29.2125 47.49 30.8625 48.48 32.5625 49.5 C30.33290833 56.2121215 25.2083064 60.43855858 19.14453125 63.8671875 C9.03333355 68.5078377 -3.62306303 69.42203733 -14.3125 66.0625 C-22.27205865 62.664981 -29.39463853 56.53077183 -32.765625 48.453125 C-32.98734375 47.80859375 -33.2090625 47.1640625 -33.4375 46.5 C-33.65921875 45.87609375 -33.8809375 45.2521875 -34.109375 44.609375 C-36.70774999 35.97153383 -36.41584132 26.63615668 -32.4375 18.5 C-24.96347432 6.17918191 -14.4344808 -0.30306899 0 0 Z " fill="#175FA1" transform="translate(3120.4375,1983.5)"/>
<path d="M0 0 C4.28687938 3.58292866 6.53727495 6.53555386 7.41796875 12.11328125 C6.75523893 16.16329681 5.42233207 18.37995009 2.85546875 21.55078125 C0.31191898 22.82255613 -1.61618277 22.79024184 -4.45703125 22.86328125 C-5.40191406 22.90066406 -6.34679688 22.93804688 -7.3203125 22.9765625 C-11.11211426 22.40490774 -12.62915741 21.4520879 -15.14453125 18.55078125 C-15.51686142 15.58405448 -15.62535585 13.23221884 -15.45703125 10.30078125 C-15.43447266 9.55570313 -15.41191406 8.810625 -15.38867188 8.04296875 C-15.32996686 6.21137225 -15.24028882 4.38081472 -15.14453125 2.55078125 C-20.18988051 2.31214915 -20.18988051 2.31214915 -24.83203125 3.98828125 C-30.68416679 10.47308009 -31.77330033 17.57324184 -31.58203125 26.05078125 C-31.58912109 26.93636719 -31.59621094 27.82195312 -31.60351562 28.734375 C-31.53324115 36.0969782 -30.51314905 42.76765534 -25.64453125 48.48828125 C-19.83458255 53.28148893 -15.4737194 53.15424694 -8.14453125 52.55078125 C-2.55914697 50.79241953 0.3782211 47.05147413 3.85546875 42.55078125 C5.50546875 43.21078125 7.15546875 43.87078125 8.85546875 44.55078125 C7.10829977 50.76293761 2.71400161 55.76364934 -2.6875 59.140625 C-12.39112764 64.08560511 -23.03143626 65.45975218 -33.65234375 62.609375 C-43.95785901 58.48975173 -49.64749328 52.894561 -54.39453125 42.92578125 C-57.30715383 33.70247641 -56.95421731 24.43525666 -53.14453125 15.55078125 C-48.64229631 7.78056892 -41.52379957 0.90248858 -33.14453125 -2.44921875 C-23.1872 -5.07945719 -8.87870953 -5.5786582 0 0 Z " fill="#1960A2" transform="translate(3216.14453125,1987.44921875)"/>
<path d="M0 0 C6.93 0 13.86 0 21 0 C21 6.6 21 13.2 21 20 C26.94 20 32.88 20 39 20 C39 21.98 39 23.96 39 26 C33.06 26 27.12 26 21 26 C21.09711106 31.72955228 21.19995189 37.45841091 21.31738281 43.1875 C21.35558233 45.13502798 21.39045075 47.08262435 21.421875 49.03027344 C21.46772196 51.83553446 21.52568366 54.64032839 21.5859375 57.4453125 C21.59748871 58.31116974 21.60903992 59.17702698 21.62094116 60.06912231 C21.73352665 64.71765327 22.07399915 68.67997411 24 73 C26.9615696 74.4807848 29.83506295 74.35314037 33.125 74.5625 C35.04699219 74.68818359 35.04699219 74.68818359 37.0078125 74.81640625 C37.99523438 74.87699219 38.98265625 74.93757813 40 75 C40 76.65 40 78.3 40 80 C38.43979133 80.65134925 36.87671421 81.29582964 35.3125 81.9375 C34.00732422 82.47697266 34.00732422 82.47697266 32.67578125 83.02734375 C25.74076123 85.54824884 17.14293154 86.53656553 10.125 83.8125 C5.88925451 81.35576762 2.89374529 79.01063585 0.87548828 74.47021484 C-0.28907926 69.85416268 -0.24784885 65.52978896 -0.1953125 60.7890625 C-0.1924826 59.82092621 -0.18965271 58.85278992 -0.18673706 57.85531616 C-0.17558696 54.77841572 -0.1504918 51.70181172 -0.125 48.625 C-0.11496352 46.5325563 -0.10583884 44.44010802 -0.09765625 42.34765625 C-0.07566453 37.23165749 -0.04117025 32.11587892 0 27 C-3.96 27 -7.92 27 -12 27 C-12 24.69 -12 22.38 -12 20 C-8.04 20 -4.08 20 0 20 C0 13.4 0 6.8 0 0 Z " fill="#185FA1" transform="translate(3237,1966)"/>
<path d="M0 0 C1.81028581 2.71542871 2.4130297 4.0889288 3.11328125 7.1484375 C3.30672119 7.97843262 3.50016113 8.80842773 3.69946289 9.66357422 C3.90176514 10.55834473 4.10406738 11.45311523 4.3125 12.375 C4.75511582 14.28127148 5.19782686 16.18752086 5.640625 18.09375 C5.97803711 19.56134766 5.97803711 19.56134766 6.32226562 21.05859375 C7.38440078 25.66832154 8.4703488 30.27230233 9.5625 34.875 C9.77036133 35.75164307 9.97822266 36.62828613 10.19238281 37.53149414 C11.9901393 45.06154581 13.98484356 52.52441966 16 60 C17.32 65.28 18.64 70.56 20 76 C7.13 76 -5.74 76 -19 76 C-14.61077662 58.44310647 -14.61077662 58.44310647 -13.12475586 52.57597351 C-12.29533212 49.30034849 -11.47055863 46.02355494 -10.64550781 42.74682617 C-10.21644281 41.0456581 -9.78611161 39.34480887 -9.35449219 37.64428711 C-6.75825098 27.41001456 -4.3167102 17.17364505 -2.25561523 6.81645203 C-1.10192703 1.10192703 -1.10192703 1.10192703 0 0 Z " fill="#144B7E" transform="translate(4127,1260)"/>
<path d="M0 0 C3.58875 -0.0825 7.1775 -0.165 10.875 -0.25 C11.98472168 -0.28641602 13.09444336 -0.32283203 14.23779297 -0.36035156 C22.53162295 -0.45150871 28.94716516 1.41308414 35.9375 5.875 C39.96274849 10.02222572 41.20105992 13.67679407 41.4375 19.375 C41.27159296 24.67681186 40.24310947 28.75283187 37 33 C29.30636448 39.49684778 21.13730679 39.27159619 11.5625 39.125 C7.746875 39.08375 3.93125 39.0425 0 39 C0 26.13 0 13.26 0 0 Z " fill="#164E81" transform="translate(3930,1334)"/>
<path d="M0 0 C5.11468337 2.99160725 6.77767649 5.92558829 8.45703125 11.5234375 C11.27074334 24.35720343 12.17401603 40.93175626 5.0625 52.625 C1.96758066 56.18884651 0.29183129 56.83254039 -4.375 57.4375 C-7.94712198 57.00638183 -10.0421232 56.43024037 -12.64453125 53.890625 C-18.15422786 46.2056303 -18.36562525 36.90771491 -18.4375 27.8125 C-18.44765137 26.89863525 -18.45780273 25.98477051 -18.46826172 25.04321289 C-18.34945601 15.75210411 -16.6995735 7.6995735 -10 1 C-6.75681023 -0.62159489 -3.50535577 -0.55485147 0 0 Z " fill="#FAFBFC" transform="translate(2862,1989)"/>
<path d="M0 0 C23.77384196 0 23.77384196 0 30 5 C35.09808001 10.22242342 35.34917625 14.89150773 35.28125 21.921875 C34.75300939 27.70317499 32.3049008 31.368874 28.75 35.8125 C19.68219101 43.02552988 11.6934329 41 0 41 C0 27.47 0 13.94 0 0 Z " fill="#114A7E" transform="translate(4646,1266)"/>
<path d="M0 0 C25.84630533 -0.51692611 25.84630533 -0.51692611 33.5625 5.5625 C37.07128193 9.07128193 37.17743001 10.88781042 37.25 15.75 C37.18629292 20.59173831 37.05861146 24.05340457 34 28 C28.77975284 31.89627143 23.9676115 33.1331534 17.578125 33.09765625 C16.65418945 33.09515869 15.73025391 33.09266113 14.77832031 33.09008789 C13.61397461 33.08098389 12.44962891 33.07187988 11.25 33.0625 C7.5375 33.041875 3.825 33.02125 0 33 C0 22.11 0 11.22 0 0 Z " fill="#154C7F" transform="translate(3930,1265)"/>
<path d="M0 0 C4.06283817 0.84642462 5.46249851 2.38263699 8 5.625 C10.74428328 11.24424672 10 14.79028347 10 21.625 C3.07 21.625 -3.86 21.625 -11 21.625 C-11 13.32610796 -10.64491487 9.05624092 -5.6875 2.625 C-3 0.625 -3 0.625 0 0 Z " fill="#F1F5F9" transform="translate(3119,1988.375)"/>
<path d="M0 0 C0 0.99 0 1.98 0 3 C-1.38782485 3.8466034 -2.78569397 4.67675339 -4.1875 5.5 C-4.96480469 5.9640625 -5.74210937 6.428125 -6.54296875 6.90625 C-9.24103386 8.10729647 -11.0806982 8.20741043 -14 8 C-14.33 7.01 -14.66 6.02 -15 5 C-14.34 5 -13.68 5 -13 5 C-13 4.34 -13 3.68 -13 3 C-8.70614007 -0.4887612 -5.28129105 -0.26854022 0 0 Z " fill="#215789" transform="translate(475,1686)"/>
<path d="M0 0 C0 1.65 0 3.3 0 5 C-2.64 5.33 -5.28 5.66 -8 6 C-8.66 5.01 -9.32 4.02 -10 3 C-6.68152292 -0.06320961 -4.44849969 -0.3033068 0 0 Z " fill="#215889" transform="translate(480,1678)"/>
</svg>
